M48
;GenerationSoftware,Autodesk,EAGLE,9.6.2*%
;CreationDate,2022-02-25T16:18:37Z*%
FMAT,2
ICI,OFF
METRIC,TZ,000.000
T3C0.305
T2C1.016
T1C3.048
%
G90
M71
T1
X106172Y48768
X132080Y100584
X22860Y22860
X2540Y22860
X2540Y2540
X48768Y22860
X28448Y22860
X28448Y2540
X74676Y22860
X54356Y22860
X54356Y2540
X100584Y22860
X80264Y22860
X80264Y2540
X126492Y22860
X106172Y22860
X106172Y2540
X152400Y22860
X132080Y22860
X132080Y2540
X22860Y48768
X2540Y48768
X2540Y28448
X48768Y48768
X28448Y48768
X28448Y28448
X74676Y48768
X54356Y48768
X54356Y28448
X100584Y48768
X80264Y48768
X80264Y28448
X126492Y48768
X80264Y100584
X106172Y28448
X152400Y48768
X132080Y48768
X132080Y28448
X22860Y74676
X2540Y74676
X2540Y54356
X48768Y74676
X28448Y74676
X28448Y54356
X74676Y74676
X54356Y74676
X54356Y54356
X100584Y74676
X80264Y74676
X80264Y54356
X126492Y74676
X106172Y74676
X106172Y54356
X152400Y74676
X132080Y74676
X132080Y54356
X22860Y100584
X2540Y100584
X2540Y80264
X48768Y100584
X28448Y100584
X28448Y80264
X74676Y100584
X54356Y100584
X54356Y80264
X100584Y100584
X132080Y80264
X80264Y80264
X126492Y100584
X106172Y100584
X106172Y80264
X152400Y100584
T2
X99314Y1270
X146050Y78994
X6350Y1270
X8890Y1270
X11430Y1270
X13970Y1270
X24130Y1270
X21590Y1270
X19050Y1270
X16510Y1270
X32258Y1270
X34798Y1270
X37338Y1270
X39878Y1270
X50038Y1270
X47498Y1270
X44958Y1270
X42418Y1270
X58166Y1270
X60706Y1270
X63246Y1270
X65786Y1270
X75946Y1270
X73406Y1270
X70866Y1270
X68326Y1270
X84074Y1270
X86614Y1270
X89154Y1270
X91694Y1270
X101854Y1270
X96774Y1270
X94234Y1270
X109982Y1270
X112522Y1270
X115062Y1270
X117602Y1270
X127762Y1270
X125222Y1270
X122682Y1270
X120142Y1270
X135890Y1270
X138430Y1270
X140970Y1270
X143510Y1270
X153670Y1270
X151130Y1270
X148590Y1270
X146050Y1270
X6350Y27178
X8890Y27178
X11430Y27178
X13970Y27178
X24130Y27178
X21590Y27178
X19050Y27178
X16510Y27178
X32258Y27178
X34798Y27178
X37338Y27178
X39878Y27178
X50038Y27178
X47498Y27178
X44958Y27178
X42418Y27178
X58166Y27178
X60706Y27178
X63246Y27178
X65786Y27178
X75946Y27178
X73406Y27178
X70866Y27178
X68326Y27178
X84074Y27178
X86614Y27178
X89154Y27178
X91694Y27178
X101854Y27178
X99314Y27178
X96774Y27178
X94234Y27178
X109982Y27178
X112522Y27178
X115062Y27178
X117602Y27178
X127762Y27178
X125222Y27178
X122682Y27178
X120142Y27178
X135890Y27178
X138430Y27178
X140970Y27178
X143510Y27178
X153670Y27178
X151130Y27178
X148590Y27178
X146050Y27178
X6350Y53086
X8890Y53086
X11430Y53086
X13970Y53086
X24130Y53086
X21590Y53086
X19050Y53086
X16510Y53086
X32258Y53086
X34798Y53086
X37338Y53086
X39878Y53086
X50038Y53086
X47498Y53086
X44958Y53086
X42418Y53086
X58166Y53086
X60706Y53086
X63246Y53086
X65786Y53086
X75946Y53086
X73406Y53086
X70866Y53086
X68326Y53086
X84074Y53086
X86614Y53086
X89154Y53086
X91694Y53086
X101854Y53086
X99314Y53086
X96774Y53086
X94234Y53086
X109982Y53086
X112522Y53086
X115062Y53086
X117602Y53086
X127762Y53086
X125222Y53086
X122682Y53086
X120142Y53086
X135890Y53086
X138430Y53086
X140970Y53086
X143510Y53086
X153670Y53086
X151130Y53086
X148590Y53086
X146050Y53086
X6350Y78994
X8890Y78994
X11430Y78994
X13970Y78994
X24130Y78994
X21590Y78994
X19050Y78994
X16510Y78994
X32258Y78994
X34798Y78994
X37338Y78994
X39878Y78994
X50038Y78994
X47498Y78994
X44958Y78994
X42418Y78994
X58166Y78994
X60706Y78994
X63246Y78994
X65786Y78994
X75946Y78994
X73406Y78994
X70866Y78994
X68326Y78994
X84074Y78994
X86614Y78994
X89154Y78994
X91694Y78994
X101854Y78994
X99314Y78994
X96774Y78994
X94234Y78994
X109982Y78994
X112522Y78994
X115062Y78994
X117602Y78994
X127762Y78994
X125222Y78994
X122682Y78994
X120142Y78994
X135890Y78994
X138430Y78994
X140970Y78994
X143510Y78994
X153670Y78994
X151130Y78994
X148590Y78994
T3
X6858Y35941
X10668Y35814
X15748Y40005
X18415Y35941
X14859Y35687
X17399Y29464
X10795Y29591
X2794Y39751
X19050Y37084
X20066Y30099
X19050Y33274
X17018Y31242
X14859Y31242
X11176Y31242
X2032Y39243
X6985Y32385
X13335Y35560
X18923Y32385
X13335Y41402
X12065Y41402
X16256Y29718
X12319Y29718
X4191Y42418
X10160Y33528
X14986Y34290
X20701Y29210
X17145Y36703
X15240Y38492
X9652Y38862
X9652Y35814
X17272Y30353
X11303Y30353
X15875Y38989
X17907Y37211
X8255Y38100
X8255Y36068
X11557Y28956
X32258Y40132
X46101Y42291
X48641Y44958
X30861Y42164
X35433Y39878
X34798Y38862
X32766Y35941
X36576Y35814
X41656Y40005
X44323Y35941
X40767Y35687
X43307Y29464
X36703Y29591
X28702Y39751
X44958Y37084
X45974Y30099
X44958Y33274
X42926Y31242
X40767Y31242
X37084Y31242
X27940Y39243
X32893Y32385
X39243Y35560
X44831Y32385
X39243Y41402
X37973Y41402
X42164Y29718
X38227Y29718
X30099Y42418
X36068Y33528
X40894Y34290
X46609Y29210
X43053Y36703
X41148Y38492
X35560Y38862
X35560Y35814
X43180Y30353
X37211Y30353
X41783Y38989
X43815Y37211
X34163Y38100
X34163Y36068
X37465Y28956
X58166Y40132
X72009Y42291
X74549Y44958
X56769Y42164
X61341Y39878
X60706Y38862
X58674Y35941
X62484Y35814
X67564Y40005
X70231Y35941
X66675Y35687
X69215Y29464
X62611Y29591
X54610Y39751
X70866Y37084
X71882Y30099
X70866Y33274
X68834Y31242
X66675Y31242
X62992Y31242
X53848Y39243
X58801Y32385
X65151Y35560
X70739Y32385
X65151Y41402
X63881Y41402
X68072Y29718
X64135Y29718
X56007Y42418
X61976Y33528
X66802Y34290
X72517Y29210
X68961Y36703
X67056Y38492
X61468Y38862
X61468Y35814
X69088Y30353
X63119Y30353
X67691Y38989
X69723Y37211
X60071Y38100
X60071Y36068
X63373Y28956
X84074Y40132
X97917Y42291
X100457Y44958
X82677Y42164
X87249Y39878
X86614Y38862
X84582Y35941
X88392Y35814
X93472Y40005
X96139Y35941
X92583Y35687
X95123Y29464
X88519Y29591
X80518Y39751
X96774Y37084
X97790Y30099
X96774Y33274
X94742Y31242
X92583Y31242
X88900Y31242
X79756Y39243
X84709Y32385
X91059Y35560
X96647Y32385
X91059Y41402
X89789Y41402
X93980Y29718
X90043Y29718
X81915Y42418
X87884Y33528
X92710Y34290
X98425Y29210
X94869Y36703
X92964Y38492
X87376Y38862
X87376Y35814
X94996Y30353
X89027Y30353
X93599Y38989
X95631Y37211
X85979Y38100
X85979Y36068
X89281Y28956
X109982Y40132
X123825Y42291
X126365Y44958
X108585Y42164
X113157Y39878
X112522Y38862
X110490Y35941
X114300Y35814
X119380Y40005
X122047Y35941
X118491Y35687
X121031Y29464
X114427Y29591
X106426Y39751
X122682Y37084
X123698Y30099
X122682Y33274
X120650Y31242
X118491Y31242
X114808Y31242
X105664Y39243
X110617Y32385
X116967Y35560
X122555Y32385
X116967Y41402
X115697Y41402
X119888Y29718
X115951Y29718
X107823Y42418
X113792Y33528
X118618Y34290
X124333Y29210
X120777Y36703
X118872Y38492
X113284Y38862
X113284Y35814
X120904Y30353
X114935Y30353
X119507Y38989
X121539Y37211
X111887Y38100
X111887Y36068
X115189Y28956
X135890Y40132
X149733Y42291
X152273Y44958
X134493Y42164
X139065Y39878
X138430Y38862
X136398Y35941
X140208Y35814
X145288Y40005
X147955Y35941
X144399Y35687
X146939Y29464
X140335Y29591
X132334Y39751
X148590Y37084
X149606Y30099
X148590Y33274
X146558Y31242
X144399Y31242
X140716Y31242
X131572Y39243
X136525Y32385
X142875Y35560
X148463Y32385
X142875Y41402
X141605Y41402
X145796Y29718
X141859Y29718
X133731Y42418
X139700Y33528
X144526Y34290
X150241Y29210
X146685Y36703
X144780Y38492
X139192Y38862
X139192Y35814
X146812Y30353
X140843Y30353
X145415Y38989
X147447Y37211
X137795Y38100
X137795Y36068
X141097Y28956
X6350Y66040
X20193Y68199
X22733Y70866
X4953Y68072
X9525Y65786
X8890Y64770
X6858Y61849
X10668Y61722
X15748Y65913
X18415Y61849
X14859Y61595
X17399Y55372
X10795Y55499
X2794Y65659
X19050Y62992
X20066Y56007
X19050Y59182
X17018Y57150
X14859Y57150
X11176Y57150
X2032Y65151
X6985Y58293
X13335Y61468
X18923Y58293
X13335Y67310
X12065Y67310
X16256Y55626
X12319Y55626
X4191Y68326
X10160Y59436
X14986Y60198
X20701Y55118
X17145Y62611
X15240Y64400
X9652Y64770
X9652Y61722
X17272Y56261
X11303Y56261
X15875Y64897
X17907Y63119
X8255Y64008
X8255Y61976
X11557Y54864
X32258Y66040
X46101Y68199
X48641Y70866
X30861Y68072
X35433Y65786
X34798Y64770
X32766Y61849
X36576Y61722
X41656Y65913
X44323Y61849
X40767Y61595
X43307Y55372
X36703Y55499
X28702Y65659
X44958Y62992
X45974Y56007
X44958Y59182
X42926Y57150
X40767Y57150
X37084Y57150
X27940Y65151
X32893Y58293
X39243Y61468
X44831Y58293
X39243Y67310
X37973Y67310
X42164Y55626
X38227Y55626
X30099Y68326
X36068Y59436
X40894Y60198
X46609Y55118
X43053Y62611
X41148Y64400
X35560Y64770
X35560Y61722
X43180Y56261
X37211Y56261
X41783Y64897
X43815Y63119
X34163Y64008
X34163Y61976
X37465Y54864
X58166Y66040
X72009Y68199
X74549Y70866
X56769Y68072
X61341Y65786
X60706Y64770
X58674Y61849
X62484Y61722
X67564Y65913
X70231Y61849
X66675Y61595
X69215Y55372
X62611Y55499
X54610Y65659
X70866Y62992
X71882Y56007
X70866Y59182
X68834Y57150
X66675Y57150
X62992Y57150
X53848Y65151
X58801Y58293
X65151Y61468
X70739Y58293
X65151Y67310
X63881Y67310
X68072Y55626
X64135Y55626
X56007Y68326
X61976Y59436
X66802Y60198
X72517Y55118
X68961Y62611
X67056Y64400
X61468Y64770
X61468Y61722
X69088Y56261
X63119Y56261
X67691Y64897
X69723Y63119
X60071Y64008
X60071Y61976
X63373Y54864
X84074Y66040
X97917Y68199
X100457Y70866
X92964Y12584
X87249Y65786
X86614Y64770
X84582Y61849
X88392Y61722
X93472Y65913
X96139Y61849
X92583Y61595
X95123Y55372
X88519Y55499
X80518Y65659
X96774Y62992
X97790Y56007
X96774Y59182
X94742Y57150
X92583Y57150
X88900Y57150
X79756Y65151
X84709Y58293
X91059Y61468
X96647Y58293
X91059Y67310
X89789Y67310
X93980Y55626
X90043Y55626
X81915Y68326
X87884Y59436
X92710Y60198
X98425Y55118
X94869Y62611
X92964Y64400
X87376Y64770
X87376Y61722
X94996Y56261
X89027Y56261
X93599Y64897
X95631Y63119
X85979Y64008
X85979Y61976
X89281Y54864
X109982Y66040
X123825Y68199
X126365Y70866
X108585Y68072
X113157Y65786
X112522Y64770
X110490Y61849
X114300Y61722
X119380Y65913
X122047Y61849
X118491Y61595
X121031Y55372
X114427Y55499
X106426Y65659
X122682Y62992
X123698Y56007
X122682Y59182
X120650Y57150
X118491Y57150
X114808Y57150
X105664Y65151
X110617Y58293
X116967Y61468
X122555Y58293
X116967Y67310
X115697Y67310
X119888Y55626
X115951Y55626
X107823Y68326
X113792Y59436
X118618Y60198
X124333Y55118
X120777Y62611
X118872Y64400
X113284Y64770
X113284Y61722
X120904Y56261
X114935Y56261
X119507Y64897
X121539Y63119
X111887Y64008
X111887Y61976
X115189Y54864
X135890Y66040
X149733Y68199
X152273Y70866
X134493Y68072
X139065Y65786
X138430Y64770
X136398Y61849
X140208Y61722
X145288Y65913
X147955Y61849
X144399Y61595
X146939Y55372
X140335Y55499
X132334Y65659
X148590Y62992
X149606Y56007
X148590Y59182
X146558Y57150
X144399Y57150
X140716Y57150
X131572Y65151
X136525Y58293
X142875Y61468
X148463Y58293
X142875Y67310
X141605Y67310
X145796Y55626
X141859Y55626
X133731Y68326
X139700Y59436
X144526Y60198
X150241Y55118
X146685Y62611
X144780Y64400
X139192Y64770
X139192Y61722
X146812Y56261
X140843Y56261
X145415Y64897
X147447Y63119
X137795Y64008
X137795Y61976
X141097Y54864
X6350Y91948
X20193Y94107
X22733Y96774
X4953Y93980
X9525Y91694
X8890Y90678
X6858Y87757
X10668Y87630
X15748Y91821
X18415Y87757
X14859Y87503
X17399Y81280
X10795Y81407
X2794Y91567
X19050Y88900
X20066Y81915
X19050Y85090
X17018Y83058
X14859Y83058
X11176Y83058
X2032Y91059
X6985Y84201
X13335Y87376
X18923Y84201
X13335Y93218
X12065Y93218
X16256Y81534
X12319Y81534
X4191Y94234
X10160Y85344
X14986Y86106
X20701Y81026
X17145Y88519
X15240Y90308
X9652Y90678
X9652Y87630
X17272Y82169
X11303Y82169
X15875Y90805
X17907Y89027
X8255Y89916
X8255Y87884
X11557Y80772
X32258Y91948
X46101Y94107
X48641Y96774
X30861Y93980
X35433Y91694
X34798Y90678
X32766Y87757
X36576Y87630
X41656Y91821
X44323Y87757
X40767Y87503
X43307Y81280
X36703Y81407
X28702Y91567
X44958Y88900
X45974Y81915
X44958Y85090
X42926Y83058
X40767Y83058
X37084Y83058
X27940Y91059
X32893Y84201
X39243Y87376
X44831Y84201
X39243Y93218
X37973Y93218
X42164Y81534
X38227Y81534
X30099Y94234
X36068Y85344
X40894Y86106
X46609Y81026
X43053Y88519
X41148Y90308
X35560Y90678
X35560Y87630
X43180Y82169
X37211Y82169
X41783Y90805
X43815Y89027
X34163Y89916
X34163Y87884
X37465Y80772
X58166Y91948
X72009Y94107
X74549Y96774
X56769Y93980
X61341Y91694
X60706Y90678
X58674Y87757
X62484Y87630
X67564Y91821
X70231Y87757
X66675Y87503
X69215Y81280
X62611Y81407
X54610Y91567
X70866Y88900
X71882Y81915
X70866Y85090
X68834Y83058
X66675Y83058
X62992Y83058
X53848Y91059
X58801Y84201
X65151Y87376
X70739Y84201
X65151Y93218
X63881Y93218
X68072Y81534
X64135Y81534
X56007Y94234
X61976Y85344
X66802Y86106
X72517Y81026
X68961Y88519
X67056Y90308
X61468Y90678
X61468Y87630
X69088Y82169
X63119Y82169
X67691Y90805
X69723Y89027
X60071Y89916
X60071Y87884
X63373Y80772
X84074Y91948
X97917Y94107
X100457Y96774
X82677Y93980
X87249Y91694
X86614Y90678
X84582Y87757
X88392Y87630
X93472Y91821
X96139Y87757
X92583Y87503
X95123Y81280
X88519Y81407
X80518Y91567
X96774Y88900
X97790Y81915
X96774Y85090
X94742Y83058
X92583Y83058
X88900Y83058
X79756Y91059
X84709Y84201
X91059Y87376
X96647Y84201
X91059Y93218
X89789Y93218
X93980Y81534
X90043Y81534
X81915Y94234
X87884Y85344
X92710Y86106
X98425Y81026
X94869Y88519
X92964Y90308
X87376Y90678
X87376Y87630
X94996Y82169
X89027Y82169
X93599Y90805
X95631Y89027
X85979Y89916
X85979Y87884
X89281Y80772
X109982Y91948
X123825Y94107
X126365Y96774
X108585Y93980
X113157Y91694
X112522Y90678
X110490Y87757
X114300Y87630
X119380Y91821
X122047Y87757
X118491Y87503
X121031Y81280
X114427Y81407
X106426Y91567
X122682Y88900
X123698Y81915
X122682Y85090
X120650Y83058
X118491Y83058
X114808Y83058
X105664Y91059
X110617Y84201
X116967Y87376
X122555Y84201
X116967Y93218
X6350Y14224
X119888Y81534
X115951Y81534
X107823Y94234
X113792Y85344
X118618Y86106
X124333Y81026
X120777Y88519
X118872Y90308
X113284Y90678
X113284Y87630
X120904Y82169
X114935Y82169
X119507Y90805
X121539Y89027
X111887Y89916
X111887Y87884
X115189Y80772
X135890Y91948
X149733Y94107
X152273Y96774
X134493Y93980
X139065Y91694
X138430Y90678
X136398Y87757
X140208Y87630
X145288Y91821
X147955Y87757
X144399Y87503
X146939Y81280
X140335Y81407
X132334Y91567
X148590Y88900
X149606Y81915
X148590Y85090
X146558Y83058
X144399Y83058
X140716Y83058
X131572Y91059
X136525Y84201
X142875Y87376
X148463Y84201
X142875Y93218
X141605Y93218
X145796Y81534
X141859Y81534
X133731Y94234
X139700Y85344
X144526Y86106
X150241Y81026
X146685Y88519
X144780Y90308
X139192Y90678
X139192Y87630
X146812Y82169
X140843Y82169
X145415Y90805
X147447Y89027
X137795Y89916
X137795Y87884
X141097Y80772
X20193Y16383
X22733Y19050
X4953Y16256
X9525Y13970
X8890Y12954
X6858Y10033
X10668Y9906
X15748Y14097
X18415Y10033
X14859Y9779
X17399Y3556
X10795Y3683
X2794Y13843
X19050Y11176
X20066Y4191
X19050Y7366
X17018Y5334
X14859Y5334
X11176Y5334
X2032Y13335
X6985Y6477
X13335Y9652
X18923Y6477
X13335Y15494
X12065Y15494
X16256Y3810
X12319Y3810
X4191Y16510
X10160Y7620
X14986Y8382
X20701Y3302
X17145Y10795
X15240Y12584
X9652Y12954
X9652Y9906
X17272Y4445
X11303Y4445
X15875Y13081
X17907Y11303
X8255Y12192
X8255Y10160
X11557Y3048
X32258Y14224
X46101Y16383
X48641Y19050
X30861Y16256
X35433Y13970
X34798Y12954
X32766Y10033
X36576Y9906
X41656Y14097
X44323Y10033
X40767Y9779
X43307Y3556
X36703Y3683
X28702Y13843
X44958Y11176
X45974Y4191
X44958Y7366
X42926Y5334
X40767Y5334
X37084Y5334
X27940Y13335
X32893Y6477
X39243Y9652
X44831Y6477
X39243Y15494
X37973Y15494
X42164Y3810
X38227Y3810
X30099Y16510
X36068Y7620
X40894Y8382
X46609Y3302
X43053Y10795
X41148Y12584
X35560Y12954
X35560Y9906
X43180Y4445
X37211Y4445
X41783Y13081
X43815Y11303
X34163Y12192
X34163Y10160
X37465Y3048
X58166Y14224
X72009Y16383
X74549Y19050
X56769Y16256
X61341Y13970
X60706Y12954
X58674Y10033
X62484Y9906
X67564Y14097
X70231Y10033
X66675Y9779
X69215Y3556
X62611Y3683
X54610Y13843
X70866Y11176
X71882Y4191
X82677Y68072
X70866Y7366
X68834Y5334
X66675Y5334
X62992Y5334
X53848Y13335
X58801Y6477
X65151Y9652
X70739Y6477
X65151Y15494
X63881Y15494
X68072Y3810
X64135Y3810
X56007Y16510
X61976Y7620
X66802Y8382
X72517Y3302
X68961Y10795
X67056Y12584
X61468Y12954
X61468Y9906
X69088Y4445
X63119Y4445
X67691Y13081
X69723Y11303
X60071Y12192
X60071Y10160
X63373Y3048
X84074Y14224
X97917Y16383
X100457Y19050
X82677Y16256
X87249Y13970
X86614Y12954
X84582Y10033
X88392Y9906
X93472Y14097
X96139Y10033
X92583Y9779
X95123Y3556
X88519Y3683
X80518Y13843
X96774Y11176
X97790Y4191
X96774Y7366
X94742Y5334
X92583Y5334
X88900Y5334
X79756Y13335
X84709Y6477
X91059Y9652
X96647Y6477
X91059Y15494
X89789Y15494
X93980Y3810
X90043Y3810
X81915Y16510
X87884Y7620
X92710Y8382
X98425Y3302
X94869Y10795
X87376Y12954
X87376Y9906
X94996Y4445
X89027Y4445
X93599Y13081
X95631Y11303
X85979Y12192
X85979Y10160
X89281Y3048
X109982Y14224
X123825Y16383
X126365Y19050
X108585Y16256
X113157Y13970
X112522Y12954
X110490Y10033
X114300Y9906
X119380Y14097
X122047Y10033
X118491Y9779
X121031Y3556
X114427Y3683
X106426Y13843
X122682Y11176
X123698Y4191
X122682Y7366
X120650Y5334
X118491Y5334
X114808Y5334
X105664Y13335
X110617Y6477
X116967Y9652
X122555Y6477
X116967Y15494
X115697Y15494
X119888Y3810
X115951Y3810
X107823Y16510
X113792Y7620
X118618Y8382
X124333Y3302
X120777Y10795
X118872Y12584
X113284Y12954
X113284Y9906
X120904Y4445
X114935Y4445
X119507Y13081
X121539Y11303
X111887Y12192
X111887Y10160
X115189Y3048
X135890Y14224
X149733Y16383
X152273Y19050
X134493Y16256
X139065Y13970
X138430Y12954
X136398Y10033
X140208Y9906
X145288Y14097
X147955Y10033
X144399Y9779
X146939Y3556
X140335Y3683
X132334Y13843
X148590Y11176
X149606Y4191
X148590Y7366
X146558Y5334
X144399Y5334
X140716Y5334
X131572Y13335
X136525Y6477
X142875Y9652
X148463Y6477
X142875Y15494
X141605Y15494
X145796Y3810
X141859Y3810
X133731Y16510
X139700Y7620
X144526Y8382
X150241Y3302
X146685Y10795
X144780Y12584
X139192Y12954
X139192Y9906
X146812Y4445
X140843Y4445
X145415Y13081
X147447Y11303
X137795Y12192
X137795Y10160
X141097Y3048
X6350Y40132
X20193Y42291
X22733Y44958
X4953Y42164
X9525Y39878
X8890Y38862
X115697Y93218
M30