G04 EAGLE Gerber RS-274X export*
G75*
%MOMM*%
%FSLAX34Y34*%
%LPD*%
%INSolderpaste Top*%
%IPPOS*%
%AMOC8*
5,1,8,0,0,1.08239X$1,22.5*%
G01*
%ADD10C,0.096000*%
%ADD11C,0.102000*%
%ADD12C,0.100000*%
%ADD13C,0.300000*%
%ADD14C,0.101500*%
%ADD15R,2.489200X2.235200*%


D10*
X249470Y104520D02*
X249470Y93480D01*
X230430Y93480D01*
X230430Y104520D01*
X249470Y104520D01*
X249470Y94392D02*
X230430Y94392D01*
X230430Y95304D02*
X249470Y95304D01*
X249470Y96216D02*
X230430Y96216D01*
X230430Y97128D02*
X249470Y97128D01*
X249470Y98040D02*
X230430Y98040D01*
X230430Y98952D02*
X249470Y98952D01*
X249470Y99864D02*
X230430Y99864D01*
X230430Y100776D02*
X249470Y100776D01*
X249470Y101688D02*
X230430Y101688D01*
X230430Y102600D02*
X249470Y102600D01*
X249470Y103512D02*
X230430Y103512D01*
X230430Y104424D02*
X249470Y104424D01*
X249470Y149480D02*
X249470Y160520D01*
X249470Y149480D02*
X230430Y149480D01*
X230430Y160520D01*
X249470Y160520D01*
X249470Y150392D02*
X230430Y150392D01*
X230430Y151304D02*
X249470Y151304D01*
X249470Y152216D02*
X230430Y152216D01*
X230430Y153128D02*
X249470Y153128D01*
X249470Y154040D02*
X230430Y154040D01*
X230430Y154952D02*
X249470Y154952D01*
X249470Y155864D02*
X230430Y155864D01*
X230430Y156776D02*
X249470Y156776D01*
X249470Y157688D02*
X230430Y157688D01*
X230430Y158600D02*
X249470Y158600D01*
X249470Y159512D02*
X230430Y159512D01*
X230430Y160424D02*
X249470Y160424D01*
D11*
X209440Y114490D02*
X209440Y109510D01*
X196960Y109510D01*
X196960Y114490D01*
X209440Y114490D01*
X209440Y110479D02*
X196960Y110479D01*
X196960Y111448D02*
X209440Y111448D01*
X209440Y112417D02*
X196960Y112417D01*
X196960Y113386D02*
X209440Y113386D01*
X209440Y114355D02*
X196960Y114355D01*
X209440Y119510D02*
X209440Y124490D01*
X209440Y119510D02*
X196960Y119510D01*
X196960Y124490D01*
X209440Y124490D01*
X209440Y120479D02*
X196960Y120479D01*
X196960Y121448D02*
X209440Y121448D01*
X209440Y122417D02*
X196960Y122417D01*
X196960Y123386D02*
X209440Y123386D01*
X209440Y124355D02*
X196960Y124355D01*
X209440Y129510D02*
X209440Y134490D01*
X209440Y129510D02*
X196960Y129510D01*
X196960Y134490D01*
X209440Y134490D01*
X209440Y130479D02*
X196960Y130479D01*
X196960Y131448D02*
X209440Y131448D01*
X209440Y132417D02*
X196960Y132417D01*
X196960Y133386D02*
X209440Y133386D01*
X209440Y134355D02*
X196960Y134355D01*
X209440Y139510D02*
X209440Y144490D01*
X209440Y139510D02*
X196960Y139510D01*
X196960Y144490D01*
X209440Y144490D01*
X209440Y140479D02*
X196960Y140479D01*
X196960Y141448D02*
X209440Y141448D01*
X209440Y142417D02*
X196960Y142417D01*
X196960Y143386D02*
X209440Y143386D01*
X209440Y144355D02*
X196960Y144355D01*
D10*
X4530Y149480D02*
X4530Y160520D01*
X23570Y160520D01*
X23570Y149480D01*
X4530Y149480D01*
X4530Y150392D02*
X23570Y150392D01*
X23570Y151304D02*
X4530Y151304D01*
X4530Y152216D02*
X23570Y152216D01*
X23570Y153128D02*
X4530Y153128D01*
X4530Y154040D02*
X23570Y154040D01*
X23570Y154952D02*
X4530Y154952D01*
X4530Y155864D02*
X23570Y155864D01*
X23570Y156776D02*
X4530Y156776D01*
X4530Y157688D02*
X23570Y157688D01*
X23570Y158600D02*
X4530Y158600D01*
X4530Y159512D02*
X23570Y159512D01*
X23570Y160424D02*
X4530Y160424D01*
X4530Y104520D02*
X4530Y93480D01*
X4530Y104520D02*
X23570Y104520D01*
X23570Y93480D01*
X4530Y93480D01*
X4530Y94392D02*
X23570Y94392D01*
X23570Y95304D02*
X4530Y95304D01*
X4530Y96216D02*
X23570Y96216D01*
X23570Y97128D02*
X4530Y97128D01*
X4530Y98040D02*
X23570Y98040D01*
X23570Y98952D02*
X4530Y98952D01*
X4530Y99864D02*
X23570Y99864D01*
X23570Y100776D02*
X4530Y100776D01*
X4530Y101688D02*
X23570Y101688D01*
X23570Y102600D02*
X4530Y102600D01*
X4530Y103512D02*
X23570Y103512D01*
X23570Y104424D02*
X4530Y104424D01*
D11*
X44560Y139510D02*
X44560Y144490D01*
X57040Y144490D01*
X57040Y139510D01*
X44560Y139510D01*
X44560Y140479D02*
X57040Y140479D01*
X57040Y141448D02*
X44560Y141448D01*
X44560Y142417D02*
X57040Y142417D01*
X57040Y143386D02*
X44560Y143386D01*
X44560Y144355D02*
X57040Y144355D01*
X44560Y134490D02*
X44560Y129510D01*
X44560Y134490D02*
X57040Y134490D01*
X57040Y129510D01*
X44560Y129510D01*
X44560Y130479D02*
X57040Y130479D01*
X57040Y131448D02*
X44560Y131448D01*
X44560Y132417D02*
X57040Y132417D01*
X57040Y133386D02*
X44560Y133386D01*
X44560Y134355D02*
X57040Y134355D01*
X44560Y124490D02*
X44560Y119510D01*
X44560Y124490D02*
X57040Y124490D01*
X57040Y119510D01*
X44560Y119510D01*
X44560Y120479D02*
X57040Y120479D01*
X57040Y121448D02*
X44560Y121448D01*
X44560Y122417D02*
X57040Y122417D01*
X57040Y123386D02*
X44560Y123386D01*
X44560Y124355D02*
X57040Y124355D01*
X44560Y114490D02*
X44560Y109510D01*
X44560Y114490D02*
X57040Y114490D01*
X57040Y109510D01*
X44560Y109510D01*
X44560Y110479D02*
X57040Y110479D01*
X57040Y111448D02*
X44560Y111448D01*
X44560Y112417D02*
X57040Y112417D01*
X57040Y113386D02*
X44560Y113386D01*
X44560Y114355D02*
X57040Y114355D01*
D12*
X117530Y72700D02*
X117530Y62700D01*
X108530Y62700D01*
X108530Y72700D01*
X117530Y72700D01*
X117530Y63650D02*
X108530Y63650D01*
X108530Y64600D02*
X117530Y64600D01*
X117530Y65550D02*
X108530Y65550D01*
X108530Y66500D02*
X117530Y66500D01*
X117530Y67450D02*
X108530Y67450D01*
X108530Y68400D02*
X117530Y68400D01*
X117530Y69350D02*
X108530Y69350D01*
X108530Y70300D02*
X117530Y70300D01*
X117530Y71250D02*
X108530Y71250D01*
X108530Y72200D02*
X117530Y72200D01*
X117530Y79700D02*
X117530Y89700D01*
X117530Y79700D02*
X108530Y79700D01*
X108530Y89700D01*
X117530Y89700D01*
X117530Y80650D02*
X108530Y80650D01*
X108530Y81600D02*
X117530Y81600D01*
X117530Y82550D02*
X108530Y82550D01*
X108530Y83500D02*
X117530Y83500D01*
X117530Y84450D02*
X108530Y84450D01*
X108530Y85400D02*
X117530Y85400D01*
X117530Y86350D02*
X108530Y86350D01*
X108530Y87300D02*
X117530Y87300D01*
X117530Y88250D02*
X108530Y88250D01*
X108530Y89200D02*
X117530Y89200D01*
X143692Y72700D02*
X143692Y62700D01*
X134692Y62700D01*
X134692Y72700D01*
X143692Y72700D01*
X143692Y63650D02*
X134692Y63650D01*
X134692Y64600D02*
X143692Y64600D01*
X143692Y65550D02*
X134692Y65550D01*
X134692Y66500D02*
X143692Y66500D01*
X143692Y67450D02*
X134692Y67450D01*
X134692Y68400D02*
X143692Y68400D01*
X143692Y69350D02*
X134692Y69350D01*
X134692Y70300D02*
X143692Y70300D01*
X143692Y71250D02*
X134692Y71250D01*
X134692Y72200D02*
X143692Y72200D01*
X143692Y79700D02*
X143692Y89700D01*
X143692Y79700D02*
X134692Y79700D01*
X134692Y89700D01*
X143692Y89700D01*
X143692Y80650D02*
X134692Y80650D01*
X134692Y81600D02*
X143692Y81600D01*
X143692Y82550D02*
X134692Y82550D01*
X134692Y83500D02*
X143692Y83500D01*
X143692Y84450D02*
X134692Y84450D01*
X134692Y85400D02*
X143692Y85400D01*
X143692Y86350D02*
X134692Y86350D01*
X134692Y87300D02*
X143692Y87300D01*
X143692Y88250D02*
X134692Y88250D01*
X134692Y89200D02*
X143692Y89200D01*
X24710Y187142D02*
X24710Y197142D01*
X33710Y197142D01*
X33710Y187142D01*
X24710Y187142D01*
X24710Y188092D02*
X33710Y188092D01*
X33710Y189042D02*
X24710Y189042D01*
X24710Y189992D02*
X33710Y189992D01*
X33710Y190942D02*
X24710Y190942D01*
X24710Y191892D02*
X33710Y191892D01*
X33710Y192842D02*
X24710Y192842D01*
X24710Y193792D02*
X33710Y193792D01*
X33710Y194742D02*
X24710Y194742D01*
X24710Y195692D02*
X33710Y195692D01*
X33710Y196642D02*
X24710Y196642D01*
X24710Y180142D02*
X24710Y170142D01*
X24710Y180142D02*
X33710Y180142D01*
X33710Y170142D01*
X24710Y170142D01*
X24710Y171092D02*
X33710Y171092D01*
X33710Y172042D02*
X24710Y172042D01*
X24710Y172992D02*
X33710Y172992D01*
X33710Y173942D02*
X24710Y173942D01*
X24710Y174892D02*
X33710Y174892D01*
X33710Y175842D02*
X24710Y175842D01*
X24710Y176792D02*
X33710Y176792D01*
X33710Y177742D02*
X24710Y177742D01*
X24710Y178692D02*
X33710Y178692D01*
X33710Y179642D02*
X24710Y179642D01*
D13*
X17724Y178372D02*
X10724Y178372D01*
X17724Y178372D02*
X17724Y171372D01*
X10724Y171372D01*
X10724Y178372D01*
X10724Y174222D02*
X17724Y174222D01*
X17724Y177072D02*
X10724Y177072D01*
X10724Y195912D02*
X17724Y195912D01*
X17724Y188912D01*
X10724Y188912D01*
X10724Y195912D01*
X10724Y191762D02*
X17724Y191762D01*
X17724Y194612D02*
X10724Y194612D01*
D14*
X118149Y146077D02*
X122135Y146077D01*
X118149Y146077D02*
X118149Y148563D01*
X122135Y148563D01*
X122135Y146077D01*
X122135Y147041D02*
X118149Y147041D01*
X118149Y148005D02*
X122135Y148005D01*
X122135Y137877D02*
X118149Y137877D01*
X118149Y140363D01*
X122135Y140363D01*
X122135Y137877D01*
X122135Y138841D02*
X118149Y138841D01*
X118149Y139805D02*
X122135Y139805D01*
X122135Y129677D02*
X118149Y129677D01*
X118149Y132163D01*
X122135Y132163D01*
X122135Y129677D01*
X122135Y130641D02*
X118149Y130641D01*
X118149Y131605D02*
X122135Y131605D01*
X122135Y121477D02*
X118149Y121477D01*
X118149Y123963D01*
X122135Y123963D01*
X122135Y121477D01*
X122135Y122441D02*
X118149Y122441D01*
X118149Y123405D02*
X122135Y123405D01*
X122135Y113277D02*
X118149Y113277D01*
X118149Y115763D01*
X122135Y115763D01*
X122135Y113277D01*
X122135Y114241D02*
X118149Y114241D01*
X118149Y115205D02*
X122135Y115205D01*
X122135Y105077D02*
X118149Y105077D01*
X118149Y107563D01*
X122135Y107563D01*
X122135Y105077D01*
X122135Y106041D02*
X118149Y106041D01*
X118149Y107005D02*
X122135Y107005D01*
X131649Y105077D02*
X135635Y105077D01*
X131649Y105077D02*
X131649Y107563D01*
X135635Y107563D01*
X135635Y105077D01*
X135635Y106041D02*
X131649Y106041D01*
X131649Y107005D02*
X135635Y107005D01*
X135635Y113277D02*
X131649Y113277D01*
X131649Y115763D01*
X135635Y115763D01*
X135635Y113277D01*
X135635Y114241D02*
X131649Y114241D01*
X131649Y115205D02*
X135635Y115205D01*
X135635Y121477D02*
X131649Y121477D01*
X131649Y123963D01*
X135635Y123963D01*
X135635Y121477D01*
X135635Y122441D02*
X131649Y122441D01*
X131649Y123405D02*
X135635Y123405D01*
X135635Y129677D02*
X131649Y129677D01*
X131649Y132163D01*
X135635Y132163D01*
X135635Y129677D01*
X135635Y130641D02*
X131649Y130641D01*
X131649Y131605D02*
X135635Y131605D01*
X135635Y137877D02*
X131649Y137877D01*
X131649Y140363D01*
X135635Y140363D01*
X135635Y137877D01*
X135635Y138841D02*
X131649Y138841D01*
X131649Y139805D02*
X135635Y139805D01*
X135635Y146077D02*
X131649Y146077D01*
X131649Y148563D01*
X135635Y148563D01*
X135635Y146077D01*
X135635Y147041D02*
X131649Y147041D01*
X131649Y148005D02*
X135635Y148005D01*
D11*
X142290Y146020D02*
X142290Y151000D01*
X147270Y151000D01*
X147270Y146020D01*
X142290Y146020D01*
X142290Y146989D02*
X147270Y146989D01*
X147270Y147958D02*
X142290Y147958D01*
X142290Y148927D02*
X147270Y148927D01*
X147270Y149896D02*
X142290Y149896D01*
X142290Y150865D02*
X147270Y150865D01*
X142290Y141000D02*
X142290Y136020D01*
X142290Y141000D02*
X147270Y141000D01*
X147270Y136020D01*
X142290Y136020D01*
X142290Y136989D02*
X147270Y136989D01*
X147270Y137958D02*
X142290Y137958D01*
X142290Y138927D02*
X147270Y138927D01*
X147270Y139896D02*
X142290Y139896D01*
X142290Y140865D02*
X147270Y140865D01*
X104190Y146020D02*
X104190Y151000D01*
X109170Y151000D01*
X109170Y146020D01*
X104190Y146020D01*
X104190Y146989D02*
X109170Y146989D01*
X109170Y147958D02*
X104190Y147958D01*
X104190Y148927D02*
X109170Y148927D01*
X109170Y149896D02*
X104190Y149896D01*
X104190Y150865D02*
X109170Y150865D01*
X104190Y141000D02*
X104190Y136020D01*
X104190Y141000D02*
X109170Y141000D01*
X109170Y136020D01*
X104190Y136020D01*
X104190Y136989D02*
X109170Y136989D01*
X109170Y137958D02*
X104190Y137958D01*
X104190Y138927D02*
X109170Y138927D01*
X109170Y139896D02*
X104190Y139896D01*
X104190Y140865D02*
X109170Y140865D01*
X147270Y109250D02*
X147270Y104270D01*
X142290Y104270D01*
X142290Y109250D01*
X147270Y109250D01*
X147270Y105239D02*
X142290Y105239D01*
X142290Y106208D02*
X147270Y106208D01*
X147270Y107177D02*
X142290Y107177D01*
X142290Y108146D02*
X147270Y108146D01*
X147270Y109115D02*
X142290Y109115D01*
X147270Y114270D02*
X147270Y119250D01*
X147270Y114270D02*
X142290Y114270D01*
X142290Y119250D01*
X147270Y119250D01*
X147270Y115239D02*
X142290Y115239D01*
X142290Y116208D02*
X147270Y116208D01*
X147270Y117177D02*
X142290Y117177D01*
X142290Y118146D02*
X147270Y118146D01*
X147270Y119115D02*
X142290Y119115D01*
D12*
X78050Y89700D02*
X78050Y79700D01*
X78050Y89700D02*
X87050Y89700D01*
X87050Y79700D01*
X78050Y79700D01*
X78050Y80650D02*
X87050Y80650D01*
X87050Y81600D02*
X78050Y81600D01*
X78050Y82550D02*
X87050Y82550D01*
X87050Y83500D02*
X78050Y83500D01*
X78050Y84450D02*
X87050Y84450D01*
X87050Y85400D02*
X78050Y85400D01*
X78050Y86350D02*
X87050Y86350D01*
X87050Y87300D02*
X78050Y87300D01*
X78050Y88250D02*
X87050Y88250D01*
X87050Y89200D02*
X78050Y89200D01*
X78050Y72700D02*
X78050Y62700D01*
X78050Y72700D02*
X87050Y72700D01*
X87050Y62700D01*
X78050Y62700D01*
X78050Y63650D02*
X87050Y63650D01*
X87050Y64600D02*
X78050Y64600D01*
X78050Y65550D02*
X87050Y65550D01*
X87050Y66500D02*
X78050Y66500D01*
X78050Y67450D02*
X87050Y67450D01*
X87050Y68400D02*
X78050Y68400D01*
X78050Y69350D02*
X87050Y69350D01*
X87050Y70300D02*
X78050Y70300D01*
X78050Y71250D02*
X87050Y71250D01*
X87050Y72200D02*
X78050Y72200D01*
X172030Y79700D02*
X172030Y89700D01*
X181030Y89700D01*
X181030Y79700D01*
X172030Y79700D01*
X172030Y80650D02*
X181030Y80650D01*
X181030Y81600D02*
X172030Y81600D01*
X172030Y82550D02*
X181030Y82550D01*
X181030Y83500D02*
X172030Y83500D01*
X172030Y84450D02*
X181030Y84450D01*
X181030Y85400D02*
X172030Y85400D01*
X172030Y86350D02*
X181030Y86350D01*
X181030Y87300D02*
X172030Y87300D01*
X172030Y88250D02*
X181030Y88250D01*
X181030Y89200D02*
X172030Y89200D01*
X172030Y72700D02*
X172030Y62700D01*
X172030Y72700D02*
X181030Y72700D01*
X181030Y62700D01*
X172030Y62700D01*
X172030Y63650D02*
X181030Y63650D01*
X181030Y64600D02*
X172030Y64600D01*
X172030Y65550D02*
X181030Y65550D01*
X181030Y66500D02*
X172030Y66500D01*
X172030Y67450D02*
X181030Y67450D01*
X181030Y68400D02*
X172030Y68400D01*
X172030Y69350D02*
X181030Y69350D01*
X181030Y70300D02*
X172030Y70300D01*
X172030Y71250D02*
X181030Y71250D01*
X181030Y72200D02*
X172030Y72200D01*
D15*
X82550Y191770D03*
M02*
