G04 EAGLE Gerber RS-274X export*
G75*
%MOMM*%
%FSLAX34Y34*%
%LPD*%
%INSilkscreen Bottom*%
%IPPOS*%
%AMOC8*
5,1,8,0,0,1.08239X$1,22.5*%
G01*
%ADD10C,0.203200*%

G36*
X222647Y21037D02*
X222647Y21037D01*
X222645Y21040D01*
X222649Y21042D01*
X222749Y21642D01*
X222746Y21647D01*
X222749Y21650D01*
X222749Y64950D01*
X222746Y64954D01*
X222749Y64957D01*
X222649Y65657D01*
X222645Y65661D01*
X222647Y65664D01*
X222447Y66364D01*
X222446Y66365D01*
X222447Y66366D01*
X222247Y66966D01*
X222242Y66969D01*
X222244Y66972D01*
X221644Y68172D01*
X221640Y68174D01*
X221641Y68177D01*
X221241Y68777D01*
X221234Y68780D01*
X221235Y68785D01*
X220735Y69285D01*
X220731Y69285D01*
X220731Y69288D01*
X220233Y69687D01*
X219735Y70185D01*
X219723Y70186D01*
X219722Y70194D01*
X218522Y70794D01*
X218517Y70793D01*
X218516Y70797D01*
X217916Y70997D01*
X217914Y70996D01*
X217914Y70997D01*
X217214Y71197D01*
X217209Y71196D01*
X217207Y71199D01*
X216507Y71299D01*
X216502Y71296D01*
X216500Y71299D01*
X215200Y71299D01*
X215196Y71296D01*
X215193Y71299D01*
X214493Y71199D01*
X214488Y71194D01*
X214484Y71197D01*
X213885Y70997D01*
X213186Y70797D01*
X213182Y70792D01*
X213178Y70794D01*
X212578Y70494D01*
X212576Y70490D01*
X212573Y70491D01*
X211973Y70091D01*
X211972Y70088D01*
X211969Y70088D01*
X211469Y69688D01*
X211468Y69684D01*
X211465Y69685D01*
X210965Y69185D01*
X210965Y69181D01*
X210962Y69181D01*
X210162Y68181D01*
X210161Y68177D01*
X210159Y68177D01*
X209759Y67577D01*
X209760Y67568D01*
X209753Y67566D01*
X209553Y66966D01*
X209554Y66965D01*
X209553Y66964D01*
X209539Y66915D01*
X209525Y66866D01*
X209483Y66718D01*
X209440Y66570D01*
X209426Y66521D01*
X209384Y66373D01*
X209353Y66265D01*
X209153Y65666D01*
X209155Y65659D01*
X209151Y65657D01*
X209051Y64957D01*
X209054Y64952D01*
X209051Y64950D01*
X209051Y64550D01*
X209068Y64527D01*
X209067Y64513D01*
X209093Y64490D01*
X209074Y64492D01*
X209072Y64467D01*
X209053Y64453D01*
X209053Y64452D01*
X209051Y64450D01*
X209051Y21150D01*
X209087Y21103D01*
X209090Y21105D01*
X209092Y21101D01*
X209692Y21001D01*
X209697Y21004D01*
X209700Y21001D01*
X222600Y21001D01*
X222647Y21037D01*
G37*
G36*
X120718Y20534D02*
X120718Y20534D01*
X120730Y20531D01*
X121130Y20831D01*
X121134Y20847D01*
X121141Y20852D01*
X121137Y20858D01*
X121139Y20862D01*
X121149Y20870D01*
X121149Y54670D01*
X121146Y54674D01*
X121149Y54677D01*
X121049Y55373D01*
X121049Y56070D01*
X121042Y56079D01*
X121047Y56086D01*
X120847Y56685D01*
X120647Y57384D01*
X120642Y57388D01*
X120644Y57392D01*
X120344Y57992D01*
X120340Y57994D01*
X120341Y57997D01*
X119941Y58597D01*
X119938Y58598D01*
X119938Y58601D01*
X119138Y59601D01*
X119134Y59602D01*
X119135Y59605D01*
X118635Y60105D01*
X118628Y60106D01*
X118627Y60111D01*
X118027Y60511D01*
X118026Y60511D01*
X118025Y60512D01*
X117525Y60812D01*
X117520Y60812D01*
X117519Y60815D01*
X116819Y61115D01*
X116816Y61115D01*
X116816Y61117D01*
X115616Y61517D01*
X115609Y61515D01*
X115607Y61519D01*
X114907Y61619D01*
X114902Y61616D01*
X114900Y61619D01*
X114200Y61619D01*
X114196Y61616D01*
X114193Y61619D01*
X113493Y61519D01*
X113492Y61518D01*
X113492Y61519D01*
X112892Y61419D01*
X112193Y61319D01*
X112185Y61311D01*
X112178Y61314D01*
X110978Y60714D01*
X110976Y60710D01*
X110973Y60711D01*
X110373Y60311D01*
X110372Y60308D01*
X110369Y60308D01*
X109369Y59508D01*
X109368Y59504D01*
X109365Y59505D01*
X108865Y59005D01*
X108864Y58993D01*
X108856Y58992D01*
X108557Y58395D01*
X108159Y57797D01*
X108160Y57788D01*
X108153Y57786D01*
X107953Y57186D01*
X107954Y57184D01*
X107953Y57184D01*
X107951Y57176D01*
X107908Y57028D01*
X107894Y56979D01*
X107852Y56831D01*
X107810Y56684D01*
X107796Y56634D01*
X107754Y56487D01*
X107753Y56485D01*
X107553Y55886D01*
X107555Y55879D01*
X107551Y55877D01*
X107451Y55177D01*
X107454Y55172D01*
X107451Y55170D01*
X107451Y20970D01*
X107464Y20952D01*
X107461Y20940D01*
X107761Y20540D01*
X107792Y20532D01*
X107800Y20521D01*
X120700Y20521D01*
X120718Y20534D01*
G37*
G36*
X70347Y20457D02*
X70347Y20457D01*
X70342Y20464D01*
X70349Y20470D01*
X70349Y57670D01*
X70346Y57675D01*
X70349Y57678D01*
X70249Y58278D01*
X70205Y58319D01*
X70203Y58316D01*
X70200Y58319D01*
X56700Y58319D01*
X56653Y58283D01*
X56658Y58276D01*
X56651Y58270D01*
X56651Y54970D01*
X56671Y54944D01*
X56671Y54930D01*
X56700Y54909D01*
X56669Y54908D01*
X56670Y54884D01*
X56651Y54870D01*
X56651Y21070D01*
X56654Y21065D01*
X56651Y21062D01*
X56751Y20462D01*
X56795Y20421D01*
X56798Y20424D01*
X56800Y20421D01*
X70300Y20421D01*
X70347Y20457D01*
G37*
G36*
X69827Y159557D02*
X69827Y159557D01*
X69817Y159570D01*
X69825Y159580D01*
X69833Y159555D01*
X69878Y159523D01*
X69880Y159521D01*
X70480Y159521D01*
X70484Y159524D01*
X70487Y159521D01*
X71887Y159721D01*
X71892Y159726D01*
X71896Y159723D01*
X72496Y159923D01*
X72499Y159928D01*
X72502Y159926D01*
X73702Y160526D01*
X73704Y160530D01*
X73707Y160529D01*
X74307Y160929D01*
X74308Y160932D01*
X74311Y160932D01*
X74811Y161332D01*
X74812Y161336D01*
X74815Y161335D01*
X75315Y161835D01*
X75316Y161842D01*
X75321Y161843D01*
X75720Y162441D01*
X76118Y162939D01*
X76119Y162947D01*
X76124Y162948D01*
X76424Y163548D01*
X76423Y163555D01*
X76427Y163556D01*
X76452Y163644D01*
X76453Y163644D01*
X76452Y163644D01*
X76495Y163792D01*
X76509Y163841D01*
X76551Y163989D01*
X76593Y164137D01*
X76607Y164186D01*
X76627Y164255D01*
X76827Y164854D01*
X76825Y164861D01*
X76829Y164863D01*
X77029Y166263D01*
X77023Y166273D01*
X77029Y166278D01*
X76929Y166874D01*
X76929Y167570D01*
X76923Y167578D01*
X76927Y167584D01*
X76727Y168284D01*
X76726Y168285D01*
X76727Y168286D01*
X76527Y168886D01*
X76522Y168889D01*
X76524Y168892D01*
X75924Y170092D01*
X75917Y170095D01*
X75918Y170101D01*
X75518Y170601D01*
X75518Y170602D01*
X75018Y171202D01*
X75011Y171203D01*
X75011Y171208D01*
X74011Y172008D01*
X74007Y172009D01*
X74007Y172011D01*
X73407Y172411D01*
X73403Y172411D01*
X73402Y172414D01*
X72802Y172714D01*
X72797Y172713D01*
X72796Y172717D01*
X72196Y172917D01*
X72189Y172915D01*
X72187Y172919D01*
X71487Y173019D01*
X70788Y173119D01*
X70188Y173219D01*
X70183Y173216D01*
X70180Y173219D01*
X38380Y173219D01*
X38342Y173190D01*
X38334Y173188D01*
X38134Y172688D01*
X38135Y172686D01*
X38133Y172684D01*
X38137Y172678D01*
X38138Y172675D01*
X38131Y172670D01*
X38131Y159770D01*
X38160Y159732D01*
X38162Y159724D01*
X38662Y159524D01*
X38675Y159528D01*
X38680Y159521D01*
X69780Y159521D01*
X69827Y159557D01*
G37*
G36*
X95105Y20724D02*
X95105Y20724D01*
X95108Y20721D01*
X95708Y20821D01*
X95749Y20865D01*
X95746Y20868D01*
X95749Y20870D01*
X95749Y57470D01*
X95741Y57481D01*
X95746Y57488D01*
X95546Y57988D01*
X95505Y58013D01*
X95500Y58019D01*
X82600Y58019D01*
X82589Y58011D01*
X82582Y58016D01*
X82082Y57816D01*
X82057Y57775D01*
X82051Y57770D01*
X82051Y21370D01*
X82054Y21365D01*
X82051Y21362D01*
X82151Y20762D01*
X82195Y20721D01*
X82198Y20724D01*
X82200Y20721D01*
X95100Y20721D01*
X95105Y20724D01*
G37*
G36*
X146338Y20680D02*
X146338Y20680D01*
X146346Y20682D01*
X146546Y21182D01*
X146542Y21195D01*
X146549Y21200D01*
X146549Y52400D01*
X146546Y52404D01*
X146549Y52407D01*
X146349Y53807D01*
X146344Y53812D01*
X146347Y53816D01*
X146147Y54416D01*
X146142Y54419D01*
X146144Y54422D01*
X145544Y55622D01*
X145540Y55624D01*
X145541Y55627D01*
X145141Y56227D01*
X145138Y56228D01*
X145138Y56231D01*
X144738Y56731D01*
X144734Y56732D01*
X144735Y56735D01*
X144235Y57235D01*
X144228Y57236D01*
X144227Y57241D01*
X143629Y57640D01*
X143131Y58038D01*
X143123Y58039D01*
X143122Y58044D01*
X142522Y58344D01*
X142515Y58343D01*
X142514Y58347D01*
X141815Y58547D01*
X141216Y58747D01*
X141209Y58745D01*
X141207Y58749D01*
X139807Y58949D01*
X139797Y58943D01*
X139792Y58949D01*
X139196Y58849D01*
X138500Y58849D01*
X138492Y58843D01*
X138486Y58847D01*
X137786Y58647D01*
X137785Y58646D01*
X137784Y58647D01*
X137184Y58447D01*
X137181Y58442D01*
X137178Y58444D01*
X135978Y57844D01*
X135976Y57840D01*
X135973Y57841D01*
X135373Y57441D01*
X135370Y57434D01*
X135365Y57435D01*
X134865Y56935D01*
X134865Y56931D01*
X134862Y56931D01*
X134062Y55931D01*
X134061Y55927D01*
X134059Y55927D01*
X133659Y55327D01*
X133659Y55323D01*
X133656Y55322D01*
X133356Y54722D01*
X133357Y54715D01*
X133353Y54714D01*
X133334Y54647D01*
X133291Y54499D01*
X133277Y54450D01*
X133235Y54302D01*
X133193Y54154D01*
X133179Y54105D01*
X133153Y54015D01*
X132953Y53416D01*
X132953Y53415D01*
X132957Y53405D01*
X132951Y53400D01*
X132951Y52704D01*
X132851Y52108D01*
X132854Y52103D01*
X132851Y52100D01*
X132851Y20900D01*
X132880Y20862D01*
X132882Y20854D01*
X133382Y20654D01*
X133395Y20658D01*
X133400Y20651D01*
X146300Y20651D01*
X146338Y20680D01*
G37*
G36*
X32180Y47136D02*
X32180Y47136D01*
X32288Y47146D01*
X32301Y47152D01*
X32315Y47154D01*
X32412Y47202D01*
X32511Y47247D01*
X32524Y47258D01*
X32533Y47262D01*
X32548Y47278D01*
X32625Y47340D01*
X35210Y49925D01*
X35273Y50014D01*
X35339Y50099D01*
X35344Y50112D01*
X35352Y50124D01*
X35383Y50227D01*
X35419Y50330D01*
X35419Y50344D01*
X35423Y50357D01*
X35419Y50465D01*
X35420Y50574D01*
X35415Y50587D01*
X35415Y50601D01*
X35377Y50703D01*
X35342Y50805D01*
X35333Y50820D01*
X35329Y50829D01*
X35315Y50846D01*
X35261Y50928D01*
X32497Y54318D01*
X33054Y55400D01*
X33060Y55420D01*
X33102Y55515D01*
X33473Y56674D01*
X37824Y57117D01*
X37928Y57145D01*
X38034Y57170D01*
X38046Y57177D01*
X38059Y57180D01*
X38149Y57241D01*
X38242Y57298D01*
X38250Y57309D01*
X38262Y57317D01*
X38328Y57403D01*
X38397Y57487D01*
X38401Y57500D01*
X38410Y57511D01*
X38444Y57614D01*
X38483Y57715D01*
X38484Y57733D01*
X38488Y57742D01*
X38488Y57764D01*
X38497Y57862D01*
X38497Y61518D01*
X38480Y61625D01*
X38466Y61733D01*
X38460Y61745D01*
X38458Y61759D01*
X38406Y61855D01*
X38359Y61952D01*
X38349Y61962D01*
X38343Y61974D01*
X38263Y62048D01*
X38187Y62125D01*
X38175Y62131D01*
X38165Y62141D01*
X38066Y62186D01*
X37969Y62234D01*
X37951Y62238D01*
X37942Y62242D01*
X37921Y62244D01*
X37824Y62263D01*
X33473Y62706D01*
X33102Y63865D01*
X33093Y63883D01*
X33091Y63890D01*
X33087Y63897D01*
X33054Y63980D01*
X32497Y65062D01*
X35261Y68452D01*
X35315Y68546D01*
X35372Y68638D01*
X35375Y68651D01*
X35382Y68663D01*
X35403Y68770D01*
X35428Y68875D01*
X35426Y68889D01*
X35429Y68903D01*
X35414Y69010D01*
X35404Y69118D01*
X35398Y69131D01*
X35396Y69145D01*
X35348Y69242D01*
X35303Y69341D01*
X35292Y69354D01*
X35288Y69363D01*
X35272Y69378D01*
X35210Y69455D01*
X32625Y72040D01*
X32536Y72103D01*
X32451Y72169D01*
X32438Y72174D01*
X32426Y72182D01*
X32323Y72213D01*
X32220Y72249D01*
X32206Y72249D01*
X32193Y72253D01*
X32085Y72249D01*
X31976Y72250D01*
X31963Y72245D01*
X31949Y72245D01*
X31847Y72207D01*
X31745Y72172D01*
X31730Y72163D01*
X31721Y72159D01*
X31704Y72145D01*
X31622Y72091D01*
X28232Y69327D01*
X27150Y69884D01*
X27130Y69890D01*
X27035Y69932D01*
X25876Y70303D01*
X25433Y74654D01*
X25405Y74758D01*
X25380Y74864D01*
X25373Y74876D01*
X25370Y74889D01*
X25309Y74979D01*
X25252Y75072D01*
X25241Y75080D01*
X25233Y75092D01*
X25147Y75158D01*
X25063Y75227D01*
X25050Y75231D01*
X25039Y75240D01*
X24936Y75274D01*
X24835Y75313D01*
X24817Y75314D01*
X24808Y75318D01*
X24786Y75318D01*
X24688Y75327D01*
X21032Y75327D01*
X20925Y75310D01*
X20817Y75296D01*
X20805Y75290D01*
X20791Y75288D01*
X20695Y75236D01*
X20598Y75189D01*
X20588Y75179D01*
X20576Y75173D01*
X20502Y75093D01*
X20425Y75017D01*
X20419Y75005D01*
X20409Y74995D01*
X20364Y74896D01*
X20316Y74799D01*
X20312Y74781D01*
X20308Y74772D01*
X20306Y74751D01*
X20287Y74654D01*
X19844Y70303D01*
X18685Y69932D01*
X18667Y69922D01*
X18570Y69884D01*
X17488Y69327D01*
X14098Y72091D01*
X14004Y72145D01*
X13912Y72202D01*
X13899Y72205D01*
X13887Y72212D01*
X13780Y72233D01*
X13675Y72258D01*
X13661Y72256D01*
X13647Y72259D01*
X13540Y72244D01*
X13432Y72234D01*
X13419Y72228D01*
X13406Y72226D01*
X13308Y72178D01*
X13209Y72133D01*
X13196Y72122D01*
X13187Y72118D01*
X13172Y72102D01*
X13095Y72040D01*
X10510Y69455D01*
X10447Y69366D01*
X10381Y69281D01*
X10376Y69268D01*
X10368Y69256D01*
X10337Y69153D01*
X10301Y69050D01*
X10301Y69036D01*
X10297Y69023D01*
X10301Y68915D01*
X10300Y68806D01*
X10305Y68793D01*
X10305Y68779D01*
X10343Y68677D01*
X10378Y68575D01*
X10387Y68560D01*
X10391Y68551D01*
X10405Y68534D01*
X10459Y68452D01*
X13223Y65062D01*
X12666Y63980D01*
X12660Y63960D01*
X12618Y63865D01*
X12247Y62706D01*
X7896Y62263D01*
X7792Y62235D01*
X7686Y62210D01*
X7674Y62203D01*
X7661Y62200D01*
X7571Y62139D01*
X7478Y62082D01*
X7470Y62071D01*
X7458Y62063D01*
X7392Y61977D01*
X7324Y61893D01*
X7319Y61880D01*
X7310Y61869D01*
X7276Y61766D01*
X7237Y61665D01*
X7236Y61647D01*
X7232Y61638D01*
X7233Y61616D01*
X7223Y61518D01*
X7223Y57862D01*
X7240Y57755D01*
X7254Y57647D01*
X7260Y57635D01*
X7262Y57621D01*
X7314Y57525D01*
X7361Y57428D01*
X7371Y57418D01*
X7377Y57406D01*
X7457Y57332D01*
X7533Y57255D01*
X7545Y57249D01*
X7556Y57239D01*
X7654Y57194D01*
X7751Y57146D01*
X7769Y57142D01*
X7778Y57138D01*
X7799Y57136D01*
X7896Y57117D01*
X12247Y56674D01*
X12618Y55515D01*
X12628Y55497D01*
X12666Y55400D01*
X13223Y54318D01*
X10459Y50928D01*
X10405Y50834D01*
X10348Y50742D01*
X10345Y50729D01*
X10338Y50717D01*
X10317Y50610D01*
X10292Y50505D01*
X10294Y50491D01*
X10291Y50477D01*
X10306Y50370D01*
X10316Y50262D01*
X10322Y50249D01*
X10324Y50236D01*
X10372Y50138D01*
X10417Y50039D01*
X10428Y50026D01*
X10432Y50017D01*
X10448Y50002D01*
X10510Y49925D01*
X13095Y47340D01*
X13184Y47277D01*
X13269Y47211D01*
X13282Y47206D01*
X13294Y47198D01*
X13397Y47167D01*
X13500Y47131D01*
X13514Y47131D01*
X13527Y47127D01*
X13635Y47131D01*
X13744Y47130D01*
X13757Y47135D01*
X13771Y47135D01*
X13873Y47173D01*
X13975Y47208D01*
X13990Y47217D01*
X13999Y47221D01*
X14016Y47235D01*
X14098Y47289D01*
X17488Y50053D01*
X18570Y49496D01*
X18623Y49479D01*
X18672Y49453D01*
X18738Y49442D01*
X18802Y49421D01*
X18858Y49422D01*
X18912Y49413D01*
X18979Y49424D01*
X19046Y49425D01*
X19098Y49443D01*
X19153Y49452D01*
X19213Y49484D01*
X19276Y49507D01*
X19319Y49541D01*
X19369Y49567D01*
X19415Y49616D01*
X19467Y49658D01*
X19498Y49705D01*
X19536Y49745D01*
X19592Y49850D01*
X19600Y49863D01*
X19601Y49868D01*
X19605Y49875D01*
X21758Y55072D01*
X21778Y55155D01*
X21783Y55168D01*
X21785Y55184D01*
X21810Y55269D01*
X21809Y55290D01*
X21814Y55310D01*
X21806Y55392D01*
X21807Y55411D01*
X21803Y55431D01*
X21799Y55512D01*
X21792Y55532D01*
X21790Y55553D01*
X21758Y55622D01*
X21752Y55649D01*
X21737Y55673D01*
X21711Y55740D01*
X21698Y55756D01*
X21689Y55775D01*
X21644Y55824D01*
X21624Y55856D01*
X21593Y55881D01*
X21555Y55927D01*
X21532Y55943D01*
X21522Y55953D01*
X21501Y55965D01*
X21436Y56010D01*
X21435Y56011D01*
X21434Y56012D01*
X20535Y56518D01*
X19848Y57162D01*
X19333Y57950D01*
X19021Y58838D01*
X18929Y59775D01*
X19062Y60707D01*
X19413Y61581D01*
X19962Y62346D01*
X20676Y62959D01*
X21516Y63384D01*
X22433Y63598D01*
X23374Y63588D01*
X24286Y63354D01*
X25116Y62911D01*
X25817Y62282D01*
X26349Y61505D01*
X26680Y60624D01*
X26793Y59689D01*
X26685Y58772D01*
X26365Y57904D01*
X25851Y57135D01*
X25172Y56508D01*
X24288Y56013D01*
X24246Y55980D01*
X24204Y55957D01*
X24173Y55924D01*
X24125Y55889D01*
X24113Y55873D01*
X24097Y55860D01*
X24062Y55805D01*
X24037Y55779D01*
X24024Y55749D01*
X23982Y55691D01*
X23976Y55672D01*
X23966Y55655D01*
X23947Y55580D01*
X23937Y55557D01*
X23934Y55533D01*
X23911Y55458D01*
X23912Y55438D01*
X23907Y55418D01*
X23914Y55332D01*
X23913Y55314D01*
X23916Y55298D01*
X23919Y55214D01*
X23927Y55189D01*
X23928Y55175D01*
X23938Y55153D01*
X23962Y55072D01*
X24891Y52829D01*
X24891Y52828D01*
X25822Y50581D01*
X25823Y50581D01*
X26115Y49875D01*
X26144Y49828D01*
X26165Y49776D01*
X26208Y49725D01*
X26244Y49668D01*
X26287Y49633D01*
X26323Y49590D01*
X26380Y49556D01*
X26432Y49513D01*
X26484Y49494D01*
X26532Y49465D01*
X26598Y49451D01*
X26661Y49427D01*
X26716Y49425D01*
X26770Y49414D01*
X26837Y49421D01*
X26904Y49419D01*
X26958Y49435D01*
X27013Y49442D01*
X27124Y49486D01*
X27138Y49490D01*
X27142Y49493D01*
X27150Y49496D01*
X28232Y50053D01*
X31622Y47289D01*
X31716Y47235D01*
X31808Y47178D01*
X31821Y47175D01*
X31833Y47168D01*
X31940Y47147D01*
X32045Y47122D01*
X32059Y47124D01*
X32073Y47121D01*
X32180Y47136D01*
G37*
G36*
X139505Y87134D02*
X139505Y87134D01*
X139508Y87131D01*
X140108Y87231D01*
X140111Y87235D01*
X140114Y87233D01*
X140814Y87433D01*
X140815Y87434D01*
X140816Y87433D01*
X141416Y87633D01*
X141417Y87636D01*
X141419Y87635D01*
X142119Y87935D01*
X142121Y87937D01*
X142122Y87936D01*
X142722Y88236D01*
X142725Y88243D01*
X142731Y88242D01*
X143731Y89042D01*
X143732Y89046D01*
X143735Y89045D01*
X144235Y89545D01*
X144236Y89552D01*
X144241Y89553D01*
X144641Y90153D01*
X144641Y90157D01*
X144644Y90158D01*
X145544Y91958D01*
X145542Y91969D01*
X145549Y91973D01*
X145649Y92672D01*
X145749Y93272D01*
X145748Y93273D01*
X145749Y93273D01*
X145849Y93973D01*
X145844Y93982D01*
X145849Y93987D01*
X145749Y94687D01*
X145748Y94688D01*
X145749Y94688D01*
X145649Y95288D01*
X145549Y95987D01*
X145541Y95995D01*
X145544Y96002D01*
X144644Y97802D01*
X144640Y97804D01*
X144641Y97807D01*
X144241Y98407D01*
X144234Y98410D01*
X144235Y98415D01*
X143735Y98915D01*
X143731Y98915D01*
X143731Y98918D01*
X142731Y99718D01*
X142723Y99719D01*
X142722Y99724D01*
X141522Y100324D01*
X141515Y100323D01*
X141514Y100327D01*
X140114Y100727D01*
X140110Y100726D01*
X140108Y100729D01*
X139508Y100829D01*
X139503Y100826D01*
X139500Y100829D01*
X114600Y100829D01*
X114596Y100826D01*
X114593Y100829D01*
X113893Y100729D01*
X113892Y100728D01*
X113892Y100729D01*
X113292Y100629D01*
X113286Y100622D01*
X113281Y100625D01*
X112582Y100326D01*
X111984Y100127D01*
X111979Y100119D01*
X111973Y100121D01*
X111374Y99722D01*
X110875Y99422D01*
X110871Y99414D01*
X110865Y99415D01*
X109865Y98415D01*
X109865Y98411D01*
X109862Y98411D01*
X109462Y97911D01*
X109461Y97907D01*
X109459Y97907D01*
X109059Y97307D01*
X109059Y97303D01*
X109056Y97302D01*
X108756Y96702D01*
X108756Y96699D01*
X108755Y96699D01*
X108757Y96697D01*
X108753Y96696D01*
X108553Y96096D01*
X108554Y96094D01*
X108553Y96094D01*
X108529Y96009D01*
X108486Y95861D01*
X108472Y95812D01*
X108430Y95664D01*
X108388Y95517D01*
X108374Y95467D01*
X108353Y95394D01*
X108354Y95390D01*
X108351Y95388D01*
X108251Y94788D01*
X108252Y94787D01*
X108251Y94787D01*
X108151Y94087D01*
X108156Y94078D01*
X108151Y94073D01*
X108351Y92673D01*
X108352Y92672D01*
X108351Y92672D01*
X108451Y92072D01*
X108456Y92068D01*
X108453Y92064D01*
X108653Y91464D01*
X108656Y91463D01*
X108655Y91461D01*
X108955Y90761D01*
X108963Y90756D01*
X108962Y90749D01*
X109360Y90251D01*
X109759Y89653D01*
X109762Y89652D01*
X109762Y89649D01*
X110162Y89149D01*
X110169Y89147D01*
X110169Y89142D01*
X110669Y88742D01*
X110673Y88741D01*
X110673Y88739D01*
X111271Y88340D01*
X111769Y87942D01*
X111779Y87941D01*
X111781Y87935D01*
X112481Y87635D01*
X112484Y87636D01*
X112484Y87633D01*
X113084Y87433D01*
X113086Y87434D01*
X113086Y87433D01*
X113786Y87233D01*
X113796Y87236D01*
X113800Y87231D01*
X114397Y87231D01*
X115093Y87131D01*
X115098Y87134D01*
X115100Y87131D01*
X139500Y87131D01*
X139505Y87134D01*
G37*
G36*
X171847Y20517D02*
X171847Y20517D01*
X171845Y20520D01*
X171849Y20522D01*
X171949Y21122D01*
X171946Y21127D01*
X171949Y21130D01*
X171949Y56330D01*
X171913Y56377D01*
X171906Y56372D01*
X171900Y56379D01*
X171400Y56379D01*
X171387Y56369D01*
X171377Y56374D01*
X165388Y53279D01*
X164812Y53279D01*
X158722Y56374D01*
X158706Y56371D01*
X158700Y56379D01*
X158300Y56379D01*
X158253Y56343D01*
X158258Y56336D01*
X158251Y56330D01*
X158251Y20630D01*
X158287Y20583D01*
X158290Y20585D01*
X158292Y20581D01*
X158892Y20481D01*
X158897Y20484D01*
X158900Y20481D01*
X171800Y20481D01*
X171847Y20517D01*
G37*
G36*
X197247Y20917D02*
X197247Y20917D01*
X197245Y20920D01*
X197249Y20922D01*
X197349Y21522D01*
X197346Y21527D01*
X197349Y21530D01*
X197349Y49230D01*
X197346Y49234D01*
X197349Y49237D01*
X197249Y49933D01*
X197249Y50630D01*
X197242Y50639D01*
X197247Y50646D01*
X197047Y51245D01*
X196847Y51944D01*
X196842Y51948D01*
X196844Y51952D01*
X196244Y53152D01*
X196237Y53155D01*
X196238Y53161D01*
X195838Y53661D01*
X195834Y53662D01*
X195835Y53665D01*
X194835Y54665D01*
X194831Y54665D01*
X194831Y54668D01*
X194331Y55068D01*
X194323Y55069D01*
X194322Y55074D01*
X193122Y55674D01*
X193115Y55673D01*
X193114Y55677D01*
X192415Y55877D01*
X191816Y56077D01*
X191809Y56075D01*
X191807Y56079D01*
X191107Y56179D01*
X191102Y56176D01*
X191100Y56179D01*
X189800Y56179D01*
X189796Y56176D01*
X189793Y56179D01*
X189093Y56079D01*
X189089Y56075D01*
X189086Y56077D01*
X188386Y55877D01*
X188382Y55872D01*
X188378Y55874D01*
X186578Y54974D01*
X186575Y54967D01*
X186569Y54968D01*
X186069Y54568D01*
X186068Y54564D01*
X186065Y54565D01*
X185565Y54065D01*
X185565Y54061D01*
X185562Y54061D01*
X185162Y53561D01*
X185161Y53557D01*
X185159Y53557D01*
X184359Y52357D01*
X184360Y52348D01*
X184353Y52346D01*
X183953Y51146D01*
X183954Y51144D01*
X183953Y51144D01*
X183950Y51134D01*
X183936Y51084D01*
X183894Y50937D01*
X183851Y50789D01*
X183837Y50740D01*
X183795Y50592D01*
X183753Y50444D01*
X183754Y50440D01*
X183751Y50438D01*
X183651Y49838D01*
X183654Y49833D01*
X183651Y49830D01*
X183651Y20930D01*
X183687Y20883D01*
X183694Y20888D01*
X183700Y20881D01*
X197200Y20881D01*
X197247Y20917D01*
G37*
G36*
X247826Y20960D02*
X247826Y20960D01*
X247839Y20960D01*
X248139Y21360D01*
X248139Y21368D01*
X248143Y21371D01*
X248139Y21375D01*
X248139Y21382D01*
X248149Y21390D01*
X248149Y47090D01*
X248142Y47099D01*
X248147Y47106D01*
X247947Y47706D01*
X247924Y47721D01*
X247922Y47734D01*
X241822Y50734D01*
X241222Y51034D01*
X241214Y51032D01*
X241214Y51033D01*
X241187Y51033D01*
X241184Y51031D01*
X241177Y51034D01*
X234577Y47634D01*
X234565Y47609D01*
X234552Y47598D01*
X234551Y47598D01*
X234451Y46998D01*
X234454Y46993D01*
X234451Y46990D01*
X234451Y21190D01*
X234480Y21152D01*
X234482Y21144D01*
X234982Y20944D01*
X234995Y20948D01*
X235000Y20941D01*
X247800Y20941D01*
X247826Y20960D01*
G37*
G36*
X118140Y224251D02*
X118140Y224251D01*
X118191Y224253D01*
X118223Y224271D01*
X118259Y224279D01*
X118298Y224312D01*
X118343Y224336D01*
X118364Y224366D01*
X118392Y224389D01*
X118413Y224436D01*
X118443Y224478D01*
X118451Y224520D01*
X118463Y224548D01*
X118462Y224578D01*
X118470Y224620D01*
X118470Y237420D01*
X118466Y237438D01*
X118468Y237462D01*
X118268Y239262D01*
X118257Y239293D01*
X118251Y239340D01*
X118051Y239940D01*
X118038Y239960D01*
X118030Y239990D01*
X117730Y240590D01*
X117722Y240600D01*
X117716Y240616D01*
X117416Y241116D01*
X117402Y241130D01*
X117393Y241149D01*
X117316Y241219D01*
X117295Y241240D01*
X117290Y241242D01*
X117286Y241246D01*
X116802Y241536D01*
X116418Y241824D01*
X116383Y241839D01*
X116331Y241873D01*
X115331Y242273D01*
X115298Y242278D01*
X115253Y242295D01*
X114653Y242395D01*
X114626Y242393D01*
X114590Y242400D01*
X113790Y242400D01*
X113754Y242392D01*
X113698Y242389D01*
X113343Y242300D01*
X113190Y242300D01*
X113175Y242297D01*
X113160Y242299D01*
X113028Y242262D01*
X113021Y242261D01*
X113021Y242260D01*
X113020Y242260D01*
X112820Y242160D01*
X112801Y242144D01*
X112777Y242135D01*
X112735Y242089D01*
X112687Y242049D01*
X112677Y242027D01*
X112660Y242008D01*
X112642Y241948D01*
X112616Y241891D01*
X112618Y241866D01*
X112610Y241842D01*
X112621Y241780D01*
X112624Y241718D01*
X112636Y241696D01*
X112640Y241671D01*
X112689Y241598D01*
X112707Y241566D01*
X112715Y241561D01*
X112721Y241551D01*
X112821Y241451D01*
X112853Y241431D01*
X112920Y241380D01*
X113320Y241180D01*
X113343Y241174D01*
X113370Y241159D01*
X113585Y241088D01*
X113895Y240778D01*
X114045Y240552D01*
X114110Y240358D01*
X114110Y240182D01*
X114038Y239966D01*
X113878Y239645D01*
X113648Y239416D01*
X113412Y239258D01*
X112981Y239086D01*
X112552Y239000D01*
X111837Y239000D01*
X111146Y239173D01*
X110650Y239504D01*
X110329Y239905D01*
X110170Y240382D01*
X110170Y240942D01*
X110416Y241515D01*
X111076Y242269D01*
X111874Y243167D01*
X111875Y243169D01*
X111876Y243170D01*
X112576Y243970D01*
X112592Y243999D01*
X112622Y244035D01*
X113122Y244935D01*
X113133Y244973D01*
X113161Y245038D01*
X113361Y245938D01*
X113361Y245971D01*
X113370Y246020D01*
X113370Y246820D01*
X113362Y246857D01*
X113351Y246940D01*
X113051Y247840D01*
X113030Y247874D01*
X112999Y247941D01*
X112499Y248641D01*
X112473Y248664D01*
X112443Y248704D01*
X111543Y249504D01*
X111512Y249521D01*
X111472Y249554D01*
X110372Y250154D01*
X110336Y250164D01*
X110258Y250194D01*
X109158Y250394D01*
X109129Y250393D01*
X109090Y250400D01*
X108090Y250400D01*
X108053Y250392D01*
X107970Y250381D01*
X107070Y250081D01*
X107064Y250077D01*
X107057Y250076D01*
X106257Y249776D01*
X106242Y249766D01*
X106220Y249760D01*
X106054Y249677D01*
X105620Y249460D01*
X105598Y249442D01*
X105562Y249424D01*
X105162Y249124D01*
X105147Y249106D01*
X105121Y249089D01*
X105021Y248989D01*
X105008Y248967D01*
X104988Y248951D01*
X104962Y248894D01*
X104930Y248842D01*
X104927Y248816D01*
X104917Y248792D01*
X104919Y248731D01*
X104913Y248669D01*
X104922Y248645D01*
X104923Y248619D01*
X104953Y248565D01*
X104975Y248507D01*
X104994Y248490D01*
X105006Y248467D01*
X105057Y248432D01*
X105102Y248390D01*
X105127Y248382D01*
X105148Y248367D01*
X105232Y248351D01*
X105268Y248340D01*
X105278Y248342D01*
X105290Y248340D01*
X105590Y248340D01*
X105627Y248348D01*
X105710Y248359D01*
X105952Y248440D01*
X106143Y248440D01*
X106498Y248351D01*
X106506Y248351D01*
X106515Y248347D01*
X106966Y248257D01*
X107289Y248095D01*
X107610Y247855D01*
X107745Y247652D01*
X107829Y247400D01*
X107842Y247380D01*
X107850Y247350D01*
X107938Y247174D01*
X107989Y247020D01*
X107929Y246840D01*
X107928Y246827D01*
X107921Y246812D01*
X107837Y246476D01*
X107674Y246231D01*
X107666Y246211D01*
X107650Y246190D01*
X107478Y245845D01*
X107248Y245616D01*
X106979Y245436D01*
X106972Y245429D01*
X106962Y245424D01*
X106570Y245131D01*
X106299Y244950D01*
X105867Y244734D01*
X105600Y244600D01*
X105052Y244600D01*
X104859Y244665D01*
X104710Y244764D01*
X104570Y245182D01*
X104570Y245920D01*
X104558Y245970D01*
X104558Y245991D01*
X104557Y246015D01*
X104556Y246022D01*
X104539Y246054D01*
X104531Y246089D01*
X104498Y246129D01*
X104473Y246174D01*
X104443Y246195D01*
X104421Y246222D01*
X104373Y246244D01*
X104331Y246273D01*
X104295Y246279D01*
X104262Y246293D01*
X104211Y246291D01*
X104160Y246299D01*
X104119Y246288D01*
X104089Y246287D01*
X104062Y246272D01*
X104020Y246260D01*
X104009Y246255D01*
X103249Y245875D01*
X103220Y245860D01*
X103216Y245857D01*
X103106Y245773D01*
X102306Y244873D01*
X102291Y244845D01*
X102262Y244812D01*
X101562Y243612D01*
X101553Y243583D01*
X101532Y243548D01*
X101032Y242148D01*
X101029Y242122D01*
X101016Y242090D01*
X100716Y240490D01*
X100718Y240454D01*
X100710Y240399D01*
X100810Y238599D01*
X100820Y238567D01*
X100824Y238518D01*
X101324Y236718D01*
X101341Y236687D01*
X101358Y236635D01*
X102358Y234835D01*
X102375Y234817D01*
X102390Y234787D01*
X103090Y233887D01*
X103097Y233881D01*
X103101Y233873D01*
X103111Y233867D01*
X103121Y233851D01*
X103921Y233051D01*
X103931Y233045D01*
X103940Y233034D01*
X104740Y232334D01*
X104765Y232320D01*
X104794Y232294D01*
X105794Y231694D01*
X105819Y231686D01*
X105849Y231667D01*
X106849Y231267D01*
X106868Y231264D01*
X106890Y231253D01*
X107990Y230953D01*
X108007Y230953D01*
X108028Y230945D01*
X109228Y230745D01*
X109254Y230747D01*
X109290Y230740D01*
X111159Y230740D01*
X111656Y230657D01*
X112072Y230407D01*
X113022Y229647D01*
X113498Y229077D01*
X113510Y229067D01*
X113521Y229051D01*
X114799Y227774D01*
X115281Y227099D01*
X115301Y227081D01*
X115321Y227051D01*
X115909Y226463D01*
X116398Y225877D01*
X116410Y225867D01*
X116421Y225851D01*
X116902Y225370D01*
X117186Y224992D01*
X117204Y224977D01*
X117221Y224951D01*
X117495Y224678D01*
X117674Y224409D01*
X117693Y224391D01*
X117706Y224367D01*
X117756Y224332D01*
X117800Y224291D01*
X117826Y224283D01*
X117848Y224267D01*
X117929Y224252D01*
X117966Y224241D01*
X117977Y224242D01*
X117990Y224240D01*
X118090Y224240D01*
X118140Y224251D01*
G37*
G36*
X163829Y198751D02*
X163829Y198751D01*
X163891Y198753D01*
X163913Y198766D01*
X163939Y198770D01*
X164010Y198818D01*
X164043Y198836D01*
X164049Y198844D01*
X164059Y198851D01*
X164944Y199736D01*
X166428Y200923D01*
X166439Y200938D01*
X166459Y200951D01*
X167344Y201836D01*
X167828Y202223D01*
X167834Y202231D01*
X167843Y202236D01*
X167887Y202299D01*
X167935Y202359D01*
X167937Y202369D01*
X167943Y202378D01*
X167958Y202459D01*
X167963Y202470D01*
X167963Y202482D01*
X167970Y202520D01*
X167970Y221020D01*
X167969Y221024D01*
X167970Y221029D01*
X167950Y221109D01*
X167931Y221189D01*
X167928Y221192D01*
X167927Y221197D01*
X167873Y221259D01*
X167821Y221322D01*
X167816Y221324D01*
X167814Y221328D01*
X167682Y221389D01*
X167282Y221489D01*
X167274Y221489D01*
X167265Y221493D01*
X166765Y221593D01*
X166733Y221592D01*
X166690Y221600D01*
X166237Y221600D01*
X165882Y221689D01*
X165874Y221689D01*
X165865Y221693D01*
X165373Y221791D01*
X164982Y221889D01*
X164974Y221889D01*
X164965Y221893D01*
X163965Y222093D01*
X163963Y222093D01*
X163962Y222093D01*
X163878Y222090D01*
X163791Y222087D01*
X163790Y222087D01*
X163789Y222087D01*
X163715Y222046D01*
X163639Y222005D01*
X163638Y222004D01*
X163637Y222004D01*
X163589Y221935D01*
X163538Y221864D01*
X163538Y221863D01*
X163537Y221862D01*
X163510Y221720D01*
X163510Y220938D01*
X163359Y221089D01*
X163343Y221099D01*
X163328Y221117D01*
X162828Y221517D01*
X162807Y221527D01*
X162786Y221546D01*
X161786Y222146D01*
X161773Y222150D01*
X161653Y222195D01*
X160453Y222395D01*
X160426Y222393D01*
X160390Y222400D01*
X159690Y222400D01*
X159679Y222398D01*
X159665Y222399D01*
X158165Y222299D01*
X158128Y222288D01*
X158062Y222278D01*
X156662Y221778D01*
X156633Y221759D01*
X156586Y221741D01*
X155486Y221041D01*
X155459Y221013D01*
X155407Y220974D01*
X154507Y219974D01*
X154494Y219951D01*
X154469Y219924D01*
X153769Y218824D01*
X153757Y218788D01*
X153727Y218732D01*
X153327Y217432D01*
X153326Y217417D01*
X153318Y217400D01*
X153018Y216000D01*
X153019Y215976D01*
X153011Y215945D01*
X152911Y214445D01*
X152914Y214423D01*
X152911Y214393D01*
X153011Y212993D01*
X153018Y212969D01*
X153020Y212935D01*
X153320Y211635D01*
X153332Y211610D01*
X153339Y211574D01*
X153839Y210374D01*
X153849Y210359D01*
X153856Y210338D01*
X154456Y209238D01*
X154482Y209209D01*
X154521Y209151D01*
X155421Y208251D01*
X155443Y208238D01*
X155466Y208212D01*
X156566Y207412D01*
X156602Y207397D01*
X156670Y207359D01*
X157870Y206959D01*
X157900Y206956D01*
X157940Y206943D01*
X159440Y206743D01*
X159479Y206747D01*
X159553Y206745D01*
X161353Y207045D01*
X161389Y207060D01*
X161460Y207080D01*
X161590Y207145D01*
X162060Y207380D01*
X162070Y207388D01*
X162086Y207394D01*
X163086Y207994D01*
X163106Y208014D01*
X163187Y208082D01*
X163410Y208361D01*
X163410Y199120D01*
X163416Y199095D01*
X163413Y199069D01*
X163435Y199012D01*
X163449Y198951D01*
X163466Y198931D01*
X163475Y198907D01*
X163520Y198865D01*
X163559Y198818D01*
X163583Y198807D01*
X163602Y198790D01*
X163661Y198772D01*
X163718Y198747D01*
X163743Y198748D01*
X163768Y198740D01*
X163829Y198751D01*
G37*
G36*
X147820Y206747D02*
X147820Y206747D01*
X147865Y206747D01*
X148328Y206840D01*
X148790Y206840D01*
X148826Y206848D01*
X148882Y206851D01*
X149282Y206951D01*
X149302Y206961D01*
X149331Y206967D01*
X149831Y207167D01*
X149843Y207175D01*
X149860Y207180D01*
X150260Y207380D01*
X150276Y207393D01*
X150301Y207404D01*
X150581Y207591D01*
X150960Y207780D01*
X150989Y207804D01*
X151059Y207851D01*
X151359Y208151D01*
X151375Y208178D01*
X151406Y208209D01*
X151601Y208500D01*
X151894Y208892D01*
X151898Y208901D01*
X151906Y208909D01*
X152106Y209209D01*
X152107Y209210D01*
X152108Y209211D01*
X152163Y209345D01*
X152253Y209796D01*
X152430Y210150D01*
X152434Y210165D01*
X152443Y210178D01*
X152469Y210312D01*
X152470Y210319D01*
X152470Y210320D01*
X152470Y210782D01*
X152563Y211245D01*
X152563Y211255D01*
X152564Y211388D01*
X152364Y212488D01*
X152355Y212510D01*
X152351Y212540D01*
X152051Y213440D01*
X152034Y213467D01*
X152020Y213509D01*
X151620Y214209D01*
X151597Y214233D01*
X151537Y214309D01*
X150837Y214909D01*
X150811Y214923D01*
X150779Y214950D01*
X150079Y215350D01*
X150053Y215358D01*
X150024Y215376D01*
X149224Y215676D01*
X149205Y215679D01*
X149182Y215689D01*
X148382Y215889D01*
X148360Y215889D01*
X148332Y215898D01*
X147432Y215998D01*
X145638Y216197D01*
X144969Y216293D01*
X144303Y216483D01*
X143750Y216668D01*
X143350Y216908D01*
X143170Y217147D01*
X143170Y218030D01*
X143403Y218495D01*
X143459Y218551D01*
X143479Y218583D01*
X143530Y218650D01*
X143573Y218737D01*
X143980Y218940D01*
X144090Y218940D01*
X144105Y218943D01*
X144120Y218941D01*
X144252Y218978D01*
X144259Y218979D01*
X144259Y218980D01*
X144260Y218980D01*
X144380Y219040D01*
X146000Y219040D01*
X146865Y218608D01*
X147178Y218295D01*
X147238Y218174D01*
X147329Y217900D01*
X147342Y217880D01*
X147350Y217850D01*
X147410Y217730D01*
X147410Y217320D01*
X147421Y217270D01*
X147423Y217219D01*
X147441Y217187D01*
X147449Y217151D01*
X147482Y217112D01*
X147506Y217067D01*
X147536Y217046D01*
X147559Y217018D01*
X147606Y216997D01*
X147648Y216967D01*
X147690Y216959D01*
X147718Y216947D01*
X147748Y216948D01*
X147790Y216940D01*
X151690Y216940D01*
X151770Y216958D01*
X151850Y216975D01*
X151854Y216978D01*
X151859Y216979D01*
X151922Y217032D01*
X151986Y217082D01*
X151988Y217086D01*
X151992Y217089D01*
X152026Y217164D01*
X152061Y217238D01*
X152061Y217243D01*
X152063Y217248D01*
X152062Y217275D01*
X152065Y217383D01*
X151865Y218583D01*
X151855Y218606D01*
X151855Y218608D01*
X151854Y218628D01*
X151852Y218633D01*
X151851Y218640D01*
X151651Y219240D01*
X151631Y219272D01*
X151594Y219348D01*
X151306Y219732D01*
X151016Y220216D01*
X151004Y220228D01*
X150994Y220248D01*
X150694Y220648D01*
X150669Y220669D01*
X150662Y220682D01*
X150647Y220693D01*
X150618Y220724D01*
X150218Y221024D01*
X150202Y221031D01*
X150186Y221046D01*
X149186Y221646D01*
X149161Y221654D01*
X149131Y221673D01*
X148631Y221873D01*
X148602Y221877D01*
X148565Y221893D01*
X148088Y221988D01*
X147510Y222181D01*
X147485Y222183D01*
X147453Y222195D01*
X146859Y222294D01*
X146365Y222393D01*
X146333Y222392D01*
X146290Y222400D01*
X143990Y222400D01*
X143960Y222393D01*
X143915Y222393D01*
X143452Y222300D01*
X142890Y222300D01*
X142860Y222293D01*
X142815Y222293D01*
X142315Y222193D01*
X142289Y222181D01*
X142249Y222173D01*
X141781Y221986D01*
X141315Y221893D01*
X141289Y221881D01*
X141249Y221873D01*
X140749Y221673D01*
X140718Y221651D01*
X140662Y221624D01*
X139462Y220724D01*
X139437Y220694D01*
X139386Y220648D01*
X139086Y220248D01*
X139074Y220222D01*
X139050Y220190D01*
X138850Y219790D01*
X138847Y219776D01*
X138837Y219761D01*
X138637Y219261D01*
X138633Y219232D01*
X138617Y219195D01*
X138517Y218695D01*
X138518Y218663D01*
X138510Y218620D01*
X138510Y210010D01*
X138450Y209890D01*
X138446Y209875D01*
X138437Y209862D01*
X138411Y209728D01*
X138410Y209722D01*
X138410Y209721D01*
X138410Y209720D01*
X138410Y208910D01*
X138350Y208790D01*
X138346Y208775D01*
X138337Y208762D01*
X138328Y208716D01*
X138327Y208713D01*
X138327Y208711D01*
X138311Y208628D01*
X138310Y208622D01*
X138310Y208621D01*
X138310Y208620D01*
X138310Y208510D01*
X138250Y208390D01*
X138246Y208375D01*
X138237Y208362D01*
X138211Y208228D01*
X138210Y208222D01*
X138210Y208221D01*
X138210Y208220D01*
X138210Y208010D01*
X138178Y207945D01*
X138121Y207889D01*
X138081Y207824D01*
X138037Y207762D01*
X138035Y207750D01*
X138030Y207742D01*
X138026Y207705D01*
X138010Y207620D01*
X138010Y207520D01*
X138021Y207470D01*
X138023Y207419D01*
X138041Y207387D01*
X138049Y207351D01*
X138082Y207312D01*
X138106Y207267D01*
X138136Y207246D01*
X138159Y207218D01*
X138206Y207197D01*
X138248Y207167D01*
X138290Y207159D01*
X138318Y207147D01*
X138348Y207148D01*
X138390Y207140D01*
X142290Y207140D01*
X142340Y207151D01*
X142391Y207153D01*
X142423Y207171D01*
X142459Y207179D01*
X142498Y207212D01*
X142543Y207236D01*
X142564Y207266D01*
X142592Y207289D01*
X142613Y207336D01*
X142643Y207378D01*
X142651Y207420D01*
X142663Y207448D01*
X142663Y207458D01*
X142699Y207516D01*
X142743Y207578D01*
X142745Y207590D01*
X142750Y207598D01*
X142754Y207635D01*
X142756Y207649D01*
X142759Y207651D01*
X142799Y207716D01*
X142843Y207778D01*
X142845Y207790D01*
X142850Y207798D01*
X142854Y207835D01*
X142870Y207920D01*
X142870Y208069D01*
X142883Y208090D01*
X143021Y207951D01*
X143048Y207935D01*
X143079Y207904D01*
X143379Y207704D01*
X143415Y207690D01*
X143470Y207659D01*
X143722Y207575D01*
X143979Y207404D01*
X144015Y207390D01*
X144070Y207359D01*
X145270Y206959D01*
X145307Y206956D01*
X145390Y206940D01*
X145628Y206940D01*
X145870Y206859D01*
X145907Y206856D01*
X145990Y206840D01*
X146328Y206840D01*
X146570Y206759D01*
X146607Y206756D01*
X146690Y206740D01*
X147790Y206740D01*
X147820Y206747D01*
G37*
G36*
X116822Y207147D02*
X116822Y207147D01*
X116856Y207145D01*
X116906Y207167D01*
X116959Y207179D01*
X116984Y207200D01*
X117015Y207213D01*
X117062Y207265D01*
X117092Y207289D01*
X117099Y207305D01*
X117113Y207320D01*
X120769Y213226D01*
X121810Y212255D01*
X121810Y207520D01*
X121821Y207470D01*
X121823Y207419D01*
X121841Y207387D01*
X121849Y207351D01*
X121882Y207312D01*
X121906Y207267D01*
X121936Y207246D01*
X121959Y207218D01*
X122006Y207197D01*
X122048Y207167D01*
X122090Y207159D01*
X122118Y207147D01*
X122148Y207148D01*
X122190Y207140D01*
X126090Y207140D01*
X126140Y207151D01*
X126191Y207153D01*
X126223Y207171D01*
X126259Y207179D01*
X126298Y207212D01*
X126343Y207236D01*
X126364Y207266D01*
X126392Y207289D01*
X126413Y207336D01*
X126443Y207378D01*
X126451Y207420D01*
X126463Y207448D01*
X126462Y207478D01*
X126470Y207520D01*
X126470Y224920D01*
X126460Y224963D01*
X126460Y225008D01*
X126441Y225047D01*
X126431Y225089D01*
X126402Y225123D01*
X126382Y225163D01*
X126343Y225196D01*
X126321Y225222D01*
X126297Y225233D01*
X126270Y225255D01*
X122370Y227355D01*
X122315Y227370D01*
X122262Y227393D01*
X122232Y227392D01*
X122203Y227400D01*
X122147Y227389D01*
X122089Y227387D01*
X122063Y227372D01*
X122033Y227366D01*
X121988Y227331D01*
X121937Y227304D01*
X121920Y227279D01*
X121896Y227261D01*
X121870Y227209D01*
X121837Y227162D01*
X121831Y227128D01*
X121819Y227105D01*
X121820Y227070D01*
X121810Y227020D01*
X121810Y217565D01*
X117564Y221983D01*
X117497Y222027D01*
X117432Y222073D01*
X117424Y222074D01*
X117419Y222078D01*
X117386Y222082D01*
X117290Y222100D01*
X112690Y222100D01*
X112663Y222094D01*
X112636Y222096D01*
X112580Y222074D01*
X112521Y222061D01*
X112500Y222043D01*
X112474Y222033D01*
X112434Y221989D01*
X112388Y221951D01*
X112376Y221925D01*
X112358Y221905D01*
X112341Y221847D01*
X112317Y221792D01*
X112318Y221765D01*
X112310Y221738D01*
X112321Y221679D01*
X112323Y221619D01*
X112337Y221595D01*
X112342Y221568D01*
X112388Y221501D01*
X112406Y221467D01*
X112416Y221460D01*
X112424Y221449D01*
X117501Y216467D01*
X111772Y207728D01*
X111747Y207659D01*
X111717Y207592D01*
X111717Y207579D01*
X111713Y207566D01*
X111721Y207493D01*
X111723Y207419D01*
X111730Y207407D01*
X111731Y207394D01*
X111771Y207332D01*
X111806Y207267D01*
X111817Y207259D01*
X111825Y207248D01*
X111888Y207210D01*
X111948Y207167D01*
X111963Y207164D01*
X111973Y207158D01*
X112012Y207155D01*
X112090Y207140D01*
X116790Y207140D01*
X116822Y207147D01*
G37*
G36*
X77340Y207151D02*
X77340Y207151D01*
X77391Y207153D01*
X77423Y207171D01*
X77459Y207179D01*
X77498Y207212D01*
X77543Y207236D01*
X77564Y207266D01*
X77592Y207289D01*
X77613Y207336D01*
X77643Y207378D01*
X77651Y207420D01*
X77663Y207448D01*
X77662Y207478D01*
X77670Y207520D01*
X77670Y215496D01*
X77767Y216269D01*
X77866Y216963D01*
X77953Y217486D01*
X78206Y217908D01*
X78450Y218232D01*
X78829Y218460D01*
X79259Y218546D01*
X79798Y218636D01*
X80535Y218544D01*
X81056Y218457D01*
X81436Y218229D01*
X81777Y217802D01*
X82051Y217347D01*
X82318Y216722D01*
X82410Y215899D01*
X82410Y207520D01*
X82421Y207470D01*
X82423Y207419D01*
X82441Y207387D01*
X82449Y207351D01*
X82482Y207312D01*
X82506Y207267D01*
X82536Y207246D01*
X82559Y207218D01*
X82606Y207197D01*
X82648Y207167D01*
X82690Y207159D01*
X82718Y207147D01*
X82748Y207148D01*
X82790Y207140D01*
X86690Y207140D01*
X86740Y207151D01*
X86791Y207153D01*
X86823Y207171D01*
X86859Y207179D01*
X86898Y207212D01*
X86943Y207236D01*
X86964Y207266D01*
X86992Y207289D01*
X87013Y207336D01*
X87043Y207378D01*
X87051Y207420D01*
X87063Y207448D01*
X87062Y207478D01*
X87070Y207520D01*
X87070Y221720D01*
X87059Y221770D01*
X87057Y221821D01*
X87039Y221853D01*
X87031Y221889D01*
X86998Y221928D01*
X86974Y221973D01*
X86944Y221994D01*
X86921Y222022D01*
X86874Y222043D01*
X86832Y222073D01*
X86790Y222081D01*
X86762Y222093D01*
X86732Y222092D01*
X86690Y222100D01*
X82990Y222100D01*
X82940Y222089D01*
X82889Y222087D01*
X82857Y222069D01*
X82821Y222061D01*
X82782Y222028D01*
X82737Y222004D01*
X82716Y221974D01*
X82688Y221951D01*
X82667Y221904D01*
X82637Y221862D01*
X82629Y221820D01*
X82617Y221792D01*
X82618Y221762D01*
X82610Y221720D01*
X82610Y220738D01*
X82359Y220989D01*
X82343Y220999D01*
X82328Y221017D01*
X81828Y221417D01*
X81814Y221423D01*
X81801Y221436D01*
X81201Y221836D01*
X81165Y221850D01*
X81110Y221881D01*
X79910Y222281D01*
X79885Y222283D01*
X79853Y222295D01*
X79253Y222395D01*
X79226Y222393D01*
X79190Y222400D01*
X78590Y222400D01*
X78578Y222397D01*
X78563Y222399D01*
X77163Y222299D01*
X77133Y222290D01*
X77090Y222287D01*
X75990Y221987D01*
X75958Y221970D01*
X75905Y221952D01*
X75005Y221452D01*
X74977Y221426D01*
X74921Y221389D01*
X74221Y220689D01*
X74203Y220659D01*
X74168Y220622D01*
X73668Y219822D01*
X73655Y219785D01*
X73626Y219729D01*
X73326Y218729D01*
X73325Y218710D01*
X73316Y218688D01*
X73116Y217588D01*
X73117Y217571D01*
X73111Y217549D01*
X73011Y216249D01*
X73013Y216236D01*
X73010Y216220D01*
X73010Y207520D01*
X73021Y207470D01*
X73023Y207419D01*
X73041Y207387D01*
X73049Y207351D01*
X73082Y207312D01*
X73106Y207267D01*
X73136Y207246D01*
X73159Y207218D01*
X73206Y207197D01*
X73248Y207167D01*
X73290Y207159D01*
X73318Y207147D01*
X73348Y207148D01*
X73390Y207140D01*
X77290Y207140D01*
X77340Y207151D01*
G37*
G36*
X98317Y206841D02*
X98317Y206841D01*
X98354Y206852D01*
X98420Y206863D01*
X99520Y207263D01*
X99542Y207277D01*
X99575Y207288D01*
X100475Y207788D01*
X100498Y207809D01*
X100537Y207831D01*
X101237Y208431D01*
X101254Y208454D01*
X101322Y208535D01*
X101822Y209435D01*
X101832Y209468D01*
X101854Y209511D01*
X102154Y210511D01*
X102155Y210530D01*
X102164Y210552D01*
X102364Y211652D01*
X102363Y211681D01*
X102370Y211720D01*
X102370Y221720D01*
X102359Y221770D01*
X102357Y221821D01*
X102339Y221853D01*
X102331Y221889D01*
X102298Y221928D01*
X102274Y221973D01*
X102244Y221994D01*
X102221Y222022D01*
X102174Y222043D01*
X102132Y222073D01*
X102090Y222081D01*
X102062Y222093D01*
X102032Y222092D01*
X101990Y222100D01*
X98190Y222100D01*
X98140Y222089D01*
X98089Y222087D01*
X98057Y222069D01*
X98021Y222061D01*
X97982Y222028D01*
X97937Y222004D01*
X97916Y221974D01*
X97888Y221951D01*
X97867Y221904D01*
X97837Y221862D01*
X97829Y221820D01*
X97817Y221792D01*
X97818Y221762D01*
X97810Y221720D01*
X97810Y213744D01*
X97614Y212175D01*
X97530Y211674D01*
X97031Y211008D01*
X96651Y210780D01*
X96221Y210694D01*
X95682Y210604D01*
X94945Y210696D01*
X94424Y210783D01*
X94026Y211022D01*
X93703Y211345D01*
X93435Y211880D01*
X93161Y212520D01*
X93070Y213244D01*
X93070Y221720D01*
X93059Y221770D01*
X93057Y221821D01*
X93039Y221853D01*
X93031Y221889D01*
X92998Y221928D01*
X92974Y221973D01*
X92944Y221994D01*
X92921Y222022D01*
X92874Y222043D01*
X92832Y222073D01*
X92790Y222081D01*
X92762Y222093D01*
X92732Y222092D01*
X92690Y222100D01*
X88790Y222100D01*
X88740Y222089D01*
X88689Y222087D01*
X88657Y222069D01*
X88621Y222061D01*
X88582Y222028D01*
X88537Y222004D01*
X88516Y221974D01*
X88488Y221951D01*
X88467Y221904D01*
X88437Y221862D01*
X88429Y221820D01*
X88417Y221792D01*
X88418Y221762D01*
X88410Y221720D01*
X88410Y207520D01*
X88421Y207470D01*
X88423Y207419D01*
X88441Y207387D01*
X88449Y207351D01*
X88482Y207312D01*
X88506Y207267D01*
X88536Y207246D01*
X88559Y207218D01*
X88606Y207197D01*
X88648Y207167D01*
X88690Y207159D01*
X88718Y207147D01*
X88748Y207148D01*
X88790Y207140D01*
X92490Y207140D01*
X92540Y207151D01*
X92591Y207153D01*
X92623Y207171D01*
X92659Y207179D01*
X92698Y207212D01*
X92743Y207236D01*
X92764Y207266D01*
X92792Y207289D01*
X92813Y207336D01*
X92843Y207378D01*
X92851Y207420D01*
X92863Y207448D01*
X92862Y207478D01*
X92870Y207520D01*
X92870Y208461D01*
X93093Y208182D01*
X93120Y208161D01*
X93152Y208123D01*
X93652Y207723D01*
X93682Y207709D01*
X93720Y207680D01*
X94320Y207380D01*
X94334Y207377D01*
X94349Y207367D01*
X94849Y207167D01*
X94859Y207165D01*
X94870Y207159D01*
X95470Y206959D01*
X95499Y206957D01*
X95536Y206944D01*
X96233Y206844D01*
X96828Y206745D01*
X96863Y206747D01*
X96917Y206741D01*
X98317Y206841D01*
G37*
G36*
X176922Y206841D02*
X176922Y206841D01*
X176935Y206845D01*
X176953Y206845D01*
X178153Y207045D01*
X178168Y207052D01*
X178190Y207053D01*
X179290Y207353D01*
X179318Y207368D01*
X179360Y207380D01*
X179680Y207540D01*
X180360Y207880D01*
X180389Y207904D01*
X180440Y207934D01*
X181240Y208634D01*
X181258Y208659D01*
X181290Y208687D01*
X181990Y209587D01*
X182006Y209622D01*
X182043Y209679D01*
X182443Y210679D01*
X182448Y210713D01*
X182466Y210762D01*
X182666Y212062D01*
X182660Y212142D01*
X182657Y212221D01*
X182653Y212227D01*
X182652Y212235D01*
X182612Y212303D01*
X182574Y212373D01*
X182568Y212377D01*
X182564Y212384D01*
X182497Y212427D01*
X182432Y212473D01*
X182424Y212474D01*
X182418Y212478D01*
X182385Y212482D01*
X182290Y212500D01*
X178590Y212500D01*
X178540Y212489D01*
X178489Y212487D01*
X178457Y212469D01*
X178421Y212461D01*
X178382Y212428D01*
X178337Y212404D01*
X178316Y212374D01*
X178288Y212351D01*
X178267Y212304D01*
X178237Y212262D01*
X178229Y212220D01*
X178217Y212192D01*
X178218Y212162D01*
X178210Y212120D01*
X178210Y211593D01*
X178056Y211208D01*
X177818Y210892D01*
X177136Y210380D01*
X176628Y210295D01*
X176622Y210293D01*
X176615Y210293D01*
X176121Y210194D01*
X175606Y210108D01*
X175282Y210189D01*
X175246Y210189D01*
X175190Y210200D01*
X174837Y210200D01*
X174523Y210279D01*
X174191Y210445D01*
X173840Y210708D01*
X173633Y210914D01*
X173482Y211520D01*
X173549Y211787D01*
X173690Y212070D01*
X174002Y212304D01*
X174450Y212572D01*
X174996Y212755D01*
X176573Y213149D01*
X177565Y213347D01*
X177568Y213349D01*
X177573Y213349D01*
X178473Y213549D01*
X178493Y213559D01*
X178524Y213564D01*
X179324Y213864D01*
X179330Y213868D01*
X179340Y213871D01*
X180040Y214171D01*
X180055Y214182D01*
X180079Y214190D01*
X180779Y214590D01*
X180787Y214598D01*
X180801Y214604D01*
X181401Y215004D01*
X181402Y215005D01*
X181405Y215006D01*
X181506Y215109D01*
X181906Y215709D01*
X181917Y215737D01*
X181940Y215770D01*
X182240Y216470D01*
X182246Y216509D01*
X182252Y216527D01*
X182264Y216554D01*
X182264Y216564D01*
X182268Y216578D01*
X182368Y217478D01*
X182364Y217509D01*
X182369Y217552D01*
X182269Y218752D01*
X182257Y218789D01*
X182243Y218861D01*
X181843Y219861D01*
X181823Y219890D01*
X181776Y219970D01*
X181076Y220770D01*
X181057Y220784D01*
X181037Y220809D01*
X180337Y221409D01*
X180305Y221426D01*
X180260Y221460D01*
X179260Y221960D01*
X179223Y221969D01*
X179165Y221993D01*
X178165Y222193D01*
X178162Y222193D01*
X178158Y222194D01*
X177058Y222394D01*
X177029Y222393D01*
X176990Y222400D01*
X174690Y222400D01*
X174662Y222394D01*
X174622Y222394D01*
X173522Y222194D01*
X173505Y222187D01*
X173481Y222184D01*
X172481Y221884D01*
X172462Y221874D01*
X172436Y221867D01*
X171536Y221467D01*
X171508Y221447D01*
X171462Y221424D01*
X170662Y220824D01*
X170637Y220794D01*
X170586Y220748D01*
X169986Y219948D01*
X169974Y219922D01*
X169950Y219890D01*
X169450Y218890D01*
X169441Y218852D01*
X169415Y218783D01*
X169215Y217583D01*
X169220Y217501D01*
X169223Y217419D01*
X169226Y217415D01*
X169226Y217410D01*
X169267Y217339D01*
X169306Y217267D01*
X169310Y217264D01*
X169313Y217260D01*
X169381Y217214D01*
X169448Y217167D01*
X169453Y217166D01*
X169457Y217164D01*
X169485Y217160D01*
X169590Y217140D01*
X173290Y217140D01*
X173303Y217143D01*
X173317Y217141D01*
X173387Y217162D01*
X173459Y217179D01*
X173469Y217188D01*
X173482Y217192D01*
X173536Y217243D01*
X173592Y217289D01*
X173598Y217302D01*
X173608Y217311D01*
X173663Y217445D01*
X173756Y217911D01*
X173928Y218342D01*
X174064Y218546D01*
X174281Y218691D01*
X174646Y218873D01*
X175063Y219040D01*
X176628Y219040D01*
X176870Y218959D01*
X176883Y218958D01*
X176898Y218951D01*
X177284Y218855D01*
X177446Y218801D01*
X177710Y218405D01*
X177710Y218167D01*
X177640Y217887D01*
X177418Y217592D01*
X177089Y217345D01*
X176544Y217072D01*
X176005Y216893D01*
X175243Y216797D01*
X175224Y216790D01*
X175198Y216789D01*
X172802Y216190D01*
X171908Y215991D01*
X171872Y215974D01*
X171801Y215950D01*
X170401Y215150D01*
X170381Y215131D01*
X170347Y215112D01*
X169747Y214612D01*
X169723Y214581D01*
X169718Y214576D01*
X169717Y214575D01*
X169674Y214531D01*
X169274Y213931D01*
X169263Y213903D01*
X169241Y213870D01*
X168941Y213170D01*
X168934Y213131D01*
X168912Y213062D01*
X168812Y212162D01*
X168817Y212124D01*
X168814Y212062D01*
X169014Y210762D01*
X169026Y210733D01*
X169033Y210690D01*
X169433Y209590D01*
X169454Y209557D01*
X169486Y209492D01*
X170086Y208692D01*
X170111Y208671D01*
X170140Y208634D01*
X170940Y207934D01*
X170973Y207916D01*
X171020Y207880D01*
X172020Y207380D01*
X172050Y207373D01*
X172090Y207353D01*
X173190Y207053D01*
X173207Y207053D01*
X173228Y207045D01*
X174428Y206845D01*
X174442Y206846D01*
X174458Y206841D01*
X175658Y206741D01*
X175685Y206745D01*
X175722Y206741D01*
X176922Y206841D01*
G37*
G36*
X109740Y207151D02*
X109740Y207151D01*
X109791Y207153D01*
X109823Y207171D01*
X109859Y207179D01*
X109898Y207212D01*
X109943Y207236D01*
X109964Y207266D01*
X109992Y207289D01*
X110013Y207336D01*
X110043Y207378D01*
X110051Y207420D01*
X110063Y207448D01*
X110062Y207478D01*
X110070Y207520D01*
X110070Y218740D01*
X113590Y218740D01*
X113641Y218752D01*
X113694Y218754D01*
X113724Y218771D01*
X113759Y218779D01*
X113799Y218813D01*
X113845Y218838D01*
X113865Y218867D01*
X113892Y218889D01*
X113914Y218937D01*
X113944Y218981D01*
X113949Y219015D01*
X113963Y219048D01*
X113961Y219100D01*
X113969Y219152D01*
X113958Y219185D01*
X113957Y219221D01*
X113932Y219267D01*
X113915Y219317D01*
X113888Y219347D01*
X113874Y219373D01*
X113848Y219391D01*
X113818Y219424D01*
X113440Y219708D01*
X111859Y221289D01*
X111839Y221301D01*
X111818Y221324D01*
X111462Y221592D01*
X111194Y221948D01*
X111182Y221959D01*
X111174Y221973D01*
X111116Y222014D01*
X111061Y222059D01*
X111046Y222063D01*
X111032Y222073D01*
X110905Y222097D01*
X110893Y222100D01*
X110892Y222100D01*
X110890Y222100D01*
X110070Y222100D01*
X110070Y223720D01*
X110064Y223746D01*
X110046Y223854D01*
X109746Y224654D01*
X109742Y224660D01*
X109740Y224670D01*
X109440Y225370D01*
X109416Y225401D01*
X109382Y225463D01*
X108882Y226063D01*
X108852Y226086D01*
X108811Y226129D01*
X108111Y226629D01*
X108087Y226639D01*
X108060Y226660D01*
X107260Y227060D01*
X107233Y227067D01*
X107199Y227084D01*
X106199Y227384D01*
X106160Y227387D01*
X106090Y227400D01*
X103190Y227400D01*
X103175Y227397D01*
X103160Y227399D01*
X103028Y227362D01*
X103021Y227361D01*
X103021Y227360D01*
X103020Y227360D01*
X102820Y227260D01*
X102781Y227228D01*
X102737Y227204D01*
X102716Y227173D01*
X102687Y227149D01*
X102666Y227103D01*
X102637Y227062D01*
X102629Y227019D01*
X102616Y226991D01*
X102617Y226975D01*
X102618Y226961D01*
X102610Y226920D01*
X102610Y224120D01*
X102621Y224070D01*
X102623Y224019D01*
X102641Y223987D01*
X102649Y223951D01*
X102682Y223912D01*
X102706Y223867D01*
X102736Y223846D01*
X102759Y223818D01*
X102806Y223797D01*
X102848Y223767D01*
X102890Y223759D01*
X102918Y223747D01*
X102948Y223748D01*
X102990Y223740D01*
X104643Y223740D01*
X104957Y223661D01*
X105230Y223525D01*
X105361Y223329D01*
X105410Y223230D01*
X105410Y222920D01*
X105418Y222884D01*
X105421Y222828D01*
X105510Y222473D01*
X105510Y222100D01*
X103190Y222100D01*
X103140Y222089D01*
X103089Y222087D01*
X103057Y222069D01*
X103021Y222061D01*
X102982Y222028D01*
X102937Y222004D01*
X102916Y221974D01*
X102888Y221951D01*
X102867Y221904D01*
X102837Y221862D01*
X102829Y221820D01*
X102817Y221792D01*
X102818Y221762D01*
X102810Y221720D01*
X102810Y219120D01*
X102821Y219070D01*
X102823Y219019D01*
X102841Y218987D01*
X102849Y218951D01*
X102882Y218912D01*
X102906Y218867D01*
X102936Y218846D01*
X102959Y218818D01*
X103006Y218797D01*
X103048Y218767D01*
X103090Y218759D01*
X103118Y218747D01*
X103148Y218748D01*
X103190Y218740D01*
X105510Y218740D01*
X105510Y207520D01*
X105521Y207470D01*
X105523Y207419D01*
X105541Y207387D01*
X105549Y207351D01*
X105582Y207312D01*
X105606Y207267D01*
X105636Y207246D01*
X105659Y207218D01*
X105706Y207197D01*
X105748Y207167D01*
X105790Y207159D01*
X105818Y207147D01*
X105848Y207148D01*
X105890Y207140D01*
X109690Y207140D01*
X109740Y207151D01*
G37*
G36*
X146007Y174396D02*
X146007Y174396D01*
X146012Y174392D01*
X146812Y174592D01*
X146832Y174617D01*
X146845Y174621D01*
X147145Y175321D01*
X147143Y175331D01*
X147149Y175335D01*
X147249Y176235D01*
X147247Y176238D01*
X147249Y176240D01*
X147249Y181186D01*
X149159Y178512D01*
X149559Y177913D01*
X149574Y177907D01*
X149576Y177897D01*
X150276Y177497D01*
X150291Y177499D01*
X150295Y177494D01*
X150298Y177494D01*
X150300Y177491D01*
X151200Y177491D01*
X151219Y177505D01*
X151232Y177502D01*
X151832Y178002D01*
X151833Y178010D01*
X151839Y178010D01*
X154137Y181008D01*
X154251Y181121D01*
X154251Y175240D01*
X154260Y175227D01*
X154256Y175218D01*
X154556Y174618D01*
X154584Y174604D01*
X154589Y174592D01*
X155489Y174392D01*
X155500Y174397D01*
X155505Y174391D01*
X156505Y174491D01*
X156522Y174507D01*
X156535Y174505D01*
X157035Y175005D01*
X157036Y175016D01*
X157038Y175018D01*
X157037Y175020D01*
X157038Y175028D01*
X157049Y175034D01*
X157149Y175834D01*
X157147Y175838D01*
X157149Y175840D01*
X157149Y185240D01*
X157143Y185248D01*
X157147Y185254D01*
X156947Y185954D01*
X156926Y185969D01*
X156924Y185983D01*
X156224Y186383D01*
X156207Y186380D01*
X156200Y186389D01*
X155200Y186389D01*
X155189Y186381D01*
X155181Y186385D01*
X154481Y186085D01*
X154473Y186071D01*
X154463Y186072D01*
X153863Y185372D01*
X153862Y185369D01*
X153860Y185369D01*
X150886Y181305D01*
X150234Y181677D01*
X148440Y184169D01*
X148437Y184170D01*
X148438Y184172D01*
X146838Y186072D01*
X146820Y186076D01*
X146817Y186086D01*
X146017Y186386D01*
X146002Y186382D01*
X145995Y186389D01*
X144995Y186289D01*
X144983Y186278D01*
X144973Y186281D01*
X144373Y185881D01*
X144363Y185854D01*
X144351Y185847D01*
X144251Y185147D01*
X144254Y185142D01*
X144251Y185140D01*
X144251Y175640D01*
X144256Y175633D01*
X144252Y175628D01*
X144452Y174828D01*
X144472Y174812D01*
X144473Y174799D01*
X145073Y174399D01*
X145093Y174400D01*
X145100Y174391D01*
X146000Y174391D01*
X146007Y174396D01*
G37*
G36*
X136740Y207151D02*
X136740Y207151D01*
X136791Y207153D01*
X136823Y207171D01*
X136859Y207179D01*
X136898Y207212D01*
X136943Y207236D01*
X136964Y207266D01*
X136992Y207289D01*
X137013Y207336D01*
X137043Y207378D01*
X137051Y207420D01*
X137063Y207448D01*
X137062Y207478D01*
X137070Y207520D01*
X137070Y221020D01*
X137067Y221033D01*
X137069Y221047D01*
X137048Y221117D01*
X137031Y221189D01*
X137022Y221199D01*
X137018Y221212D01*
X136967Y221266D01*
X136921Y221322D01*
X136908Y221328D01*
X136899Y221338D01*
X136765Y221393D01*
X136273Y221491D01*
X135882Y221589D01*
X135846Y221589D01*
X135790Y221600D01*
X135328Y221600D01*
X134873Y221691D01*
X134482Y221789D01*
X134474Y221789D01*
X134465Y221793D01*
X133473Y221991D01*
X133082Y222089D01*
X133072Y222089D01*
X133062Y222093D01*
X132986Y222090D01*
X132909Y222092D01*
X132900Y222087D01*
X132889Y222087D01*
X132822Y222050D01*
X132753Y222017D01*
X132746Y222009D01*
X132737Y222004D01*
X132693Y221941D01*
X132645Y221881D01*
X132643Y221871D01*
X132637Y221862D01*
X132610Y221720D01*
X132610Y220304D01*
X132487Y220458D01*
X132484Y220460D01*
X132482Y220463D01*
X131982Y221063D01*
X131967Y221075D01*
X131963Y221082D01*
X131949Y221091D01*
X131928Y221117D01*
X131428Y221517D01*
X131404Y221528D01*
X131379Y221550D01*
X130679Y221950D01*
X130649Y221959D01*
X130610Y221981D01*
X130010Y222181D01*
X130003Y222181D01*
X129994Y222186D01*
X129294Y222386D01*
X129256Y222388D01*
X129190Y222400D01*
X127790Y222400D01*
X127716Y222383D01*
X127641Y222370D01*
X127631Y222363D01*
X127621Y222361D01*
X127592Y222337D01*
X127521Y222289D01*
X127520Y222288D01*
X127489Y222287D01*
X127457Y222269D01*
X127421Y222261D01*
X127382Y222228D01*
X127337Y222204D01*
X127316Y222174D01*
X127288Y222151D01*
X127267Y222104D01*
X127237Y222062D01*
X127229Y222020D01*
X127217Y221992D01*
X127218Y221962D01*
X127210Y221920D01*
X127210Y218320D01*
X127221Y218270D01*
X127223Y218219D01*
X127241Y218187D01*
X127249Y218151D01*
X127282Y218112D01*
X127306Y218067D01*
X127336Y218046D01*
X127359Y218018D01*
X127406Y217997D01*
X127448Y217967D01*
X127490Y217959D01*
X127518Y217947D01*
X127548Y217948D01*
X127590Y217940D01*
X127690Y217940D01*
X127705Y217943D01*
X127720Y217941D01*
X127852Y217978D01*
X127859Y217979D01*
X127859Y217980D01*
X127860Y217980D01*
X127980Y218040D01*
X128971Y218040D01*
X129925Y217944D01*
X130647Y217764D01*
X131242Y217424D01*
X131676Y216902D01*
X132037Y216271D01*
X132221Y215626D01*
X132410Y214778D01*
X132410Y207520D01*
X132421Y207470D01*
X132423Y207419D01*
X132441Y207387D01*
X132449Y207351D01*
X132482Y207312D01*
X132506Y207267D01*
X132536Y207246D01*
X132559Y207218D01*
X132606Y207197D01*
X132648Y207167D01*
X132690Y207159D01*
X132718Y207147D01*
X132748Y207148D01*
X132790Y207140D01*
X136690Y207140D01*
X136740Y207151D01*
G37*
G36*
X126003Y174393D02*
X126003Y174393D01*
X126005Y174391D01*
X126905Y174491D01*
X126909Y174495D01*
X126912Y174492D01*
X127712Y174692D01*
X127720Y174703D01*
X127729Y174700D01*
X129129Y175700D01*
X129131Y175709D01*
X129138Y175708D01*
X129638Y176308D01*
X129638Y176320D01*
X129646Y176323D01*
X129946Y177123D01*
X129945Y177127D01*
X129948Y177128D01*
X130148Y177928D01*
X130144Y177936D01*
X130149Y177940D01*
X130149Y178840D01*
X130144Y178847D01*
X130148Y178852D01*
X129948Y179652D01*
X129939Y179659D01*
X129942Y179666D01*
X129442Y180466D01*
X129431Y180470D01*
X129432Y180478D01*
X128832Y180978D01*
X128804Y180979D01*
X128832Y181002D01*
X128833Y181006D01*
X128835Y181005D01*
X129335Y181505D01*
X129336Y181516D01*
X129337Y181517D01*
X129344Y181518D01*
X129744Y182318D01*
X129742Y182330D01*
X129749Y182335D01*
X129849Y183235D01*
X129845Y183242D01*
X129845Y183243D01*
X129849Y183246D01*
X129749Y184046D01*
X129743Y184052D01*
X129746Y184057D01*
X129446Y184857D01*
X129438Y184862D01*
X129440Y184869D01*
X128940Y185569D01*
X128931Y185571D01*
X128932Y185578D01*
X128332Y186078D01*
X128326Y186078D01*
X128326Y186082D01*
X127526Y186582D01*
X127515Y186581D01*
X127512Y186588D01*
X126712Y186788D01*
X126708Y186786D01*
X126706Y186789D01*
X125906Y186889D01*
X125902Y186887D01*
X125900Y186889D01*
X125000Y186889D01*
X124990Y186882D01*
X124983Y186886D01*
X124183Y186586D01*
X124180Y186581D01*
X124176Y186583D01*
X123476Y186183D01*
X123474Y186179D01*
X123471Y186180D01*
X122771Y185680D01*
X122768Y185669D01*
X122760Y185669D01*
X122260Y184969D01*
X122260Y184961D01*
X122255Y184959D01*
X121955Y184259D01*
X121956Y184256D01*
X121953Y184254D01*
X121955Y184252D01*
X121952Y184251D01*
X121752Y183351D01*
X121757Y183340D01*
X121751Y183334D01*
X121851Y182534D01*
X121859Y182526D01*
X121855Y182520D01*
X122255Y181620D01*
X122264Y181615D01*
X122262Y181608D01*
X122733Y181043D01*
X122265Y180575D01*
X122264Y180567D01*
X122258Y180566D01*
X121758Y179766D01*
X121759Y179759D01*
X121754Y179757D01*
X121454Y178957D01*
X121458Y178945D01*
X121451Y178940D01*
X121451Y178440D01*
X121454Y178436D01*
X121451Y178434D01*
X121551Y177634D01*
X121554Y177631D01*
X121552Y177628D01*
X121752Y176828D01*
X121763Y176820D01*
X121760Y176811D01*
X122260Y176111D01*
X122266Y176110D01*
X122265Y176105D01*
X122865Y175505D01*
X122871Y175504D01*
X122871Y175500D01*
X123571Y175000D01*
X123575Y175000D01*
X123576Y174997D01*
X124276Y174597D01*
X124286Y174599D01*
X124289Y174592D01*
X125189Y174392D01*
X125197Y174395D01*
X125200Y174391D01*
X126000Y174391D01*
X126003Y174393D01*
G37*
G36*
X114803Y174393D02*
X114803Y174393D01*
X114805Y174391D01*
X115705Y174491D01*
X115709Y174495D01*
X115712Y174492D01*
X116512Y174692D01*
X116520Y174703D01*
X116529Y174700D01*
X117929Y175700D01*
X117931Y175709D01*
X117938Y175708D01*
X118438Y176308D01*
X118438Y176317D01*
X118444Y176318D01*
X118844Y177118D01*
X118842Y177130D01*
X118849Y177134D01*
X118949Y177934D01*
X118947Y177938D01*
X118949Y177940D01*
X118949Y178840D01*
X118944Y178847D01*
X118948Y178852D01*
X118748Y179652D01*
X118739Y179659D01*
X118742Y179666D01*
X118242Y180466D01*
X118234Y180469D01*
X118235Y180475D01*
X117735Y180975D01*
X117703Y180979D01*
X117731Y181002D01*
X117733Y181009D01*
X117738Y181009D01*
X118138Y181509D01*
X118139Y181517D01*
X118144Y181518D01*
X118544Y182318D01*
X118542Y182330D01*
X118549Y182335D01*
X118649Y183235D01*
X118645Y183242D01*
X118645Y183243D01*
X118649Y183246D01*
X118549Y184046D01*
X118543Y184052D01*
X118546Y184057D01*
X118246Y184857D01*
X118238Y184862D01*
X118240Y184869D01*
X117740Y185569D01*
X117731Y185571D01*
X117732Y185578D01*
X117132Y186078D01*
X117129Y186078D01*
X117129Y186080D01*
X116429Y186580D01*
X116415Y186580D01*
X116412Y186588D01*
X115612Y186788D01*
X115607Y186786D01*
X115605Y186789D01*
X114705Y186889D01*
X114702Y186887D01*
X114700Y186889D01*
X113800Y186889D01*
X113790Y186882D01*
X113783Y186886D01*
X112983Y186586D01*
X112980Y186581D01*
X112976Y186583D01*
X112276Y186183D01*
X112274Y186179D01*
X112271Y186180D01*
X111571Y185680D01*
X111568Y185669D01*
X111560Y185669D01*
X111060Y184969D01*
X111060Y184961D01*
X111055Y184959D01*
X110755Y184259D01*
X110756Y184256D01*
X110753Y184254D01*
X110757Y184249D01*
X110751Y184245D01*
X110651Y183345D01*
X110653Y183342D01*
X110651Y183340D01*
X110651Y182540D01*
X110661Y182526D01*
X110657Y182516D01*
X111157Y181616D01*
X111160Y181615D01*
X111159Y181613D01*
X111537Y181046D01*
X111065Y180575D01*
X111064Y180567D01*
X111058Y180566D01*
X110558Y179766D01*
X110559Y179755D01*
X110552Y179752D01*
X110352Y178952D01*
X110353Y178950D01*
X110352Y178950D01*
X110252Y178450D01*
X110255Y178443D01*
X110254Y178443D01*
X110257Y178439D01*
X110251Y178434D01*
X110351Y177634D01*
X110357Y177628D01*
X110354Y177623D01*
X110654Y176823D01*
X110659Y176820D01*
X110657Y176816D01*
X111057Y176116D01*
X111066Y176112D01*
X111065Y176105D01*
X111665Y175505D01*
X111671Y175504D01*
X111671Y175500D01*
X112371Y175000D01*
X112377Y175000D01*
X112378Y174996D01*
X113178Y174596D01*
X113186Y174597D01*
X113188Y174592D01*
X113988Y174392D01*
X113996Y174396D01*
X114000Y174391D01*
X114800Y174391D01*
X114803Y174393D01*
G37*
G36*
X95114Y174593D02*
X95114Y174593D01*
X95123Y174605D01*
X95132Y174603D01*
X95932Y175303D01*
X95936Y175318D01*
X95945Y175321D01*
X96245Y176021D01*
X96239Y176048D01*
X96245Y176059D01*
X95945Y176759D01*
X95934Y176766D01*
X95935Y176775D01*
X95236Y177474D01*
X92465Y180541D01*
X92938Y181108D01*
X95738Y184408D01*
X95738Y184411D01*
X95740Y184411D01*
X96240Y185111D01*
X96239Y185145D01*
X96247Y185156D01*
X96047Y185756D01*
X96032Y185766D01*
X96032Y185777D01*
X95232Y186477D01*
X95221Y186478D01*
X95219Y186485D01*
X94519Y186785D01*
X94495Y186779D01*
X94484Y186787D01*
X93884Y186587D01*
X93875Y186573D01*
X93865Y186575D01*
X93165Y185875D01*
X93165Y185872D01*
X93163Y185872D01*
X90401Y182716D01*
X89938Y183272D01*
X89936Y183272D01*
X89936Y183273D01*
X87637Y185772D01*
X87037Y186472D01*
X87022Y186475D01*
X87019Y186485D01*
X86319Y186785D01*
X86295Y186779D01*
X86284Y186787D01*
X85684Y186587D01*
X85675Y186573D01*
X85665Y186575D01*
X84865Y185775D01*
X84863Y185759D01*
X84853Y185756D01*
X84653Y185156D01*
X84658Y185141D01*
X84659Y185140D01*
X84661Y185132D01*
X84655Y185121D01*
X84955Y184421D01*
X84965Y184415D01*
X84964Y184407D01*
X88433Y180640D01*
X85564Y177574D01*
X85564Y177572D01*
X85563Y177572D01*
X84963Y176872D01*
X84962Y176860D01*
X84954Y176857D01*
X84654Y176057D01*
X84661Y176035D01*
X84653Y176024D01*
X84853Y175424D01*
X84865Y175417D01*
X84863Y175408D01*
X85563Y174608D01*
X85582Y174604D01*
X85586Y174593D01*
X86286Y174393D01*
X86308Y174401D01*
X86319Y174395D01*
X87019Y174695D01*
X87027Y174708D01*
X87037Y174708D01*
X90399Y178564D01*
X90862Y178008D01*
X93062Y175408D01*
X93066Y175408D01*
X93065Y175405D01*
X93765Y174705D01*
X93777Y174704D01*
X93778Y174696D01*
X94378Y174396D01*
X94403Y174401D01*
X94414Y174393D01*
X95114Y174593D01*
G37*
G36*
X106003Y174393D02*
X106003Y174393D01*
X106005Y174391D01*
X106905Y174491D01*
X106920Y174505D01*
X106932Y174502D01*
X107532Y175002D01*
X107535Y175016D01*
X107537Y175018D01*
X107535Y175019D01*
X107536Y175020D01*
X107546Y175023D01*
X107846Y175823D01*
X107841Y175839D01*
X107849Y175846D01*
X107749Y176646D01*
X107739Y176656D01*
X107743Y176664D01*
X107343Y177364D01*
X107336Y177367D01*
X107337Y177372D01*
X106737Y178072D01*
X106729Y178074D01*
X106729Y178080D01*
X106029Y178580D01*
X106026Y178580D01*
X106026Y178582D01*
X103927Y179881D01*
X103230Y180379D01*
X102638Y180873D01*
X102145Y181660D01*
X101953Y182335D01*
X102337Y183105D01*
X103016Y183492D01*
X103787Y183589D01*
X104460Y183108D01*
X104752Y182427D01*
X104851Y181535D01*
X104860Y181526D01*
X104856Y181518D01*
X105156Y180918D01*
X105180Y180906D01*
X105184Y180893D01*
X106084Y180593D01*
X106093Y180596D01*
X106100Y180596D01*
X106105Y180591D01*
X107105Y180691D01*
X107120Y180705D01*
X107132Y180702D01*
X107732Y181202D01*
X107735Y181217D01*
X107743Y181223D01*
X107740Y181228D01*
X107749Y181233D01*
X107849Y181933D01*
X107844Y181941D01*
X107849Y181945D01*
X107749Y182845D01*
X107745Y182849D01*
X107748Y182852D01*
X107548Y183652D01*
X107543Y183656D01*
X107545Y183659D01*
X107245Y184359D01*
X107238Y184363D01*
X107240Y184369D01*
X106740Y185069D01*
X106734Y185070D01*
X106735Y185075D01*
X106135Y185675D01*
X106129Y185676D01*
X106129Y185680D01*
X105429Y186180D01*
X105415Y186180D01*
X105412Y186188D01*
X103812Y186588D01*
X103804Y186584D01*
X103800Y186589D01*
X102800Y186589D01*
X102793Y186584D01*
X102788Y186588D01*
X101988Y186388D01*
X101984Y186383D01*
X101981Y186385D01*
X101281Y186085D01*
X101277Y186078D01*
X101271Y186080D01*
X100571Y185580D01*
X100570Y185574D01*
X100565Y185575D01*
X99965Y184975D01*
X99964Y184963D01*
X99956Y184962D01*
X99556Y184162D01*
X99556Y184160D01*
X99555Y184159D01*
X99255Y183459D01*
X99256Y183454D01*
X99252Y183452D01*
X99052Y182652D01*
X99056Y182644D01*
X99051Y182640D01*
X99051Y181740D01*
X99054Y181736D01*
X99051Y181734D01*
X99151Y180934D01*
X99157Y180928D01*
X99154Y180923D01*
X99454Y180123D01*
X99462Y180118D01*
X99460Y180111D01*
X99960Y179411D01*
X99966Y179410D01*
X99965Y179405D01*
X100565Y178805D01*
X100568Y178805D01*
X100568Y178803D01*
X101268Y178203D01*
X101271Y178202D01*
X101271Y178200D01*
X101971Y177700D01*
X101984Y177700D01*
X101986Y177693D01*
X102606Y177516D01*
X102480Y177389D01*
X100000Y177389D01*
X99994Y177384D01*
X99989Y177388D01*
X99089Y177188D01*
X99077Y177173D01*
X99065Y177175D01*
X98565Y176675D01*
X98562Y176648D01*
X98551Y176640D01*
X98551Y175740D01*
X98554Y175736D01*
X98551Y175734D01*
X98651Y174934D01*
X98669Y174916D01*
X98668Y174902D01*
X99268Y174402D01*
X99292Y174401D01*
X99300Y174391D01*
X106000Y174391D01*
X106003Y174393D01*
G37*
G36*
X144011Y190909D02*
X144011Y190909D01*
X144019Y190905D01*
X144719Y191205D01*
X144726Y191216D01*
X144735Y191215D01*
X145035Y191515D01*
X145036Y191526D01*
X145038Y191528D01*
X145037Y191530D01*
X145037Y191534D01*
X145048Y191538D01*
X145053Y191558D01*
X145072Y191517D01*
X145073Y191509D01*
X145673Y191109D01*
X145685Y191110D01*
X145688Y191102D01*
X146488Y190902D01*
X146496Y190906D01*
X146500Y190901D01*
X147400Y190901D01*
X147411Y190909D01*
X147419Y190905D01*
X148119Y191205D01*
X148121Y191207D01*
X148122Y191206D01*
X148922Y191606D01*
X148928Y191619D01*
X148937Y191618D01*
X149537Y192318D01*
X149538Y192321D01*
X149540Y192321D01*
X150040Y193021D01*
X150040Y193025D01*
X150043Y193026D01*
X150443Y193726D01*
X150441Y193735D01*
X150448Y193738D01*
X150648Y194538D01*
X150644Y194546D01*
X150649Y194550D01*
X150649Y195450D01*
X150646Y195454D01*
X150649Y195456D01*
X150549Y196256D01*
X150543Y196262D01*
X150546Y196267D01*
X150246Y197067D01*
X150241Y197070D01*
X150243Y197074D01*
X149843Y197774D01*
X149836Y197777D01*
X149837Y197782D01*
X149237Y198482D01*
X149229Y198484D01*
X149229Y198490D01*
X148529Y198990D01*
X148523Y198990D01*
X148522Y198994D01*
X147722Y199394D01*
X147711Y199392D01*
X147707Y199399D01*
X147007Y199499D01*
X146999Y199494D01*
X146995Y199499D01*
X146095Y199399D01*
X146088Y199393D01*
X146083Y199396D01*
X145283Y199096D01*
X145281Y199093D01*
X145278Y199094D01*
X144949Y198930D01*
X144949Y202250D01*
X144946Y202254D01*
X144949Y202256D01*
X144849Y203056D01*
X144833Y203072D01*
X144835Y203085D01*
X144635Y203285D01*
X144616Y203287D01*
X144612Y203298D01*
X143812Y203498D01*
X143804Y203494D01*
X143800Y203499D01*
X142900Y203499D01*
X142886Y203488D01*
X142876Y203493D01*
X142176Y203093D01*
X142163Y203063D01*
X142151Y203056D01*
X142051Y202256D01*
X142053Y202252D01*
X142051Y202250D01*
X142051Y192050D01*
X142057Y192042D01*
X142053Y192036D01*
X142253Y191336D01*
X142272Y191322D01*
X142273Y191309D01*
X142873Y190909D01*
X142893Y190910D01*
X142900Y190901D01*
X144000Y190901D01*
X144011Y190909D01*
G37*
%LPC*%
G36*
X190649Y35328D02*
X190649Y35328D01*
X190616Y35377D01*
X190607Y35371D01*
X190600Y35379D01*
X189307Y35379D01*
X188618Y35576D01*
X188023Y35873D01*
X187529Y36170D01*
X186935Y36665D01*
X186540Y37159D01*
X186143Y37755D01*
X185846Y38349D01*
X185648Y38941D01*
X185549Y39633D01*
X185549Y40722D01*
X185747Y41314D01*
X185746Y41316D01*
X185747Y41316D01*
X185758Y41355D01*
X185759Y41355D01*
X185758Y41355D01*
X185801Y41503D01*
X185815Y41552D01*
X185857Y41700D01*
X185899Y41848D01*
X185913Y41897D01*
X185945Y42007D01*
X186338Y42499D01*
X186339Y42503D01*
X186341Y42503D01*
X186740Y43101D01*
X187132Y43591D01*
X188322Y44186D01*
X188915Y44482D01*
X189607Y44581D01*
X190300Y44680D01*
X190992Y44581D01*
X191589Y44482D01*
X192282Y44284D01*
X192873Y43988D01*
X193367Y43593D01*
X194361Y42600D01*
X194656Y42108D01*
X194954Y41412D01*
X195151Y40822D01*
X195151Y39434D01*
X195052Y38841D01*
X195046Y38821D01*
X195004Y38673D01*
X194962Y38526D01*
X194948Y38476D01*
X194906Y38329D01*
X194863Y38181D01*
X194854Y38150D01*
X194558Y37656D01*
X194162Y37061D01*
X193667Y36567D01*
X193173Y36172D01*
X192578Y35874D01*
X191982Y35576D01*
X191293Y35379D01*
X190700Y35379D01*
X190653Y35343D01*
X190657Y35338D01*
X190651Y35335D01*
X190648Y35304D01*
X190649Y35328D01*
G37*
%LPD*%
G36*
X172894Y112094D02*
X172894Y112094D01*
X172897Y112091D01*
X173597Y112191D01*
X173609Y112204D01*
X173620Y112201D01*
X174020Y112501D01*
X174024Y112517D01*
X174029Y112521D01*
X174026Y112525D01*
X174027Y112527D01*
X174039Y112533D01*
X174139Y113233D01*
X174136Y113238D01*
X174139Y113240D01*
X174139Y120740D01*
X174132Y120749D01*
X174137Y120756D01*
X173937Y121356D01*
X173917Y121369D01*
X173915Y121382D01*
X173415Y121682D01*
X173397Y121680D01*
X173390Y121689D01*
X170190Y121689D01*
X170186Y121686D01*
X170183Y121689D01*
X169483Y121589D01*
X169478Y121584D01*
X169474Y121587D01*
X168874Y121387D01*
X168871Y121382D01*
X168868Y121384D01*
X167668Y120784D01*
X167663Y120774D01*
X167655Y120775D01*
X166655Y119775D01*
X166654Y119763D01*
X166646Y119762D01*
X166347Y119163D01*
X166048Y118665D01*
X166049Y118658D01*
X166043Y118654D01*
X166044Y118654D01*
X166043Y118654D01*
X166029Y118605D01*
X166015Y118556D01*
X165973Y118408D01*
X165930Y118260D01*
X165916Y118211D01*
X165874Y118063D01*
X165843Y117954D01*
X165845Y117949D01*
X165841Y117947D01*
X165741Y117247D01*
X165744Y117242D01*
X165741Y117240D01*
X165741Y116540D01*
X165744Y116536D01*
X165741Y116533D01*
X165841Y115833D01*
X165846Y115828D01*
X165843Y115824D01*
X166043Y115224D01*
X166048Y115221D01*
X166046Y115218D01*
X166646Y114018D01*
X166656Y114013D01*
X166655Y114005D01*
X167655Y113005D01*
X167664Y113004D01*
X167665Y112998D01*
X168165Y112698D01*
X168168Y112698D01*
X168168Y112696D01*
X168768Y112396D01*
X168775Y112397D01*
X168776Y112393D01*
X169476Y112193D01*
X169480Y112194D01*
X169482Y112191D01*
X170082Y112091D01*
X170087Y112094D01*
X170090Y112091D01*
X172890Y112091D01*
X172894Y112094D01*
G37*
%LPC*%
G36*
X47383Y161719D02*
X47383Y161719D01*
X46691Y161818D01*
X46099Y162016D01*
X45503Y162313D01*
X45009Y162610D01*
X44417Y163103D01*
X44021Y163697D01*
X44018Y163698D01*
X44018Y163701D01*
X43624Y164194D01*
X43427Y164785D01*
X43228Y165481D01*
X43129Y166074D01*
X43129Y166767D01*
X43228Y167460D01*
X43236Y167486D01*
X43278Y167634D01*
X43320Y167781D01*
X43334Y167831D01*
X43376Y167978D01*
X43377Y167978D01*
X43376Y167978D01*
X43419Y168126D01*
X43426Y168152D01*
X43723Y168747D01*
X44019Y169240D01*
X45009Y170229D01*
X46199Y170824D01*
X46791Y171022D01*
X47483Y171121D01*
X50764Y171121D01*
X51138Y170840D01*
X51331Y170262D01*
X51331Y162773D01*
X51234Y162097D01*
X50861Y161817D01*
X50077Y161719D01*
X47383Y161719D01*
G37*
%LPD*%
%LPC*%
G36*
X62407Y25419D02*
X62407Y25419D01*
X61718Y25616D01*
X61127Y25912D01*
X60631Y26308D01*
X60135Y26705D01*
X59640Y27299D01*
X59343Y27793D01*
X59046Y28388D01*
X58848Y29081D01*
X58749Y29674D01*
X58749Y32956D01*
X59031Y33425D01*
X59604Y33521D01*
X67097Y33521D01*
X67773Y33424D01*
X68053Y33051D01*
X68151Y32367D01*
X68151Y29673D01*
X68052Y28981D01*
X67854Y28389D01*
X67557Y27795D01*
X67160Y27199D01*
X66765Y26705D01*
X66171Y26210D01*
X65677Y25913D01*
X65082Y25616D01*
X64393Y25419D01*
X62407Y25419D01*
G37*
%LPD*%
%LPC*%
G36*
X113503Y37119D02*
X113503Y37119D01*
X112815Y37218D01*
X112222Y37514D01*
X111627Y37812D01*
X111133Y38207D01*
X110638Y38701D01*
X110243Y39295D01*
X109946Y39889D01*
X109549Y41078D01*
X109549Y44263D01*
X109572Y44344D01*
X109573Y44344D01*
X109572Y44344D01*
X109615Y44492D01*
X109629Y44541D01*
X109671Y44689D01*
X109713Y44837D01*
X109727Y44886D01*
X109743Y44941D01*
X110116Y45221D01*
X118291Y45221D01*
X118761Y45033D01*
X118951Y44462D01*
X118951Y40978D01*
X118753Y40386D01*
X118555Y39792D01*
X118159Y39197D01*
X117763Y38604D01*
X117269Y38208D01*
X116773Y37812D01*
X116179Y37515D01*
X115486Y37218D01*
X114896Y37119D01*
X113503Y37119D01*
G37*
%LPD*%
G36*
X113505Y191001D02*
X113505Y191001D01*
X113522Y191017D01*
X113535Y191015D01*
X114035Y191515D01*
X114036Y191526D01*
X114038Y191528D01*
X114037Y191530D01*
X114039Y191542D01*
X114049Y191550D01*
X114049Y201850D01*
X114043Y201858D01*
X114047Y201864D01*
X113847Y202564D01*
X113823Y202582D01*
X113819Y202595D01*
X113119Y202895D01*
X113106Y202892D01*
X113100Y202899D01*
X106200Y202899D01*
X106197Y202897D01*
X106195Y202899D01*
X105295Y202799D01*
X105276Y202781D01*
X105262Y202782D01*
X104762Y202182D01*
X104761Y202162D01*
X104751Y202155D01*
X104651Y201255D01*
X104658Y201245D01*
X104652Y201238D01*
X104852Y200438D01*
X104871Y200423D01*
X104871Y200410D01*
X105571Y199910D01*
X105593Y199911D01*
X105600Y199901D01*
X110683Y199901D01*
X111151Y199526D01*
X111151Y198767D01*
X110776Y198299D01*
X107400Y198299D01*
X107386Y198288D01*
X107384Y198288D01*
X107383Y198288D01*
X107373Y198291D01*
X106773Y197891D01*
X106765Y197868D01*
X106759Y197864D01*
X106752Y197861D01*
X106552Y196961D01*
X106557Y196950D01*
X106551Y196945D01*
X106651Y195945D01*
X106667Y195928D01*
X106665Y195915D01*
X107165Y195415D01*
X107192Y195412D01*
X107200Y195401D01*
X110585Y195401D01*
X111151Y195024D01*
X111151Y191750D01*
X111163Y191734D01*
X111159Y191723D01*
X111559Y191123D01*
X111584Y191114D01*
X111589Y191102D01*
X112489Y190902D01*
X112500Y190907D01*
X112505Y190901D01*
X113505Y191001D01*
G37*
G36*
X141205Y174491D02*
X141205Y174491D01*
X141222Y174507D01*
X141235Y174505D01*
X141735Y175005D01*
X141736Y175016D01*
X141738Y175018D01*
X141737Y175020D01*
X141739Y175032D01*
X141749Y175040D01*
X141749Y185340D01*
X141741Y185351D01*
X141745Y185359D01*
X141445Y186059D01*
X141424Y186071D01*
X141422Y186084D01*
X140822Y186384D01*
X140806Y186381D01*
X140800Y186389D01*
X133900Y186389D01*
X133897Y186387D01*
X133895Y186389D01*
X132995Y186289D01*
X132976Y186271D01*
X132962Y186272D01*
X132462Y185672D01*
X132461Y185652D01*
X132451Y185645D01*
X132351Y184745D01*
X132358Y184735D01*
X132352Y184728D01*
X132552Y183928D01*
X132571Y183913D01*
X132571Y183900D01*
X133271Y183400D01*
X133293Y183401D01*
X133300Y183391D01*
X138383Y183391D01*
X138851Y183016D01*
X138851Y182260D01*
X138380Y181789D01*
X135000Y181789D01*
X134982Y181775D01*
X134969Y181778D01*
X134469Y181378D01*
X134464Y181358D01*
X134459Y181354D01*
X134452Y181351D01*
X134252Y180451D01*
X134257Y180440D01*
X134251Y180435D01*
X134351Y179435D01*
X134367Y179418D01*
X134365Y179405D01*
X134865Y178905D01*
X134892Y178902D01*
X134900Y178891D01*
X138285Y178891D01*
X138851Y178514D01*
X138851Y175240D01*
X138863Y175224D01*
X138859Y175213D01*
X139259Y174613D01*
X139284Y174604D01*
X139289Y174592D01*
X140189Y174392D01*
X140200Y174397D01*
X140205Y174391D01*
X141205Y174491D01*
G37*
G36*
X121604Y190904D02*
X121604Y190904D01*
X121606Y190901D01*
X122406Y191001D01*
X122412Y191007D01*
X122417Y191004D01*
X123217Y191304D01*
X123249Y191354D01*
X123238Y191362D01*
X123243Y191374D01*
X123224Y191407D01*
X123924Y191807D01*
X123927Y191814D01*
X123932Y191813D01*
X124632Y192413D01*
X124633Y192419D01*
X124638Y192418D01*
X125138Y193018D01*
X125138Y193027D01*
X125144Y193028D01*
X125544Y193828D01*
X125543Y193836D01*
X125548Y193838D01*
X125748Y194638D01*
X125744Y194646D01*
X125749Y194650D01*
X125749Y197350D01*
X125733Y197371D01*
X125735Y197385D01*
X124535Y198585D01*
X124529Y198586D01*
X124529Y198590D01*
X123829Y199090D01*
X123823Y199090D01*
X123822Y199094D01*
X123022Y199494D01*
X123020Y199494D01*
X123019Y199495D01*
X122319Y199795D01*
X122309Y199793D01*
X122305Y199799D01*
X121405Y199899D01*
X121399Y199895D01*
X121395Y199899D01*
X120495Y199799D01*
X120491Y199795D01*
X120488Y199798D01*
X119688Y199598D01*
X119684Y199593D01*
X119681Y199595D01*
X118981Y199295D01*
X118977Y199288D01*
X118971Y199290D01*
X118271Y198790D01*
X118269Y198782D01*
X118263Y198782D01*
X117663Y198082D01*
X117662Y198075D01*
X117657Y198074D01*
X117257Y197374D01*
X117258Y197370D01*
X117255Y197369D01*
X116955Y196669D01*
X116957Y196659D01*
X116951Y196655D01*
X116851Y195755D01*
X116853Y195752D01*
X116851Y195750D01*
X116851Y194850D01*
X116854Y194846D01*
X116851Y194844D01*
X116951Y194044D01*
X116960Y194035D01*
X116956Y194028D01*
X117356Y193228D01*
X117361Y193225D01*
X117360Y193221D01*
X117860Y192521D01*
X117866Y192520D01*
X117865Y192515D01*
X118465Y191915D01*
X118469Y191915D01*
X118468Y191912D01*
X119068Y191412D01*
X119080Y191412D01*
X119083Y191404D01*
X119883Y191104D01*
X119888Y191105D01*
X119889Y191102D01*
X120789Y190902D01*
X120797Y190905D01*
X120800Y190901D01*
X121600Y190901D01*
X121604Y190904D01*
G37*
G36*
X98899Y110828D02*
X98899Y110828D01*
X98906Y110823D01*
X99506Y111023D01*
X99511Y111031D01*
X99517Y111029D01*
X100117Y111429D01*
X100118Y111432D01*
X100121Y111432D01*
X100621Y111832D01*
X100623Y111839D01*
X100628Y111839D01*
X101028Y112339D01*
X101029Y112349D01*
X101035Y112351D01*
X101335Y113051D01*
X101335Y113054D01*
X101337Y113054D01*
X101537Y113654D01*
X101535Y113660D01*
X101539Y113662D01*
X101639Y114262D01*
X101638Y114263D01*
X101639Y114263D01*
X101739Y114963D01*
X101736Y114968D01*
X101739Y114970D01*
X101739Y116470D01*
X101736Y116474D01*
X101739Y116477D01*
X101639Y117177D01*
X101638Y117178D01*
X101639Y117178D01*
X101539Y117778D01*
X101532Y117784D01*
X101535Y117789D01*
X101235Y118489D01*
X101233Y118491D01*
X101234Y118492D01*
X100934Y119092D01*
X100931Y119093D01*
X100932Y119095D01*
X100632Y119595D01*
X100629Y119597D01*
X100629Y119600D01*
X100329Y120000D01*
X100314Y120004D01*
X100312Y120014D01*
X99713Y120313D01*
X99215Y120612D01*
X99201Y120611D01*
X99197Y120619D01*
X98497Y120719D01*
X98492Y120716D01*
X98490Y120719D01*
X97690Y120719D01*
X97685Y120716D01*
X97682Y120719D01*
X97082Y120619D01*
X97078Y120614D01*
X97074Y120617D01*
X96474Y120417D01*
X96467Y120406D01*
X96458Y120408D01*
X95859Y119908D01*
X95359Y119508D01*
X95356Y119494D01*
X95346Y119492D01*
X94746Y118292D01*
X94748Y118281D01*
X94741Y118277D01*
X94642Y117580D01*
X94614Y117483D01*
X94600Y117434D01*
X94558Y117286D01*
X94515Y117138D01*
X94501Y117089D01*
X94459Y116941D01*
X94443Y116884D01*
X94446Y116874D01*
X94441Y116870D01*
X94441Y114770D01*
X94444Y114766D01*
X94441Y114763D01*
X94541Y114063D01*
X94545Y114059D01*
X94543Y114056D01*
X94743Y113356D01*
X94744Y113355D01*
X94743Y113354D01*
X94943Y112754D01*
X94950Y112750D01*
X94948Y112745D01*
X95248Y112245D01*
X95252Y112243D01*
X95252Y112239D01*
X95652Y111739D01*
X95659Y111737D01*
X95659Y111732D01*
X96159Y111332D01*
X96167Y111331D01*
X96168Y111326D01*
X96768Y111026D01*
X96775Y111027D01*
X96776Y111023D01*
X97476Y110823D01*
X97486Y110826D01*
X97490Y110821D01*
X98890Y110821D01*
X98899Y110828D01*
G37*
%LPC*%
G36*
X189803Y26079D02*
X189803Y26079D01*
X188411Y26278D01*
X187816Y26477D01*
X187814Y26476D01*
X187814Y26477D01*
X187123Y26675D01*
X186631Y27068D01*
X186137Y27464D01*
X185745Y28052D01*
X185548Y28641D01*
X185449Y29333D01*
X185449Y30027D01*
X185548Y30715D01*
X185844Y31308D01*
X186138Y31895D01*
X186625Y32188D01*
X187122Y32486D01*
X187818Y32784D01*
X188411Y32982D01*
X189803Y33181D01*
X191197Y33181D01*
X191892Y33081D01*
X192486Y32982D01*
X193179Y32685D01*
X193777Y32387D01*
X194265Y32093D01*
X194657Y31505D01*
X194954Y30911D01*
X195151Y30322D01*
X195151Y28937D01*
X195118Y28823D01*
X195104Y28774D01*
X195062Y28626D01*
X195020Y28479D01*
X195006Y28429D01*
X194964Y28282D01*
X194954Y28250D01*
X194661Y27761D01*
X194167Y27267D01*
X193672Y26870D01*
X193179Y26575D01*
X192584Y26377D01*
X191989Y26178D01*
X191297Y26079D01*
X189803Y26079D01*
G37*
%LPD*%
G36*
X134819Y190915D02*
X134819Y190915D01*
X134832Y190912D01*
X135432Y191412D01*
X135435Y191427D01*
X135438Y191429D01*
X135436Y191432D01*
X135437Y191437D01*
X135449Y191444D01*
X135549Y192244D01*
X135547Y192248D01*
X135549Y192250D01*
X135549Y199936D01*
X135828Y200401D01*
X138300Y200401D01*
X138303Y200403D01*
X138305Y200401D01*
X139205Y200501D01*
X139222Y200517D01*
X139235Y200515D01*
X139735Y201015D01*
X139737Y201028D01*
X139744Y201033D01*
X139739Y201039D01*
X139749Y201045D01*
X139849Y202045D01*
X139837Y202065D01*
X139841Y202077D01*
X139441Y202677D01*
X139417Y202686D01*
X139412Y202698D01*
X138612Y202898D01*
X138604Y202894D01*
X138600Y202899D01*
X129200Y202899D01*
X129186Y202888D01*
X129176Y202893D01*
X128476Y202493D01*
X128463Y202463D01*
X128451Y202456D01*
X128351Y201656D01*
X128357Y201646D01*
X128352Y201639D01*
X128552Y200739D01*
X128582Y200714D01*
X128586Y200703D01*
X129286Y200503D01*
X129291Y200505D01*
X129296Y200505D01*
X129298Y200501D01*
X131898Y200401D01*
X131899Y200402D01*
X131900Y200401D01*
X132651Y200401D01*
X132651Y191850D01*
X132662Y191836D01*
X132657Y191826D01*
X133057Y191126D01*
X133082Y191115D01*
X133086Y191103D01*
X133786Y190903D01*
X133796Y190906D01*
X133800Y190901D01*
X134800Y190901D01*
X134819Y190915D01*
G37*
G36*
X166317Y174404D02*
X166317Y174404D01*
X166329Y174400D01*
X167029Y174900D01*
X167034Y174917D01*
X167037Y174919D01*
X167035Y174921D01*
X167039Y174932D01*
X167049Y174940D01*
X167049Y183426D01*
X167328Y183891D01*
X169900Y183891D01*
X169903Y183893D01*
X169905Y183891D01*
X170805Y183991D01*
X170822Y184007D01*
X170835Y184005D01*
X171335Y184505D01*
X171337Y184518D01*
X171344Y184523D01*
X171339Y184529D01*
X171349Y184535D01*
X171449Y185535D01*
X171437Y185555D01*
X171441Y185567D01*
X171041Y186167D01*
X171017Y186176D01*
X171012Y186188D01*
X170212Y186388D01*
X170204Y186384D01*
X170200Y186389D01*
X160800Y186389D01*
X160786Y186378D01*
X160776Y186383D01*
X160076Y185983D01*
X160063Y185953D01*
X160051Y185946D01*
X159951Y185146D01*
X159957Y185136D01*
X159952Y185129D01*
X160152Y184229D01*
X160182Y184204D01*
X160186Y184193D01*
X160886Y183993D01*
X160891Y183995D01*
X160896Y183995D01*
X160898Y183991D01*
X163498Y183891D01*
X163499Y183892D01*
X163500Y183891D01*
X164251Y183891D01*
X164251Y175340D01*
X164259Y175329D01*
X164255Y175321D01*
X164555Y174621D01*
X164583Y174605D01*
X164588Y174592D01*
X165388Y174392D01*
X165396Y174396D01*
X165400Y174391D01*
X166300Y174391D01*
X166317Y174404D01*
G37*
%LPC*%
G36*
X67049Y35572D02*
X67049Y35572D01*
X67011Y35618D01*
X67005Y35613D01*
X67000Y35619D01*
X60303Y35619D01*
X59512Y35718D01*
X59034Y35910D01*
X58749Y36384D01*
X58749Y37150D01*
X59420Y37821D01*
X64200Y37821D01*
X64211Y37829D01*
X64224Y37827D01*
X64226Y37840D01*
X64247Y37857D01*
X64231Y37878D01*
X64235Y37905D01*
X64035Y38105D01*
X64030Y38106D01*
X64030Y38109D01*
X63230Y38709D01*
X59531Y41509D01*
X58942Y41999D01*
X58749Y42578D01*
X58749Y43255D01*
X59129Y43825D01*
X59704Y43921D01*
X67196Y43921D01*
X67776Y43824D01*
X68151Y43450D01*
X68151Y42578D01*
X67959Y42003D01*
X67486Y41719D01*
X62800Y41719D01*
X62787Y41709D01*
X62770Y41709D01*
X62770Y41697D01*
X62753Y41683D01*
X62770Y41660D01*
X62770Y41631D01*
X67568Y38033D01*
X68151Y37450D01*
X68151Y36873D01*
X68053Y36093D01*
X67676Y35716D01*
X67092Y35619D01*
X67051Y35575D01*
X67054Y35573D01*
X67051Y35570D01*
X67051Y35541D01*
X67049Y35572D01*
G37*
%LPD*%
%LPC*%
G36*
X162903Y36579D02*
X162903Y36579D01*
X162220Y36677D01*
X161746Y37056D01*
X161650Y37727D01*
X161672Y37803D01*
X161686Y37853D01*
X161728Y38000D01*
X161729Y38000D01*
X161728Y38000D01*
X161771Y38148D01*
X161785Y38197D01*
X161827Y38345D01*
X161844Y38404D01*
X162124Y38684D01*
X162704Y38781D01*
X166800Y38781D01*
X166809Y38788D01*
X166816Y38783D01*
X167116Y38883D01*
X167121Y38891D01*
X167131Y38892D01*
X167131Y38905D01*
X167149Y38932D01*
X167129Y38946D01*
X167128Y38970D01*
X165429Y40170D01*
X162830Y42169D01*
X162035Y42765D01*
X161747Y43150D01*
X161650Y43827D01*
X161674Y43910D01*
X161688Y43960D01*
X161730Y44107D01*
X161731Y44107D01*
X161730Y44107D01*
X161773Y44255D01*
X161787Y44304D01*
X161829Y44452D01*
X161842Y44498D01*
X162314Y44781D01*
X170491Y44781D01*
X170959Y44593D01*
X171150Y43926D01*
X171053Y43057D01*
X170680Y42777D01*
X170096Y42679D01*
X166000Y42679D01*
X165979Y42663D01*
X165965Y42665D01*
X165865Y42565D01*
X165857Y42506D01*
X165870Y42504D01*
X165870Y42491D01*
X170959Y38599D01*
X171151Y38121D01*
X171151Y37244D01*
X170866Y36770D01*
X170391Y36579D01*
X162903Y36579D01*
G37*
%LPD*%
%LPC*%
G36*
X237408Y25939D02*
X237408Y25939D01*
X236833Y26131D01*
X236549Y26604D01*
X236549Y27283D01*
X236577Y27379D01*
X236591Y27428D01*
X236633Y27576D01*
X236675Y27724D01*
X236689Y27773D01*
X236731Y27921D01*
X236732Y27921D01*
X236731Y27921D01*
X236740Y27949D01*
X237110Y28042D01*
X237803Y28141D01*
X241900Y28141D01*
X241911Y28149D01*
X241924Y28147D01*
X241926Y28160D01*
X241947Y28177D01*
X241931Y28198D01*
X241935Y28225D01*
X241835Y28325D01*
X241831Y28325D01*
X241831Y28328D01*
X240131Y29728D01*
X240129Y29728D01*
X240129Y29730D01*
X237332Y31728D01*
X236841Y32219D01*
X236549Y32802D01*
X236549Y33478D01*
X236833Y34046D01*
X237404Y34141D01*
X244897Y34141D01*
X245581Y34043D01*
X245951Y33765D01*
X245951Y32893D01*
X245855Y32225D01*
X245391Y32039D01*
X240600Y32039D01*
X240587Y32029D01*
X240570Y32029D01*
X240570Y32017D01*
X240553Y32003D01*
X240570Y31980D01*
X240570Y31951D01*
X245368Y28353D01*
X245951Y27770D01*
X245951Y27193D01*
X245853Y26317D01*
X245480Y26037D01*
X244896Y25939D01*
X237408Y25939D01*
G37*
%LPD*%
%LPC*%
G36*
X212303Y36199D02*
X212303Y36199D01*
X211623Y36296D01*
X211246Y36673D01*
X211150Y37349D01*
X211247Y37930D01*
X211528Y38305D01*
X212104Y38401D01*
X216600Y38401D01*
X216613Y38411D01*
X216630Y38411D01*
X216630Y38423D01*
X216647Y38437D01*
X216630Y38460D01*
X216630Y38489D01*
X215430Y39389D01*
X215429Y39389D01*
X215429Y39390D01*
X211537Y42284D01*
X211247Y42767D01*
X211150Y43449D01*
X211246Y44023D01*
X211717Y44401D01*
X212400Y44401D01*
X212447Y44437D01*
X212440Y44446D01*
X212449Y44454D01*
X212448Y44472D01*
X212451Y44444D01*
X212493Y44401D01*
X212497Y44405D01*
X212500Y44401D01*
X219891Y44401D01*
X220359Y44213D01*
X220551Y43543D01*
X220551Y42670D01*
X220180Y42299D01*
X215500Y42299D01*
X215467Y42274D01*
X215456Y42272D01*
X215356Y42072D01*
X215367Y42014D01*
X215370Y42014D01*
X215370Y42011D01*
X220359Y38219D01*
X220551Y37741D01*
X220551Y36859D01*
X220363Y36390D01*
X219792Y36199D01*
X212303Y36199D01*
G37*
%LPD*%
%LPC*%
G36*
X236930Y36336D02*
X236930Y36336D01*
X236647Y36807D01*
X236549Y37394D01*
X236549Y42881D01*
X236746Y43372D01*
X236730Y43429D01*
X236720Y43426D01*
X236717Y43436D01*
X236252Y43605D01*
X236786Y43443D01*
X236800Y43448D01*
X236812Y43448D01*
X236818Y43444D01*
X237309Y43641D01*
X244797Y43641D01*
X245481Y43543D01*
X245854Y43263D01*
X245951Y42487D01*
X245951Y37094D01*
X245856Y36527D01*
X245292Y36339D01*
X244409Y36339D01*
X243940Y36527D01*
X243749Y37098D01*
X243749Y41190D01*
X243717Y41233D01*
X243716Y41237D01*
X243116Y41437D01*
X243105Y41433D01*
X243100Y41439D01*
X242500Y41439D01*
X242453Y41403D01*
X242458Y41397D01*
X242452Y41393D01*
X242451Y41392D01*
X242351Y38595D01*
X242255Y38021D01*
X241786Y37739D01*
X240909Y37739D01*
X240436Y37929D01*
X240149Y38502D01*
X240149Y41190D01*
X240120Y41228D01*
X240118Y41236D01*
X239618Y41436D01*
X239605Y41432D01*
X239600Y41439D01*
X239000Y41439D01*
X238962Y41410D01*
X238954Y41408D01*
X238754Y40908D01*
X238756Y40903D01*
X238753Y40900D01*
X238757Y40895D01*
X238751Y40890D01*
X238751Y37493D01*
X238653Y36810D01*
X238371Y36433D01*
X237696Y36240D01*
X236930Y36336D01*
G37*
%LPD*%
%LPC*%
G36*
X53996Y161719D02*
X53996Y161719D01*
X53623Y162000D01*
X53430Y162674D01*
X53527Y163447D01*
X53904Y163824D01*
X54484Y163921D01*
X57880Y163921D01*
X57885Y163924D01*
X57888Y163921D01*
X58488Y164021D01*
X58529Y164065D01*
X58526Y164068D01*
X58529Y164070D01*
X58529Y164770D01*
X58520Y164783D01*
X58524Y164792D01*
X58324Y165192D01*
X58287Y165211D01*
X58280Y165219D01*
X56283Y165219D01*
X55593Y165318D01*
X55117Y165508D01*
X54831Y166177D01*
X54927Y166951D01*
X55210Y167327D01*
X55887Y167521D01*
X58480Y167521D01*
X58527Y167557D01*
X58522Y167564D01*
X58529Y167570D01*
X58529Y168870D01*
X58493Y168917D01*
X58486Y168912D01*
X58480Y168919D01*
X54384Y168919D01*
X53808Y169015D01*
X53527Y169389D01*
X53430Y170265D01*
X53621Y170837D01*
X54094Y171121D01*
X59577Y171121D01*
X60261Y171023D01*
X60634Y170743D01*
X60731Y170067D01*
X60731Y162574D01*
X60635Y161998D01*
X60264Y161719D01*
X53996Y161719D01*
G37*
%LPD*%
G36*
X117503Y112100D02*
X117503Y112100D01*
X117512Y112096D01*
X118112Y112396D01*
X118114Y112400D01*
X118117Y112399D01*
X118387Y112579D01*
X118859Y112202D01*
X118878Y112201D01*
X118883Y112191D01*
X119583Y112091D01*
X119588Y112094D01*
X119590Y112091D01*
X120290Y112091D01*
X120299Y112098D01*
X120306Y112093D01*
X120906Y112293D01*
X120913Y112304D01*
X120921Y112302D01*
X121421Y112702D01*
X121422Y112702D01*
X122022Y113202D01*
X122023Y113209D01*
X122028Y113209D01*
X122428Y113709D01*
X122429Y113719D01*
X122435Y113721D01*
X122735Y114421D01*
X122733Y114429D01*
X122739Y114432D01*
X122839Y115032D01*
X122838Y115033D01*
X122839Y115033D01*
X122939Y115733D01*
X122933Y115743D01*
X122939Y115748D01*
X122839Y116348D01*
X122832Y116354D01*
X122835Y116359D01*
X122535Y117059D01*
X122531Y117062D01*
X122532Y117065D01*
X122232Y117565D01*
X122227Y117567D01*
X122228Y117572D01*
X121728Y118172D01*
X121721Y118173D01*
X121721Y118178D01*
X121221Y118578D01*
X121213Y118579D01*
X121212Y118584D01*
X120612Y118884D01*
X120601Y118882D01*
X120597Y118889D01*
X119897Y118989D01*
X119892Y118986D01*
X119886Y118986D01*
X119883Y118989D01*
X119183Y118889D01*
X119178Y118884D01*
X119174Y118887D01*
X118574Y118687D01*
X118569Y118679D01*
X118563Y118681D01*
X118339Y118532D01*
X118339Y121140D01*
X118336Y121145D01*
X118339Y121148D01*
X118239Y121748D01*
X118231Y121755D01*
X118234Y121762D01*
X118134Y121962D01*
X118108Y121975D01*
X118104Y121987D01*
X117404Y122187D01*
X117399Y122186D01*
X117398Y122187D01*
X117392Y122187D01*
X117390Y122189D01*
X116690Y122189D01*
X116687Y122187D01*
X116686Y122187D01*
X116676Y122180D01*
X116668Y122184D01*
X116068Y121884D01*
X116058Y121864D01*
X116047Y121856D01*
X116050Y121852D01*
X116041Y121847D01*
X115941Y121147D01*
X115944Y121142D01*
X115941Y121140D01*
X115941Y112940D01*
X115949Y112929D01*
X115944Y112922D01*
X116144Y112422D01*
X116163Y112410D01*
X116165Y112398D01*
X116665Y112098D01*
X116683Y112100D01*
X116690Y112091D01*
X117490Y112091D01*
X117503Y112100D01*
G37*
%LPC*%
G36*
X63603Y46219D02*
X63603Y46219D01*
X62920Y46317D01*
X62543Y46600D01*
X62349Y47277D01*
X62349Y49462D01*
X62539Y50031D01*
X63108Y50221D01*
X63780Y50221D01*
X64152Y49848D01*
X64251Y48467D01*
X64290Y48422D01*
X64296Y48427D01*
X64300Y48421D01*
X65600Y48421D01*
X65633Y48446D01*
X65644Y48448D01*
X65944Y49048D01*
X65941Y49064D01*
X65949Y49070D01*
X65949Y49770D01*
X65946Y49775D01*
X65949Y49778D01*
X65849Y50378D01*
X65844Y50382D01*
X65847Y50386D01*
X65647Y50986D01*
X65636Y50993D01*
X65638Y51002D01*
X65138Y51602D01*
X65131Y51603D01*
X65131Y51608D01*
X64631Y52008D01*
X64618Y52009D01*
X64616Y52017D01*
X64016Y52217D01*
X64009Y52215D01*
X64007Y52219D01*
X63307Y52319D01*
X63298Y52314D01*
X63293Y52319D01*
X62593Y52219D01*
X62589Y52215D01*
X62586Y52217D01*
X61886Y52017D01*
X61878Y52006D01*
X61869Y52008D01*
X61369Y51608D01*
X61367Y51601D01*
X61362Y51601D01*
X60962Y51101D01*
X60961Y51087D01*
X60953Y51084D01*
X60934Y51018D01*
X60892Y50871D01*
X60878Y50821D01*
X60836Y50674D01*
X60793Y50526D01*
X60779Y50477D01*
X60753Y50384D01*
X60754Y50380D01*
X60752Y50378D01*
X60751Y50377D01*
X60651Y49677D01*
X60657Y49667D01*
X60651Y49662D01*
X60751Y49062D01*
X60758Y49055D01*
X60755Y49049D01*
X61349Y47764D01*
X61255Y47297D01*
X60673Y46812D01*
X60096Y46523D01*
X59532Y46711D01*
X59143Y47295D01*
X58846Y47889D01*
X58648Y48481D01*
X58549Y49177D01*
X58450Y49869D01*
X58549Y50462D01*
X58548Y50463D01*
X58549Y50463D01*
X58648Y51155D01*
X58944Y51748D01*
X59242Y52343D01*
X59637Y52837D01*
X60133Y53333D01*
X60629Y53730D01*
X61222Y54125D01*
X61811Y54322D01*
X63203Y54521D01*
X63896Y54521D01*
X64489Y54422D01*
X65182Y54224D01*
X65773Y53928D01*
X66267Y53533D01*
X67262Y52539D01*
X67657Y51945D01*
X67953Y51355D01*
X68051Y50762D01*
X68151Y50067D01*
X68151Y49373D01*
X68051Y48577D01*
X67953Y47985D01*
X67657Y47393D01*
X67361Y46901D01*
X66873Y46413D01*
X66292Y46219D01*
X63603Y46219D01*
G37*
%LPD*%
G36*
X126403Y112100D02*
X126403Y112100D01*
X126412Y112096D01*
X127012Y112396D01*
X127014Y112400D01*
X127017Y112399D01*
X127287Y112579D01*
X127759Y112202D01*
X127778Y112201D01*
X127783Y112191D01*
X128483Y112091D01*
X128488Y112094D01*
X128490Y112091D01*
X129090Y112091D01*
X129099Y112098D01*
X129106Y112093D01*
X129706Y112293D01*
X129711Y112301D01*
X129717Y112299D01*
X130317Y112699D01*
X130319Y112703D01*
X130322Y112702D01*
X130922Y113202D01*
X130923Y113209D01*
X130928Y113209D01*
X131328Y113709D01*
X131329Y113723D01*
X131337Y113726D01*
X131359Y113801D01*
X131373Y113850D01*
X131415Y113998D01*
X131457Y114146D01*
X131471Y114195D01*
X131513Y114343D01*
X131514Y114343D01*
X131513Y114343D01*
X131537Y114425D01*
X131737Y115024D01*
X131735Y115030D01*
X131737Y115032D01*
X131734Y115036D01*
X131739Y115040D01*
X131739Y115740D01*
X131736Y115745D01*
X131739Y115748D01*
X131639Y116348D01*
X131635Y116351D01*
X131637Y116354D01*
X131437Y117054D01*
X131430Y117059D01*
X131432Y117065D01*
X131132Y117565D01*
X131127Y117567D01*
X131128Y117572D01*
X130628Y118172D01*
X130618Y118174D01*
X130617Y118181D01*
X130017Y118581D01*
X130013Y118581D01*
X130012Y118584D01*
X129412Y118884D01*
X129402Y118882D01*
X129398Y118889D01*
X128798Y118989D01*
X128793Y118986D01*
X128786Y118986D01*
X128783Y118989D01*
X128083Y118889D01*
X128078Y118884D01*
X128074Y118887D01*
X127474Y118687D01*
X127471Y118682D01*
X127468Y118684D01*
X127139Y118520D01*
X127139Y121740D01*
X127123Y121761D01*
X127125Y121775D01*
X126925Y121975D01*
X126909Y121977D01*
X126906Y121987D01*
X126306Y122187D01*
X126299Y122184D01*
X126297Y122187D01*
X126292Y122187D01*
X126290Y122189D01*
X125590Y122189D01*
X125587Y122187D01*
X125586Y122187D01*
X125576Y122180D01*
X125568Y122184D01*
X124968Y121884D01*
X124958Y121864D01*
X124947Y121856D01*
X124950Y121852D01*
X124941Y121847D01*
X124841Y121147D01*
X124844Y121142D01*
X124841Y121140D01*
X124841Y112940D01*
X124845Y112934D01*
X124842Y112930D01*
X124942Y112430D01*
X124963Y112411D01*
X124965Y112398D01*
X125465Y112098D01*
X125483Y112100D01*
X125490Y112091D01*
X126390Y112091D01*
X126403Y112100D01*
G37*
G36*
X135608Y112105D02*
X135608Y112105D01*
X135621Y112102D01*
X136121Y112502D01*
X136125Y112517D01*
X136126Y112517D01*
X136135Y112519D01*
X136731Y113811D01*
X137110Y114191D01*
X140460Y114191D01*
X141046Y113018D01*
X141346Y112418D01*
X141366Y112408D01*
X141368Y112396D01*
X141968Y112096D01*
X141989Y112100D01*
X141998Y112091D01*
X142598Y112191D01*
X142609Y112203D01*
X142619Y112200D01*
X143319Y112700D01*
X143324Y112717D01*
X143325Y112718D01*
X143324Y112718D01*
X143324Y112719D01*
X143336Y112722D01*
X143536Y113222D01*
X143529Y113245D01*
X143537Y113256D01*
X143337Y113856D01*
X143333Y113858D01*
X143334Y113862D01*
X140034Y120662D01*
X139734Y121262D01*
X139721Y121269D01*
X139721Y121278D01*
X139221Y121678D01*
X139202Y121679D01*
X139197Y121689D01*
X138497Y121789D01*
X138477Y121777D01*
X138465Y121782D01*
X137965Y121482D01*
X137961Y121474D01*
X137955Y121475D01*
X137655Y121175D01*
X137654Y121163D01*
X137646Y121161D01*
X134046Y113661D01*
X134047Y113652D01*
X134042Y113650D01*
X133942Y113150D01*
X133953Y113127D01*
X133948Y113115D01*
X134248Y112615D01*
X134261Y112609D01*
X134261Y112600D01*
X134961Y112100D01*
X134983Y112101D01*
X134990Y112091D01*
X135590Y112091D01*
X135608Y112105D01*
G37*
%LPC*%
G36*
X127708Y89329D02*
X127708Y89329D01*
X127139Y89519D01*
X126950Y90085D01*
X127048Y90864D01*
X127333Y91339D01*
X127908Y91531D01*
X130300Y91531D01*
X130314Y91542D01*
X130332Y91543D01*
X130331Y91555D01*
X130347Y91567D01*
X130329Y91591D01*
X130327Y91621D01*
X130027Y91821D01*
X130026Y91821D01*
X130025Y91822D01*
X129526Y92122D01*
X128930Y92519D01*
X128335Y93015D01*
X127942Y93507D01*
X127646Y94099D01*
X127448Y94691D01*
X127350Y95380D01*
X127448Y96069D01*
X127646Y96661D01*
X127943Y97255D01*
X128337Y97846D01*
X128829Y98240D01*
X129422Y98635D01*
X130008Y98831D01*
X131393Y98831D01*
X132085Y98633D01*
X132676Y98436D01*
X133163Y98046D01*
X133559Y97453D01*
X133955Y96858D01*
X134152Y96268D01*
X134251Y95676D01*
X134251Y94892D01*
X134066Y94521D01*
X133393Y94329D01*
X132520Y94329D01*
X132146Y94703D01*
X132049Y95387D01*
X132048Y95388D01*
X132049Y95388D01*
X131949Y95988D01*
X131933Y96003D01*
X131935Y96015D01*
X131435Y96515D01*
X131413Y96518D01*
X131407Y96529D01*
X130707Y96629D01*
X130693Y96621D01*
X130684Y96627D01*
X130084Y96427D01*
X130073Y96410D01*
X130062Y96411D01*
X129662Y95911D01*
X129661Y95888D01*
X129651Y95880D01*
X129651Y95280D01*
X129660Y95267D01*
X129656Y95258D01*
X129956Y94658D01*
X129963Y94655D01*
X129962Y94649D01*
X130362Y94149D01*
X130369Y94147D01*
X130368Y94142D01*
X130968Y93642D01*
X130974Y93642D01*
X130975Y93638D01*
X131475Y93338D01*
X131475Y93337D01*
X132674Y92638D01*
X133266Y92243D01*
X133660Y91751D01*
X134055Y91158D01*
X134249Y90576D01*
X134153Y89998D01*
X133771Y89426D01*
X133097Y89329D01*
X127708Y89329D01*
G37*
%LPD*%
%LPC*%
G36*
X117419Y26016D02*
X117419Y26016D01*
X110049Y29501D01*
X110049Y29570D01*
X110030Y29595D01*
X110031Y29608D01*
X109546Y29996D01*
X109450Y30665D01*
X109642Y31241D01*
X110126Y31628D01*
X116820Y34825D01*
X117519Y35125D01*
X117549Y35176D01*
X117538Y35183D01*
X117543Y35194D01*
X117526Y35224D01*
X118086Y35318D01*
X118562Y34937D01*
X118951Y34257D01*
X118951Y33687D01*
X118569Y33210D01*
X117279Y32615D01*
X117273Y32604D01*
X117265Y32605D01*
X116865Y32205D01*
X116862Y32178D01*
X116851Y32170D01*
X116851Y28770D01*
X116876Y28737D01*
X116878Y28726D01*
X118078Y28126D01*
X118665Y27832D01*
X118948Y27360D01*
X118853Y26787D01*
X118464Y26106D01*
X117994Y25824D01*
X117419Y26016D01*
G37*
%LPD*%
G36*
X77895Y110824D02*
X77895Y110824D01*
X77898Y110821D01*
X78498Y110921D01*
X78519Y110943D01*
X78532Y110945D01*
X78832Y111445D01*
X78832Y111448D01*
X78831Y111459D01*
X78839Y111463D01*
X78939Y112163D01*
X78936Y112168D01*
X78939Y112170D01*
X78939Y113521D01*
X82190Y113521D01*
X82194Y113524D01*
X82196Y113521D01*
X82996Y113621D01*
X83009Y113634D01*
X83020Y113631D01*
X83420Y113931D01*
X83425Y113950D01*
X83438Y113959D01*
X83436Y113962D01*
X83439Y113963D01*
X83539Y114663D01*
X83536Y114668D01*
X83539Y114670D01*
X83539Y115270D01*
X83534Y115277D01*
X83538Y115282D01*
X82538Y119282D01*
X82536Y119284D01*
X82537Y119286D01*
X82337Y119886D01*
X82326Y119893D01*
X82328Y119901D01*
X81928Y120401D01*
X81898Y120408D01*
X81890Y120419D01*
X81190Y120419D01*
X81182Y120413D01*
X81176Y120417D01*
X80476Y120217D01*
X80464Y120200D01*
X80452Y120201D01*
X80052Y119701D01*
X80051Y119672D01*
X80041Y119662D01*
X80141Y119062D01*
X80143Y119061D01*
X80142Y119060D01*
X80831Y115809D01*
X80385Y115719D01*
X79032Y115719D01*
X78939Y116274D01*
X78939Y119670D01*
X78932Y119679D01*
X78937Y119686D01*
X78737Y120286D01*
X78702Y120309D01*
X78697Y120319D01*
X77997Y120419D01*
X77992Y120416D01*
X77990Y120419D01*
X77290Y120419D01*
X77277Y120410D01*
X77268Y120414D01*
X76668Y120114D01*
X76653Y120083D01*
X76641Y120077D01*
X76541Y119377D01*
X76544Y119372D01*
X76541Y119370D01*
X76541Y111970D01*
X76544Y111966D01*
X76541Y111963D01*
X76641Y111263D01*
X76660Y111245D01*
X76659Y111232D01*
X77159Y110832D01*
X77182Y110831D01*
X77190Y110821D01*
X77890Y110821D01*
X77895Y110824D01*
G37*
%LPC*%
G36*
X89818Y26017D02*
X89818Y26017D01*
X89231Y26408D01*
X88735Y26905D01*
X88708Y26909D01*
X88700Y26919D01*
X88300Y26919D01*
X88275Y26900D01*
X88262Y26901D01*
X87871Y26412D01*
X87289Y26218D01*
X86603Y26120D01*
X85918Y26316D01*
X85327Y26612D01*
X84833Y27007D01*
X83849Y27990D01*
X83849Y29866D01*
X83948Y30456D01*
X84244Y31148D01*
X84539Y31640D01*
X85031Y32132D01*
X85622Y32525D01*
X86200Y32718D01*
X86767Y32529D01*
X87153Y31853D01*
X87248Y31280D01*
X86962Y30803D01*
X86469Y30408D01*
X86467Y30398D01*
X86459Y30397D01*
X86059Y29797D01*
X86060Y29777D01*
X86051Y29770D01*
X86051Y29070D01*
X86062Y29055D01*
X86058Y29045D01*
X86358Y28545D01*
X86386Y28534D01*
X86392Y28521D01*
X86992Y28421D01*
X87035Y28444D01*
X87042Y28445D01*
X87342Y28945D01*
X87341Y28959D01*
X87349Y28964D01*
X87449Y29762D01*
X87544Y30237D01*
X88109Y30519D01*
X88984Y30422D01*
X89456Y30139D01*
X89551Y29662D01*
X89651Y28864D01*
X89664Y28850D01*
X89662Y28839D01*
X90062Y28339D01*
X90081Y28334D01*
X90084Y28323D01*
X90684Y28123D01*
X90724Y28137D01*
X90735Y28135D01*
X91235Y28635D01*
X91237Y28651D01*
X91247Y28654D01*
X91447Y29254D01*
X91443Y29265D01*
X91449Y29270D01*
X91449Y29970D01*
X91437Y29986D01*
X91441Y29997D01*
X91041Y30597D01*
X91024Y30603D01*
X91022Y30614D01*
X90429Y30911D01*
X90047Y31293D01*
X89950Y32066D01*
X89955Y32084D01*
X89997Y32232D01*
X89998Y32232D01*
X89997Y32232D01*
X90040Y32380D01*
X90054Y32429D01*
X90096Y32577D01*
X90138Y32724D01*
X90144Y32744D01*
X90517Y33117D01*
X91089Y33022D01*
X91779Y32825D01*
X92369Y32432D01*
X92762Y32039D01*
X93155Y31448D01*
X93353Y30854D01*
X93551Y30262D01*
X93551Y28778D01*
X93353Y28186D01*
X93155Y27592D01*
X92762Y27001D01*
X92270Y26509D01*
X91780Y26216D01*
X91090Y26018D01*
X90401Y25920D01*
X89818Y26017D01*
G37*
%LPD*%
%LPC*%
G36*
X90108Y47019D02*
X90108Y47019D01*
X89524Y47214D01*
X89035Y47605D01*
X88538Y48202D01*
X88480Y48215D01*
X88477Y48200D01*
X88462Y48201D01*
X88065Y47705D01*
X87580Y47317D01*
X86897Y47219D01*
X86308Y47219D01*
X85722Y47415D01*
X85131Y47808D01*
X84137Y48802D01*
X83849Y49186D01*
X83849Y50467D01*
X83949Y51163D01*
X84048Y51855D01*
X84342Y52443D01*
X84735Y52935D01*
X85327Y53429D01*
X85912Y53721D01*
X86483Y53721D01*
X86960Y53339D01*
X87251Y52660D01*
X87251Y52096D01*
X86673Y51711D01*
X86670Y51704D01*
X86665Y51705D01*
X86165Y51205D01*
X86162Y51184D01*
X86151Y51178D01*
X86051Y50578D01*
X86057Y50568D01*
X86051Y50563D01*
X86151Y49863D01*
X86170Y49845D01*
X86169Y49832D01*
X86669Y49432D01*
X86708Y49431D01*
X86718Y49424D01*
X87218Y49624D01*
X87239Y49658D01*
X87249Y49664D01*
X87349Y50463D01*
X87446Y51147D01*
X87725Y51425D01*
X88598Y51619D01*
X89268Y51428D01*
X89551Y50956D01*
X89551Y50370D01*
X89557Y50362D01*
X89553Y50356D01*
X89753Y49656D01*
X89772Y49642D01*
X89773Y49629D01*
X90373Y49229D01*
X90404Y49231D01*
X90416Y49223D01*
X91016Y49423D01*
X91029Y49443D01*
X91042Y49445D01*
X91342Y49945D01*
X91341Y49956D01*
X91348Y49962D01*
X91349Y49963D01*
X91449Y50663D01*
X91442Y50676D01*
X91447Y50684D01*
X91247Y51384D01*
X91233Y51394D01*
X91235Y51405D01*
X90835Y51805D01*
X90828Y51806D01*
X90827Y51811D01*
X90237Y52205D01*
X89951Y52681D01*
X90048Y53459D01*
X90237Y54026D01*
X90800Y54120D01*
X91386Y54022D01*
X92074Y53727D01*
X92565Y53335D01*
X92958Y52843D01*
X93254Y52251D01*
X93452Y51659D01*
X93551Y50967D01*
X93551Y50273D01*
X93452Y49580D01*
X93442Y49545D01*
X93400Y49398D01*
X93357Y49250D01*
X93343Y49201D01*
X93301Y49053D01*
X93259Y48905D01*
X93254Y48890D01*
X92960Y48398D01*
X92563Y47903D01*
X92071Y47411D01*
X91485Y47118D01*
X90797Y47019D01*
X90108Y47019D01*
G37*
%LPD*%
%LPC*%
G36*
X140511Y44948D02*
X140511Y44948D01*
X139927Y45143D01*
X139437Y45633D01*
X139044Y46124D01*
X138847Y46714D01*
X138247Y48714D01*
X138236Y48722D01*
X138238Y48731D01*
X137838Y49231D01*
X137808Y49238D01*
X137800Y49249D01*
X137200Y49249D01*
X137179Y49233D01*
X137165Y49235D01*
X136765Y48835D01*
X136762Y48812D01*
X136751Y48806D01*
X136651Y48006D01*
X136663Y47986D01*
X136658Y47974D01*
X137351Y46886D01*
X137351Y46320D01*
X136869Y45838D01*
X136290Y45452D01*
X135827Y45545D01*
X135340Y46129D01*
X135044Y46622D01*
X134748Y47314D01*
X134649Y48003D01*
X134649Y48697D01*
X134748Y49389D01*
X134945Y49978D01*
X135337Y50566D01*
X135831Y50962D01*
X136323Y51355D01*
X137007Y51551D01*
X137696Y51551D01*
X138286Y51452D01*
X138974Y51157D01*
X139465Y50765D01*
X139856Y50276D01*
X140053Y49684D01*
X140056Y49683D01*
X140055Y49681D01*
X140352Y48987D01*
X140451Y48293D01*
X140456Y48288D01*
X140453Y48284D01*
X140653Y47684D01*
X140664Y47677D01*
X140662Y47669D01*
X141062Y47169D01*
X141092Y47162D01*
X141100Y47151D01*
X141700Y47151D01*
X141721Y47167D01*
X141735Y47165D01*
X142135Y47565D01*
X142136Y47576D01*
X142138Y47577D01*
X142137Y47579D01*
X142137Y47584D01*
X142148Y47588D01*
X142348Y48388D01*
X142338Y48410D01*
X142344Y48422D01*
X142044Y49022D01*
X142038Y49025D01*
X142039Y49030D01*
X141149Y50216D01*
X141149Y50685D01*
X141537Y51266D01*
X142017Y51651D01*
X142584Y51651D01*
X142968Y51363D01*
X143363Y50967D01*
X143859Y50373D01*
X144154Y49782D01*
X144351Y49093D01*
X144351Y47704D01*
X144253Y47115D01*
X143659Y45929D01*
X143171Y45441D01*
X142581Y45146D01*
X141989Y44948D01*
X141200Y44850D01*
X140511Y44948D01*
G37*
%LPD*%
%LPC*%
G36*
X217303Y57299D02*
X217303Y57299D01*
X216615Y57398D01*
X216027Y57692D01*
X215537Y58084D01*
X215145Y58672D01*
X214947Y59265D01*
X214748Y59960D01*
X214649Y60657D01*
X214641Y60665D01*
X214644Y60672D01*
X214344Y61272D01*
X214334Y61277D01*
X214335Y61285D01*
X213935Y61685D01*
X213903Y61689D01*
X213893Y61699D01*
X213193Y61599D01*
X213171Y61577D01*
X213158Y61575D01*
X212858Y61075D01*
X212860Y61059D01*
X212854Y61054D01*
X212857Y61050D01*
X212851Y61044D01*
X212951Y60244D01*
X212964Y60230D01*
X212962Y60219D01*
X213358Y59723D01*
X213647Y59146D01*
X213458Y58579D01*
X212871Y58090D01*
X212375Y57792D01*
X212363Y57763D01*
X212353Y57755D01*
X212351Y57754D01*
X212340Y57628D01*
X212349Y57848D01*
X212320Y57890D01*
X212318Y57896D01*
X211830Y58091D01*
X211442Y58577D01*
X211146Y59168D01*
X210948Y59860D01*
X210849Y60553D01*
X210849Y61243D01*
X210886Y61372D01*
X210900Y61422D01*
X210942Y61569D01*
X210943Y61569D01*
X210942Y61569D01*
X210985Y61717D01*
X210999Y61766D01*
X211041Y61914D01*
X211047Y61935D01*
X211247Y62534D01*
X211232Y62577D01*
X211233Y62587D01*
X211207Y62610D01*
X211226Y62608D01*
X211227Y62620D01*
X211238Y62619D01*
X211635Y63115D01*
X212127Y63508D01*
X212718Y63804D01*
X213407Y64001D01*
X214092Y64001D01*
X214681Y63804D01*
X215271Y63509D01*
X215761Y63020D01*
X216056Y62528D01*
X216354Y61832D01*
X216552Y61239D01*
X216651Y60543D01*
X216659Y60535D01*
X216656Y60528D01*
X216956Y59928D01*
X216969Y59921D01*
X216969Y59912D01*
X217469Y59512D01*
X217505Y59511D01*
X217516Y59503D01*
X218116Y59703D01*
X218129Y59723D01*
X218142Y59725D01*
X218442Y60225D01*
X218441Y60235D01*
X218448Y60240D01*
X218446Y60242D01*
X218449Y60243D01*
X218549Y60943D01*
X218538Y60963D01*
X218543Y60974D01*
X218143Y61674D01*
X218134Y61678D01*
X218135Y61685D01*
X217641Y62179D01*
X217349Y62762D01*
X217349Y63330D01*
X217829Y63809D01*
X218402Y64096D01*
X218876Y63907D01*
X219270Y63611D01*
X219763Y63216D01*
X220157Y62625D01*
X220452Y62035D01*
X220551Y61347D01*
X220551Y59958D01*
X220354Y59369D01*
X220057Y58775D01*
X219663Y58184D01*
X219173Y57792D01*
X218581Y57496D01*
X217992Y57299D01*
X217303Y57299D01*
G37*
%LPD*%
%LPC*%
G36*
X115603Y47619D02*
X115603Y47619D01*
X114917Y47717D01*
X114426Y48012D01*
X113838Y48404D01*
X113546Y48989D01*
X113347Y49585D01*
X113148Y50281D01*
X113049Y50878D01*
X113042Y50884D01*
X113045Y50889D01*
X112745Y51589D01*
X112734Y51596D01*
X112735Y51605D01*
X112335Y52005D01*
X112303Y52009D01*
X112293Y52019D01*
X111593Y51919D01*
X111569Y51894D01*
X111556Y51892D01*
X111256Y51292D01*
X111260Y51272D01*
X111251Y51263D01*
X111351Y50563D01*
X111364Y50550D01*
X111362Y50539D01*
X111757Y50044D01*
X112047Y49369D01*
X111859Y48900D01*
X111273Y48412D01*
X110702Y48126D01*
X110233Y48408D01*
X109842Y48897D01*
X109546Y49488D01*
X109348Y50180D01*
X109249Y50873D01*
X109249Y51563D01*
X109255Y51584D01*
X109297Y51732D01*
X109298Y51732D01*
X109297Y51732D01*
X109340Y51880D01*
X109354Y51929D01*
X109396Y52077D01*
X109438Y52224D01*
X109447Y52255D01*
X109644Y52846D01*
X110037Y53337D01*
X110529Y53829D01*
X111115Y54123D01*
X111704Y54221D01*
X112397Y54221D01*
X113085Y54122D01*
X113671Y53829D01*
X114161Y53340D01*
X114456Y52848D01*
X114754Y52153D01*
X114952Y51459D01*
X115051Y50862D01*
X115056Y50858D01*
X115053Y50854D01*
X115253Y50254D01*
X115270Y50243D01*
X115269Y50232D01*
X115769Y49832D01*
X115790Y49831D01*
X115795Y49825D01*
X115804Y49825D01*
X115807Y49821D01*
X116507Y49921D01*
X116529Y49943D01*
X116542Y49945D01*
X116842Y50445D01*
X116842Y50449D01*
X116844Y50451D01*
X116841Y50456D01*
X116841Y50459D01*
X116849Y50463D01*
X116949Y51163D01*
X116938Y51183D01*
X116943Y51194D01*
X116543Y51894D01*
X116537Y51897D01*
X116538Y51901D01*
X116140Y52399D01*
X115749Y52985D01*
X115749Y53552D01*
X116233Y54132D01*
X116706Y54416D01*
X117277Y54226D01*
X117668Y53933D01*
X118162Y53439D01*
X118557Y52845D01*
X118852Y52255D01*
X118951Y51567D01*
X118951Y50277D01*
X118924Y50183D01*
X118910Y50133D01*
X118868Y49986D01*
X118825Y49838D01*
X118811Y49789D01*
X118769Y49641D01*
X118754Y49588D01*
X118458Y48997D01*
X118063Y48503D01*
X117571Y48011D01*
X116985Y47717D01*
X116396Y47619D01*
X115603Y47619D01*
G37*
%LPD*%
%LPC*%
G36*
X159760Y210594D02*
X159760Y210594D01*
X159067Y210768D01*
X158563Y211188D01*
X158219Y211617D01*
X157943Y212262D01*
X157662Y213012D01*
X157570Y213744D01*
X157570Y215396D01*
X157662Y216128D01*
X157943Y216878D01*
X158218Y217519D01*
X158647Y218034D01*
X159172Y218384D01*
X159788Y218648D01*
X160587Y218737D01*
X161298Y218648D01*
X162000Y218385D01*
X162422Y218047D01*
X162862Y217519D01*
X163137Y216878D01*
X163418Y216128D01*
X163510Y215396D01*
X163510Y213767D01*
X163128Y212242D01*
X162869Y211637D01*
X162433Y211201D01*
X161908Y210764D01*
X161316Y210594D01*
X160493Y210503D01*
X159760Y210594D01*
G37*
%LPD*%
%LPC*%
G36*
X212317Y26199D02*
X212317Y26199D01*
X211837Y26584D01*
X211445Y27172D01*
X211247Y27765D01*
X211048Y28460D01*
X210949Y29153D01*
X210949Y29747D01*
X211048Y30439D01*
X211246Y31032D01*
X211545Y31729D01*
X211841Y32321D01*
X212731Y33212D01*
X213325Y33607D01*
X213919Y33904D01*
X214511Y34102D01*
X215203Y34201D01*
X216593Y34201D01*
X217285Y34003D01*
X217878Y33805D01*
X218471Y33410D01*
X218967Y33013D01*
X219463Y32517D01*
X219858Y32023D01*
X220154Y31432D01*
X220353Y30736D01*
X220354Y30735D01*
X220353Y30734D01*
X220551Y30142D01*
X220551Y28853D01*
X220452Y28162D01*
X220155Y27371D01*
X219860Y26878D01*
X219471Y26392D01*
X218902Y26203D01*
X218230Y26491D01*
X217745Y27073D01*
X217653Y27443D01*
X218043Y28126D01*
X218042Y28128D01*
X218044Y28128D01*
X218244Y28528D01*
X218242Y28539D01*
X218249Y28542D01*
X218349Y29142D01*
X218346Y29147D01*
X218349Y29150D01*
X218349Y29850D01*
X218342Y29859D01*
X218347Y29866D01*
X218147Y30466D01*
X218139Y30471D01*
X218141Y30477D01*
X217741Y31077D01*
X217738Y31078D01*
X217738Y31081D01*
X217338Y31581D01*
X217324Y31584D01*
X217322Y31594D01*
X216722Y31894D01*
X216711Y31892D01*
X216707Y31899D01*
X216007Y31999D01*
X216002Y31996D01*
X216000Y31999D01*
X215300Y31999D01*
X215291Y31992D01*
X215284Y31997D01*
X214684Y31797D01*
X214681Y31792D01*
X214678Y31794D01*
X214078Y31494D01*
X214070Y31478D01*
X214059Y31477D01*
X213259Y30277D01*
X213259Y30273D01*
X213260Y30263D01*
X213251Y30258D01*
X213151Y29658D01*
X213154Y29653D01*
X213151Y29650D01*
X213151Y28950D01*
X213157Y28942D01*
X213153Y28936D01*
X213353Y28236D01*
X213362Y28230D01*
X213359Y28223D01*
X213754Y27631D01*
X213848Y27159D01*
X213563Y26684D01*
X212884Y26199D01*
X212317Y26199D01*
G37*
%LPD*%
%LPC*%
G36*
X135735Y35035D02*
X135735Y35035D01*
X135342Y35527D01*
X135046Y36118D01*
X134848Y36810D01*
X134749Y37503D01*
X134749Y38097D01*
X134849Y38792D01*
X134948Y39386D01*
X135245Y40079D01*
X135542Y40673D01*
X135937Y41167D01*
X136433Y41663D01*
X136926Y42057D01*
X137618Y42354D01*
X138216Y42553D01*
X138808Y42751D01*
X140200Y42751D01*
X140247Y42787D01*
X140244Y42791D01*
X140249Y42793D01*
X140252Y42816D01*
X140251Y42805D01*
X140282Y42754D01*
X140284Y42755D01*
X140284Y42753D01*
X141481Y42354D01*
X142075Y42057D01*
X142669Y41662D01*
X143163Y41167D01*
X143558Y40673D01*
X143856Y40078D01*
X144152Y39485D01*
X144251Y38793D01*
X144351Y38097D01*
X144351Y37503D01*
X144252Y36810D01*
X144054Y36019D01*
X143760Y35528D01*
X143367Y35038D01*
X142875Y34742D01*
X142860Y34705D01*
X142854Y34700D01*
X142855Y34699D01*
X142851Y34696D01*
X142852Y34680D01*
X142849Y34706D01*
X142819Y34737D01*
X142816Y34747D01*
X142224Y34944D01*
X141641Y35430D01*
X141454Y35898D01*
X141944Y36878D01*
X141943Y36883D01*
X141947Y36884D01*
X142147Y37484D01*
X142143Y37495D01*
X142149Y37500D01*
X142149Y38200D01*
X142146Y38205D01*
X142149Y38208D01*
X142049Y38808D01*
X142039Y38817D01*
X142043Y38824D01*
X141643Y39524D01*
X141637Y39527D01*
X141638Y39531D01*
X141238Y40031D01*
X141224Y40034D01*
X141222Y40044D01*
X140622Y40344D01*
X140617Y40343D01*
X140616Y40347D01*
X140016Y40547D01*
X140007Y40544D01*
X140005Y40548D01*
X140001Y40548D01*
X140000Y40549D01*
X139300Y40549D01*
X139298Y40548D01*
X139294Y40548D01*
X139293Y40549D01*
X138593Y40449D01*
X138582Y40438D01*
X138573Y40441D01*
X137973Y40041D01*
X137972Y40038D01*
X137969Y40038D01*
X137469Y39638D01*
X137465Y39622D01*
X137455Y39619D01*
X137155Y38919D01*
X137156Y38916D01*
X137153Y38916D01*
X136953Y38316D01*
X136957Y38305D01*
X136951Y38300D01*
X136951Y37600D01*
X136957Y37592D01*
X136953Y37586D01*
X137153Y36886D01*
X137160Y36881D01*
X137158Y36875D01*
X137455Y36379D01*
X137648Y35802D01*
X137459Y35330D01*
X136876Y34844D01*
X136211Y34654D01*
X135735Y35035D01*
G37*
%LPD*%
%LPC*%
G36*
X119403Y89329D02*
X119403Y89329D01*
X118714Y89428D01*
X118022Y89724D01*
X117528Y90020D01*
X117042Y90409D01*
X116853Y90978D01*
X117142Y91652D01*
X117624Y92135D01*
X118090Y92228D01*
X118673Y91839D01*
X118680Y91840D01*
X118682Y91834D01*
X119182Y91634D01*
X119189Y91636D01*
X119192Y91631D01*
X119792Y91531D01*
X119797Y91534D01*
X119800Y91531D01*
X120500Y91531D01*
X120509Y91538D01*
X120516Y91533D01*
X121116Y91733D01*
X121121Y91741D01*
X121127Y91739D01*
X121727Y92139D01*
X121730Y92146D01*
X121735Y92145D01*
X122235Y92645D01*
X122236Y92657D01*
X122244Y92658D01*
X122544Y93258D01*
X122542Y93269D01*
X122549Y93272D01*
X122649Y93872D01*
X122646Y93877D01*
X122649Y93880D01*
X122649Y94680D01*
X122642Y94689D01*
X122647Y94696D01*
X122447Y95296D01*
X122439Y95301D01*
X122441Y95307D01*
X122041Y95907D01*
X122031Y95911D01*
X122031Y95918D01*
X121531Y96318D01*
X121521Y96319D01*
X121519Y96325D01*
X120819Y96625D01*
X120811Y96623D01*
X120808Y96629D01*
X120208Y96729D01*
X120203Y96726D01*
X120200Y96729D01*
X119500Y96729D01*
X119491Y96722D01*
X119484Y96727D01*
X118884Y96527D01*
X118880Y96521D01*
X118876Y96523D01*
X118182Y96126D01*
X117809Y96033D01*
X117236Y96416D01*
X116849Y96995D01*
X116849Y97563D01*
X117234Y98043D01*
X117822Y98435D01*
X118415Y98633D01*
X119110Y98832D01*
X119803Y98931D01*
X120397Y98931D01*
X121089Y98832D01*
X121682Y98634D01*
X122379Y98335D01*
X122971Y98039D01*
X123862Y97149D01*
X124257Y96555D01*
X124554Y95962D01*
X124752Y95269D01*
X124851Y94676D01*
X124851Y93983D01*
X124751Y93287D01*
X124652Y92595D01*
X124356Y92002D01*
X124058Y91407D01*
X123663Y90913D01*
X123169Y90418D01*
X122575Y90023D01*
X121981Y89726D01*
X121385Y89527D01*
X120693Y89329D01*
X119403Y89329D01*
G37*
%LPD*%
G36*
X160894Y112094D02*
X160894Y112094D01*
X160897Y112091D01*
X161597Y112191D01*
X161602Y112196D01*
X161606Y112193D01*
X162206Y112393D01*
X162211Y112401D01*
X162217Y112399D01*
X162817Y112799D01*
X162821Y112809D01*
X162828Y112809D01*
X163228Y113309D01*
X163229Y113313D01*
X163231Y113313D01*
X163631Y113913D01*
X163630Y113922D01*
X163637Y113924D01*
X163837Y114524D01*
X163836Y114526D01*
X163837Y114526D01*
X163841Y114540D01*
X163855Y114589D01*
X163897Y114737D01*
X163898Y114737D01*
X163897Y114737D01*
X163940Y114885D01*
X163954Y114934D01*
X163996Y115082D01*
X164037Y115226D01*
X164036Y115229D01*
X164037Y115229D01*
X164035Y115233D01*
X164034Y115236D01*
X164039Y115240D01*
X164039Y115940D01*
X164036Y115944D01*
X164039Y115947D01*
X163939Y116647D01*
X163931Y116655D01*
X163934Y116662D01*
X163334Y117862D01*
X163324Y117867D01*
X163325Y117875D01*
X162925Y118275D01*
X162918Y118276D01*
X162917Y118281D01*
X162317Y118681D01*
X162313Y118681D01*
X162312Y118684D01*
X161712Y118984D01*
X161707Y118983D01*
X161706Y118987D01*
X161106Y119187D01*
X161099Y119185D01*
X161097Y119189D01*
X160397Y119289D01*
X160389Y119284D01*
X160384Y119289D01*
X159584Y119189D01*
X159583Y119188D01*
X159582Y119189D01*
X158982Y119089D01*
X158975Y119081D01*
X158968Y119084D01*
X158368Y118784D01*
X158363Y118774D01*
X158355Y118775D01*
X157855Y118275D01*
X157855Y118271D01*
X157852Y118271D01*
X157452Y117771D01*
X157451Y117758D01*
X157443Y117756D01*
X157243Y117156D01*
X157245Y117149D01*
X157241Y117147D01*
X157141Y116447D01*
X157144Y116442D01*
X157141Y116440D01*
X157141Y115640D01*
X157160Y115615D01*
X157159Y115602D01*
X157659Y115202D01*
X157667Y115201D01*
X157668Y115196D01*
X158268Y114896D01*
X158279Y114898D01*
X158285Y114898D01*
X158290Y114891D01*
X160981Y114891D01*
X161410Y114719D01*
X161061Y114283D01*
X160383Y114089D01*
X159698Y114089D01*
X159106Y114287D01*
X159104Y114286D01*
X159104Y114287D01*
X158404Y114487D01*
X158377Y114477D01*
X158365Y114482D01*
X157865Y114182D01*
X157857Y114162D01*
X157845Y114159D01*
X157545Y113459D01*
X157548Y113446D01*
X157541Y113440D01*
X157541Y112940D01*
X157557Y112919D01*
X157555Y112905D01*
X157855Y112605D01*
X157864Y112604D01*
X157865Y112598D01*
X158365Y112298D01*
X158374Y112299D01*
X158376Y112293D01*
X159076Y112093D01*
X159086Y112096D01*
X159090Y112091D01*
X160890Y112091D01*
X160894Y112094D01*
G37*
%LPC*%
G36*
X84820Y35419D02*
X84820Y35419D01*
X84342Y35898D01*
X84149Y36379D01*
X84149Y36953D01*
X84529Y37428D01*
X85116Y37623D01*
X85118Y37627D01*
X85121Y37625D01*
X90121Y39925D01*
X90127Y39936D01*
X90135Y39935D01*
X90435Y40235D01*
X90435Y40237D01*
X90436Y40237D01*
X90436Y40241D01*
X90438Y40257D01*
X90441Y40260D01*
X90439Y40263D01*
X90443Y40294D01*
X90425Y40297D01*
X90422Y40314D01*
X89822Y40614D01*
X89820Y40614D01*
X89820Y40615D01*
X85221Y42614D01*
X84626Y42912D01*
X84242Y43200D01*
X84053Y43768D01*
X84342Y44442D01*
X84820Y44921D01*
X85300Y44921D01*
X85335Y44947D01*
X85345Y44950D01*
X85357Y44977D01*
X85370Y44931D01*
X85377Y44933D01*
X85378Y44926D01*
X85978Y44626D01*
X92678Y41326D01*
X93263Y41033D01*
X93551Y40458D01*
X93551Y39784D01*
X93263Y39305D01*
X92675Y38913D01*
X85982Y35616D01*
X85293Y35419D01*
X84820Y35419D01*
G37*
%LPD*%
G36*
X91401Y110832D02*
X91401Y110832D01*
X91412Y110826D01*
X92012Y111126D01*
X92018Y111139D01*
X92028Y111138D01*
X92528Y111738D01*
X92529Y111762D01*
X92539Y111770D01*
X92539Y112270D01*
X92525Y112289D01*
X92528Y112302D01*
X92028Y112902D01*
X92026Y112902D01*
X92027Y112903D01*
X91128Y113901D01*
X90756Y114366D01*
X92225Y115835D01*
X92226Y115847D01*
X92234Y115848D01*
X92534Y116448D01*
X92530Y116468D01*
X92535Y116471D01*
X92533Y116473D01*
X92538Y116480D01*
X92438Y116980D01*
X92425Y116991D01*
X92428Y117002D01*
X91928Y117602D01*
X91914Y117605D01*
X91912Y117614D01*
X91312Y117914D01*
X91303Y117912D01*
X91303Y117913D01*
X91277Y117913D01*
X91272Y117916D01*
X90772Y117716D01*
X90764Y117704D01*
X90755Y117705D01*
X89270Y116219D01*
X88810Y116219D01*
X87325Y117705D01*
X87311Y117707D01*
X87308Y117716D01*
X86808Y117916D01*
X86797Y117913D01*
X86777Y117913D01*
X86774Y117911D01*
X86768Y117914D01*
X86168Y117614D01*
X86162Y117601D01*
X86152Y117602D01*
X85652Y117002D01*
X85652Y116993D01*
X85648Y116990D01*
X85651Y116986D01*
X85651Y116983D01*
X85641Y116978D01*
X85541Y116378D01*
X85553Y116355D01*
X85549Y116343D01*
X85949Y115743D01*
X85957Y115740D01*
X85956Y115734D01*
X87420Y114368D01*
X86054Y112904D01*
X86054Y112901D01*
X86052Y112902D01*
X85552Y112302D01*
X85551Y112271D01*
X85542Y112260D01*
X85642Y111760D01*
X85655Y111749D01*
X85652Y111738D01*
X86152Y111138D01*
X86166Y111135D01*
X86168Y111126D01*
X86768Y110826D01*
X86797Y110831D01*
X86808Y110824D01*
X87308Y111024D01*
X87314Y111034D01*
X87322Y111032D01*
X87922Y111532D01*
X87922Y111536D01*
X87925Y111535D01*
X88810Y112421D01*
X89270Y112421D01*
X90255Y111435D01*
X90259Y111435D01*
X90258Y111432D01*
X90858Y110932D01*
X90876Y110931D01*
X90880Y110922D01*
X91380Y110822D01*
X91401Y110832D01*
G37*
%LPC*%
G36*
X211731Y47091D02*
X211731Y47091D01*
X211049Y47967D01*
X211049Y48526D01*
X211529Y48910D01*
X214427Y50809D01*
X214430Y50816D01*
X214435Y50815D01*
X214735Y51115D01*
X214736Y51126D01*
X214739Y51128D01*
X214737Y51131D01*
X214743Y51174D01*
X214727Y51176D01*
X214726Y51192D01*
X211829Y52990D01*
X211241Y53480D01*
X211052Y53952D01*
X211244Y54526D01*
X211730Y55109D01*
X212199Y55297D01*
X212877Y55006D01*
X216773Y52409D01*
X216782Y52410D01*
X216784Y52403D01*
X217384Y52203D01*
X217395Y52207D01*
X217400Y52201D01*
X220080Y52201D01*
X220551Y51730D01*
X220551Y50470D01*
X220080Y49999D01*
X217400Y49999D01*
X217392Y49993D01*
X217386Y49997D01*
X216686Y49797D01*
X216679Y49788D01*
X216672Y49791D01*
X212778Y47094D01*
X212202Y46902D01*
X211731Y47091D01*
G37*
%LPD*%
%LPC*%
G36*
X159604Y23979D02*
X159604Y23979D01*
X159049Y24072D01*
X159049Y49508D01*
X160351Y49211D01*
X160351Y24534D01*
X160258Y23979D01*
X159604Y23979D01*
G37*
%LPD*%
G36*
X153094Y112094D02*
X153094Y112094D01*
X153097Y112091D01*
X153797Y112191D01*
X153819Y112213D01*
X153832Y112215D01*
X154132Y112715D01*
X154132Y112718D01*
X154130Y112733D01*
X154139Y112740D01*
X154139Y116136D01*
X154232Y116691D01*
X154890Y116691D01*
X154920Y116713D01*
X154932Y116715D01*
X155232Y117215D01*
X155231Y117229D01*
X155239Y117234D01*
X155339Y118034D01*
X155331Y118047D01*
X155337Y118056D01*
X155137Y118656D01*
X155110Y118674D01*
X155106Y118687D01*
X154513Y118884D01*
X154139Y119165D01*
X154139Y119740D01*
X154133Y119748D01*
X154137Y119754D01*
X153937Y120454D01*
X153932Y120458D01*
X153934Y120462D01*
X153634Y121062D01*
X153627Y121065D01*
X153628Y121071D01*
X153228Y121571D01*
X153221Y121573D01*
X153221Y121578D01*
X152721Y121978D01*
X152707Y121979D01*
X152704Y121987D01*
X152004Y122187D01*
X151999Y122186D01*
X151998Y122187D01*
X151997Y122189D01*
X151297Y122289D01*
X151291Y122286D01*
X151279Y122286D01*
X151278Y122285D01*
X151274Y122287D01*
X150674Y122087D01*
X150665Y122073D01*
X150655Y122075D01*
X150255Y121675D01*
X150254Y121663D01*
X150248Y121659D01*
X150252Y121653D01*
X150252Y121652D01*
X150241Y121646D01*
X150141Y120846D01*
X150149Y120833D01*
X150143Y120824D01*
X150343Y120224D01*
X150363Y120211D01*
X150365Y120198D01*
X150865Y119898D01*
X150879Y119899D01*
X150883Y119891D01*
X151560Y119795D01*
X151833Y119340D01*
X151565Y118894D01*
X150998Y118989D01*
X150993Y118986D01*
X150981Y118986D01*
X150978Y118988D01*
X150178Y118788D01*
X150163Y118770D01*
X150151Y118770D01*
X149851Y118370D01*
X149851Y118362D01*
X149847Y118359D01*
X149851Y118354D01*
X149851Y118352D01*
X149841Y118347D01*
X149741Y117647D01*
X149749Y117633D01*
X149743Y117624D01*
X149943Y117024D01*
X149960Y117013D01*
X149959Y117002D01*
X150459Y116602D01*
X150482Y116601D01*
X150490Y116591D01*
X151841Y116591D01*
X151841Y112540D01*
X151860Y112515D01*
X151859Y112502D01*
X152359Y112102D01*
X152382Y112101D01*
X152390Y112091D01*
X153090Y112091D01*
X153094Y112094D01*
G37*
%LPC*%
G36*
X161840Y25969D02*
X161840Y25969D01*
X161649Y26637D01*
X161649Y33427D01*
X161747Y34307D01*
X162123Y34684D01*
X162795Y34780D01*
X163356Y34593D01*
X163451Y33927D01*
X163451Y31930D01*
X163458Y31921D01*
X163453Y31914D01*
X163653Y31314D01*
X163697Y31284D01*
X163700Y31281D01*
X170491Y31281D01*
X170961Y31093D01*
X171151Y30522D01*
X171151Y29747D01*
X170774Y29276D01*
X170097Y29179D01*
X164000Y29179D01*
X163989Y29171D01*
X163982Y29176D01*
X163482Y28976D01*
X163457Y28935D01*
X163451Y28930D01*
X163451Y26250D01*
X163077Y25876D01*
X162405Y25780D01*
X161840Y25969D01*
G37*
%LPD*%
%LPC*%
G36*
X143117Y25649D02*
X143117Y25649D01*
X142646Y26026D01*
X142549Y26703D01*
X142549Y30100D01*
X142513Y30147D01*
X142506Y30142D01*
X142500Y30149D01*
X135904Y30149D01*
X135331Y30245D01*
X135048Y30716D01*
X134950Y31495D01*
X135141Y32067D01*
X135614Y32351D01*
X143097Y32351D01*
X143787Y32252D01*
X144255Y32065D01*
X144351Y31397D01*
X144351Y26603D01*
X144255Y25930D01*
X143786Y25649D01*
X143117Y25649D01*
G37*
%LPD*%
%LPC*%
G36*
X63684Y161719D02*
X63684Y161719D01*
X63119Y161813D01*
X62929Y162477D01*
X62929Y163142D01*
X63397Y163423D01*
X64083Y163521D01*
X67280Y163521D01*
X67327Y163557D01*
X67322Y163564D01*
X67329Y163570D01*
X67329Y169667D01*
X67429Y170362D01*
X67524Y170837D01*
X68092Y171121D01*
X68966Y171121D01*
X69435Y170840D01*
X69531Y170266D01*
X69531Y162095D01*
X69161Y161817D01*
X68377Y161719D01*
X63684Y161719D01*
G37*
%LPD*%
G36*
X71192Y110826D02*
X71192Y110826D01*
X71197Y110821D01*
X71897Y110921D01*
X71915Y110940D01*
X71928Y110939D01*
X72328Y111439D01*
X72329Y111447D01*
X72330Y111448D01*
X72329Y111450D01*
X72329Y111462D01*
X72339Y111470D01*
X72339Y116155D01*
X72504Y116402D01*
X73063Y116029D01*
X73083Y116030D01*
X73090Y116021D01*
X73590Y116021D01*
X73609Y116035D01*
X73622Y116032D01*
X74222Y116532D01*
X74225Y116546D01*
X74234Y116548D01*
X74534Y117148D01*
X74532Y117157D01*
X74537Y117161D01*
X74530Y117169D01*
X74530Y117170D01*
X74538Y117180D01*
X74438Y117680D01*
X74425Y117691D01*
X74428Y117702D01*
X73928Y118302D01*
X73923Y118303D01*
X73924Y118306D01*
X72424Y119706D01*
X72421Y119706D01*
X72421Y119708D01*
X71921Y120108D01*
X71913Y120109D01*
X71912Y120114D01*
X71312Y120414D01*
X71296Y120411D01*
X71290Y120419D01*
X70590Y120419D01*
X70575Y120408D01*
X70565Y120412D01*
X70065Y120112D01*
X70054Y120084D01*
X70041Y120078D01*
X69941Y119478D01*
X69944Y119473D01*
X69941Y119470D01*
X69941Y111370D01*
X69957Y111349D01*
X69955Y111335D01*
X70355Y110935D01*
X70378Y110932D01*
X70384Y110921D01*
X71184Y110821D01*
X71192Y110826D01*
G37*
G36*
X112893Y112096D02*
X112893Y112096D01*
X112898Y112091D01*
X113498Y112191D01*
X113519Y112213D01*
X113532Y112215D01*
X113832Y112715D01*
X113832Y112718D01*
X113830Y112733D01*
X113839Y112739D01*
X113939Y118139D01*
X113929Y118153D01*
X113934Y118162D01*
X113634Y118762D01*
X113612Y118773D01*
X113608Y118786D01*
X113108Y118986D01*
X113100Y118984D01*
X113099Y118986D01*
X113093Y118986D01*
X113090Y118989D01*
X112190Y118989D01*
X112185Y118986D01*
X112184Y118986D01*
X112174Y118978D01*
X112165Y118982D01*
X111665Y118682D01*
X111659Y118668D01*
X111649Y118667D01*
X111479Y118412D01*
X111021Y118778D01*
X111011Y118779D01*
X111009Y118785D01*
X110309Y119085D01*
X110302Y119084D01*
X110288Y119084D01*
X110283Y119089D01*
X109583Y118989D01*
X109582Y118988D01*
X109582Y118989D01*
X108982Y118889D01*
X108960Y118865D01*
X108959Y118864D01*
X108946Y118862D01*
X108646Y118262D01*
X108646Y118260D01*
X108649Y118246D01*
X108641Y118240D01*
X108641Y117640D01*
X108649Y117629D01*
X108645Y117621D01*
X108945Y116921D01*
X108960Y116912D01*
X108959Y116902D01*
X109459Y116502D01*
X109495Y116501D01*
X109506Y116493D01*
X110101Y116692D01*
X110782Y116789D01*
X111350Y116505D01*
X111541Y115932D01*
X111541Y113240D01*
X111544Y113236D01*
X111541Y113233D01*
X111641Y112533D01*
X111660Y112514D01*
X111660Y112501D01*
X112060Y112201D01*
X112078Y112201D01*
X112084Y112191D01*
X112884Y112091D01*
X112893Y112096D01*
G37*
G36*
X190502Y37486D02*
X190502Y37486D01*
X190507Y37481D01*
X191207Y37581D01*
X191215Y37589D01*
X191222Y37586D01*
X191822Y37886D01*
X191825Y37893D01*
X191831Y37892D01*
X192331Y38292D01*
X192333Y38302D01*
X192341Y38303D01*
X192741Y38903D01*
X192740Y38912D01*
X192747Y38914D01*
X192947Y39514D01*
X192943Y39525D01*
X192949Y39530D01*
X192949Y40130D01*
X192946Y40134D01*
X192949Y40137D01*
X192849Y40837D01*
X192838Y40848D01*
X192841Y40857D01*
X192441Y41457D01*
X192438Y41458D01*
X192438Y41461D01*
X192038Y41961D01*
X192027Y41964D01*
X192026Y41972D01*
X191226Y42472D01*
X191207Y42470D01*
X191200Y42479D01*
X190600Y42479D01*
X190596Y42476D01*
X190593Y42479D01*
X189893Y42379D01*
X189889Y42375D01*
X189886Y42377D01*
X189186Y42177D01*
X189181Y42170D01*
X189175Y42172D01*
X188675Y41872D01*
X188670Y41861D01*
X188662Y41862D01*
X188162Y41262D01*
X188162Y41256D01*
X188158Y41255D01*
X187858Y40755D01*
X187859Y40749D01*
X187853Y40745D01*
X187857Y40740D01*
X187851Y40737D01*
X187751Y40037D01*
X187757Y40027D01*
X187751Y40022D01*
X187851Y39422D01*
X187856Y39418D01*
X187853Y39414D01*
X188053Y38814D01*
X188064Y38807D01*
X188062Y38798D01*
X188562Y38198D01*
X188569Y38197D01*
X188569Y38192D01*
X189069Y37792D01*
X189082Y37791D01*
X189084Y37783D01*
X189684Y37583D01*
X189691Y37586D01*
X189694Y37581D01*
X190494Y37481D01*
X190502Y37486D01*
G37*
%LPC*%
G36*
X186704Y46579D02*
X186704Y46579D01*
X186131Y46675D01*
X185848Y47146D01*
X185750Y47926D01*
X185786Y48053D01*
X185787Y48053D01*
X185786Y48053D01*
X185829Y48201D01*
X185843Y48250D01*
X185885Y48398D01*
X185927Y48546D01*
X185941Y48593D01*
X186409Y48781D01*
X194584Y48781D01*
X194958Y48500D01*
X195151Y47922D01*
X195151Y47050D01*
X194776Y46676D01*
X194196Y46579D01*
X186704Y46579D01*
G37*
%LPD*%
%LPC*%
G36*
X136716Y89329D02*
X136716Y89329D01*
X136342Y89610D01*
X136147Y90196D01*
X136116Y90217D01*
X136111Y90228D01*
X136093Y90232D01*
X136096Y90234D01*
X136100Y90234D01*
X136109Y90241D01*
X136145Y90259D01*
X136142Y90265D01*
X136147Y90269D01*
X136143Y90275D01*
X136149Y90280D01*
X136149Y97677D01*
X136245Y98350D01*
X136716Y98632D01*
X137496Y98730D01*
X138163Y98539D01*
X138351Y98071D01*
X138351Y89989D01*
X138163Y89520D01*
X137592Y89329D01*
X136716Y89329D01*
G37*
%LPD*%
%LPC*%
G36*
X162704Y46979D02*
X162704Y46979D01*
X162124Y47076D01*
X161749Y47450D01*
X161749Y48326D01*
X161844Y48892D01*
X161889Y48882D01*
X161913Y48893D01*
X161925Y48888D01*
X162414Y49181D01*
X169797Y49181D01*
X170487Y49082D01*
X170961Y48893D01*
X171150Y48325D01*
X171053Y47449D01*
X170772Y47075D01*
X170196Y46979D01*
X162704Y46979D01*
G37*
%LPD*%
G36*
X49027Y163957D02*
X49027Y163957D01*
X49025Y163960D01*
X49029Y163962D01*
X49129Y164562D01*
X49126Y164567D01*
X49129Y164570D01*
X49129Y168570D01*
X49110Y168596D01*
X49110Y168609D01*
X48710Y168909D01*
X48688Y168909D01*
X48680Y168919D01*
X47280Y168919D01*
X47267Y168910D01*
X47258Y168914D01*
X46658Y168614D01*
X46656Y168610D01*
X46653Y168611D01*
X46053Y168211D01*
X46049Y168201D01*
X46042Y168201D01*
X45642Y167701D01*
X45641Y167688D01*
X45633Y167686D01*
X45433Y167086D01*
X45435Y167079D01*
X45431Y167077D01*
X45331Y166377D01*
X45336Y166368D01*
X45331Y166363D01*
X45431Y165663D01*
X45439Y165655D01*
X45436Y165648D01*
X45736Y165048D01*
X45743Y165045D01*
X45742Y165039D01*
X46142Y164539D01*
X46146Y164538D01*
X46145Y164535D01*
X46645Y164035D01*
X46657Y164034D01*
X46658Y164026D01*
X46858Y163926D01*
X46874Y163929D01*
X46880Y163921D01*
X48980Y163921D01*
X49027Y163957D01*
G37*
G36*
X64207Y27621D02*
X64207Y27621D01*
X64215Y27629D01*
X64222Y27626D01*
X64822Y27926D01*
X64827Y27936D01*
X64835Y27935D01*
X65835Y28935D01*
X65836Y28947D01*
X65844Y28948D01*
X65944Y29148D01*
X65941Y29164D01*
X65949Y29170D01*
X65949Y31170D01*
X65913Y31217D01*
X65910Y31215D01*
X65908Y31219D01*
X65308Y31319D01*
X65303Y31316D01*
X65300Y31319D01*
X61300Y31319D01*
X61274Y31300D01*
X61261Y31300D01*
X60961Y30900D01*
X60961Y30889D01*
X60953Y30883D01*
X60958Y30876D01*
X60951Y30870D01*
X60951Y29470D01*
X60960Y29457D01*
X60956Y29448D01*
X61256Y28848D01*
X61263Y28845D01*
X61262Y28839D01*
X61662Y28339D01*
X61669Y28337D01*
X61669Y28332D01*
X62169Y27932D01*
X62177Y27931D01*
X62178Y27926D01*
X62778Y27626D01*
X62789Y27628D01*
X62793Y27621D01*
X63493Y27521D01*
X63502Y27526D01*
X63507Y27521D01*
X64207Y27621D01*
G37*
G36*
X114709Y39328D02*
X114709Y39328D01*
X114716Y39323D01*
X115316Y39523D01*
X115321Y39531D01*
X115327Y39529D01*
X115927Y39929D01*
X115930Y39936D01*
X115935Y39935D01*
X116335Y40335D01*
X116337Y40348D01*
X116345Y40350D01*
X116745Y41250D01*
X116742Y41264D01*
X116749Y41270D01*
X116749Y42570D01*
X116740Y42583D01*
X116744Y42592D01*
X116544Y42992D01*
X116507Y43011D01*
X116500Y43019D01*
X111800Y43019D01*
X111753Y42983D01*
X111755Y42980D01*
X111753Y42979D01*
X111756Y42974D01*
X111751Y42970D01*
X111751Y41570D01*
X111754Y41566D01*
X111751Y41563D01*
X111851Y40863D01*
X111864Y40850D01*
X111862Y40839D01*
X112662Y39839D01*
X112672Y39837D01*
X112673Y39829D01*
X113273Y39429D01*
X113288Y39430D01*
X113293Y39421D01*
X113993Y39321D01*
X113998Y39324D01*
X114000Y39321D01*
X114700Y39321D01*
X114709Y39328D01*
G37*
%LPC*%
G36*
X169610Y114489D02*
X169610Y114489D01*
X169425Y114675D01*
X169421Y114675D01*
X169421Y114678D01*
X168927Y115074D01*
X168533Y115665D01*
X168237Y116255D01*
X168140Y116841D01*
X168238Y117525D01*
X168533Y118115D01*
X168925Y118703D01*
X169412Y118996D01*
X170100Y119291D01*
X171374Y119291D01*
X171741Y119015D01*
X171741Y114949D01*
X171557Y114489D01*
X169610Y114489D01*
G37*
%LPD*%
%LPC*%
G36*
X145928Y210100D02*
X145928Y210100D01*
X145465Y210193D01*
X145433Y210192D01*
X145390Y210200D01*
X144980Y210200D01*
X144660Y210360D01*
X144627Y210368D01*
X144582Y210389D01*
X144246Y210473D01*
X144032Y210616D01*
X143886Y210762D01*
X143706Y211031D01*
X143684Y211052D01*
X143659Y211089D01*
X143522Y211225D01*
X143351Y211740D01*
X143338Y211760D01*
X143330Y211790D01*
X143242Y211966D01*
X143170Y212182D01*
X143170Y213805D01*
X143420Y213680D01*
X143435Y213676D01*
X143448Y213667D01*
X143582Y213641D01*
X143589Y213640D01*
X143590Y213640D01*
X143700Y213640D01*
X143820Y213580D01*
X143835Y213576D01*
X143848Y213567D01*
X143982Y213541D01*
X143989Y213540D01*
X143990Y213540D01*
X144300Y213540D01*
X144420Y213480D01*
X144435Y213476D01*
X144448Y213467D01*
X144582Y213441D01*
X144589Y213440D01*
X144590Y213440D01*
X144728Y213440D01*
X144970Y213359D01*
X145007Y213356D01*
X145090Y213340D01*
X145428Y213340D01*
X145670Y213259D01*
X145707Y213256D01*
X145790Y213240D01*
X146100Y213240D01*
X146220Y213180D01*
X146235Y213176D01*
X146248Y213167D01*
X146382Y213141D01*
X146389Y213140D01*
X146390Y213140D01*
X146528Y213140D01*
X146744Y213068D01*
X146865Y213008D01*
X146921Y212951D01*
X146953Y212931D01*
X147020Y212880D01*
X147365Y212708D01*
X147421Y212651D01*
X147453Y212631D01*
X147520Y212580D01*
X147607Y212537D01*
X147810Y212130D01*
X147810Y212020D01*
X147813Y212005D01*
X147811Y211990D01*
X147848Y211858D01*
X147849Y211851D01*
X147850Y211851D01*
X147850Y211850D01*
X147910Y211730D01*
X147910Y211382D01*
X147829Y211140D01*
X147826Y211103D01*
X147810Y211020D01*
X147810Y210910D01*
X147778Y210845D01*
X147721Y210789D01*
X147713Y210775D01*
X147710Y210773D01*
X147706Y210765D01*
X147701Y210757D01*
X147650Y210690D01*
X147607Y210603D01*
X147520Y210560D01*
X147491Y210536D01*
X147421Y210489D01*
X147365Y210433D01*
X147100Y210300D01*
X146990Y210300D01*
X146975Y210297D01*
X146960Y210299D01*
X146828Y210262D01*
X146821Y210261D01*
X146821Y210260D01*
X146820Y210260D01*
X146700Y210200D01*
X146590Y210200D01*
X146575Y210197D01*
X146560Y210199D01*
X146428Y210162D01*
X146421Y210161D01*
X146421Y210160D01*
X146420Y210160D01*
X146345Y210123D01*
X146345Y210122D01*
X146300Y210100D01*
X145928Y210100D01*
G37*
%LPD*%
G36*
X191104Y28284D02*
X191104Y28284D01*
X191106Y28281D01*
X191906Y28381D01*
X191915Y28390D01*
X191922Y28386D01*
X192522Y28686D01*
X192529Y28700D01*
X192539Y28700D01*
X192839Y29100D01*
X192839Y29116D01*
X192848Y29120D01*
X192948Y29620D01*
X192945Y29627D01*
X192949Y29630D01*
X192949Y29830D01*
X192941Y29841D01*
X192946Y29848D01*
X192746Y30348D01*
X192730Y30358D01*
X192730Y30369D01*
X192330Y30669D01*
X192317Y30669D01*
X192314Y30677D01*
X191614Y30877D01*
X191608Y30875D01*
X191605Y30879D01*
X190705Y30979D01*
X190702Y30977D01*
X190700Y30979D01*
X189700Y30979D01*
X189696Y30976D01*
X189694Y30979D01*
X188894Y30879D01*
X188887Y30872D01*
X188881Y30875D01*
X188181Y30575D01*
X188176Y30568D01*
X188170Y30569D01*
X187770Y30269D01*
X187764Y30245D01*
X187752Y30240D01*
X187652Y29740D01*
X187655Y29733D01*
X187651Y29730D01*
X187651Y29230D01*
X187664Y29212D01*
X187661Y29200D01*
X187961Y28800D01*
X187974Y28797D01*
X187975Y28788D01*
X188475Y28488D01*
X188484Y28489D01*
X188486Y28483D01*
X189186Y28283D01*
X189196Y28286D01*
X189200Y28281D01*
X191100Y28281D01*
X191104Y28284D01*
G37*
%LPC*%
G36*
X97902Y113219D02*
X97902Y113219D01*
X97519Y113411D01*
X97133Y113797D01*
X96938Y114381D01*
X96839Y115273D01*
X96839Y116267D01*
X96939Y117064D01*
X96909Y117115D01*
X96904Y117112D01*
X96901Y117118D01*
X96883Y117122D01*
X96888Y117125D01*
X96891Y117125D01*
X96899Y117131D01*
X96934Y117148D01*
X96932Y117153D01*
X96937Y117154D01*
X97134Y117747D01*
X97421Y118129D01*
X97899Y118321D01*
X98374Y118321D01*
X98755Y118035D01*
X99045Y117648D01*
X99241Y116961D01*
X99341Y115968D01*
X99341Y114976D01*
X99143Y114184D01*
X98948Y113600D01*
X98569Y113316D01*
X98085Y113219D01*
X97902Y113219D01*
G37*
%LPD*%
%LPC*%
G36*
X121109Y193899D02*
X121109Y193899D01*
X120330Y194192D01*
X119847Y194770D01*
X119750Y195644D01*
X120041Y196419D01*
X120716Y196901D01*
X121491Y196901D01*
X122269Y196609D01*
X122751Y195934D01*
X122751Y195060D01*
X122460Y194382D01*
X121784Y193899D01*
X121109Y193899D01*
G37*
%LPD*%
%LPC*%
G36*
X146403Y193899D02*
X146403Y193899D01*
X145628Y193996D01*
X145147Y194668D01*
X145051Y195443D01*
X145338Y196114D01*
X146109Y196499D01*
X146882Y196403D01*
X147557Y195920D01*
X147749Y195249D01*
X147556Y194475D01*
X146980Y193899D01*
X146403Y193899D01*
G37*
%LPD*%
G36*
X105592Y112096D02*
X105592Y112096D01*
X105597Y112091D01*
X106297Y112191D01*
X106309Y112204D01*
X106320Y112201D01*
X106720Y112501D01*
X106724Y112517D01*
X106729Y112521D01*
X106726Y112525D01*
X106727Y112527D01*
X106739Y112533D01*
X106839Y113233D01*
X106834Y113241D01*
X106839Y113246D01*
X106739Y114046D01*
X106723Y114062D01*
X106725Y114075D01*
X106325Y114475D01*
X106303Y114478D01*
X106297Y114489D01*
X105597Y114589D01*
X105592Y114586D01*
X105590Y114589D01*
X104890Y114589D01*
X104865Y114570D01*
X104852Y114571D01*
X104452Y114071D01*
X104451Y114052D01*
X104441Y114047D01*
X104341Y113347D01*
X104344Y113342D01*
X104341Y113340D01*
X104341Y112640D01*
X104357Y112619D01*
X104355Y112605D01*
X104755Y112205D01*
X104778Y112202D01*
X104784Y112191D01*
X105584Y112091D01*
X105592Y112096D01*
G37*
G36*
X106396Y116291D02*
X106396Y116291D01*
X106416Y116310D01*
X106429Y116310D01*
X106729Y116710D01*
X106729Y116717D01*
X106732Y116719D01*
X106729Y116722D01*
X106729Y116728D01*
X106739Y116733D01*
X106839Y117433D01*
X106834Y117441D01*
X106839Y117446D01*
X106739Y118246D01*
X106720Y118266D01*
X106720Y118279D01*
X106320Y118579D01*
X106302Y118579D01*
X106297Y118589D01*
X105597Y118689D01*
X105592Y118686D01*
X105590Y118689D01*
X104890Y118689D01*
X104869Y118673D01*
X104855Y118675D01*
X104455Y118275D01*
X104452Y118252D01*
X104441Y118246D01*
X104341Y117446D01*
X104346Y117437D01*
X104341Y117432D01*
X104441Y116832D01*
X104451Y116823D01*
X104448Y116815D01*
X104748Y116315D01*
X104777Y116303D01*
X104784Y116291D01*
X105584Y116191D01*
X105592Y116196D01*
X105596Y116191D01*
X106396Y116291D01*
G37*
%LPC*%
G36*
X125609Y177289D02*
X125609Y177289D01*
X124834Y177580D01*
X124451Y178250D01*
X124546Y179015D01*
X125120Y179493D01*
X125994Y179590D01*
X126766Y179300D01*
X127149Y178630D01*
X127053Y177863D01*
X126480Y177289D01*
X125609Y177289D01*
G37*
%LPD*%
%LPC*%
G36*
X114409Y177289D02*
X114409Y177289D01*
X113634Y177580D01*
X113253Y178247D01*
X113444Y179012D01*
X114020Y179493D01*
X114892Y179590D01*
X115568Y179300D01*
X116047Y178630D01*
X115856Y177865D01*
X115280Y177289D01*
X114409Y177289D01*
G37*
%LPD*%
%LPC*%
G36*
X128393Y114489D02*
X128393Y114489D01*
X127716Y114586D01*
X127337Y115060D01*
X127241Y115732D01*
X127527Y116303D01*
X128098Y116589D01*
X128770Y116493D01*
X129248Y116111D01*
X129438Y115540D01*
X129247Y114967D01*
X128770Y114489D01*
X128393Y114489D01*
G37*
%LPD*%
%LPC*%
G36*
X119494Y114489D02*
X119494Y114489D01*
X118898Y114589D01*
X118845Y114561D01*
X118849Y114555D01*
X118842Y114553D01*
X118837Y114532D01*
X118825Y114558D01*
X118828Y114571D01*
X118437Y115060D01*
X118341Y115732D01*
X118627Y116303D01*
X119198Y116589D01*
X119870Y116493D01*
X120348Y116111D01*
X120538Y115540D01*
X120347Y114967D01*
X119870Y114489D01*
X119494Y114489D01*
G37*
%LPD*%
%LPC*%
G36*
X124952Y182767D02*
X124952Y182767D01*
X125046Y183706D01*
X125705Y183988D01*
X126565Y183797D01*
X126845Y183143D01*
X126470Y182486D01*
X125611Y182391D01*
X124952Y182767D01*
G37*
%LPD*%
%LPC*%
G36*
X113752Y182767D02*
X113752Y182767D01*
X113846Y183705D01*
X114603Y183989D01*
X115364Y183798D01*
X115645Y183143D01*
X115270Y182486D01*
X114411Y182391D01*
X113752Y182767D01*
G37*
%LPD*%
G36*
X114716Y29833D02*
X114716Y29833D01*
X114727Y29829D01*
X115027Y30029D01*
X115033Y30046D01*
X115043Y30054D01*
X115038Y30060D01*
X115039Y30062D01*
X115049Y30070D01*
X115049Y31370D01*
X115048Y31372D01*
X115049Y31375D01*
X115043Y31378D01*
X115013Y31417D01*
X114998Y31406D01*
X114982Y31416D01*
X113682Y30916D01*
X113669Y30894D01*
X113656Y30892D01*
X113456Y30492D01*
X113467Y30434D01*
X113476Y30435D01*
X113478Y30426D01*
X114678Y29826D01*
X114716Y29833D01*
G37*
%LPC*%
G36*
X159904Y116189D02*
X159904Y116189D01*
X159454Y116459D01*
X159723Y116996D01*
X160286Y117089D01*
X160863Y116897D01*
X161334Y116427D01*
X161255Y116189D01*
X159904Y116189D01*
G37*
%LPD*%
%LPC*%
G36*
X137970Y116189D02*
X137970Y116189D01*
X138234Y116718D01*
X138234Y116719D01*
X138235Y116719D01*
X138783Y117906D01*
X138843Y117724D01*
X138846Y117723D01*
X138845Y117721D01*
X139338Y116536D01*
X139252Y116189D01*
X137970Y116189D01*
G37*
%LPD*%
%LPC*%
G36*
X159049Y49614D02*
X159049Y49614D01*
X159049Y49681D01*
X159891Y49681D01*
X160351Y49497D01*
X160351Y49325D01*
X159049Y49614D01*
G37*
%LPD*%
D10*
X17780Y154940D02*
X33020Y154940D01*
X13208Y170688D02*
X13210Y170821D01*
X13216Y170954D01*
X13225Y171086D01*
X13239Y171219D01*
X13256Y171351D01*
X13277Y171482D01*
X13302Y171613D01*
X13331Y171742D01*
X13364Y171871D01*
X13400Y171999D01*
X13440Y172126D01*
X13484Y172252D01*
X13531Y172376D01*
X13582Y172499D01*
X13636Y172620D01*
X13694Y172740D01*
X13756Y172858D01*
X13821Y172974D01*
X13889Y173088D01*
X13960Y173200D01*
X14035Y173310D01*
X14113Y173418D01*
X14194Y173524D01*
X14278Y173627D01*
X14365Y173727D01*
X14454Y173825D01*
X14547Y173921D01*
X14643Y174014D01*
X14741Y174103D01*
X14841Y174190D01*
X14944Y174274D01*
X15050Y174355D01*
X15158Y174433D01*
X15268Y174508D01*
X15380Y174579D01*
X15494Y174647D01*
X15610Y174712D01*
X15728Y174774D01*
X15848Y174832D01*
X15969Y174886D01*
X16092Y174937D01*
X16216Y174984D01*
X16342Y175028D01*
X16469Y175068D01*
X16597Y175104D01*
X16726Y175137D01*
X16855Y175166D01*
X16986Y175191D01*
X17117Y175212D01*
X17249Y175229D01*
X17382Y175243D01*
X17514Y175252D01*
X17647Y175258D01*
X17780Y175260D01*
X33020Y175260D02*
X33153Y175258D01*
X33286Y175252D01*
X33418Y175243D01*
X33551Y175229D01*
X33683Y175212D01*
X33814Y175191D01*
X33945Y175166D01*
X34074Y175137D01*
X34203Y175104D01*
X34331Y175068D01*
X34458Y175028D01*
X34584Y174984D01*
X34708Y174937D01*
X34831Y174886D01*
X34952Y174832D01*
X35072Y174774D01*
X35190Y174712D01*
X35306Y174647D01*
X35420Y174579D01*
X35532Y174508D01*
X35642Y174433D01*
X35750Y174355D01*
X35856Y174274D01*
X35959Y174190D01*
X36059Y174103D01*
X36157Y174014D01*
X36253Y173921D01*
X36346Y173825D01*
X36435Y173727D01*
X36522Y173627D01*
X36606Y173524D01*
X36687Y173418D01*
X36765Y173310D01*
X36840Y173200D01*
X36911Y173088D01*
X36979Y172974D01*
X37044Y172858D01*
X37106Y172740D01*
X37164Y172620D01*
X37218Y172499D01*
X37269Y172376D01*
X37316Y172252D01*
X37360Y172126D01*
X37400Y171999D01*
X37436Y171871D01*
X37469Y171742D01*
X37498Y171613D01*
X37523Y171482D01*
X37544Y171351D01*
X37561Y171219D01*
X37575Y171086D01*
X37584Y170954D01*
X37590Y170821D01*
X37592Y170688D01*
X37592Y159512D02*
X37590Y159379D01*
X37584Y159246D01*
X37575Y159114D01*
X37561Y158981D01*
X37544Y158849D01*
X37523Y158718D01*
X37498Y158587D01*
X37469Y158458D01*
X37436Y158329D01*
X37400Y158201D01*
X37360Y158074D01*
X37316Y157948D01*
X37269Y157824D01*
X37218Y157701D01*
X37164Y157580D01*
X37106Y157460D01*
X37044Y157342D01*
X36979Y157226D01*
X36911Y157112D01*
X36840Y157000D01*
X36765Y156890D01*
X36687Y156782D01*
X36606Y156676D01*
X36522Y156573D01*
X36435Y156473D01*
X36346Y156375D01*
X36253Y156279D01*
X36157Y156186D01*
X36059Y156097D01*
X35959Y156010D01*
X35856Y155926D01*
X35750Y155845D01*
X35642Y155767D01*
X35532Y155692D01*
X35420Y155621D01*
X35306Y155553D01*
X35190Y155488D01*
X35072Y155426D01*
X34952Y155368D01*
X34831Y155314D01*
X34708Y155263D01*
X34584Y155216D01*
X34458Y155172D01*
X34331Y155132D01*
X34203Y155096D01*
X34074Y155063D01*
X33945Y155034D01*
X33814Y155009D01*
X33683Y154988D01*
X33551Y154971D01*
X33418Y154957D01*
X33286Y154948D01*
X33153Y154942D01*
X33020Y154940D01*
X17780Y154940D02*
X17647Y154942D01*
X17514Y154948D01*
X17382Y154957D01*
X17249Y154971D01*
X17117Y154988D01*
X16986Y155009D01*
X16855Y155034D01*
X16726Y155063D01*
X16597Y155096D01*
X16469Y155132D01*
X16342Y155172D01*
X16216Y155216D01*
X16092Y155263D01*
X15969Y155314D01*
X15848Y155368D01*
X15728Y155426D01*
X15610Y155488D01*
X15494Y155553D01*
X15380Y155621D01*
X15268Y155692D01*
X15158Y155767D01*
X15050Y155845D01*
X14944Y155926D01*
X14841Y156010D01*
X14741Y156097D01*
X14643Y156186D01*
X14547Y156279D01*
X14454Y156375D01*
X14365Y156473D01*
X14278Y156573D01*
X14194Y156676D01*
X14113Y156782D01*
X14035Y156890D01*
X13960Y157000D01*
X13889Y157112D01*
X13821Y157226D01*
X13756Y157342D01*
X13694Y157460D01*
X13636Y157580D01*
X13582Y157701D01*
X13531Y157824D01*
X13484Y157948D01*
X13440Y158074D01*
X13400Y158201D01*
X13364Y158329D01*
X13331Y158458D01*
X13302Y158587D01*
X13277Y158718D01*
X13256Y158849D01*
X13239Y158981D01*
X13225Y159114D01*
X13216Y159246D01*
X13210Y159379D01*
X13208Y159512D01*
X13208Y170688D01*
X37592Y170688D02*
X37592Y159512D01*
X33020Y175260D02*
X17780Y175260D01*
X114300Y66040D02*
X139700Y66040D01*
X114300Y86360D02*
X114167Y86358D01*
X114034Y86352D01*
X113902Y86343D01*
X113769Y86329D01*
X113637Y86312D01*
X113506Y86291D01*
X113375Y86266D01*
X113246Y86237D01*
X113117Y86204D01*
X112989Y86168D01*
X112862Y86128D01*
X112736Y86084D01*
X112612Y86037D01*
X112489Y85986D01*
X112368Y85932D01*
X112248Y85874D01*
X112130Y85812D01*
X112014Y85747D01*
X111900Y85679D01*
X111788Y85608D01*
X111678Y85533D01*
X111570Y85455D01*
X111464Y85374D01*
X111361Y85290D01*
X111261Y85203D01*
X111163Y85114D01*
X111067Y85021D01*
X110974Y84925D01*
X110885Y84827D01*
X110798Y84727D01*
X110714Y84624D01*
X110633Y84518D01*
X110555Y84410D01*
X110480Y84300D01*
X110409Y84188D01*
X110341Y84074D01*
X110276Y83958D01*
X110214Y83840D01*
X110156Y83720D01*
X110102Y83599D01*
X110051Y83476D01*
X110004Y83352D01*
X109960Y83226D01*
X109920Y83099D01*
X109884Y82971D01*
X109851Y82842D01*
X109822Y82713D01*
X109797Y82582D01*
X109776Y82451D01*
X109759Y82319D01*
X109745Y82186D01*
X109736Y82054D01*
X109730Y81921D01*
X109728Y81788D01*
X139700Y86360D02*
X139833Y86358D01*
X139966Y86352D01*
X140098Y86343D01*
X140231Y86329D01*
X140363Y86312D01*
X140494Y86291D01*
X140625Y86266D01*
X140754Y86237D01*
X140883Y86204D01*
X141011Y86168D01*
X141138Y86128D01*
X141264Y86084D01*
X141388Y86037D01*
X141511Y85986D01*
X141632Y85932D01*
X141752Y85874D01*
X141870Y85812D01*
X141986Y85747D01*
X142100Y85679D01*
X142212Y85608D01*
X142322Y85533D01*
X142430Y85455D01*
X142536Y85374D01*
X142639Y85290D01*
X142739Y85203D01*
X142837Y85114D01*
X142933Y85021D01*
X143026Y84925D01*
X143115Y84827D01*
X143202Y84727D01*
X143286Y84624D01*
X143367Y84518D01*
X143445Y84410D01*
X143520Y84300D01*
X143591Y84188D01*
X143659Y84074D01*
X143724Y83958D01*
X143786Y83840D01*
X143844Y83720D01*
X143898Y83599D01*
X143949Y83476D01*
X143996Y83352D01*
X144040Y83226D01*
X144080Y83099D01*
X144116Y82971D01*
X144149Y82842D01*
X144178Y82713D01*
X144203Y82582D01*
X144224Y82451D01*
X144241Y82319D01*
X144255Y82186D01*
X144264Y82054D01*
X144270Y81921D01*
X144272Y81788D01*
X144272Y70612D02*
X144270Y70479D01*
X144264Y70346D01*
X144255Y70214D01*
X144241Y70081D01*
X144224Y69949D01*
X144203Y69818D01*
X144178Y69687D01*
X144149Y69558D01*
X144116Y69429D01*
X144080Y69301D01*
X144040Y69174D01*
X143996Y69048D01*
X143949Y68924D01*
X143898Y68801D01*
X143844Y68680D01*
X143786Y68560D01*
X143724Y68442D01*
X143659Y68326D01*
X143591Y68212D01*
X143520Y68100D01*
X143445Y67990D01*
X143367Y67882D01*
X143286Y67776D01*
X143202Y67673D01*
X143115Y67573D01*
X143026Y67475D01*
X142933Y67379D01*
X142837Y67286D01*
X142739Y67197D01*
X142639Y67110D01*
X142536Y67026D01*
X142430Y66945D01*
X142322Y66867D01*
X142212Y66792D01*
X142100Y66721D01*
X141986Y66653D01*
X141870Y66588D01*
X141752Y66526D01*
X141632Y66468D01*
X141511Y66414D01*
X141388Y66363D01*
X141264Y66316D01*
X141138Y66272D01*
X141011Y66232D01*
X140883Y66196D01*
X140754Y66163D01*
X140625Y66134D01*
X140494Y66109D01*
X140363Y66088D01*
X140231Y66071D01*
X140098Y66057D01*
X139966Y66048D01*
X139833Y66042D01*
X139700Y66040D01*
X114300Y66040D02*
X114167Y66042D01*
X114034Y66048D01*
X113902Y66057D01*
X113769Y66071D01*
X113637Y66088D01*
X113506Y66109D01*
X113375Y66134D01*
X113246Y66163D01*
X113117Y66196D01*
X112989Y66232D01*
X112862Y66272D01*
X112736Y66316D01*
X112612Y66363D01*
X112489Y66414D01*
X112368Y66468D01*
X112248Y66526D01*
X112130Y66588D01*
X112014Y66653D01*
X111900Y66721D01*
X111788Y66792D01*
X111678Y66867D01*
X111570Y66945D01*
X111464Y67026D01*
X111361Y67110D01*
X111261Y67197D01*
X111163Y67286D01*
X111067Y67379D01*
X110974Y67475D01*
X110885Y67573D01*
X110798Y67673D01*
X110714Y67776D01*
X110633Y67882D01*
X110555Y67990D01*
X110480Y68100D01*
X110409Y68212D01*
X110341Y68326D01*
X110276Y68442D01*
X110214Y68560D01*
X110156Y68680D01*
X110102Y68801D01*
X110051Y68924D01*
X110004Y69048D01*
X109960Y69174D01*
X109920Y69301D01*
X109884Y69429D01*
X109851Y69558D01*
X109822Y69687D01*
X109797Y69818D01*
X109776Y69949D01*
X109759Y70081D01*
X109745Y70214D01*
X109736Y70346D01*
X109730Y70479D01*
X109728Y70612D01*
X109728Y81788D01*
X144272Y81788D02*
X144272Y70612D01*
X139700Y86360D02*
X114300Y86360D01*
M02*
