G04 EAGLE Gerber RS-274X export*
G75*
%MOMM*%
%FSLAX34Y34*%
%LPD*%
%INSoldermask Bottom*%
%IPPOS*%
%AMOC8*
5,1,8,0,0,1.08239X$1,22.5*%
G01*
%ADD10C,0.762000*%
%ADD11C,3.175000*%
%ADD12C,2.006600*%
%ADD13C,0.228344*%

G36*
X27370Y163207D02*
X27370Y163207D01*
X27436Y163209D01*
X27479Y163227D01*
X27526Y163235D01*
X27583Y163269D01*
X27643Y163294D01*
X27678Y163325D01*
X27719Y163350D01*
X27761Y163401D01*
X27809Y163445D01*
X27831Y163487D01*
X27860Y163524D01*
X27881Y163586D01*
X27912Y163645D01*
X27920Y163699D01*
X27932Y163736D01*
X27931Y163776D01*
X27939Y163830D01*
X27939Y166370D01*
X27928Y166435D01*
X27926Y166501D01*
X27908Y166544D01*
X27900Y166591D01*
X27866Y166648D01*
X27841Y166708D01*
X27810Y166743D01*
X27785Y166784D01*
X27734Y166826D01*
X27690Y166874D01*
X27648Y166896D01*
X27611Y166925D01*
X27549Y166946D01*
X27490Y166977D01*
X27436Y166985D01*
X27399Y166997D01*
X27359Y166996D01*
X27305Y167004D01*
X23495Y167004D01*
X23430Y166993D01*
X23364Y166991D01*
X23321Y166973D01*
X23274Y166965D01*
X23217Y166931D01*
X23157Y166906D01*
X23122Y166875D01*
X23081Y166850D01*
X23040Y166799D01*
X22991Y166755D01*
X22969Y166713D01*
X22940Y166676D01*
X22919Y166614D01*
X22888Y166555D01*
X22880Y166501D01*
X22868Y166464D01*
X22868Y166461D01*
X22869Y166424D01*
X22861Y166370D01*
X22861Y163830D01*
X22872Y163765D01*
X22874Y163699D01*
X22892Y163656D01*
X22900Y163609D01*
X22934Y163552D01*
X22959Y163492D01*
X22990Y163457D01*
X23015Y163416D01*
X23066Y163375D01*
X23110Y163326D01*
X23152Y163304D01*
X23189Y163275D01*
X23251Y163254D01*
X23310Y163223D01*
X23364Y163215D01*
X23401Y163203D01*
X23441Y163204D01*
X23495Y163196D01*
X27305Y163196D01*
X27370Y163207D01*
G37*
G36*
X134050Y74307D02*
X134050Y74307D01*
X134116Y74309D01*
X134159Y74327D01*
X134206Y74335D01*
X134263Y74369D01*
X134323Y74394D01*
X134358Y74425D01*
X134399Y74450D01*
X134441Y74501D01*
X134489Y74545D01*
X134511Y74587D01*
X134540Y74624D01*
X134561Y74686D01*
X134592Y74745D01*
X134600Y74799D01*
X134612Y74836D01*
X134611Y74876D01*
X134619Y74930D01*
X134619Y77470D01*
X134608Y77535D01*
X134606Y77601D01*
X134588Y77644D01*
X134580Y77691D01*
X134546Y77748D01*
X134521Y77808D01*
X134490Y77843D01*
X134465Y77884D01*
X134414Y77926D01*
X134370Y77974D01*
X134328Y77996D01*
X134291Y78025D01*
X134229Y78046D01*
X134170Y78077D01*
X134116Y78085D01*
X134079Y78097D01*
X134039Y78096D01*
X133985Y78104D01*
X130175Y78104D01*
X130110Y78093D01*
X130044Y78091D01*
X130001Y78073D01*
X129954Y78065D01*
X129897Y78031D01*
X129837Y78006D01*
X129802Y77975D01*
X129761Y77950D01*
X129720Y77899D01*
X129671Y77855D01*
X129649Y77813D01*
X129620Y77776D01*
X129599Y77714D01*
X129568Y77655D01*
X129560Y77601D01*
X129548Y77564D01*
X129548Y77561D01*
X129549Y77524D01*
X129541Y77470D01*
X129541Y74930D01*
X129552Y74865D01*
X129554Y74799D01*
X129572Y74756D01*
X129580Y74709D01*
X129614Y74652D01*
X129639Y74592D01*
X129670Y74557D01*
X129695Y74516D01*
X129746Y74475D01*
X129790Y74426D01*
X129832Y74404D01*
X129869Y74375D01*
X129931Y74354D01*
X129990Y74323D01*
X130044Y74315D01*
X130081Y74303D01*
X130121Y74304D01*
X130175Y74296D01*
X133985Y74296D01*
X134050Y74307D01*
G37*
G36*
X123890Y74307D02*
X123890Y74307D01*
X123956Y74309D01*
X123999Y74327D01*
X124046Y74335D01*
X124103Y74369D01*
X124163Y74394D01*
X124198Y74425D01*
X124239Y74450D01*
X124281Y74501D01*
X124329Y74545D01*
X124351Y74587D01*
X124380Y74624D01*
X124401Y74686D01*
X124432Y74745D01*
X124440Y74799D01*
X124452Y74836D01*
X124451Y74876D01*
X124459Y74930D01*
X124459Y77470D01*
X124448Y77535D01*
X124446Y77601D01*
X124428Y77644D01*
X124420Y77691D01*
X124386Y77748D01*
X124361Y77808D01*
X124330Y77843D01*
X124305Y77884D01*
X124254Y77926D01*
X124210Y77974D01*
X124168Y77996D01*
X124131Y78025D01*
X124069Y78046D01*
X124010Y78077D01*
X123956Y78085D01*
X123919Y78097D01*
X123879Y78096D01*
X123825Y78104D01*
X120015Y78104D01*
X119950Y78093D01*
X119884Y78091D01*
X119841Y78073D01*
X119794Y78065D01*
X119737Y78031D01*
X119677Y78006D01*
X119642Y77975D01*
X119601Y77950D01*
X119560Y77899D01*
X119511Y77855D01*
X119489Y77813D01*
X119460Y77776D01*
X119439Y77714D01*
X119408Y77655D01*
X119400Y77601D01*
X119388Y77564D01*
X119388Y77561D01*
X119389Y77524D01*
X119381Y77470D01*
X119381Y74930D01*
X119392Y74865D01*
X119394Y74799D01*
X119412Y74756D01*
X119420Y74709D01*
X119454Y74652D01*
X119479Y74592D01*
X119510Y74557D01*
X119535Y74516D01*
X119586Y74475D01*
X119630Y74426D01*
X119672Y74404D01*
X119709Y74375D01*
X119771Y74354D01*
X119830Y74323D01*
X119884Y74315D01*
X119921Y74303D01*
X119961Y74304D01*
X120015Y74296D01*
X123825Y74296D01*
X123890Y74307D01*
G37*
D10*
X6350Y7620D03*
X246380Y246380D03*
D11*
X228600Y228600D03*
X25400Y228600D03*
X25400Y25400D03*
D12*
X63500Y12700D03*
X88900Y12700D03*
X114300Y12700D03*
X139700Y12700D03*
D13*
X33403Y170944D02*
X27811Y170944D01*
X33403Y170944D02*
X33403Y159256D01*
X27811Y159256D01*
X27811Y170944D01*
X27811Y161425D02*
X33403Y161425D01*
X33403Y163594D02*
X27811Y163594D01*
X27811Y165763D02*
X33403Y165763D01*
X33403Y167932D02*
X27811Y167932D01*
X27811Y170101D02*
X33403Y170101D01*
X22989Y170944D02*
X17397Y170944D01*
X22989Y170944D02*
X22989Y159256D01*
X17397Y159256D01*
X17397Y170944D01*
X17397Y161425D02*
X22989Y161425D01*
X22989Y163594D02*
X17397Y163594D01*
X17397Y165763D02*
X22989Y165763D01*
X22989Y167932D02*
X17397Y167932D01*
X17397Y170101D02*
X22989Y170101D01*
X134618Y82044D02*
X140210Y82044D01*
X140210Y70356D01*
X134618Y70356D01*
X134618Y82044D01*
X134618Y72525D02*
X140210Y72525D01*
X140210Y74694D02*
X134618Y74694D01*
X134618Y76863D02*
X140210Y76863D01*
X140210Y79032D02*
X134618Y79032D01*
X134618Y81201D02*
X140210Y81201D01*
X129796Y82044D02*
X124204Y82044D01*
X129796Y82044D02*
X129796Y70356D01*
X124204Y70356D01*
X124204Y82044D01*
X124204Y72525D02*
X129796Y72525D01*
X129796Y74694D02*
X124204Y74694D01*
X124204Y76863D02*
X129796Y76863D01*
X129796Y79032D02*
X124204Y79032D01*
X124204Y81201D02*
X129796Y81201D01*
X119382Y82044D02*
X113790Y82044D01*
X119382Y82044D02*
X119382Y70356D01*
X113790Y70356D01*
X113790Y82044D01*
X113790Y72525D02*
X119382Y72525D01*
X119382Y74694D02*
X113790Y74694D01*
X113790Y76863D02*
X119382Y76863D01*
X119382Y79032D02*
X113790Y79032D01*
X113790Y81201D02*
X119382Y81201D01*
D12*
X241300Y12700D03*
X215900Y12700D03*
X190500Y12700D03*
X165100Y12700D03*
M02*
