G04 EAGLE Gerber RS-274X export*
G75*
%MOMM*%
%FSLAX34Y34*%
%LPD*%
%INBottom Copper*%
%IPPOS*%
%AMOC8*
5,1,8,0,0,1.08239X$1,22.5*%
G01*
%ADD10C,0.203200*%
%ADD11C,0.635000*%
%ADD12C,1.879600*%
%ADD13C,0.099059*%
%ADD14C,0.558800*%
%ADD15C,0.304800*%

G36*
X53596Y2812D02*
X53596Y2812D01*
X53734Y2825D01*
X53753Y2832D01*
X53773Y2835D01*
X53902Y2886D01*
X54033Y2933D01*
X54050Y2944D01*
X54068Y2952D01*
X54181Y3033D01*
X54296Y3112D01*
X54310Y3127D01*
X54326Y3138D01*
X54415Y3246D01*
X54507Y3350D01*
X54516Y3368D01*
X54529Y3383D01*
X54588Y3509D01*
X54651Y3634D01*
X54656Y3653D01*
X54664Y3671D01*
X54690Y3808D01*
X54721Y3944D01*
X54720Y3964D01*
X54724Y3983D01*
X54715Y4122D01*
X54711Y4262D01*
X54705Y4281D01*
X54704Y4301D01*
X54661Y4433D01*
X54622Y4567D01*
X54612Y4584D01*
X54606Y4603D01*
X54531Y4721D01*
X54461Y4841D01*
X54442Y4862D01*
X54436Y4872D01*
X54421Y4886D01*
X54416Y4892D01*
X53289Y6443D01*
X52436Y8117D01*
X51855Y9904D01*
X51815Y10161D01*
X62230Y10161D01*
X62348Y10176D01*
X62467Y10183D01*
X62505Y10196D01*
X62545Y10201D01*
X62656Y10244D01*
X62769Y10281D01*
X62803Y10303D01*
X62841Y10318D01*
X62937Y10388D01*
X63038Y10451D01*
X63066Y10481D01*
X63098Y10504D01*
X63174Y10596D01*
X63256Y10683D01*
X63275Y10718D01*
X63301Y10749D01*
X63352Y10857D01*
X63409Y10961D01*
X63420Y11001D01*
X63437Y11037D01*
X63459Y11154D01*
X63489Y11269D01*
X63493Y11330D01*
X63497Y11350D01*
X63495Y11370D01*
X63499Y11430D01*
X63499Y12701D01*
X63501Y12701D01*
X63501Y11430D01*
X63516Y11312D01*
X63523Y11193D01*
X63536Y11155D01*
X63541Y11114D01*
X63585Y11004D01*
X63621Y10891D01*
X63643Y10856D01*
X63658Y10819D01*
X63728Y10723D01*
X63791Y10622D01*
X63821Y10594D01*
X63845Y10561D01*
X63936Y10486D01*
X64023Y10404D01*
X64058Y10384D01*
X64090Y10359D01*
X64197Y10308D01*
X64302Y10250D01*
X64341Y10240D01*
X64377Y10223D01*
X64494Y10201D01*
X64609Y10171D01*
X64670Y10167D01*
X64690Y10163D01*
X64710Y10165D01*
X64770Y10161D01*
X75185Y10161D01*
X75145Y9904D01*
X74564Y8117D01*
X73711Y6443D01*
X72548Y4842D01*
X72539Y4826D01*
X72471Y4745D01*
X72463Y4726D01*
X72451Y4711D01*
X72395Y4583D01*
X72336Y4457D01*
X72332Y4437D01*
X72324Y4419D01*
X72302Y4281D01*
X72276Y4144D01*
X72277Y4125D01*
X72274Y4105D01*
X72287Y3966D01*
X72296Y3827D01*
X72302Y3808D01*
X72304Y3788D01*
X72351Y3657D01*
X72394Y3525D01*
X72405Y3508D01*
X72411Y3489D01*
X72489Y3374D01*
X72564Y3256D01*
X72579Y3242D01*
X72590Y3226D01*
X72694Y3134D01*
X72796Y3038D01*
X72813Y3028D01*
X72828Y3015D01*
X72952Y2952D01*
X73074Y2884D01*
X73094Y2879D01*
X73111Y2870D01*
X73247Y2840D01*
X73382Y2805D01*
X73410Y2803D01*
X73422Y2801D01*
X73442Y2801D01*
X73543Y2795D01*
X80653Y2795D01*
X80791Y2812D01*
X80930Y2825D01*
X80949Y2832D01*
X80969Y2835D01*
X81098Y2886D01*
X81229Y2933D01*
X81246Y2944D01*
X81264Y2952D01*
X81377Y3033D01*
X81492Y3111D01*
X81505Y3127D01*
X81522Y3138D01*
X81611Y3246D01*
X81702Y3350D01*
X81712Y3368D01*
X81725Y3383D01*
X81784Y3509D01*
X81847Y3633D01*
X81851Y3653D01*
X81860Y3671D01*
X81886Y3808D01*
X81917Y3943D01*
X81916Y3964D01*
X81920Y3983D01*
X81911Y4122D01*
X81907Y4261D01*
X81901Y4281D01*
X81900Y4301D01*
X81857Y4433D01*
X81819Y4567D01*
X81808Y4584D01*
X81802Y4603D01*
X81727Y4721D01*
X81657Y4841D01*
X81639Y4862D01*
X81632Y4872D01*
X81617Y4886D01*
X81551Y4961D01*
X79855Y6657D01*
X78231Y10578D01*
X78231Y14822D01*
X79252Y17287D01*
X79260Y17316D01*
X79274Y17342D01*
X79302Y17469D01*
X79336Y17594D01*
X79337Y17623D01*
X79343Y17652D01*
X79339Y17782D01*
X79341Y17912D01*
X79334Y17941D01*
X79334Y17970D01*
X79298Y18095D01*
X79267Y18221D01*
X79253Y18247D01*
X79245Y18276D01*
X79179Y18387D01*
X79118Y18502D01*
X79099Y18524D01*
X79084Y18550D01*
X78977Y18670D01*
X78485Y19162D01*
X78485Y60706D01*
X78470Y60824D01*
X78463Y60943D01*
X78450Y60981D01*
X78445Y61022D01*
X78402Y61132D01*
X78365Y61245D01*
X78343Y61280D01*
X78328Y61317D01*
X78259Y61413D01*
X78195Y61514D01*
X78165Y61542D01*
X78142Y61575D01*
X78050Y61651D01*
X77963Y61732D01*
X77928Y61752D01*
X77897Y61777D01*
X77789Y61828D01*
X77685Y61886D01*
X77645Y61896D01*
X77609Y61913D01*
X77492Y61935D01*
X77377Y61965D01*
X77317Y61969D01*
X77297Y61973D01*
X77276Y61971D01*
X77216Y61975D01*
X73329Y61975D01*
X73231Y61963D01*
X73132Y61960D01*
X73074Y61943D01*
X73014Y61935D01*
X72922Y61899D01*
X72827Y61871D01*
X72774Y61841D01*
X72718Y61818D01*
X72638Y61760D01*
X72553Y61710D01*
X72478Y61644D01*
X72461Y61632D01*
X72453Y61622D01*
X72432Y61603D01*
X71534Y60705D01*
X68166Y60705D01*
X65785Y63086D01*
X65785Y66454D01*
X68166Y68835D01*
X71534Y68835D01*
X72432Y67937D01*
X72510Y67876D01*
X72582Y67808D01*
X72635Y67779D01*
X72683Y67742D01*
X72774Y67702D01*
X72861Y67654D01*
X72919Y67639D01*
X72975Y67615D01*
X73073Y67600D01*
X73169Y67575D01*
X73269Y67569D01*
X73289Y67565D01*
X73301Y67567D01*
X73329Y67565D01*
X110998Y67565D01*
X111136Y67582D01*
X111275Y67595D01*
X111294Y67602D01*
X111314Y67605D01*
X111443Y67656D01*
X111574Y67703D01*
X111591Y67714D01*
X111609Y67722D01*
X111722Y67803D01*
X111837Y67881D01*
X111850Y67897D01*
X111867Y67908D01*
X111956Y68016D01*
X112047Y68120D01*
X112057Y68138D01*
X112069Y68153D01*
X112129Y68279D01*
X112192Y68403D01*
X112196Y68423D01*
X112205Y68441D01*
X112231Y68578D01*
X112262Y68713D01*
X112261Y68734D01*
X112265Y68753D01*
X112256Y68892D01*
X112252Y69031D01*
X112246Y69051D01*
X112245Y69071D01*
X112202Y69203D01*
X112163Y69337D01*
X112153Y69354D01*
X112147Y69373D01*
X112072Y69491D01*
X112013Y69591D01*
X112013Y72644D01*
X111998Y72762D01*
X111991Y72881D01*
X111978Y72919D01*
X111973Y72960D01*
X111930Y73070D01*
X111893Y73183D01*
X111871Y73218D01*
X111856Y73255D01*
X111787Y73351D01*
X111723Y73452D01*
X111693Y73480D01*
X111670Y73513D01*
X111578Y73589D01*
X111491Y73670D01*
X111456Y73690D01*
X111425Y73715D01*
X111317Y73766D01*
X111213Y73824D01*
X111173Y73834D01*
X111137Y73851D01*
X111020Y73873D01*
X110905Y73903D01*
X110845Y73907D01*
X110825Y73911D01*
X110804Y73909D01*
X110744Y73913D01*
X105587Y73913D01*
X105489Y73901D01*
X105390Y73898D01*
X105332Y73881D01*
X105272Y73873D01*
X105180Y73837D01*
X105085Y73809D01*
X105033Y73779D01*
X104976Y73756D01*
X104896Y73698D01*
X104811Y73648D01*
X104735Y73582D01*
X104719Y73570D01*
X104711Y73560D01*
X104690Y73542D01*
X103284Y72135D01*
X99916Y72135D01*
X97535Y74516D01*
X97535Y77884D01*
X99916Y80265D01*
X103284Y80265D01*
X104690Y78858D01*
X104768Y78798D01*
X104840Y78730D01*
X104893Y78701D01*
X104941Y78664D01*
X105032Y78624D01*
X105119Y78576D01*
X105177Y78561D01*
X105233Y78537D01*
X105331Y78522D01*
X105427Y78497D01*
X105527Y78491D01*
X105547Y78487D01*
X105559Y78489D01*
X105587Y78487D01*
X110744Y78487D01*
X110862Y78502D01*
X110981Y78509D01*
X111019Y78522D01*
X111060Y78527D01*
X111170Y78570D01*
X111283Y78607D01*
X111318Y78629D01*
X111355Y78644D01*
X111451Y78713D01*
X111552Y78777D01*
X111580Y78807D01*
X111613Y78830D01*
X111689Y78922D01*
X111770Y79009D01*
X111790Y79044D01*
X111815Y79075D01*
X111866Y79183D01*
X111924Y79287D01*
X111934Y79327D01*
X111951Y79363D01*
X111973Y79480D01*
X112003Y79595D01*
X112007Y79655D01*
X112011Y79675D01*
X112009Y79696D01*
X112013Y79756D01*
X112013Y82786D01*
X113048Y83821D01*
X120124Y83821D01*
X120896Y83049D01*
X120990Y82976D01*
X121079Y82898D01*
X121115Y82879D01*
X121147Y82855D01*
X121256Y82807D01*
X121362Y82753D01*
X121401Y82744D01*
X121439Y82728D01*
X121556Y82709D01*
X121672Y82683D01*
X121713Y82685D01*
X121753Y82678D01*
X121871Y82689D01*
X121990Y82693D01*
X122029Y82704D01*
X122069Y82708D01*
X122181Y82748D01*
X122296Y82782D01*
X122331Y82802D01*
X122369Y82816D01*
X122467Y82883D01*
X122570Y82943D01*
X122615Y82983D01*
X122632Y82994D01*
X122645Y83010D01*
X122691Y83049D01*
X123834Y84193D01*
X123894Y84271D01*
X123962Y84343D01*
X123991Y84396D01*
X124028Y84444D01*
X124068Y84535D01*
X124116Y84621D01*
X124131Y84680D01*
X124155Y84736D01*
X124170Y84834D01*
X124195Y84929D01*
X124201Y85029D01*
X124205Y85050D01*
X124203Y85062D01*
X124205Y85090D01*
X124205Y91328D01*
X128914Y96036D01*
X128974Y96114D01*
X129042Y96186D01*
X129071Y96239D01*
X129108Y96287D01*
X129148Y96378D01*
X129196Y96465D01*
X129211Y96523D01*
X129235Y96579D01*
X129250Y96677D01*
X129275Y96773D01*
X129281Y96873D01*
X129285Y96893D01*
X129283Y96905D01*
X129285Y96933D01*
X129285Y98204D01*
X130184Y99102D01*
X130244Y99180D01*
X130312Y99252D01*
X130341Y99305D01*
X130378Y99353D01*
X130418Y99444D01*
X130466Y99531D01*
X130481Y99589D01*
X130505Y99645D01*
X130520Y99743D01*
X130545Y99839D01*
X130551Y99939D01*
X130555Y99959D01*
X130553Y99971D01*
X130555Y99999D01*
X130555Y150876D01*
X130540Y150994D01*
X130533Y151113D01*
X130520Y151151D01*
X130515Y151192D01*
X130472Y151302D01*
X130435Y151415D01*
X130413Y151450D01*
X130398Y151487D01*
X130329Y151583D01*
X130265Y151684D01*
X130235Y151712D01*
X130212Y151745D01*
X130120Y151821D01*
X130033Y151902D01*
X129998Y151922D01*
X129967Y151947D01*
X129859Y151998D01*
X129755Y152056D01*
X129715Y152066D01*
X129679Y152083D01*
X129562Y152105D01*
X129447Y152135D01*
X129387Y152139D01*
X129367Y152143D01*
X129346Y152141D01*
X129286Y152145D01*
X124129Y152145D01*
X124031Y152133D01*
X123932Y152130D01*
X123874Y152113D01*
X123814Y152105D01*
X123722Y152069D01*
X123627Y152041D01*
X123575Y152011D01*
X123518Y151988D01*
X123438Y151930D01*
X123353Y151880D01*
X123277Y151814D01*
X123261Y151802D01*
X123253Y151792D01*
X123232Y151774D01*
X122334Y150875D01*
X118966Y150875D01*
X116585Y153256D01*
X116585Y156624D01*
X118966Y159005D01*
X122334Y159005D01*
X123232Y158106D01*
X123310Y158046D01*
X123382Y157978D01*
X123435Y157949D01*
X123483Y157912D01*
X123574Y157872D01*
X123661Y157824D01*
X123719Y157809D01*
X123775Y157785D01*
X123873Y157770D01*
X123969Y157745D01*
X124069Y157739D01*
X124089Y157735D01*
X124101Y157737D01*
X124129Y157735D01*
X129871Y157735D01*
X129969Y157747D01*
X130068Y157750D01*
X130126Y157767D01*
X130186Y157775D01*
X130278Y157811D01*
X130373Y157839D01*
X130425Y157869D01*
X130482Y157892D01*
X130562Y157950D01*
X130647Y158000D01*
X130723Y158066D01*
X130739Y158078D01*
X130747Y158088D01*
X130768Y158106D01*
X131666Y159005D01*
X135034Y159005D01*
X137415Y156624D01*
X137415Y153256D01*
X136516Y152358D01*
X136456Y152280D01*
X136388Y152208D01*
X136359Y152155D01*
X136322Y152107D01*
X136282Y152016D01*
X136234Y151929D01*
X136219Y151871D01*
X136195Y151815D01*
X136180Y151717D01*
X136155Y151621D01*
X136149Y151521D01*
X136145Y151501D01*
X136147Y151489D01*
X136145Y151461D01*
X136145Y99999D01*
X136157Y99901D01*
X136160Y99802D01*
X136177Y99744D01*
X136185Y99684D01*
X136221Y99592D01*
X136249Y99497D01*
X136279Y99445D01*
X136302Y99388D01*
X136360Y99308D01*
X136410Y99223D01*
X136476Y99147D01*
X136488Y99131D01*
X136498Y99123D01*
X136516Y99102D01*
X137415Y98204D01*
X137415Y94836D01*
X135034Y92455D01*
X133763Y92455D01*
X133665Y92443D01*
X133566Y92440D01*
X133508Y92423D01*
X133448Y92415D01*
X133356Y92379D01*
X133261Y92351D01*
X133208Y92321D01*
X133152Y92298D01*
X133072Y92240D01*
X132987Y92190D01*
X132911Y92124D01*
X132895Y92112D01*
X132887Y92102D01*
X132866Y92084D01*
X130166Y89384D01*
X130106Y89306D01*
X130038Y89234D01*
X130009Y89181D01*
X129972Y89133D01*
X129932Y89042D01*
X129884Y88955D01*
X129869Y88897D01*
X129845Y88841D01*
X129830Y88743D01*
X129805Y88647D01*
X129799Y88547D01*
X129795Y88527D01*
X129797Y88515D01*
X129795Y88487D01*
X129795Y85090D01*
X129807Y84992D01*
X129810Y84893D01*
X129827Y84835D01*
X129835Y84774D01*
X129871Y84682D01*
X129899Y84587D01*
X129929Y84535D01*
X129952Y84479D01*
X130010Y84399D01*
X130060Y84313D01*
X130126Y84238D01*
X130138Y84221D01*
X130148Y84214D01*
X130166Y84192D01*
X131310Y83049D01*
X131404Y82976D01*
X131493Y82898D01*
X131529Y82879D01*
X131561Y82855D01*
X131670Y82807D01*
X131776Y82753D01*
X131815Y82744D01*
X131853Y82728D01*
X131970Y82709D01*
X132086Y82683D01*
X132127Y82685D01*
X132167Y82678D01*
X132285Y82689D01*
X132404Y82693D01*
X132443Y82704D01*
X132483Y82708D01*
X132595Y82748D01*
X132710Y82782D01*
X132745Y82802D01*
X132783Y82816D01*
X132881Y82883D01*
X132984Y82943D01*
X133029Y82983D01*
X133046Y82994D01*
X133059Y83010D01*
X133105Y83049D01*
X133876Y83821D01*
X140952Y83821D01*
X141987Y82786D01*
X141987Y79756D01*
X142002Y79638D01*
X142009Y79519D01*
X142022Y79481D01*
X142027Y79440D01*
X142070Y79330D01*
X142107Y79217D01*
X142129Y79182D01*
X142144Y79145D01*
X142213Y79049D01*
X142277Y78948D01*
X142307Y78920D01*
X142330Y78887D01*
X142422Y78811D01*
X142509Y78730D01*
X142544Y78710D01*
X142575Y78685D01*
X142683Y78634D01*
X142787Y78576D01*
X142827Y78566D01*
X142863Y78549D01*
X142980Y78527D01*
X143095Y78497D01*
X143155Y78493D01*
X143175Y78489D01*
X143196Y78491D01*
X143256Y78487D01*
X146304Y78487D01*
X146422Y78502D01*
X146541Y78509D01*
X146579Y78522D01*
X146620Y78527D01*
X146730Y78570D01*
X146843Y78607D01*
X146878Y78629D01*
X146915Y78644D01*
X147011Y78713D01*
X147112Y78777D01*
X147140Y78807D01*
X147173Y78830D01*
X147249Y78922D01*
X147330Y79009D01*
X147350Y79044D01*
X147375Y79075D01*
X147426Y79183D01*
X147484Y79287D01*
X147494Y79327D01*
X147511Y79363D01*
X147533Y79480D01*
X147563Y79595D01*
X147567Y79655D01*
X147571Y79675D01*
X147569Y79696D01*
X147573Y79756D01*
X147573Y79833D01*
X147561Y79931D01*
X147558Y80030D01*
X147541Y80088D01*
X147533Y80148D01*
X147497Y80240D01*
X147469Y80335D01*
X147439Y80387D01*
X147416Y80444D01*
X147358Y80524D01*
X147308Y80609D01*
X147242Y80685D01*
X147230Y80701D01*
X147220Y80709D01*
X147202Y80730D01*
X145795Y82136D01*
X145795Y85504D01*
X148176Y87885D01*
X151544Y87885D01*
X153925Y85504D01*
X153925Y82136D01*
X152518Y80730D01*
X152458Y80652D01*
X152390Y80580D01*
X152361Y80527D01*
X152324Y80479D01*
X152284Y80388D01*
X152236Y80301D01*
X152221Y80243D01*
X152197Y80187D01*
X152182Y80089D01*
X152157Y79993D01*
X152151Y79893D01*
X152147Y79873D01*
X152149Y79861D01*
X152147Y79833D01*
X152147Y76523D01*
X149537Y73913D01*
X143256Y73913D01*
X143138Y73898D01*
X143019Y73891D01*
X142981Y73878D01*
X142940Y73873D01*
X142830Y73830D01*
X142717Y73793D01*
X142682Y73771D01*
X142645Y73756D01*
X142549Y73687D01*
X142448Y73623D01*
X142420Y73593D01*
X142387Y73570D01*
X142311Y73478D01*
X142230Y73391D01*
X142210Y73356D01*
X142185Y73325D01*
X142134Y73217D01*
X142076Y73113D01*
X142066Y73073D01*
X142049Y73037D01*
X142027Y72920D01*
X141997Y72805D01*
X141993Y72745D01*
X141989Y72725D01*
X141991Y72704D01*
X141987Y72644D01*
X141987Y69582D01*
X141931Y69515D01*
X141922Y69496D01*
X141910Y69480D01*
X141854Y69353D01*
X141795Y69227D01*
X141791Y69207D01*
X141783Y69188D01*
X141761Y69051D01*
X141735Y68914D01*
X141736Y68894D01*
X141733Y68874D01*
X141746Y68736D01*
X141755Y68597D01*
X141761Y68578D01*
X141763Y68558D01*
X141810Y68427D01*
X141853Y68295D01*
X141864Y68277D01*
X141871Y68258D01*
X141949Y68143D01*
X142023Y68026D01*
X142038Y68012D01*
X142049Y67995D01*
X142153Y67903D01*
X142255Y67808D01*
X142273Y67798D01*
X142288Y67785D01*
X142411Y67722D01*
X142533Y67654D01*
X142553Y67649D01*
X142571Y67640D01*
X142707Y67610D01*
X142841Y67575D01*
X142869Y67573D01*
X142881Y67570D01*
X142902Y67571D01*
X143002Y67565D01*
X185751Y67565D01*
X185849Y67577D01*
X185948Y67580D01*
X186006Y67597D01*
X186066Y67605D01*
X186158Y67641D01*
X186253Y67669D01*
X186306Y67699D01*
X186362Y67722D01*
X186442Y67780D01*
X186527Y67830D01*
X186602Y67896D01*
X186619Y67908D01*
X186627Y67918D01*
X186648Y67937D01*
X187546Y68835D01*
X190914Y68835D01*
X193295Y66454D01*
X193295Y63086D01*
X190914Y60705D01*
X187546Y60705D01*
X186648Y61603D01*
X186570Y61664D01*
X186498Y61732D01*
X186445Y61761D01*
X186397Y61798D01*
X186306Y61838D01*
X186219Y61886D01*
X186161Y61901D01*
X186105Y61925D01*
X186007Y61940D01*
X185911Y61965D01*
X185811Y61971D01*
X185791Y61975D01*
X185779Y61973D01*
X185751Y61975D01*
X85344Y61975D01*
X85226Y61960D01*
X85107Y61953D01*
X85069Y61940D01*
X85028Y61935D01*
X84918Y61892D01*
X84805Y61855D01*
X84770Y61833D01*
X84733Y61818D01*
X84637Y61749D01*
X84536Y61685D01*
X84508Y61655D01*
X84475Y61632D01*
X84399Y61540D01*
X84318Y61453D01*
X84298Y61418D01*
X84273Y61387D01*
X84222Y61279D01*
X84164Y61175D01*
X84154Y61135D01*
X84137Y61099D01*
X84115Y60982D01*
X84085Y60867D01*
X84081Y60807D01*
X84077Y60787D01*
X84079Y60766D01*
X84075Y60706D01*
X84075Y24149D01*
X84081Y24099D01*
X84079Y24050D01*
X84101Y23942D01*
X84115Y23833D01*
X84133Y23787D01*
X84143Y23738D01*
X84191Y23639D01*
X84232Y23537D01*
X84261Y23497D01*
X84283Y23453D01*
X84354Y23369D01*
X84418Y23280D01*
X84457Y23248D01*
X84489Y23211D01*
X84579Y23147D01*
X84663Y23077D01*
X84708Y23056D01*
X84749Y23027D01*
X84852Y22988D01*
X84951Y22942D01*
X85000Y22932D01*
X85046Y22915D01*
X85156Y22903D01*
X85263Y22882D01*
X85313Y22885D01*
X85362Y22879D01*
X85471Y22895D01*
X85581Y22902D01*
X85628Y22917D01*
X85677Y22924D01*
X85830Y22976D01*
X86778Y23369D01*
X91022Y23369D01*
X94943Y21745D01*
X97945Y18743D01*
X99569Y14822D01*
X99569Y10578D01*
X97945Y6657D01*
X96249Y4961D01*
X96164Y4852D01*
X96075Y4745D01*
X96067Y4726D01*
X96054Y4710D01*
X95999Y4582D01*
X95940Y4457D01*
X95936Y4437D01*
X95928Y4418D01*
X95906Y4280D01*
X95880Y4144D01*
X95881Y4124D01*
X95878Y4104D01*
X95891Y3965D01*
X95900Y3827D01*
X95906Y3808D01*
X95908Y3788D01*
X95955Y3656D01*
X95998Y3525D01*
X96009Y3507D01*
X96016Y3488D01*
X96094Y3373D01*
X96168Y3256D01*
X96183Y3242D01*
X96194Y3225D01*
X96298Y3133D01*
X96400Y3038D01*
X96417Y3028D01*
X96433Y3015D01*
X96557Y2951D01*
X96678Y2884D01*
X96698Y2879D01*
X96716Y2870D01*
X96852Y2840D01*
X96986Y2805D01*
X97014Y2803D01*
X97026Y2800D01*
X97047Y2801D01*
X97147Y2795D01*
X106053Y2795D01*
X106191Y2812D01*
X106330Y2825D01*
X106349Y2832D01*
X106369Y2835D01*
X106498Y2886D01*
X106629Y2933D01*
X106646Y2944D01*
X106664Y2952D01*
X106777Y3033D01*
X106892Y3111D01*
X106905Y3127D01*
X106922Y3138D01*
X107011Y3246D01*
X107102Y3350D01*
X107112Y3368D01*
X107125Y3383D01*
X107184Y3509D01*
X107247Y3633D01*
X107251Y3653D01*
X107260Y3671D01*
X107286Y3808D01*
X107317Y3943D01*
X107316Y3964D01*
X107320Y3983D01*
X107311Y4122D01*
X107307Y4261D01*
X107301Y4281D01*
X107300Y4301D01*
X107257Y4433D01*
X107219Y4567D01*
X107208Y4584D01*
X107202Y4603D01*
X107127Y4721D01*
X107057Y4841D01*
X107039Y4862D01*
X107032Y4872D01*
X107017Y4886D01*
X106951Y4961D01*
X105255Y6657D01*
X103631Y10578D01*
X103631Y14822D01*
X105255Y18743D01*
X108257Y21745D01*
X112178Y23369D01*
X116422Y23369D01*
X120343Y21745D01*
X123345Y18743D01*
X124969Y14822D01*
X124969Y10578D01*
X123345Y6657D01*
X121649Y4961D01*
X121564Y4852D01*
X121475Y4745D01*
X121467Y4726D01*
X121454Y4710D01*
X121399Y4582D01*
X121340Y4457D01*
X121336Y4437D01*
X121328Y4418D01*
X121306Y4280D01*
X121280Y4144D01*
X121281Y4124D01*
X121278Y4104D01*
X121291Y3965D01*
X121300Y3827D01*
X121306Y3808D01*
X121308Y3788D01*
X121355Y3656D01*
X121398Y3525D01*
X121409Y3507D01*
X121416Y3488D01*
X121494Y3373D01*
X121568Y3256D01*
X121583Y3242D01*
X121594Y3225D01*
X121698Y3133D01*
X121800Y3038D01*
X121817Y3028D01*
X121833Y3015D01*
X121957Y2951D01*
X122078Y2884D01*
X122098Y2879D01*
X122116Y2870D01*
X122252Y2840D01*
X122386Y2805D01*
X122414Y2803D01*
X122426Y2800D01*
X122447Y2801D01*
X122547Y2795D01*
X131453Y2795D01*
X131591Y2812D01*
X131730Y2825D01*
X131749Y2832D01*
X131769Y2835D01*
X131898Y2886D01*
X132029Y2933D01*
X132046Y2944D01*
X132064Y2952D01*
X132177Y3033D01*
X132292Y3111D01*
X132305Y3127D01*
X132322Y3138D01*
X132411Y3246D01*
X132502Y3350D01*
X132512Y3368D01*
X132525Y3383D01*
X132584Y3509D01*
X132647Y3633D01*
X132651Y3653D01*
X132660Y3671D01*
X132686Y3808D01*
X132717Y3943D01*
X132716Y3964D01*
X132720Y3983D01*
X132711Y4122D01*
X132707Y4261D01*
X132701Y4281D01*
X132700Y4301D01*
X132657Y4433D01*
X132619Y4567D01*
X132608Y4584D01*
X132602Y4603D01*
X132527Y4721D01*
X132457Y4841D01*
X132439Y4862D01*
X132432Y4872D01*
X132417Y4886D01*
X132351Y4961D01*
X130655Y6657D01*
X129031Y10578D01*
X129031Y14822D01*
X130655Y18743D01*
X133657Y21745D01*
X137578Y23369D01*
X141822Y23369D01*
X145743Y21745D01*
X148745Y18743D01*
X150369Y14822D01*
X150369Y10578D01*
X148745Y6657D01*
X147049Y4961D01*
X146964Y4852D01*
X146875Y4745D01*
X146867Y4726D01*
X146854Y4710D01*
X146799Y4582D01*
X146740Y4457D01*
X146736Y4437D01*
X146728Y4418D01*
X146706Y4280D01*
X146680Y4144D01*
X146681Y4124D01*
X146678Y4104D01*
X146691Y3965D01*
X146700Y3827D01*
X146706Y3808D01*
X146708Y3788D01*
X146755Y3656D01*
X146798Y3525D01*
X146809Y3507D01*
X146816Y3488D01*
X146894Y3373D01*
X146968Y3256D01*
X146983Y3242D01*
X146994Y3225D01*
X147098Y3133D01*
X147200Y3038D01*
X147217Y3028D01*
X147233Y3015D01*
X147357Y2951D01*
X147478Y2884D01*
X147498Y2879D01*
X147516Y2870D01*
X147652Y2840D01*
X147786Y2805D01*
X147814Y2803D01*
X147826Y2800D01*
X147847Y2801D01*
X147947Y2795D01*
X156853Y2795D01*
X156991Y2812D01*
X157130Y2825D01*
X157149Y2832D01*
X157169Y2835D01*
X157298Y2886D01*
X157429Y2933D01*
X157446Y2944D01*
X157464Y2952D01*
X157577Y3033D01*
X157692Y3111D01*
X157705Y3127D01*
X157722Y3138D01*
X157811Y3246D01*
X157902Y3350D01*
X157912Y3368D01*
X157925Y3383D01*
X157984Y3509D01*
X158047Y3633D01*
X158051Y3653D01*
X158060Y3671D01*
X158086Y3808D01*
X158117Y3943D01*
X158116Y3964D01*
X158120Y3983D01*
X158111Y4122D01*
X158107Y4261D01*
X158101Y4281D01*
X158100Y4301D01*
X158057Y4433D01*
X158019Y4567D01*
X158008Y4584D01*
X158002Y4603D01*
X157927Y4721D01*
X157857Y4841D01*
X157839Y4862D01*
X157832Y4872D01*
X157817Y4886D01*
X157751Y4961D01*
X156055Y6657D01*
X154431Y10578D01*
X154431Y14822D01*
X156055Y18743D01*
X159057Y21745D01*
X161873Y22911D01*
X161916Y22936D01*
X161963Y22953D01*
X162054Y23014D01*
X162149Y23069D01*
X162185Y23103D01*
X162226Y23131D01*
X162299Y23213D01*
X162378Y23290D01*
X162404Y23332D01*
X162437Y23370D01*
X162487Y23467D01*
X162544Y23561D01*
X162559Y23608D01*
X162581Y23653D01*
X162605Y23760D01*
X162638Y23865D01*
X162640Y23915D01*
X162651Y23963D01*
X162647Y24073D01*
X162653Y24183D01*
X162643Y24231D01*
X162641Y24281D01*
X162611Y24386D01*
X162588Y24494D01*
X162567Y24539D01*
X162553Y24586D01*
X162497Y24681D01*
X162449Y24780D01*
X162416Y24818D01*
X162391Y24860D01*
X162285Y24981D01*
X159445Y27822D01*
X159366Y27882D01*
X159294Y27950D01*
X159241Y27979D01*
X159193Y28016D01*
X159102Y28056D01*
X159016Y28104D01*
X158957Y28119D01*
X158901Y28143D01*
X158803Y28158D01*
X158708Y28183D01*
X158608Y28189D01*
X158587Y28193D01*
X158575Y28191D01*
X158547Y28193D01*
X119557Y28193D01*
X119459Y28181D01*
X119360Y28178D01*
X119302Y28161D01*
X119242Y28153D01*
X119150Y28117D01*
X119055Y28089D01*
X119003Y28059D01*
X118946Y28036D01*
X118866Y27978D01*
X118781Y27928D01*
X118705Y27862D01*
X118689Y27850D01*
X118681Y27840D01*
X118675Y27836D01*
X118672Y27833D01*
X118660Y27822D01*
X117254Y26415D01*
X113886Y26415D01*
X111505Y28796D01*
X111505Y32164D01*
X113886Y34545D01*
X117254Y34545D01*
X118660Y33138D01*
X118738Y33078D01*
X118810Y33010D01*
X118863Y32981D01*
X118911Y32944D01*
X119002Y32904D01*
X119089Y32856D01*
X119147Y32841D01*
X119203Y32817D01*
X119301Y32802D01*
X119397Y32777D01*
X119497Y32771D01*
X119517Y32767D01*
X119529Y32769D01*
X119557Y32767D01*
X119711Y32767D01*
X119848Y32784D01*
X119987Y32797D01*
X120006Y32804D01*
X120026Y32807D01*
X120155Y32858D01*
X120286Y32905D01*
X120303Y32916D01*
X120322Y32924D01*
X120434Y33005D01*
X120549Y33083D01*
X120563Y33099D01*
X120579Y33110D01*
X120668Y33218D01*
X120760Y33322D01*
X120769Y33340D01*
X120782Y33355D01*
X120841Y33481D01*
X120904Y33605D01*
X120909Y33625D01*
X120918Y33643D01*
X120944Y33780D01*
X120974Y33915D01*
X120974Y33936D01*
X120977Y33955D01*
X120969Y34094D01*
X120964Y34233D01*
X120959Y34253D01*
X120958Y34273D01*
X120915Y34405D01*
X120876Y34539D01*
X120866Y34556D01*
X120860Y34575D01*
X120785Y34693D01*
X120715Y34813D01*
X120696Y34834D01*
X120689Y34844D01*
X120674Y34858D01*
X120608Y34933D01*
X119125Y36416D01*
X119125Y39784D01*
X119338Y39996D01*
X119423Y40106D01*
X119512Y40213D01*
X119521Y40232D01*
X119533Y40248D01*
X119588Y40376D01*
X119648Y40501D01*
X119651Y40521D01*
X119659Y40540D01*
X119681Y40678D01*
X119707Y40814D01*
X119706Y40834D01*
X119709Y40854D01*
X119696Y40993D01*
X119688Y41131D01*
X119681Y41150D01*
X119679Y41170D01*
X119632Y41301D01*
X119590Y41433D01*
X119579Y41451D01*
X119572Y41470D01*
X119494Y41584D01*
X119419Y41702D01*
X119405Y41716D01*
X119393Y41733D01*
X119289Y41825D01*
X119188Y41920D01*
X119170Y41930D01*
X119155Y41943D01*
X119031Y42006D01*
X118909Y42074D01*
X118890Y42079D01*
X118872Y42088D01*
X118736Y42118D01*
X118601Y42153D01*
X118573Y42155D01*
X118561Y42158D01*
X118541Y42157D01*
X118441Y42163D01*
X117017Y42163D01*
X116919Y42151D01*
X116820Y42148D01*
X116762Y42131D01*
X116702Y42123D01*
X116610Y42087D01*
X116515Y42059D01*
X116463Y42029D01*
X116406Y42006D01*
X116326Y41948D01*
X116241Y41898D01*
X116165Y41832D01*
X116149Y41820D01*
X116141Y41810D01*
X116120Y41792D01*
X114714Y40385D01*
X111346Y40385D01*
X108965Y42766D01*
X108965Y46134D01*
X111346Y48515D01*
X114714Y48515D01*
X116120Y47108D01*
X116198Y47048D01*
X116270Y46980D01*
X116323Y46951D01*
X116371Y46914D01*
X116462Y46874D01*
X116549Y46826D01*
X116607Y46811D01*
X116663Y46787D01*
X116761Y46772D01*
X116857Y46747D01*
X116957Y46741D01*
X116977Y46737D01*
X116989Y46739D01*
X117017Y46737D01*
X168733Y46737D01*
X168831Y46749D01*
X168930Y46752D01*
X168988Y46769D01*
X169048Y46777D01*
X169140Y46813D01*
X169235Y46841D01*
X169287Y46871D01*
X169344Y46894D01*
X169424Y46952D01*
X169509Y47002D01*
X169585Y47068D01*
X169601Y47080D01*
X169609Y47090D01*
X169630Y47108D01*
X171036Y48515D01*
X174404Y48515D01*
X176785Y46134D01*
X176785Y42766D01*
X174404Y40385D01*
X171036Y40385D01*
X169630Y41792D01*
X169552Y41852D01*
X169480Y41920D01*
X169427Y41949D01*
X169379Y41986D01*
X169288Y42026D01*
X169201Y42074D01*
X169143Y42089D01*
X169087Y42113D01*
X168989Y42128D01*
X168893Y42153D01*
X168793Y42159D01*
X168773Y42163D01*
X168761Y42161D01*
X168733Y42163D01*
X167309Y42163D01*
X167171Y42146D01*
X167033Y42133D01*
X167014Y42126D01*
X166994Y42123D01*
X166864Y42072D01*
X166734Y42025D01*
X166717Y42014D01*
X166698Y42006D01*
X166586Y41925D01*
X166471Y41847D01*
X166457Y41831D01*
X166441Y41820D01*
X166352Y41712D01*
X166260Y41608D01*
X166251Y41590D01*
X166238Y41575D01*
X166179Y41449D01*
X166115Y41325D01*
X166111Y41305D01*
X166102Y41287D01*
X166076Y41151D01*
X166046Y41015D01*
X166046Y40994D01*
X166043Y40975D01*
X166051Y40836D01*
X166056Y40697D01*
X166061Y40677D01*
X166062Y40657D01*
X166105Y40525D01*
X166144Y40391D01*
X166154Y40374D01*
X166160Y40355D01*
X166235Y40237D01*
X166305Y40117D01*
X166324Y40096D01*
X166331Y40086D01*
X166346Y40072D01*
X166412Y39996D01*
X166625Y39784D01*
X166625Y36416D01*
X164244Y34035D01*
X162763Y34035D01*
X162625Y34018D01*
X162487Y34005D01*
X162468Y33998D01*
X162447Y33995D01*
X162318Y33944D01*
X162187Y33897D01*
X162170Y33886D01*
X162152Y33878D01*
X162039Y33797D01*
X161924Y33719D01*
X161911Y33703D01*
X161894Y33692D01*
X161806Y33584D01*
X161714Y33480D01*
X161704Y33462D01*
X161692Y33447D01*
X161632Y33321D01*
X161569Y33197D01*
X161565Y33177D01*
X161556Y33159D01*
X161530Y33022D01*
X161499Y32887D01*
X161500Y32866D01*
X161496Y32847D01*
X161505Y32708D01*
X161509Y32569D01*
X161515Y32549D01*
X161516Y32529D01*
X161559Y32397D01*
X161597Y32263D01*
X161608Y32246D01*
X161614Y32227D01*
X161688Y32109D01*
X161759Y31989D01*
X161778Y31968D01*
X161784Y31958D01*
X161799Y31944D01*
X161865Y31869D01*
X162678Y31056D01*
X162678Y31055D01*
X167387Y26347D01*
X167387Y24149D01*
X167390Y24119D01*
X167388Y24090D01*
X167410Y23962D01*
X167427Y23833D01*
X167437Y23806D01*
X167442Y23777D01*
X167496Y23658D01*
X167544Y23537D01*
X167561Y23514D01*
X167573Y23487D01*
X167654Y23385D01*
X167730Y23280D01*
X167753Y23261D01*
X167772Y23238D01*
X167875Y23160D01*
X167975Y23077D01*
X168002Y23065D01*
X168026Y23047D01*
X168170Y22976D01*
X171143Y21745D01*
X174145Y18743D01*
X175769Y14822D01*
X175769Y10578D01*
X174145Y6657D01*
X172449Y4961D01*
X172364Y4852D01*
X172275Y4745D01*
X172267Y4726D01*
X172254Y4710D01*
X172199Y4582D01*
X172140Y4457D01*
X172136Y4437D01*
X172128Y4418D01*
X172106Y4280D01*
X172080Y4144D01*
X172081Y4124D01*
X172078Y4104D01*
X172091Y3965D01*
X172100Y3827D01*
X172106Y3808D01*
X172108Y3788D01*
X172155Y3656D01*
X172198Y3525D01*
X172209Y3507D01*
X172216Y3488D01*
X172294Y3373D01*
X172368Y3256D01*
X172383Y3242D01*
X172394Y3225D01*
X172498Y3133D01*
X172600Y3038D01*
X172617Y3028D01*
X172633Y3015D01*
X172757Y2951D01*
X172878Y2884D01*
X172898Y2879D01*
X172916Y2870D01*
X173052Y2840D01*
X173186Y2805D01*
X173214Y2803D01*
X173226Y2800D01*
X173247Y2801D01*
X173347Y2795D01*
X182253Y2795D01*
X182391Y2812D01*
X182530Y2825D01*
X182549Y2832D01*
X182569Y2835D01*
X182698Y2886D01*
X182829Y2933D01*
X182846Y2944D01*
X182864Y2952D01*
X182977Y3033D01*
X183092Y3111D01*
X183105Y3127D01*
X183122Y3138D01*
X183211Y3246D01*
X183302Y3350D01*
X183312Y3368D01*
X183325Y3383D01*
X183384Y3509D01*
X183447Y3633D01*
X183451Y3653D01*
X183460Y3671D01*
X183486Y3808D01*
X183517Y3943D01*
X183516Y3964D01*
X183520Y3983D01*
X183511Y4122D01*
X183507Y4261D01*
X183501Y4281D01*
X183500Y4301D01*
X183457Y4433D01*
X183419Y4567D01*
X183408Y4584D01*
X183402Y4603D01*
X183327Y4721D01*
X183257Y4841D01*
X183239Y4862D01*
X183232Y4872D01*
X183217Y4886D01*
X183151Y4961D01*
X181455Y6657D01*
X179831Y10578D01*
X179831Y14822D01*
X181455Y18743D01*
X184457Y21745D01*
X188378Y23369D01*
X192622Y23369D01*
X196543Y21745D01*
X199545Y18743D01*
X201169Y14822D01*
X201169Y10578D01*
X199545Y6657D01*
X197849Y4961D01*
X197764Y4852D01*
X197675Y4745D01*
X197667Y4726D01*
X197654Y4710D01*
X197599Y4582D01*
X197540Y4457D01*
X197536Y4437D01*
X197528Y4418D01*
X197506Y4280D01*
X197480Y4144D01*
X197481Y4124D01*
X197478Y4104D01*
X197491Y3965D01*
X197500Y3827D01*
X197506Y3808D01*
X197508Y3788D01*
X197555Y3656D01*
X197598Y3525D01*
X197609Y3507D01*
X197616Y3488D01*
X197694Y3373D01*
X197768Y3256D01*
X197783Y3242D01*
X197794Y3225D01*
X197898Y3133D01*
X198000Y3038D01*
X198017Y3028D01*
X198033Y3015D01*
X198157Y2951D01*
X198278Y2884D01*
X198298Y2879D01*
X198316Y2870D01*
X198452Y2840D01*
X198586Y2805D01*
X198614Y2803D01*
X198626Y2800D01*
X198647Y2801D01*
X198747Y2795D01*
X207653Y2795D01*
X207791Y2812D01*
X207930Y2825D01*
X207949Y2832D01*
X207969Y2835D01*
X208098Y2886D01*
X208229Y2933D01*
X208246Y2944D01*
X208264Y2952D01*
X208377Y3033D01*
X208492Y3111D01*
X208505Y3127D01*
X208522Y3138D01*
X208611Y3246D01*
X208702Y3350D01*
X208712Y3368D01*
X208725Y3383D01*
X208784Y3509D01*
X208847Y3633D01*
X208851Y3653D01*
X208860Y3671D01*
X208886Y3808D01*
X208917Y3943D01*
X208916Y3964D01*
X208920Y3983D01*
X208911Y4122D01*
X208907Y4261D01*
X208901Y4281D01*
X208900Y4301D01*
X208857Y4433D01*
X208819Y4567D01*
X208808Y4584D01*
X208802Y4603D01*
X208727Y4721D01*
X208657Y4841D01*
X208639Y4862D01*
X208632Y4872D01*
X208617Y4886D01*
X208551Y4961D01*
X206855Y6657D01*
X205231Y10578D01*
X205231Y14822D01*
X206855Y18743D01*
X209857Y21745D01*
X213778Y23369D01*
X218022Y23369D01*
X221943Y21745D01*
X224945Y18743D01*
X226569Y14822D01*
X226569Y10578D01*
X224945Y6657D01*
X223249Y4961D01*
X223164Y4852D01*
X223075Y4745D01*
X223067Y4726D01*
X223054Y4710D01*
X222999Y4582D01*
X222940Y4457D01*
X222936Y4437D01*
X222928Y4418D01*
X222906Y4280D01*
X222880Y4144D01*
X222881Y4124D01*
X222878Y4104D01*
X222891Y3965D01*
X222900Y3827D01*
X222906Y3808D01*
X222908Y3788D01*
X222955Y3656D01*
X222998Y3525D01*
X223009Y3507D01*
X223016Y3488D01*
X223094Y3373D01*
X223168Y3256D01*
X223183Y3242D01*
X223194Y3225D01*
X223298Y3133D01*
X223400Y3038D01*
X223417Y3028D01*
X223433Y3015D01*
X223557Y2951D01*
X223678Y2884D01*
X223698Y2879D01*
X223716Y2870D01*
X223852Y2840D01*
X223986Y2805D01*
X224014Y2803D01*
X224026Y2800D01*
X224047Y2801D01*
X224147Y2795D01*
X233053Y2795D01*
X233191Y2812D01*
X233330Y2825D01*
X233349Y2832D01*
X233369Y2835D01*
X233498Y2886D01*
X233629Y2933D01*
X233646Y2944D01*
X233664Y2952D01*
X233777Y3033D01*
X233892Y3111D01*
X233905Y3127D01*
X233922Y3138D01*
X234011Y3246D01*
X234102Y3350D01*
X234112Y3368D01*
X234125Y3383D01*
X234184Y3509D01*
X234247Y3633D01*
X234251Y3653D01*
X234260Y3671D01*
X234286Y3808D01*
X234317Y3943D01*
X234316Y3964D01*
X234320Y3983D01*
X234311Y4122D01*
X234307Y4261D01*
X234301Y4281D01*
X234300Y4301D01*
X234257Y4433D01*
X234219Y4567D01*
X234208Y4584D01*
X234202Y4603D01*
X234127Y4721D01*
X234057Y4841D01*
X234039Y4862D01*
X234032Y4872D01*
X234017Y4886D01*
X233951Y4961D01*
X232255Y6657D01*
X230631Y10578D01*
X230631Y14822D01*
X232255Y18743D01*
X235257Y21745D01*
X238073Y22911D01*
X238116Y22936D01*
X238163Y22953D01*
X238254Y23014D01*
X238349Y23069D01*
X238385Y23103D01*
X238426Y23131D01*
X238499Y23213D01*
X238578Y23290D01*
X238604Y23332D01*
X238637Y23370D01*
X238687Y23467D01*
X238744Y23561D01*
X238759Y23608D01*
X238781Y23653D01*
X238805Y23760D01*
X238838Y23865D01*
X238840Y23915D01*
X238851Y23963D01*
X238847Y24073D01*
X238853Y24183D01*
X238843Y24231D01*
X238841Y24281D01*
X238811Y24386D01*
X238788Y24494D01*
X238767Y24539D01*
X238753Y24586D01*
X238697Y24681D01*
X238649Y24780D01*
X238616Y24818D01*
X238591Y24860D01*
X238485Y24981D01*
X233105Y30362D01*
X233026Y30422D01*
X232954Y30490D01*
X232901Y30519D01*
X232853Y30556D01*
X232762Y30596D01*
X232676Y30644D01*
X232617Y30659D01*
X232561Y30683D01*
X232463Y30698D01*
X232368Y30723D01*
X232268Y30729D01*
X232247Y30733D01*
X232235Y30731D01*
X232207Y30733D01*
X210997Y30733D01*
X210899Y30721D01*
X210800Y30718D01*
X210742Y30701D01*
X210682Y30693D01*
X210590Y30657D01*
X210495Y30629D01*
X210443Y30599D01*
X210386Y30576D01*
X210306Y30518D01*
X210221Y30468D01*
X210145Y30402D01*
X210129Y30390D01*
X210121Y30380D01*
X210119Y30378D01*
X210114Y30375D01*
X210112Y30372D01*
X210100Y30362D01*
X208694Y28955D01*
X205326Y28955D01*
X202945Y31336D01*
X202945Y34704D01*
X205326Y37085D01*
X208694Y37085D01*
X210100Y35678D01*
X210178Y35618D01*
X210250Y35550D01*
X210303Y35521D01*
X210351Y35484D01*
X210442Y35444D01*
X210529Y35396D01*
X210587Y35381D01*
X210643Y35357D01*
X210741Y35342D01*
X210837Y35317D01*
X210937Y35311D01*
X210957Y35307D01*
X210969Y35309D01*
X210997Y35307D01*
X234627Y35307D01*
X243587Y26347D01*
X243587Y24149D01*
X243590Y24119D01*
X243588Y24090D01*
X243610Y23962D01*
X243627Y23833D01*
X243637Y23806D01*
X243642Y23777D01*
X243696Y23658D01*
X243744Y23537D01*
X243761Y23514D01*
X243773Y23487D01*
X243854Y23385D01*
X243930Y23280D01*
X243953Y23261D01*
X243972Y23238D01*
X244075Y23160D01*
X244175Y23077D01*
X244202Y23065D01*
X244226Y23047D01*
X244370Y22976D01*
X247343Y21745D01*
X249039Y20049D01*
X249148Y19964D01*
X249255Y19875D01*
X249274Y19867D01*
X249290Y19854D01*
X249418Y19799D01*
X249543Y19740D01*
X249563Y19736D01*
X249582Y19728D01*
X249720Y19706D01*
X249856Y19680D01*
X249876Y19681D01*
X249896Y19678D01*
X250035Y19691D01*
X250173Y19700D01*
X250192Y19706D01*
X250212Y19708D01*
X250344Y19755D01*
X250475Y19798D01*
X250493Y19809D01*
X250512Y19816D01*
X250627Y19894D01*
X250744Y19968D01*
X250758Y19983D01*
X250775Y19994D01*
X250867Y20098D01*
X250962Y20200D01*
X250972Y20217D01*
X250985Y20233D01*
X251049Y20357D01*
X251116Y20478D01*
X251121Y20498D01*
X251130Y20516D01*
X251160Y20652D01*
X251195Y20786D01*
X251197Y20814D01*
X251200Y20826D01*
X251199Y20847D01*
X251205Y20947D01*
X251205Y241854D01*
X251188Y241992D01*
X251175Y242130D01*
X251168Y242149D01*
X251165Y242169D01*
X251114Y242298D01*
X251067Y242429D01*
X251056Y242446D01*
X251048Y242465D01*
X250967Y242577D01*
X250889Y242693D01*
X250873Y242706D01*
X250862Y242722D01*
X250754Y242811D01*
X250650Y242903D01*
X250632Y242912D01*
X250617Y242925D01*
X250491Y242984D01*
X250367Y243048D01*
X250347Y243052D01*
X250329Y243061D01*
X250192Y243087D01*
X250057Y243117D01*
X250036Y243117D01*
X250017Y243121D01*
X249878Y243112D01*
X249739Y243108D01*
X249719Y243102D01*
X249699Y243101D01*
X249567Y243058D01*
X249433Y243019D01*
X249416Y243009D01*
X249397Y243003D01*
X249279Y242928D01*
X249159Y242858D01*
X249138Y242839D01*
X249128Y242833D01*
X249114Y242818D01*
X249039Y242751D01*
X248222Y241934D01*
X245990Y241934D01*
X245852Y241917D01*
X245714Y241904D01*
X245695Y241897D01*
X245675Y241894D01*
X245546Y241843D01*
X245414Y241796D01*
X245398Y241785D01*
X245379Y241777D01*
X245266Y241696D01*
X245151Y241618D01*
X245138Y241602D01*
X245122Y241591D01*
X245033Y241483D01*
X244941Y241379D01*
X244932Y241361D01*
X244919Y241346D01*
X244860Y241220D01*
X244796Y241096D01*
X244792Y241076D01*
X244783Y241058D01*
X244757Y240921D01*
X244727Y240786D01*
X244727Y240765D01*
X244723Y240746D01*
X244732Y240607D01*
X244736Y240468D01*
X244742Y240448D01*
X244743Y240428D01*
X244786Y240296D01*
X244825Y240162D01*
X244835Y240145D01*
X244841Y240126D01*
X244916Y240008D01*
X244986Y239888D01*
X245005Y239867D01*
X245011Y239857D01*
X245026Y239843D01*
X245093Y239767D01*
X245181Y239679D01*
X248159Y232491D01*
X248159Y224709D01*
X245181Y217521D01*
X239679Y212019D01*
X232491Y209041D01*
X224709Y209041D01*
X217521Y212019D01*
X212019Y217521D01*
X209041Y224709D01*
X209041Y232491D01*
X212019Y239679D01*
X217521Y245181D01*
X224709Y248159D01*
X232491Y248159D01*
X239679Y245181D01*
X239767Y245093D01*
X239877Y245008D01*
X239984Y244919D01*
X240003Y244910D01*
X240019Y244898D01*
X240146Y244843D01*
X240272Y244783D01*
X240292Y244779D01*
X240311Y244771D01*
X240448Y244750D01*
X240585Y244723D01*
X240605Y244725D01*
X240625Y244722D01*
X240763Y244735D01*
X240902Y244743D01*
X240921Y244749D01*
X240941Y244751D01*
X241072Y244798D01*
X241204Y244841D01*
X241222Y244852D01*
X241241Y244859D01*
X241356Y244937D01*
X241473Y245011D01*
X241487Y245026D01*
X241504Y245038D01*
X241596Y245142D01*
X241691Y245243D01*
X241701Y245261D01*
X241714Y245276D01*
X241777Y245399D01*
X241845Y245522D01*
X241850Y245541D01*
X241859Y245559D01*
X241889Y245695D01*
X241924Y245829D01*
X241926Y245857D01*
X241929Y245869D01*
X241928Y245890D01*
X241934Y245990D01*
X241934Y248222D01*
X242751Y249039D01*
X242836Y249148D01*
X242925Y249255D01*
X242934Y249274D01*
X242946Y249290D01*
X243001Y249417D01*
X243061Y249543D01*
X243065Y249563D01*
X243073Y249582D01*
X243095Y249720D01*
X243121Y249856D01*
X243119Y249876D01*
X243122Y249896D01*
X243109Y250035D01*
X243101Y250173D01*
X243095Y250192D01*
X243093Y250212D01*
X243045Y250344D01*
X243003Y250475D01*
X242992Y250493D01*
X242985Y250512D01*
X242907Y250627D01*
X242833Y250744D01*
X242818Y250758D01*
X242806Y250775D01*
X242702Y250867D01*
X242601Y250962D01*
X242583Y250972D01*
X242568Y250985D01*
X242444Y251048D01*
X242322Y251116D01*
X242303Y251121D01*
X242285Y251130D01*
X242149Y251160D01*
X242015Y251195D01*
X241986Y251197D01*
X241974Y251200D01*
X241954Y251199D01*
X241854Y251205D01*
X4064Y251205D01*
X3946Y251190D01*
X3827Y251183D01*
X3789Y251170D01*
X3748Y251165D01*
X3638Y251122D01*
X3525Y251085D01*
X3490Y251063D01*
X3453Y251048D01*
X3357Y250979D01*
X3256Y250915D01*
X3228Y250885D01*
X3195Y250862D01*
X3119Y250770D01*
X3038Y250683D01*
X3018Y250648D01*
X2993Y250617D01*
X2942Y250509D01*
X2884Y250405D01*
X2874Y250365D01*
X2857Y250329D01*
X2835Y250212D01*
X2805Y250097D01*
X2801Y250037D01*
X2797Y250017D01*
X2799Y249996D01*
X2795Y249936D01*
X2795Y13335D01*
X2810Y13217D01*
X2817Y13098D01*
X2830Y13060D01*
X2835Y13019D01*
X2878Y12909D01*
X2915Y12796D01*
X2937Y12761D01*
X2952Y12724D01*
X3021Y12628D01*
X3085Y12527D01*
X3115Y12499D01*
X3138Y12466D01*
X3230Y12390D01*
X3317Y12309D01*
X3352Y12289D01*
X3383Y12264D01*
X3491Y12213D01*
X3595Y12155D01*
X3635Y12145D01*
X3671Y12128D01*
X3788Y12106D01*
X3903Y12076D01*
X3963Y12072D01*
X3983Y12068D01*
X4004Y12070D01*
X4064Y12066D01*
X8010Y12066D01*
X8148Y12083D01*
X8286Y12096D01*
X8305Y12103D01*
X8325Y12106D01*
X8454Y12157D01*
X8586Y12204D01*
X8602Y12215D01*
X8621Y12223D01*
X8734Y12304D01*
X8849Y12382D01*
X8862Y12398D01*
X8878Y12409D01*
X8967Y12517D01*
X9059Y12621D01*
X9068Y12639D01*
X9081Y12654D01*
X9140Y12780D01*
X9204Y12904D01*
X9208Y12924D01*
X9217Y12942D01*
X9243Y13079D01*
X9273Y13214D01*
X9273Y13235D01*
X9277Y13254D01*
X9268Y13393D01*
X9264Y13532D01*
X9258Y13552D01*
X9257Y13572D01*
X9214Y13704D01*
X9175Y13838D01*
X9165Y13855D01*
X9159Y13874D01*
X9084Y13992D01*
X9014Y14112D01*
X8995Y14133D01*
X8989Y14143D01*
X8974Y14157D01*
X8907Y14233D01*
X8819Y14321D01*
X5841Y21510D01*
X5841Y29291D01*
X8819Y36479D01*
X14321Y41981D01*
X21509Y44959D01*
X29291Y44959D01*
X36479Y41981D01*
X41981Y36479D01*
X44959Y29291D01*
X44959Y21509D01*
X41981Y14321D01*
X36479Y8819D01*
X29291Y5841D01*
X21509Y5841D01*
X14321Y8819D01*
X12962Y10177D01*
X12853Y10263D01*
X12746Y10351D01*
X12727Y10360D01*
X12711Y10372D01*
X12583Y10428D01*
X12458Y10487D01*
X12438Y10491D01*
X12419Y10499D01*
X12281Y10521D01*
X12145Y10547D01*
X12125Y10545D01*
X12105Y10548D01*
X11966Y10535D01*
X11828Y10527D01*
X11809Y10521D01*
X11789Y10519D01*
X11657Y10471D01*
X11526Y10429D01*
X11508Y10418D01*
X11489Y10411D01*
X11374Y10333D01*
X11257Y10259D01*
X11243Y10244D01*
X11226Y10232D01*
X11134Y10128D01*
X11039Y10027D01*
X11029Y10009D01*
X11016Y9994D01*
X10952Y9870D01*
X10885Y9748D01*
X10880Y9729D01*
X10871Y9711D01*
X10841Y9575D01*
X10806Y9441D01*
X10804Y9412D01*
X10801Y9400D01*
X10802Y9380D01*
X10796Y9280D01*
X10796Y5778D01*
X9979Y4961D01*
X9894Y4852D01*
X9805Y4745D01*
X9796Y4726D01*
X9784Y4710D01*
X9729Y4583D01*
X9669Y4457D01*
X9665Y4437D01*
X9657Y4418D01*
X9635Y4280D01*
X9609Y4144D01*
X9611Y4124D01*
X9608Y4104D01*
X9621Y3965D01*
X9629Y3827D01*
X9635Y3808D01*
X9637Y3788D01*
X9685Y3656D01*
X9727Y3525D01*
X9738Y3507D01*
X9745Y3488D01*
X9823Y3373D01*
X9897Y3256D01*
X9912Y3242D01*
X9924Y3225D01*
X10028Y3133D01*
X10129Y3038D01*
X10147Y3028D01*
X10162Y3015D01*
X10286Y2952D01*
X10408Y2884D01*
X10427Y2879D01*
X10445Y2870D01*
X10581Y2840D01*
X10715Y2805D01*
X10744Y2803D01*
X10756Y2800D01*
X10776Y2801D01*
X10876Y2795D01*
X53457Y2795D01*
X53596Y2812D01*
G37*
%LPC*%
G36*
X21509Y209041D02*
X21509Y209041D01*
X14321Y212019D01*
X8819Y217521D01*
X5841Y224709D01*
X5841Y232491D01*
X8819Y239679D01*
X14321Y245181D01*
X21509Y248159D01*
X29291Y248159D01*
X36479Y245181D01*
X41981Y239679D01*
X44959Y232491D01*
X44959Y224709D01*
X41981Y217521D01*
X36479Y212019D01*
X29290Y209041D01*
X21509Y209041D01*
G37*
%LPD*%
%LPC*%
G36*
X18636Y129285D02*
X18636Y129285D01*
X16255Y131666D01*
X16255Y135034D01*
X17154Y135932D01*
X17214Y136010D01*
X17282Y136082D01*
X17311Y136135D01*
X17348Y136183D01*
X17388Y136274D01*
X17436Y136361D01*
X17451Y136419D01*
X17475Y136475D01*
X17490Y136573D01*
X17515Y136669D01*
X17521Y136769D01*
X17525Y136789D01*
X17523Y136801D01*
X17525Y136829D01*
X17525Y156210D01*
X17510Y156328D01*
X17503Y156447D01*
X17490Y156485D01*
X17485Y156526D01*
X17442Y156636D01*
X17405Y156749D01*
X17383Y156784D01*
X17368Y156821D01*
X17299Y156917D01*
X17235Y157018D01*
X17205Y157046D01*
X17182Y157079D01*
X17090Y157155D01*
X17003Y157236D01*
X16968Y157256D01*
X16937Y157281D01*
X16829Y157332D01*
X16769Y157365D01*
X15620Y158514D01*
X15620Y171686D01*
X16655Y172721D01*
X23731Y172721D01*
X24503Y171949D01*
X24591Y171881D01*
X24626Y171848D01*
X24634Y171844D01*
X24686Y171798D01*
X24722Y171779D01*
X24754Y171755D01*
X24863Y171707D01*
X24969Y171653D01*
X25008Y171644D01*
X25046Y171628D01*
X25163Y171609D01*
X25279Y171583D01*
X25320Y171585D01*
X25360Y171578D01*
X25478Y171589D01*
X25597Y171593D01*
X25636Y171604D01*
X25676Y171608D01*
X25788Y171648D01*
X25903Y171682D01*
X25938Y171702D01*
X25976Y171716D01*
X26074Y171783D01*
X26177Y171843D01*
X26222Y171883D01*
X26239Y171894D01*
X26252Y171910D01*
X26298Y171949D01*
X27069Y172721D01*
X34145Y172721D01*
X35180Y171686D01*
X35180Y168656D01*
X35195Y168538D01*
X35202Y168419D01*
X35215Y168381D01*
X35220Y168340D01*
X35263Y168230D01*
X35300Y168117D01*
X35322Y168082D01*
X35337Y168045D01*
X35406Y167949D01*
X35470Y167848D01*
X35500Y167820D01*
X35523Y167787D01*
X35615Y167711D01*
X35702Y167630D01*
X35737Y167610D01*
X35768Y167585D01*
X35876Y167534D01*
X35980Y167476D01*
X36020Y167466D01*
X36056Y167449D01*
X36173Y167427D01*
X36288Y167397D01*
X36348Y167393D01*
X36368Y167389D01*
X36389Y167391D01*
X36449Y167387D01*
X37923Y167387D01*
X38021Y167399D01*
X38120Y167402D01*
X38178Y167419D01*
X38238Y167427D01*
X38330Y167463D01*
X38425Y167491D01*
X38477Y167521D01*
X38534Y167544D01*
X38614Y167602D01*
X38699Y167652D01*
X38775Y167718D01*
X38791Y167730D01*
X38799Y167740D01*
X38820Y167758D01*
X40226Y169165D01*
X43594Y169165D01*
X45975Y166784D01*
X45975Y163416D01*
X43594Y161035D01*
X40226Y161035D01*
X38820Y162442D01*
X38742Y162502D01*
X38670Y162570D01*
X38617Y162599D01*
X38569Y162636D01*
X38478Y162676D01*
X38391Y162724D01*
X38333Y162739D01*
X38277Y162763D01*
X38179Y162778D01*
X38083Y162803D01*
X37983Y162809D01*
X37963Y162813D01*
X37951Y162811D01*
X37923Y162813D01*
X36449Y162813D01*
X36331Y162798D01*
X36212Y162791D01*
X36174Y162778D01*
X36133Y162773D01*
X36023Y162730D01*
X35910Y162693D01*
X35875Y162671D01*
X35838Y162656D01*
X35742Y162587D01*
X35641Y162523D01*
X35613Y162493D01*
X35580Y162470D01*
X35504Y162378D01*
X35423Y162291D01*
X35403Y162256D01*
X35378Y162225D01*
X35327Y162117D01*
X35269Y162013D01*
X35259Y161973D01*
X35242Y161937D01*
X35220Y161820D01*
X35190Y161705D01*
X35186Y161645D01*
X35182Y161625D01*
X35184Y161604D01*
X35180Y161544D01*
X35180Y158514D01*
X34145Y157479D01*
X27069Y157479D01*
X26298Y158251D01*
X26204Y158323D01*
X26114Y158402D01*
X26078Y158421D01*
X26046Y158445D01*
X25937Y158493D01*
X25831Y158547D01*
X25792Y158556D01*
X25754Y158572D01*
X25637Y158591D01*
X25521Y158617D01*
X25480Y158615D01*
X25440Y158622D01*
X25322Y158611D01*
X25203Y158607D01*
X25164Y158596D01*
X25124Y158592D01*
X25012Y158552D01*
X24897Y158519D01*
X24862Y158498D01*
X24824Y158484D01*
X24726Y158418D01*
X24623Y158357D01*
X24578Y158317D01*
X24561Y158306D01*
X24548Y158290D01*
X24503Y158251D01*
X23487Y157235D01*
X23426Y157156D01*
X23358Y157084D01*
X23329Y157031D01*
X23292Y156983D01*
X23252Y156892D01*
X23204Y156806D01*
X23189Y156747D01*
X23165Y156691D01*
X23150Y156593D01*
X23125Y156498D01*
X23119Y156398D01*
X23115Y156377D01*
X23117Y156365D01*
X23115Y156337D01*
X23115Y136829D01*
X23127Y136731D01*
X23130Y136632D01*
X23147Y136574D01*
X23155Y136514D01*
X23191Y136422D01*
X23219Y136327D01*
X23249Y136275D01*
X23272Y136218D01*
X23330Y136138D01*
X23380Y136053D01*
X23446Y135977D01*
X23458Y135961D01*
X23468Y135953D01*
X23486Y135932D01*
X24385Y135034D01*
X24385Y131666D01*
X22004Y129285D01*
X18636Y129285D01*
G37*
%LPD*%
%LPC*%
G36*
X169766Y103885D02*
X169766Y103885D01*
X167385Y106266D01*
X167385Y108255D01*
X167373Y108353D01*
X167370Y108452D01*
X167353Y108510D01*
X167345Y108571D01*
X167309Y108663D01*
X167281Y108758D01*
X167251Y108810D01*
X167228Y108866D01*
X167170Y108946D01*
X167120Y109032D01*
X167054Y109107D01*
X167042Y109124D01*
X167032Y109131D01*
X167014Y109153D01*
X154763Y121404D01*
X154684Y121464D01*
X154612Y121532D01*
X154559Y121561D01*
X154511Y121598D01*
X154420Y121638D01*
X154334Y121686D01*
X154275Y121701D01*
X154219Y121725D01*
X154121Y121740D01*
X154026Y121765D01*
X153926Y121771D01*
X153905Y121775D01*
X153893Y121773D01*
X153865Y121775D01*
X150716Y121775D01*
X148335Y124156D01*
X148335Y127524D01*
X150716Y129905D01*
X153416Y129905D01*
X153534Y129920D01*
X153653Y129927D01*
X153691Y129940D01*
X153732Y129945D01*
X153842Y129988D01*
X153955Y130025D01*
X153990Y130047D01*
X154027Y130062D01*
X154123Y130131D01*
X154224Y130195D01*
X154252Y130225D01*
X154285Y130248D01*
X154361Y130340D01*
X154442Y130427D01*
X154462Y130462D01*
X154487Y130493D01*
X154538Y130601D01*
X154596Y130705D01*
X154606Y130745D01*
X154623Y130781D01*
X154645Y130898D01*
X154675Y131013D01*
X154679Y131073D01*
X154683Y131093D01*
X154681Y131114D01*
X154685Y131174D01*
X154685Y132494D01*
X157066Y134875D01*
X160434Y134875D01*
X161840Y133468D01*
X161918Y133408D01*
X161990Y133340D01*
X161999Y133335D01*
X177867Y117466D01*
X177946Y117406D01*
X178018Y117338D01*
X178071Y117309D01*
X178119Y117272D01*
X178210Y117232D01*
X178296Y117184D01*
X178355Y117169D01*
X178411Y117145D01*
X178509Y117130D01*
X178604Y117105D01*
X178704Y117099D01*
X178725Y117095D01*
X178737Y117097D01*
X178765Y117095D01*
X180754Y117095D01*
X183135Y114714D01*
X183135Y111346D01*
X180754Y108965D01*
X177207Y108965D01*
X177177Y108980D01*
X177157Y108983D01*
X177139Y108991D01*
X177001Y109013D01*
X176864Y109039D01*
X176844Y109038D01*
X176825Y109041D01*
X176686Y109028D01*
X176547Y109020D01*
X176528Y109013D01*
X176508Y109011D01*
X176377Y108964D01*
X176245Y108922D01*
X176228Y108911D01*
X176209Y108904D01*
X176093Y108826D01*
X175976Y108751D01*
X175962Y108737D01*
X175945Y108725D01*
X175854Y108621D01*
X175758Y108520D01*
X175748Y108502D01*
X175735Y108487D01*
X175672Y108363D01*
X175604Y108241D01*
X175599Y108222D01*
X175590Y108204D01*
X175560Y108068D01*
X175525Y107933D01*
X175523Y107905D01*
X175521Y107894D01*
X175521Y107873D01*
X175515Y107773D01*
X175515Y106266D01*
X173134Y103885D01*
X169766Y103885D01*
G37*
%LPD*%
%LPC*%
G36*
X244417Y112420D02*
X244417Y112420D01*
X242990Y113847D01*
X242957Y113948D01*
X242935Y113982D01*
X242920Y114020D01*
X242851Y114116D01*
X242787Y114216D01*
X242757Y114244D01*
X242734Y114277D01*
X242642Y114353D01*
X242555Y114434D01*
X242520Y114454D01*
X242489Y114480D01*
X242381Y114530D01*
X242277Y114588D01*
X242237Y114598D01*
X242201Y114615D01*
X242084Y114638D01*
X241969Y114667D01*
X241909Y114671D01*
X241889Y114675D01*
X241868Y114674D01*
X241808Y114678D01*
X237433Y114678D01*
X237419Y114676D01*
X237293Y114670D01*
X236474Y114579D01*
X236457Y114588D01*
X236351Y114615D01*
X235758Y115208D01*
X235747Y115217D01*
X235654Y115302D01*
X235010Y115817D01*
X235005Y115835D01*
X234949Y115929D01*
X234949Y116767D01*
X234947Y116782D01*
X234942Y116907D01*
X234851Y117727D01*
X234860Y117743D01*
X234887Y117849D01*
X235480Y118442D01*
X235489Y118453D01*
X235573Y118547D01*
X237285Y120686D01*
X237295Y120702D01*
X237308Y120716D01*
X237378Y120838D01*
X237451Y120957D01*
X237456Y120975D01*
X237466Y120992D01*
X237503Y121127D01*
X237544Y121261D01*
X237545Y121280D01*
X237550Y121298D01*
X237552Y121438D01*
X237559Y121579D01*
X237555Y121598D01*
X237555Y121616D01*
X237523Y121752D01*
X237494Y121890D01*
X237486Y121907D01*
X237482Y121926D01*
X237416Y122049D01*
X237354Y122176D01*
X237342Y122190D01*
X237333Y122207D01*
X237239Y122311D01*
X237148Y122418D01*
X237132Y122428D01*
X237120Y122443D01*
X237002Y122520D01*
X236888Y122600D01*
X236870Y122607D01*
X236854Y122618D01*
X236705Y122679D01*
X236424Y122776D01*
X234949Y124840D01*
X234949Y127377D01*
X236424Y129441D01*
X237155Y129691D01*
X237257Y129741D01*
X237363Y129784D01*
X237400Y129811D01*
X237441Y129831D01*
X237527Y129905D01*
X237619Y129973D01*
X237648Y130008D01*
X237682Y130038D01*
X237748Y130131D01*
X237820Y130219D01*
X237839Y130261D01*
X237865Y130298D01*
X237906Y130405D01*
X237953Y130508D01*
X237961Y130553D01*
X237978Y130596D01*
X237990Y130709D01*
X238011Y130820D01*
X238008Y130866D01*
X238013Y130912D01*
X237997Y131024D01*
X237989Y131138D01*
X237971Y131205D01*
X237968Y131227D01*
X237961Y131244D01*
X237948Y131293D01*
X237476Y132707D01*
X238008Y133770D01*
X238018Y133798D01*
X238033Y133824D01*
X238070Y133948D01*
X238113Y134070D01*
X238116Y134100D01*
X238125Y134128D01*
X238130Y134258D01*
X238141Y134387D01*
X238136Y134416D01*
X238137Y134446D01*
X238110Y134573D01*
X238089Y134701D01*
X238077Y134728D01*
X238071Y134757D01*
X238008Y134905D01*
X237476Y135969D01*
X238075Y137766D01*
X239770Y138613D01*
X244963Y136882D01*
X244971Y136880D01*
X244980Y136876D01*
X245127Y136849D01*
X245275Y136820D01*
X245284Y136821D01*
X245292Y136819D01*
X245441Y136829D01*
X245489Y136832D01*
X246161Y136496D01*
X246170Y136493D01*
X246178Y136488D01*
X246327Y136427D01*
X247032Y136192D01*
X247056Y136156D01*
X247063Y136150D01*
X247068Y136143D01*
X247180Y136045D01*
X247216Y136013D01*
X247453Y135301D01*
X247458Y135292D01*
X247460Y135283D01*
X247522Y135134D01*
X247855Y134470D01*
X247846Y134427D01*
X247847Y134418D01*
X247845Y134409D01*
X247855Y134260D01*
X247858Y134213D01*
X247522Y133541D01*
X247519Y133532D01*
X247514Y133524D01*
X247453Y133375D01*
X247218Y132670D01*
X247182Y132646D01*
X247176Y132639D01*
X247169Y132634D01*
X247071Y132521D01*
X247039Y132486D01*
X246327Y132248D01*
X246318Y132244D01*
X246309Y132242D01*
X246161Y132179D01*
X245625Y131912D01*
X245514Y131838D01*
X245400Y131768D01*
X245382Y131749D01*
X245361Y131735D01*
X245272Y131636D01*
X245179Y131540D01*
X245166Y131517D01*
X245149Y131498D01*
X245087Y131380D01*
X245021Y131264D01*
X245014Y131239D01*
X245002Y131216D01*
X244972Y131086D01*
X244937Y130957D01*
X244936Y130931D01*
X244930Y130906D01*
X244934Y130772D01*
X244931Y130639D01*
X244937Y130614D01*
X244938Y130588D01*
X244974Y130460D01*
X245005Y130330D01*
X245017Y130307D01*
X245024Y130282D01*
X245091Y130167D01*
X245153Y130048D01*
X245171Y130029D01*
X245184Y130007D01*
X245277Y129912D01*
X245367Y129813D01*
X245389Y129799D01*
X245407Y129780D01*
X245521Y129711D01*
X245633Y129638D01*
X245666Y129624D01*
X245679Y129616D01*
X245699Y129610D01*
X245781Y129576D01*
X246176Y129440D01*
X247651Y127376D01*
X247651Y124840D01*
X246330Y122990D01*
X246323Y122978D01*
X246313Y122967D01*
X246247Y122838D01*
X246179Y122710D01*
X246175Y122696D01*
X246169Y122684D01*
X246137Y122542D01*
X246102Y122402D01*
X246102Y122387D01*
X246099Y122373D01*
X246103Y122228D01*
X246104Y122084D01*
X246108Y122070D01*
X246109Y122055D01*
X246149Y121916D01*
X246186Y121776D01*
X246193Y121764D01*
X246197Y121750D01*
X246270Y121625D01*
X246341Y121499D01*
X246351Y121488D01*
X246358Y121476D01*
X246465Y121355D01*
X247651Y120169D01*
X247651Y113759D01*
X246311Y112420D01*
X244417Y112420D01*
G37*
%LPD*%
%LPC*%
G36*
X94836Y94995D02*
X94836Y94995D01*
X92455Y97376D01*
X92455Y100744D01*
X93862Y102150D01*
X93922Y102228D01*
X93990Y102300D01*
X94019Y102353D01*
X94056Y102401D01*
X94096Y102492D01*
X94144Y102579D01*
X94159Y102637D01*
X94183Y102693D01*
X94198Y102791D01*
X94223Y102887D01*
X94229Y102974D01*
X94231Y102985D01*
X94230Y102992D01*
X94233Y103007D01*
X94231Y103019D01*
X94233Y103047D01*
X94233Y125553D01*
X94221Y125651D01*
X94218Y125750D01*
X94201Y125808D01*
X94193Y125868D01*
X94157Y125960D01*
X94129Y126055D01*
X94099Y126107D01*
X94076Y126164D01*
X94018Y126244D01*
X93968Y126329D01*
X93902Y126405D01*
X93890Y126421D01*
X93880Y126429D01*
X93862Y126450D01*
X92455Y127856D01*
X92455Y131224D01*
X94836Y133605D01*
X98204Y133605D01*
X100585Y131224D01*
X100585Y127856D01*
X99178Y126450D01*
X99118Y126372D01*
X99050Y126300D01*
X99021Y126247D01*
X98984Y126199D01*
X98944Y126108D01*
X98896Y126021D01*
X98881Y125963D01*
X98857Y125907D01*
X98842Y125809D01*
X98817Y125713D01*
X98811Y125613D01*
X98807Y125593D01*
X98809Y125581D01*
X98807Y125553D01*
X98807Y103047D01*
X98819Y102949D01*
X98822Y102850D01*
X98839Y102792D01*
X98847Y102732D01*
X98883Y102640D01*
X98911Y102545D01*
X98941Y102493D01*
X98964Y102436D01*
X99022Y102356D01*
X99072Y102271D01*
X99138Y102195D01*
X99150Y102179D01*
X99160Y102171D01*
X99178Y102150D01*
X100585Y100744D01*
X100585Y97376D01*
X98204Y94995D01*
X94836Y94995D01*
G37*
%LPD*%
%LPC*%
G36*
X80866Y97535D02*
X80866Y97535D01*
X78485Y99916D01*
X78485Y103284D01*
X79892Y104690D01*
X79952Y104768D01*
X80020Y104840D01*
X80049Y104893D01*
X80086Y104941D01*
X80126Y105032D01*
X80174Y105119D01*
X80189Y105177D01*
X80213Y105233D01*
X80228Y105331D01*
X80253Y105427D01*
X80258Y105512D01*
X80261Y105523D01*
X80260Y105532D01*
X80263Y105547D01*
X80261Y105559D01*
X80263Y105587D01*
X80263Y117933D01*
X80251Y118031D01*
X80248Y118130D01*
X80231Y118188D01*
X80223Y118248D01*
X80187Y118340D01*
X80159Y118435D01*
X80129Y118487D01*
X80106Y118544D01*
X80048Y118624D01*
X79998Y118709D01*
X79932Y118785D01*
X79920Y118801D01*
X79910Y118809D01*
X79892Y118830D01*
X78485Y120236D01*
X78485Y123604D01*
X80866Y125985D01*
X84234Y125985D01*
X86615Y123604D01*
X86615Y120236D01*
X85208Y118830D01*
X85148Y118752D01*
X85080Y118680D01*
X85051Y118627D01*
X85014Y118579D01*
X84974Y118488D01*
X84926Y118401D01*
X84911Y118343D01*
X84887Y118287D01*
X84872Y118189D01*
X84847Y118093D01*
X84841Y117993D01*
X84837Y117973D01*
X84839Y117961D01*
X84837Y117933D01*
X84837Y105587D01*
X84849Y105489D01*
X84852Y105390D01*
X84869Y105332D01*
X84877Y105272D01*
X84913Y105180D01*
X84941Y105085D01*
X84971Y105033D01*
X84994Y104976D01*
X85052Y104896D01*
X85102Y104811D01*
X85168Y104735D01*
X85180Y104719D01*
X85190Y104711D01*
X85208Y104690D01*
X86615Y103284D01*
X86615Y99916D01*
X84234Y97535D01*
X80866Y97535D01*
G37*
%LPD*%
%LPC*%
G36*
X66039Y15239D02*
X66039Y15239D01*
X66039Y24385D01*
X66296Y24345D01*
X68083Y23764D01*
X69757Y22911D01*
X71278Y21806D01*
X72606Y20478D01*
X73711Y18957D01*
X74564Y17283D01*
X75145Y15496D01*
X75185Y15239D01*
X66039Y15239D01*
G37*
%LPD*%
%LPC*%
G36*
X51815Y15239D02*
X51815Y15239D01*
X51855Y15496D01*
X52436Y17283D01*
X53289Y18957D01*
X54394Y20478D01*
X55722Y21806D01*
X57243Y22911D01*
X58917Y23764D01*
X60704Y24345D01*
X60961Y24385D01*
X60961Y15239D01*
X51815Y15239D01*
G37*
%LPD*%
G36*
X134067Y74879D02*
X134067Y74879D01*
X134090Y74883D01*
X134097Y74898D01*
X134106Y74904D01*
X134104Y74914D01*
X134111Y74930D01*
X134111Y77470D01*
X134099Y77489D01*
X134096Y77511D01*
X134080Y77518D01*
X134074Y77527D01*
X134064Y77526D01*
X134049Y77533D01*
X119952Y77533D01*
X119933Y77521D01*
X119910Y77517D01*
X119903Y77502D01*
X119894Y77496D01*
X119896Y77486D01*
X119889Y77470D01*
X119889Y74930D01*
X119901Y74911D01*
X119904Y74889D01*
X119920Y74882D01*
X119926Y74873D01*
X119936Y74874D01*
X119952Y74867D01*
X134049Y74867D01*
X134067Y74879D01*
G37*
G36*
X32404Y163779D02*
X32404Y163779D01*
X32426Y163783D01*
X32433Y163798D01*
X32442Y163804D01*
X32441Y163814D01*
X32448Y163830D01*
X32448Y166370D01*
X32436Y166389D01*
X32432Y166411D01*
X32417Y166418D01*
X32411Y166427D01*
X32401Y166426D01*
X32385Y166433D01*
X23559Y166433D01*
X23540Y166421D01*
X23517Y166417D01*
X23510Y166402D01*
X23501Y166396D01*
X23503Y166386D01*
X23496Y166370D01*
X23496Y163830D01*
X23508Y163811D01*
X23511Y163789D01*
X23527Y163782D01*
X23533Y163773D01*
X23543Y163774D01*
X23559Y163767D01*
X32385Y163767D01*
X32404Y163779D01*
G37*
D10*
X239945Y136144D02*
X245364Y134338D01*
X239945Y132532D01*
X241300Y128366D02*
X241140Y128364D01*
X240980Y128358D01*
X240821Y128349D01*
X240661Y128335D01*
X240502Y128318D01*
X240344Y128297D01*
X240186Y128273D01*
X240029Y128244D01*
X239872Y128212D01*
X239716Y128176D01*
X239561Y128136D01*
X239407Y128093D01*
X239255Y128046D01*
X239103Y127995D01*
X238952Y127941D01*
X238803Y127883D01*
X238656Y127822D01*
X238510Y127757D01*
X238365Y127689D01*
X238290Y127661D01*
X238217Y127630D01*
X238145Y127595D01*
X238075Y127557D01*
X238007Y127516D01*
X237941Y127471D01*
X237877Y127424D01*
X237815Y127373D01*
X237756Y127320D01*
X237700Y127263D01*
X237646Y127204D01*
X237595Y127143D01*
X237547Y127079D01*
X237502Y127013D01*
X237461Y126945D01*
X237423Y126875D01*
X237388Y126804D01*
X237356Y126730D01*
X237328Y126656D01*
X237304Y126580D01*
X237283Y126503D01*
X237266Y126425D01*
X237253Y126346D01*
X237244Y126267D01*
X237238Y126188D01*
X237236Y126108D01*
X237238Y126028D01*
X237244Y125949D01*
X237253Y125870D01*
X237266Y125791D01*
X237283Y125713D01*
X237304Y125636D01*
X237328Y125560D01*
X237356Y125486D01*
X237388Y125412D01*
X237423Y125341D01*
X237461Y125271D01*
X237502Y125203D01*
X237547Y125137D01*
X237595Y125073D01*
X237646Y125012D01*
X237700Y124953D01*
X237756Y124896D01*
X237815Y124843D01*
X237877Y124792D01*
X237941Y124745D01*
X238007Y124700D01*
X238075Y124659D01*
X238145Y124621D01*
X238217Y124586D01*
X238290Y124555D01*
X238365Y124527D01*
X238365Y124528D02*
X238510Y124460D01*
X238656Y124395D01*
X238803Y124334D01*
X238952Y124276D01*
X239103Y124222D01*
X239255Y124171D01*
X239407Y124124D01*
X239561Y124081D01*
X239716Y124041D01*
X239872Y124005D01*
X240029Y123973D01*
X240186Y123944D01*
X240344Y123920D01*
X240502Y123899D01*
X240661Y123882D01*
X240821Y123868D01*
X240980Y123859D01*
X241140Y123853D01*
X241300Y123851D01*
X241300Y128366D02*
X241460Y128364D01*
X241620Y128358D01*
X241779Y128349D01*
X241939Y128335D01*
X242098Y128318D01*
X242256Y128297D01*
X242414Y128273D01*
X242571Y128244D01*
X242728Y128212D01*
X242884Y128176D01*
X243039Y128136D01*
X243193Y128093D01*
X243345Y128046D01*
X243497Y127995D01*
X243648Y127941D01*
X243797Y127883D01*
X243944Y127822D01*
X244090Y127757D01*
X244235Y127689D01*
X244310Y127661D01*
X244383Y127630D01*
X244455Y127595D01*
X244525Y127557D01*
X244593Y127516D01*
X244659Y127471D01*
X244723Y127424D01*
X244785Y127373D01*
X244844Y127320D01*
X244900Y127263D01*
X244954Y127204D01*
X245005Y127143D01*
X245053Y127079D01*
X245098Y127013D01*
X245139Y126945D01*
X245177Y126875D01*
X245212Y126804D01*
X245244Y126730D01*
X245272Y126656D01*
X245296Y126580D01*
X245317Y126503D01*
X245334Y126425D01*
X245347Y126346D01*
X245356Y126267D01*
X245362Y126188D01*
X245364Y126108D01*
X244235Y124528D02*
X244090Y124460D01*
X243944Y124395D01*
X243797Y124334D01*
X243648Y124276D01*
X243497Y124222D01*
X243345Y124171D01*
X243193Y124124D01*
X243039Y124081D01*
X242884Y124041D01*
X242728Y124005D01*
X242571Y123973D01*
X242414Y123944D01*
X242256Y123920D01*
X242098Y123899D01*
X241939Y123882D01*
X241779Y123868D01*
X241620Y123859D01*
X241460Y123853D01*
X241300Y123851D01*
X244235Y124527D02*
X244310Y124555D01*
X244383Y124586D01*
X244455Y124621D01*
X244525Y124659D01*
X244593Y124700D01*
X244659Y124745D01*
X244723Y124792D01*
X244785Y124843D01*
X244844Y124896D01*
X244900Y124953D01*
X244954Y125012D01*
X245005Y125073D01*
X245053Y125137D01*
X245098Y125203D01*
X245139Y125271D01*
X245177Y125341D01*
X245212Y125412D01*
X245244Y125486D01*
X245272Y125560D01*
X245296Y125636D01*
X245317Y125713D01*
X245334Y125791D01*
X245347Y125870D01*
X245356Y125949D01*
X245362Y126028D01*
X245364Y126108D01*
X243558Y127914D02*
X239042Y124302D01*
X239042Y119222D02*
X237236Y116964D01*
X245364Y116964D01*
X245364Y114707D02*
X245364Y119222D01*
D11*
X6350Y7620D03*
X246380Y246380D03*
D12*
X63500Y12700D03*
X88900Y12700D03*
X114300Y12700D03*
X139700Y12700D03*
D13*
X33414Y170955D02*
X27800Y170955D01*
X33414Y170955D02*
X33414Y159245D01*
X27800Y159245D01*
X27800Y170955D01*
X27800Y160186D02*
X33414Y160186D01*
X33414Y161127D02*
X27800Y161127D01*
X27800Y162068D02*
X33414Y162068D01*
X33414Y163009D02*
X27800Y163009D01*
X27800Y163950D02*
X33414Y163950D01*
X33414Y164891D02*
X27800Y164891D01*
X27800Y165832D02*
X33414Y165832D01*
X33414Y166773D02*
X27800Y166773D01*
X27800Y167714D02*
X33414Y167714D01*
X33414Y168655D02*
X27800Y168655D01*
X27800Y169596D02*
X33414Y169596D01*
X33414Y170537D02*
X27800Y170537D01*
X23000Y170955D02*
X17386Y170955D01*
X23000Y170955D02*
X23000Y159245D01*
X17386Y159245D01*
X17386Y170955D01*
X17386Y160186D02*
X23000Y160186D01*
X23000Y161127D02*
X17386Y161127D01*
X17386Y162068D02*
X23000Y162068D01*
X23000Y163009D02*
X17386Y163009D01*
X17386Y163950D02*
X23000Y163950D01*
X23000Y164891D02*
X17386Y164891D01*
X17386Y165832D02*
X23000Y165832D01*
X23000Y166773D02*
X17386Y166773D01*
X17386Y167714D02*
X23000Y167714D01*
X23000Y168655D02*
X17386Y168655D01*
X17386Y169596D02*
X23000Y169596D01*
X23000Y170537D02*
X17386Y170537D01*
X134607Y82055D02*
X140221Y82055D01*
X140221Y70345D01*
X134607Y70345D01*
X134607Y82055D01*
X134607Y71286D02*
X140221Y71286D01*
X140221Y72227D02*
X134607Y72227D01*
X134607Y73168D02*
X140221Y73168D01*
X140221Y74109D02*
X134607Y74109D01*
X134607Y75050D02*
X140221Y75050D01*
X140221Y75991D02*
X134607Y75991D01*
X134607Y76932D02*
X140221Y76932D01*
X140221Y77873D02*
X134607Y77873D01*
X134607Y78814D02*
X140221Y78814D01*
X140221Y79755D02*
X134607Y79755D01*
X134607Y80696D02*
X140221Y80696D01*
X140221Y81637D02*
X134607Y81637D01*
X129807Y82055D02*
X124193Y82055D01*
X129807Y82055D02*
X129807Y70345D01*
X124193Y70345D01*
X124193Y82055D01*
X124193Y71286D02*
X129807Y71286D01*
X129807Y72227D02*
X124193Y72227D01*
X124193Y73168D02*
X129807Y73168D01*
X129807Y74109D02*
X124193Y74109D01*
X124193Y75050D02*
X129807Y75050D01*
X129807Y75991D02*
X124193Y75991D01*
X124193Y76932D02*
X129807Y76932D01*
X129807Y77873D02*
X124193Y77873D01*
X124193Y78814D02*
X129807Y78814D01*
X129807Y79755D02*
X124193Y79755D01*
X124193Y80696D02*
X129807Y80696D01*
X129807Y81637D02*
X124193Y81637D01*
X119393Y82055D02*
X113779Y82055D01*
X119393Y82055D02*
X119393Y70345D01*
X113779Y70345D01*
X113779Y82055D01*
X113779Y71286D02*
X119393Y71286D01*
X119393Y72227D02*
X113779Y72227D01*
X113779Y73168D02*
X119393Y73168D01*
X119393Y74109D02*
X113779Y74109D01*
X113779Y75050D02*
X119393Y75050D01*
X119393Y75991D02*
X113779Y75991D01*
X113779Y76932D02*
X119393Y76932D01*
X119393Y77873D02*
X113779Y77873D01*
X113779Y78814D02*
X119393Y78814D01*
X119393Y79755D02*
X113779Y79755D01*
X113779Y80696D02*
X119393Y80696D01*
X119393Y81637D02*
X113779Y81637D01*
D12*
X241300Y12700D03*
X215900Y12700D03*
X190500Y12700D03*
X165100Y12700D03*
D14*
X63500Y142240D03*
X201930Y163830D03*
X227330Y190500D03*
X49530Y162560D03*
X95250Y139700D03*
X88900Y129540D03*
X68580Y100330D03*
X106680Y99060D03*
X157480Y140970D03*
X184150Y100330D03*
X148590Y97790D03*
X173990Y35560D03*
X107950Y36830D03*
X27940Y138430D03*
X190500Y111760D03*
X200660Y41910D03*
X190500Y73660D03*
X170180Y53340D03*
X148590Y53340D03*
X111760Y53340D03*
X20320Y133350D03*
D15*
X20320Y164973D02*
X20193Y165100D01*
X20320Y164973D02*
X20320Y133350D01*
D14*
X69850Y64770D03*
D15*
X81280Y64770D01*
X127000Y76200D02*
X127000Y90170D01*
X133350Y96520D01*
D14*
X133350Y96520D03*
X189230Y64770D03*
D15*
X133350Y96520D02*
X133350Y154940D01*
D14*
X133350Y154940D03*
X120650Y154940D03*
D15*
X133350Y154940D01*
X81280Y20320D02*
X88900Y12700D01*
X81280Y20320D02*
X81280Y64770D01*
X127000Y64770D01*
X189230Y64770D01*
X127000Y64770D02*
X127000Y76200D01*
D14*
X162560Y38100D03*
X123190Y38100D03*
D10*
X162560Y38100D01*
X41910Y165100D02*
X30607Y165100D01*
D14*
X41910Y165100D03*
D10*
X101600Y76200D02*
X116586Y76200D01*
D14*
X101600Y76200D03*
D10*
X137414Y76200D02*
X148590Y76200D01*
X149860Y77470D01*
X149860Y83820D01*
D14*
X149860Y83820D03*
D10*
X241300Y25400D02*
X241300Y12700D01*
X241300Y25400D02*
X233680Y33020D01*
X207010Y33020D01*
D14*
X207010Y33020D03*
X171450Y107950D03*
D10*
X153560Y125840D01*
X152400Y125840D01*
D14*
X152400Y125840D03*
X96520Y129540D03*
D10*
X96520Y99060D01*
D14*
X96520Y99060D03*
X172720Y44450D03*
D10*
X113030Y44450D01*
D14*
X113030Y44450D03*
X158750Y130810D03*
D10*
X161290Y130810D01*
X179070Y113030D01*
D14*
X179070Y113030D03*
X82550Y121920D03*
D10*
X82550Y101600D01*
D14*
X82550Y101600D03*
D10*
X165100Y25400D02*
X165100Y12700D01*
X165100Y25400D02*
X160020Y30480D01*
D14*
X115570Y30480D03*
D10*
X160020Y30480D01*
M02*
