G04 EAGLE Gerber RS-274X export*
G75*
%MOMM*%
%FSLAX34Y34*%
%LPD*%
%INTop Copper*%
%IPPOS*%
%AMOC8*
5,1,8,0,0,1.08239X$1,22.5*%
G01*
%ADD10C,0.635000*%
%ADD11C,0.096000*%
%ADD12C,0.102000*%
%ADD13C,1.879600*%
%ADD14C,0.100000*%
%ADD15C,0.300000*%
%ADD16C,0.101500*%
%ADD17C,0.101600*%
%ADD18C,0.558800*%
%ADD19C,0.304800*%
%ADD20C,0.203200*%

G36*
X53596Y2812D02*
X53596Y2812D01*
X53734Y2825D01*
X53753Y2832D01*
X53773Y2835D01*
X53902Y2886D01*
X54033Y2933D01*
X54050Y2944D01*
X54068Y2952D01*
X54181Y3033D01*
X54296Y3112D01*
X54310Y3127D01*
X54326Y3138D01*
X54415Y3246D01*
X54507Y3350D01*
X54516Y3368D01*
X54529Y3383D01*
X54588Y3509D01*
X54651Y3634D01*
X54656Y3653D01*
X54664Y3671D01*
X54690Y3808D01*
X54721Y3944D01*
X54720Y3964D01*
X54724Y3983D01*
X54715Y4122D01*
X54711Y4262D01*
X54705Y4281D01*
X54704Y4301D01*
X54661Y4433D01*
X54622Y4567D01*
X54612Y4584D01*
X54606Y4603D01*
X54531Y4721D01*
X54461Y4841D01*
X54442Y4862D01*
X54436Y4872D01*
X54421Y4886D01*
X54416Y4892D01*
X53289Y6443D01*
X52436Y8117D01*
X51855Y9904D01*
X51815Y10161D01*
X62230Y10161D01*
X62348Y10176D01*
X62467Y10183D01*
X62505Y10196D01*
X62545Y10201D01*
X62656Y10244D01*
X62769Y10281D01*
X62803Y10303D01*
X62841Y10318D01*
X62937Y10388D01*
X63038Y10451D01*
X63066Y10481D01*
X63098Y10504D01*
X63174Y10596D01*
X63256Y10683D01*
X63275Y10718D01*
X63301Y10749D01*
X63352Y10857D01*
X63409Y10961D01*
X63420Y11001D01*
X63437Y11037D01*
X63459Y11154D01*
X63489Y11269D01*
X63493Y11330D01*
X63497Y11350D01*
X63495Y11370D01*
X63499Y11430D01*
X63499Y12701D01*
X63501Y12701D01*
X63501Y11430D01*
X63516Y11312D01*
X63523Y11193D01*
X63536Y11155D01*
X63541Y11114D01*
X63585Y11004D01*
X63621Y10891D01*
X63643Y10856D01*
X63658Y10819D01*
X63728Y10723D01*
X63791Y10622D01*
X63821Y10594D01*
X63845Y10561D01*
X63936Y10486D01*
X64023Y10404D01*
X64058Y10384D01*
X64090Y10359D01*
X64197Y10308D01*
X64302Y10250D01*
X64341Y10240D01*
X64377Y10223D01*
X64494Y10201D01*
X64609Y10171D01*
X64670Y10167D01*
X64690Y10163D01*
X64710Y10165D01*
X64770Y10161D01*
X75185Y10161D01*
X75145Y9904D01*
X74564Y8117D01*
X73711Y6443D01*
X72548Y4842D01*
X72539Y4826D01*
X72471Y4745D01*
X72463Y4726D01*
X72451Y4711D01*
X72395Y4583D01*
X72336Y4457D01*
X72332Y4437D01*
X72324Y4419D01*
X72302Y4281D01*
X72276Y4144D01*
X72277Y4125D01*
X72274Y4105D01*
X72287Y3966D01*
X72296Y3827D01*
X72302Y3808D01*
X72304Y3788D01*
X72351Y3657D01*
X72394Y3525D01*
X72405Y3508D01*
X72411Y3489D01*
X72489Y3374D01*
X72564Y3256D01*
X72579Y3242D01*
X72590Y3226D01*
X72694Y3134D01*
X72796Y3038D01*
X72813Y3028D01*
X72828Y3015D01*
X72952Y2952D01*
X73074Y2884D01*
X73094Y2879D01*
X73111Y2870D01*
X73247Y2840D01*
X73382Y2805D01*
X73410Y2803D01*
X73422Y2801D01*
X73442Y2801D01*
X73543Y2795D01*
X80653Y2795D01*
X80791Y2812D01*
X80930Y2825D01*
X80949Y2832D01*
X80969Y2835D01*
X81098Y2886D01*
X81229Y2933D01*
X81246Y2944D01*
X81264Y2952D01*
X81377Y3033D01*
X81492Y3111D01*
X81505Y3127D01*
X81522Y3138D01*
X81611Y3246D01*
X81702Y3350D01*
X81712Y3368D01*
X81725Y3383D01*
X81784Y3509D01*
X81847Y3633D01*
X81851Y3653D01*
X81860Y3671D01*
X81886Y3808D01*
X81917Y3943D01*
X81916Y3964D01*
X81920Y3983D01*
X81911Y4122D01*
X81907Y4261D01*
X81901Y4281D01*
X81900Y4301D01*
X81857Y4433D01*
X81819Y4567D01*
X81808Y4584D01*
X81802Y4603D01*
X81727Y4721D01*
X81657Y4841D01*
X81639Y4862D01*
X81632Y4872D01*
X81617Y4886D01*
X81551Y4961D01*
X79855Y6657D01*
X78231Y10578D01*
X78231Y14822D01*
X79855Y18743D01*
X82857Y21745D01*
X86778Y23369D01*
X91022Y23369D01*
X94943Y21745D01*
X97945Y18743D01*
X99569Y14822D01*
X99569Y10578D01*
X97945Y6657D01*
X96249Y4961D01*
X96164Y4852D01*
X96075Y4745D01*
X96067Y4726D01*
X96054Y4710D01*
X95999Y4582D01*
X95940Y4457D01*
X95936Y4437D01*
X95928Y4418D01*
X95906Y4280D01*
X95880Y4144D01*
X95881Y4124D01*
X95878Y4104D01*
X95891Y3965D01*
X95900Y3827D01*
X95906Y3808D01*
X95908Y3788D01*
X95955Y3656D01*
X95998Y3525D01*
X96009Y3507D01*
X96016Y3488D01*
X96094Y3373D01*
X96168Y3256D01*
X96183Y3242D01*
X96194Y3225D01*
X96298Y3133D01*
X96400Y3038D01*
X96417Y3028D01*
X96433Y3015D01*
X96557Y2951D01*
X96678Y2884D01*
X96698Y2879D01*
X96716Y2870D01*
X96852Y2840D01*
X96986Y2805D01*
X97014Y2803D01*
X97026Y2800D01*
X97047Y2801D01*
X97147Y2795D01*
X106053Y2795D01*
X106191Y2812D01*
X106330Y2825D01*
X106349Y2832D01*
X106369Y2835D01*
X106498Y2886D01*
X106629Y2933D01*
X106646Y2944D01*
X106664Y2952D01*
X106777Y3033D01*
X106892Y3111D01*
X106905Y3127D01*
X106922Y3138D01*
X107011Y3246D01*
X107102Y3350D01*
X107112Y3368D01*
X107125Y3383D01*
X107184Y3509D01*
X107247Y3633D01*
X107251Y3653D01*
X107260Y3671D01*
X107286Y3808D01*
X107317Y3943D01*
X107316Y3964D01*
X107320Y3983D01*
X107311Y4122D01*
X107307Y4261D01*
X107301Y4281D01*
X107300Y4301D01*
X107257Y4433D01*
X107219Y4567D01*
X107208Y4584D01*
X107202Y4603D01*
X107127Y4721D01*
X107057Y4841D01*
X107039Y4862D01*
X107032Y4872D01*
X107017Y4886D01*
X106951Y4961D01*
X105255Y6657D01*
X103631Y10578D01*
X103631Y14822D01*
X105255Y18743D01*
X108257Y21745D01*
X112178Y23369D01*
X116422Y23369D01*
X116701Y23253D01*
X116730Y23245D01*
X116756Y23232D01*
X116883Y23204D01*
X117008Y23169D01*
X117037Y23169D01*
X117066Y23162D01*
X117196Y23166D01*
X117326Y23164D01*
X117355Y23171D01*
X117384Y23172D01*
X117509Y23208D01*
X117635Y23238D01*
X117661Y23252D01*
X117690Y23260D01*
X117801Y23326D01*
X117916Y23387D01*
X117938Y23407D01*
X117964Y23422D01*
X118084Y23528D01*
X120532Y25975D01*
X120592Y26054D01*
X120660Y26126D01*
X120689Y26179D01*
X120726Y26227D01*
X120766Y26318D01*
X120814Y26404D01*
X120829Y26463D01*
X120853Y26519D01*
X120868Y26617D01*
X120893Y26712D01*
X120899Y26812D01*
X120903Y26833D01*
X120901Y26845D01*
X120903Y26873D01*
X120903Y27001D01*
X120886Y27138D01*
X120873Y27277D01*
X120866Y27296D01*
X120863Y27316D01*
X120812Y27445D01*
X120765Y27576D01*
X120754Y27593D01*
X120746Y27612D01*
X120665Y27724D01*
X120587Y27839D01*
X120571Y27853D01*
X120560Y27869D01*
X120452Y27958D01*
X120348Y28050D01*
X120330Y28059D01*
X120315Y28072D01*
X120189Y28131D01*
X120065Y28194D01*
X120045Y28199D01*
X120027Y28208D01*
X119890Y28234D01*
X119755Y28264D01*
X119734Y28264D01*
X119715Y28267D01*
X119576Y28259D01*
X119437Y28254D01*
X119417Y28249D01*
X119397Y28248D01*
X119265Y28205D01*
X119131Y28166D01*
X119114Y28156D01*
X119095Y28150D01*
X118977Y28075D01*
X118857Y28005D01*
X118836Y27986D01*
X118826Y27979D01*
X118812Y27964D01*
X118737Y27898D01*
X117254Y26415D01*
X113886Y26415D01*
X112480Y27822D01*
X112402Y27882D01*
X112330Y27950D01*
X112277Y27979D01*
X112229Y28016D01*
X112138Y28056D01*
X112051Y28104D01*
X111993Y28119D01*
X111937Y28143D01*
X111839Y28158D01*
X111743Y28183D01*
X111643Y28189D01*
X111623Y28193D01*
X111611Y28191D01*
X111583Y28193D01*
X100653Y28193D01*
X98942Y29904D01*
X98942Y29905D01*
X90865Y37982D01*
X90864Y37982D01*
X89153Y39693D01*
X89153Y59660D01*
X89138Y59778D01*
X89131Y59897D01*
X89118Y59935D01*
X89113Y59976D01*
X89070Y60086D01*
X89033Y60199D01*
X89011Y60234D01*
X88996Y60271D01*
X88927Y60367D01*
X88863Y60468D01*
X88833Y60496D01*
X88810Y60529D01*
X88718Y60605D01*
X88631Y60686D01*
X88596Y60706D01*
X88565Y60731D01*
X88457Y60782D01*
X88353Y60840D01*
X88313Y60850D01*
X88277Y60867D01*
X88160Y60889D01*
X88045Y60919D01*
X87985Y60923D01*
X87965Y60927D01*
X87944Y60925D01*
X87884Y60929D01*
X77317Y60929D01*
X76642Y61604D01*
X76564Y61664D01*
X76492Y61732D01*
X76439Y61761D01*
X76391Y61798D01*
X76300Y61838D01*
X76213Y61886D01*
X76155Y61901D01*
X76099Y61925D01*
X76001Y61940D01*
X75905Y61965D01*
X75805Y61971D01*
X75785Y61975D01*
X75773Y61973D01*
X75745Y61975D01*
X73329Y61975D01*
X73231Y61963D01*
X73132Y61960D01*
X73074Y61943D01*
X73014Y61935D01*
X72922Y61899D01*
X72827Y61871D01*
X72775Y61841D01*
X72718Y61818D01*
X72638Y61760D01*
X72553Y61710D01*
X72477Y61644D01*
X72461Y61632D01*
X72453Y61622D01*
X72432Y61604D01*
X71534Y60705D01*
X68166Y60705D01*
X65785Y63086D01*
X65785Y66454D01*
X68166Y68835D01*
X71534Y68835D01*
X72432Y67936D01*
X72510Y67876D01*
X72582Y67808D01*
X72635Y67779D01*
X72683Y67742D01*
X72774Y67702D01*
X72861Y67654D01*
X72919Y67639D01*
X72975Y67615D01*
X73073Y67600D01*
X73169Y67575D01*
X73269Y67569D01*
X73289Y67565D01*
X73301Y67567D01*
X73329Y67565D01*
X75010Y67565D01*
X75128Y67580D01*
X75247Y67587D01*
X75285Y67600D01*
X75326Y67605D01*
X75436Y67648D01*
X75549Y67685D01*
X75584Y67707D01*
X75621Y67722D01*
X75717Y67791D01*
X75818Y67855D01*
X75846Y67885D01*
X75879Y67908D01*
X75955Y68000D01*
X76036Y68087D01*
X76056Y68122D01*
X76081Y68153D01*
X76132Y68261D01*
X76190Y68365D01*
X76200Y68405D01*
X76217Y68441D01*
X76239Y68558D01*
X76269Y68673D01*
X76273Y68733D01*
X76277Y68753D01*
X76275Y68774D01*
X76279Y68834D01*
X76279Y73433D01*
X77317Y74471D01*
X87884Y74471D01*
X88002Y74486D01*
X88121Y74493D01*
X88159Y74506D01*
X88200Y74511D01*
X88310Y74554D01*
X88423Y74591D01*
X88458Y74613D01*
X88495Y74628D01*
X88591Y74697D01*
X88692Y74761D01*
X88720Y74791D01*
X88753Y74814D01*
X88829Y74906D01*
X88910Y74993D01*
X88930Y75028D01*
X88955Y75059D01*
X89006Y75167D01*
X89064Y75271D01*
X89074Y75311D01*
X89091Y75347D01*
X89113Y75464D01*
X89143Y75579D01*
X89147Y75639D01*
X89151Y75659D01*
X89149Y75680D01*
X89153Y75740D01*
X89153Y76660D01*
X89138Y76778D01*
X89131Y76897D01*
X89118Y76935D01*
X89113Y76976D01*
X89070Y77086D01*
X89033Y77199D01*
X89011Y77234D01*
X88996Y77271D01*
X88927Y77367D01*
X88863Y77468D01*
X88833Y77496D01*
X88810Y77529D01*
X88718Y77605D01*
X88631Y77686D01*
X88596Y77706D01*
X88565Y77731D01*
X88457Y77782D01*
X88353Y77840D01*
X88313Y77850D01*
X88277Y77867D01*
X88160Y77889D01*
X88045Y77919D01*
X87985Y77923D01*
X87965Y77927D01*
X87944Y77925D01*
X87884Y77929D01*
X77317Y77929D01*
X76279Y78967D01*
X76279Y90433D01*
X77317Y91471D01*
X78994Y91471D01*
X79112Y91486D01*
X79231Y91493D01*
X79269Y91506D01*
X79310Y91511D01*
X79420Y91554D01*
X79533Y91591D01*
X79568Y91613D01*
X79605Y91628D01*
X79701Y91697D01*
X79802Y91761D01*
X79830Y91791D01*
X79863Y91814D01*
X79939Y91906D01*
X80020Y91993D01*
X80040Y92028D01*
X80065Y92059D01*
X80116Y92167D01*
X80174Y92271D01*
X80184Y92311D01*
X80201Y92347D01*
X80223Y92464D01*
X80253Y92579D01*
X80257Y92639D01*
X80261Y92659D01*
X80259Y92680D01*
X80263Y92740D01*
X80263Y97613D01*
X80251Y97711D01*
X80248Y97810D01*
X80231Y97868D01*
X80223Y97928D01*
X80187Y98020D01*
X80159Y98115D01*
X80129Y98167D01*
X80106Y98224D01*
X80048Y98304D01*
X79998Y98389D01*
X79932Y98465D01*
X79920Y98481D01*
X79910Y98489D01*
X79892Y98510D01*
X78485Y99916D01*
X78485Y103124D01*
X78470Y103242D01*
X78463Y103361D01*
X78450Y103399D01*
X78445Y103440D01*
X78402Y103550D01*
X78365Y103663D01*
X78343Y103698D01*
X78328Y103735D01*
X78259Y103831D01*
X78195Y103932D01*
X78165Y103960D01*
X78142Y103993D01*
X78050Y104069D01*
X77963Y104150D01*
X77928Y104170D01*
X77897Y104195D01*
X77789Y104246D01*
X77685Y104304D01*
X77645Y104314D01*
X77609Y104331D01*
X77492Y104353D01*
X77377Y104383D01*
X77317Y104387D01*
X77297Y104391D01*
X77276Y104389D01*
X77216Y104393D01*
X61163Y104393D01*
X61065Y104381D01*
X60966Y104378D01*
X60908Y104361D01*
X60847Y104353D01*
X60755Y104317D01*
X60660Y104289D01*
X60608Y104259D01*
X60552Y104236D01*
X60472Y104178D01*
X60386Y104128D01*
X60311Y104062D01*
X60294Y104050D01*
X60287Y104040D01*
X60265Y104022D01*
X59367Y103123D01*
X39693Y103123D01*
X34543Y108273D01*
X34543Y117787D01*
X36254Y119498D01*
X36255Y119498D01*
X41043Y124287D01*
X41510Y124287D01*
X41628Y124302D01*
X41747Y124309D01*
X41785Y124322D01*
X41826Y124327D01*
X41936Y124370D01*
X42049Y124407D01*
X42084Y124429D01*
X42121Y124444D01*
X42217Y124513D01*
X42318Y124577D01*
X42346Y124607D01*
X42379Y124630D01*
X42455Y124722D01*
X42536Y124809D01*
X42556Y124844D01*
X42581Y124875D01*
X42632Y124983D01*
X42690Y125087D01*
X42700Y125127D01*
X42717Y125163D01*
X42717Y125166D01*
X43654Y126103D01*
X43727Y126197D01*
X43806Y126286D01*
X43824Y126322D01*
X43849Y126354D01*
X43896Y126463D01*
X43951Y126569D01*
X43959Y126608D01*
X43975Y126646D01*
X43994Y126763D01*
X44020Y126879D01*
X44019Y126920D01*
X44025Y126960D01*
X44014Y127078D01*
X44011Y127197D01*
X43999Y127236D01*
X43995Y127276D01*
X43955Y127388D01*
X43922Y127503D01*
X43902Y127538D01*
X43888Y127576D01*
X43821Y127674D01*
X43761Y127777D01*
X43721Y127822D01*
X43709Y127839D01*
X43694Y127852D01*
X43654Y127898D01*
X42718Y128834D01*
X42640Y128894D01*
X42568Y128962D01*
X42515Y128991D01*
X42467Y129028D01*
X42376Y129068D01*
X42289Y129116D01*
X42231Y129131D01*
X42175Y129155D01*
X42077Y129170D01*
X41981Y129195D01*
X41881Y129201D01*
X41861Y129205D01*
X41849Y129203D01*
X41821Y129205D01*
X20338Y129205D01*
X20317Y129211D01*
X20261Y129235D01*
X20163Y129250D01*
X20067Y129275D01*
X19967Y129281D01*
X19947Y129285D01*
X19935Y129283D01*
X19907Y129285D01*
X18636Y129285D01*
X16255Y131666D01*
X16255Y135034D01*
X18636Y137415D01*
X22004Y137415D01*
X24252Y135166D01*
X24330Y135106D01*
X24402Y135038D01*
X24455Y135009D01*
X24503Y134972D01*
X24594Y134932D01*
X24681Y134884D01*
X24739Y134869D01*
X24795Y134845D01*
X24893Y134830D01*
X24989Y134805D01*
X25089Y134799D01*
X25109Y134795D01*
X25121Y134797D01*
X25149Y134795D01*
X41821Y134795D01*
X41919Y134807D01*
X42018Y134810D01*
X42076Y134827D01*
X42136Y134835D01*
X42228Y134871D01*
X42323Y134899D01*
X42376Y134929D01*
X42432Y134952D01*
X42512Y135010D01*
X42597Y135060D01*
X42673Y135126D01*
X42689Y135138D01*
X42690Y135140D01*
X42691Y135140D01*
X42698Y135149D01*
X42718Y135166D01*
X42756Y135204D01*
X42829Y135299D01*
X42908Y135388D01*
X42926Y135424D01*
X42951Y135456D01*
X42998Y135565D01*
X43052Y135671D01*
X43061Y135710D01*
X43077Y135748D01*
X43096Y135865D01*
X43122Y135981D01*
X43121Y136022D01*
X43127Y136062D01*
X43116Y136180D01*
X43112Y136299D01*
X43101Y136338D01*
X43097Y136378D01*
X43057Y136490D01*
X43024Y136605D01*
X43004Y136640D01*
X42990Y136678D01*
X42923Y136776D01*
X42863Y136879D01*
X42823Y136924D01*
X42811Y136941D01*
X42796Y136954D01*
X42756Y136999D01*
X42119Y137637D01*
X41717Y138332D01*
X41509Y139108D01*
X41509Y140501D01*
X50570Y140501D01*
X50688Y140516D01*
X50807Y140523D01*
X50814Y140525D01*
X50870Y140511D01*
X50930Y140507D01*
X50950Y140503D01*
X50970Y140505D01*
X51030Y140501D01*
X60091Y140501D01*
X60091Y139108D01*
X59883Y138332D01*
X59481Y137637D01*
X58844Y136999D01*
X58771Y136905D01*
X58692Y136816D01*
X58674Y136780D01*
X58649Y136748D01*
X58602Y136639D01*
X58548Y136533D01*
X58539Y136494D01*
X58523Y136456D01*
X58504Y136339D01*
X58478Y136223D01*
X58479Y136182D01*
X58473Y136142D01*
X58484Y136024D01*
X58488Y135905D01*
X58499Y135866D01*
X58503Y135826D01*
X58543Y135714D01*
X58576Y135599D01*
X58596Y135564D01*
X58610Y135526D01*
X58677Y135428D01*
X58737Y135325D01*
X58777Y135280D01*
X58789Y135263D01*
X58804Y135250D01*
X58844Y135204D01*
X58882Y135166D01*
X58960Y135106D01*
X59032Y135038D01*
X59085Y135009D01*
X59133Y134972D01*
X59224Y134932D01*
X59311Y134884D01*
X59369Y134869D01*
X59425Y134845D01*
X59523Y134830D01*
X59619Y134805D01*
X59719Y134799D01*
X59739Y134795D01*
X59751Y134797D01*
X59779Y134795D01*
X66817Y134795D01*
X66915Y134807D01*
X67014Y134810D01*
X67072Y134827D01*
X67132Y134835D01*
X67224Y134871D01*
X67319Y134899D01*
X67372Y134929D01*
X67428Y134952D01*
X67508Y135010D01*
X67593Y135060D01*
X67669Y135126D01*
X67685Y135138D01*
X67686Y135140D01*
X67687Y135140D01*
X67694Y135149D01*
X67714Y135166D01*
X83852Y151305D01*
X101451Y151305D01*
X101549Y151317D01*
X101648Y151320D01*
X101706Y151337D01*
X101766Y151345D01*
X101858Y151381D01*
X101953Y151409D01*
X102006Y151439D01*
X102062Y151462D01*
X102142Y151520D01*
X102227Y151570D01*
X102303Y151636D01*
X102319Y151648D01*
X102327Y151658D01*
X102348Y151676D01*
X103452Y152781D01*
X109908Y152781D01*
X110951Y151738D01*
X110951Y151384D01*
X110966Y151266D01*
X110973Y151147D01*
X110986Y151109D01*
X110991Y151068D01*
X111034Y150958D01*
X111071Y150845D01*
X111093Y150810D01*
X111108Y150773D01*
X111177Y150677D01*
X111241Y150576D01*
X111271Y150548D01*
X111294Y150515D01*
X111386Y150439D01*
X111473Y150358D01*
X111508Y150338D01*
X111539Y150313D01*
X111647Y150262D01*
X111751Y150204D01*
X111791Y150194D01*
X111827Y150177D01*
X111944Y150155D01*
X112059Y150125D01*
X112119Y150121D01*
X112139Y150117D01*
X112160Y150119D01*
X112220Y150115D01*
X116078Y150115D01*
X116196Y150130D01*
X116315Y150137D01*
X116353Y150150D01*
X116394Y150155D01*
X116504Y150198D01*
X116617Y150235D01*
X116652Y150257D01*
X116689Y150272D01*
X116785Y150341D01*
X116886Y150405D01*
X116914Y150435D01*
X116947Y150458D01*
X117023Y150550D01*
X117104Y150637D01*
X117124Y150672D01*
X117149Y150703D01*
X117200Y150811D01*
X117258Y150915D01*
X117268Y150955D01*
X117285Y150991D01*
X117307Y151108D01*
X117337Y151223D01*
X117341Y151283D01*
X117345Y151303D01*
X117343Y151324D01*
X117347Y151384D01*
X117347Y151969D01*
X117335Y152067D01*
X117332Y152166D01*
X117315Y152224D01*
X117307Y152284D01*
X117271Y152376D01*
X117243Y152471D01*
X117213Y152523D01*
X117190Y152580D01*
X117132Y152660D01*
X117082Y152745D01*
X117016Y152821D01*
X117004Y152837D01*
X116994Y152845D01*
X116976Y152866D01*
X116585Y153256D01*
X116585Y156624D01*
X118966Y159005D01*
X122334Y159005D01*
X124715Y156624D01*
X124715Y153256D01*
X123308Y151850D01*
X123248Y151772D01*
X123180Y151700D01*
X123151Y151647D01*
X123114Y151599D01*
X123074Y151508D01*
X123026Y151421D01*
X123011Y151363D01*
X122987Y151307D01*
X122972Y151209D01*
X122947Y151113D01*
X122941Y151013D01*
X122937Y150993D01*
X122939Y150981D01*
X122937Y150953D01*
X122937Y150801D01*
X122949Y150703D01*
X122952Y150604D01*
X122969Y150545D01*
X122977Y150485D01*
X123013Y150393D01*
X123041Y150298D01*
X123071Y150246D01*
X123094Y150190D01*
X123152Y150110D01*
X123202Y150024D01*
X123268Y149949D01*
X123280Y149932D01*
X123290Y149924D01*
X123309Y149903D01*
X123913Y149299D01*
X123913Y145341D01*
X123507Y144935D01*
X123430Y144836D01*
X123347Y144740D01*
X123332Y144710D01*
X123312Y144684D01*
X123262Y144568D01*
X123206Y144456D01*
X123199Y144423D01*
X123185Y144392D01*
X123166Y144267D01*
X123140Y144145D01*
X123141Y144111D01*
X123136Y144078D01*
X123147Y143952D01*
X123153Y143827D01*
X123162Y143795D01*
X123165Y143761D01*
X123208Y143643D01*
X123244Y143522D01*
X123262Y143493D01*
X123273Y143462D01*
X123343Y143358D01*
X123409Y143250D01*
X123433Y143227D01*
X123452Y143199D01*
X123546Y143116D01*
X123636Y143027D01*
X123676Y143000D01*
X123690Y142988D01*
X123709Y142978D01*
X123770Y142938D01*
X124006Y142802D01*
X124574Y142234D01*
X124975Y141539D01*
X125183Y140764D01*
X125183Y140389D01*
X120142Y140389D01*
X115101Y140389D01*
X115101Y140764D01*
X115309Y141539D01*
X115710Y142234D01*
X115835Y142358D01*
X115920Y142468D01*
X116009Y142575D01*
X116017Y142594D01*
X116030Y142610D01*
X116085Y142737D01*
X116144Y142863D01*
X116148Y142883D01*
X116156Y142902D01*
X116178Y143038D01*
X116204Y143176D01*
X116203Y143196D01*
X116206Y143216D01*
X116193Y143354D01*
X116184Y143493D01*
X116178Y143512D01*
X116176Y143532D01*
X116129Y143663D01*
X116086Y143795D01*
X116075Y143813D01*
X116068Y143832D01*
X115990Y143947D01*
X115916Y144064D01*
X115901Y144078D01*
X115890Y144095D01*
X115786Y144187D01*
X115684Y144282D01*
X115667Y144292D01*
X115651Y144305D01*
X115528Y144368D01*
X115406Y144436D01*
X115386Y144441D01*
X115368Y144450D01*
X115232Y144480D01*
X115098Y144515D01*
X115070Y144517D01*
X115058Y144520D01*
X115037Y144519D01*
X114937Y144525D01*
X112856Y144525D01*
X112725Y144509D01*
X112593Y144498D01*
X112567Y144489D01*
X112540Y144485D01*
X112417Y144437D01*
X112292Y144393D01*
X112270Y144378D01*
X112245Y144368D01*
X112138Y144291D01*
X112027Y144217D01*
X112009Y144197D01*
X111987Y144182D01*
X111903Y144079D01*
X111814Y143981D01*
X111802Y143957D01*
X111784Y143937D01*
X111728Y143817D01*
X111667Y143700D01*
X111660Y143673D01*
X111649Y143649D01*
X111624Y143519D01*
X111594Y143390D01*
X111594Y143363D01*
X111589Y143337D01*
X111597Y143205D01*
X111600Y143072D01*
X111607Y143046D01*
X111609Y143019D01*
X111650Y142893D01*
X111685Y142766D01*
X111702Y142731D01*
X111707Y142717D01*
X111719Y142698D01*
X111757Y142621D01*
X112013Y142178D01*
X112221Y141402D01*
X112221Y140009D01*
X106910Y140009D01*
X106792Y139994D01*
X106673Y139987D01*
X106666Y139985D01*
X106610Y139999D01*
X106550Y140003D01*
X106530Y140007D01*
X106510Y140005D01*
X106450Y140009D01*
X101139Y140009D01*
X101139Y141402D01*
X101347Y142178D01*
X101749Y142873D01*
X102386Y143511D01*
X102459Y143605D01*
X102538Y143694D01*
X102556Y143730D01*
X102581Y143762D01*
X102628Y143871D01*
X102682Y143977D01*
X102691Y144017D01*
X102707Y144054D01*
X102726Y144171D01*
X102752Y144287D01*
X102751Y144328D01*
X102757Y144368D01*
X102746Y144486D01*
X102742Y144605D01*
X102731Y144644D01*
X102727Y144684D01*
X102687Y144797D01*
X102654Y144911D01*
X102634Y144946D01*
X102620Y144984D01*
X102553Y145082D01*
X102493Y145185D01*
X102453Y145230D01*
X102441Y145247D01*
X102426Y145260D01*
X102386Y145306D01*
X102348Y145344D01*
X102270Y145404D01*
X102198Y145472D01*
X102145Y145501D01*
X102097Y145538D01*
X102006Y145578D01*
X101919Y145626D01*
X101861Y145641D01*
X101805Y145665D01*
X101707Y145680D01*
X101611Y145705D01*
X101511Y145711D01*
X101491Y145715D01*
X101479Y145713D01*
X101451Y145715D01*
X86693Y145715D01*
X86595Y145703D01*
X86496Y145700D01*
X86438Y145683D01*
X86378Y145675D01*
X86286Y145639D01*
X86191Y145611D01*
X86138Y145581D01*
X86082Y145558D01*
X86002Y145500D01*
X85917Y145450D01*
X85841Y145384D01*
X85825Y145372D01*
X85817Y145362D01*
X85796Y145344D01*
X69658Y129205D01*
X59779Y129205D01*
X59681Y129193D01*
X59582Y129190D01*
X59524Y129173D01*
X59464Y129165D01*
X59372Y129129D01*
X59277Y129101D01*
X59224Y129071D01*
X59168Y129048D01*
X59088Y128990D01*
X59003Y128940D01*
X58927Y128874D01*
X58911Y128862D01*
X58903Y128852D01*
X58882Y128834D01*
X57946Y127898D01*
X57873Y127804D01*
X57794Y127714D01*
X57776Y127678D01*
X57751Y127646D01*
X57704Y127537D01*
X57649Y127431D01*
X57641Y127392D01*
X57625Y127354D01*
X57606Y127237D01*
X57580Y127121D01*
X57581Y127080D01*
X57575Y127040D01*
X57586Y126922D01*
X57589Y126803D01*
X57601Y126764D01*
X57605Y126724D01*
X57645Y126611D01*
X57678Y126497D01*
X57698Y126463D01*
X57712Y126424D01*
X57779Y126326D01*
X57839Y126223D01*
X57879Y126178D01*
X57891Y126161D01*
X57906Y126148D01*
X57946Y126103D01*
X58821Y125228D01*
X58821Y118772D01*
X57946Y117898D01*
X57873Y117804D01*
X57794Y117714D01*
X57776Y117678D01*
X57751Y117646D01*
X57704Y117537D01*
X57649Y117431D01*
X57641Y117392D01*
X57625Y117354D01*
X57606Y117237D01*
X57580Y117121D01*
X57581Y117080D01*
X57575Y117040D01*
X57586Y116922D01*
X57589Y116803D01*
X57601Y116764D01*
X57605Y116724D01*
X57645Y116611D01*
X57678Y116497D01*
X57698Y116463D01*
X57712Y116424D01*
X57779Y116326D01*
X57839Y116223D01*
X57879Y116178D01*
X57891Y116161D01*
X57906Y116148D01*
X57946Y116103D01*
X58895Y115153D01*
X58904Y115130D01*
X58941Y115017D01*
X58963Y114982D01*
X58978Y114945D01*
X59047Y114849D01*
X59111Y114748D01*
X59141Y114720D01*
X59164Y114687D01*
X59256Y114611D01*
X59343Y114530D01*
X59378Y114510D01*
X59409Y114485D01*
X59517Y114434D01*
X59621Y114376D01*
X59661Y114366D01*
X59697Y114349D01*
X59814Y114327D01*
X59929Y114297D01*
X59989Y114293D01*
X60009Y114289D01*
X60030Y114291D01*
X60090Y114287D01*
X104719Y114287D01*
X104817Y114299D01*
X104916Y114302D01*
X104974Y114319D01*
X105035Y114327D01*
X105127Y114363D01*
X105222Y114391D01*
X105274Y114421D01*
X105330Y114444D01*
X105410Y114502D01*
X105496Y114552D01*
X105571Y114618D01*
X105588Y114630D01*
X105595Y114640D01*
X105617Y114658D01*
X107765Y116807D01*
X116153Y116807D01*
X116252Y116819D01*
X116350Y116822D01*
X116409Y116839D01*
X116469Y116847D01*
X116561Y116883D01*
X116656Y116911D01*
X116708Y116941D01*
X116764Y116964D01*
X116844Y117022D01*
X116930Y117072D01*
X117005Y117138D01*
X117022Y117150D01*
X117030Y117160D01*
X117051Y117179D01*
X117595Y117723D01*
X117668Y117817D01*
X117746Y117906D01*
X117765Y117942D01*
X117790Y117974D01*
X117837Y118083D01*
X117891Y118189D01*
X117900Y118229D01*
X117916Y118266D01*
X117935Y118383D01*
X117961Y118499D01*
X117959Y118540D01*
X117966Y118580D01*
X117955Y118698D01*
X117951Y118817D01*
X117940Y118856D01*
X117936Y118896D01*
X117896Y119008D01*
X117863Y119123D01*
X117842Y119158D01*
X117828Y119196D01*
X117762Y119294D01*
X117701Y119397D01*
X117661Y119442D01*
X117650Y119459D01*
X117635Y119472D01*
X117595Y119518D01*
X117051Y120062D01*
X116972Y120122D01*
X116900Y120190D01*
X116847Y120219D01*
X116799Y120256D01*
X116708Y120296D01*
X116622Y120344D01*
X116563Y120359D01*
X116508Y120383D01*
X116410Y120398D01*
X116314Y120423D01*
X116214Y120429D01*
X116193Y120433D01*
X116181Y120431D01*
X116153Y120433D01*
X87337Y120433D01*
X87239Y120421D01*
X87140Y120418D01*
X87082Y120401D01*
X87022Y120393D01*
X86930Y120357D01*
X86835Y120329D01*
X86783Y120299D01*
X86726Y120276D01*
X86646Y120218D01*
X86561Y120168D01*
X86485Y120102D01*
X86469Y120090D01*
X86461Y120080D01*
X86440Y120062D01*
X84234Y117855D01*
X80866Y117855D01*
X78485Y120236D01*
X78485Y123604D01*
X80866Y125985D01*
X84234Y125985D01*
X84840Y125378D01*
X84918Y125318D01*
X84990Y125250D01*
X85043Y125221D01*
X85091Y125184D01*
X85182Y125144D01*
X85269Y125096D01*
X85327Y125081D01*
X85383Y125057D01*
X85481Y125042D01*
X85577Y125017D01*
X85677Y125011D01*
X85697Y125007D01*
X85709Y125009D01*
X85737Y125007D01*
X92241Y125007D01*
X92379Y125024D01*
X92517Y125037D01*
X92536Y125044D01*
X92556Y125047D01*
X92685Y125098D01*
X92816Y125145D01*
X92833Y125156D01*
X92852Y125164D01*
X92964Y125245D01*
X93079Y125323D01*
X93093Y125339D01*
X93109Y125350D01*
X93198Y125458D01*
X93290Y125562D01*
X93299Y125580D01*
X93312Y125595D01*
X93371Y125721D01*
X93434Y125845D01*
X93439Y125865D01*
X93448Y125883D01*
X93474Y126020D01*
X93504Y126155D01*
X93504Y126176D01*
X93507Y126195D01*
X93499Y126334D01*
X93494Y126473D01*
X93489Y126493D01*
X93488Y126513D01*
X93445Y126645D01*
X93406Y126779D01*
X93396Y126796D01*
X93390Y126815D01*
X93315Y126933D01*
X93245Y127053D01*
X93226Y127074D01*
X93219Y127084D01*
X93204Y127098D01*
X93138Y127173D01*
X92455Y127856D01*
X92455Y131224D01*
X94836Y133605D01*
X98204Y133605D01*
X98230Y133578D01*
X98308Y133518D01*
X98380Y133450D01*
X98433Y133421D01*
X98481Y133384D01*
X98572Y133344D01*
X98659Y133296D01*
X98717Y133281D01*
X98773Y133257D01*
X98871Y133242D01*
X98967Y133217D01*
X99067Y133211D01*
X99087Y133207D01*
X99099Y133209D01*
X99127Y133207D01*
X100131Y133207D01*
X100256Y133222D01*
X100381Y133232D01*
X100413Y133242D01*
X100447Y133247D01*
X100564Y133293D01*
X100683Y133333D01*
X100711Y133351D01*
X100743Y133364D01*
X100844Y133437D01*
X100950Y133506D01*
X100973Y133531D01*
X101000Y133550D01*
X101080Y133647D01*
X101165Y133740D01*
X101181Y133769D01*
X101203Y133795D01*
X101256Y133909D01*
X101316Y134020D01*
X101324Y134053D01*
X101338Y134083D01*
X101362Y134207D01*
X101392Y134329D01*
X101392Y134362D01*
X101398Y134395D01*
X101390Y134521D01*
X101389Y134647D01*
X101379Y134695D01*
X101378Y134713D01*
X101372Y134733D01*
X101357Y134805D01*
X101139Y135618D01*
X101139Y137011D01*
X106450Y137011D01*
X106568Y137026D01*
X106687Y137033D01*
X106694Y137035D01*
X106750Y137021D01*
X106810Y137017D01*
X106830Y137013D01*
X106850Y137015D01*
X106910Y137011D01*
X112221Y137011D01*
X112221Y135618D01*
X112003Y134805D01*
X111986Y134680D01*
X111962Y134556D01*
X111964Y134523D01*
X111959Y134489D01*
X111974Y134364D01*
X111982Y134239D01*
X111992Y134207D01*
X111996Y134174D01*
X112041Y134056D01*
X112080Y133937D01*
X112098Y133908D01*
X112110Y133877D01*
X112183Y133774D01*
X112250Y133668D01*
X112274Y133645D01*
X112294Y133617D01*
X112390Y133536D01*
X112482Y133450D01*
X112511Y133434D01*
X112537Y133412D01*
X112650Y133357D01*
X112760Y133296D01*
X112793Y133288D01*
X112823Y133273D01*
X112946Y133248D01*
X113068Y133217D01*
X113117Y133214D01*
X113135Y133210D01*
X113156Y133211D01*
X113229Y133207D01*
X115445Y133207D01*
X115583Y133224D01*
X115722Y133237D01*
X115741Y133244D01*
X115761Y133247D01*
X115890Y133298D01*
X116021Y133345D01*
X116038Y133356D01*
X116056Y133364D01*
X116169Y133445D01*
X116284Y133523D01*
X116297Y133539D01*
X116314Y133550D01*
X116403Y133658D01*
X116494Y133762D01*
X116504Y133780D01*
X116517Y133795D01*
X116576Y133921D01*
X116639Y134045D01*
X116643Y134065D01*
X116652Y134083D01*
X116678Y134220D01*
X116709Y134355D01*
X116708Y134376D01*
X116712Y134395D01*
X116703Y134534D01*
X116699Y134673D01*
X116693Y134693D01*
X116692Y134713D01*
X116649Y134845D01*
X116611Y134979D01*
X116600Y134996D01*
X116594Y135015D01*
X116520Y135133D01*
X116449Y135253D01*
X116430Y135274D01*
X116424Y135284D01*
X116409Y135298D01*
X116343Y135373D01*
X115710Y136006D01*
X115309Y136701D01*
X115101Y137476D01*
X115101Y137851D01*
X120142Y137851D01*
X125183Y137851D01*
X125183Y137476D01*
X124975Y136701D01*
X124574Y136006D01*
X124006Y135438D01*
X123770Y135302D01*
X123670Y135226D01*
X123565Y135155D01*
X123543Y135130D01*
X123516Y135110D01*
X123438Y135011D01*
X123355Y134917D01*
X123340Y134887D01*
X123319Y134860D01*
X123268Y134745D01*
X123210Y134633D01*
X123203Y134601D01*
X123189Y134570D01*
X123168Y134446D01*
X123141Y134323D01*
X123142Y134290D01*
X123136Y134256D01*
X123147Y134131D01*
X123150Y134005D01*
X123160Y133973D01*
X123163Y133939D01*
X123204Y133821D01*
X123239Y133700D01*
X123256Y133671D01*
X123267Y133639D01*
X123336Y133534D01*
X123400Y133426D01*
X123433Y133389D01*
X123443Y133374D01*
X123459Y133359D01*
X123507Y133305D01*
X123913Y132899D01*
X123913Y128941D01*
X122689Y127718D01*
X122616Y127623D01*
X122538Y127534D01*
X122519Y127498D01*
X122494Y127466D01*
X122447Y127357D01*
X122393Y127251D01*
X122384Y127212D01*
X122368Y127174D01*
X122349Y127057D01*
X122323Y126941D01*
X122325Y126900D01*
X122318Y126860D01*
X122329Y126742D01*
X122333Y126623D01*
X122344Y126584D01*
X122348Y126544D01*
X122388Y126431D01*
X122421Y126317D01*
X122442Y126283D01*
X122456Y126244D01*
X122522Y126146D01*
X122583Y126043D01*
X122623Y125998D01*
X122634Y125981D01*
X122649Y125968D01*
X122689Y125923D01*
X123913Y124699D01*
X123913Y120741D01*
X122689Y119518D01*
X122616Y119423D01*
X122538Y119334D01*
X122519Y119298D01*
X122494Y119266D01*
X122447Y119157D01*
X122393Y119051D01*
X122384Y119012D01*
X122368Y118974D01*
X122349Y118857D01*
X122323Y118741D01*
X122325Y118700D01*
X122318Y118660D01*
X122329Y118542D01*
X122333Y118423D01*
X122344Y118384D01*
X122348Y118344D01*
X122388Y118232D01*
X122421Y118117D01*
X122442Y118082D01*
X122456Y118044D01*
X122522Y117946D01*
X122583Y117843D01*
X122623Y117798D01*
X122634Y117781D01*
X122649Y117768D01*
X122689Y117723D01*
X123233Y117179D01*
X123312Y117118D01*
X123384Y117050D01*
X123437Y117021D01*
X123485Y116984D01*
X123575Y116944D01*
X123662Y116896D01*
X123721Y116881D01*
X123776Y116857D01*
X123874Y116842D01*
X123970Y116817D01*
X124070Y116811D01*
X124090Y116807D01*
X124103Y116809D01*
X124131Y116807D01*
X125187Y116807D01*
X126461Y115533D01*
X126566Y115452D01*
X126667Y115366D01*
X126691Y115354D01*
X126712Y115338D01*
X126834Y115285D01*
X126953Y115228D01*
X126979Y115222D01*
X127004Y115211D01*
X127135Y115191D01*
X127265Y115164D01*
X127292Y115166D01*
X127318Y115162D01*
X127450Y115174D01*
X127582Y115181D01*
X127608Y115189D01*
X127635Y115191D01*
X127760Y115236D01*
X127886Y115276D01*
X127909Y115290D01*
X127934Y115299D01*
X128044Y115374D01*
X128156Y115443D01*
X128175Y115462D01*
X128197Y115478D01*
X128285Y115577D01*
X128377Y115672D01*
X128390Y115696D01*
X128408Y115716D01*
X128468Y115834D01*
X128533Y115949D01*
X128545Y115985D01*
X128552Y115999D01*
X128557Y116021D01*
X128585Y116102D01*
X128809Y116939D01*
X129210Y117634D01*
X129778Y118202D01*
X130014Y118338D01*
X130114Y118414D01*
X130218Y118485D01*
X130241Y118510D01*
X130268Y118530D01*
X130346Y118629D01*
X130429Y118723D01*
X130444Y118753D01*
X130465Y118780D01*
X130516Y118894D01*
X130574Y119006D01*
X130581Y119039D01*
X130595Y119070D01*
X130616Y119194D01*
X130643Y119317D01*
X130642Y119350D01*
X130648Y119384D01*
X130637Y119509D01*
X130634Y119635D01*
X130624Y119667D01*
X130621Y119701D01*
X130580Y119819D01*
X130545Y119940D01*
X130528Y119969D01*
X130517Y120001D01*
X130448Y120106D01*
X130384Y120214D01*
X130351Y120251D01*
X130341Y120266D01*
X130325Y120280D01*
X130277Y120335D01*
X129871Y120741D01*
X129871Y124699D01*
X131095Y125922D01*
X131168Y126017D01*
X131246Y126106D01*
X131265Y126142D01*
X131290Y126174D01*
X131337Y126283D01*
X131391Y126389D01*
X131400Y126428D01*
X131416Y126466D01*
X131435Y126583D01*
X131461Y126699D01*
X131459Y126740D01*
X131466Y126780D01*
X131455Y126898D01*
X131451Y127017D01*
X131440Y127056D01*
X131436Y127096D01*
X131396Y127208D01*
X131363Y127323D01*
X131342Y127357D01*
X131328Y127396D01*
X131262Y127494D01*
X131201Y127597D01*
X131161Y127642D01*
X131150Y127659D01*
X131135Y127672D01*
X131095Y127717D01*
X129871Y128941D01*
X129871Y132899D01*
X130277Y133305D01*
X130354Y133404D01*
X130437Y133500D01*
X130452Y133530D01*
X130472Y133556D01*
X130522Y133672D01*
X130578Y133784D01*
X130585Y133817D01*
X130599Y133848D01*
X130618Y133973D01*
X130644Y134095D01*
X130643Y134129D01*
X130648Y134162D01*
X130637Y134288D01*
X130631Y134413D01*
X130622Y134445D01*
X130619Y134479D01*
X130576Y134598D01*
X130540Y134718D01*
X130522Y134746D01*
X130511Y134778D01*
X130440Y134882D01*
X130375Y134990D01*
X130351Y135013D01*
X130332Y135041D01*
X130238Y135124D01*
X130148Y135213D01*
X130108Y135240D01*
X130094Y135252D01*
X130075Y135262D01*
X130014Y135302D01*
X129778Y135438D01*
X129210Y136006D01*
X128809Y136701D01*
X128601Y137476D01*
X128601Y137851D01*
X133642Y137851D01*
X133760Y137866D01*
X133879Y137873D01*
X133917Y137885D01*
X133957Y137890D01*
X134068Y137934D01*
X134181Y137971D01*
X134215Y137993D01*
X134253Y138007D01*
X134349Y138077D01*
X134450Y138141D01*
X134478Y138171D01*
X134510Y138194D01*
X134586Y138286D01*
X134668Y138373D01*
X134687Y138408D01*
X134713Y138439D01*
X134764Y138547D01*
X134821Y138651D01*
X134831Y138690D01*
X134849Y138727D01*
X134871Y138844D01*
X134901Y138959D01*
X134905Y139019D01*
X134908Y139039D01*
X134908Y139040D01*
X134907Y139060D01*
X134911Y139120D01*
X134896Y139238D01*
X134889Y139357D01*
X134876Y139395D01*
X134871Y139436D01*
X134827Y139546D01*
X134791Y139660D01*
X134769Y139694D01*
X134754Y139731D01*
X134684Y139828D01*
X134620Y139928D01*
X134591Y139956D01*
X134567Y139989D01*
X134475Y140065D01*
X134389Y140146D01*
X134353Y140166D01*
X134322Y140192D01*
X134215Y140242D01*
X134110Y140300D01*
X134071Y140310D01*
X134035Y140327D01*
X133918Y140349D01*
X133802Y140379D01*
X133742Y140383D01*
X133722Y140387D01*
X133702Y140386D01*
X133642Y140389D01*
X128601Y140389D01*
X128601Y140764D01*
X128809Y141539D01*
X129210Y142234D01*
X129778Y142802D01*
X130014Y142938D01*
X130114Y143014D01*
X130218Y143085D01*
X130241Y143110D01*
X130268Y143130D01*
X130346Y143229D01*
X130429Y143323D01*
X130444Y143353D01*
X130465Y143380D01*
X130516Y143494D01*
X130574Y143606D01*
X130581Y143639D01*
X130595Y143670D01*
X130616Y143794D01*
X130643Y143917D01*
X130642Y143950D01*
X130648Y143984D01*
X130637Y144109D01*
X130634Y144235D01*
X130624Y144267D01*
X130621Y144301D01*
X130580Y144419D01*
X130545Y144540D01*
X130528Y144569D01*
X130517Y144601D01*
X130448Y144706D01*
X130384Y144814D01*
X130351Y144851D01*
X130341Y144866D01*
X130325Y144880D01*
X130277Y144935D01*
X129871Y145341D01*
X129871Y149299D01*
X130476Y149903D01*
X130536Y149982D01*
X130604Y150054D01*
X130633Y150107D01*
X130670Y150155D01*
X130710Y150246D01*
X130758Y150332D01*
X130773Y150391D01*
X130797Y150446D01*
X130812Y150544D01*
X130837Y150640D01*
X130843Y150740D01*
X130847Y150761D01*
X130845Y150773D01*
X130847Y150801D01*
X130847Y151169D01*
X130835Y151267D01*
X130832Y151366D01*
X130815Y151424D01*
X130807Y151484D01*
X130771Y151576D01*
X130743Y151671D01*
X130713Y151723D01*
X130690Y151780D01*
X130632Y151860D01*
X130582Y151945D01*
X130516Y152021D01*
X130504Y152037D01*
X130494Y152045D01*
X130476Y152066D01*
X129285Y153256D01*
X129285Y156624D01*
X131666Y159005D01*
X135034Y159005D01*
X137415Y156624D01*
X137415Y153256D01*
X136808Y152650D01*
X136748Y152572D01*
X136680Y152500D01*
X136651Y152447D01*
X136614Y152399D01*
X136574Y152308D01*
X136526Y152221D01*
X136511Y152163D01*
X136487Y152107D01*
X136472Y152009D01*
X136447Y151913D01*
X136441Y151813D01*
X136437Y151793D01*
X136439Y151781D01*
X136437Y151753D01*
X136437Y151384D01*
X136452Y151266D01*
X136459Y151147D01*
X136472Y151109D01*
X136477Y151068D01*
X136520Y150958D01*
X136557Y150845D01*
X136579Y150810D01*
X136594Y150773D01*
X136663Y150677D01*
X136727Y150576D01*
X136757Y150548D01*
X136780Y150515D01*
X136872Y150439D01*
X136959Y150358D01*
X136994Y150338D01*
X137025Y150313D01*
X137133Y150262D01*
X137237Y150204D01*
X137277Y150194D01*
X137313Y150177D01*
X137430Y150155D01*
X137545Y150125D01*
X137605Y150121D01*
X137625Y150117D01*
X137646Y150119D01*
X137706Y150115D01*
X139240Y150115D01*
X139358Y150130D01*
X139477Y150137D01*
X139515Y150150D01*
X139556Y150155D01*
X139666Y150198D01*
X139779Y150235D01*
X139814Y150257D01*
X139851Y150272D01*
X139947Y150341D01*
X140048Y150405D01*
X140076Y150435D01*
X140109Y150458D01*
X140185Y150550D01*
X140266Y150637D01*
X140286Y150672D01*
X140311Y150703D01*
X140362Y150811D01*
X140420Y150915D01*
X140430Y150955D01*
X140447Y150991D01*
X140469Y151108D01*
X140499Y151223D01*
X140503Y151283D01*
X140507Y151303D01*
X140505Y151324D01*
X140509Y151384D01*
X140509Y151738D01*
X141552Y152781D01*
X148008Y152781D01*
X149112Y151676D01*
X149190Y151616D01*
X149262Y151548D01*
X149315Y151519D01*
X149363Y151482D01*
X149454Y151442D01*
X149541Y151394D01*
X149599Y151379D01*
X149655Y151355D01*
X149753Y151340D01*
X149849Y151315D01*
X149949Y151309D01*
X149969Y151305D01*
X149981Y151307D01*
X150009Y151305D01*
X181197Y151305D01*
X181295Y151317D01*
X181394Y151320D01*
X181452Y151337D01*
X181512Y151345D01*
X181604Y151381D01*
X181699Y151409D01*
X181752Y151439D01*
X181808Y151462D01*
X181888Y151520D01*
X181973Y151570D01*
X182049Y151636D01*
X182065Y151648D01*
X182073Y151658D01*
X182094Y151676D01*
X185612Y155195D01*
X213248Y155195D01*
X220496Y147946D01*
X222505Y145938D01*
X222505Y128382D01*
X215256Y121134D01*
X213248Y119125D01*
X212183Y119125D01*
X212045Y119108D01*
X211907Y119095D01*
X211888Y119088D01*
X211868Y119085D01*
X211738Y119034D01*
X211608Y118987D01*
X211591Y118976D01*
X211572Y118968D01*
X211460Y118887D01*
X211345Y118809D01*
X211331Y118793D01*
X211315Y118782D01*
X211226Y118674D01*
X211134Y118570D01*
X211125Y118552D01*
X211112Y118537D01*
X211053Y118411D01*
X210990Y118287D01*
X210985Y118267D01*
X210976Y118249D01*
X210950Y118112D01*
X210920Y117977D01*
X210920Y117956D01*
X210917Y117937D01*
X210925Y117798D01*
X210930Y117659D01*
X210935Y117639D01*
X210936Y117619D01*
X210979Y117487D01*
X211018Y117353D01*
X211028Y117336D01*
X211034Y117317D01*
X211109Y117199D01*
X211179Y117079D01*
X211198Y117058D01*
X211205Y117048D01*
X211220Y117034D01*
X211286Y116959D01*
X211881Y116363D01*
X212283Y115668D01*
X212491Y114892D01*
X212491Y113499D01*
X203430Y113499D01*
X203312Y113484D01*
X203193Y113477D01*
X203186Y113475D01*
X203130Y113489D01*
X203070Y113493D01*
X203050Y113497D01*
X203030Y113495D01*
X202970Y113499D01*
X193909Y113499D01*
X193909Y114892D01*
X194117Y115668D01*
X194519Y116363D01*
X195156Y117001D01*
X195229Y117095D01*
X195308Y117184D01*
X195326Y117220D01*
X195351Y117252D01*
X195398Y117361D01*
X195452Y117467D01*
X195461Y117506D01*
X195477Y117544D01*
X195496Y117661D01*
X195522Y117777D01*
X195521Y117818D01*
X195527Y117858D01*
X195516Y117976D01*
X195512Y118095D01*
X195501Y118134D01*
X195497Y118174D01*
X195457Y118286D01*
X195424Y118401D01*
X195404Y118436D01*
X195390Y118474D01*
X195323Y118572D01*
X195263Y118675D01*
X195223Y118720D01*
X195211Y118737D01*
X195196Y118750D01*
X195179Y118769D01*
X195179Y125228D01*
X196054Y126102D01*
X196127Y126196D01*
X196206Y126286D01*
X196224Y126322D01*
X196249Y126354D01*
X196296Y126463D01*
X196351Y126569D01*
X196359Y126608D01*
X196375Y126646D01*
X196394Y126763D01*
X196420Y126879D01*
X196419Y126920D01*
X196425Y126960D01*
X196414Y127078D01*
X196411Y127197D01*
X196399Y127236D01*
X196395Y127276D01*
X196355Y127388D01*
X196322Y127503D01*
X196302Y127537D01*
X196288Y127576D01*
X196221Y127674D01*
X196161Y127777D01*
X196121Y127822D01*
X196109Y127839D01*
X196094Y127852D01*
X196054Y127897D01*
X195105Y128847D01*
X195096Y128870D01*
X195059Y128983D01*
X195037Y129018D01*
X195022Y129055D01*
X194953Y129151D01*
X194889Y129252D01*
X194859Y129280D01*
X194836Y129313D01*
X194744Y129389D01*
X194657Y129470D01*
X194622Y129490D01*
X194591Y129515D01*
X194483Y129566D01*
X194379Y129624D01*
X194339Y129634D01*
X194303Y129651D01*
X194186Y129673D01*
X194071Y129703D01*
X194011Y129707D01*
X193991Y129711D01*
X193970Y129709D01*
X193910Y129713D01*
X183003Y129713D01*
X182905Y129701D01*
X182806Y129698D01*
X182748Y129681D01*
X182687Y129673D01*
X182595Y129637D01*
X182500Y129609D01*
X182448Y129579D01*
X182392Y129556D01*
X182312Y129498D01*
X182226Y129448D01*
X182151Y129382D01*
X182134Y129370D01*
X182127Y129360D01*
X182105Y129342D01*
X165218Y112455D01*
X165158Y112376D01*
X165090Y112304D01*
X165061Y112251D01*
X165024Y112203D01*
X164984Y112112D01*
X164936Y112026D01*
X164921Y111967D01*
X164897Y111911D01*
X164882Y111813D01*
X164857Y111718D01*
X164851Y111618D01*
X164847Y111597D01*
X164849Y111585D01*
X164847Y111557D01*
X164847Y42087D01*
X164859Y41989D01*
X164862Y41890D01*
X164879Y41832D01*
X164887Y41772D01*
X164923Y41680D01*
X164951Y41585D01*
X164981Y41533D01*
X165004Y41476D01*
X165062Y41396D01*
X165112Y41311D01*
X165178Y41235D01*
X165190Y41219D01*
X165200Y41211D01*
X165218Y41190D01*
X166625Y39784D01*
X166625Y36416D01*
X164244Y34035D01*
X160876Y34035D01*
X160664Y34248D01*
X160554Y34333D01*
X160447Y34422D01*
X160428Y34431D01*
X160412Y34443D01*
X160284Y34498D01*
X160159Y34558D01*
X160139Y34561D01*
X160120Y34569D01*
X159982Y34591D01*
X159846Y34617D01*
X159826Y34616D01*
X159806Y34619D01*
X159667Y34606D01*
X159529Y34598D01*
X159510Y34591D01*
X159490Y34589D01*
X159359Y34542D01*
X159227Y34500D01*
X159209Y34489D01*
X159190Y34482D01*
X159076Y34404D01*
X158958Y34329D01*
X158944Y34315D01*
X158927Y34303D01*
X158835Y34199D01*
X158740Y34098D01*
X158730Y34080D01*
X158717Y34065D01*
X158654Y33941D01*
X158586Y33819D01*
X158581Y33800D01*
X158572Y33782D01*
X158542Y33646D01*
X158507Y33511D01*
X158505Y33483D01*
X158502Y33471D01*
X158503Y33451D01*
X158497Y33351D01*
X158497Y28263D01*
X149412Y19178D01*
X149394Y19155D01*
X149372Y19136D01*
X149297Y19029D01*
X149217Y18927D01*
X149206Y18900D01*
X149189Y18876D01*
X149143Y18755D01*
X149091Y18635D01*
X149086Y18606D01*
X149076Y18579D01*
X149062Y18450D01*
X149041Y18321D01*
X149044Y18292D01*
X149041Y18262D01*
X149059Y18134D01*
X149071Y18005D01*
X149081Y17977D01*
X149085Y17948D01*
X149137Y17795D01*
X150369Y14822D01*
X150369Y10578D01*
X148745Y6657D01*
X147049Y4961D01*
X146964Y4852D01*
X146875Y4745D01*
X146867Y4726D01*
X146854Y4710D01*
X146799Y4582D01*
X146740Y4457D01*
X146736Y4437D01*
X146728Y4418D01*
X146706Y4280D01*
X146680Y4144D01*
X146681Y4124D01*
X146678Y4104D01*
X146691Y3965D01*
X146700Y3827D01*
X146706Y3808D01*
X146708Y3788D01*
X146755Y3656D01*
X146798Y3525D01*
X146809Y3507D01*
X146816Y3488D01*
X146894Y3373D01*
X146968Y3256D01*
X146983Y3242D01*
X146994Y3225D01*
X147098Y3133D01*
X147200Y3038D01*
X147217Y3028D01*
X147233Y3015D01*
X147357Y2951D01*
X147478Y2884D01*
X147498Y2879D01*
X147516Y2870D01*
X147652Y2840D01*
X147786Y2805D01*
X147814Y2803D01*
X147826Y2800D01*
X147847Y2801D01*
X147947Y2795D01*
X156853Y2795D01*
X156991Y2812D01*
X157130Y2825D01*
X157149Y2832D01*
X157169Y2835D01*
X157298Y2886D01*
X157429Y2933D01*
X157446Y2944D01*
X157464Y2952D01*
X157577Y3033D01*
X157692Y3111D01*
X157705Y3127D01*
X157722Y3138D01*
X157811Y3246D01*
X157902Y3350D01*
X157912Y3368D01*
X157925Y3383D01*
X157984Y3509D01*
X158047Y3633D01*
X158051Y3653D01*
X158060Y3671D01*
X158086Y3808D01*
X158117Y3943D01*
X158116Y3964D01*
X158120Y3983D01*
X158111Y4122D01*
X158107Y4261D01*
X158101Y4281D01*
X158100Y4301D01*
X158057Y4433D01*
X158019Y4567D01*
X158008Y4584D01*
X158002Y4603D01*
X157927Y4721D01*
X157857Y4841D01*
X157839Y4862D01*
X157832Y4872D01*
X157817Y4886D01*
X157751Y4961D01*
X156055Y6657D01*
X154431Y10578D01*
X154431Y14822D01*
X156055Y18743D01*
X159057Y21745D01*
X162978Y23369D01*
X167222Y23369D01*
X171143Y21745D01*
X174145Y18743D01*
X175769Y14822D01*
X175769Y10578D01*
X174145Y6657D01*
X172449Y4961D01*
X172364Y4852D01*
X172275Y4745D01*
X172267Y4726D01*
X172254Y4710D01*
X172199Y4582D01*
X172140Y4457D01*
X172136Y4437D01*
X172128Y4418D01*
X172106Y4280D01*
X172080Y4144D01*
X172081Y4124D01*
X172078Y4104D01*
X172091Y3965D01*
X172100Y3827D01*
X172106Y3808D01*
X172108Y3788D01*
X172155Y3656D01*
X172198Y3525D01*
X172209Y3507D01*
X172216Y3488D01*
X172294Y3373D01*
X172368Y3256D01*
X172383Y3242D01*
X172394Y3225D01*
X172498Y3133D01*
X172600Y3038D01*
X172617Y3028D01*
X172633Y3015D01*
X172757Y2951D01*
X172878Y2884D01*
X172898Y2879D01*
X172916Y2870D01*
X173052Y2840D01*
X173186Y2805D01*
X173214Y2803D01*
X173226Y2800D01*
X173247Y2801D01*
X173347Y2795D01*
X182253Y2795D01*
X182391Y2812D01*
X182530Y2825D01*
X182549Y2832D01*
X182569Y2835D01*
X182698Y2886D01*
X182829Y2933D01*
X182846Y2944D01*
X182864Y2952D01*
X182977Y3033D01*
X183092Y3111D01*
X183105Y3127D01*
X183122Y3138D01*
X183211Y3246D01*
X183302Y3350D01*
X183312Y3368D01*
X183325Y3383D01*
X183384Y3509D01*
X183447Y3633D01*
X183451Y3653D01*
X183460Y3671D01*
X183486Y3808D01*
X183517Y3943D01*
X183516Y3964D01*
X183520Y3983D01*
X183511Y4122D01*
X183507Y4261D01*
X183501Y4281D01*
X183500Y4301D01*
X183457Y4433D01*
X183419Y4567D01*
X183408Y4584D01*
X183402Y4603D01*
X183327Y4721D01*
X183257Y4841D01*
X183239Y4862D01*
X183232Y4872D01*
X183217Y4886D01*
X183151Y4961D01*
X181455Y6657D01*
X179831Y10578D01*
X179831Y14822D01*
X181455Y18743D01*
X184457Y21745D01*
X187430Y22976D01*
X187455Y22991D01*
X187483Y23000D01*
X187593Y23069D01*
X187706Y23134D01*
X187727Y23154D01*
X187752Y23170D01*
X187841Y23265D01*
X187934Y23355D01*
X187950Y23380D01*
X187970Y23402D01*
X188033Y23515D01*
X188101Y23626D01*
X188109Y23654D01*
X188124Y23680D01*
X188156Y23806D01*
X188194Y23930D01*
X188196Y23959D01*
X188203Y23988D01*
X188213Y24149D01*
X188213Y27737D01*
X188201Y27835D01*
X188198Y27934D01*
X188181Y27992D01*
X188173Y28053D01*
X188137Y28145D01*
X188109Y28240D01*
X188079Y28292D01*
X188056Y28348D01*
X187998Y28428D01*
X187948Y28514D01*
X187882Y28589D01*
X187870Y28606D01*
X187860Y28613D01*
X187842Y28635D01*
X176145Y40331D01*
X176051Y40404D01*
X175961Y40483D01*
X175925Y40502D01*
X175893Y40526D01*
X175784Y40574D01*
X175678Y40628D01*
X175639Y40637D01*
X175602Y40653D01*
X175484Y40671D01*
X175368Y40697D01*
X175328Y40696D01*
X175288Y40702D01*
X175169Y40691D01*
X175050Y40688D01*
X175011Y40676D01*
X174971Y40673D01*
X174859Y40632D01*
X174744Y40599D01*
X174710Y40579D01*
X174672Y40565D01*
X174573Y40498D01*
X174471Y40438D01*
X174425Y40398D01*
X174408Y40386D01*
X174407Y40385D01*
X171036Y40385D01*
X168655Y42766D01*
X168655Y46134D01*
X171036Y48515D01*
X174404Y48515D01*
X175810Y47108D01*
X175888Y47048D01*
X175960Y46980D01*
X175969Y46975D01*
X192787Y30157D01*
X192787Y24149D01*
X192790Y24119D01*
X192788Y24090D01*
X192810Y23962D01*
X192827Y23833D01*
X192837Y23806D01*
X192842Y23777D01*
X192896Y23658D01*
X192944Y23537D01*
X192961Y23514D01*
X192973Y23487D01*
X193054Y23385D01*
X193130Y23280D01*
X193153Y23261D01*
X193172Y23238D01*
X193275Y23160D01*
X193375Y23077D01*
X193402Y23065D01*
X193426Y23047D01*
X193570Y22976D01*
X196543Y21745D01*
X199545Y18743D01*
X201169Y14822D01*
X201169Y10578D01*
X199545Y6657D01*
X197849Y4961D01*
X197764Y4852D01*
X197675Y4745D01*
X197667Y4726D01*
X197654Y4710D01*
X197599Y4582D01*
X197540Y4457D01*
X197536Y4437D01*
X197528Y4418D01*
X197506Y4280D01*
X197480Y4144D01*
X197481Y4124D01*
X197478Y4104D01*
X197491Y3965D01*
X197500Y3827D01*
X197506Y3808D01*
X197508Y3788D01*
X197555Y3656D01*
X197598Y3525D01*
X197609Y3507D01*
X197616Y3488D01*
X197694Y3373D01*
X197768Y3256D01*
X197783Y3242D01*
X197794Y3225D01*
X197898Y3133D01*
X198000Y3038D01*
X198017Y3028D01*
X198033Y3015D01*
X198157Y2951D01*
X198278Y2884D01*
X198298Y2879D01*
X198316Y2870D01*
X198452Y2840D01*
X198586Y2805D01*
X198614Y2803D01*
X198626Y2800D01*
X198647Y2801D01*
X198747Y2795D01*
X207653Y2795D01*
X207791Y2812D01*
X207930Y2825D01*
X207949Y2832D01*
X207969Y2835D01*
X208098Y2886D01*
X208229Y2933D01*
X208246Y2944D01*
X208264Y2952D01*
X208377Y3033D01*
X208492Y3111D01*
X208505Y3127D01*
X208522Y3138D01*
X208611Y3246D01*
X208702Y3350D01*
X208712Y3368D01*
X208725Y3383D01*
X208784Y3509D01*
X208847Y3633D01*
X208851Y3653D01*
X208860Y3671D01*
X208886Y3808D01*
X208917Y3943D01*
X208916Y3964D01*
X208920Y3983D01*
X208911Y4122D01*
X208907Y4261D01*
X208901Y4281D01*
X208900Y4301D01*
X208857Y4433D01*
X208819Y4567D01*
X208808Y4584D01*
X208802Y4603D01*
X208727Y4721D01*
X208657Y4841D01*
X208639Y4862D01*
X208632Y4872D01*
X208617Y4886D01*
X208551Y4961D01*
X206855Y6657D01*
X205231Y10578D01*
X205231Y14822D01*
X206855Y18743D01*
X209857Y21745D01*
X212830Y22976D01*
X212855Y22991D01*
X212883Y23000D01*
X212993Y23069D01*
X213106Y23134D01*
X213127Y23154D01*
X213152Y23170D01*
X213241Y23265D01*
X213334Y23355D01*
X213350Y23380D01*
X213370Y23402D01*
X213433Y23515D01*
X213501Y23626D01*
X213509Y23654D01*
X213524Y23680D01*
X213556Y23806D01*
X213594Y23930D01*
X213596Y23959D01*
X213603Y23988D01*
X213613Y24149D01*
X213613Y74727D01*
X213601Y74825D01*
X213598Y74924D01*
X213581Y74982D01*
X213573Y75043D01*
X213537Y75135D01*
X213509Y75230D01*
X213479Y75282D01*
X213456Y75338D01*
X213398Y75418D01*
X213348Y75504D01*
X213282Y75579D01*
X213270Y75596D01*
X213260Y75603D01*
X213242Y75625D01*
X180273Y108594D01*
X180194Y108654D01*
X180122Y108722D01*
X180069Y108751D01*
X180021Y108788D01*
X179930Y108828D01*
X179844Y108876D01*
X179785Y108891D01*
X179729Y108915D01*
X179631Y108930D01*
X179536Y108955D01*
X179436Y108961D01*
X179415Y108965D01*
X179403Y108963D01*
X179375Y108965D01*
X177207Y108965D01*
X177177Y108980D01*
X177157Y108983D01*
X177139Y108991D01*
X177001Y109013D01*
X176864Y109039D01*
X176844Y109038D01*
X176825Y109041D01*
X176686Y109028D01*
X176547Y109020D01*
X176528Y109013D01*
X176508Y109011D01*
X176377Y108964D01*
X176245Y108922D01*
X176228Y108911D01*
X176209Y108904D01*
X176093Y108826D01*
X175976Y108751D01*
X175962Y108737D01*
X175945Y108725D01*
X175854Y108621D01*
X175758Y108520D01*
X175748Y108502D01*
X175735Y108487D01*
X175672Y108363D01*
X175604Y108241D01*
X175599Y108222D01*
X175590Y108204D01*
X175560Y108068D01*
X175525Y107933D01*
X175523Y107905D01*
X175521Y107894D01*
X175521Y107873D01*
X175515Y107773D01*
X175515Y107645D01*
X175527Y107547D01*
X175530Y107448D01*
X175547Y107390D01*
X175555Y107329D01*
X175591Y107237D01*
X175619Y107142D01*
X175649Y107090D01*
X175672Y107034D01*
X175730Y106954D01*
X175780Y106868D01*
X175846Y106793D01*
X175858Y106776D01*
X175868Y106769D01*
X175886Y106747D01*
X176277Y106357D01*
X176277Y92740D01*
X176292Y92622D01*
X176299Y92503D01*
X176312Y92465D01*
X176317Y92424D01*
X176360Y92314D01*
X176397Y92201D01*
X176419Y92166D01*
X176434Y92129D01*
X176503Y92033D01*
X176567Y91932D01*
X176597Y91904D01*
X176620Y91871D01*
X176712Y91795D01*
X176799Y91714D01*
X176834Y91694D01*
X176865Y91669D01*
X176973Y91618D01*
X177077Y91560D01*
X177117Y91550D01*
X177153Y91533D01*
X177270Y91511D01*
X177385Y91481D01*
X177445Y91477D01*
X177465Y91473D01*
X177486Y91475D01*
X177546Y91471D01*
X181763Y91471D01*
X182801Y90433D01*
X182801Y88256D01*
X182816Y88138D01*
X182823Y88019D01*
X182836Y87981D01*
X182841Y87940D01*
X182884Y87830D01*
X182921Y87717D01*
X182943Y87682D01*
X182958Y87645D01*
X183027Y87549D01*
X183091Y87448D01*
X183121Y87420D01*
X183144Y87387D01*
X183236Y87311D01*
X183323Y87230D01*
X183358Y87210D01*
X183389Y87185D01*
X183497Y87134D01*
X183601Y87076D01*
X183641Y87066D01*
X183677Y87049D01*
X183794Y87027D01*
X183909Y86997D01*
X183969Y86993D01*
X183989Y86989D01*
X184010Y86991D01*
X184070Y86987D01*
X198187Y86987D01*
X209297Y75877D01*
X209297Y37007D01*
X209309Y36909D01*
X209312Y36810D01*
X209329Y36752D01*
X209337Y36692D01*
X209373Y36600D01*
X209401Y36505D01*
X209431Y36453D01*
X209454Y36396D01*
X209512Y36316D01*
X209562Y36231D01*
X209628Y36155D01*
X209640Y36139D01*
X209650Y36131D01*
X209668Y36110D01*
X211075Y34704D01*
X211075Y31336D01*
X208694Y28955D01*
X205326Y28955D01*
X202945Y31336D01*
X202945Y34704D01*
X204352Y36110D01*
X204412Y36188D01*
X204480Y36260D01*
X204509Y36313D01*
X204546Y36361D01*
X204586Y36452D01*
X204634Y36539D01*
X204649Y36597D01*
X204673Y36653D01*
X204688Y36751D01*
X204713Y36847D01*
X204719Y36947D01*
X204723Y36967D01*
X204721Y36979D01*
X204723Y37007D01*
X204723Y73457D01*
X204711Y73555D01*
X204708Y73654D01*
X204691Y73712D01*
X204683Y73773D01*
X204647Y73865D01*
X204619Y73960D01*
X204589Y74012D01*
X204566Y74068D01*
X204508Y74148D01*
X204458Y74234D01*
X204392Y74309D01*
X204380Y74326D01*
X204370Y74333D01*
X204352Y74355D01*
X196665Y82042D01*
X196586Y82102D01*
X196514Y82170D01*
X196461Y82199D01*
X196413Y82236D01*
X196322Y82276D01*
X196236Y82324D01*
X196177Y82339D01*
X196121Y82363D01*
X196023Y82378D01*
X195928Y82403D01*
X195828Y82409D01*
X195807Y82413D01*
X195795Y82411D01*
X195767Y82413D01*
X184070Y82413D01*
X183952Y82398D01*
X183833Y82391D01*
X183795Y82378D01*
X183754Y82373D01*
X183644Y82330D01*
X183531Y82293D01*
X183496Y82271D01*
X183459Y82256D01*
X183363Y82187D01*
X183262Y82123D01*
X183234Y82093D01*
X183201Y82070D01*
X183125Y81978D01*
X183044Y81891D01*
X183024Y81856D01*
X182999Y81825D01*
X182948Y81717D01*
X182890Y81613D01*
X182880Y81573D01*
X182863Y81537D01*
X182841Y81420D01*
X182811Y81305D01*
X182807Y81245D01*
X182803Y81225D01*
X182805Y81204D01*
X182801Y81144D01*
X182801Y78967D01*
X181763Y77929D01*
X171297Y77929D01*
X170259Y78967D01*
X170259Y90433D01*
X171332Y91506D01*
X171392Y91584D01*
X171460Y91656D01*
X171489Y91709D01*
X171526Y91757D01*
X171566Y91848D01*
X171614Y91935D01*
X171629Y91993D01*
X171653Y92049D01*
X171668Y92147D01*
X171693Y92243D01*
X171699Y92343D01*
X171703Y92363D01*
X171701Y92375D01*
X171703Y92403D01*
X171703Y102616D01*
X171688Y102734D01*
X171681Y102853D01*
X171668Y102891D01*
X171663Y102932D01*
X171620Y103042D01*
X171583Y103155D01*
X171561Y103190D01*
X171546Y103227D01*
X171477Y103323D01*
X171413Y103424D01*
X171383Y103452D01*
X171360Y103485D01*
X171268Y103561D01*
X171181Y103642D01*
X171146Y103662D01*
X171115Y103687D01*
X171007Y103738D01*
X170903Y103796D01*
X170863Y103806D01*
X170827Y103823D01*
X170710Y103845D01*
X170595Y103875D01*
X170535Y103879D01*
X170515Y103883D01*
X170494Y103881D01*
X170434Y103885D01*
X169766Y103885D01*
X167385Y106266D01*
X167385Y109634D01*
X169766Y112015D01*
X173313Y112015D01*
X173343Y112000D01*
X173363Y111997D01*
X173381Y111989D01*
X173519Y111967D01*
X173656Y111941D01*
X173676Y111942D01*
X173695Y111939D01*
X173834Y111952D01*
X173973Y111960D01*
X173992Y111967D01*
X174012Y111969D01*
X174143Y112016D01*
X174275Y112058D01*
X174292Y112069D01*
X174311Y112076D01*
X174427Y112154D01*
X174544Y112229D01*
X174558Y112243D01*
X174575Y112255D01*
X174666Y112359D01*
X174762Y112460D01*
X174772Y112478D01*
X174785Y112493D01*
X174848Y112617D01*
X174916Y112739D01*
X174921Y112758D01*
X174930Y112776D01*
X174939Y112819D01*
X174943Y112827D01*
X174953Y112881D01*
X174960Y112912D01*
X174995Y113047D01*
X174997Y113075D01*
X174999Y113086D01*
X174999Y113107D01*
X175000Y113125D01*
X175003Y113139D01*
X175002Y113153D01*
X175005Y113207D01*
X175005Y114714D01*
X177386Y117095D01*
X180754Y117095D01*
X183135Y114714D01*
X183135Y112725D01*
X183147Y112627D01*
X183150Y112528D01*
X183167Y112470D01*
X183175Y112409D01*
X183211Y112317D01*
X183239Y112222D01*
X183269Y112170D01*
X183292Y112114D01*
X183350Y112034D01*
X183400Y111948D01*
X183466Y111873D01*
X183478Y111856D01*
X183488Y111849D01*
X183506Y111827D01*
X218187Y77147D01*
X218187Y24149D01*
X218190Y24119D01*
X218188Y24090D01*
X218210Y23962D01*
X218227Y23833D01*
X218237Y23806D01*
X218242Y23777D01*
X218296Y23658D01*
X218344Y23537D01*
X218361Y23514D01*
X218373Y23487D01*
X218454Y23385D01*
X218530Y23280D01*
X218553Y23261D01*
X218572Y23238D01*
X218675Y23160D01*
X218775Y23077D01*
X218802Y23065D01*
X218826Y23047D01*
X218970Y22976D01*
X221943Y21745D01*
X224945Y18743D01*
X226569Y14822D01*
X226569Y10578D01*
X224945Y6657D01*
X223249Y4961D01*
X223164Y4852D01*
X223075Y4745D01*
X223067Y4726D01*
X223054Y4710D01*
X222999Y4582D01*
X222940Y4457D01*
X222936Y4437D01*
X222928Y4418D01*
X222906Y4280D01*
X222880Y4144D01*
X222881Y4124D01*
X222878Y4104D01*
X222891Y3965D01*
X222900Y3827D01*
X222906Y3808D01*
X222908Y3788D01*
X222955Y3656D01*
X222998Y3525D01*
X223009Y3507D01*
X223016Y3488D01*
X223094Y3373D01*
X223168Y3256D01*
X223183Y3242D01*
X223194Y3225D01*
X223298Y3133D01*
X223400Y3038D01*
X223417Y3028D01*
X223433Y3015D01*
X223557Y2951D01*
X223678Y2884D01*
X223698Y2879D01*
X223716Y2870D01*
X223852Y2840D01*
X223986Y2805D01*
X224014Y2803D01*
X224026Y2800D01*
X224047Y2801D01*
X224147Y2795D01*
X233053Y2795D01*
X233191Y2812D01*
X233330Y2825D01*
X233349Y2832D01*
X233369Y2835D01*
X233498Y2886D01*
X233629Y2933D01*
X233646Y2944D01*
X233664Y2952D01*
X233777Y3033D01*
X233892Y3111D01*
X233905Y3127D01*
X233922Y3138D01*
X234011Y3246D01*
X234102Y3350D01*
X234112Y3368D01*
X234125Y3383D01*
X234184Y3509D01*
X234247Y3633D01*
X234251Y3653D01*
X234260Y3671D01*
X234286Y3808D01*
X234317Y3943D01*
X234316Y3964D01*
X234320Y3983D01*
X234311Y4122D01*
X234307Y4261D01*
X234301Y4281D01*
X234300Y4301D01*
X234257Y4433D01*
X234219Y4567D01*
X234208Y4584D01*
X234202Y4603D01*
X234127Y4721D01*
X234057Y4841D01*
X234039Y4862D01*
X234032Y4872D01*
X234017Y4886D01*
X233951Y4961D01*
X232255Y6657D01*
X230631Y10578D01*
X230631Y14822D01*
X232255Y18743D01*
X235257Y21745D01*
X239178Y23369D01*
X243422Y23369D01*
X247343Y21745D01*
X249039Y20049D01*
X249148Y19964D01*
X249255Y19875D01*
X249274Y19867D01*
X249290Y19854D01*
X249418Y19799D01*
X249543Y19740D01*
X249563Y19736D01*
X249582Y19728D01*
X249720Y19706D01*
X249856Y19680D01*
X249876Y19681D01*
X249896Y19678D01*
X250035Y19691D01*
X250173Y19700D01*
X250192Y19706D01*
X250212Y19708D01*
X250344Y19755D01*
X250475Y19798D01*
X250493Y19809D01*
X250512Y19816D01*
X250627Y19894D01*
X250744Y19968D01*
X250758Y19983D01*
X250775Y19994D01*
X250867Y20098D01*
X250962Y20200D01*
X250972Y20217D01*
X250985Y20233D01*
X251049Y20357D01*
X251116Y20478D01*
X251121Y20498D01*
X251130Y20516D01*
X251160Y20652D01*
X251195Y20786D01*
X251197Y20814D01*
X251200Y20826D01*
X251199Y20847D01*
X251205Y20947D01*
X251205Y90460D01*
X251190Y90578D01*
X251183Y90697D01*
X251170Y90735D01*
X251165Y90776D01*
X251122Y90886D01*
X251085Y90999D01*
X251063Y91034D01*
X251048Y91071D01*
X250979Y91167D01*
X250915Y91268D01*
X250885Y91296D01*
X250862Y91329D01*
X250770Y91405D01*
X250683Y91486D01*
X250648Y91506D01*
X250617Y91531D01*
X250509Y91582D01*
X250405Y91640D01*
X250365Y91650D01*
X250329Y91667D01*
X250212Y91689D01*
X250097Y91719D01*
X250037Y91723D01*
X250017Y91727D01*
X249996Y91725D01*
X249936Y91729D01*
X229705Y91729D01*
X228679Y92755D01*
X228679Y105245D01*
X229705Y106271D01*
X249936Y106271D01*
X250054Y106286D01*
X250173Y106293D01*
X250211Y106306D01*
X250252Y106311D01*
X250362Y106354D01*
X250475Y106391D01*
X250510Y106413D01*
X250547Y106428D01*
X250643Y106497D01*
X250744Y106561D01*
X250772Y106591D01*
X250805Y106614D01*
X250881Y106706D01*
X250962Y106793D01*
X250982Y106828D01*
X251007Y106859D01*
X251058Y106967D01*
X251116Y107071D01*
X251126Y107111D01*
X251143Y107147D01*
X251165Y107264D01*
X251195Y107379D01*
X251199Y107439D01*
X251203Y107459D01*
X251201Y107480D01*
X251205Y107540D01*
X251205Y146460D01*
X251190Y146578D01*
X251183Y146697D01*
X251170Y146735D01*
X251165Y146776D01*
X251122Y146886D01*
X251085Y146999D01*
X251063Y147034D01*
X251048Y147071D01*
X250979Y147167D01*
X250915Y147268D01*
X250885Y147296D01*
X250862Y147329D01*
X250770Y147405D01*
X250683Y147486D01*
X250648Y147506D01*
X250617Y147531D01*
X250509Y147582D01*
X250405Y147640D01*
X250365Y147650D01*
X250329Y147667D01*
X250212Y147689D01*
X250097Y147719D01*
X250037Y147723D01*
X250017Y147727D01*
X249996Y147725D01*
X249936Y147729D01*
X229705Y147729D01*
X228679Y148755D01*
X228679Y161245D01*
X229705Y162271D01*
X249936Y162271D01*
X250054Y162286D01*
X250173Y162293D01*
X250211Y162306D01*
X250252Y162311D01*
X250362Y162354D01*
X250475Y162391D01*
X250510Y162413D01*
X250547Y162428D01*
X250643Y162497D01*
X250744Y162561D01*
X250772Y162591D01*
X250805Y162614D01*
X250881Y162706D01*
X250962Y162793D01*
X250982Y162828D01*
X251007Y162859D01*
X251058Y162967D01*
X251116Y163071D01*
X251126Y163111D01*
X251143Y163147D01*
X251165Y163264D01*
X251195Y163379D01*
X251199Y163439D01*
X251203Y163459D01*
X251201Y163480D01*
X251205Y163540D01*
X251205Y241854D01*
X251188Y241992D01*
X251175Y242130D01*
X251168Y242149D01*
X251165Y242169D01*
X251114Y242298D01*
X251067Y242429D01*
X251056Y242446D01*
X251048Y242465D01*
X250967Y242577D01*
X250889Y242693D01*
X250873Y242706D01*
X250862Y242722D01*
X250754Y242811D01*
X250650Y242903D01*
X250632Y242912D01*
X250617Y242925D01*
X250491Y242984D01*
X250367Y243048D01*
X250347Y243052D01*
X250329Y243061D01*
X250192Y243087D01*
X250057Y243117D01*
X250036Y243117D01*
X250017Y243121D01*
X249878Y243112D01*
X249739Y243108D01*
X249719Y243102D01*
X249699Y243101D01*
X249567Y243058D01*
X249433Y243019D01*
X249416Y243009D01*
X249397Y243003D01*
X249279Y242928D01*
X249159Y242858D01*
X249138Y242839D01*
X249128Y242833D01*
X249114Y242818D01*
X249039Y242751D01*
X248222Y241934D01*
X245990Y241934D01*
X245852Y241917D01*
X245714Y241904D01*
X245695Y241897D01*
X245675Y241894D01*
X245546Y241843D01*
X245414Y241796D01*
X245398Y241785D01*
X245379Y241777D01*
X245266Y241696D01*
X245151Y241618D01*
X245138Y241602D01*
X245122Y241591D01*
X245033Y241483D01*
X244941Y241379D01*
X244932Y241361D01*
X244919Y241346D01*
X244860Y241220D01*
X244796Y241096D01*
X244792Y241076D01*
X244783Y241058D01*
X244757Y240921D01*
X244727Y240786D01*
X244727Y240765D01*
X244723Y240746D01*
X244732Y240607D01*
X244736Y240468D01*
X244742Y240448D01*
X244743Y240428D01*
X244786Y240296D01*
X244825Y240162D01*
X244835Y240145D01*
X244841Y240126D01*
X244916Y240008D01*
X244986Y239888D01*
X245005Y239867D01*
X245011Y239857D01*
X245026Y239843D01*
X245093Y239767D01*
X245181Y239679D01*
X248159Y232491D01*
X248159Y224709D01*
X245181Y217521D01*
X239679Y212019D01*
X232491Y209041D01*
X224709Y209041D01*
X217521Y212019D01*
X212019Y217521D01*
X209041Y224709D01*
X209041Y232491D01*
X212019Y239679D01*
X217521Y245181D01*
X224709Y248159D01*
X232491Y248159D01*
X239679Y245181D01*
X239767Y245093D01*
X239877Y245008D01*
X239984Y244919D01*
X240003Y244910D01*
X240019Y244898D01*
X240146Y244843D01*
X240272Y244783D01*
X240292Y244779D01*
X240311Y244771D01*
X240448Y244750D01*
X240585Y244723D01*
X240605Y244725D01*
X240625Y244722D01*
X240763Y244735D01*
X240902Y244743D01*
X240921Y244749D01*
X240941Y244751D01*
X241072Y244798D01*
X241204Y244841D01*
X241222Y244852D01*
X241241Y244859D01*
X241356Y244937D01*
X241473Y245011D01*
X241487Y245026D01*
X241504Y245038D01*
X241596Y245142D01*
X241691Y245243D01*
X241701Y245261D01*
X241714Y245276D01*
X241777Y245399D01*
X241845Y245522D01*
X241850Y245541D01*
X241859Y245559D01*
X241889Y245695D01*
X241924Y245829D01*
X241926Y245857D01*
X241929Y245869D01*
X241928Y245890D01*
X241934Y245990D01*
X241934Y248222D01*
X242751Y249039D01*
X242836Y249148D01*
X242925Y249255D01*
X242934Y249274D01*
X242946Y249290D01*
X243001Y249417D01*
X243061Y249543D01*
X243065Y249563D01*
X243073Y249582D01*
X243095Y249720D01*
X243121Y249856D01*
X243119Y249876D01*
X243122Y249896D01*
X243109Y250035D01*
X243101Y250173D01*
X243095Y250192D01*
X243093Y250212D01*
X243045Y250344D01*
X243003Y250475D01*
X242992Y250493D01*
X242985Y250512D01*
X242907Y250627D01*
X242833Y250744D01*
X242818Y250758D01*
X242806Y250775D01*
X242702Y250867D01*
X242601Y250962D01*
X242583Y250972D01*
X242568Y250985D01*
X242444Y251048D01*
X242322Y251116D01*
X242303Y251121D01*
X242285Y251130D01*
X242149Y251160D01*
X242015Y251195D01*
X241986Y251197D01*
X241974Y251200D01*
X241954Y251199D01*
X241854Y251205D01*
X4064Y251205D01*
X3946Y251190D01*
X3827Y251183D01*
X3789Y251170D01*
X3748Y251165D01*
X3638Y251122D01*
X3525Y251085D01*
X3490Y251063D01*
X3453Y251048D01*
X3357Y250979D01*
X3256Y250915D01*
X3228Y250885D01*
X3195Y250862D01*
X3119Y250770D01*
X3038Y250683D01*
X3018Y250648D01*
X2993Y250617D01*
X2942Y250509D01*
X2884Y250405D01*
X2874Y250365D01*
X2857Y250329D01*
X2835Y250212D01*
X2805Y250097D01*
X2801Y250037D01*
X2797Y250017D01*
X2799Y249996D01*
X2795Y249936D01*
X2795Y163540D01*
X2810Y163422D01*
X2817Y163303D01*
X2830Y163265D01*
X2835Y163224D01*
X2878Y163114D01*
X2915Y163001D01*
X2937Y162966D01*
X2952Y162929D01*
X3021Y162833D01*
X3085Y162732D01*
X3115Y162704D01*
X3138Y162671D01*
X3230Y162595D01*
X3317Y162514D01*
X3352Y162494D01*
X3383Y162469D01*
X3491Y162418D01*
X3595Y162360D01*
X3635Y162350D01*
X3671Y162333D01*
X3788Y162311D01*
X3903Y162281D01*
X3963Y162277D01*
X3983Y162273D01*
X4004Y162275D01*
X4064Y162271D01*
X24295Y162271D01*
X25321Y161245D01*
X25321Y148755D01*
X24295Y147729D01*
X4064Y147729D01*
X3946Y147714D01*
X3827Y147707D01*
X3789Y147694D01*
X3748Y147689D01*
X3638Y147646D01*
X3525Y147609D01*
X3490Y147587D01*
X3453Y147572D01*
X3357Y147503D01*
X3256Y147439D01*
X3228Y147409D01*
X3195Y147386D01*
X3119Y147294D01*
X3038Y147207D01*
X3018Y147172D01*
X2993Y147141D01*
X2942Y147033D01*
X2884Y146929D01*
X2874Y146889D01*
X2857Y146853D01*
X2835Y146736D01*
X2805Y146621D01*
X2801Y146561D01*
X2797Y146541D01*
X2799Y146520D01*
X2795Y146460D01*
X2795Y107540D01*
X2810Y107422D01*
X2817Y107303D01*
X2830Y107265D01*
X2835Y107224D01*
X2878Y107114D01*
X2915Y107001D01*
X2937Y106966D01*
X2952Y106929D01*
X3021Y106833D01*
X3085Y106732D01*
X3115Y106704D01*
X3138Y106671D01*
X3230Y106595D01*
X3317Y106514D01*
X3352Y106494D01*
X3383Y106469D01*
X3491Y106418D01*
X3595Y106360D01*
X3635Y106350D01*
X3671Y106333D01*
X3788Y106311D01*
X3903Y106281D01*
X3963Y106277D01*
X3983Y106273D01*
X4004Y106275D01*
X4064Y106271D01*
X24295Y106271D01*
X25321Y105245D01*
X25321Y92755D01*
X24295Y91729D01*
X4064Y91729D01*
X3946Y91714D01*
X3827Y91707D01*
X3789Y91694D01*
X3748Y91689D01*
X3638Y91646D01*
X3525Y91609D01*
X3490Y91587D01*
X3453Y91572D01*
X3357Y91503D01*
X3256Y91439D01*
X3228Y91409D01*
X3195Y91386D01*
X3119Y91294D01*
X3038Y91207D01*
X3018Y91172D01*
X2993Y91141D01*
X2942Y91033D01*
X2884Y90929D01*
X2874Y90889D01*
X2857Y90853D01*
X2835Y90736D01*
X2805Y90621D01*
X2801Y90561D01*
X2797Y90541D01*
X2799Y90520D01*
X2795Y90460D01*
X2795Y13335D01*
X2810Y13217D01*
X2817Y13098D01*
X2830Y13060D01*
X2835Y13019D01*
X2878Y12909D01*
X2915Y12796D01*
X2937Y12761D01*
X2952Y12724D01*
X3021Y12628D01*
X3085Y12527D01*
X3115Y12499D01*
X3138Y12466D01*
X3230Y12390D01*
X3317Y12309D01*
X3352Y12289D01*
X3383Y12264D01*
X3491Y12213D01*
X3595Y12155D01*
X3635Y12145D01*
X3671Y12128D01*
X3788Y12106D01*
X3903Y12076D01*
X3963Y12072D01*
X3983Y12068D01*
X4004Y12070D01*
X4064Y12066D01*
X8010Y12066D01*
X8148Y12083D01*
X8286Y12096D01*
X8305Y12103D01*
X8325Y12106D01*
X8454Y12157D01*
X8586Y12204D01*
X8602Y12215D01*
X8621Y12223D01*
X8734Y12304D01*
X8849Y12382D01*
X8862Y12398D01*
X8878Y12409D01*
X8967Y12517D01*
X9059Y12621D01*
X9068Y12639D01*
X9081Y12654D01*
X9140Y12780D01*
X9204Y12904D01*
X9208Y12924D01*
X9217Y12942D01*
X9243Y13079D01*
X9273Y13214D01*
X9273Y13235D01*
X9277Y13254D01*
X9268Y13393D01*
X9264Y13532D01*
X9258Y13552D01*
X9257Y13572D01*
X9214Y13704D01*
X9175Y13838D01*
X9165Y13855D01*
X9159Y13874D01*
X9084Y13992D01*
X9014Y14112D01*
X8995Y14133D01*
X8989Y14143D01*
X8974Y14157D01*
X8907Y14233D01*
X8819Y14321D01*
X5841Y21509D01*
X5841Y29291D01*
X8819Y36479D01*
X14321Y41981D01*
X21509Y44959D01*
X29291Y44959D01*
X36479Y41981D01*
X41981Y36479D01*
X44959Y29291D01*
X44959Y21509D01*
X41981Y14321D01*
X36479Y8819D01*
X29291Y5841D01*
X21509Y5841D01*
X14321Y8819D01*
X12962Y10177D01*
X12853Y10262D01*
X12746Y10351D01*
X12727Y10360D01*
X12711Y10372D01*
X12584Y10427D01*
X12458Y10487D01*
X12438Y10491D01*
X12419Y10499D01*
X12281Y10521D01*
X12145Y10547D01*
X12125Y10545D01*
X12105Y10548D01*
X11966Y10535D01*
X11828Y10527D01*
X11809Y10521D01*
X11789Y10519D01*
X11657Y10471D01*
X11526Y10429D01*
X11508Y10418D01*
X11489Y10411D01*
X11374Y10333D01*
X11257Y10259D01*
X11243Y10244D01*
X11226Y10232D01*
X11134Y10128D01*
X11039Y10027D01*
X11029Y10009D01*
X11016Y9994D01*
X10952Y9870D01*
X10885Y9748D01*
X10880Y9729D01*
X10871Y9711D01*
X10841Y9575D01*
X10806Y9441D01*
X10804Y9412D01*
X10801Y9400D01*
X10802Y9380D01*
X10796Y9280D01*
X10796Y5778D01*
X9979Y4961D01*
X9894Y4852D01*
X9805Y4745D01*
X9796Y4726D01*
X9784Y4710D01*
X9729Y4583D01*
X9669Y4457D01*
X9665Y4437D01*
X9657Y4418D01*
X9635Y4280D01*
X9609Y4144D01*
X9611Y4124D01*
X9608Y4104D01*
X9621Y3965D01*
X9629Y3827D01*
X9635Y3808D01*
X9637Y3788D01*
X9685Y3656D01*
X9727Y3525D01*
X9738Y3507D01*
X9745Y3488D01*
X9823Y3373D01*
X9897Y3256D01*
X9912Y3242D01*
X9924Y3225D01*
X10028Y3133D01*
X10129Y3038D01*
X10147Y3028D01*
X10162Y3015D01*
X10286Y2952D01*
X10408Y2884D01*
X10427Y2879D01*
X10445Y2870D01*
X10581Y2840D01*
X10715Y2805D01*
X10744Y2803D01*
X10756Y2800D01*
X10776Y2801D01*
X10876Y2795D01*
X53457Y2795D01*
X53596Y2812D01*
G37*
%LPC*%
G36*
X21509Y209041D02*
X21509Y209041D01*
X14321Y212019D01*
X8819Y217521D01*
X5841Y224709D01*
X5841Y232491D01*
X8819Y239679D01*
X14321Y245181D01*
X21509Y248159D01*
X29291Y248159D01*
X36479Y245181D01*
X41981Y239679D01*
X44959Y232491D01*
X44959Y224709D01*
X41981Y217521D01*
X36479Y212019D01*
X29291Y209041D01*
X21509Y209041D01*
G37*
%LPD*%
G36*
X134266Y22059D02*
X134266Y22059D01*
X134395Y22071D01*
X134423Y22081D01*
X134452Y22085D01*
X134605Y22137D01*
X137578Y23369D01*
X141822Y23369D01*
X144795Y22137D01*
X144824Y22129D01*
X144850Y22116D01*
X144977Y22088D01*
X145102Y22053D01*
X145131Y22053D01*
X145160Y22046D01*
X145290Y22050D01*
X145420Y22048D01*
X145449Y22055D01*
X145478Y22056D01*
X145603Y22092D01*
X145729Y22122D01*
X145755Y22136D01*
X145784Y22144D01*
X145895Y22210D01*
X146010Y22271D01*
X146032Y22291D01*
X146058Y22306D01*
X146178Y22412D01*
X153552Y29785D01*
X153612Y29864D01*
X153680Y29936D01*
X153709Y29989D01*
X153746Y30037D01*
X153786Y30128D01*
X153834Y30214D01*
X153849Y30273D01*
X153873Y30329D01*
X153888Y30427D01*
X153913Y30522D01*
X153919Y30622D01*
X153923Y30643D01*
X153921Y30655D01*
X153923Y30683D01*
X153923Y79071D01*
X153906Y79209D01*
X153893Y79347D01*
X153886Y79366D01*
X153883Y79386D01*
X153832Y79516D01*
X153785Y79646D01*
X153774Y79663D01*
X153766Y79682D01*
X153685Y79794D01*
X153607Y79909D01*
X153591Y79923D01*
X153580Y79939D01*
X153472Y80028D01*
X153368Y80120D01*
X153350Y80129D01*
X153335Y80142D01*
X153209Y80201D01*
X153085Y80265D01*
X153065Y80269D01*
X153047Y80278D01*
X152911Y80304D01*
X152775Y80334D01*
X152754Y80334D01*
X152735Y80337D01*
X152596Y80329D01*
X152457Y80324D01*
X152437Y80319D01*
X152417Y80318D01*
X152285Y80275D01*
X152151Y80236D01*
X152134Y80226D01*
X152115Y80220D01*
X151997Y80145D01*
X151877Y80075D01*
X151856Y80056D01*
X151846Y80049D01*
X151832Y80034D01*
X151756Y79968D01*
X151544Y79755D01*
X148176Y79755D01*
X147629Y80302D01*
X147520Y80387D01*
X147413Y80476D01*
X147394Y80485D01*
X147378Y80497D01*
X147250Y80552D01*
X147125Y80612D01*
X147105Y80615D01*
X147086Y80623D01*
X146948Y80645D01*
X146812Y80671D01*
X146792Y80670D01*
X146772Y80673D01*
X146633Y80660D01*
X146495Y80652D01*
X146476Y80645D01*
X146456Y80643D01*
X146324Y80596D01*
X146193Y80554D01*
X146175Y80543D01*
X146156Y80536D01*
X146041Y80458D01*
X145924Y80383D01*
X145910Y80369D01*
X145893Y80357D01*
X145801Y80253D01*
X145706Y80152D01*
X145696Y80134D01*
X145683Y80119D01*
X145620Y79995D01*
X145552Y79873D01*
X145547Y79854D01*
X145538Y79836D01*
X145508Y79700D01*
X145473Y79565D01*
X145471Y79537D01*
X145468Y79525D01*
X145469Y79505D01*
X145463Y79405D01*
X145463Y78967D01*
X144425Y77929D01*
X133959Y77929D01*
X132723Y79164D01*
X132614Y79250D01*
X132507Y79338D01*
X132488Y79347D01*
X132472Y79359D01*
X132344Y79415D01*
X132219Y79474D01*
X132199Y79478D01*
X132180Y79486D01*
X132042Y79508D01*
X131906Y79534D01*
X131886Y79532D01*
X131866Y79535D01*
X131727Y79522D01*
X131589Y79514D01*
X131570Y79508D01*
X131550Y79506D01*
X131418Y79458D01*
X131287Y79416D01*
X131269Y79405D01*
X131250Y79398D01*
X131135Y79320D01*
X131018Y79246D01*
X131004Y79231D01*
X130987Y79219D01*
X130895Y79115D01*
X130800Y79014D01*
X130790Y78996D01*
X130777Y78981D01*
X130713Y78857D01*
X130646Y78735D01*
X130641Y78716D01*
X130632Y78698D01*
X130602Y78561D01*
X130567Y78428D01*
X130565Y78399D01*
X130562Y78388D01*
X130563Y78367D01*
X130557Y78267D01*
X130557Y74133D01*
X130574Y73995D01*
X130587Y73857D01*
X130594Y73838D01*
X130597Y73818D01*
X130648Y73688D01*
X130695Y73558D01*
X130706Y73541D01*
X130714Y73522D01*
X130795Y73409D01*
X130873Y73294D01*
X130889Y73281D01*
X130900Y73265D01*
X131008Y73176D01*
X131112Y73084D01*
X131130Y73075D01*
X131145Y73062D01*
X131271Y73003D01*
X131395Y72939D01*
X131415Y72935D01*
X131433Y72926D01*
X131570Y72900D01*
X131705Y72870D01*
X131726Y72870D01*
X131745Y72866D01*
X131884Y72875D01*
X132023Y72879D01*
X132043Y72885D01*
X132063Y72886D01*
X132195Y72929D01*
X132329Y72968D01*
X132346Y72978D01*
X132365Y72984D01*
X132483Y73059D01*
X132603Y73129D01*
X132624Y73148D01*
X132634Y73154D01*
X132648Y73169D01*
X132723Y73236D01*
X133959Y74471D01*
X144425Y74471D01*
X145463Y73433D01*
X145463Y61967D01*
X144425Y60929D01*
X133959Y60929D01*
X132723Y62164D01*
X132614Y62250D01*
X132507Y62338D01*
X132488Y62347D01*
X132472Y62359D01*
X132344Y62415D01*
X132219Y62474D01*
X132199Y62478D01*
X132180Y62486D01*
X132042Y62508D01*
X131906Y62534D01*
X131886Y62532D01*
X131866Y62535D01*
X131727Y62522D01*
X131589Y62514D01*
X131570Y62508D01*
X131550Y62506D01*
X131418Y62458D01*
X131287Y62416D01*
X131269Y62405D01*
X131250Y62398D01*
X131135Y62320D01*
X131018Y62246D01*
X131004Y62231D01*
X130987Y62219D01*
X130895Y62115D01*
X130800Y62014D01*
X130790Y61996D01*
X130777Y61981D01*
X130713Y61857D01*
X130646Y61735D01*
X130641Y61716D01*
X130632Y61698D01*
X130602Y61561D01*
X130567Y61428D01*
X130565Y61399D01*
X130562Y61388D01*
X130563Y61367D01*
X130557Y61267D01*
X130557Y25603D01*
X130569Y25505D01*
X130572Y25406D01*
X130589Y25348D01*
X130597Y25287D01*
X130633Y25195D01*
X130661Y25100D01*
X130691Y25048D01*
X130714Y24992D01*
X130772Y24912D01*
X130822Y24826D01*
X130888Y24751D01*
X130900Y24734D01*
X130910Y24727D01*
X130928Y24705D01*
X133222Y22412D01*
X133245Y22394D01*
X133264Y22372D01*
X133370Y22297D01*
X133473Y22217D01*
X133500Y22206D01*
X133524Y22189D01*
X133645Y22143D01*
X133765Y22091D01*
X133794Y22086D01*
X133821Y22076D01*
X133950Y22062D01*
X134079Y22041D01*
X134108Y22044D01*
X134138Y22041D01*
X134266Y22059D01*
G37*
G36*
X119733Y32704D02*
X119733Y32704D01*
X119871Y32712D01*
X119890Y32719D01*
X119910Y32721D01*
X120042Y32768D01*
X120173Y32810D01*
X120191Y32821D01*
X120210Y32828D01*
X120325Y32906D01*
X120442Y32981D01*
X120456Y32995D01*
X120473Y33007D01*
X120565Y33111D01*
X120660Y33212D01*
X120670Y33230D01*
X120683Y33245D01*
X120747Y33369D01*
X120814Y33491D01*
X120819Y33510D01*
X120828Y33528D01*
X120858Y33664D01*
X120893Y33799D01*
X120895Y33827D01*
X120898Y33839D01*
X120897Y33859D01*
X120903Y33959D01*
X120903Y34113D01*
X120891Y34211D01*
X120888Y34310D01*
X120871Y34368D01*
X120863Y34428D01*
X120827Y34520D01*
X120799Y34615D01*
X120769Y34667D01*
X120746Y34724D01*
X120688Y34804D01*
X120638Y34889D01*
X120572Y34965D01*
X120560Y34981D01*
X120550Y34989D01*
X120532Y35010D01*
X119125Y36416D01*
X119125Y39784D01*
X120532Y41190D01*
X120592Y41268D01*
X120660Y41340D01*
X120689Y41393D01*
X120726Y41441D01*
X120766Y41532D01*
X120814Y41619D01*
X120829Y41677D01*
X120853Y41733D01*
X120868Y41831D01*
X120893Y41927D01*
X120899Y42027D01*
X120903Y42047D01*
X120901Y42059D01*
X120903Y42087D01*
X120903Y60505D01*
X120886Y60643D01*
X120873Y60781D01*
X120866Y60800D01*
X120863Y60820D01*
X120812Y60949D01*
X120765Y61081D01*
X120754Y61097D01*
X120746Y61116D01*
X120665Y61228D01*
X120587Y61344D01*
X120571Y61357D01*
X120560Y61373D01*
X120452Y61462D01*
X120348Y61554D01*
X120330Y61563D01*
X120315Y61576D01*
X120189Y61635D01*
X120065Y61699D01*
X120045Y61703D01*
X120027Y61712D01*
X119890Y61738D01*
X119755Y61768D01*
X119734Y61768D01*
X119715Y61772D01*
X119576Y61763D01*
X119437Y61759D01*
X119417Y61753D01*
X119397Y61752D01*
X119265Y61709D01*
X119131Y61670D01*
X119114Y61660D01*
X119095Y61654D01*
X118977Y61579D01*
X118857Y61509D01*
X118836Y61490D01*
X118826Y61484D01*
X118812Y61469D01*
X118737Y61402D01*
X118263Y60929D01*
X107797Y60929D01*
X106759Y61967D01*
X106759Y72547D01*
X106742Y72685D01*
X106729Y72823D01*
X106722Y72842D01*
X106719Y72862D01*
X106668Y72991D01*
X106621Y73122D01*
X106610Y73139D01*
X106602Y73158D01*
X106521Y73270D01*
X106443Y73385D01*
X106427Y73399D01*
X106416Y73415D01*
X106308Y73504D01*
X106204Y73596D01*
X106186Y73605D01*
X106171Y73618D01*
X106045Y73677D01*
X105921Y73740D01*
X105901Y73745D01*
X105883Y73754D01*
X105746Y73780D01*
X105611Y73810D01*
X105590Y73810D01*
X105571Y73813D01*
X105432Y73805D01*
X105293Y73800D01*
X105273Y73795D01*
X105253Y73794D01*
X105121Y73751D01*
X104987Y73712D01*
X104970Y73702D01*
X104951Y73696D01*
X104833Y73621D01*
X104713Y73551D01*
X104692Y73532D01*
X104682Y73525D01*
X104668Y73510D01*
X104593Y73444D01*
X103284Y72135D01*
X100076Y72135D01*
X99958Y72120D01*
X99839Y72113D01*
X99801Y72100D01*
X99760Y72095D01*
X99650Y72052D01*
X99537Y72015D01*
X99502Y71993D01*
X99465Y71978D01*
X99369Y71909D01*
X99268Y71845D01*
X99240Y71815D01*
X99207Y71792D01*
X99131Y71700D01*
X99050Y71613D01*
X99030Y71578D01*
X99005Y71547D01*
X98954Y71439D01*
X98896Y71335D01*
X98886Y71295D01*
X98869Y71259D01*
X98847Y71142D01*
X98817Y71027D01*
X98813Y70967D01*
X98809Y70947D01*
X98811Y70926D01*
X98807Y70866D01*
X98807Y54813D01*
X98819Y54715D01*
X98822Y54616D01*
X98839Y54558D01*
X98847Y54497D01*
X98883Y54405D01*
X98911Y54310D01*
X98941Y54258D01*
X98964Y54202D01*
X99022Y54122D01*
X99072Y54036D01*
X99138Y53961D01*
X99150Y53944D01*
X99160Y53937D01*
X99178Y53915D01*
X105985Y47108D01*
X106064Y47048D01*
X106136Y46980D01*
X106189Y46951D01*
X106237Y46914D01*
X106328Y46874D01*
X106414Y46826D01*
X106473Y46811D01*
X106529Y46787D01*
X106627Y46772D01*
X106722Y46747D01*
X106822Y46741D01*
X106843Y46737D01*
X106855Y46739D01*
X106883Y46737D01*
X109043Y46737D01*
X109141Y46749D01*
X109240Y46752D01*
X109298Y46769D01*
X109358Y46777D01*
X109450Y46813D01*
X109545Y46841D01*
X109597Y46871D01*
X109654Y46894D01*
X109734Y46952D01*
X109819Y47002D01*
X109895Y47068D01*
X109911Y47080D01*
X109919Y47090D01*
X109940Y47108D01*
X111346Y48515D01*
X114714Y48515D01*
X117095Y46134D01*
X117095Y42766D01*
X114714Y40385D01*
X111346Y40385D01*
X109940Y41792D01*
X109862Y41852D01*
X109790Y41920D01*
X109737Y41949D01*
X109689Y41986D01*
X109598Y42026D01*
X109511Y42074D01*
X109453Y42089D01*
X109397Y42113D01*
X109299Y42128D01*
X109203Y42153D01*
X109103Y42159D01*
X109083Y42163D01*
X109071Y42161D01*
X109043Y42163D01*
X104463Y42163D01*
X95945Y50681D01*
X95894Y50732D01*
X95784Y50818D01*
X95677Y50906D01*
X95658Y50915D01*
X95643Y50927D01*
X95515Y50983D01*
X95389Y51042D01*
X95369Y51046D01*
X95351Y51054D01*
X95213Y51076D01*
X95076Y51102D01*
X95056Y51101D01*
X95037Y51104D01*
X94898Y51091D01*
X94759Y51082D01*
X94740Y51076D01*
X94720Y51074D01*
X94589Y51027D01*
X94457Y50984D01*
X94440Y50973D01*
X94421Y50967D01*
X94305Y50888D01*
X94188Y50814D01*
X94174Y50799D01*
X94158Y50788D01*
X94065Y50684D01*
X93970Y50582D01*
X93960Y50565D01*
X93947Y50550D01*
X93884Y50425D01*
X93816Y50304D01*
X93811Y50284D01*
X93802Y50266D01*
X93772Y50130D01*
X93737Y49996D01*
X93735Y49968D01*
X93733Y49956D01*
X93733Y49936D01*
X93727Y49835D01*
X93727Y42113D01*
X93739Y42015D01*
X93742Y41916D01*
X93759Y41857D01*
X93767Y41797D01*
X93803Y41705D01*
X93831Y41610D01*
X93861Y41558D01*
X93884Y41502D01*
X93942Y41422D01*
X93992Y41336D01*
X94058Y41261D01*
X94070Y41244D01*
X94080Y41237D01*
X94098Y41215D01*
X102175Y33138D01*
X102254Y33078D01*
X102326Y33010D01*
X102379Y32981D01*
X102427Y32944D01*
X102518Y32904D01*
X102604Y32856D01*
X102663Y32841D01*
X102719Y32817D01*
X102817Y32802D01*
X102912Y32777D01*
X103012Y32771D01*
X103033Y32767D01*
X103045Y32769D01*
X103073Y32767D01*
X111583Y32767D01*
X111681Y32779D01*
X111780Y32782D01*
X111838Y32799D01*
X111898Y32807D01*
X111990Y32843D01*
X112085Y32871D01*
X112137Y32901D01*
X112194Y32924D01*
X112274Y32982D01*
X112359Y33032D01*
X112435Y33098D01*
X112451Y33110D01*
X112459Y33120D01*
X112480Y33138D01*
X113886Y34545D01*
X117254Y34545D01*
X118737Y33062D01*
X118846Y32977D01*
X118953Y32888D01*
X118972Y32879D01*
X118988Y32867D01*
X119116Y32811D01*
X119241Y32752D01*
X119261Y32749D01*
X119280Y32741D01*
X119418Y32719D01*
X119554Y32693D01*
X119574Y32694D01*
X119594Y32691D01*
X119733Y32704D01*
G37*
%LPC*%
G36*
X40226Y161035D02*
X40226Y161035D01*
X37845Y163416D01*
X37845Y166784D01*
X39252Y168190D01*
X39312Y168268D01*
X39380Y168340D01*
X39409Y168393D01*
X39446Y168441D01*
X39486Y168532D01*
X39534Y168619D01*
X39549Y168677D01*
X39573Y168733D01*
X39588Y168831D01*
X39613Y168927D01*
X39619Y169027D01*
X39623Y169047D01*
X39621Y169059D01*
X39623Y169087D01*
X39623Y171247D01*
X39611Y171345D01*
X39608Y171444D01*
X39591Y171502D01*
X39583Y171563D01*
X39547Y171655D01*
X39519Y171750D01*
X39489Y171802D01*
X39466Y171858D01*
X39408Y171938D01*
X39358Y172024D01*
X39292Y172099D01*
X39280Y172116D01*
X39270Y172123D01*
X39252Y172145D01*
X38913Y172484D01*
X38834Y172544D01*
X38762Y172612D01*
X38709Y172641D01*
X38661Y172678D01*
X38570Y172718D01*
X38484Y172766D01*
X38425Y172781D01*
X38369Y172805D01*
X38271Y172820D01*
X38176Y172845D01*
X38076Y172851D01*
X38055Y172855D01*
X38043Y172853D01*
X38015Y172855D01*
X36750Y172855D01*
X36632Y172840D01*
X36513Y172833D01*
X36475Y172820D01*
X36434Y172815D01*
X36324Y172772D01*
X36211Y172735D01*
X36176Y172713D01*
X36139Y172698D01*
X36043Y172629D01*
X35942Y172565D01*
X35914Y172535D01*
X35881Y172512D01*
X35805Y172420D01*
X35724Y172333D01*
X35704Y172298D01*
X35679Y172267D01*
X35628Y172159D01*
X35570Y172055D01*
X35560Y172015D01*
X35543Y171979D01*
X35521Y171862D01*
X35491Y171747D01*
X35487Y171687D01*
X35483Y171667D01*
X35485Y171646D01*
X35481Y171586D01*
X35481Y169409D01*
X34443Y168371D01*
X23977Y168371D01*
X23042Y169306D01*
X22942Y169383D01*
X22847Y169465D01*
X22817Y169480D01*
X22791Y169501D01*
X22675Y169551D01*
X22563Y169607D01*
X22530Y169614D01*
X22499Y169627D01*
X22374Y169647D01*
X22252Y169673D01*
X22218Y169672D01*
X22185Y169677D01*
X22059Y169665D01*
X21934Y169660D01*
X21902Y169650D01*
X21868Y169647D01*
X21749Y169605D01*
X21629Y169568D01*
X21601Y169551D01*
X21569Y169540D01*
X21465Y169469D01*
X21357Y169404D01*
X21333Y169380D01*
X21306Y169361D01*
X21222Y169267D01*
X21134Y169177D01*
X21107Y169136D01*
X21095Y169123D01*
X21085Y169103D01*
X21045Y169043D01*
X20957Y168891D01*
X20205Y168139D01*
X19284Y167607D01*
X18256Y167331D01*
X16723Y167331D01*
X16723Y173642D01*
X16708Y173760D01*
X16701Y173879D01*
X16688Y173917D01*
X16683Y173957D01*
X16640Y174068D01*
X16603Y174181D01*
X16581Y174215D01*
X16566Y174253D01*
X16497Y174349D01*
X16433Y174450D01*
X16403Y174478D01*
X16380Y174510D01*
X16288Y174586D01*
X16201Y174668D01*
X16166Y174687D01*
X16135Y174713D01*
X16027Y174764D01*
X15923Y174821D01*
X15883Y174831D01*
X15847Y174849D01*
X15740Y174869D01*
X15770Y174873D01*
X15880Y174917D01*
X15993Y174953D01*
X16028Y174975D01*
X16065Y174990D01*
X16161Y175060D01*
X16262Y175123D01*
X16290Y175153D01*
X16323Y175177D01*
X16399Y175268D01*
X16480Y175355D01*
X16500Y175390D01*
X16525Y175422D01*
X16576Y175529D01*
X16634Y175634D01*
X16644Y175673D01*
X16661Y175709D01*
X16683Y175826D01*
X16713Y175942D01*
X16717Y176002D01*
X16721Y176022D01*
X16719Y176042D01*
X16723Y176102D01*
X16723Y182413D01*
X18256Y182413D01*
X19284Y182137D01*
X20205Y181605D01*
X21040Y180771D01*
X21134Y180698D01*
X21223Y180619D01*
X21259Y180601D01*
X21291Y180576D01*
X21400Y180529D01*
X21506Y180474D01*
X21546Y180466D01*
X21583Y180450D01*
X21701Y180431D01*
X21817Y180405D01*
X21857Y180406D01*
X21897Y180400D01*
X22015Y180411D01*
X22134Y180414D01*
X22173Y180426D01*
X22213Y180429D01*
X22326Y180470D01*
X22440Y180503D01*
X22475Y180523D01*
X22513Y180537D01*
X22611Y180604D01*
X22714Y180664D01*
X22759Y180704D01*
X22776Y180716D01*
X22789Y180731D01*
X22835Y180771D01*
X23977Y181913D01*
X34443Y181913D01*
X35481Y180875D01*
X35481Y178698D01*
X35496Y178580D01*
X35503Y178461D01*
X35516Y178423D01*
X35521Y178382D01*
X35564Y178272D01*
X35601Y178159D01*
X35623Y178124D01*
X35638Y178087D01*
X35707Y177991D01*
X35771Y177890D01*
X35801Y177862D01*
X35824Y177829D01*
X35916Y177753D01*
X36003Y177672D01*
X36038Y177652D01*
X36069Y177627D01*
X36177Y177576D01*
X36281Y177518D01*
X36321Y177508D01*
X36357Y177491D01*
X36474Y177469D01*
X36589Y177439D01*
X36649Y177435D01*
X36669Y177431D01*
X36690Y177433D01*
X36750Y177429D01*
X40435Y177429D01*
X44197Y173667D01*
X44197Y169087D01*
X44209Y168989D01*
X44212Y168890D01*
X44229Y168832D01*
X44237Y168772D01*
X44273Y168680D01*
X44301Y168585D01*
X44331Y168533D01*
X44354Y168476D01*
X44412Y168396D01*
X44462Y168311D01*
X44508Y168259D01*
X44508Y168258D01*
X44528Y168235D01*
X44540Y168219D01*
X44550Y168211D01*
X44568Y168190D01*
X45975Y166784D01*
X45975Y163416D01*
X43594Y161035D01*
X40226Y161035D01*
G37*
%LPD*%
%LPC*%
G36*
X23977Y185371D02*
X23977Y185371D01*
X22939Y186409D01*
X22939Y187145D01*
X22922Y187282D01*
X22909Y187421D01*
X22902Y187440D01*
X22899Y187460D01*
X22848Y187589D01*
X22801Y187720D01*
X22790Y187737D01*
X22782Y187756D01*
X22701Y187868D01*
X22623Y187983D01*
X22607Y187997D01*
X22596Y188013D01*
X22488Y188102D01*
X22384Y188194D01*
X22366Y188203D01*
X22351Y188216D01*
X22225Y188275D01*
X22101Y188338D01*
X22081Y188343D01*
X22063Y188352D01*
X21927Y188378D01*
X21791Y188408D01*
X21770Y188408D01*
X21751Y188411D01*
X21612Y188403D01*
X21473Y188398D01*
X21453Y188393D01*
X21433Y188392D01*
X21301Y188349D01*
X21167Y188310D01*
X21150Y188300D01*
X21131Y188294D01*
X21013Y188219D01*
X20893Y188149D01*
X20872Y188130D01*
X20862Y188123D01*
X20848Y188108D01*
X20773Y188042D01*
X18872Y186141D01*
X9576Y186141D01*
X7953Y187764D01*
X7953Y197060D01*
X9576Y198683D01*
X18872Y198683D01*
X20773Y196782D01*
X20882Y196697D01*
X20989Y196608D01*
X21008Y196599D01*
X21024Y196587D01*
X21152Y196531D01*
X21277Y196472D01*
X21297Y196469D01*
X21316Y196461D01*
X21454Y196439D01*
X21590Y196413D01*
X21610Y196414D01*
X21630Y196411D01*
X21769Y196424D01*
X21907Y196432D01*
X21926Y196439D01*
X21946Y196441D01*
X22078Y196488D01*
X22209Y196530D01*
X22227Y196541D01*
X22246Y196548D01*
X22361Y196626D01*
X22478Y196701D01*
X22492Y196715D01*
X22509Y196727D01*
X22601Y196831D01*
X22696Y196932D01*
X22706Y196950D01*
X22719Y196965D01*
X22783Y197089D01*
X22850Y197211D01*
X22855Y197230D01*
X22864Y197248D01*
X22894Y197384D01*
X22929Y197519D01*
X22931Y197547D01*
X22934Y197559D01*
X22933Y197579D01*
X22939Y197679D01*
X22939Y197875D01*
X23977Y198913D01*
X34443Y198913D01*
X35481Y197875D01*
X35481Y186409D01*
X34443Y185371D01*
X23977Y185371D01*
G37*
%LPD*%
G36*
X146790Y86977D02*
X146790Y86977D01*
X146929Y86982D01*
X146949Y86987D01*
X146969Y86988D01*
X147101Y87031D01*
X147235Y87070D01*
X147252Y87080D01*
X147271Y87086D01*
X147389Y87161D01*
X147509Y87231D01*
X147530Y87250D01*
X147540Y87257D01*
X147554Y87272D01*
X147629Y87338D01*
X148176Y87885D01*
X151544Y87885D01*
X151756Y87672D01*
X151866Y87587D01*
X151973Y87498D01*
X151992Y87489D01*
X152008Y87477D01*
X152136Y87422D01*
X152261Y87362D01*
X152281Y87359D01*
X152300Y87351D01*
X152438Y87329D01*
X152574Y87303D01*
X152594Y87304D01*
X152614Y87301D01*
X152753Y87314D01*
X152891Y87322D01*
X152910Y87329D01*
X152930Y87331D01*
X153061Y87378D01*
X153193Y87420D01*
X153211Y87431D01*
X153230Y87438D01*
X153344Y87516D01*
X153462Y87591D01*
X153476Y87605D01*
X153493Y87617D01*
X153585Y87721D01*
X153680Y87822D01*
X153690Y87840D01*
X153703Y87855D01*
X153766Y87979D01*
X153834Y88101D01*
X153839Y88120D01*
X153848Y88138D01*
X153878Y88274D01*
X153913Y88409D01*
X153915Y88437D01*
X153918Y88449D01*
X153917Y88469D01*
X153923Y88569D01*
X153923Y120506D01*
X153908Y120624D01*
X153901Y120743D01*
X153888Y120781D01*
X153883Y120822D01*
X153840Y120932D01*
X153803Y121045D01*
X153781Y121080D01*
X153766Y121117D01*
X153697Y121213D01*
X153633Y121314D01*
X153603Y121342D01*
X153580Y121375D01*
X153488Y121451D01*
X153401Y121532D01*
X153366Y121552D01*
X153335Y121577D01*
X153227Y121628D01*
X153123Y121686D01*
X153083Y121696D01*
X153047Y121713D01*
X152930Y121735D01*
X152815Y121765D01*
X152755Y121769D01*
X152735Y121773D01*
X152714Y121771D01*
X152654Y121775D01*
X151406Y121775D01*
X151281Y121759D01*
X151156Y121750D01*
X151124Y121740D01*
X151090Y121735D01*
X150973Y121689D01*
X150854Y121649D01*
X150826Y121631D01*
X150795Y121618D01*
X150693Y121544D01*
X150587Y121476D01*
X150565Y121451D01*
X150537Y121432D01*
X150457Y121335D01*
X150372Y121242D01*
X150356Y121213D01*
X150334Y121187D01*
X150281Y121073D01*
X150221Y120962D01*
X150213Y120929D01*
X150199Y120899D01*
X150175Y120776D01*
X150145Y120653D01*
X150145Y120620D01*
X150139Y120587D01*
X150147Y120461D01*
X150148Y120335D01*
X150158Y120287D01*
X150159Y120269D01*
X150166Y120249D01*
X150180Y120177D01*
X150321Y119652D01*
X150321Y118259D01*
X145010Y118259D01*
X144892Y118244D01*
X144773Y118237D01*
X144735Y118224D01*
X144695Y118219D01*
X144584Y118176D01*
X144471Y118139D01*
X144437Y118117D01*
X144399Y118102D01*
X144303Y118033D01*
X144202Y117969D01*
X144174Y117939D01*
X144142Y117916D01*
X144066Y117824D01*
X143984Y117737D01*
X143965Y117702D01*
X143939Y117671D01*
X143888Y117563D01*
X143831Y117459D01*
X143821Y117419D01*
X143803Y117383D01*
X143781Y117266D01*
X143751Y117151D01*
X143747Y117091D01*
X143744Y117071D01*
X143745Y117050D01*
X143741Y116990D01*
X143741Y116530D01*
X143756Y116412D01*
X143763Y116293D01*
X143776Y116255D01*
X143781Y116214D01*
X143825Y116104D01*
X143861Y115991D01*
X143883Y115956D01*
X143898Y115919D01*
X143968Y115822D01*
X144031Y115722D01*
X144061Y115694D01*
X144085Y115661D01*
X144176Y115585D01*
X144263Y115504D01*
X144298Y115484D01*
X144330Y115459D01*
X144437Y115408D01*
X144542Y115350D01*
X144581Y115340D01*
X144617Y115323D01*
X144734Y115301D01*
X144850Y115271D01*
X144910Y115267D01*
X144930Y115263D01*
X144950Y115265D01*
X145010Y115261D01*
X150321Y115261D01*
X150321Y113868D01*
X150113Y113092D01*
X149711Y112397D01*
X149074Y111759D01*
X149001Y111665D01*
X148922Y111576D01*
X148904Y111540D01*
X148879Y111508D01*
X148832Y111399D01*
X148777Y111293D01*
X148769Y111253D01*
X148753Y111216D01*
X148734Y111099D01*
X148708Y110983D01*
X148709Y110942D01*
X148703Y110902D01*
X148714Y110783D01*
X148718Y110665D01*
X148729Y110626D01*
X148733Y110586D01*
X148773Y110474D01*
X148806Y110359D01*
X148826Y110324D01*
X148840Y110286D01*
X148907Y110188D01*
X148968Y110085D01*
X149007Y110040D01*
X149019Y110023D01*
X149034Y110010D01*
X149051Y109991D01*
X149051Y103532D01*
X148008Y102489D01*
X141552Y102489D01*
X140448Y103594D01*
X140370Y103654D01*
X140298Y103722D01*
X140245Y103751D01*
X140197Y103788D01*
X140106Y103828D01*
X140019Y103876D01*
X139961Y103891D01*
X139905Y103915D01*
X139807Y103930D01*
X139711Y103955D01*
X139611Y103961D01*
X139591Y103965D01*
X139579Y103963D01*
X139551Y103965D01*
X137706Y103965D01*
X137588Y103950D01*
X137469Y103943D01*
X137431Y103930D01*
X137390Y103925D01*
X137280Y103882D01*
X137167Y103845D01*
X137132Y103823D01*
X137095Y103808D01*
X136999Y103739D01*
X136898Y103675D01*
X136870Y103645D01*
X136837Y103622D01*
X136761Y103530D01*
X136680Y103443D01*
X136660Y103408D01*
X136635Y103377D01*
X136584Y103269D01*
X136526Y103165D01*
X136516Y103125D01*
X136499Y103089D01*
X136477Y102972D01*
X136447Y102857D01*
X136443Y102797D01*
X136439Y102777D01*
X136441Y102756D01*
X136437Y102696D01*
X136437Y99707D01*
X136449Y99609D01*
X136452Y99510D01*
X136469Y99452D01*
X136477Y99392D01*
X136513Y99300D01*
X136541Y99205D01*
X136571Y99153D01*
X136594Y99096D01*
X136652Y99016D01*
X136702Y98931D01*
X136768Y98855D01*
X136780Y98839D01*
X136790Y98831D01*
X136808Y98810D01*
X137415Y98204D01*
X137415Y94836D01*
X136216Y93637D01*
X136131Y93528D01*
X136042Y93421D01*
X136033Y93402D01*
X136021Y93386D01*
X135965Y93258D01*
X135906Y93133D01*
X135903Y93113D01*
X135895Y93094D01*
X135873Y92956D01*
X135847Y92820D01*
X135848Y92800D01*
X135845Y92780D01*
X135858Y92641D01*
X135866Y92503D01*
X135873Y92484D01*
X135875Y92464D01*
X135922Y92332D01*
X135964Y92201D01*
X135975Y92183D01*
X135982Y92164D01*
X136061Y92049D01*
X136135Y91932D01*
X136149Y91918D01*
X136161Y91901D01*
X136265Y91809D01*
X136366Y91714D01*
X136384Y91704D01*
X136399Y91691D01*
X136523Y91627D01*
X136645Y91560D01*
X136664Y91555D01*
X136682Y91546D01*
X136818Y91516D01*
X136953Y91481D01*
X136981Y91479D01*
X136993Y91476D01*
X137013Y91477D01*
X137113Y91471D01*
X144425Y91471D01*
X145463Y90433D01*
X145463Y88235D01*
X145480Y88097D01*
X145493Y87959D01*
X145500Y87940D01*
X145503Y87920D01*
X145554Y87791D01*
X145601Y87660D01*
X145612Y87643D01*
X145620Y87624D01*
X145701Y87512D01*
X145779Y87397D01*
X145795Y87383D01*
X145806Y87367D01*
X145914Y87278D01*
X146018Y87186D01*
X146036Y87177D01*
X146051Y87164D01*
X146177Y87105D01*
X146301Y87042D01*
X146321Y87037D01*
X146339Y87028D01*
X146476Y87002D01*
X146611Y86972D01*
X146632Y86972D01*
X146651Y86969D01*
X146790Y86977D01*
G37*
G36*
X100134Y84797D02*
X100134Y84797D01*
X100273Y84801D01*
X100293Y84807D01*
X100313Y84808D01*
X100445Y84851D01*
X100579Y84890D01*
X100596Y84900D01*
X100615Y84906D01*
X100733Y84981D01*
X100853Y85051D01*
X100874Y85070D01*
X100884Y85076D01*
X100898Y85091D01*
X100974Y85158D01*
X101092Y85275D01*
X102803Y86987D01*
X105490Y86987D01*
X105608Y87002D01*
X105727Y87009D01*
X105765Y87022D01*
X105806Y87027D01*
X105916Y87070D01*
X106029Y87107D01*
X106064Y87129D01*
X106101Y87144D01*
X106197Y87213D01*
X106298Y87277D01*
X106326Y87307D01*
X106359Y87330D01*
X106435Y87422D01*
X106516Y87509D01*
X106536Y87544D01*
X106561Y87575D01*
X106612Y87683D01*
X106670Y87787D01*
X106680Y87827D01*
X106697Y87863D01*
X106719Y87980D01*
X106749Y88095D01*
X106753Y88155D01*
X106757Y88175D01*
X106755Y88196D01*
X106759Y88256D01*
X106759Y90433D01*
X107797Y91471D01*
X118263Y91471D01*
X118737Y90998D01*
X118846Y90913D01*
X118953Y90824D01*
X118972Y90815D01*
X118988Y90803D01*
X119116Y90747D01*
X119241Y90688D01*
X119261Y90684D01*
X119280Y90676D01*
X119418Y90654D01*
X119554Y90628D01*
X119574Y90630D01*
X119594Y90627D01*
X119733Y90640D01*
X119871Y90648D01*
X119890Y90654D01*
X119910Y90656D01*
X120041Y90703D01*
X120173Y90746D01*
X120191Y90757D01*
X120210Y90764D01*
X120324Y90842D01*
X120442Y90916D01*
X120456Y90931D01*
X120473Y90943D01*
X120565Y91047D01*
X120660Y91148D01*
X120670Y91166D01*
X120683Y91181D01*
X120746Y91305D01*
X120814Y91427D01*
X120819Y91446D01*
X120828Y91464D01*
X120858Y91600D01*
X120893Y91734D01*
X120895Y91762D01*
X120898Y91774D01*
X120897Y91795D01*
X120903Y91895D01*
X120903Y102030D01*
X120888Y102148D01*
X120881Y102267D01*
X120868Y102305D01*
X120863Y102346D01*
X120820Y102456D01*
X120783Y102569D01*
X120761Y102604D01*
X120746Y102641D01*
X120677Y102737D01*
X120613Y102838D01*
X120583Y102866D01*
X120560Y102899D01*
X120468Y102975D01*
X120381Y103056D01*
X120346Y103076D01*
X120315Y103101D01*
X120207Y103152D01*
X120103Y103210D01*
X120063Y103220D01*
X120027Y103237D01*
X119910Y103259D01*
X119795Y103289D01*
X119735Y103293D01*
X119715Y103297D01*
X119694Y103295D01*
X119634Y103299D01*
X117413Y103299D01*
X116691Y104022D01*
X116612Y104082D01*
X116540Y104150D01*
X116487Y104179D01*
X116439Y104216D01*
X116348Y104256D01*
X116262Y104304D01*
X116203Y104319D01*
X116148Y104343D01*
X116050Y104358D01*
X115954Y104383D01*
X115854Y104389D01*
X115833Y104393D01*
X115821Y104391D01*
X115793Y104393D01*
X99999Y104393D01*
X99862Y104376D01*
X99723Y104363D01*
X99704Y104356D01*
X99684Y104353D01*
X99555Y104302D01*
X99424Y104255D01*
X99407Y104244D01*
X99388Y104236D01*
X99276Y104155D01*
X99161Y104077D01*
X99147Y104061D01*
X99131Y104050D01*
X99042Y103942D01*
X98950Y103838D01*
X98941Y103820D01*
X98928Y103805D01*
X98869Y103679D01*
X98806Y103555D01*
X98801Y103535D01*
X98792Y103517D01*
X98766Y103380D01*
X98736Y103245D01*
X98736Y103224D01*
X98733Y103205D01*
X98741Y103066D01*
X98746Y102927D01*
X98751Y102907D01*
X98752Y102887D01*
X98795Y102755D01*
X98834Y102621D01*
X98844Y102604D01*
X98850Y102585D01*
X98925Y102467D01*
X98995Y102347D01*
X99014Y102326D01*
X99021Y102316D01*
X99036Y102302D01*
X99102Y102227D01*
X100585Y100744D01*
X100585Y97376D01*
X99178Y95970D01*
X99118Y95892D01*
X99050Y95820D01*
X99021Y95767D01*
X98984Y95719D01*
X98944Y95628D01*
X98896Y95541D01*
X98881Y95483D01*
X98857Y95427D01*
X98842Y95329D01*
X98817Y95233D01*
X98811Y95133D01*
X98807Y95113D01*
X98809Y95101D01*
X98807Y95073D01*
X98807Y86055D01*
X98824Y85917D01*
X98837Y85778D01*
X98844Y85759D01*
X98847Y85739D01*
X98898Y85610D01*
X98945Y85479D01*
X98956Y85462D01*
X98964Y85444D01*
X99045Y85331D01*
X99123Y85216D01*
X99139Y85203D01*
X99150Y85186D01*
X99258Y85098D01*
X99362Y85006D01*
X99380Y84996D01*
X99395Y84984D01*
X99521Y84924D01*
X99645Y84861D01*
X99665Y84857D01*
X99683Y84848D01*
X99819Y84822D01*
X99956Y84791D01*
X99976Y84792D01*
X99995Y84788D01*
X100134Y84797D01*
G37*
G36*
X164142Y131025D02*
X164142Y131025D01*
X164281Y131029D01*
X164301Y131035D01*
X164321Y131036D01*
X164453Y131079D01*
X164587Y131117D01*
X164604Y131128D01*
X164623Y131134D01*
X164741Y131208D01*
X164861Y131279D01*
X164882Y131298D01*
X164892Y131304D01*
X164906Y131319D01*
X164981Y131385D01*
X177145Y143549D01*
X177230Y143658D01*
X177318Y143765D01*
X177327Y143784D01*
X177340Y143800D01*
X177395Y143928D01*
X177454Y144053D01*
X177458Y144073D01*
X177466Y144092D01*
X177488Y144230D01*
X177514Y144366D01*
X177513Y144386D01*
X177516Y144406D01*
X177503Y144545D01*
X177494Y144683D01*
X177488Y144702D01*
X177486Y144722D01*
X177439Y144854D01*
X177396Y144985D01*
X177385Y145003D01*
X177378Y145022D01*
X177300Y145137D01*
X177226Y145254D01*
X177211Y145268D01*
X177200Y145285D01*
X177096Y145377D01*
X176994Y145472D01*
X176976Y145482D01*
X176961Y145495D01*
X176838Y145558D01*
X176716Y145626D01*
X176696Y145631D01*
X176678Y145640D01*
X176542Y145670D01*
X176408Y145705D01*
X176380Y145707D01*
X176368Y145710D01*
X176347Y145709D01*
X176247Y145715D01*
X150009Y145715D01*
X149911Y145703D01*
X149813Y145700D01*
X149754Y145683D01*
X149694Y145675D01*
X149602Y145639D01*
X149507Y145612D01*
X149455Y145581D01*
X149398Y145558D01*
X149318Y145500D01*
X149233Y145450D01*
X149157Y145383D01*
X149141Y145372D01*
X149133Y145362D01*
X149112Y145344D01*
X149074Y145306D01*
X149001Y145212D01*
X148922Y145122D01*
X148904Y145086D01*
X148879Y145055D01*
X148832Y144945D01*
X148778Y144839D01*
X148769Y144800D01*
X148753Y144763D01*
X148734Y144645D01*
X148708Y144529D01*
X148709Y144489D01*
X148703Y144449D01*
X148714Y144330D01*
X148718Y144211D01*
X148729Y144172D01*
X148732Y144132D01*
X148773Y144020D01*
X148806Y143905D01*
X148826Y143871D01*
X148840Y143833D01*
X148907Y143734D01*
X148967Y143631D01*
X149007Y143586D01*
X149018Y143570D01*
X149034Y143556D01*
X149074Y143511D01*
X149711Y142873D01*
X150113Y142178D01*
X150321Y141402D01*
X150321Y140009D01*
X145010Y140009D01*
X144892Y139994D01*
X144773Y139987D01*
X144735Y139974D01*
X144695Y139969D01*
X144584Y139926D01*
X144471Y139889D01*
X144437Y139867D01*
X144399Y139852D01*
X144303Y139783D01*
X144202Y139719D01*
X144174Y139689D01*
X144142Y139666D01*
X144066Y139574D01*
X143984Y139487D01*
X143965Y139452D01*
X143939Y139421D01*
X143888Y139313D01*
X143831Y139209D01*
X143821Y139169D01*
X143803Y139133D01*
X143781Y139016D01*
X143751Y138901D01*
X143747Y138841D01*
X143744Y138821D01*
X143745Y138800D01*
X143741Y138740D01*
X143741Y138280D01*
X143756Y138162D01*
X143763Y138043D01*
X143776Y138005D01*
X143781Y137964D01*
X143825Y137853D01*
X143861Y137741D01*
X143883Y137706D01*
X143898Y137669D01*
X143968Y137572D01*
X144031Y137472D01*
X144061Y137444D01*
X144085Y137411D01*
X144176Y137335D01*
X144263Y137254D01*
X144298Y137234D01*
X144330Y137209D01*
X144437Y137158D01*
X144542Y137100D01*
X144581Y137090D01*
X144617Y137073D01*
X144734Y137051D01*
X144850Y137021D01*
X144910Y137017D01*
X144930Y137013D01*
X144950Y137015D01*
X145010Y137011D01*
X150321Y137011D01*
X150321Y135618D01*
X150103Y134805D01*
X150086Y134680D01*
X150062Y134556D01*
X150064Y134523D01*
X150059Y134489D01*
X150074Y134364D01*
X150082Y134239D01*
X150092Y134207D01*
X150096Y134174D01*
X150141Y134056D01*
X150180Y133937D01*
X150198Y133908D01*
X150210Y133877D01*
X150283Y133774D01*
X150350Y133668D01*
X150374Y133645D01*
X150394Y133617D01*
X150490Y133536D01*
X150582Y133450D01*
X150611Y133434D01*
X150637Y133412D01*
X150750Y133357D01*
X150860Y133296D01*
X150893Y133288D01*
X150923Y133273D01*
X151046Y133248D01*
X151168Y133217D01*
X151217Y133214D01*
X151235Y133210D01*
X151256Y133211D01*
X151329Y133207D01*
X154873Y133207D01*
X154971Y133219D01*
X155070Y133222D01*
X155128Y133239D01*
X155188Y133247D01*
X155280Y133283D01*
X155375Y133311D01*
X155427Y133341D01*
X155484Y133364D01*
X155564Y133422D01*
X155649Y133472D01*
X155725Y133538D01*
X155741Y133550D01*
X155749Y133560D01*
X155770Y133578D01*
X157066Y134875D01*
X160434Y134875D01*
X162815Y132494D01*
X162815Y132283D01*
X162832Y132145D01*
X162845Y132007D01*
X162852Y131987D01*
X162855Y131967D01*
X162906Y131838D01*
X162953Y131707D01*
X162964Y131690D01*
X162972Y131672D01*
X163053Y131559D01*
X163131Y131444D01*
X163147Y131431D01*
X163158Y131414D01*
X163266Y131325D01*
X163370Y131234D01*
X163388Y131224D01*
X163403Y131212D01*
X163529Y131152D01*
X163653Y131089D01*
X163673Y131085D01*
X163691Y131076D01*
X163827Y131050D01*
X163963Y131019D01*
X163984Y131020D01*
X164003Y131016D01*
X164142Y131025D01*
G37*
%LPC*%
G36*
X75082Y184149D02*
X75082Y184149D01*
X74040Y185191D01*
X74040Y198349D01*
X75082Y199391D01*
X82002Y199391D01*
X82013Y199386D01*
X82119Y199332D01*
X82158Y199323D01*
X82195Y199307D01*
X82313Y199288D01*
X82429Y199262D01*
X82470Y199263D01*
X82510Y199257D01*
X82628Y199268D01*
X82747Y199272D01*
X82786Y199283D01*
X82826Y199287D01*
X82938Y199327D01*
X83053Y199360D01*
X83087Y199381D01*
X83116Y199391D01*
X90018Y199391D01*
X91060Y198349D01*
X91060Y185191D01*
X90018Y184149D01*
X83098Y184149D01*
X83087Y184154D01*
X82981Y184208D01*
X82941Y184217D01*
X82904Y184233D01*
X82787Y184252D01*
X82670Y184278D01*
X82630Y184277D01*
X82590Y184283D01*
X82472Y184272D01*
X82353Y184268D01*
X82314Y184257D01*
X82274Y184253D01*
X82161Y184213D01*
X82047Y184180D01*
X82012Y184159D01*
X81984Y184149D01*
X75082Y184149D01*
G37*
%LPD*%
%LPC*%
G36*
X75082Y162559D02*
X75082Y162559D01*
X74040Y163601D01*
X74040Y176759D01*
X75082Y177801D01*
X82002Y177801D01*
X82013Y177796D01*
X82119Y177742D01*
X82158Y177733D01*
X82195Y177717D01*
X82313Y177698D01*
X82429Y177672D01*
X82470Y177673D01*
X82510Y177667D01*
X82628Y177678D01*
X82747Y177682D01*
X82786Y177693D01*
X82826Y177697D01*
X82938Y177737D01*
X83053Y177770D01*
X83087Y177791D01*
X83116Y177801D01*
X90018Y177801D01*
X91060Y176759D01*
X91060Y163601D01*
X90018Y162559D01*
X83098Y162559D01*
X83087Y162564D01*
X82981Y162618D01*
X82941Y162627D01*
X82904Y162643D01*
X82787Y162662D01*
X82670Y162688D01*
X82630Y162687D01*
X82590Y162693D01*
X82472Y162682D01*
X82353Y162678D01*
X82314Y162667D01*
X82274Y162663D01*
X82161Y162623D01*
X82047Y162590D01*
X82012Y162569D01*
X81984Y162559D01*
X75082Y162559D01*
G37*
%LPD*%
%LPC*%
G36*
X187546Y60705D02*
X187546Y60705D01*
X186648Y61604D01*
X186570Y61664D01*
X186498Y61732D01*
X186445Y61761D01*
X186397Y61798D01*
X186306Y61838D01*
X186219Y61886D01*
X186161Y61901D01*
X186105Y61925D01*
X186007Y61940D01*
X185911Y61965D01*
X185811Y61971D01*
X185791Y61975D01*
X185779Y61973D01*
X185751Y61975D01*
X183335Y61975D01*
X183237Y61963D01*
X183138Y61960D01*
X183080Y61943D01*
X183020Y61935D01*
X182928Y61899D01*
X182832Y61871D01*
X182780Y61841D01*
X182724Y61818D01*
X182644Y61760D01*
X182559Y61710D01*
X182483Y61644D01*
X182467Y61632D01*
X182459Y61622D01*
X182438Y61604D01*
X181763Y60929D01*
X171297Y60929D01*
X170259Y61967D01*
X170259Y73433D01*
X171297Y74471D01*
X181763Y74471D01*
X182801Y73433D01*
X182801Y68834D01*
X182816Y68716D01*
X182823Y68597D01*
X182836Y68559D01*
X182841Y68518D01*
X182884Y68408D01*
X182921Y68295D01*
X182943Y68260D01*
X182958Y68223D01*
X183027Y68127D01*
X183091Y68026D01*
X183121Y67998D01*
X183144Y67965D01*
X183236Y67889D01*
X183323Y67808D01*
X183358Y67788D01*
X183389Y67763D01*
X183497Y67712D01*
X183601Y67654D01*
X183641Y67644D01*
X183677Y67627D01*
X183794Y67605D01*
X183909Y67575D01*
X183969Y67571D01*
X183989Y67567D01*
X184010Y67569D01*
X184070Y67565D01*
X185751Y67565D01*
X185849Y67577D01*
X185948Y67580D01*
X186006Y67597D01*
X186066Y67605D01*
X186158Y67641D01*
X186253Y67669D01*
X186305Y67699D01*
X186362Y67722D01*
X186442Y67780D01*
X186527Y67830D01*
X186603Y67896D01*
X186619Y67908D01*
X186627Y67918D01*
X186648Y67936D01*
X187546Y68835D01*
X190914Y68835D01*
X193295Y66454D01*
X193295Y63086D01*
X190914Y60705D01*
X187546Y60705D01*
G37*
%LPD*%
%LPC*%
G36*
X66039Y15239D02*
X66039Y15239D01*
X66039Y24385D01*
X66296Y24345D01*
X68083Y23764D01*
X69757Y22911D01*
X71278Y21806D01*
X72606Y20478D01*
X73711Y18957D01*
X74564Y17283D01*
X75145Y15496D01*
X75185Y15239D01*
X66039Y15239D01*
G37*
%LPD*%
%LPC*%
G36*
X51815Y15239D02*
X51815Y15239D01*
X51855Y15496D01*
X52436Y17283D01*
X53289Y18957D01*
X54394Y20478D01*
X55722Y21806D01*
X57243Y22911D01*
X58917Y23764D01*
X60704Y24345D01*
X60961Y24385D01*
X60961Y15239D01*
X51815Y15239D01*
G37*
%LPD*%
%LPC*%
G36*
X52299Y143499D02*
X52299Y143499D01*
X52299Y147541D01*
X57442Y147541D01*
X58218Y147333D01*
X58913Y146931D01*
X59481Y146363D01*
X59883Y145668D01*
X60091Y144892D01*
X60091Y143499D01*
X52299Y143499D01*
G37*
%LPD*%
%LPC*%
G36*
X41509Y143499D02*
X41509Y143499D01*
X41509Y144892D01*
X41717Y145668D01*
X42119Y146363D01*
X42687Y146931D01*
X43382Y147333D01*
X44158Y147541D01*
X49301Y147541D01*
X49301Y143499D01*
X41509Y143499D01*
G37*
%LPD*%
%LPC*%
G36*
X204699Y110501D02*
X204699Y110501D01*
X212491Y110501D01*
X212491Y109108D01*
X212283Y108332D01*
X211881Y107637D01*
X211313Y107069D01*
X210618Y106667D01*
X209842Y106459D01*
X204699Y106459D01*
X204699Y110501D01*
G37*
%LPD*%
%LPC*%
G36*
X196558Y106459D02*
X196558Y106459D01*
X195782Y106667D01*
X195087Y107069D01*
X194519Y107637D01*
X194117Y108332D01*
X193909Y109108D01*
X193909Y110501D01*
X201701Y110501D01*
X201701Y106459D01*
X196558Y106459D01*
G37*
%LPD*%
%LPC*%
G36*
X6683Y177371D02*
X6683Y177371D01*
X6683Y178904D01*
X6959Y179932D01*
X7491Y180853D01*
X8243Y181605D01*
X9164Y182137D01*
X10192Y182413D01*
X11725Y182413D01*
X11725Y177371D01*
X6683Y177371D01*
G37*
%LPD*%
%LPC*%
G36*
X10192Y167331D02*
X10192Y167331D01*
X9164Y167607D01*
X8243Y168139D01*
X7491Y168891D01*
X6959Y169812D01*
X6683Y170840D01*
X6683Y172373D01*
X11725Y172373D01*
X11725Y167331D01*
X10192Y167331D01*
G37*
%LPD*%
G36*
X138088Y113266D02*
X138088Y113266D01*
X138207Y113273D01*
X138245Y113285D01*
X138286Y113290D01*
X138396Y113334D01*
X138509Y113371D01*
X138544Y113393D01*
X138581Y113407D01*
X138677Y113477D01*
X138778Y113541D01*
X138806Y113571D01*
X138839Y113594D01*
X138915Y113686D01*
X138996Y113773D01*
X139016Y113808D01*
X139041Y113839D01*
X139092Y113947D01*
X139150Y114051D01*
X139160Y114090D01*
X139177Y114127D01*
X139199Y114244D01*
X139229Y114359D01*
X139233Y114419D01*
X139237Y114439D01*
X139237Y114440D01*
X139235Y114460D01*
X139239Y114520D01*
X139224Y114638D01*
X139217Y114757D01*
X139204Y114795D01*
X139199Y114836D01*
X139156Y114946D01*
X139119Y115060D01*
X139097Y115094D01*
X139082Y115131D01*
X139013Y115228D01*
X138949Y115328D01*
X138919Y115356D01*
X138896Y115389D01*
X138804Y115465D01*
X138717Y115546D01*
X138682Y115566D01*
X138651Y115592D01*
X138543Y115642D01*
X138439Y115700D01*
X138399Y115710D01*
X138363Y115727D01*
X138246Y115749D01*
X138131Y115779D01*
X138071Y115783D01*
X138051Y115787D01*
X138030Y115786D01*
X137970Y115789D01*
X133642Y115789D01*
X133524Y115774D01*
X133405Y115767D01*
X133367Y115755D01*
X133327Y115750D01*
X133216Y115706D01*
X133103Y115669D01*
X133069Y115647D01*
X133031Y115633D01*
X132935Y115563D01*
X132834Y115499D01*
X132806Y115469D01*
X132774Y115446D01*
X132698Y115354D01*
X132616Y115267D01*
X132597Y115232D01*
X132571Y115201D01*
X132520Y115093D01*
X132463Y114989D01*
X132453Y114950D01*
X132435Y114913D01*
X132413Y114796D01*
X132383Y114681D01*
X132379Y114621D01*
X132376Y114601D01*
X132376Y114600D01*
X132377Y114580D01*
X132373Y114520D01*
X132388Y114402D01*
X132395Y114283D01*
X132408Y114244D01*
X132413Y114204D01*
X132457Y114094D01*
X132493Y113980D01*
X132515Y113946D01*
X132530Y113909D01*
X132600Y113812D01*
X132664Y113712D01*
X132693Y113684D01*
X132717Y113651D01*
X132809Y113575D01*
X132895Y113494D01*
X132931Y113474D01*
X132962Y113448D01*
X133069Y113398D01*
X133174Y113340D01*
X133213Y113330D01*
X133249Y113313D01*
X133366Y113291D01*
X133482Y113261D01*
X133542Y113257D01*
X133562Y113253D01*
X133582Y113254D01*
X133642Y113251D01*
X137970Y113251D01*
X138088Y113266D01*
G37*
D10*
X246380Y246380D03*
X6350Y7620D03*
D11*
X249470Y93480D02*
X249470Y104520D01*
X249470Y93480D02*
X230430Y93480D01*
X230430Y104520D01*
X249470Y104520D01*
X249470Y94392D02*
X230430Y94392D01*
X230430Y95304D02*
X249470Y95304D01*
X249470Y96216D02*
X230430Y96216D01*
X230430Y97128D02*
X249470Y97128D01*
X249470Y98040D02*
X230430Y98040D01*
X230430Y98952D02*
X249470Y98952D01*
X249470Y99864D02*
X230430Y99864D01*
X230430Y100776D02*
X249470Y100776D01*
X249470Y101688D02*
X230430Y101688D01*
X230430Y102600D02*
X249470Y102600D01*
X249470Y103512D02*
X230430Y103512D01*
X230430Y104424D02*
X249470Y104424D01*
X249470Y149480D02*
X249470Y160520D01*
X249470Y149480D02*
X230430Y149480D01*
X230430Y160520D01*
X249470Y160520D01*
X249470Y150392D02*
X230430Y150392D01*
X230430Y151304D02*
X249470Y151304D01*
X249470Y152216D02*
X230430Y152216D01*
X230430Y153128D02*
X249470Y153128D01*
X249470Y154040D02*
X230430Y154040D01*
X230430Y154952D02*
X249470Y154952D01*
X249470Y155864D02*
X230430Y155864D01*
X230430Y156776D02*
X249470Y156776D01*
X249470Y157688D02*
X230430Y157688D01*
X230430Y158600D02*
X249470Y158600D01*
X249470Y159512D02*
X230430Y159512D01*
X230430Y160424D02*
X249470Y160424D01*
D12*
X209440Y114490D02*
X209440Y109510D01*
X196960Y109510D01*
X196960Y114490D01*
X209440Y114490D01*
X209440Y110479D02*
X196960Y110479D01*
X196960Y111448D02*
X209440Y111448D01*
X209440Y112417D02*
X196960Y112417D01*
X196960Y113386D02*
X209440Y113386D01*
X209440Y114355D02*
X196960Y114355D01*
X209440Y119510D02*
X209440Y124490D01*
X209440Y119510D02*
X196960Y119510D01*
X196960Y124490D01*
X209440Y124490D01*
X209440Y120479D02*
X196960Y120479D01*
X196960Y121448D02*
X209440Y121448D01*
X209440Y122417D02*
X196960Y122417D01*
X196960Y123386D02*
X209440Y123386D01*
X209440Y124355D02*
X196960Y124355D01*
X209440Y129510D02*
X209440Y134490D01*
X209440Y129510D02*
X196960Y129510D01*
X196960Y134490D01*
X209440Y134490D01*
X209440Y130479D02*
X196960Y130479D01*
X196960Y131448D02*
X209440Y131448D01*
X209440Y132417D02*
X196960Y132417D01*
X196960Y133386D02*
X209440Y133386D01*
X209440Y134355D02*
X196960Y134355D01*
X209440Y139510D02*
X209440Y144490D01*
X209440Y139510D02*
X196960Y139510D01*
X196960Y144490D01*
X209440Y144490D01*
X209440Y140479D02*
X196960Y140479D01*
X196960Y141448D02*
X209440Y141448D01*
X209440Y142417D02*
X196960Y142417D01*
X196960Y143386D02*
X209440Y143386D01*
X209440Y144355D02*
X196960Y144355D01*
D11*
X4530Y149480D02*
X4530Y160520D01*
X23570Y160520D01*
X23570Y149480D01*
X4530Y149480D01*
X4530Y150392D02*
X23570Y150392D01*
X23570Y151304D02*
X4530Y151304D01*
X4530Y152216D02*
X23570Y152216D01*
X23570Y153128D02*
X4530Y153128D01*
X4530Y154040D02*
X23570Y154040D01*
X23570Y154952D02*
X4530Y154952D01*
X4530Y155864D02*
X23570Y155864D01*
X23570Y156776D02*
X4530Y156776D01*
X4530Y157688D02*
X23570Y157688D01*
X23570Y158600D02*
X4530Y158600D01*
X4530Y159512D02*
X23570Y159512D01*
X23570Y160424D02*
X4530Y160424D01*
X4530Y104520D02*
X4530Y93480D01*
X4530Y104520D02*
X23570Y104520D01*
X23570Y93480D01*
X4530Y93480D01*
X4530Y94392D02*
X23570Y94392D01*
X23570Y95304D02*
X4530Y95304D01*
X4530Y96216D02*
X23570Y96216D01*
X23570Y97128D02*
X4530Y97128D01*
X4530Y98040D02*
X23570Y98040D01*
X23570Y98952D02*
X4530Y98952D01*
X4530Y99864D02*
X23570Y99864D01*
X23570Y100776D02*
X4530Y100776D01*
X4530Y101688D02*
X23570Y101688D01*
X23570Y102600D02*
X4530Y102600D01*
X4530Y103512D02*
X23570Y103512D01*
X23570Y104424D02*
X4530Y104424D01*
D12*
X44560Y139510D02*
X44560Y144490D01*
X57040Y144490D01*
X57040Y139510D01*
X44560Y139510D01*
X44560Y140479D02*
X57040Y140479D01*
X57040Y141448D02*
X44560Y141448D01*
X44560Y142417D02*
X57040Y142417D01*
X57040Y143386D02*
X44560Y143386D01*
X44560Y144355D02*
X57040Y144355D01*
X44560Y134490D02*
X44560Y129510D01*
X44560Y134490D02*
X57040Y134490D01*
X57040Y129510D01*
X44560Y129510D01*
X44560Y130479D02*
X57040Y130479D01*
X57040Y131448D02*
X44560Y131448D01*
X44560Y132417D02*
X57040Y132417D01*
X57040Y133386D02*
X44560Y133386D01*
X44560Y134355D02*
X57040Y134355D01*
X44560Y124490D02*
X44560Y119510D01*
X44560Y124490D02*
X57040Y124490D01*
X57040Y119510D01*
X44560Y119510D01*
X44560Y120479D02*
X57040Y120479D01*
X57040Y121448D02*
X44560Y121448D01*
X44560Y122417D02*
X57040Y122417D01*
X57040Y123386D02*
X44560Y123386D01*
X44560Y124355D02*
X57040Y124355D01*
X44560Y114490D02*
X44560Y109510D01*
X44560Y114490D02*
X57040Y114490D01*
X57040Y109510D01*
X44560Y109510D01*
X44560Y110479D02*
X57040Y110479D01*
X57040Y111448D02*
X44560Y111448D01*
X44560Y112417D02*
X57040Y112417D01*
X57040Y113386D02*
X44560Y113386D01*
X44560Y114355D02*
X57040Y114355D01*
D13*
X63500Y12700D03*
X88900Y12700D03*
X114300Y12700D03*
X139700Y12700D03*
D14*
X117530Y62700D02*
X117530Y72700D01*
X117530Y62700D02*
X108530Y62700D01*
X108530Y72700D01*
X117530Y72700D01*
X117530Y63650D02*
X108530Y63650D01*
X108530Y64600D02*
X117530Y64600D01*
X117530Y65550D02*
X108530Y65550D01*
X108530Y66500D02*
X117530Y66500D01*
X117530Y67450D02*
X108530Y67450D01*
X108530Y68400D02*
X117530Y68400D01*
X117530Y69350D02*
X108530Y69350D01*
X108530Y70300D02*
X117530Y70300D01*
X117530Y71250D02*
X108530Y71250D01*
X108530Y72200D02*
X117530Y72200D01*
X117530Y79700D02*
X117530Y89700D01*
X117530Y79700D02*
X108530Y79700D01*
X108530Y89700D01*
X117530Y89700D01*
X117530Y80650D02*
X108530Y80650D01*
X108530Y81600D02*
X117530Y81600D01*
X117530Y82550D02*
X108530Y82550D01*
X108530Y83500D02*
X117530Y83500D01*
X117530Y84450D02*
X108530Y84450D01*
X108530Y85400D02*
X117530Y85400D01*
X117530Y86350D02*
X108530Y86350D01*
X108530Y87300D02*
X117530Y87300D01*
X117530Y88250D02*
X108530Y88250D01*
X108530Y89200D02*
X117530Y89200D01*
X143692Y72700D02*
X143692Y62700D01*
X134692Y62700D01*
X134692Y72700D01*
X143692Y72700D01*
X143692Y63650D02*
X134692Y63650D01*
X134692Y64600D02*
X143692Y64600D01*
X143692Y65550D02*
X134692Y65550D01*
X134692Y66500D02*
X143692Y66500D01*
X143692Y67450D02*
X134692Y67450D01*
X134692Y68400D02*
X143692Y68400D01*
X143692Y69350D02*
X134692Y69350D01*
X134692Y70300D02*
X143692Y70300D01*
X143692Y71250D02*
X134692Y71250D01*
X134692Y72200D02*
X143692Y72200D01*
X143692Y79700D02*
X143692Y89700D01*
X143692Y79700D02*
X134692Y79700D01*
X134692Y89700D01*
X143692Y89700D01*
X143692Y80650D02*
X134692Y80650D01*
X134692Y81600D02*
X143692Y81600D01*
X143692Y82550D02*
X134692Y82550D01*
X134692Y83500D02*
X143692Y83500D01*
X143692Y84450D02*
X134692Y84450D01*
X134692Y85400D02*
X143692Y85400D01*
X143692Y86350D02*
X134692Y86350D01*
X134692Y87300D02*
X143692Y87300D01*
X143692Y88250D02*
X134692Y88250D01*
X134692Y89200D02*
X143692Y89200D01*
X24710Y187142D02*
X24710Y197142D01*
X33710Y197142D01*
X33710Y187142D01*
X24710Y187142D01*
X24710Y188092D02*
X33710Y188092D01*
X33710Y189042D02*
X24710Y189042D01*
X24710Y189992D02*
X33710Y189992D01*
X33710Y190942D02*
X24710Y190942D01*
X24710Y191892D02*
X33710Y191892D01*
X33710Y192842D02*
X24710Y192842D01*
X24710Y193792D02*
X33710Y193792D01*
X33710Y194742D02*
X24710Y194742D01*
X24710Y195692D02*
X33710Y195692D01*
X33710Y196642D02*
X24710Y196642D01*
X24710Y180142D02*
X24710Y170142D01*
X24710Y180142D02*
X33710Y180142D01*
X33710Y170142D01*
X24710Y170142D01*
X24710Y171092D02*
X33710Y171092D01*
X33710Y172042D02*
X24710Y172042D01*
X24710Y172992D02*
X33710Y172992D01*
X33710Y173942D02*
X24710Y173942D01*
X24710Y174892D02*
X33710Y174892D01*
X33710Y175842D02*
X24710Y175842D01*
X24710Y176792D02*
X33710Y176792D01*
X33710Y177742D02*
X24710Y177742D01*
X24710Y178692D02*
X33710Y178692D01*
X33710Y179642D02*
X24710Y179642D01*
D15*
X17724Y178372D02*
X10724Y178372D01*
X17724Y178372D02*
X17724Y171372D01*
X10724Y171372D01*
X10724Y178372D01*
X10724Y174222D02*
X17724Y174222D01*
X17724Y177072D02*
X10724Y177072D01*
X10724Y195912D02*
X17724Y195912D01*
X17724Y188912D01*
X10724Y188912D01*
X10724Y195912D01*
X10724Y191762D02*
X17724Y191762D01*
X17724Y194612D02*
X10724Y194612D01*
D16*
X118149Y146077D02*
X122135Y146077D01*
X118149Y146077D02*
X118149Y148563D01*
X122135Y148563D01*
X122135Y146077D01*
X122135Y147041D02*
X118149Y147041D01*
X118149Y148005D02*
X122135Y148005D01*
X122135Y137877D02*
X118149Y137877D01*
X118149Y140363D01*
X122135Y140363D01*
X122135Y137877D01*
X122135Y138841D02*
X118149Y138841D01*
X118149Y139805D02*
X122135Y139805D01*
X122135Y129677D02*
X118149Y129677D01*
X118149Y132163D01*
X122135Y132163D01*
X122135Y129677D01*
X122135Y130641D02*
X118149Y130641D01*
X118149Y131605D02*
X122135Y131605D01*
X122135Y121477D02*
X118149Y121477D01*
X118149Y123963D01*
X122135Y123963D01*
X122135Y121477D01*
X122135Y122441D02*
X118149Y122441D01*
X118149Y123405D02*
X122135Y123405D01*
X122135Y113277D02*
X118149Y113277D01*
X118149Y115763D01*
X122135Y115763D01*
X122135Y113277D01*
X122135Y114241D02*
X118149Y114241D01*
X118149Y115205D02*
X122135Y115205D01*
X122135Y105077D02*
X118149Y105077D01*
X118149Y107563D01*
X122135Y107563D01*
X122135Y105077D01*
X122135Y106041D02*
X118149Y106041D01*
X118149Y107005D02*
X122135Y107005D01*
X131649Y105077D02*
X135635Y105077D01*
X131649Y105077D02*
X131649Y107563D01*
X135635Y107563D01*
X135635Y105077D01*
X135635Y106041D02*
X131649Y106041D01*
X131649Y107005D02*
X135635Y107005D01*
X135635Y113277D02*
X131649Y113277D01*
X131649Y115763D01*
X135635Y115763D01*
X135635Y113277D01*
X135635Y114241D02*
X131649Y114241D01*
X131649Y115205D02*
X135635Y115205D01*
X135635Y121477D02*
X131649Y121477D01*
X131649Y123963D01*
X135635Y123963D01*
X135635Y121477D01*
X135635Y122441D02*
X131649Y122441D01*
X131649Y123405D02*
X135635Y123405D01*
X135635Y129677D02*
X131649Y129677D01*
X131649Y132163D01*
X135635Y132163D01*
X135635Y129677D01*
X135635Y130641D02*
X131649Y130641D01*
X131649Y131605D02*
X135635Y131605D01*
X135635Y137877D02*
X131649Y137877D01*
X131649Y140363D01*
X135635Y140363D01*
X135635Y137877D01*
X135635Y138841D02*
X131649Y138841D01*
X131649Y139805D02*
X135635Y139805D01*
X135635Y146077D02*
X131649Y146077D01*
X131649Y148563D01*
X135635Y148563D01*
X135635Y146077D01*
X135635Y147041D02*
X131649Y147041D01*
X131649Y148005D02*
X135635Y148005D01*
D12*
X142290Y146020D02*
X142290Y151000D01*
X147270Y151000D01*
X147270Y146020D01*
X142290Y146020D01*
X142290Y146989D02*
X147270Y146989D01*
X147270Y147958D02*
X142290Y147958D01*
X142290Y148927D02*
X147270Y148927D01*
X147270Y149896D02*
X142290Y149896D01*
X142290Y150865D02*
X147270Y150865D01*
X142290Y141000D02*
X142290Y136020D01*
X142290Y141000D02*
X147270Y141000D01*
X147270Y136020D01*
X142290Y136020D01*
X142290Y136989D02*
X147270Y136989D01*
X147270Y137958D02*
X142290Y137958D01*
X142290Y138927D02*
X147270Y138927D01*
X147270Y139896D02*
X142290Y139896D01*
X142290Y140865D02*
X147270Y140865D01*
X104190Y146020D02*
X104190Y151000D01*
X109170Y151000D01*
X109170Y146020D01*
X104190Y146020D01*
X104190Y146989D02*
X109170Y146989D01*
X109170Y147958D02*
X104190Y147958D01*
X104190Y148927D02*
X109170Y148927D01*
X109170Y149896D02*
X104190Y149896D01*
X104190Y150865D02*
X109170Y150865D01*
X104190Y141000D02*
X104190Y136020D01*
X104190Y141000D02*
X109170Y141000D01*
X109170Y136020D01*
X104190Y136020D01*
X104190Y136989D02*
X109170Y136989D01*
X109170Y137958D02*
X104190Y137958D01*
X104190Y138927D02*
X109170Y138927D01*
X109170Y139896D02*
X104190Y139896D01*
X104190Y140865D02*
X109170Y140865D01*
X147270Y109250D02*
X147270Y104270D01*
X142290Y104270D01*
X142290Y109250D01*
X147270Y109250D01*
X147270Y105239D02*
X142290Y105239D01*
X142290Y106208D02*
X147270Y106208D01*
X147270Y107177D02*
X142290Y107177D01*
X142290Y108146D02*
X147270Y108146D01*
X147270Y109115D02*
X142290Y109115D01*
X147270Y114270D02*
X147270Y119250D01*
X147270Y114270D02*
X142290Y114270D01*
X142290Y119250D01*
X147270Y119250D01*
X147270Y115239D02*
X142290Y115239D01*
X142290Y116208D02*
X147270Y116208D01*
X147270Y117177D02*
X142290Y117177D01*
X142290Y118146D02*
X147270Y118146D01*
X147270Y119115D02*
X142290Y119115D01*
D14*
X78050Y89700D02*
X78050Y79700D01*
X78050Y89700D02*
X87050Y89700D01*
X87050Y79700D01*
X78050Y79700D01*
X78050Y80650D02*
X87050Y80650D01*
X87050Y81600D02*
X78050Y81600D01*
X78050Y82550D02*
X87050Y82550D01*
X87050Y83500D02*
X78050Y83500D01*
X78050Y84450D02*
X87050Y84450D01*
X87050Y85400D02*
X78050Y85400D01*
X78050Y86350D02*
X87050Y86350D01*
X87050Y87300D02*
X78050Y87300D01*
X78050Y88250D02*
X87050Y88250D01*
X87050Y89200D02*
X78050Y89200D01*
X78050Y72700D02*
X78050Y62700D01*
X78050Y72700D02*
X87050Y72700D01*
X87050Y62700D01*
X78050Y62700D01*
X78050Y63650D02*
X87050Y63650D01*
X87050Y64600D02*
X78050Y64600D01*
X78050Y65550D02*
X87050Y65550D01*
X87050Y66500D02*
X78050Y66500D01*
X78050Y67450D02*
X87050Y67450D01*
X87050Y68400D02*
X78050Y68400D01*
X78050Y69350D02*
X87050Y69350D01*
X87050Y70300D02*
X78050Y70300D01*
X78050Y71250D02*
X87050Y71250D01*
X87050Y72200D02*
X78050Y72200D01*
X172030Y79700D02*
X172030Y89700D01*
X181030Y89700D01*
X181030Y79700D01*
X172030Y79700D01*
X172030Y80650D02*
X181030Y80650D01*
X181030Y81600D02*
X172030Y81600D01*
X172030Y82550D02*
X181030Y82550D01*
X181030Y83500D02*
X172030Y83500D01*
X172030Y84450D02*
X181030Y84450D01*
X181030Y85400D02*
X172030Y85400D01*
X172030Y86350D02*
X181030Y86350D01*
X181030Y87300D02*
X172030Y87300D01*
X172030Y88250D02*
X181030Y88250D01*
X181030Y89200D02*
X172030Y89200D01*
X172030Y72700D02*
X172030Y62700D01*
X172030Y72700D02*
X181030Y72700D01*
X181030Y62700D01*
X172030Y62700D01*
X172030Y63650D02*
X181030Y63650D01*
X181030Y64600D02*
X172030Y64600D01*
X172030Y65550D02*
X181030Y65550D01*
X181030Y66500D02*
X172030Y66500D01*
X172030Y67450D02*
X181030Y67450D01*
X181030Y68400D02*
X172030Y68400D01*
X172030Y69350D02*
X181030Y69350D01*
X181030Y70300D02*
X172030Y70300D01*
X172030Y71250D02*
X181030Y71250D01*
X181030Y72200D02*
X172030Y72200D01*
D13*
X241300Y12700D03*
X215900Y12700D03*
X190500Y12700D03*
X165100Y12700D03*
D17*
X81153Y185928D02*
X75819Y185928D01*
X75819Y197612D01*
X81153Y197612D01*
X81153Y185928D01*
X81153Y186893D02*
X75819Y186893D01*
X75819Y187858D02*
X81153Y187858D01*
X81153Y188823D02*
X75819Y188823D01*
X75819Y189788D02*
X81153Y189788D01*
X81153Y190753D02*
X75819Y190753D01*
X75819Y191718D02*
X81153Y191718D01*
X81153Y192683D02*
X75819Y192683D01*
X75819Y193648D02*
X81153Y193648D01*
X81153Y194613D02*
X75819Y194613D01*
X75819Y195578D02*
X81153Y195578D01*
X81153Y196543D02*
X75819Y196543D01*
X75819Y197508D02*
X81153Y197508D01*
X83947Y185928D02*
X89281Y185928D01*
X83947Y185928D02*
X83947Y197612D01*
X89281Y197612D01*
X89281Y185928D01*
X89281Y186893D02*
X83947Y186893D01*
X83947Y187858D02*
X89281Y187858D01*
X89281Y188823D02*
X83947Y188823D01*
X83947Y189788D02*
X89281Y189788D01*
X89281Y190753D02*
X83947Y190753D01*
X83947Y191718D02*
X89281Y191718D01*
X89281Y192683D02*
X83947Y192683D01*
X83947Y193648D02*
X89281Y193648D01*
X89281Y194613D02*
X83947Y194613D01*
X83947Y195578D02*
X89281Y195578D01*
X89281Y196543D02*
X83947Y196543D01*
X83947Y197508D02*
X89281Y197508D01*
X81153Y164338D02*
X75819Y164338D01*
X75819Y176022D01*
X81153Y176022D01*
X81153Y164338D01*
X81153Y165303D02*
X75819Y165303D01*
X75819Y166268D02*
X81153Y166268D01*
X81153Y167233D02*
X75819Y167233D01*
X75819Y168198D02*
X81153Y168198D01*
X81153Y169163D02*
X75819Y169163D01*
X75819Y170128D02*
X81153Y170128D01*
X81153Y171093D02*
X75819Y171093D01*
X75819Y172058D02*
X81153Y172058D01*
X81153Y173023D02*
X75819Y173023D01*
X75819Y173988D02*
X81153Y173988D01*
X81153Y174953D02*
X75819Y174953D01*
X75819Y175918D02*
X81153Y175918D01*
X83947Y164338D02*
X89281Y164338D01*
X83947Y164338D02*
X83947Y176022D01*
X89281Y176022D01*
X89281Y164338D01*
X89281Y165303D02*
X83947Y165303D01*
X83947Y166268D02*
X89281Y166268D01*
X89281Y167233D02*
X83947Y167233D01*
X83947Y168198D02*
X89281Y168198D01*
X89281Y169163D02*
X83947Y169163D01*
X83947Y170128D02*
X89281Y170128D01*
X89281Y171093D02*
X83947Y171093D01*
X83947Y172058D02*
X89281Y172058D01*
X89281Y173023D02*
X83947Y173023D01*
X83947Y173988D02*
X89281Y173988D01*
X89281Y174953D02*
X83947Y174953D01*
X83947Y175918D02*
X89281Y175918D01*
D18*
X63500Y142240D03*
X201930Y163830D03*
X227330Y190500D03*
X49530Y162560D03*
X95250Y139700D03*
X88900Y129540D03*
X68580Y100330D03*
X106680Y99060D03*
X157480Y140970D03*
X184150Y100330D03*
D19*
X139692Y116760D02*
X137452Y114520D01*
X133642Y114520D01*
X139692Y116760D02*
X144780Y116760D01*
X144170Y139120D02*
X133642Y139120D01*
X144170Y139120D02*
X144780Y138510D01*
D18*
X148590Y97790D03*
X173990Y35560D03*
X107950Y36830D03*
X27940Y138430D03*
X190500Y111760D03*
X200660Y41910D03*
X190500Y73660D03*
X170180Y53340D03*
X148590Y53340D03*
X111760Y53340D03*
D19*
X107290Y139120D02*
X120142Y139120D01*
X107290Y139120D02*
X106680Y138510D01*
X50800Y132000D02*
X21670Y132000D01*
X20320Y133350D01*
D18*
X20320Y133350D03*
D19*
X50800Y132000D02*
X68500Y132000D01*
X85010Y148510D02*
X106680Y148510D01*
X85010Y148510D02*
X68500Y132000D01*
X107870Y147320D02*
X120142Y147320D01*
X107870Y147320D02*
X106680Y148510D01*
X133642Y147320D02*
X143590Y147320D01*
X144780Y148510D01*
X182880Y148510D01*
X186770Y152400D01*
X212090Y152400D01*
X219710Y144780D01*
X219710Y129540D01*
X212090Y121920D01*
X203280Y121920D02*
X203200Y122000D01*
X203280Y121920D02*
X212090Y121920D01*
X82550Y67700D02*
X79620Y64770D01*
X69850Y64770D01*
D18*
X69850Y64770D03*
D19*
X133642Y106320D02*
X134082Y106760D01*
X144780Y106760D01*
D18*
X133350Y96520D03*
D19*
X133642Y96812D01*
X133642Y106320D01*
D18*
X189230Y64770D03*
D19*
X179460Y64770D01*
X176530Y67700D01*
D18*
X133350Y154940D03*
D19*
X133642Y154648D01*
X133642Y147320D01*
X120142Y147320D02*
X120142Y154432D01*
X120650Y154940D01*
D18*
X120650Y154940D03*
D20*
X106192Y112000D02*
X50800Y112000D01*
X108712Y114520D02*
X120142Y114520D01*
X108712Y114520D02*
X106192Y112000D01*
X120142Y114520D02*
X124240Y114520D01*
X128270Y110490D01*
X128270Y24130D02*
X139700Y12700D01*
X128270Y67700D02*
X128270Y110490D01*
X128270Y67700D02*
X139192Y67700D01*
X128270Y67700D02*
X128270Y24130D01*
X139700Y12700D02*
X156210Y29210D01*
X178830Y142000D02*
X203200Y142000D01*
X156210Y119380D02*
X156210Y29210D01*
X156210Y119380D02*
X178830Y142000D01*
X50800Y122000D02*
X41990Y122000D01*
X36830Y116840D01*
X36830Y109220D01*
X40640Y105410D01*
X58420Y105410D01*
X59690Y106680D01*
X119782Y106680D01*
X120142Y106320D01*
X121010Y106320D01*
X123190Y104140D01*
X123190Y67310D01*
X122800Y67700D02*
X113030Y67700D01*
D18*
X162560Y38100D03*
D20*
X162560Y113030D01*
X181530Y132000D02*
X203200Y132000D01*
X181530Y132000D02*
X162560Y113030D01*
X122800Y67700D02*
X123190Y67310D01*
X123190Y38100D01*
D18*
X123190Y38100D03*
D20*
X114300Y16510D02*
X114300Y12700D01*
X123190Y25400D02*
X123190Y38100D01*
X123190Y25400D02*
X114300Y16510D01*
X28940Y192412D02*
X14224Y192412D01*
X28940Y192412D02*
X29210Y192142D01*
D18*
X41910Y165100D03*
D20*
X39488Y175142D02*
X29210Y175142D01*
X41910Y172720D02*
X41910Y165100D01*
X41910Y172720D02*
X39488Y175142D01*
D18*
X101600Y76200D03*
D20*
X101600Y82550D01*
X103750Y84700D01*
X113030Y84700D01*
D18*
X149860Y83820D03*
D20*
X140072Y83820D01*
X139192Y84700D01*
D18*
X207010Y33020D03*
D20*
X207010Y74930D01*
X197240Y84700D02*
X176530Y84700D01*
X197240Y84700D02*
X207010Y74930D01*
X176530Y84700D02*
X173990Y87240D01*
X173990Y105410D02*
X171450Y107950D01*
X173990Y105410D02*
X173990Y87240D01*
D18*
X171450Y107950D03*
X152400Y125840D03*
D20*
X141842Y125840D01*
X138722Y122720D01*
X133642Y122720D01*
X120142Y130920D02*
X97900Y130920D01*
X96520Y129540D01*
D18*
X96520Y129540D03*
X96520Y99060D03*
D20*
X190500Y29210D02*
X190500Y12700D01*
X190500Y29210D02*
X175260Y44450D01*
X172720Y44450D01*
D18*
X172720Y44450D03*
X113030Y44450D03*
D20*
X105410Y44450D01*
X96520Y53340D01*
X96520Y99060D01*
X133642Y130920D02*
X158640Y130920D01*
X158750Y130810D01*
D18*
X158750Y130810D03*
X179070Y113030D03*
D20*
X215900Y76200D01*
X215900Y12700D01*
X120142Y122720D02*
X83350Y122720D01*
X82550Y121920D01*
D18*
X82550Y121920D03*
X82550Y101600D03*
D20*
X82550Y84700D01*
X89290Y84700D01*
X91440Y82550D02*
X91440Y40640D01*
X101600Y30480D01*
D18*
X115570Y30480D03*
D20*
X91440Y82550D02*
X89290Y84700D01*
X101600Y30480D02*
X115570Y30480D01*
M02*
