M48
;GenerationSoftware,Autodesk,EAGLE,9.6.2*%
;CreationDate,2021-12-09T19:34:18Z*%
FMAT,2
ICI,OFF
METRIC,TZ,000.000
T3C0.305
T2C1.016
T1C3.048
%
G90
M71
T1
X22860Y22860
X2540Y22860
X2540Y2540
T2
X16510Y1270
X8890Y1270
X6350Y1270
X11430Y1270
X13970Y1270
X24130Y1270
X21590Y1270
X19050Y1270
T3
X17399Y3556
X10795Y3683
X2794Y13843
X19050Y11176
X20066Y4191
X19050Y7366
X17018Y5334
X14859Y5334
X11176Y5334
X2032Y13335
X6985Y6477
X13335Y9652
X18923Y6477
X13335Y15494
X12065Y15494
X16256Y3810
X6858Y10033
X4191Y16510
X10160Y7620
X14986Y8382
X20701Y3302
X17145Y10795
X15240Y12584
X9652Y12954
X9652Y9906
X17272Y4445
X11303Y4445
X15875Y13081
X17907Y11303
X8255Y12192
X6350Y14224
X11557Y3048
X20193Y16383
X22733Y19050
X4953Y16256
X9525Y13970
X12319Y3810
X8890Y12954
X10668Y9906
X15748Y14097
X18415Y10033
X14859Y9779
X8255Y10160
M30