G04 EAGLE Gerber RS-274X export*
G75*
%MOMM*%
%FSLAX34Y34*%
%LPD*%
%INSilkscreen Bottom*%
%IPPOS*%
%AMOC8*
5,1,8,0,0,1.08239X$1,22.5*%
G01*
%ADD10C,0.203200*%

G36*
X68547Y20487D02*
X68547Y20487D01*
X68546Y20489D01*
X68548Y20490D01*
X68648Y20990D01*
X68645Y20997D01*
X68649Y21000D01*
X68649Y53500D01*
X68645Y53506D01*
X68648Y53510D01*
X68448Y54510D01*
X68443Y54514D01*
X68446Y54518D01*
X68046Y55518D01*
X68043Y55520D01*
X68044Y55522D01*
X67844Y55922D01*
X67838Y55925D01*
X67839Y55930D01*
X67539Y56330D01*
X67534Y56331D01*
X67535Y56335D01*
X66835Y57035D01*
X66830Y57036D01*
X66830Y57039D01*
X66430Y57339D01*
X66426Y57339D01*
X66425Y57342D01*
X65925Y57642D01*
X65922Y57642D01*
X65922Y57644D01*
X65522Y57844D01*
X65519Y57843D01*
X65518Y57846D01*
X65018Y58046D01*
X65012Y58044D01*
X65010Y58048D01*
X64010Y58248D01*
X64003Y58245D01*
X64000Y58249D01*
X63000Y58249D01*
X62994Y58245D01*
X62990Y58248D01*
X61990Y58048D01*
X61986Y58043D01*
X61982Y58046D01*
X60982Y57646D01*
X60977Y57638D01*
X60970Y57639D01*
X59770Y56739D01*
X59768Y56730D01*
X59761Y56730D01*
X59161Y55930D01*
X59161Y55920D01*
X59154Y55918D01*
X58955Y55420D01*
X58756Y55022D01*
X58757Y55019D01*
X58754Y55018D01*
X58554Y54518D01*
X58556Y54512D01*
X58552Y54510D01*
X58352Y53510D01*
X58355Y53503D01*
X58351Y53500D01*
X58351Y20600D01*
X58387Y20553D01*
X58389Y20554D01*
X58390Y20552D01*
X58890Y20452D01*
X58897Y20455D01*
X58900Y20451D01*
X68500Y20451D01*
X68547Y20487D01*
G37*
G36*
X245176Y98928D02*
X245176Y98928D01*
X245242Y98933D01*
X245260Y98944D01*
X245281Y98949D01*
X245366Y99009D01*
X245390Y99023D01*
X245393Y99028D01*
X245398Y99032D01*
X247598Y101332D01*
X247606Y101345D01*
X247619Y101355D01*
X247650Y101419D01*
X247686Y101481D01*
X247687Y101497D01*
X247694Y101511D01*
X247693Y101582D01*
X247699Y101653D01*
X247693Y101668D01*
X247692Y101684D01*
X247635Y101809D01*
X247633Y101813D01*
X247633Y101814D01*
X245765Y104429D01*
X245767Y104440D01*
X245776Y104453D01*
X245787Y104511D01*
X245796Y104532D01*
X245796Y104554D01*
X245802Y104587D01*
X245803Y104592D01*
X245803Y104593D01*
X245803Y104594D01*
X245803Y104604D01*
X245836Y104669D01*
X245892Y104726D01*
X245903Y104744D01*
X245915Y104753D01*
X245923Y104772D01*
X245963Y104824D01*
X246036Y104969D01*
X246092Y105026D01*
X246132Y105090D01*
X246176Y105153D01*
X246178Y105165D01*
X246183Y105173D01*
X246187Y105208D01*
X246203Y105294D01*
X246203Y105343D01*
X246232Y105390D01*
X246276Y105453D01*
X246278Y105465D01*
X246283Y105473D01*
X246287Y105508D01*
X246303Y105594D01*
X246303Y105704D01*
X246336Y105769D01*
X246392Y105826D01*
X246432Y105890D01*
X246476Y105953D01*
X246478Y105965D01*
X246483Y105973D01*
X246487Y106008D01*
X246493Y106041D01*
X246496Y106049D01*
X246496Y106057D01*
X246503Y106094D01*
X246503Y106143D01*
X246532Y106190D01*
X246576Y106253D01*
X246578Y106265D01*
X246583Y106273D01*
X246587Y106308D01*
X246603Y106394D01*
X246603Y106504D01*
X246632Y106562D01*
X249888Y107120D01*
X249906Y107127D01*
X249925Y107128D01*
X249985Y107161D01*
X250047Y107187D01*
X250060Y107202D01*
X250077Y107211D01*
X250116Y107267D01*
X250160Y107318D01*
X250165Y107337D01*
X250176Y107353D01*
X250198Y107464D01*
X250203Y107486D01*
X250202Y107490D01*
X250203Y107494D01*
X250203Y110694D01*
X250199Y110713D01*
X250201Y110732D01*
X250190Y110766D01*
X250189Y110773D01*
X250184Y110783D01*
X250179Y110796D01*
X250164Y110862D01*
X250151Y110877D01*
X250145Y110895D01*
X250097Y110943D01*
X250054Y110996D01*
X250036Y111003D01*
X250022Y111017D01*
X249916Y111057D01*
X249896Y111066D01*
X249892Y111066D01*
X249888Y111068D01*
X246676Y111618D01*
X246665Y111657D01*
X246664Y111662D01*
X246663Y111663D01*
X246603Y111783D01*
X246603Y111794D01*
X246600Y111809D01*
X246602Y111825D01*
X246582Y111895D01*
X246582Y111910D01*
X246574Y111924D01*
X246565Y111957D01*
X246564Y111962D01*
X246563Y111963D01*
X246503Y112083D01*
X246503Y112094D01*
X246500Y112109D01*
X246502Y112125D01*
X246465Y112257D01*
X246464Y112262D01*
X246463Y112263D01*
X246303Y112583D01*
X246303Y112594D01*
X246300Y112609D01*
X246302Y112625D01*
X246265Y112757D01*
X246264Y112762D01*
X246263Y112763D01*
X246163Y112963D01*
X246140Y112991D01*
X246103Y113045D01*
X246103Y113094D01*
X246086Y113168D01*
X246072Y113243D01*
X246066Y113253D01*
X246064Y113262D01*
X246041Y113290D01*
X245992Y113362D01*
X245936Y113418D01*
X245863Y113563D01*
X245840Y113591D01*
X245803Y113645D01*
X245803Y113694D01*
X245786Y113768D01*
X245782Y113790D01*
X247636Y116478D01*
X247642Y116494D01*
X247654Y116507D01*
X247674Y116574D01*
X247699Y116639D01*
X247698Y116657D01*
X247703Y116673D01*
X247690Y116742D01*
X247684Y116812D01*
X247675Y116826D01*
X247672Y116843D01*
X247601Y116949D01*
X247594Y116960D01*
X247593Y116960D01*
X247592Y116962D01*
X245392Y119162D01*
X245378Y119171D01*
X245367Y119185D01*
X245305Y119216D01*
X245245Y119253D01*
X245228Y119255D01*
X245213Y119262D01*
X245143Y119263D01*
X245073Y119269D01*
X245057Y119263D01*
X245040Y119263D01*
X244922Y119212D01*
X244911Y119208D01*
X244910Y119207D01*
X244909Y119206D01*
X242210Y117344D01*
X242192Y117362D01*
X242127Y117402D01*
X242065Y117446D01*
X242053Y117448D01*
X242045Y117453D01*
X242010Y117456D01*
X241924Y117473D01*
X241874Y117473D01*
X241862Y117481D01*
X241794Y117533D01*
X241649Y117605D01*
X241592Y117662D01*
X241527Y117702D01*
X241465Y117746D01*
X241453Y117748D01*
X241445Y117753D01*
X241410Y117756D01*
X241324Y117773D01*
X241274Y117773D01*
X241262Y117781D01*
X241194Y117833D01*
X240994Y117933D01*
X240978Y117937D01*
X240965Y117946D01*
X240831Y117972D01*
X240825Y117973D01*
X240824Y117973D01*
X240814Y117973D01*
X240694Y118033D01*
X240678Y118037D01*
X240665Y118046D01*
X240531Y118072D01*
X240525Y118073D01*
X240524Y118073D01*
X240474Y118073D01*
X240427Y118102D01*
X240365Y118146D01*
X240353Y118148D01*
X240345Y118153D01*
X240310Y118156D01*
X240224Y118173D01*
X240114Y118173D01*
X240056Y118202D01*
X239498Y121458D01*
X239490Y121476D01*
X239489Y121495D01*
X239457Y121554D01*
X239430Y121617D01*
X239416Y121630D01*
X239406Y121647D01*
X239351Y121686D01*
X239299Y121730D01*
X239280Y121735D01*
X239265Y121746D01*
X239154Y121767D01*
X239132Y121773D01*
X239128Y121772D01*
X239124Y121773D01*
X235924Y121773D01*
X235905Y121769D01*
X235886Y121771D01*
X235822Y121749D01*
X235756Y121733D01*
X235741Y121721D01*
X235722Y121715D01*
X235675Y121667D01*
X235622Y121623D01*
X235614Y121606D01*
X235601Y121592D01*
X235561Y121486D01*
X235552Y121465D01*
X235552Y121462D01*
X235550Y121458D01*
X235000Y118246D01*
X234961Y118235D01*
X234956Y118233D01*
X234955Y118233D01*
X234954Y118233D01*
X234834Y118173D01*
X234824Y118173D01*
X234808Y118169D01*
X234792Y118172D01*
X234661Y118135D01*
X234656Y118133D01*
X234655Y118133D01*
X234654Y118133D01*
X234534Y118073D01*
X234524Y118073D01*
X234508Y118069D01*
X234492Y118072D01*
X234361Y118035D01*
X234356Y118033D01*
X234355Y118033D01*
X234354Y118033D01*
X234234Y117973D01*
X234124Y117973D01*
X234050Y117956D01*
X233974Y117942D01*
X233965Y117936D01*
X233956Y117933D01*
X233928Y117911D01*
X233856Y117862D01*
X233799Y117805D01*
X233734Y117773D01*
X233724Y117773D01*
X233708Y117769D01*
X233692Y117772D01*
X233561Y117735D01*
X233556Y117733D01*
X233555Y117733D01*
X233554Y117733D01*
X233354Y117633D01*
X233327Y117610D01*
X233256Y117562D01*
X233199Y117505D01*
X233134Y117473D01*
X233124Y117473D01*
X233108Y117469D01*
X233092Y117472D01*
X232961Y117435D01*
X232956Y117433D01*
X232955Y117433D01*
X232954Y117433D01*
X232813Y117362D01*
X230139Y119206D01*
X230127Y119211D01*
X230118Y119220D01*
X230047Y119242D01*
X229978Y119269D01*
X229965Y119268D01*
X229953Y119272D01*
X229880Y119260D01*
X229806Y119254D01*
X229795Y119247D01*
X229782Y119245D01*
X229662Y119168D01*
X227362Y116968D01*
X227348Y116946D01*
X227328Y116930D01*
X227301Y116874D01*
X227267Y116823D01*
X227264Y116797D01*
X227253Y116774D01*
X227254Y116712D01*
X227247Y116651D01*
X227256Y116627D01*
X227256Y116601D01*
X227294Y116521D01*
X227305Y116488D01*
X227312Y116482D01*
X227317Y116471D01*
X229252Y113798D01*
X229212Y113718D01*
X229156Y113662D01*
X229116Y113597D01*
X229072Y113534D01*
X229070Y113523D01*
X229065Y113515D01*
X229061Y113480D01*
X229045Y113394D01*
X229045Y113344D01*
X229037Y113331D01*
X228985Y113263D01*
X228912Y113118D01*
X228856Y113062D01*
X228816Y112997D01*
X228772Y112934D01*
X228770Y112923D01*
X228765Y112915D01*
X228761Y112880D01*
X228745Y112794D01*
X228745Y112744D01*
X228716Y112697D01*
X228672Y112634D01*
X228670Y112623D01*
X228665Y112615D01*
X228661Y112580D01*
X228645Y112494D01*
X228645Y112383D01*
X228612Y112318D01*
X228556Y112262D01*
X228516Y112197D01*
X228472Y112134D01*
X228470Y112123D01*
X228465Y112115D01*
X228461Y112080D01*
X228445Y111994D01*
X228445Y111944D01*
X228416Y111897D01*
X228372Y111834D01*
X228370Y111823D01*
X228365Y111815D01*
X228361Y111780D01*
X228345Y111694D01*
X228345Y111615D01*
X225062Y111068D01*
X225043Y111060D01*
X225023Y111059D01*
X224964Y111027D01*
X224902Y111001D01*
X224889Y110986D01*
X224871Y110976D01*
X224833Y110921D01*
X224789Y110871D01*
X224783Y110851D01*
X224772Y110834D01*
X224756Y110753D01*
X224752Y110743D01*
X224752Y110732D01*
X224751Y110728D01*
X224745Y110703D01*
X224746Y110699D01*
X224745Y110694D01*
X224745Y107494D01*
X224749Y107475D01*
X224747Y107456D01*
X224769Y107391D01*
X224784Y107325D01*
X224797Y107310D01*
X224803Y107292D01*
X224851Y107244D01*
X224894Y107192D01*
X224912Y107184D01*
X224926Y107170D01*
X225032Y107130D01*
X225052Y107121D01*
X225056Y107121D01*
X225060Y107120D01*
X228348Y106556D01*
X228383Y106431D01*
X228384Y106425D01*
X228385Y106425D01*
X228385Y106424D01*
X228445Y106304D01*
X228445Y106294D01*
X228448Y106278D01*
X228446Y106262D01*
X228483Y106131D01*
X228484Y106125D01*
X228485Y106125D01*
X228485Y106124D01*
X228545Y106004D01*
X228545Y105994D01*
X228548Y105978D01*
X228546Y105962D01*
X228583Y105831D01*
X228584Y105825D01*
X228585Y105825D01*
X228585Y105824D01*
X228745Y105504D01*
X228745Y105494D01*
X228748Y105478D01*
X228746Y105462D01*
X228783Y105331D01*
X228784Y105325D01*
X228785Y105325D01*
X228785Y105324D01*
X228885Y105124D01*
X228908Y105096D01*
X228956Y105026D01*
X229012Y104969D01*
X229045Y104904D01*
X229045Y104894D01*
X229048Y104878D01*
X229046Y104862D01*
X229083Y104731D01*
X229084Y104725D01*
X229085Y104725D01*
X229085Y104724D01*
X229185Y104524D01*
X229208Y104496D01*
X229256Y104426D01*
X229266Y104415D01*
X227321Y101821D01*
X227311Y101799D01*
X227294Y101780D01*
X227276Y101720D01*
X227251Y101663D01*
X227252Y101638D01*
X227245Y101614D01*
X227256Y101553D01*
X227259Y101490D01*
X227271Y101468D01*
X227276Y101444D01*
X227327Y101369D01*
X227343Y101339D01*
X227350Y101334D01*
X227356Y101326D01*
X229656Y99026D01*
X229670Y99017D01*
X229681Y99003D01*
X229743Y98971D01*
X229803Y98934D01*
X229820Y98933D01*
X229835Y98925D01*
X229906Y98925D01*
X229975Y98918D01*
X229991Y98924D01*
X230008Y98924D01*
X230126Y98976D01*
X230137Y98980D01*
X230138Y98981D01*
X230139Y98981D01*
X232838Y100843D01*
X232856Y100826D01*
X232921Y100785D01*
X232983Y100741D01*
X232995Y100739D01*
X233003Y100734D01*
X233038Y100731D01*
X233053Y100728D01*
X233056Y100726D01*
X233121Y100685D01*
X233183Y100641D01*
X233195Y100639D01*
X233203Y100634D01*
X233238Y100631D01*
X233324Y100614D01*
X233374Y100614D01*
X233421Y100585D01*
X233483Y100541D01*
X233495Y100539D01*
X233503Y100534D01*
X233538Y100531D01*
X233553Y100528D01*
X233556Y100526D01*
X233621Y100485D01*
X233683Y100441D01*
X233695Y100439D01*
X233703Y100434D01*
X233738Y100431D01*
X233753Y100428D01*
X233756Y100426D01*
X233821Y100385D01*
X233883Y100341D01*
X233895Y100339D01*
X233903Y100334D01*
X233938Y100331D01*
X233967Y100325D01*
X233994Y100292D01*
X234013Y100284D01*
X234028Y100269D01*
X234091Y100249D01*
X234152Y100221D01*
X234173Y100222D01*
X234192Y100216D01*
X234258Y100226D01*
X234325Y100228D01*
X234343Y100238D01*
X234363Y100241D01*
X234418Y100279D01*
X234477Y100311D01*
X234489Y100328D01*
X234505Y100340D01*
X234562Y100432D01*
X234576Y100453D01*
X234577Y100458D01*
X234580Y100462D01*
X236580Y105862D01*
X236584Y105893D01*
X236596Y105921D01*
X236594Y105977D01*
X236601Y106034D01*
X236591Y106063D01*
X236590Y106094D01*
X236563Y106144D01*
X236544Y106197D01*
X236522Y106219D01*
X236507Y106246D01*
X236447Y106292D01*
X236420Y106318D01*
X236407Y106322D01*
X236394Y106333D01*
X235849Y106605D01*
X235692Y106762D01*
X235662Y106781D01*
X235594Y106833D01*
X235449Y106905D01*
X235136Y107218D01*
X235063Y107363D01*
X235040Y107391D01*
X234992Y107462D01*
X234836Y107618D01*
X234775Y107739D01*
X234684Y108014D01*
X234672Y108033D01*
X234663Y108063D01*
X234603Y108183D01*
X234603Y108294D01*
X234595Y108329D01*
X234584Y108414D01*
X234503Y108655D01*
X234503Y109432D01*
X234584Y109674D01*
X234587Y109710D01*
X234603Y109794D01*
X234603Y109979D01*
X234740Y110183D01*
X234753Y110218D01*
X234784Y110274D01*
X234868Y110526D01*
X235219Y111052D01*
X235566Y111399D01*
X236092Y111750D01*
X236344Y111834D01*
X236362Y111845D01*
X236376Y111848D01*
X236389Y111859D01*
X236434Y111878D01*
X236639Y112014D01*
X236824Y112014D01*
X236859Y112023D01*
X236944Y112034D01*
X237186Y112114D01*
X237777Y112114D01*
X238132Y112026D01*
X238168Y112025D01*
X238224Y112014D01*
X238409Y112014D01*
X238614Y111878D01*
X238649Y111865D01*
X238698Y111837D01*
X238700Y111836D01*
X238701Y111836D01*
X238704Y111834D01*
X238956Y111750D01*
X239183Y111599D01*
X239356Y111426D01*
X239382Y111409D01*
X239414Y111378D01*
X239683Y111199D01*
X239829Y111052D01*
X240180Y110526D01*
X240545Y109432D01*
X240545Y108955D01*
X240464Y108714D01*
X240461Y108678D01*
X240445Y108594D01*
X240445Y108383D01*
X240285Y108063D01*
X240279Y108041D01*
X240264Y108014D01*
X240173Y107739D01*
X240012Y107418D01*
X239856Y107262D01*
X239837Y107231D01*
X239785Y107163D01*
X239712Y107018D01*
X239599Y106905D01*
X239454Y106833D01*
X239427Y106810D01*
X239356Y106762D01*
X239199Y106605D01*
X238878Y106445D01*
X238604Y106353D01*
X238555Y106323D01*
X238502Y106301D01*
X238482Y106279D01*
X238457Y106263D01*
X238426Y106214D01*
X238389Y106171D01*
X238381Y106142D01*
X238365Y106116D01*
X238359Y106059D01*
X238345Y106003D01*
X238351Y105969D01*
X238348Y105944D01*
X238360Y105912D01*
X238368Y105862D01*
X240368Y100462D01*
X240394Y100424D01*
X240410Y100381D01*
X240441Y100353D01*
X240464Y100318D01*
X240504Y100295D01*
X240537Y100264D01*
X240577Y100252D01*
X240614Y100231D01*
X240659Y100228D01*
X240703Y100215D01*
X240744Y100222D01*
X240786Y100220D01*
X240829Y100237D01*
X240874Y100245D01*
X240915Y100273D01*
X240946Y100286D01*
X240963Y100306D01*
X240976Y100314D01*
X241024Y100314D01*
X241098Y100332D01*
X241174Y100345D01*
X241183Y100352D01*
X241192Y100354D01*
X241220Y100377D01*
X241292Y100426D01*
X241299Y100432D01*
X241374Y100445D01*
X241383Y100452D01*
X241392Y100454D01*
X241420Y100477D01*
X241492Y100526D01*
X241499Y100532D01*
X241574Y100545D01*
X241583Y100552D01*
X241592Y100554D01*
X241620Y100577D01*
X241692Y100626D01*
X241699Y100632D01*
X241774Y100645D01*
X241783Y100652D01*
X241792Y100654D01*
X241820Y100677D01*
X241892Y100726D01*
X241899Y100732D01*
X241974Y100745D01*
X241983Y100752D01*
X241992Y100754D01*
X242020Y100777D01*
X242092Y100826D01*
X242099Y100832D01*
X242174Y100845D01*
X242183Y100852D01*
X242192Y100854D01*
X242193Y100854D01*
X244909Y98981D01*
X244929Y98974D01*
X244945Y98960D01*
X245008Y98942D01*
X245070Y98918D01*
X245091Y98920D01*
X245112Y98915D01*
X245176Y98928D01*
G37*
G36*
X169916Y20153D02*
X169916Y20153D01*
X169927Y20149D01*
X170227Y20349D01*
X170233Y20366D01*
X170243Y20374D01*
X170238Y20380D01*
X170239Y20382D01*
X170249Y20390D01*
X170249Y46290D01*
X170245Y46296D01*
X170248Y46300D01*
X170048Y47300D01*
X170043Y47304D01*
X170046Y47308D01*
X169846Y47808D01*
X169843Y47810D01*
X169844Y47812D01*
X169644Y48212D01*
X169641Y48213D01*
X169642Y48215D01*
X169342Y48715D01*
X169339Y48717D01*
X169339Y48720D01*
X168739Y49520D01*
X168730Y49522D01*
X168730Y49529D01*
X167530Y50429D01*
X167520Y50429D01*
X167518Y50436D01*
X167018Y50636D01*
X167012Y50634D01*
X167010Y50638D01*
X165510Y50938D01*
X165503Y50935D01*
X165500Y50939D01*
X164500Y50939D01*
X164494Y50935D01*
X164490Y50938D01*
X163490Y50738D01*
X163484Y50731D01*
X163478Y50734D01*
X163080Y50535D01*
X162582Y50336D01*
X162577Y50328D01*
X162570Y50329D01*
X161770Y49729D01*
X161769Y49724D01*
X161765Y49725D01*
X161065Y49025D01*
X161064Y49016D01*
X161058Y49015D01*
X160759Y48518D01*
X160461Y48120D01*
X160461Y48110D01*
X160454Y48108D01*
X160254Y47608D01*
X160256Y47603D01*
X160252Y47602D01*
X160152Y47202D01*
X160153Y47200D01*
X160152Y47200D01*
X159952Y46200D01*
X159955Y46193D01*
X159951Y46190D01*
X159951Y45890D01*
X159974Y45860D01*
X159975Y45847D01*
X160004Y45831D01*
X159964Y45824D01*
X159968Y45803D01*
X159951Y45790D01*
X159951Y20490D01*
X159963Y20474D01*
X159959Y20463D01*
X160159Y20163D01*
X160192Y20151D01*
X160200Y20141D01*
X169900Y20141D01*
X169916Y20153D01*
G37*
G36*
X119447Y20077D02*
X119447Y20077D01*
X119442Y20084D01*
X119449Y20090D01*
X119449Y47990D01*
X119445Y47996D01*
X119448Y48000D01*
X119348Y48500D01*
X119304Y48539D01*
X119302Y48537D01*
X119300Y48539D01*
X109200Y48539D01*
X109153Y48503D01*
X109158Y48496D01*
X109151Y48490D01*
X109151Y45990D01*
X109172Y45963D01*
X109172Y45949D01*
X109202Y45929D01*
X109168Y45928D01*
X109170Y45904D01*
X109151Y45890D01*
X109151Y20090D01*
X109187Y20043D01*
X109194Y20048D01*
X109200Y20041D01*
X119400Y20041D01*
X119447Y20077D01*
G37*
G36*
X64876Y106615D02*
X64876Y106615D01*
X64880Y106612D01*
X65380Y106712D01*
X65408Y106744D01*
X65410Y106745D01*
X65410Y106746D01*
X65419Y106756D01*
X65417Y106758D01*
X65419Y106760D01*
X65419Y116360D01*
X65415Y116366D01*
X65418Y116370D01*
X65318Y116870D01*
X65274Y116909D01*
X65272Y116907D01*
X65270Y116909D01*
X40970Y116909D01*
X40964Y116905D01*
X40960Y116908D01*
X39960Y116708D01*
X39956Y116703D01*
X39952Y116706D01*
X39452Y116506D01*
X39450Y116503D01*
X39448Y116504D01*
X39050Y116305D01*
X38552Y116106D01*
X38547Y116098D01*
X38540Y116099D01*
X38140Y115799D01*
X38139Y115794D01*
X38135Y115795D01*
X37435Y115095D01*
X37434Y115086D01*
X37428Y115085D01*
X37129Y114588D01*
X36831Y114190D01*
X36831Y114183D01*
X36826Y114182D01*
X36626Y113782D01*
X36627Y113779D01*
X36624Y113778D01*
X36424Y113278D01*
X36425Y113275D01*
X36422Y113273D01*
X36424Y113271D01*
X36422Y113270D01*
X36222Y112270D01*
X36225Y112263D01*
X36221Y112260D01*
X36221Y111260D01*
X36225Y111254D01*
X36222Y111250D01*
X36422Y110250D01*
X36427Y110246D01*
X36424Y110242D01*
X36824Y109242D01*
X36832Y109237D01*
X36831Y109230D01*
X37431Y108430D01*
X37436Y108429D01*
X37435Y108425D01*
X38135Y107725D01*
X38144Y107724D01*
X38145Y107718D01*
X38645Y107418D01*
X38648Y107418D01*
X38648Y107416D01*
X39048Y107216D01*
X39051Y107217D01*
X39052Y107214D01*
X39550Y107015D01*
X39948Y106816D01*
X39957Y106818D01*
X39960Y106812D01*
X40960Y106612D01*
X40967Y106615D01*
X40970Y106611D01*
X64870Y106611D01*
X64876Y106615D01*
G37*
G36*
X144847Y20377D02*
X144847Y20377D01*
X144842Y20384D01*
X144849Y20390D01*
X144849Y47890D01*
X144837Y47906D01*
X144841Y47917D01*
X144641Y48217D01*
X144608Y48229D01*
X144600Y48239D01*
X135000Y48239D01*
X134993Y48234D01*
X134988Y48238D01*
X134588Y48138D01*
X134551Y48091D01*
X134552Y48091D01*
X134551Y48090D01*
X134551Y20790D01*
X134556Y20783D01*
X134552Y20778D01*
X134652Y20378D01*
X134699Y20341D01*
X134699Y20342D01*
X134700Y20341D01*
X144800Y20341D01*
X144847Y20377D01*
G37*
G36*
X195547Y20007D02*
X195547Y20007D01*
X195547Y20008D01*
X195548Y20008D01*
X195648Y20408D01*
X195644Y20416D01*
X195649Y20420D01*
X195649Y43720D01*
X195645Y43726D01*
X195648Y43730D01*
X195348Y45230D01*
X195343Y45234D01*
X195346Y45238D01*
X195146Y45738D01*
X195138Y45743D01*
X195139Y45750D01*
X194841Y46148D01*
X194542Y46645D01*
X194539Y46647D01*
X194539Y46650D01*
X194239Y47050D01*
X194234Y47051D01*
X194235Y47055D01*
X193935Y47355D01*
X193930Y47356D01*
X193930Y47359D01*
X193530Y47659D01*
X193526Y47659D01*
X193525Y47662D01*
X193025Y47962D01*
X193022Y47962D01*
X193022Y47964D01*
X192622Y48164D01*
X192619Y48163D01*
X192618Y48166D01*
X192118Y48366D01*
X192112Y48364D01*
X192110Y48368D01*
X190610Y48668D01*
X190603Y48665D01*
X190600Y48669D01*
X190100Y48669D01*
X190094Y48665D01*
X190090Y48668D01*
X189090Y48468D01*
X189086Y48463D01*
X189082Y48466D01*
X188582Y48266D01*
X188580Y48263D01*
X188578Y48264D01*
X188178Y48064D01*
X188177Y48061D01*
X188175Y48062D01*
X187675Y47762D01*
X187673Y47759D01*
X187670Y47759D01*
X186870Y47159D01*
X186868Y47150D01*
X186861Y47150D01*
X185961Y45950D01*
X185961Y45942D01*
X185957Y45939D01*
X185954Y45938D01*
X185554Y44938D01*
X185556Y44933D01*
X185552Y44932D01*
X185452Y44532D01*
X185453Y44529D01*
X185451Y44528D01*
X185351Y43928D01*
X185354Y43923D01*
X185351Y43920D01*
X185351Y20120D01*
X185387Y20073D01*
X185388Y20073D01*
X185388Y20072D01*
X185788Y19972D01*
X185796Y19976D01*
X185800Y19971D01*
X195500Y19971D01*
X195547Y20007D01*
G37*
G36*
X162966Y60785D02*
X162966Y60785D01*
X162970Y60782D01*
X163970Y60982D01*
X163974Y60987D01*
X163978Y60984D01*
X164978Y61384D01*
X164983Y61392D01*
X164990Y61391D01*
X166190Y62291D01*
X166192Y62300D01*
X166199Y62300D01*
X167099Y63500D01*
X167099Y63510D01*
X167106Y63512D01*
X167506Y64512D01*
X167504Y64518D01*
X167508Y64520D01*
X167708Y65520D01*
X167705Y65527D01*
X167709Y65530D01*
X167709Y84330D01*
X167705Y84336D01*
X167708Y84340D01*
X167508Y85340D01*
X167501Y85346D01*
X167504Y85352D01*
X167305Y85750D01*
X167106Y86248D01*
X167103Y86250D01*
X167104Y86252D01*
X166904Y86652D01*
X166901Y86653D01*
X166902Y86655D01*
X166602Y87155D01*
X166590Y87160D01*
X166590Y87169D01*
X166195Y87465D01*
X165899Y87860D01*
X165890Y87862D01*
X165890Y87869D01*
X165490Y88169D01*
X165480Y88169D01*
X165478Y88176D01*
X164984Y88373D01*
X164590Y88669D01*
X164574Y88669D01*
X164570Y88678D01*
X164074Y88777D01*
X163578Y88976D01*
X163565Y88972D01*
X163560Y88979D01*
X163065Y88979D01*
X162570Y89078D01*
X162557Y89072D01*
X162550Y89078D01*
X162055Y88979D01*
X161560Y88979D01*
X161549Y88971D01*
X161542Y88976D01*
X161046Y88777D01*
X160550Y88678D01*
X160544Y88671D01*
X160538Y88674D01*
X160138Y88474D01*
X160137Y88471D01*
X160135Y88472D01*
X159635Y88172D01*
X159633Y88169D01*
X159630Y88169D01*
X159230Y87869D01*
X159228Y87860D01*
X159221Y87860D01*
X158925Y87465D01*
X158530Y87169D01*
X158527Y87156D01*
X158518Y87155D01*
X158218Y86655D01*
X158218Y86652D01*
X158216Y86652D01*
X158016Y86252D01*
X158017Y86249D01*
X158014Y86248D01*
X157815Y85750D01*
X157616Y85352D01*
X157618Y85343D01*
X157612Y85340D01*
X157412Y84340D01*
X157413Y84336D01*
X157415Y84333D01*
X157411Y84330D01*
X157411Y65630D01*
X157415Y65624D01*
X157412Y65620D01*
X157712Y64120D01*
X157719Y64114D01*
X157716Y64108D01*
X157916Y63708D01*
X157919Y63707D01*
X157918Y63705D01*
X158218Y63205D01*
X158221Y63203D01*
X158221Y63200D01*
X158821Y62400D01*
X158830Y62398D01*
X158830Y62391D01*
X160030Y61491D01*
X160040Y61491D01*
X160042Y61484D01*
X160540Y61285D01*
X160938Y61086D01*
X160941Y61087D01*
X160942Y61084D01*
X161442Y60884D01*
X161455Y60888D01*
X161460Y60881D01*
X161955Y60881D01*
X162450Y60782D01*
X162457Y60785D01*
X162460Y60781D01*
X162960Y60781D01*
X162966Y60785D01*
G37*
G36*
X93947Y20807D02*
X93947Y20807D01*
X93947Y20808D01*
X93948Y20808D01*
X94048Y21208D01*
X94044Y21216D01*
X94049Y21220D01*
X94049Y47620D01*
X94013Y47667D01*
X94006Y47662D01*
X94000Y47669D01*
X93700Y47669D01*
X93689Y47661D01*
X93684Y47661D01*
X93678Y47664D01*
X89088Y45369D01*
X88712Y45369D01*
X84122Y47664D01*
X84107Y47661D01*
X84106Y47661D01*
X84100Y47669D01*
X83800Y47669D01*
X83753Y47633D01*
X83756Y47628D01*
X83753Y47625D01*
X83754Y47623D01*
X83751Y47620D01*
X83751Y20920D01*
X83787Y20873D01*
X83789Y20874D01*
X83790Y20872D01*
X84290Y20772D01*
X84297Y20775D01*
X84300Y20771D01*
X93900Y20771D01*
X93947Y20807D01*
G37*
G36*
X241985Y46412D02*
X241985Y46412D01*
X242011Y46413D01*
X242065Y46443D01*
X242123Y46465D01*
X242140Y46484D01*
X242163Y46496D01*
X242198Y46547D01*
X242240Y46592D01*
X242248Y46617D01*
X242263Y46638D01*
X242279Y46722D01*
X242290Y46758D01*
X242288Y46768D01*
X242290Y46780D01*
X242290Y60480D01*
X242286Y60500D01*
X242287Y60527D01*
X242187Y61327D01*
X242179Y61351D01*
X242176Y61384D01*
X241976Y62084D01*
X241957Y62118D01*
X241936Y62176D01*
X241336Y63176D01*
X241316Y63196D01*
X241248Y63277D01*
X240748Y63677D01*
X240743Y63679D01*
X240738Y63684D01*
X240338Y63984D01*
X240303Y63999D01*
X240251Y64033D01*
X239751Y64233D01*
X239722Y64237D01*
X239685Y64253D01*
X239185Y64353D01*
X239179Y64353D01*
X239173Y64355D01*
X238573Y64455D01*
X238546Y64453D01*
X238510Y64460D01*
X237310Y64460D01*
X237295Y64457D01*
X237280Y64459D01*
X237148Y64422D01*
X237141Y64421D01*
X237141Y64420D01*
X237140Y64420D01*
X236764Y64232D01*
X236740Y64220D01*
X236721Y64204D01*
X236697Y64195D01*
X236655Y64149D01*
X236607Y64109D01*
X236597Y64087D01*
X236580Y64068D01*
X236562Y64008D01*
X236536Y63951D01*
X236538Y63926D01*
X236530Y63902D01*
X236541Y63840D01*
X236544Y63778D01*
X236556Y63756D01*
X236560Y63731D01*
X236609Y63658D01*
X236627Y63626D01*
X236635Y63621D01*
X236641Y63611D01*
X236741Y63511D01*
X236773Y63491D01*
X236840Y63440D01*
X237240Y63240D01*
X237263Y63234D01*
X237290Y63219D01*
X237505Y63148D01*
X237978Y62675D01*
X238030Y62518D01*
X238030Y62242D01*
X237965Y62049D01*
X237815Y61822D01*
X237296Y61304D01*
X236901Y61146D01*
X236472Y61060D01*
X235757Y61060D01*
X235066Y61233D01*
X234570Y61564D01*
X234249Y61965D01*
X234090Y62442D01*
X234090Y63011D01*
X234337Y63669D01*
X234979Y64311D01*
X234984Y64320D01*
X234994Y64327D01*
X235794Y65227D01*
X235795Y65229D01*
X235796Y65230D01*
X236496Y66030D01*
X236512Y66059D01*
X236542Y66095D01*
X237042Y66995D01*
X237053Y67033D01*
X237081Y67098D01*
X237281Y67998D01*
X237281Y68000D01*
X237282Y68002D01*
X237281Y68031D01*
X237290Y68080D01*
X237290Y68880D01*
X237282Y68917D01*
X237271Y69000D01*
X236971Y69900D01*
X236952Y69931D01*
X236932Y69982D01*
X236432Y70782D01*
X236411Y70803D01*
X236343Y70880D01*
X235443Y71580D01*
X235419Y71591D01*
X235392Y71614D01*
X234292Y72214D01*
X234273Y72219D01*
X234259Y72229D01*
X234226Y72236D01*
X234178Y72254D01*
X233078Y72454D01*
X233049Y72453D01*
X233010Y72460D01*
X232010Y72460D01*
X231977Y72453D01*
X231928Y72451D01*
X231028Y72251D01*
X230995Y72235D01*
X230940Y72220D01*
X230934Y72217D01*
X230174Y71837D01*
X229540Y71520D01*
X229518Y71502D01*
X229482Y71484D01*
X229082Y71184D01*
X229067Y71166D01*
X229041Y71149D01*
X228941Y71049D01*
X228928Y71027D01*
X228908Y71011D01*
X228882Y70954D01*
X228850Y70902D01*
X228847Y70876D01*
X228837Y70852D01*
X228839Y70791D01*
X228833Y70729D01*
X228842Y70705D01*
X228843Y70679D01*
X228873Y70625D01*
X228895Y70567D01*
X228914Y70550D01*
X228926Y70527D01*
X228977Y70492D01*
X229022Y70450D01*
X229047Y70442D01*
X229068Y70427D01*
X229152Y70411D01*
X229188Y70400D01*
X229198Y70402D01*
X229210Y70400D01*
X229310Y70400D01*
X229325Y70403D01*
X229340Y70401D01*
X229472Y70438D01*
X229479Y70439D01*
X229479Y70440D01*
X229480Y70440D01*
X229600Y70500D01*
X230063Y70500D01*
X230418Y70411D01*
X230426Y70411D01*
X230435Y70407D01*
X230886Y70317D01*
X231209Y70155D01*
X231530Y69915D01*
X231681Y69689D01*
X231758Y69534D01*
X231830Y69318D01*
X231830Y68827D01*
X231757Y68536D01*
X231415Y68022D01*
X230860Y67468D01*
X230490Y67191D01*
X230219Y67010D01*
X229987Y66894D01*
X229877Y66839D01*
X229163Y66660D01*
X228972Y66660D01*
X228815Y66712D01*
X228623Y66905D01*
X228562Y67026D01*
X228490Y67242D01*
X228490Y68080D01*
X228478Y68131D01*
X228477Y68175D01*
X228469Y68189D01*
X228465Y68216D01*
X228455Y68231D01*
X228451Y68249D01*
X228409Y68300D01*
X228394Y68327D01*
X228386Y68332D01*
X228368Y68360D01*
X228352Y68369D01*
X228341Y68382D01*
X228277Y68411D01*
X228265Y68418D01*
X228252Y68427D01*
X228248Y68428D01*
X228217Y68445D01*
X228199Y68446D01*
X228182Y68453D01*
X228126Y68451D01*
X228110Y68454D01*
X228100Y68454D01*
X228090Y68452D01*
X228044Y68454D01*
X228025Y68447D01*
X228009Y68447D01*
X227975Y68428D01*
X227954Y68420D01*
X227932Y68415D01*
X227924Y68408D01*
X227908Y68402D01*
X227108Y67902D01*
X227081Y67875D01*
X227026Y67833D01*
X226226Y66933D01*
X226213Y66910D01*
X226189Y66884D01*
X225489Y65784D01*
X225477Y65750D01*
X225449Y65700D01*
X224949Y64200D01*
X224947Y64178D01*
X224936Y64150D01*
X224636Y62550D01*
X224638Y62514D01*
X224630Y62458D01*
X224730Y60758D01*
X224739Y60727D01*
X224742Y60683D01*
X225242Y58783D01*
X225260Y58751D01*
X225278Y58695D01*
X226278Y56895D01*
X226295Y56877D01*
X226310Y56847D01*
X227010Y55947D01*
X227026Y55933D01*
X227041Y55911D01*
X227841Y55111D01*
X227851Y55105D01*
X227860Y55094D01*
X228660Y54394D01*
X228685Y54380D01*
X228714Y54354D01*
X229714Y53754D01*
X229739Y53746D01*
X229769Y53727D01*
X230769Y53327D01*
X230788Y53324D01*
X230810Y53313D01*
X231910Y53013D01*
X231927Y53013D01*
X231948Y53005D01*
X233148Y52805D01*
X233174Y52807D01*
X233210Y52800D01*
X235079Y52800D01*
X235576Y52717D01*
X236474Y52178D01*
X237431Y51222D01*
X238621Y49833D01*
X238632Y49825D01*
X238641Y49811D01*
X239829Y48623D01*
X240318Y48037D01*
X240330Y48027D01*
X240341Y48011D01*
X240808Y47544D01*
X241084Y47084D01*
X241109Y47058D01*
X241141Y47011D01*
X241641Y46511D01*
X241663Y46498D01*
X241679Y46478D01*
X241736Y46452D01*
X241788Y46420D01*
X241814Y46417D01*
X241838Y46407D01*
X241899Y46409D01*
X241961Y46403D01*
X241985Y46412D01*
G37*
G36*
X115910Y82002D02*
X115910Y82002D01*
X115914Y82007D01*
X115918Y82004D01*
X116918Y82404D01*
X116923Y82412D01*
X116930Y82411D01*
X117730Y83011D01*
X117732Y83020D01*
X117739Y83020D01*
X118037Y83418D01*
X118435Y83815D01*
X118436Y83827D01*
X118444Y83828D01*
X118642Y84224D01*
X118939Y84620D01*
X118939Y84630D01*
X118946Y84632D01*
X119146Y85132D01*
X119145Y85134D01*
X119147Y85135D01*
X119144Y85138D01*
X119148Y85140D01*
X119448Y86640D01*
X119445Y86647D01*
X119449Y86650D01*
X119449Y105950D01*
X119428Y105978D01*
X119427Y105991D01*
X119127Y106191D01*
X119107Y106190D01*
X119100Y106199D01*
X109500Y106199D01*
X109479Y106183D01*
X109465Y106185D01*
X109165Y105885D01*
X109162Y105858D01*
X109151Y105850D01*
X109151Y86350D01*
X109155Y86344D01*
X109152Y86340D01*
X109352Y85340D01*
X109357Y85336D01*
X109354Y85332D01*
X109554Y84832D01*
X109557Y84830D01*
X109556Y84828D01*
X109756Y84428D01*
X109762Y84425D01*
X109761Y84420D01*
X110361Y83620D01*
X110366Y83619D01*
X110365Y83615D01*
X110763Y83218D01*
X111061Y82820D01*
X111070Y82818D01*
X111070Y82811D01*
X111470Y82511D01*
X111480Y82511D01*
X111482Y82504D01*
X112480Y82105D01*
X112878Y81906D01*
X112887Y81908D01*
X112890Y81902D01*
X113390Y81802D01*
X113397Y81805D01*
X113400Y81801D01*
X113895Y81801D01*
X114390Y81702D01*
X114403Y81708D01*
X114410Y81702D01*
X115910Y82002D01*
G37*
G36*
X139913Y84080D02*
X139913Y84080D01*
X139922Y84076D01*
X144522Y86376D01*
X144527Y86386D01*
X144535Y86385D01*
X144835Y86685D01*
X144838Y86710D01*
X144847Y86717D01*
X144847Y86718D01*
X144849Y86720D01*
X144849Y106520D01*
X144813Y106567D01*
X144806Y106562D01*
X144800Y106569D01*
X134700Y106569D01*
X134653Y106533D01*
X134654Y106531D01*
X134652Y106530D01*
X134552Y106030D01*
X134555Y106023D01*
X134551Y106020D01*
X134551Y104020D01*
X134582Y103979D01*
X134584Y103974D01*
X134600Y103968D01*
X134585Y103956D01*
X134558Y103946D01*
X134561Y103938D01*
X134553Y103932D01*
X134558Y103925D01*
X134551Y103920D01*
X134551Y86720D01*
X134567Y86699D01*
X134565Y86685D01*
X134865Y86385D01*
X134877Y86384D01*
X134878Y86376D01*
X139478Y84076D01*
X139494Y84079D01*
X139500Y84071D01*
X139900Y84071D01*
X139913Y84080D01*
G37*
G36*
X63739Y65108D02*
X63739Y65108D01*
X63746Y65103D01*
X64346Y65303D01*
X64359Y65323D01*
X64372Y65325D01*
X64672Y65825D01*
X64670Y65843D01*
X64679Y65850D01*
X64679Y70501D01*
X66290Y68321D01*
X66291Y68321D01*
X66291Y68320D01*
X66591Y67920D01*
X66602Y67917D01*
X66603Y67909D01*
X67203Y67509D01*
X67228Y67511D01*
X67237Y67501D01*
X67937Y67601D01*
X67950Y67614D01*
X67961Y67612D01*
X68461Y68012D01*
X68463Y68020D01*
X68469Y68020D01*
X70267Y70418D01*
X70281Y70431D01*
X70281Y65750D01*
X70292Y65735D01*
X70288Y65725D01*
X70588Y65225D01*
X70616Y65213D01*
X70623Y65201D01*
X71323Y65101D01*
X71328Y65104D01*
X71330Y65101D01*
X72130Y65101D01*
X72155Y65120D01*
X72168Y65119D01*
X72568Y65619D01*
X72569Y65627D01*
X72571Y65629D01*
X72569Y65633D01*
X72569Y65637D01*
X72579Y65642D01*
X72679Y66242D01*
X72676Y66247D01*
X72679Y66250D01*
X72679Y73750D01*
X72672Y73759D01*
X72677Y73766D01*
X72477Y74366D01*
X72457Y74379D01*
X72455Y74392D01*
X71955Y74692D01*
X71937Y74690D01*
X71930Y74699D01*
X71130Y74699D01*
X71117Y74690D01*
X71108Y74694D01*
X70508Y74394D01*
X70501Y74381D01*
X70492Y74381D01*
X70092Y73881D01*
X70092Y73880D01*
X70091Y73880D01*
X67614Y70709D01*
X67161Y70891D01*
X64469Y74480D01*
X64449Y74485D01*
X64446Y74497D01*
X63846Y74697D01*
X63831Y74692D01*
X63825Y74699D01*
X62925Y74599D01*
X62911Y74586D01*
X62900Y74589D01*
X62500Y74289D01*
X62495Y74269D01*
X62483Y74266D01*
X62283Y73666D01*
X62287Y73655D01*
X62281Y73650D01*
X62281Y66150D01*
X62287Y66142D01*
X62283Y66136D01*
X62483Y65436D01*
X62503Y65421D01*
X62505Y65408D01*
X63005Y65108D01*
X63023Y65110D01*
X63030Y65101D01*
X63730Y65101D01*
X63739Y65108D01*
G37*
G36*
X20939Y65108D02*
X20939Y65108D01*
X20946Y65103D01*
X21546Y65303D01*
X21550Y65309D01*
X21554Y65307D01*
X22254Y65707D01*
X22258Y65716D01*
X22265Y65715D01*
X22665Y66115D01*
X22665Y66119D01*
X22668Y66119D01*
X23068Y66619D01*
X23069Y66629D01*
X23075Y66631D01*
X23375Y67331D01*
X23375Y67334D01*
X23377Y67334D01*
X23577Y67934D01*
X23575Y67940D01*
X23579Y67942D01*
X23679Y68542D01*
X23678Y68543D01*
X23679Y68543D01*
X23779Y69243D01*
X23776Y69248D01*
X23779Y69250D01*
X23779Y70750D01*
X23776Y70754D01*
X23779Y70757D01*
X23679Y71457D01*
X23678Y71458D01*
X23679Y71458D01*
X23579Y72058D01*
X23575Y72061D01*
X23577Y72064D01*
X23377Y72764D01*
X23372Y72768D01*
X23374Y72772D01*
X23074Y73372D01*
X23067Y73375D01*
X23068Y73381D01*
X22672Y73877D01*
X22474Y74272D01*
X22454Y74282D01*
X22452Y74294D01*
X21252Y74894D01*
X21241Y74892D01*
X21237Y74899D01*
X20537Y74999D01*
X20532Y74996D01*
X20530Y74999D01*
X19830Y74999D01*
X19826Y74996D01*
X19823Y74999D01*
X19123Y74899D01*
X19118Y74894D01*
X19114Y74897D01*
X18514Y74697D01*
X18507Y74686D01*
X18498Y74688D01*
X17898Y74188D01*
X17898Y74184D01*
X17895Y74185D01*
X17495Y73785D01*
X17494Y73778D01*
X17489Y73777D01*
X17089Y73177D01*
X17090Y73168D01*
X17083Y73166D01*
X16883Y72566D01*
X16884Y72564D01*
X16883Y72564D01*
X16879Y72551D01*
X16837Y72403D01*
X16823Y72354D01*
X16781Y72206D01*
X16738Y72058D01*
X16724Y72009D01*
X16683Y71864D01*
X16683Y71862D01*
X16682Y71861D01*
X16684Y71859D01*
X16681Y71857D01*
X16581Y71158D01*
X16481Y70558D01*
X16484Y70553D01*
X16481Y70550D01*
X16481Y69050D01*
X16484Y69046D01*
X16481Y69043D01*
X16581Y68343D01*
X16585Y68339D01*
X16583Y68336D01*
X16783Y67636D01*
X16784Y67635D01*
X16783Y67634D01*
X16983Y67034D01*
X16990Y67030D01*
X16988Y67025D01*
X17288Y66525D01*
X17292Y66523D01*
X17292Y66519D01*
X17692Y66019D01*
X17702Y66017D01*
X17703Y66009D01*
X18303Y65609D01*
X18305Y65609D01*
X18305Y65608D01*
X18805Y65308D01*
X18814Y65309D01*
X18816Y65303D01*
X19516Y65103D01*
X19526Y65106D01*
X19530Y65101D01*
X20930Y65101D01*
X20939Y65108D01*
G37*
G36*
X39543Y65110D02*
X39543Y65110D01*
X39552Y65106D01*
X40752Y65706D01*
X40755Y65713D01*
X40761Y65712D01*
X41261Y66112D01*
X41263Y66119D01*
X41268Y66119D01*
X41668Y66619D01*
X41669Y66627D01*
X41674Y66628D01*
X41974Y67228D01*
X41973Y67235D01*
X41977Y67236D01*
X41982Y67254D01*
X41983Y67254D01*
X41982Y67254D01*
X42025Y67402D01*
X42039Y67451D01*
X42081Y67599D01*
X42123Y67747D01*
X42137Y67796D01*
X42177Y67936D01*
X42175Y67942D01*
X42177Y67944D01*
X42175Y67947D01*
X42179Y67950D01*
X42179Y68650D01*
X42173Y68658D01*
X42177Y68664D01*
X41977Y69364D01*
X41969Y69370D01*
X41971Y69377D01*
X41571Y69977D01*
X41561Y69981D01*
X41561Y69988D01*
X41104Y70354D01*
X41465Y70715D01*
X41467Y70728D01*
X41475Y70731D01*
X41775Y71431D01*
X41774Y71437D01*
X41778Y71441D01*
X41777Y71442D01*
X41779Y71443D01*
X41879Y72143D01*
X41874Y72152D01*
X41879Y72157D01*
X41779Y72857D01*
X41774Y72862D01*
X41777Y72866D01*
X41577Y73466D01*
X41566Y73473D01*
X41568Y73481D01*
X41168Y73981D01*
X41164Y73982D01*
X41165Y73985D01*
X40665Y74485D01*
X40653Y74486D01*
X40652Y74494D01*
X40052Y74794D01*
X40047Y74793D01*
X40046Y74797D01*
X39446Y74997D01*
X39439Y74995D01*
X39437Y74999D01*
X38737Y75099D01*
X38736Y75098D01*
X38735Y75099D01*
X38731Y75099D01*
X38730Y75099D01*
X38030Y75099D01*
X38029Y75099D01*
X38028Y75099D01*
X38020Y75093D01*
X38014Y75097D01*
X37414Y74897D01*
X37411Y74892D01*
X37408Y74894D01*
X36808Y74594D01*
X36804Y74587D01*
X36798Y74588D01*
X36198Y74088D01*
X36197Y74081D01*
X36192Y74081D01*
X35792Y73581D01*
X35791Y73568D01*
X35783Y73566D01*
X35583Y72966D01*
X35585Y72959D01*
X35581Y72957D01*
X35481Y72257D01*
X35484Y72252D01*
X35481Y72250D01*
X35481Y71550D01*
X35490Y71537D01*
X35486Y71528D01*
X35786Y70928D01*
X35793Y70925D01*
X35792Y70919D01*
X36164Y70454D01*
X35795Y70085D01*
X35794Y70075D01*
X35787Y70074D01*
X35387Y69374D01*
X35388Y69367D01*
X35383Y69366D01*
X35183Y68766D01*
X35185Y68760D01*
X35183Y68759D01*
X35186Y68754D01*
X35181Y68750D01*
X35181Y67650D01*
X35190Y67637D01*
X35186Y67628D01*
X35786Y66428D01*
X35796Y66423D01*
X35795Y66415D01*
X36295Y65915D01*
X36299Y65915D01*
X36299Y65912D01*
X36799Y65512D01*
X36809Y65511D01*
X36811Y65505D01*
X37511Y65205D01*
X37519Y65207D01*
X37522Y65201D01*
X38122Y65101D01*
X38127Y65104D01*
X38130Y65101D01*
X39530Y65101D01*
X39543Y65110D01*
G37*
G36*
X48443Y65110D02*
X48443Y65110D01*
X48452Y65106D01*
X49652Y65706D01*
X49654Y65710D01*
X49657Y65709D01*
X50257Y66109D01*
X50261Y66119D01*
X50268Y66119D01*
X50668Y66619D01*
X50669Y66627D01*
X50674Y66628D01*
X50974Y67228D01*
X50972Y67239D01*
X50979Y67243D01*
X51079Y67943D01*
X51076Y67948D01*
X51079Y67950D01*
X51079Y68650D01*
X51073Y68658D01*
X51077Y68664D01*
X50877Y69364D01*
X50869Y69370D01*
X50871Y69377D01*
X50471Y69977D01*
X50464Y69980D01*
X50465Y69985D01*
X50095Y70355D01*
X50369Y70720D01*
X50369Y70725D01*
X50373Y70726D01*
X50773Y71426D01*
X50771Y71436D01*
X50778Y71441D01*
X50777Y71442D01*
X50779Y71443D01*
X50879Y72143D01*
X50874Y72152D01*
X50879Y72157D01*
X50779Y72857D01*
X50771Y72865D01*
X50774Y72872D01*
X50474Y73472D01*
X50467Y73475D01*
X50468Y73481D01*
X50068Y73981D01*
X50064Y73982D01*
X50065Y73985D01*
X49565Y74485D01*
X49553Y74486D01*
X49552Y74494D01*
X48952Y74794D01*
X48947Y74793D01*
X48946Y74797D01*
X48346Y74997D01*
X48339Y74995D01*
X48337Y74999D01*
X47637Y75099D01*
X47636Y75098D01*
X47635Y75099D01*
X47631Y75099D01*
X47630Y75099D01*
X46930Y75099D01*
X46929Y75099D01*
X46928Y75099D01*
X46920Y75093D01*
X46914Y75097D01*
X46314Y74897D01*
X46311Y74892D01*
X46308Y74894D01*
X45708Y74594D01*
X45703Y74584D01*
X45695Y74585D01*
X45195Y74085D01*
X45195Y74081D01*
X45192Y74081D01*
X44792Y73581D01*
X44791Y73573D01*
X44786Y73572D01*
X44486Y72972D01*
X44488Y72961D01*
X44481Y72957D01*
X44381Y72257D01*
X44386Y72248D01*
X44381Y72243D01*
X44481Y71543D01*
X44489Y71535D01*
X44486Y71528D01*
X44786Y70928D01*
X44793Y70925D01*
X44792Y70919D01*
X45164Y70454D01*
X44795Y70085D01*
X44794Y70075D01*
X44787Y70074D01*
X44387Y69374D01*
X44388Y69372D01*
X44386Y69372D01*
X44086Y68772D01*
X44088Y68762D01*
X44083Y68759D01*
X44086Y68754D01*
X44081Y68750D01*
X44081Y68350D01*
X44084Y68346D01*
X44081Y68343D01*
X44181Y67643D01*
X44186Y67638D01*
X44183Y67634D01*
X44383Y67034D01*
X44388Y67031D01*
X44386Y67028D01*
X44686Y66428D01*
X44696Y66423D01*
X44695Y66415D01*
X45195Y65915D01*
X45202Y65914D01*
X45203Y65909D01*
X45803Y65509D01*
X45807Y65509D01*
X45808Y65506D01*
X46408Y65206D01*
X46419Y65208D01*
X46422Y65201D01*
X47022Y65101D01*
X47027Y65104D01*
X47030Y65101D01*
X48430Y65101D01*
X48443Y65110D01*
G37*
G36*
X32451Y65117D02*
X32451Y65117D01*
X32465Y65115D01*
X32965Y65615D01*
X32966Y65627D01*
X32970Y65629D01*
X32968Y65632D01*
X32977Y65634D01*
X33177Y66234D01*
X33171Y66250D01*
X33179Y66258D01*
X33079Y66858D01*
X33071Y66865D01*
X33074Y66872D01*
X32774Y67472D01*
X32767Y67475D01*
X32768Y67481D01*
X32368Y67981D01*
X32361Y67983D01*
X32361Y67988D01*
X31861Y68388D01*
X31856Y68389D01*
X31856Y68392D01*
X30058Y69490D01*
X29561Y69888D01*
X29067Y70284D01*
X28677Y70868D01*
X28581Y71446D01*
X28771Y72018D01*
X29345Y72401D01*
X30013Y72401D01*
X30491Y72018D01*
X30783Y71435D01*
X30881Y70842D01*
X30887Y70836D01*
X30884Y70832D01*
X31084Y70332D01*
X31112Y70315D01*
X31116Y70303D01*
X31816Y70103D01*
X31826Y70106D01*
X31830Y70101D01*
X32630Y70101D01*
X32648Y70115D01*
X32661Y70112D01*
X33161Y70512D01*
X33168Y70542D01*
X33179Y70550D01*
X33179Y71850D01*
X33172Y71859D01*
X33177Y71866D01*
X32777Y73066D01*
X32769Y73071D01*
X32771Y73077D01*
X32371Y73677D01*
X32364Y73680D01*
X32365Y73685D01*
X31865Y74185D01*
X31853Y74186D01*
X31852Y74194D01*
X31252Y74494D01*
X31247Y74493D01*
X31246Y74497D01*
X30646Y74697D01*
X30639Y74695D01*
X30637Y74699D01*
X29937Y74799D01*
X29932Y74796D01*
X29930Y74799D01*
X29230Y74799D01*
X29226Y74796D01*
X29223Y74799D01*
X28523Y74699D01*
X28515Y74691D01*
X28508Y74694D01*
X27908Y74394D01*
X27905Y74387D01*
X27899Y74388D01*
X27399Y73988D01*
X27398Y73984D01*
X27395Y73985D01*
X26895Y73485D01*
X26894Y73476D01*
X26888Y73475D01*
X26588Y72975D01*
X26588Y72972D01*
X26586Y72972D01*
X26286Y72372D01*
X26288Y72361D01*
X26281Y72357D01*
X26181Y71657D01*
X26184Y71652D01*
X26181Y71650D01*
X26181Y70950D01*
X26184Y70945D01*
X26181Y70942D01*
X26281Y70342D01*
X26285Y70339D01*
X26283Y70336D01*
X26483Y69636D01*
X26494Y69628D01*
X26492Y69619D01*
X26892Y69119D01*
X26896Y69118D01*
X26895Y69115D01*
X27395Y68615D01*
X27399Y68615D01*
X27398Y68612D01*
X27998Y68112D01*
X28004Y68112D01*
X28005Y68108D01*
X28951Y67540D01*
X28910Y67499D01*
X26930Y67499D01*
X26926Y67496D01*
X26923Y67499D01*
X26223Y67399D01*
X26205Y67380D01*
X26192Y67381D01*
X25792Y66881D01*
X25791Y66858D01*
X25781Y66850D01*
X25781Y66150D01*
X25784Y66145D01*
X25781Y66142D01*
X25881Y65542D01*
X25897Y65527D01*
X25895Y65515D01*
X26295Y65115D01*
X26322Y65112D01*
X26330Y65101D01*
X32430Y65101D01*
X32451Y65117D01*
G37*
G36*
X65685Y79082D02*
X65685Y79082D01*
X65695Y79078D01*
X66195Y79378D01*
X66196Y79379D01*
X66197Y79379D01*
X66470Y79561D01*
X67043Y79179D01*
X67057Y79180D01*
X67062Y79171D01*
X67662Y79071D01*
X67667Y79074D01*
X67670Y79071D01*
X68370Y79071D01*
X68379Y79078D01*
X68386Y79073D01*
X68986Y79273D01*
X68991Y79281D01*
X68997Y79279D01*
X69597Y79679D01*
X69600Y79686D01*
X69605Y79685D01*
X70105Y80185D01*
X70105Y80189D01*
X70108Y80189D01*
X70508Y80689D01*
X70509Y80699D01*
X70515Y80701D01*
X70815Y81401D01*
X70815Y81404D01*
X70817Y81404D01*
X71017Y82004D01*
X71015Y82010D01*
X71017Y82012D01*
X71014Y82016D01*
X71019Y82020D01*
X71019Y82720D01*
X71016Y82725D01*
X71019Y82728D01*
X70919Y83328D01*
X70915Y83331D01*
X70917Y83334D01*
X70717Y84034D01*
X70706Y84042D01*
X70708Y84051D01*
X70310Y84549D01*
X69911Y85147D01*
X69898Y85152D01*
X69897Y85161D01*
X69297Y85561D01*
X69293Y85561D01*
X69292Y85564D01*
X68692Y85864D01*
X68682Y85862D01*
X68678Y85869D01*
X68078Y85969D01*
X68073Y85966D01*
X68066Y85966D01*
X68063Y85969D01*
X67363Y85869D01*
X67358Y85864D01*
X67354Y85867D01*
X66754Y85667D01*
X66751Y85662D01*
X66748Y85664D01*
X66419Y85500D01*
X66419Y88120D01*
X66416Y88125D01*
X66419Y88128D01*
X66319Y88728D01*
X66311Y88735D01*
X66314Y88742D01*
X66214Y88942D01*
X66190Y88954D01*
X66186Y88967D01*
X65586Y89167D01*
X65579Y89164D01*
X65577Y89167D01*
X65572Y89167D01*
X65570Y89169D01*
X64770Y89169D01*
X64767Y89167D01*
X64766Y89167D01*
X64755Y89158D01*
X64745Y89162D01*
X64245Y88862D01*
X64237Y88844D01*
X64226Y88836D01*
X64229Y88832D01*
X64221Y88827D01*
X64121Y88127D01*
X64124Y88122D01*
X64121Y88120D01*
X64121Y79920D01*
X64125Y79914D01*
X64122Y79910D01*
X64222Y79410D01*
X64243Y79391D01*
X64245Y79378D01*
X64745Y79078D01*
X64763Y79080D01*
X64770Y79071D01*
X65670Y79071D01*
X65685Y79082D01*
G37*
%LPC*%
G36*
X51175Y108209D02*
X51175Y108209D01*
X50689Y108306D01*
X50410Y108493D01*
X50221Y108965D01*
X50316Y109536D01*
X50594Y109815D01*
X51075Y109911D01*
X53570Y109911D01*
X53576Y109915D01*
X53580Y109912D01*
X54080Y110012D01*
X54119Y110056D01*
X54117Y110058D01*
X54119Y110060D01*
X54119Y110560D01*
X54107Y110576D01*
X54111Y110587D01*
X53911Y110887D01*
X53878Y110899D01*
X53870Y110909D01*
X52374Y110909D01*
X51788Y111007D01*
X51508Y111194D01*
X51319Y111572D01*
X51319Y112240D01*
X51594Y112515D01*
X52075Y112611D01*
X54070Y112611D01*
X54117Y112647D01*
X54113Y112652D01*
X54117Y112655D01*
X54116Y112657D01*
X54119Y112660D01*
X54119Y113660D01*
X54083Y113707D01*
X54076Y113702D01*
X54070Y113709D01*
X50500Y113709D01*
X50317Y114075D01*
X50221Y114655D01*
X50409Y115124D01*
X50782Y115311D01*
X55350Y115311D01*
X55625Y115036D01*
X55721Y114555D01*
X55721Y108960D01*
X55757Y108913D01*
X55763Y108917D01*
X55767Y108911D01*
X57267Y108811D01*
X57316Y108844D01*
X57314Y108848D01*
X57318Y108850D01*
X57414Y109330D01*
X57688Y109513D01*
X58274Y109611D01*
X60670Y109611D01*
X60717Y109647D01*
X60715Y109649D01*
X60717Y109651D01*
X60714Y109656D01*
X60719Y109660D01*
X60719Y114754D01*
X60812Y115124D01*
X61279Y115311D01*
X61870Y115311D01*
X61900Y115333D01*
X61912Y115335D01*
X61930Y115364D01*
X61936Y115324D01*
X61942Y115325D01*
X61943Y115319D01*
X62226Y115130D01*
X62321Y114655D01*
X62321Y108580D01*
X62046Y108306D01*
X61466Y108209D01*
X57882Y108209D01*
X57507Y108397D01*
X57314Y108782D01*
X57280Y108799D01*
X57273Y108809D01*
X55773Y108909D01*
X55724Y108876D01*
X55726Y108873D01*
X55722Y108872D01*
X55627Y108490D01*
X55352Y108307D01*
X54766Y108209D01*
X51175Y108209D01*
G37*
%LPD*%
G36*
X59936Y65201D02*
X59936Y65201D01*
X59956Y65220D01*
X59969Y65220D01*
X60269Y65620D01*
X60269Y65627D01*
X60272Y65629D01*
X60269Y65632D01*
X60269Y65638D01*
X60279Y65643D01*
X60379Y66343D01*
X60376Y66348D01*
X60379Y66350D01*
X60379Y73850D01*
X60372Y73859D01*
X60377Y73866D01*
X60177Y74466D01*
X60150Y74484D01*
X60146Y74497D01*
X59546Y74697D01*
X59535Y74693D01*
X59530Y74699D01*
X54030Y74699D01*
X54026Y74696D01*
X54023Y74699D01*
X53323Y74599D01*
X53305Y74580D01*
X53292Y74581D01*
X52892Y74081D01*
X52891Y74058D01*
X52881Y74050D01*
X52881Y73350D01*
X52884Y73345D01*
X52881Y73342D01*
X52981Y72742D01*
X53002Y72723D01*
X53003Y72709D01*
X53603Y72309D01*
X53623Y72310D01*
X53630Y72301D01*
X57614Y72301D01*
X57981Y72025D01*
X57981Y71370D01*
X57710Y71099D01*
X55030Y71099D01*
X55012Y71085D01*
X54999Y71088D01*
X54499Y70688D01*
X54494Y70668D01*
X54483Y70664D01*
X54459Y70581D01*
X54417Y70433D01*
X54403Y70384D01*
X54361Y70236D01*
X54318Y70088D01*
X54304Y70039D01*
X54283Y69964D01*
X54289Y69947D01*
X54282Y69938D01*
X54482Y69138D01*
X54493Y69129D01*
X54491Y69120D01*
X54791Y68720D01*
X54817Y68713D01*
X54823Y68701D01*
X55523Y68601D01*
X55528Y68604D01*
X55530Y68601D01*
X57618Y68601D01*
X57981Y68420D01*
X57981Y65750D01*
X57992Y65735D01*
X57988Y65725D01*
X58288Y65225D01*
X58317Y65213D01*
X58324Y65201D01*
X59124Y65101D01*
X59132Y65106D01*
X59136Y65101D01*
X59936Y65201D01*
G37*
G36*
X41276Y79171D02*
X41276Y79171D01*
X41292Y79187D01*
X41305Y79185D01*
X41705Y79585D01*
X41706Y79597D01*
X41710Y79599D01*
X41707Y79603D01*
X41709Y79612D01*
X41719Y79620D01*
X41719Y87820D01*
X41712Y87829D01*
X41717Y87836D01*
X41517Y88436D01*
X41492Y88453D01*
X41488Y88466D01*
X40988Y88666D01*
X40975Y88662D01*
X40970Y88669D01*
X35370Y88669D01*
X35365Y88666D01*
X35362Y88669D01*
X34762Y88569D01*
X34745Y88550D01*
X34732Y88551D01*
X34332Y88051D01*
X34331Y88032D01*
X34321Y88027D01*
X34221Y87327D01*
X34227Y87317D01*
X34221Y87312D01*
X34321Y86712D01*
X34342Y86693D01*
X34343Y86679D01*
X34943Y86279D01*
X34963Y86280D01*
X34970Y86271D01*
X39050Y86271D01*
X39321Y86000D01*
X39321Y85340D01*
X39050Y85069D01*
X36370Y85069D01*
X36352Y85055D01*
X36339Y85058D01*
X35839Y84658D01*
X35833Y84633D01*
X35821Y84627D01*
X35721Y83927D01*
X35726Y83919D01*
X35721Y83914D01*
X35821Y83114D01*
X35837Y83098D01*
X35835Y83085D01*
X36235Y82685D01*
X36257Y82682D01*
X36263Y82671D01*
X36963Y82571D01*
X36968Y82574D01*
X36970Y82571D01*
X38958Y82571D01*
X39321Y82390D01*
X39321Y80420D01*
X39324Y80416D01*
X39321Y80413D01*
X39421Y79713D01*
X39431Y79703D01*
X39428Y79695D01*
X39728Y79195D01*
X39756Y79183D01*
X39763Y79171D01*
X40463Y79071D01*
X40471Y79076D01*
X40476Y79071D01*
X41276Y79171D01*
G37*
G36*
X47775Y79074D02*
X47775Y79074D01*
X47778Y79071D01*
X48378Y79171D01*
X48381Y79175D01*
X48384Y79173D01*
X49084Y79373D01*
X49090Y79382D01*
X49097Y79379D01*
X49697Y79779D01*
X49700Y79786D01*
X49705Y79785D01*
X50105Y80185D01*
X50105Y80189D01*
X50108Y80188D01*
X50608Y80788D01*
X50608Y80797D01*
X50614Y80798D01*
X50914Y81398D01*
X50912Y81409D01*
X50919Y81413D01*
X51019Y82112D01*
X51119Y82712D01*
X51116Y82717D01*
X51119Y82720D01*
X51119Y84220D01*
X51102Y84243D01*
X51103Y84257D01*
X50103Y85157D01*
X50101Y85157D01*
X50102Y85158D01*
X49502Y85658D01*
X49493Y85658D01*
X49492Y85664D01*
X48892Y85964D01*
X48887Y85963D01*
X48886Y85967D01*
X48286Y86167D01*
X48279Y86165D01*
X48277Y86169D01*
X47577Y86269D01*
X47568Y86264D01*
X47563Y86269D01*
X46863Y86169D01*
X46862Y86168D01*
X46862Y86169D01*
X46262Y86069D01*
X46255Y86061D01*
X46248Y86064D01*
X45648Y85764D01*
X45646Y85760D01*
X45643Y85761D01*
X45043Y85361D01*
X45039Y85351D01*
X45032Y85351D01*
X44632Y84851D01*
X44631Y84847D01*
X44629Y84847D01*
X44229Y84247D01*
X44230Y84238D01*
X44223Y84236D01*
X44023Y83636D01*
X44025Y83629D01*
X44021Y83627D01*
X43921Y82927D01*
X43924Y82922D01*
X43921Y82920D01*
X43921Y82220D01*
X43924Y82216D01*
X43921Y82213D01*
X44021Y81513D01*
X44029Y81505D01*
X44026Y81498D01*
X44326Y80898D01*
X44330Y80896D01*
X44329Y80893D01*
X44729Y80293D01*
X44739Y80289D01*
X44739Y80282D01*
X45739Y79482D01*
X45749Y79481D01*
X45751Y79475D01*
X46451Y79175D01*
X46459Y79177D01*
X46462Y79171D01*
X47062Y79071D01*
X47067Y79074D01*
X47070Y79071D01*
X47770Y79071D01*
X47775Y79074D01*
G37*
%LPC*%
G36*
X113705Y93099D02*
X113705Y93099D01*
X113216Y93197D01*
X112822Y93394D01*
X112819Y93393D01*
X112818Y93396D01*
X112324Y93593D01*
X111930Y93889D01*
X111535Y94185D01*
X111241Y94578D01*
X110943Y95073D01*
X110747Y95466D01*
X110549Y96455D01*
X110549Y96745D01*
X110648Y97240D01*
X110747Y97736D01*
X110943Y98226D01*
X111239Y98620D01*
X111535Y99015D01*
X111930Y99311D01*
X112324Y99607D01*
X112818Y99804D01*
X113309Y100001D01*
X113800Y100001D01*
X113806Y100005D01*
X113810Y100002D01*
X114300Y100100D01*
X114790Y100002D01*
X115289Y99902D01*
X115688Y99802D01*
X115731Y99820D01*
X115739Y99820D01*
X115761Y99849D01*
X115761Y99820D01*
X115770Y99820D01*
X115770Y99811D01*
X116568Y99213D01*
X116963Y98818D01*
X117258Y98424D01*
X117455Y98030D01*
X117653Y97535D01*
X117752Y97140D01*
X117850Y96551D01*
X117653Y95566D01*
X117456Y95172D01*
X117457Y95169D01*
X117454Y95168D01*
X117257Y94674D01*
X116965Y94285D01*
X116172Y93691D01*
X115681Y93396D01*
X115289Y93298D01*
X114295Y93099D01*
X113705Y93099D01*
G37*
%LPD*%
%LPC*%
G36*
X113509Y23839D02*
X113509Y23839D01*
X113018Y24036D01*
X112524Y24233D01*
X112130Y24529D01*
X111735Y24825D01*
X111439Y25220D01*
X111143Y25614D01*
X110947Y26104D01*
X110848Y26600D01*
X110749Y27095D01*
X110749Y29478D01*
X110933Y29846D01*
X111405Y29941D01*
X116995Y29941D01*
X117476Y29845D01*
X117754Y29566D01*
X117851Y28987D01*
X117751Y26992D01*
X117752Y26991D01*
X117751Y26990D01*
X117751Y26499D01*
X117555Y26010D01*
X117358Y25616D01*
X117061Y25220D01*
X116763Y24822D01*
X116372Y24432D01*
X115882Y24236D01*
X115880Y24233D01*
X115878Y24234D01*
X115480Y24035D01*
X114991Y23839D01*
X113509Y23839D01*
G37*
%LPD*%
%LPC*%
G36*
X45672Y108309D02*
X45672Y108309D01*
X45671Y108308D01*
X45670Y108309D01*
X45182Y108309D01*
X44792Y108504D01*
X44789Y108503D01*
X44788Y108506D01*
X44294Y108703D01*
X43900Y108999D01*
X43505Y109295D01*
X43211Y109688D01*
X42913Y110183D01*
X42717Y110576D01*
X42519Y111565D01*
X42519Y112055D01*
X42618Y112550D01*
X42717Y113046D01*
X42913Y113536D01*
X43209Y113930D01*
X43505Y114325D01*
X43898Y114619D01*
X44393Y114917D01*
X44786Y115113D01*
X45775Y115311D01*
X48158Y115311D01*
X48526Y115127D01*
X48621Y114655D01*
X48621Y109065D01*
X48524Y108579D01*
X48341Y108305D01*
X47767Y108209D01*
X45672Y108309D01*
G37*
%LPD*%
%LPC*%
G36*
X164510Y32638D02*
X164510Y32638D01*
X164014Y32737D01*
X163520Y32935D01*
X163126Y33132D01*
X162732Y33427D01*
X162337Y33822D01*
X162043Y34214D01*
X161846Y34708D01*
X161843Y34710D01*
X161844Y34712D01*
X161647Y35106D01*
X161549Y35595D01*
X161549Y37985D01*
X161644Y38457D01*
X162012Y38641D01*
X167500Y38641D01*
X167547Y38677D01*
X167538Y38689D01*
X167543Y38694D01*
X167544Y38695D01*
X167547Y38699D01*
X167552Y38677D01*
X167599Y38641D01*
X167600Y38641D01*
X168094Y38641D01*
X168458Y38550D01*
X168551Y38084D01*
X168651Y35994D01*
X168552Y35500D01*
X168453Y35006D01*
X168256Y34612D01*
X168257Y34609D01*
X168254Y34608D01*
X168058Y34118D01*
X167370Y33429D01*
X166877Y33133D01*
X166478Y32934D01*
X166466Y32910D01*
X166452Y32881D01*
X166462Y32876D01*
X166458Y32865D01*
X166475Y32835D01*
X165990Y32738D01*
X165490Y32638D01*
X165000Y32540D01*
X164510Y32638D01*
G37*
%LPD*%
%LPC*%
G36*
X193018Y23767D02*
X193018Y23767D01*
X192744Y23950D01*
X192649Y24425D01*
X192649Y27020D01*
X192613Y27067D01*
X192606Y27062D01*
X192600Y27069D01*
X187705Y27069D01*
X187224Y27165D01*
X186949Y27440D01*
X186949Y28108D01*
X187138Y28486D01*
X187415Y28671D01*
X193000Y28671D01*
X193047Y28707D01*
X193040Y28717D01*
X193049Y28726D01*
X192849Y30426D01*
X192824Y30451D01*
X192822Y30464D01*
X192427Y30662D01*
X191942Y31049D01*
X191852Y31318D01*
X192044Y31797D01*
X192241Y32093D01*
X192240Y32106D01*
X192248Y32110D01*
X192348Y32610D01*
X192347Y32614D01*
X192347Y32615D01*
X192346Y32617D01*
X192349Y32620D01*
X192349Y33120D01*
X192345Y33126D01*
X192348Y33130D01*
X192248Y33630D01*
X192241Y33636D01*
X192244Y33642D01*
X192044Y34042D01*
X192034Y34047D01*
X192035Y34055D01*
X191635Y34455D01*
X191630Y34456D01*
X191630Y34459D01*
X191230Y34759D01*
X191214Y34759D01*
X191210Y34768D01*
X190710Y34868D01*
X190703Y34865D01*
X190700Y34869D01*
X190200Y34869D01*
X190194Y34865D01*
X190190Y34868D01*
X189690Y34768D01*
X189686Y34763D01*
X189682Y34766D01*
X189182Y34566D01*
X189172Y34550D01*
X189161Y34550D01*
X188861Y34150D01*
X188861Y34146D01*
X188858Y34145D01*
X188558Y33645D01*
X188559Y33635D01*
X188552Y33632D01*
X188452Y33232D01*
X188456Y33224D01*
X188451Y33220D01*
X188451Y32620D01*
X188455Y32614D01*
X188452Y32610D01*
X188552Y32110D01*
X188563Y32100D01*
X188561Y32090D01*
X188855Y31698D01*
X188948Y31326D01*
X188759Y30949D01*
X188376Y30565D01*
X187912Y30473D01*
X187535Y30755D01*
X187242Y31146D01*
X187045Y31540D01*
X186849Y32029D01*
X186849Y32520D01*
X186845Y32526D01*
X186848Y32530D01*
X186750Y33020D01*
X186848Y33510D01*
X186947Y34006D01*
X187143Y34496D01*
X187439Y34890D01*
X187439Y34894D01*
X187442Y34895D01*
X187739Y35390D01*
X188032Y35683D01*
X188424Y35977D01*
X188918Y36174D01*
X189414Y36373D01*
X189905Y36471D01*
X190895Y36471D01*
X191386Y36373D01*
X191880Y36175D01*
X192274Y35978D01*
X192668Y35683D01*
X193063Y35288D01*
X193361Y34890D01*
X193657Y34496D01*
X193853Y34006D01*
X193951Y33515D01*
X193951Y32029D01*
X193755Y31540D01*
X193558Y31146D01*
X193265Y30755D01*
X192870Y30459D01*
X192863Y30432D01*
X192854Y30425D01*
X192857Y30420D01*
X192851Y30414D01*
X193051Y28714D01*
X193092Y28671D01*
X193097Y28675D01*
X193100Y28671D01*
X193585Y28671D01*
X193860Y28488D01*
X194051Y28011D01*
X194051Y24425D01*
X193955Y23948D01*
X193587Y23672D01*
X193018Y23767D01*
G37*
%LPD*%
G36*
X80048Y65115D02*
X80048Y65115D01*
X80061Y65112D01*
X80561Y65512D01*
X80565Y65527D01*
X80570Y65531D01*
X80567Y65535D01*
X80567Y65536D01*
X80579Y65542D01*
X80679Y66142D01*
X80676Y66147D01*
X80679Y66150D01*
X80679Y72338D01*
X80860Y72701D01*
X82830Y72701D01*
X82834Y72704D01*
X82837Y72701D01*
X83537Y72801D01*
X83550Y72814D01*
X83561Y72812D01*
X84061Y73212D01*
X84068Y73242D01*
X84079Y73250D01*
X84079Y73950D01*
X84070Y73963D01*
X84074Y73972D01*
X83774Y74572D01*
X83744Y74587D01*
X83738Y74599D01*
X83138Y74699D01*
X83133Y74696D01*
X83130Y74699D01*
X75530Y74699D01*
X75515Y74688D01*
X75505Y74692D01*
X75005Y74392D01*
X74993Y74364D01*
X74981Y74357D01*
X74881Y73657D01*
X74887Y73647D01*
X74881Y73642D01*
X74981Y73042D01*
X75006Y73019D01*
X75008Y73006D01*
X75608Y72706D01*
X75624Y72709D01*
X75630Y72701D01*
X77726Y72701D01*
X78281Y72608D01*
X78281Y65850D01*
X78290Y65837D01*
X78286Y65828D01*
X78586Y65228D01*
X78616Y65213D01*
X78622Y65201D01*
X79222Y65101D01*
X79227Y65104D01*
X79230Y65101D01*
X80030Y65101D01*
X80048Y65115D01*
G37*
G36*
X58288Y79085D02*
X58288Y79085D01*
X58301Y79082D01*
X58801Y79482D01*
X58805Y79497D01*
X58810Y79501D01*
X58807Y79505D01*
X58807Y79506D01*
X58819Y79512D01*
X58919Y80112D01*
X58916Y80117D01*
X58919Y80120D01*
X58919Y86308D01*
X59100Y86671D01*
X61170Y86671D01*
X61174Y86674D01*
X61177Y86671D01*
X61877Y86771D01*
X61892Y86787D01*
X61905Y86785D01*
X62305Y87185D01*
X62309Y87212D01*
X62319Y87220D01*
X62319Y87920D01*
X62310Y87933D01*
X62314Y87942D01*
X62014Y88542D01*
X61984Y88557D01*
X61978Y88569D01*
X61378Y88669D01*
X61373Y88666D01*
X61370Y88669D01*
X53770Y88669D01*
X53755Y88658D01*
X53745Y88662D01*
X53245Y88362D01*
X53231Y88328D01*
X53221Y88320D01*
X53221Y87620D01*
X53224Y87615D01*
X53221Y87612D01*
X53321Y87012D01*
X53343Y86991D01*
X53345Y86978D01*
X53845Y86678D01*
X53863Y86680D01*
X53870Y86671D01*
X55966Y86671D01*
X56521Y86578D01*
X56521Y80520D01*
X56524Y80516D01*
X56521Y80513D01*
X56621Y79813D01*
X56626Y79808D01*
X56623Y79804D01*
X56823Y79204D01*
X56858Y79181D01*
X56863Y79171D01*
X57563Y79071D01*
X57568Y79074D01*
X57570Y79071D01*
X58270Y79071D01*
X58288Y79085D01*
G37*
%LPC*%
G36*
X60325Y31949D02*
X60325Y31949D01*
X60046Y32321D01*
X59950Y32800D01*
X60045Y33276D01*
X60225Y33456D01*
X60606Y33551D01*
X64000Y33551D01*
X64013Y33561D01*
X64030Y33561D01*
X64030Y33574D01*
X64047Y33587D01*
X64030Y33610D01*
X64029Y33640D01*
X60239Y36433D01*
X60047Y36816D01*
X59950Y37300D01*
X60045Y37776D01*
X60320Y38051D01*
X66488Y38051D01*
X66861Y37864D01*
X67049Y37395D01*
X66954Y36824D01*
X66675Y36544D01*
X66294Y36449D01*
X63200Y36449D01*
X63179Y36433D01*
X63165Y36435D01*
X63065Y36335D01*
X63064Y36324D01*
X63062Y36323D01*
X63063Y36321D01*
X63057Y36276D01*
X63071Y36274D01*
X63071Y36260D01*
X66857Y33471D01*
X66951Y33094D01*
X66951Y32412D01*
X66766Y32042D01*
X66394Y31949D01*
X60325Y31949D01*
G37*
%LPD*%
%LPC*%
G36*
X136805Y90269D02*
X136805Y90269D01*
X136333Y90364D01*
X136149Y90732D01*
X136149Y91315D01*
X136243Y91782D01*
X136508Y91871D01*
X140200Y91871D01*
X140211Y91879D01*
X140224Y91877D01*
X140226Y91890D01*
X140247Y91907D01*
X140231Y91928D01*
X140235Y91955D01*
X140135Y92055D01*
X140129Y92056D01*
X140129Y92060D01*
X136732Y94558D01*
X136341Y94949D01*
X136149Y95332D01*
X136149Y95908D01*
X136333Y96276D01*
X136805Y96371D01*
X142880Y96371D01*
X143154Y96096D01*
X143249Y95524D01*
X143060Y94955D01*
X142688Y94769D01*
X139200Y94769D01*
X139187Y94759D01*
X139171Y94760D01*
X139170Y94747D01*
X139153Y94733D01*
X139170Y94710D01*
X139170Y94681D01*
X142670Y91981D01*
X143156Y91592D01*
X143250Y91217D01*
X143154Y90549D01*
X142881Y90366D01*
X142395Y90269D01*
X136805Y90269D01*
G37*
%LPD*%
%LPC*%
G36*
X87205Y32869D02*
X87205Y32869D01*
X86724Y32965D01*
X86445Y33244D01*
X86350Y33720D01*
X86445Y34196D01*
X86624Y34375D01*
X87105Y34471D01*
X90200Y34471D01*
X90213Y34480D01*
X90222Y34476D01*
X90422Y34576D01*
X90425Y34581D01*
X90430Y34581D01*
X90430Y34592D01*
X90448Y34629D01*
X90430Y34639D01*
X90429Y34660D01*
X86639Y37453D01*
X86447Y37836D01*
X86350Y38320D01*
X86444Y38787D01*
X86812Y38971D01*
X92888Y38971D01*
X93261Y38784D01*
X93449Y38315D01*
X93354Y37744D01*
X93075Y37464D01*
X92694Y37369D01*
X89600Y37369D01*
X89579Y37353D01*
X89565Y37355D01*
X89465Y37255D01*
X89463Y37242D01*
X89453Y37234D01*
X89461Y37223D01*
X89457Y37196D01*
X89471Y37194D01*
X89471Y37180D01*
X93261Y34387D01*
X93449Y34012D01*
X93352Y33330D01*
X93260Y32962D01*
X92795Y32869D01*
X87205Y32869D01*
G37*
%LPD*%
%LPC*%
G36*
X116949Y31493D02*
X116949Y31493D01*
X116910Y31538D01*
X116905Y31533D01*
X116900Y31539D01*
X111312Y31539D01*
X110937Y31727D01*
X110749Y32102D01*
X110749Y32572D01*
X111223Y33141D01*
X114800Y33141D01*
X114804Y33144D01*
X114809Y33142D01*
X114814Y33152D01*
X114847Y33177D01*
X114835Y33193D01*
X114844Y33212D01*
X114744Y33412D01*
X114728Y33420D01*
X114727Y33431D01*
X114129Y33830D01*
X110941Y36221D01*
X110749Y36699D01*
X110749Y37174D01*
X111029Y37546D01*
X111406Y37641D01*
X117480Y37641D01*
X117751Y37370D01*
X117751Y36695D01*
X117658Y36230D01*
X117294Y36139D01*
X114300Y36139D01*
X114294Y36135D01*
X114290Y36138D01*
X113790Y36038D01*
X113782Y36029D01*
X113770Y36029D01*
X113770Y36015D01*
X113751Y35994D01*
X113770Y35977D01*
X113770Y35951D01*
X117368Y33253D01*
X117755Y32866D01*
X117850Y32389D01*
X117755Y31818D01*
X117384Y31539D01*
X117000Y31539D01*
X116953Y31503D01*
X116958Y31496D01*
X116951Y31490D01*
X116951Y31469D01*
X116949Y31493D01*
G37*
%LPD*%
%LPC*%
G36*
X136428Y98065D02*
X136428Y98065D01*
X136149Y98436D01*
X136149Y103008D01*
X136334Y103378D01*
X136706Y103471D01*
X142880Y103471D01*
X143155Y103196D01*
X143251Y102716D01*
X143151Y98627D01*
X143058Y98254D01*
X142688Y98069D01*
X142015Y98069D01*
X141738Y98254D01*
X141549Y98632D01*
X141549Y101720D01*
X141513Y101767D01*
X141512Y101767D01*
X141512Y101768D01*
X141112Y101868D01*
X141104Y101864D01*
X141100Y101869D01*
X140600Y101869D01*
X140553Y101833D01*
X140558Y101826D01*
X140551Y101820D01*
X140551Y99732D01*
X140362Y99354D01*
X140082Y99167D01*
X139408Y99071D01*
X139037Y99257D01*
X138849Y99632D01*
X138849Y101720D01*
X138817Y101763D01*
X138816Y101767D01*
X138516Y101867D01*
X138505Y101863D01*
X138500Y101869D01*
X137900Y101869D01*
X137853Y101833D01*
X137853Y101832D01*
X137852Y101832D01*
X137752Y101432D01*
X137756Y101424D01*
X137751Y101420D01*
X137751Y98435D01*
X137571Y98165D01*
X136992Y98069D01*
X136952Y98027D01*
X136951Y98026D01*
X136945Y97979D01*
X136428Y98065D01*
G37*
%LPD*%
%LPC*%
G36*
X114405Y39439D02*
X114405Y39439D01*
X113916Y39537D01*
X113544Y39723D01*
X113449Y40294D01*
X113449Y41878D01*
X113637Y42253D01*
X114012Y42441D01*
X114480Y42441D01*
X114753Y42168D01*
X114851Y41086D01*
X114891Y41042D01*
X114896Y41046D01*
X114900Y41041D01*
X115900Y41041D01*
X115938Y41070D01*
X115946Y41072D01*
X116146Y41572D01*
X116142Y41585D01*
X116149Y41590D01*
X116149Y42590D01*
X116140Y42603D01*
X116144Y42612D01*
X115944Y43012D01*
X115934Y43017D01*
X115935Y43025D01*
X115535Y43425D01*
X115530Y43426D01*
X115530Y43429D01*
X115130Y43729D01*
X115120Y43729D01*
X115118Y43736D01*
X114618Y43936D01*
X114612Y43934D01*
X114610Y43938D01*
X114110Y44038D01*
X114097Y44032D01*
X114090Y44038D01*
X113590Y43938D01*
X113586Y43933D01*
X113582Y43936D01*
X113082Y43736D01*
X113074Y43724D01*
X113065Y43725D01*
X112765Y43425D01*
X112764Y43420D01*
X112761Y43420D01*
X112461Y43020D01*
X112461Y43013D01*
X112456Y43012D01*
X112256Y42612D01*
X112258Y42603D01*
X112252Y42600D01*
X112152Y42100D01*
X112157Y42088D01*
X112151Y42082D01*
X112251Y41482D01*
X112258Y41476D01*
X112255Y41470D01*
X112648Y40586D01*
X112556Y40215D01*
X112172Y39832D01*
X111702Y39644D01*
X111332Y39829D01*
X111043Y40214D01*
X110846Y40708D01*
X110647Y41205D01*
X110549Y41596D01*
X110549Y42585D01*
X110647Y43076D01*
X110843Y43566D01*
X111139Y43960D01*
X111439Y44360D01*
X111439Y44420D01*
X111428Y44420D01*
X111428Y44431D01*
X111399Y44451D01*
X111432Y44452D01*
X111432Y44456D01*
X111435Y44455D01*
X111732Y44753D01*
X112128Y45049D01*
X112623Y45347D01*
X113016Y45543D01*
X113505Y45641D01*
X114595Y45641D01*
X115086Y45543D01*
X115580Y45345D01*
X115974Y45148D01*
X116370Y44851D01*
X116768Y44553D01*
X117159Y44161D01*
X117355Y43770D01*
X117554Y43272D01*
X117557Y43270D01*
X117556Y43268D01*
X117751Y42878D01*
X117751Y41195D01*
X117653Y40706D01*
X117458Y40316D01*
X117163Y39922D01*
X116872Y39632D01*
X116391Y39439D01*
X114405Y39439D01*
G37*
%LPD*%
%LPC*%
G36*
X164972Y74979D02*
X164972Y74979D01*
X164599Y75166D01*
X164409Y75639D01*
X164409Y77430D01*
X164401Y77441D01*
X164403Y77454D01*
X164390Y77456D01*
X164373Y77477D01*
X164364Y77471D01*
X164360Y77477D01*
X164357Y77477D01*
X164339Y77463D01*
X164325Y77465D01*
X164125Y77265D01*
X164124Y77253D01*
X164116Y77252D01*
X163918Y76856D01*
X163621Y76460D01*
X163621Y76456D01*
X163618Y76455D01*
X163323Y75964D01*
X162932Y75671D01*
X162441Y75376D01*
X162048Y75278D01*
X162011Y75231D01*
X162012Y75231D01*
X162011Y75230D01*
X162011Y75203D01*
X162009Y75233D01*
X161971Y75278D01*
X161965Y75273D01*
X161960Y75279D01*
X160966Y75279D01*
X160579Y75376D01*
X160088Y75671D01*
X159692Y75967D01*
X159399Y76261D01*
X159106Y76749D01*
X159008Y77140D01*
X158909Y77734D01*
X158909Y78225D01*
X159007Y78712D01*
X159299Y79200D01*
X159989Y79889D01*
X160380Y80085D01*
X160874Y80283D01*
X161365Y80381D01*
X161845Y80381D01*
X162120Y80198D01*
X162309Y79725D01*
X162213Y79145D01*
X162030Y78779D01*
X161560Y78779D01*
X161554Y78775D01*
X161550Y78778D01*
X161050Y78678D01*
X161037Y78663D01*
X161025Y78665D01*
X160625Y78265D01*
X160622Y78245D01*
X160612Y78240D01*
X160512Y77740D01*
X160520Y77722D01*
X160514Y77712D01*
X160714Y77212D01*
X160730Y77202D01*
X160730Y77191D01*
X161130Y76891D01*
X161150Y76891D01*
X161154Y76886D01*
X161156Y76886D01*
X161160Y76881D01*
X161560Y76881D01*
X161566Y76886D01*
X161572Y76886D01*
X161574Y76887D01*
X161578Y76884D01*
X162078Y77084D01*
X162086Y77096D01*
X162095Y77095D01*
X162495Y77495D01*
X162496Y77500D01*
X162499Y77500D01*
X162799Y77900D01*
X162799Y77904D01*
X162802Y77904D01*
X163601Y79202D01*
X163899Y79600D01*
X164191Y79989D01*
X164678Y80184D01*
X164680Y80187D01*
X164682Y80186D01*
X165082Y80386D01*
X165092Y80406D01*
X165108Y80418D01*
X165107Y80419D01*
X165108Y80420D01*
X165112Y80436D01*
X165140Y80385D01*
X165146Y80388D01*
X165148Y80382D01*
X165538Y80285D01*
X165919Y79999D01*
X166111Y79521D01*
X166111Y76034D01*
X166012Y75440D01*
X165920Y75072D01*
X165455Y74979D01*
X164972Y74979D01*
G37*
%LPD*%
%LPC*%
G36*
X167416Y24237D02*
X167416Y24237D01*
X161929Y26931D01*
X161544Y27315D01*
X161452Y27687D01*
X161641Y28159D01*
X162026Y28448D01*
X167517Y31144D01*
X167889Y31237D01*
X168261Y30958D01*
X168551Y30378D01*
X168551Y30010D01*
X168270Y29730D01*
X167376Y29233D01*
X167374Y29228D01*
X167370Y29229D01*
X166970Y28929D01*
X166962Y28898D01*
X166951Y28890D01*
X166951Y26390D01*
X166976Y26357D01*
X166978Y26346D01*
X168368Y25651D01*
X168647Y25278D01*
X168554Y24811D01*
X168166Y24327D01*
X167890Y24142D01*
X167416Y24237D01*
G37*
%LPD*%
%LPC*%
G36*
X140609Y40039D02*
X140609Y40039D01*
X140128Y40232D01*
X139435Y40925D01*
X139376Y40933D01*
X139374Y40920D01*
X139361Y40920D01*
X139068Y40529D01*
X138680Y40335D01*
X138195Y40141D01*
X137711Y40238D01*
X137319Y40336D01*
X136831Y40629D01*
X136138Y41321D01*
X135949Y41605D01*
X135949Y43185D01*
X136046Y43669D01*
X136339Y44060D01*
X136339Y44067D01*
X136344Y44068D01*
X136543Y44467D01*
X136575Y44448D01*
X136634Y44454D01*
X136634Y44455D01*
X136635Y44455D01*
X137028Y44848D01*
X137509Y45041D01*
X137884Y45041D01*
X138259Y44759D01*
X138451Y44281D01*
X138451Y43815D01*
X138070Y43529D01*
X137670Y43229D01*
X137666Y43213D01*
X137656Y43206D01*
X137659Y43203D01*
X137652Y43200D01*
X137552Y42700D01*
X137558Y42687D01*
X137552Y42680D01*
X137652Y42180D01*
X137670Y42164D01*
X137670Y42151D01*
X138070Y41851D01*
X138105Y41851D01*
X138116Y41843D01*
X138416Y41943D01*
X138438Y41977D01*
X138449Y41982D01*
X138549Y42582D01*
X138646Y43071D01*
X138829Y43345D01*
X139400Y43440D01*
X139967Y43346D01*
X140153Y42974D01*
X140352Y41980D01*
X140370Y41964D01*
X140370Y41951D01*
X140770Y41651D01*
X140801Y41651D01*
X140812Y41642D01*
X141212Y41742D01*
X141227Y41760D01*
X141239Y41760D01*
X141539Y42160D01*
X141539Y42177D01*
X141549Y42182D01*
X141649Y42782D01*
X141643Y42793D01*
X141648Y42800D01*
X141548Y43300D01*
X141530Y43316D01*
X141530Y43329D01*
X141130Y43629D01*
X141126Y43629D01*
X141125Y43632D01*
X140641Y43923D01*
X140549Y44198D01*
X140549Y44878D01*
X140734Y45248D01*
X141101Y45340D01*
X141586Y45243D01*
X142076Y45047D01*
X142465Y44755D01*
X142758Y44364D01*
X142955Y43970D01*
X143151Y43481D01*
X143151Y41902D01*
X142956Y41512D01*
X142957Y41509D01*
X142954Y41508D01*
X142757Y41014D01*
X142465Y40625D01*
X142076Y40333D01*
X141586Y40137D01*
X141095Y40039D01*
X140609Y40039D01*
G37*
%LPD*%
%LPC*%
G36*
X140905Y24239D02*
X140905Y24239D01*
X140414Y24337D01*
X139928Y24532D01*
X139535Y24925D01*
X139508Y24929D01*
X139500Y24939D01*
X139300Y24939D01*
X139282Y24926D01*
X139270Y24929D01*
X138874Y24632D01*
X138488Y24439D01*
X137514Y24439D01*
X137028Y24731D01*
X136632Y25027D01*
X135949Y25710D01*
X135949Y27085D01*
X136047Y27576D01*
X136245Y28070D01*
X136441Y28461D01*
X136832Y28853D01*
X137221Y29144D01*
X137699Y29240D01*
X138068Y29147D01*
X138353Y28672D01*
X138448Y28200D01*
X138264Y27924D01*
X137870Y27629D01*
X137867Y27616D01*
X137858Y27615D01*
X137558Y27115D01*
X137559Y27106D01*
X137553Y27101D01*
X137557Y27095D01*
X137551Y27090D01*
X137551Y26590D01*
X137564Y26572D01*
X137561Y26560D01*
X137861Y26160D01*
X137883Y26154D01*
X137888Y26142D01*
X138288Y26042D01*
X138343Y26066D01*
X138342Y26068D01*
X138344Y26068D01*
X138544Y26468D01*
X138542Y26480D01*
X138547Y26484D01*
X138545Y26487D01*
X138549Y26490D01*
X138549Y27078D01*
X138737Y27453D01*
X139112Y27641D01*
X139780Y27641D01*
X140059Y27361D01*
X140251Y26978D01*
X140251Y26390D01*
X140264Y26372D01*
X140261Y26360D01*
X140561Y25960D01*
X140583Y25954D01*
X140588Y25942D01*
X140988Y25842D01*
X141016Y25854D01*
X141030Y25851D01*
X141430Y26151D01*
X141435Y26169D01*
X141446Y26172D01*
X141646Y26672D01*
X141644Y26679D01*
X141647Y26681D01*
X141641Y26688D01*
X141641Y26690D01*
X141649Y26698D01*
X141549Y27298D01*
X141541Y27305D01*
X141544Y27312D01*
X141344Y27712D01*
X141327Y27721D01*
X141325Y27732D01*
X140826Y28032D01*
X140549Y28216D01*
X140549Y28786D01*
X140645Y29361D01*
X140915Y29541D01*
X141292Y29541D01*
X141877Y29346D01*
X142268Y29053D01*
X142563Y28758D01*
X142858Y28364D01*
X143053Y27974D01*
X143151Y27482D01*
X143250Y26891D01*
X143152Y26400D01*
X143053Y25904D01*
X142857Y25414D01*
X142563Y25022D01*
X142268Y24727D01*
X141876Y24433D01*
X141391Y24239D01*
X140905Y24239D01*
G37*
%LPD*%
%LPC*%
G36*
X64505Y47749D02*
X64505Y47749D01*
X64016Y47847D01*
X63626Y48042D01*
X63235Y48335D01*
X62946Y48721D01*
X62848Y49210D01*
X62846Y49212D01*
X62847Y49214D01*
X62547Y50214D01*
X62544Y50216D01*
X62546Y50218D01*
X62346Y50718D01*
X62334Y50726D01*
X62335Y50735D01*
X62035Y51035D01*
X62000Y51040D01*
X61990Y51048D01*
X61490Y50948D01*
X61469Y50925D01*
X61456Y50922D01*
X61256Y50522D01*
X61258Y50511D01*
X61253Y50507D01*
X61255Y50503D01*
X61251Y50500D01*
X61251Y50000D01*
X61264Y49982D01*
X61261Y49970D01*
X61557Y49576D01*
X61748Y49097D01*
X61656Y48725D01*
X61272Y48342D01*
X60802Y48154D01*
X60432Y48339D01*
X60143Y48724D01*
X59947Y49214D01*
X59848Y49710D01*
X59749Y50205D01*
X59749Y50696D01*
X59847Y51285D01*
X60042Y51674D01*
X60335Y52065D01*
X60730Y52361D01*
X61121Y52654D01*
X61605Y52751D01*
X62095Y52751D01*
X62582Y52653D01*
X63070Y52361D01*
X63363Y52068D01*
X63657Y51676D01*
X63853Y51186D01*
X63952Y50690D01*
X64052Y50190D01*
X64057Y50186D01*
X64054Y50182D01*
X64254Y49682D01*
X64270Y49672D01*
X64270Y49661D01*
X64670Y49361D01*
X64687Y49361D01*
X64702Y49361D01*
X64712Y49352D01*
X65112Y49452D01*
X65127Y49470D01*
X65139Y49470D01*
X65439Y49870D01*
X65439Y49883D01*
X65447Y49889D01*
X65443Y49895D01*
X65449Y49900D01*
X65449Y50500D01*
X65441Y50511D01*
X65446Y50518D01*
X65246Y51018D01*
X65234Y51026D01*
X65235Y51035D01*
X64837Y51432D01*
X64553Y51811D01*
X64645Y52178D01*
X65032Y52661D01*
X65400Y52845D01*
X65775Y52657D01*
X66069Y52462D01*
X66361Y52170D01*
X66657Y51677D01*
X66853Y51284D01*
X66952Y50790D01*
X67050Y50300D01*
X66952Y49810D01*
X66853Y49314D01*
X66657Y48824D01*
X66365Y48435D01*
X65970Y48139D01*
X65579Y47846D01*
X65095Y47749D01*
X64505Y47749D01*
G37*
%LPD*%
%LPC*%
G36*
X166105Y40439D02*
X166105Y40439D01*
X165614Y40537D01*
X165131Y40731D01*
X164839Y41120D01*
X164546Y41511D01*
X164448Y42000D01*
X164446Y42002D01*
X164447Y42004D01*
X164147Y43004D01*
X164142Y43008D01*
X164144Y43012D01*
X163944Y43412D01*
X163938Y43415D01*
X163939Y43420D01*
X163639Y43820D01*
X163608Y43829D01*
X163607Y43830D01*
X163603Y43830D01*
X163598Y43831D01*
X163590Y43838D01*
X163090Y43738D01*
X163067Y43712D01*
X163054Y43708D01*
X162854Y43208D01*
X162855Y43205D01*
X162853Y43203D01*
X162858Y43197D01*
X162858Y43195D01*
X162851Y43190D01*
X162851Y42690D01*
X162864Y42672D01*
X162861Y42660D01*
X163157Y42266D01*
X163348Y41787D01*
X163256Y41415D01*
X162872Y41032D01*
X162402Y40844D01*
X162032Y41029D01*
X161743Y41414D01*
X161547Y41904D01*
X161448Y42400D01*
X161349Y42895D01*
X161349Y43485D01*
X161447Y43974D01*
X161642Y44364D01*
X161935Y44755D01*
X162330Y45051D01*
X162721Y45344D01*
X163205Y45441D01*
X163695Y45441D01*
X164184Y45343D01*
X164571Y45149D01*
X164963Y44758D01*
X165257Y44366D01*
X165453Y43876D01*
X165552Y43380D01*
X165652Y42880D01*
X165659Y42874D01*
X165656Y42868D01*
X165856Y42468D01*
X165870Y42461D01*
X165870Y42451D01*
X166270Y42151D01*
X166301Y42151D01*
X166312Y42142D01*
X166712Y42242D01*
X166724Y42257D01*
X166735Y42255D01*
X167035Y42555D01*
X167038Y42578D01*
X167047Y42585D01*
X167046Y42587D01*
X167049Y42590D01*
X167049Y43190D01*
X167041Y43201D01*
X167046Y43208D01*
X166846Y43708D01*
X166834Y43716D01*
X166835Y43725D01*
X166437Y44122D01*
X166153Y44501D01*
X166246Y44871D01*
X166535Y45352D01*
X166907Y45538D01*
X167376Y45445D01*
X167665Y45155D01*
X167961Y44860D01*
X168257Y44367D01*
X168453Y43974D01*
X168650Y42989D01*
X168552Y42400D01*
X168453Y42005D01*
X168257Y41514D01*
X167965Y41125D01*
X167576Y40833D01*
X167082Y40636D01*
X166591Y40439D01*
X166105Y40439D01*
G37*
%LPD*%
%LPC*%
G36*
X191112Y38169D02*
X191112Y38169D01*
X190726Y38362D01*
X190335Y38655D01*
X190042Y39046D01*
X189846Y39438D01*
X189448Y40933D01*
X189437Y40941D01*
X189439Y40950D01*
X189139Y41350D01*
X189115Y41356D01*
X189110Y41368D01*
X188610Y41468D01*
X188571Y41450D01*
X188561Y41450D01*
X188261Y41050D01*
X188261Y41028D01*
X188251Y41020D01*
X188251Y40520D01*
X188261Y40506D01*
X188257Y40496D01*
X188751Y39607D01*
X188751Y39145D01*
X188372Y38861D01*
X187892Y38573D01*
X187529Y38664D01*
X187239Y39050D01*
X186946Y39441D01*
X186848Y39930D01*
X186749Y40425D01*
X186749Y40916D01*
X186848Y41510D01*
X186945Y41898D01*
X187239Y42290D01*
X187239Y42350D01*
X187228Y42350D01*
X187227Y42361D01*
X187200Y42380D01*
X187212Y42380D01*
X187215Y42382D01*
X187222Y42383D01*
X187230Y42381D01*
X187630Y42681D01*
X188021Y42974D01*
X188505Y43071D01*
X188995Y43071D01*
X189489Y42972D01*
X189875Y42876D01*
X190263Y42488D01*
X190558Y42094D01*
X190755Y41700D01*
X190953Y41206D01*
X191152Y40210D01*
X191167Y40197D01*
X191165Y40185D01*
X191565Y39785D01*
X191592Y39782D01*
X191600Y39771D01*
X192000Y39771D01*
X192026Y39790D01*
X192039Y39790D01*
X192339Y40190D01*
X192339Y40197D01*
X192342Y40199D01*
X192339Y40202D01*
X192339Y40206D01*
X192348Y40210D01*
X192448Y40710D01*
X192440Y40728D01*
X192446Y40738D01*
X192246Y41238D01*
X192239Y41242D01*
X192241Y41247D01*
X191646Y42140D01*
X191553Y42509D01*
X191834Y42883D01*
X192314Y43171D01*
X192680Y43171D01*
X193263Y42588D01*
X193561Y42190D01*
X193854Y41799D01*
X193952Y41310D01*
X194050Y40819D01*
X193951Y40228D01*
X193853Y39736D01*
X193656Y39342D01*
X193656Y39340D01*
X193656Y39339D01*
X193654Y39338D01*
X193459Y38851D01*
X193070Y38559D01*
X192679Y38266D01*
X192195Y38169D01*
X191112Y38169D01*
G37*
%LPD*%
%LPC*%
G36*
X60816Y24449D02*
X60816Y24449D01*
X60435Y24735D01*
X60143Y25124D01*
X59947Y25614D01*
X59848Y26110D01*
X59750Y26600D01*
X59848Y27090D01*
X59845Y27097D01*
X59849Y27100D01*
X59849Y27591D01*
X60045Y28080D01*
X60244Y28478D01*
X60243Y28481D01*
X60246Y28482D01*
X60442Y28972D01*
X61132Y29663D01*
X61524Y29957D01*
X62018Y30154D01*
X62514Y30353D01*
X63005Y30451D01*
X63495Y30451D01*
X63990Y30352D01*
X64486Y30253D01*
X64980Y30055D01*
X65374Y29858D01*
X65768Y29563D01*
X66163Y29168D01*
X66457Y28776D01*
X66654Y28282D01*
X66853Y27785D01*
X66952Y27389D01*
X67050Y26900D01*
X66952Y26410D01*
X66852Y25913D01*
X66654Y25319D01*
X66458Y24926D01*
X66171Y24544D01*
X65804Y24452D01*
X65325Y24643D01*
X64849Y25024D01*
X64849Y25386D01*
X65142Y25875D01*
X65142Y25878D01*
X65144Y25878D01*
X65244Y26078D01*
X65242Y26087D01*
X65248Y26090D01*
X65348Y26590D01*
X65347Y26593D01*
X65347Y26594D01*
X65345Y26596D01*
X65345Y26597D01*
X65349Y26600D01*
X65349Y27100D01*
X65345Y27106D01*
X65348Y27110D01*
X65248Y27610D01*
X65239Y27618D01*
X65242Y27625D01*
X64942Y28125D01*
X64930Y28130D01*
X64930Y28139D01*
X64130Y28739D01*
X64108Y28739D01*
X64100Y28749D01*
X63000Y28749D01*
X62993Y28744D01*
X62988Y28748D01*
X62588Y28648D01*
X62581Y28640D01*
X62575Y28642D01*
X62075Y28342D01*
X62070Y28330D01*
X62061Y28330D01*
X61761Y27930D01*
X61761Y27923D01*
X61756Y27922D01*
X61556Y27522D01*
X61558Y27513D01*
X61552Y27510D01*
X61452Y27010D01*
X61455Y27003D01*
X61451Y27000D01*
X61451Y26500D01*
X61455Y26494D01*
X61452Y26490D01*
X61552Y25990D01*
X61561Y25982D01*
X61558Y25975D01*
X61854Y25481D01*
X61945Y25115D01*
X61280Y24449D01*
X60816Y24449D01*
G37*
%LPD*%
%LPC*%
G36*
X159880Y67279D02*
X159880Y67279D01*
X159497Y67662D01*
X159202Y68056D01*
X159007Y68445D01*
X158909Y69038D01*
X158908Y69039D01*
X158908Y69040D01*
X158810Y69530D01*
X158908Y70020D01*
X158906Y70025D01*
X158907Y70026D01*
X158906Y70028D01*
X158909Y70030D01*
X158909Y70421D01*
X159106Y70912D01*
X159304Y71408D01*
X159601Y71902D01*
X159897Y72298D01*
X160192Y72593D01*
X160584Y72887D01*
X161074Y73083D01*
X161570Y73182D01*
X162065Y73281D01*
X163051Y73281D01*
X163542Y73084D01*
X163548Y73086D01*
X163550Y73082D01*
X164039Y72984D01*
X164430Y72691D01*
X164828Y72393D01*
X165223Y71998D01*
X165518Y71604D01*
X165715Y71210D01*
X165913Y70716D01*
X166012Y70220D01*
X166110Y69730D01*
X166012Y69240D01*
X165912Y68743D01*
X165715Y68152D01*
X165520Y67859D01*
X165228Y67469D01*
X164862Y67286D01*
X164388Y67570D01*
X163909Y67954D01*
X163909Y68216D01*
X164202Y68705D01*
X164201Y68713D01*
X164207Y68714D01*
X164307Y69014D01*
X164305Y69019D01*
X164308Y69020D01*
X164408Y69520D01*
X164405Y69527D01*
X164409Y69530D01*
X164409Y70030D01*
X164401Y70041D01*
X164406Y70048D01*
X164006Y71048D01*
X163990Y71058D01*
X163990Y71069D01*
X163590Y71369D01*
X163580Y71369D01*
X163578Y71376D01*
X163078Y71576D01*
X163072Y71574D01*
X163070Y71578D01*
X162570Y71678D01*
X162563Y71675D01*
X162560Y71679D01*
X162060Y71679D01*
X162049Y71671D01*
X162042Y71676D01*
X161542Y71476D01*
X161540Y71473D01*
X161538Y71474D01*
X161138Y71274D01*
X161129Y71257D01*
X161118Y71255D01*
X160818Y70755D01*
X160818Y70752D01*
X160816Y70752D01*
X160616Y70352D01*
X160616Y70349D01*
X160615Y70349D01*
X160617Y70346D01*
X160618Y70343D01*
X160612Y70340D01*
X160512Y69840D01*
X160515Y69833D01*
X160511Y69830D01*
X160511Y69330D01*
X160519Y69319D01*
X160514Y69312D01*
X160914Y68313D01*
X161005Y68039D01*
X160724Y67665D01*
X160243Y67279D01*
X159880Y67279D01*
G37*
%LPD*%
%LPC*%
G36*
X136625Y31339D02*
X136625Y31339D01*
X136340Y31719D01*
X136149Y32005D01*
X136149Y32474D01*
X136431Y32849D01*
X136918Y33044D01*
X136919Y33046D01*
X136921Y33045D01*
X140621Y34745D01*
X140621Y34746D01*
X140622Y34746D01*
X140822Y34846D01*
X140826Y34853D01*
X140834Y34854D01*
X140832Y34867D01*
X140848Y34899D01*
X140828Y34909D01*
X140825Y34932D01*
X140325Y35232D01*
X140321Y35232D01*
X140320Y35235D01*
X136921Y36734D01*
X136526Y36932D01*
X136149Y37215D01*
X136149Y37582D01*
X136343Y38163D01*
X136620Y38441D01*
X136991Y38441D01*
X137480Y38245D01*
X142478Y35746D01*
X142481Y35747D01*
X142482Y35744D01*
X142962Y35552D01*
X143151Y35081D01*
X143151Y34602D01*
X142962Y34225D01*
X142477Y33933D01*
X137480Y31535D01*
X136991Y31339D01*
X136625Y31339D01*
G37*
%LPD*%
%LPC*%
G36*
X60330Y40043D02*
X60330Y40043D01*
X59849Y40716D01*
X59849Y41175D01*
X60228Y41460D01*
X62426Y42858D01*
X62429Y42866D01*
X62435Y42865D01*
X62635Y43065D01*
X62643Y43124D01*
X62628Y43126D01*
X62626Y43142D01*
X60428Y44541D01*
X60039Y44832D01*
X59852Y45206D01*
X59945Y45578D01*
X60332Y46061D01*
X60702Y46246D01*
X61177Y46056D01*
X64173Y44059D01*
X64177Y44059D01*
X64178Y44056D01*
X64578Y43856D01*
X64594Y43859D01*
X64600Y43851D01*
X66584Y43851D01*
X66955Y43572D01*
X67050Y43100D01*
X66955Y42628D01*
X66579Y42346D01*
X66095Y42249D01*
X64600Y42249D01*
X64594Y42245D01*
X64590Y42248D01*
X64090Y42148D01*
X64081Y42138D01*
X64073Y42141D01*
X61075Y40143D01*
X60694Y39952D01*
X60330Y40043D01*
G37*
%LPD*%
%LPC*%
G36*
X86806Y24769D02*
X86806Y24769D01*
X86442Y24860D01*
X86349Y25325D01*
X86349Y31104D01*
X86625Y31471D01*
X87188Y31471D01*
X87556Y31287D01*
X87651Y30815D01*
X87651Y29320D01*
X87656Y29313D01*
X87652Y29308D01*
X87752Y28908D01*
X87799Y28871D01*
X87799Y28872D01*
X87800Y28871D01*
X92891Y28871D01*
X93357Y28684D01*
X93450Y28220D01*
X93354Y27741D01*
X93071Y27364D01*
X92694Y27269D01*
X88100Y27269D01*
X88093Y27264D01*
X88088Y27268D01*
X87688Y27168D01*
X87651Y27121D01*
X87652Y27121D01*
X87651Y27120D01*
X87651Y25040D01*
X87380Y24769D01*
X86806Y24769D01*
G37*
%LPD*%
%LPC*%
G36*
X84805Y23369D02*
X84805Y23369D01*
X84349Y23460D01*
X84349Y42548D01*
X85251Y42347D01*
X85251Y23369D01*
X84805Y23369D01*
G37*
%LPD*%
%LPC*%
G36*
X110933Y88299D02*
X110933Y88299D01*
X110749Y88759D01*
X110749Y89238D01*
X110941Y89621D01*
X111235Y89915D01*
X111235Y89917D01*
X111236Y89916D01*
X112630Y91410D01*
X113000Y91595D01*
X113371Y91409D01*
X113756Y91025D01*
X113848Y90656D01*
X113656Y90272D01*
X113661Y90246D01*
X113653Y90234D01*
X113753Y89934D01*
X113797Y89904D01*
X113800Y89901D01*
X117288Y89901D01*
X117661Y89714D01*
X117849Y89244D01*
X117754Y88573D01*
X117480Y88299D01*
X110933Y88299D01*
G37*
%LPD*%
%LPC*%
G36*
X87105Y40569D02*
X87105Y40569D01*
X86633Y40664D01*
X86447Y41035D01*
X86351Y41615D01*
X86539Y42084D01*
X86912Y42271D01*
X92985Y42271D01*
X93260Y42088D01*
X93449Y41615D01*
X93353Y41035D01*
X93167Y40664D01*
X92695Y40569D01*
X87105Y40569D01*
G37*
%LPD*%
G36*
X114403Y94707D02*
X114403Y94707D01*
X114410Y94702D01*
X114910Y94802D01*
X114920Y94813D01*
X114930Y94811D01*
X115730Y95411D01*
X115732Y95420D01*
X115739Y95420D01*
X116039Y95820D01*
X116039Y95836D01*
X116048Y95840D01*
X116148Y96340D01*
X116145Y96347D01*
X116149Y96350D01*
X116149Y96850D01*
X116145Y96856D01*
X116148Y96860D01*
X116048Y97360D01*
X116037Y97370D01*
X116039Y97380D01*
X115739Y97780D01*
X115734Y97781D01*
X115735Y97785D01*
X115335Y98185D01*
X115319Y98187D01*
X115316Y98197D01*
X114716Y98397D01*
X114709Y98395D01*
X114704Y98395D01*
X114700Y98399D01*
X113700Y98399D01*
X113694Y98395D01*
X113688Y98395D01*
X113686Y98393D01*
X113682Y98396D01*
X113182Y98196D01*
X113177Y98188D01*
X113170Y98189D01*
X112770Y97889D01*
X112768Y97880D01*
X112761Y97880D01*
X112461Y97480D01*
X112461Y97473D01*
X112460Y97473D01*
X112456Y97472D01*
X112256Y97072D01*
X112259Y97056D01*
X112251Y97050D01*
X112251Y96550D01*
X112255Y96544D01*
X112252Y96540D01*
X112352Y96040D01*
X112359Y96034D01*
X112356Y96028D01*
X112556Y95628D01*
X112562Y95625D01*
X112561Y95620D01*
X112861Y95220D01*
X112874Y95217D01*
X112875Y95208D01*
X113375Y94908D01*
X113385Y94909D01*
X113388Y94902D01*
X113788Y94802D01*
X113791Y94803D01*
X113792Y94801D01*
X114392Y94701D01*
X114403Y94707D01*
G37*
%LPC*%
G36*
X116939Y101480D02*
X116939Y101480D01*
X116915Y101480D01*
X116901Y101499D01*
X111306Y101599D01*
X110934Y101692D01*
X110749Y102062D01*
X110749Y102738D01*
X110934Y103108D01*
X111306Y103201D01*
X116895Y103201D01*
X117381Y103104D01*
X117659Y102918D01*
X117849Y102347D01*
X117755Y101878D01*
X117378Y101595D01*
X116988Y101498D01*
X116973Y101480D01*
X116961Y101480D01*
X116939Y101451D01*
X116939Y101480D01*
G37*
%LPD*%
%LPC*%
G36*
X159290Y81879D02*
X159290Y81879D01*
X159107Y82245D01*
X159010Y82829D01*
X159104Y83297D01*
X159472Y83481D01*
X165548Y83481D01*
X165916Y83297D01*
X166011Y82825D01*
X166011Y82245D01*
X165830Y81974D01*
X165355Y81879D01*
X159290Y81879D01*
G37*
%LPD*%
%LPC*%
G36*
X20039Y67499D02*
X20039Y67499D01*
X19558Y67692D01*
X19173Y68077D01*
X18978Y68661D01*
X18879Y69553D01*
X18879Y70547D01*
X18979Y71344D01*
X18949Y71395D01*
X18944Y71392D01*
X18941Y71398D01*
X18923Y71402D01*
X18928Y71405D01*
X18931Y71405D01*
X18939Y71411D01*
X18974Y71428D01*
X18972Y71433D01*
X18977Y71434D01*
X19173Y72023D01*
X19559Y72409D01*
X19942Y72601D01*
X20414Y72601D01*
X20795Y72315D01*
X21085Y71928D01*
X21281Y71241D01*
X21381Y70248D01*
X21381Y69256D01*
X21183Y68464D01*
X20988Y67880D01*
X20609Y67596D01*
X20125Y67499D01*
X20039Y67499D01*
G37*
%LPD*%
G36*
X46917Y109947D02*
X46917Y109947D01*
X46917Y109948D01*
X46918Y109948D01*
X47018Y110348D01*
X47014Y110356D01*
X47019Y110360D01*
X47019Y113460D01*
X46998Y113488D01*
X46997Y113501D01*
X46697Y113701D01*
X46682Y113700D01*
X46679Y113703D01*
X46675Y113703D01*
X46670Y113709D01*
X46170Y113709D01*
X46164Y113705D01*
X46160Y113708D01*
X45160Y113508D01*
X45150Y113497D01*
X45140Y113499D01*
X44740Y113199D01*
X44738Y113190D01*
X44731Y113190D01*
X44431Y112790D01*
X44431Y112783D01*
X44428Y112781D01*
X44429Y112780D01*
X44424Y112778D01*
X44224Y112278D01*
X44226Y112272D01*
X44222Y112270D01*
X44122Y111770D01*
X44128Y111757D01*
X44122Y111750D01*
X44222Y111250D01*
X44227Y111246D01*
X44224Y111242D01*
X44424Y110742D01*
X44436Y110734D01*
X44435Y110725D01*
X45135Y110025D01*
X45147Y110024D01*
X45148Y110016D01*
X45348Y109916D01*
X45364Y109919D01*
X45370Y109911D01*
X46870Y109911D01*
X46917Y109947D01*
G37*
G36*
X165406Y34245D02*
X165406Y34245D01*
X165410Y34242D01*
X165910Y34342D01*
X165920Y34353D01*
X165930Y34351D01*
X166330Y34651D01*
X166332Y34660D01*
X166339Y34660D01*
X166639Y35060D01*
X166639Y35067D01*
X166644Y35068D01*
X166944Y35668D01*
X166941Y35684D01*
X166949Y35690D01*
X166949Y36690D01*
X166937Y36706D01*
X166941Y36717D01*
X166741Y37017D01*
X166708Y37029D01*
X166700Y37039D01*
X163200Y37039D01*
X163153Y37003D01*
X163158Y36996D01*
X163151Y36990D01*
X163151Y35890D01*
X163156Y35883D01*
X163152Y35878D01*
X163252Y35478D01*
X163261Y35471D01*
X163258Y35465D01*
X163558Y34965D01*
X163561Y34963D01*
X163561Y34960D01*
X163861Y34560D01*
X163879Y34555D01*
X163882Y34544D01*
X164382Y34344D01*
X164388Y34346D01*
X164390Y34342D01*
X164890Y34242D01*
X164897Y34245D01*
X164900Y34241D01*
X165400Y34241D01*
X165406Y34245D01*
G37*
G36*
X114306Y25445D02*
X114306Y25445D01*
X114310Y25442D01*
X114810Y25542D01*
X114814Y25547D01*
X114818Y25544D01*
X115318Y25744D01*
X115326Y25756D01*
X115335Y25755D01*
X116035Y26455D01*
X116036Y26467D01*
X116044Y26468D01*
X116144Y26668D01*
X116141Y26684D01*
X116149Y26690D01*
X116149Y28190D01*
X116113Y28237D01*
X116106Y28232D01*
X116100Y28239D01*
X112600Y28239D01*
X112572Y28218D01*
X112559Y28217D01*
X112359Y27917D01*
X112360Y27897D01*
X112351Y27890D01*
X112351Y27390D01*
X112355Y27384D01*
X112352Y27380D01*
X112552Y26380D01*
X112563Y26370D01*
X112561Y26360D01*
X112861Y25960D01*
X112870Y25958D01*
X112870Y25951D01*
X113270Y25651D01*
X113280Y25651D01*
X113282Y25644D01*
X113782Y25444D01*
X113795Y25448D01*
X113800Y25441D01*
X114300Y25441D01*
X114306Y25445D01*
G37*
%LPC*%
G36*
X47378Y81469D02*
X47378Y81469D01*
X46799Y81662D01*
X46417Y82140D01*
X46320Y82915D01*
X46511Y83488D01*
X47085Y83871D01*
X47658Y83871D01*
X48238Y83581D01*
X48623Y83100D01*
X48719Y82428D01*
X48431Y81852D01*
X47953Y81469D01*
X47378Y81469D01*
G37*
%LPD*%
%LPC*%
G36*
X67673Y81469D02*
X67673Y81469D01*
X66996Y81566D01*
X66617Y82040D01*
X66521Y82712D01*
X66808Y83285D01*
X67280Y83569D01*
X67952Y83473D01*
X68529Y83088D01*
X68718Y82520D01*
X68527Y81947D01*
X68050Y81469D01*
X67673Y81469D01*
G37*
%LPD*%
%LPC*%
G36*
X47438Y67399D02*
X47438Y67399D01*
X46862Y67591D01*
X46482Y68161D01*
X46576Y68726D01*
X47050Y69201D01*
X47821Y69201D01*
X48312Y69004D01*
X48348Y69014D01*
X48360Y69011D01*
X48385Y69030D01*
X48387Y69030D01*
X48386Y69028D01*
X48679Y68442D01*
X48584Y67874D01*
X48110Y67399D01*
X47438Y67399D01*
G37*
%LPD*%
%LPC*%
G36*
X38438Y67399D02*
X38438Y67399D01*
X37865Y67590D01*
X37581Y68158D01*
X37676Y68726D01*
X38150Y69201D01*
X38822Y69201D01*
X39398Y69009D01*
X39776Y68443D01*
X39586Y67874D01*
X39206Y67399D01*
X38438Y67399D01*
G37*
%LPD*%
%LPC*%
G36*
X46883Y71778D02*
X46883Y71778D01*
X46976Y72518D01*
X47535Y72797D01*
X48192Y72610D01*
X48376Y72056D01*
X48100Y71595D01*
X47438Y71501D01*
X46883Y71778D01*
G37*
%LPD*%
%LPC*%
G36*
X37983Y71778D02*
X37983Y71778D01*
X38076Y72518D01*
X38634Y72797D01*
X39195Y72610D01*
X39472Y72056D01*
X39103Y71596D01*
X38538Y71501D01*
X37983Y71778D01*
G37*
%LPD*%
G36*
X165410Y27152D02*
X165410Y27152D01*
X165422Y27146D01*
X165622Y27246D01*
X165632Y27266D01*
X165644Y27275D01*
X165640Y27281D01*
X165641Y27283D01*
X165649Y27290D01*
X165649Y28290D01*
X165647Y28293D01*
X165649Y28297D01*
X165640Y28302D01*
X165613Y28337D01*
X165597Y28325D01*
X165580Y28335D01*
X164680Y27935D01*
X164671Y27918D01*
X164659Y27917D01*
X164459Y27617D01*
X164463Y27558D01*
X164477Y27559D01*
X164480Y27545D01*
X165380Y27145D01*
X165410Y27152D01*
G37*
%LPC*%
G36*
X84349Y42648D02*
X84349Y42648D01*
X84349Y42671D01*
X84985Y42671D01*
X85251Y42494D01*
X85251Y42448D01*
X84349Y42648D01*
G37*
%LPD*%
%LPC*%
G36*
X134607Y103965D02*
X134607Y103965D01*
X134608Y103965D01*
X134607Y103965D01*
X134607Y103965D01*
G37*
%LPD*%
D10*
X69850Y100330D02*
X85090Y100330D01*
X65278Y116078D02*
X65280Y116211D01*
X65286Y116344D01*
X65295Y116476D01*
X65309Y116609D01*
X65326Y116741D01*
X65347Y116872D01*
X65372Y117003D01*
X65401Y117132D01*
X65434Y117261D01*
X65470Y117389D01*
X65510Y117516D01*
X65554Y117642D01*
X65601Y117766D01*
X65652Y117889D01*
X65706Y118010D01*
X65764Y118130D01*
X65826Y118248D01*
X65891Y118364D01*
X65959Y118478D01*
X66030Y118590D01*
X66105Y118700D01*
X66183Y118808D01*
X66264Y118914D01*
X66348Y119017D01*
X66435Y119117D01*
X66524Y119215D01*
X66617Y119311D01*
X66713Y119404D01*
X66811Y119493D01*
X66911Y119580D01*
X67014Y119664D01*
X67120Y119745D01*
X67228Y119823D01*
X67338Y119898D01*
X67450Y119969D01*
X67564Y120037D01*
X67680Y120102D01*
X67798Y120164D01*
X67918Y120222D01*
X68039Y120276D01*
X68162Y120327D01*
X68286Y120374D01*
X68412Y120418D01*
X68539Y120458D01*
X68667Y120494D01*
X68796Y120527D01*
X68925Y120556D01*
X69056Y120581D01*
X69187Y120602D01*
X69319Y120619D01*
X69452Y120633D01*
X69584Y120642D01*
X69717Y120648D01*
X69850Y120650D01*
X85090Y120650D02*
X85223Y120648D01*
X85356Y120642D01*
X85488Y120633D01*
X85621Y120619D01*
X85753Y120602D01*
X85884Y120581D01*
X86015Y120556D01*
X86144Y120527D01*
X86273Y120494D01*
X86401Y120458D01*
X86528Y120418D01*
X86654Y120374D01*
X86778Y120327D01*
X86901Y120276D01*
X87022Y120222D01*
X87142Y120164D01*
X87260Y120102D01*
X87376Y120037D01*
X87490Y119969D01*
X87602Y119898D01*
X87712Y119823D01*
X87820Y119745D01*
X87926Y119664D01*
X88029Y119580D01*
X88129Y119493D01*
X88227Y119404D01*
X88323Y119311D01*
X88416Y119215D01*
X88505Y119117D01*
X88592Y119017D01*
X88676Y118914D01*
X88757Y118808D01*
X88835Y118700D01*
X88910Y118590D01*
X88981Y118478D01*
X89049Y118364D01*
X89114Y118248D01*
X89176Y118130D01*
X89234Y118010D01*
X89288Y117889D01*
X89339Y117766D01*
X89386Y117642D01*
X89430Y117516D01*
X89470Y117389D01*
X89506Y117261D01*
X89539Y117132D01*
X89568Y117003D01*
X89593Y116872D01*
X89614Y116741D01*
X89631Y116609D01*
X89645Y116476D01*
X89654Y116344D01*
X89660Y116211D01*
X89662Y116078D01*
X89662Y104902D02*
X89660Y104769D01*
X89654Y104636D01*
X89645Y104504D01*
X89631Y104371D01*
X89614Y104239D01*
X89593Y104108D01*
X89568Y103977D01*
X89539Y103848D01*
X89506Y103719D01*
X89470Y103591D01*
X89430Y103464D01*
X89386Y103338D01*
X89339Y103214D01*
X89288Y103091D01*
X89234Y102970D01*
X89176Y102850D01*
X89114Y102732D01*
X89049Y102616D01*
X88981Y102502D01*
X88910Y102390D01*
X88835Y102280D01*
X88757Y102172D01*
X88676Y102066D01*
X88592Y101963D01*
X88505Y101863D01*
X88416Y101765D01*
X88323Y101669D01*
X88227Y101576D01*
X88129Y101487D01*
X88029Y101400D01*
X87926Y101316D01*
X87820Y101235D01*
X87712Y101157D01*
X87602Y101082D01*
X87490Y101011D01*
X87376Y100943D01*
X87260Y100878D01*
X87142Y100816D01*
X87022Y100758D01*
X86901Y100704D01*
X86778Y100653D01*
X86654Y100606D01*
X86528Y100562D01*
X86401Y100522D01*
X86273Y100486D01*
X86144Y100453D01*
X86015Y100424D01*
X85884Y100399D01*
X85753Y100378D01*
X85621Y100361D01*
X85488Y100347D01*
X85356Y100338D01*
X85223Y100332D01*
X85090Y100330D01*
X69850Y100330D02*
X69717Y100332D01*
X69584Y100338D01*
X69452Y100347D01*
X69319Y100361D01*
X69187Y100378D01*
X69056Y100399D01*
X68925Y100424D01*
X68796Y100453D01*
X68667Y100486D01*
X68539Y100522D01*
X68412Y100562D01*
X68286Y100606D01*
X68162Y100653D01*
X68039Y100704D01*
X67918Y100758D01*
X67798Y100816D01*
X67680Y100878D01*
X67564Y100943D01*
X67450Y101011D01*
X67338Y101082D01*
X67228Y101157D01*
X67120Y101235D01*
X67014Y101316D01*
X66911Y101400D01*
X66811Y101487D01*
X66713Y101576D01*
X66617Y101669D01*
X66524Y101765D01*
X66435Y101863D01*
X66348Y101963D01*
X66264Y102066D01*
X66183Y102172D01*
X66105Y102280D01*
X66030Y102390D01*
X65959Y102502D01*
X65891Y102616D01*
X65826Y102732D01*
X65764Y102850D01*
X65706Y102970D01*
X65652Y103091D01*
X65601Y103214D01*
X65554Y103338D01*
X65510Y103464D01*
X65470Y103591D01*
X65434Y103719D01*
X65401Y103848D01*
X65372Y103977D01*
X65347Y104108D01*
X65326Y104239D01*
X65309Y104371D01*
X65295Y104504D01*
X65286Y104636D01*
X65280Y104769D01*
X65278Y104902D01*
X65278Y116078D01*
X89662Y116078D02*
X89662Y104902D01*
X85090Y120650D02*
X69850Y120650D01*
X187960Y87630D02*
X187960Y62230D01*
X172212Y57658D02*
X172079Y57660D01*
X171946Y57666D01*
X171814Y57675D01*
X171681Y57689D01*
X171549Y57706D01*
X171418Y57727D01*
X171287Y57752D01*
X171158Y57781D01*
X171029Y57814D01*
X170901Y57850D01*
X170774Y57890D01*
X170648Y57934D01*
X170524Y57981D01*
X170401Y58032D01*
X170280Y58086D01*
X170160Y58144D01*
X170042Y58206D01*
X169926Y58271D01*
X169812Y58339D01*
X169700Y58410D01*
X169590Y58485D01*
X169482Y58563D01*
X169376Y58644D01*
X169273Y58728D01*
X169173Y58815D01*
X169075Y58904D01*
X168979Y58997D01*
X168886Y59093D01*
X168797Y59191D01*
X168710Y59291D01*
X168626Y59394D01*
X168545Y59500D01*
X168467Y59608D01*
X168392Y59718D01*
X168321Y59830D01*
X168253Y59944D01*
X168188Y60060D01*
X168126Y60178D01*
X168068Y60298D01*
X168014Y60419D01*
X167963Y60542D01*
X167916Y60666D01*
X167872Y60792D01*
X167832Y60919D01*
X167796Y61047D01*
X167763Y61176D01*
X167734Y61305D01*
X167709Y61436D01*
X167688Y61567D01*
X167671Y61699D01*
X167657Y61832D01*
X167648Y61964D01*
X167642Y62097D01*
X167640Y62230D01*
X167640Y87630D02*
X167642Y87763D01*
X167648Y87896D01*
X167657Y88028D01*
X167671Y88161D01*
X167688Y88293D01*
X167709Y88424D01*
X167734Y88555D01*
X167763Y88684D01*
X167796Y88813D01*
X167832Y88941D01*
X167872Y89068D01*
X167916Y89194D01*
X167963Y89318D01*
X168014Y89441D01*
X168068Y89562D01*
X168126Y89682D01*
X168188Y89800D01*
X168253Y89916D01*
X168321Y90030D01*
X168392Y90142D01*
X168467Y90252D01*
X168545Y90360D01*
X168626Y90466D01*
X168710Y90569D01*
X168797Y90669D01*
X168886Y90767D01*
X168979Y90863D01*
X169075Y90956D01*
X169173Y91045D01*
X169273Y91132D01*
X169376Y91216D01*
X169482Y91297D01*
X169590Y91375D01*
X169700Y91450D01*
X169812Y91521D01*
X169926Y91589D01*
X170042Y91654D01*
X170160Y91716D01*
X170280Y91774D01*
X170401Y91828D01*
X170524Y91879D01*
X170648Y91926D01*
X170774Y91970D01*
X170901Y92010D01*
X171029Y92046D01*
X171158Y92079D01*
X171287Y92108D01*
X171418Y92133D01*
X171549Y92154D01*
X171681Y92171D01*
X171814Y92185D01*
X171946Y92194D01*
X172079Y92200D01*
X172212Y92202D01*
X183388Y92202D02*
X183521Y92200D01*
X183654Y92194D01*
X183786Y92185D01*
X183919Y92171D01*
X184051Y92154D01*
X184182Y92133D01*
X184313Y92108D01*
X184442Y92079D01*
X184571Y92046D01*
X184699Y92010D01*
X184826Y91970D01*
X184952Y91926D01*
X185076Y91879D01*
X185199Y91828D01*
X185320Y91774D01*
X185440Y91716D01*
X185558Y91654D01*
X185674Y91589D01*
X185788Y91521D01*
X185900Y91450D01*
X186010Y91375D01*
X186118Y91297D01*
X186224Y91216D01*
X186327Y91132D01*
X186427Y91045D01*
X186525Y90956D01*
X186621Y90863D01*
X186714Y90767D01*
X186803Y90669D01*
X186890Y90569D01*
X186974Y90466D01*
X187055Y90360D01*
X187133Y90252D01*
X187208Y90142D01*
X187279Y90030D01*
X187347Y89916D01*
X187412Y89800D01*
X187474Y89682D01*
X187532Y89562D01*
X187586Y89441D01*
X187637Y89318D01*
X187684Y89194D01*
X187728Y89068D01*
X187768Y88941D01*
X187804Y88813D01*
X187837Y88684D01*
X187866Y88555D01*
X187891Y88424D01*
X187912Y88293D01*
X187929Y88161D01*
X187943Y88028D01*
X187952Y87896D01*
X187958Y87763D01*
X187960Y87630D01*
X187960Y62230D02*
X187958Y62097D01*
X187952Y61964D01*
X187943Y61832D01*
X187929Y61699D01*
X187912Y61567D01*
X187891Y61436D01*
X187866Y61305D01*
X187837Y61176D01*
X187804Y61047D01*
X187768Y60919D01*
X187728Y60792D01*
X187684Y60666D01*
X187637Y60542D01*
X187586Y60419D01*
X187532Y60298D01*
X187474Y60178D01*
X187412Y60060D01*
X187347Y59944D01*
X187279Y59830D01*
X187208Y59718D01*
X187133Y59608D01*
X187055Y59500D01*
X186974Y59394D01*
X186890Y59291D01*
X186803Y59191D01*
X186714Y59093D01*
X186621Y58997D01*
X186525Y58904D01*
X186427Y58815D01*
X186327Y58728D01*
X186224Y58644D01*
X186118Y58563D01*
X186010Y58485D01*
X185900Y58410D01*
X185788Y58339D01*
X185674Y58271D01*
X185558Y58206D01*
X185440Y58144D01*
X185320Y58086D01*
X185199Y58032D01*
X185076Y57981D01*
X184952Y57934D01*
X184826Y57890D01*
X184699Y57850D01*
X184571Y57814D01*
X184442Y57781D01*
X184313Y57752D01*
X184182Y57727D01*
X184051Y57706D01*
X183919Y57689D01*
X183786Y57675D01*
X183654Y57666D01*
X183521Y57660D01*
X183388Y57658D01*
X172212Y57658D01*
X172212Y92202D02*
X183388Y92202D01*
X167640Y87630D02*
X167640Y62230D01*
M02*
