G04 EAGLE Gerber RS-274X export*
G75*
%MOMM*%
%FSLAX34Y34*%
%LPD*%
%INSilkscreen Top*%
%IPPOS*%
%AMOC8*
5,1,8,0,0,1.08239X$1,22.5*%
G01*
%ADD10C,0.203200*%
%ADD11C,0.523012*%

G36*
X170028Y20162D02*
X170028Y20162D01*
X170041Y20163D01*
X170241Y20463D01*
X170241Y20469D01*
X170244Y20472D01*
X170240Y20478D01*
X170240Y20483D01*
X170249Y20490D01*
X170249Y46390D01*
X170245Y46396D01*
X170248Y46400D01*
X170048Y47400D01*
X170041Y47406D01*
X170044Y47412D01*
X169845Y47810D01*
X169646Y48308D01*
X169638Y48313D01*
X169639Y48320D01*
X169039Y49120D01*
X169034Y49121D01*
X169035Y49125D01*
X168335Y49825D01*
X168326Y49826D01*
X168325Y49832D01*
X167828Y50131D01*
X167430Y50429D01*
X167420Y50429D01*
X167418Y50436D01*
X166920Y50635D01*
X166522Y50834D01*
X166513Y50832D01*
X166510Y50838D01*
X166010Y50938D01*
X166003Y50935D01*
X166000Y50939D01*
X164500Y50939D01*
X164494Y50935D01*
X164490Y50938D01*
X163490Y50738D01*
X163486Y50733D01*
X163482Y50736D01*
X162982Y50536D01*
X162979Y50531D01*
X162975Y50532D01*
X162477Y50233D01*
X162078Y50034D01*
X162075Y50028D01*
X162070Y50029D01*
X161670Y49729D01*
X161668Y49720D01*
X161661Y49720D01*
X161363Y49322D01*
X160965Y48925D01*
X160964Y48913D01*
X160956Y48912D01*
X160757Y48513D01*
X160458Y48015D01*
X160458Y48012D01*
X160456Y48012D01*
X160256Y47612D01*
X160258Y47603D01*
X160252Y47600D01*
X159952Y46100D01*
X159955Y46093D01*
X159951Y46090D01*
X159951Y22790D01*
X159954Y22785D01*
X159952Y22780D01*
X159962Y22775D01*
X159987Y22743D01*
X159999Y22752D01*
X160000Y22751D01*
X160007Y22751D01*
X159975Y22733D01*
X159961Y22697D01*
X159951Y22690D01*
X159951Y20390D01*
X159972Y20362D01*
X159973Y20349D01*
X160273Y20149D01*
X160293Y20150D01*
X160300Y20141D01*
X170000Y20141D01*
X170028Y20162D01*
G37*
G36*
X119347Y20077D02*
X119347Y20077D01*
X119346Y20079D01*
X119348Y20080D01*
X119448Y20580D01*
X119445Y20587D01*
X119449Y20590D01*
X119449Y48490D01*
X119413Y48537D01*
X119406Y48532D01*
X119400Y48539D01*
X109200Y48539D01*
X109153Y48503D01*
X109158Y48496D01*
X109151Y48490D01*
X109151Y22690D01*
X109156Y22683D01*
X109153Y22674D01*
X109166Y22670D01*
X109187Y22643D01*
X109199Y22652D01*
X109200Y22651D01*
X109202Y22651D01*
X109172Y22631D01*
X109161Y22598D01*
X109151Y22590D01*
X109151Y20090D01*
X109187Y20043D01*
X109194Y20048D01*
X109200Y20041D01*
X119300Y20041D01*
X119347Y20077D01*
G37*
G36*
X144628Y20362D02*
X144628Y20362D01*
X144641Y20363D01*
X144841Y20663D01*
X144841Y20669D01*
X144844Y20672D01*
X144840Y20678D01*
X144840Y20683D01*
X144849Y20690D01*
X144849Y48190D01*
X144813Y48237D01*
X144806Y48232D01*
X144800Y48239D01*
X134700Y48239D01*
X134653Y48203D01*
X134653Y48202D01*
X134652Y48202D01*
X134552Y47802D01*
X134556Y47794D01*
X134551Y47790D01*
X134551Y20490D01*
X134587Y20443D01*
X134588Y20443D01*
X134588Y20442D01*
X134988Y20342D01*
X134996Y20346D01*
X135000Y20341D01*
X144600Y20341D01*
X144628Y20362D01*
G37*
G36*
X195547Y20007D02*
X195547Y20007D01*
X195547Y20008D01*
X195548Y20008D01*
X195648Y20408D01*
X195644Y20416D01*
X195649Y20420D01*
X195649Y43820D01*
X195645Y43826D01*
X195648Y43830D01*
X195448Y44830D01*
X195443Y44834D01*
X195446Y44838D01*
X195046Y45838D01*
X195043Y45840D01*
X195044Y45842D01*
X194844Y46242D01*
X194838Y46245D01*
X194839Y46250D01*
X194239Y47050D01*
X194234Y47051D01*
X194235Y47055D01*
X193835Y47455D01*
X193830Y47456D01*
X193830Y47459D01*
X193430Y47759D01*
X193423Y47759D01*
X193422Y47764D01*
X193023Y47963D01*
X192525Y48262D01*
X192513Y48261D01*
X192510Y48268D01*
X192014Y48367D01*
X191518Y48566D01*
X191505Y48562D01*
X191500Y48569D01*
X191005Y48569D01*
X190510Y48668D01*
X190497Y48662D01*
X190490Y48668D01*
X189995Y48569D01*
X189500Y48569D01*
X189489Y48561D01*
X189482Y48566D01*
X188986Y48367D01*
X188490Y48268D01*
X188484Y48261D01*
X188478Y48264D01*
X188078Y48064D01*
X188077Y48061D01*
X188075Y48062D01*
X187575Y47762D01*
X187573Y47759D01*
X187570Y47759D01*
X187170Y47459D01*
X187168Y47450D01*
X187161Y47450D01*
X186865Y47055D01*
X186470Y46759D01*
X186467Y46746D01*
X186458Y46745D01*
X186158Y46245D01*
X186158Y46242D01*
X186156Y46242D01*
X185956Y45842D01*
X185956Y45840D01*
X185957Y45839D01*
X185954Y45838D01*
X185755Y45340D01*
X185556Y44942D01*
X185558Y44933D01*
X185552Y44930D01*
X185352Y43930D01*
X185355Y43923D01*
X185351Y43920D01*
X185351Y20020D01*
X185387Y19973D01*
X185394Y19978D01*
X185400Y19971D01*
X195500Y19971D01*
X195547Y20007D01*
G37*
G36*
X93828Y20792D02*
X93828Y20792D01*
X93841Y20793D01*
X94041Y21093D01*
X94041Y21099D01*
X94044Y21102D01*
X94040Y21108D01*
X94040Y21113D01*
X94049Y21120D01*
X94049Y47520D01*
X94017Y47563D01*
X94016Y47567D01*
X93716Y47667D01*
X93699Y47661D01*
X93684Y47661D01*
X93678Y47664D01*
X89183Y45467D01*
X88806Y45372D01*
X84222Y47664D01*
X84214Y47663D01*
X84212Y47668D01*
X83812Y47768D01*
X83757Y47744D01*
X83763Y47732D01*
X83753Y47724D01*
X83754Y47722D01*
X83751Y47720D01*
X83751Y20920D01*
X83787Y20873D01*
X83788Y20873D01*
X83788Y20872D01*
X84188Y20772D01*
X84196Y20776D01*
X84200Y20771D01*
X93800Y20771D01*
X93828Y20792D01*
G37*
G36*
X68428Y21092D02*
X68428Y21092D01*
X68441Y21093D01*
X68641Y21393D01*
X68641Y21399D01*
X68644Y21402D01*
X68640Y21408D01*
X68640Y21413D01*
X68649Y21420D01*
X68649Y42720D01*
X68645Y42726D01*
X68648Y42730D01*
X68448Y43730D01*
X68447Y43731D01*
X68448Y43732D01*
X68348Y44132D01*
X68344Y44135D01*
X68346Y44138D01*
X68146Y44638D01*
X68141Y44641D01*
X68142Y44645D01*
X67842Y45145D01*
X67839Y45147D01*
X67839Y45150D01*
X67239Y45950D01*
X67230Y45952D01*
X67230Y45959D01*
X66832Y46257D01*
X66535Y46555D01*
X66526Y46556D01*
X66525Y46562D01*
X66025Y46862D01*
X66022Y46862D01*
X66022Y46864D01*
X65622Y47064D01*
X65619Y47063D01*
X65618Y47066D01*
X64618Y47466D01*
X64606Y47462D01*
X64601Y47469D01*
X64600Y47469D01*
X64105Y47469D01*
X63610Y47568D01*
X63608Y47567D01*
X63602Y47567D01*
X63600Y47569D01*
X63100Y47569D01*
X63097Y47567D01*
X63092Y47567D01*
X63090Y47568D01*
X62090Y47368D01*
X62086Y47363D01*
X62082Y47366D01*
X61582Y47166D01*
X61580Y47163D01*
X61578Y47164D01*
X61180Y46965D01*
X60682Y46766D01*
X60677Y46758D01*
X60670Y46759D01*
X60270Y46459D01*
X60269Y46454D01*
X60265Y46455D01*
X59865Y46055D01*
X59864Y46050D01*
X59861Y46050D01*
X58961Y44850D01*
X58961Y44840D01*
X58954Y44838D01*
X58755Y44340D01*
X58556Y43942D01*
X58557Y43938D01*
X58554Y43936D01*
X58557Y43932D01*
X58552Y43930D01*
X58352Y42930D01*
X58355Y42923D01*
X58351Y42920D01*
X58351Y21320D01*
X58372Y21292D01*
X58373Y21279D01*
X58673Y21079D01*
X58693Y21080D01*
X58700Y21071D01*
X68400Y21071D01*
X68428Y21092D01*
G37*
G36*
X202629Y29901D02*
X202629Y29901D01*
X202691Y29903D01*
X202713Y29916D01*
X202739Y29920D01*
X202810Y29968D01*
X202843Y29986D01*
X202849Y29994D01*
X202859Y30001D01*
X203359Y30501D01*
X203378Y30532D01*
X203416Y30574D01*
X203692Y31034D01*
X204159Y31501D01*
X204167Y31514D01*
X204182Y31527D01*
X204671Y32113D01*
X205859Y33301D01*
X205866Y33312D01*
X205879Y33323D01*
X207069Y34712D01*
X208026Y35668D01*
X208924Y36207D01*
X209421Y36290D01*
X211290Y36290D01*
X211316Y36296D01*
X211353Y36295D01*
X212553Y36495D01*
X212568Y36502D01*
X212590Y36503D01*
X213690Y36803D01*
X213707Y36812D01*
X213731Y36817D01*
X214731Y37217D01*
X214753Y37232D01*
X214786Y37244D01*
X215786Y37844D01*
X215806Y37864D01*
X215840Y37884D01*
X216640Y38584D01*
X216647Y38593D01*
X216659Y38601D01*
X217459Y39401D01*
X217470Y39419D01*
X217490Y39437D01*
X218190Y40337D01*
X218201Y40360D01*
X218222Y40385D01*
X219222Y42185D01*
X219233Y42221D01*
X219258Y42273D01*
X219758Y44173D01*
X219759Y44205D01*
X219770Y44248D01*
X219870Y45948D01*
X219863Y45984D01*
X219864Y46040D01*
X219564Y47640D01*
X219555Y47661D01*
X219551Y47690D01*
X219051Y49190D01*
X219032Y49221D01*
X219011Y49274D01*
X218311Y50374D01*
X218292Y50393D01*
X218274Y50423D01*
X218049Y50676D01*
X217711Y51056D01*
X217474Y51323D01*
X217442Y51345D01*
X217392Y51392D01*
X216592Y51892D01*
X216562Y51903D01*
X216542Y51917D01*
X216507Y51923D01*
X216462Y51943D01*
X216445Y51943D01*
X216428Y51948D01*
X216396Y51944D01*
X216390Y51944D01*
X216382Y51942D01*
X216359Y51939D01*
X216289Y51937D01*
X216274Y51928D01*
X216256Y51926D01*
X216226Y51906D01*
X216221Y51905D01*
X216207Y51893D01*
X216198Y51887D01*
X216137Y51854D01*
X216127Y51839D01*
X216112Y51829D01*
X216096Y51801D01*
X216088Y51795D01*
X216074Y51764D01*
X216037Y51712D01*
X216034Y51693D01*
X216026Y51679D01*
X216024Y51653D01*
X216017Y51636D01*
X216018Y51611D01*
X216010Y51570D01*
X216010Y50732D01*
X215938Y50516D01*
X215878Y50395D01*
X215685Y50202D01*
X215528Y50150D01*
X215337Y50150D01*
X214623Y50329D01*
X214281Y50500D01*
X214010Y50681D01*
X213640Y50958D01*
X213086Y51512D01*
X212743Y52026D01*
X212670Y52317D01*
X212670Y52808D01*
X212742Y53024D01*
X212820Y53179D01*
X212970Y53405D01*
X213291Y53645D01*
X213614Y53807D01*
X214065Y53897D01*
X214072Y53901D01*
X214082Y53901D01*
X214437Y53990D01*
X214900Y53990D01*
X215020Y53930D01*
X215035Y53926D01*
X215048Y53917D01*
X215182Y53891D01*
X215189Y53890D01*
X215190Y53890D01*
X215290Y53890D01*
X215315Y53896D01*
X215341Y53893D01*
X215399Y53915D01*
X215459Y53929D01*
X215479Y53946D01*
X215503Y53955D01*
X215545Y54000D01*
X215592Y54039D01*
X215603Y54063D01*
X215620Y54082D01*
X215638Y54141D01*
X215663Y54198D01*
X215662Y54223D01*
X215670Y54248D01*
X215659Y54309D01*
X215657Y54371D01*
X215644Y54393D01*
X215640Y54419D01*
X215592Y54490D01*
X215574Y54523D01*
X215566Y54529D01*
X215559Y54539D01*
X215459Y54639D01*
X215439Y54651D01*
X215418Y54674D01*
X215018Y54974D01*
X214992Y54986D01*
X214960Y55010D01*
X213560Y55710D01*
X213548Y55713D01*
X213539Y55719D01*
X213510Y55725D01*
X213473Y55741D01*
X212573Y55941D01*
X212539Y55941D01*
X212490Y55950D01*
X211490Y55950D01*
X211462Y55944D01*
X211422Y55944D01*
X210322Y55744D01*
X210287Y55729D01*
X210230Y55711D01*
X210215Y55707D01*
X210212Y55705D01*
X210208Y55704D01*
X209108Y55104D01*
X209088Y55086D01*
X209057Y55070D01*
X208157Y54370D01*
X208137Y54346D01*
X208068Y54272D01*
X207568Y53472D01*
X207556Y53438D01*
X207529Y53390D01*
X207229Y52490D01*
X207226Y52453D01*
X207210Y52370D01*
X207210Y51570D01*
X207217Y51537D01*
X207219Y51488D01*
X207419Y50588D01*
X207436Y50552D01*
X207458Y50485D01*
X207958Y49585D01*
X207980Y49561D01*
X208004Y49520D01*
X208704Y48720D01*
X208705Y48719D01*
X208706Y48717D01*
X209506Y47817D01*
X209514Y47812D01*
X209521Y47801D01*
X210163Y47159D01*
X210410Y46501D01*
X210410Y45932D01*
X210251Y45455D01*
X209930Y45054D01*
X209434Y44723D01*
X208743Y44550D01*
X208028Y44550D01*
X207599Y44636D01*
X207204Y44794D01*
X206686Y45312D01*
X206535Y45539D01*
X206470Y45732D01*
X206470Y46008D01*
X206522Y46165D01*
X206995Y46638D01*
X207210Y46709D01*
X207230Y46722D01*
X207260Y46730D01*
X207660Y46930D01*
X207689Y46954D01*
X207759Y47001D01*
X207859Y47101D01*
X207872Y47122D01*
X207891Y47138D01*
X207917Y47195D01*
X207950Y47248D01*
X207953Y47273D01*
X207963Y47296D01*
X207961Y47359D01*
X207967Y47421D01*
X207958Y47444D01*
X207957Y47469D01*
X207927Y47524D01*
X207905Y47583D01*
X207887Y47600D01*
X207875Y47622D01*
X207805Y47676D01*
X207778Y47700D01*
X207769Y47703D01*
X207760Y47710D01*
X207360Y47910D01*
X207345Y47914D01*
X207332Y47923D01*
X207198Y47949D01*
X207192Y47950D01*
X207191Y47950D01*
X207190Y47950D01*
X205990Y47950D01*
X205964Y47944D01*
X205928Y47945D01*
X205328Y47845D01*
X205322Y47843D01*
X205315Y47843D01*
X204815Y47743D01*
X204789Y47731D01*
X204749Y47723D01*
X204249Y47523D01*
X204218Y47501D01*
X204162Y47474D01*
X203762Y47174D01*
X203758Y47170D01*
X203752Y47167D01*
X203252Y46767D01*
X203235Y46744D01*
X203164Y46666D01*
X202564Y45666D01*
X202552Y45630D01*
X202524Y45574D01*
X202324Y44874D01*
X202323Y44849D01*
X202313Y44817D01*
X202213Y44017D01*
X202215Y43996D01*
X202210Y43970D01*
X202210Y30270D01*
X202216Y30245D01*
X202213Y30219D01*
X202235Y30162D01*
X202249Y30101D01*
X202266Y30081D01*
X202275Y30057D01*
X202320Y30015D01*
X202359Y29968D01*
X202383Y29957D01*
X202402Y29940D01*
X202461Y29922D01*
X202518Y29897D01*
X202543Y29898D01*
X202568Y29890D01*
X202629Y29901D01*
G37*
G36*
X9961Y43362D02*
X9961Y43362D01*
X9965Y43361D01*
X10448Y43408D01*
X10463Y43420D01*
X10483Y43423D01*
X10492Y43443D01*
X10501Y43450D01*
X10499Y43459D01*
X10504Y43471D01*
X10504Y46119D01*
X10498Y46128D01*
X10501Y46139D01*
X10481Y46155D01*
X10467Y46176D01*
X10456Y46175D01*
X10448Y46182D01*
X10405Y46167D01*
X10400Y46166D01*
X10400Y46165D01*
X10399Y46165D01*
X10067Y45856D01*
X9628Y45591D01*
X9135Y45453D01*
X8621Y45440D01*
X8110Y45514D01*
X7627Y45689D01*
X7196Y45967D01*
X6838Y46334D01*
X6565Y46771D01*
X6379Y47253D01*
X6273Y47761D01*
X6236Y48280D01*
X6276Y48799D01*
X6390Y49306D01*
X6587Y49783D01*
X6873Y50211D01*
X7245Y50566D01*
X7688Y50827D01*
X8179Y50983D01*
X8694Y51035D01*
X9207Y50994D01*
X9694Y50834D01*
X10407Y50375D01*
X10413Y50375D01*
X10415Y50371D01*
X10445Y50375D01*
X10475Y50375D01*
X10478Y50380D01*
X10483Y50381D01*
X10504Y50428D01*
X10504Y50905D01*
X10894Y50978D01*
X11931Y50978D01*
X12146Y50857D01*
X12157Y50857D01*
X12171Y50849D01*
X12233Y50843D01*
X12233Y50837D01*
X12223Y50815D01*
X12223Y43434D01*
X12236Y43415D01*
X12239Y43393D01*
X12255Y43385D01*
X12260Y43377D01*
X12270Y43378D01*
X12286Y43371D01*
X29227Y43362D01*
X29230Y43364D01*
X29234Y43363D01*
X30285Y43487D01*
X30289Y43490D01*
X30296Y43489D01*
X30802Y43646D01*
X30803Y43648D01*
X30806Y43647D01*
X31297Y43839D01*
X31299Y43842D01*
X31304Y43843D01*
X31770Y44095D01*
X31771Y44098D01*
X31776Y44099D01*
X32208Y44402D01*
X32209Y44404D01*
X32212Y44405D01*
X32620Y44742D01*
X32622Y44746D01*
X32627Y44749D01*
X32977Y45145D01*
X32977Y45146D01*
X32979Y45147D01*
X33310Y45560D01*
X33311Y45565D01*
X33316Y45569D01*
X33569Y46035D01*
X33569Y46036D01*
X33571Y46038D01*
X33795Y46515D01*
X33795Y46519D01*
X33798Y46523D01*
X33955Y47029D01*
X33955Y47032D01*
X33957Y47035D01*
X34063Y47551D01*
X34062Y47554D01*
X34064Y47558D01*
X34117Y48085D01*
X34116Y48088D01*
X34118Y48093D01*
X34104Y48620D01*
X34103Y48622D01*
X34104Y48624D01*
X34050Y49152D01*
X34048Y49155D01*
X34049Y49161D01*
X33916Y49672D01*
X33915Y49673D01*
X33915Y49675D01*
X33758Y50180D01*
X33754Y50184D01*
X33753Y50191D01*
X33504Y50658D01*
X33503Y50659D01*
X33502Y50661D01*
X33234Y51115D01*
X33230Y51117D01*
X33230Y51120D01*
X33229Y51121D01*
X33228Y51123D01*
X32891Y51532D01*
X32889Y51533D01*
X32887Y51536D01*
X32520Y51914D01*
X32517Y51914D01*
X32515Y51918D01*
X32106Y52256D01*
X32102Y52256D01*
X32099Y52260D01*
X31653Y52541D01*
X31651Y52541D01*
X31649Y52543D01*
X31184Y52796D01*
X31178Y52795D01*
X31173Y52800D01*
X30163Y53115D01*
X30158Y53114D01*
X30151Y53118D01*
X29624Y53171D01*
X29218Y53212D01*
X29215Y53210D01*
X29212Y53212D01*
X9082Y53212D01*
X9080Y53211D01*
X9077Y53212D01*
X8022Y53120D01*
X8018Y53117D01*
X8009Y53118D01*
X6997Y52811D01*
X6994Y52807D01*
X6986Y52807D01*
X6520Y52554D01*
X6519Y52552D01*
X6517Y52552D01*
X6068Y52275D01*
X6066Y52271D01*
X6061Y52270D01*
X5652Y51933D01*
X5651Y51930D01*
X5648Y51929D01*
X5277Y51554D01*
X5276Y51551D01*
X5273Y51550D01*
X4936Y51141D01*
X4935Y51137D01*
X4930Y51134D01*
X4658Y50681D01*
X4658Y50680D01*
X4657Y50679D01*
X4404Y50213D01*
X4404Y50207D01*
X4399Y50201D01*
X4103Y49186D01*
X4105Y49181D01*
X4101Y49174D01*
X4048Y48647D01*
X4049Y48645D01*
X4048Y48643D01*
X4029Y48116D01*
X4031Y48113D01*
X4030Y48108D01*
X4083Y47581D01*
X4084Y47578D01*
X4084Y47575D01*
X4185Y47058D01*
X4187Y47055D01*
X4187Y47051D01*
X4344Y46545D01*
X4347Y46543D01*
X4347Y46538D01*
X4567Y46058D01*
X4569Y46057D01*
X4569Y46055D01*
X4822Y45589D01*
X4826Y45587D01*
X4828Y45580D01*
X5156Y45165D01*
X5157Y45165D01*
X5157Y45163D01*
X5178Y45139D01*
X5233Y45076D01*
X5287Y45014D01*
X5341Y44951D01*
X5396Y44888D01*
X5450Y44825D01*
X5504Y44764D01*
X5505Y44763D01*
X5509Y44761D01*
X5511Y44756D01*
X5920Y44419D01*
X5922Y44419D01*
X5923Y44417D01*
X6353Y44110D01*
X6356Y44110D01*
X6359Y44106D01*
X6825Y43854D01*
X6828Y43854D01*
X6831Y43850D01*
X7321Y43654D01*
X7323Y43655D01*
X7326Y43653D01*
X7831Y43496D01*
X7836Y43497D01*
X7841Y43493D01*
X8364Y43418D01*
X8365Y43419D01*
X8366Y43418D01*
X8893Y43365D01*
X8896Y43366D01*
X8899Y43365D01*
X9959Y43361D01*
X9961Y43362D01*
G37*
G36*
X75388Y93074D02*
X75388Y93074D01*
X75398Y93090D01*
X75409Y93090D01*
X75709Y93490D01*
X75709Y93497D01*
X75711Y93498D01*
X75709Y93499D01*
X75709Y93501D01*
X75716Y93504D01*
X76316Y95203D01*
X76866Y96668D01*
X77723Y93905D01*
X77725Y93904D01*
X77724Y93902D01*
X77924Y93402D01*
X77936Y93394D01*
X77935Y93385D01*
X78335Y92985D01*
X78362Y92982D01*
X78370Y92971D01*
X78870Y92971D01*
X78883Y92980D01*
X78892Y92976D01*
X79292Y93176D01*
X79299Y93190D01*
X79309Y93190D01*
X79609Y93590D01*
X79609Y93596D01*
X79610Y93596D01*
X79609Y93596D01*
X79609Y93601D01*
X79616Y93603D01*
X81516Y98903D01*
X81515Y98909D01*
X81518Y98910D01*
X81618Y99410D01*
X81608Y99431D01*
X81614Y99442D01*
X81414Y99842D01*
X81397Y99851D01*
X81395Y99862D01*
X80895Y100162D01*
X80883Y100161D01*
X80880Y100168D01*
X80380Y100268D01*
X80359Y100258D01*
X80355Y100258D01*
X80352Y100256D01*
X80340Y100259D01*
X79940Y99959D01*
X79935Y99940D01*
X79924Y99936D01*
X78727Y96547D01*
X78691Y96511D01*
X77717Y99336D01*
X77715Y99337D01*
X77716Y99338D01*
X77516Y99838D01*
X77500Y99848D01*
X77500Y99859D01*
X77100Y100159D01*
X77083Y100159D01*
X77083Y100160D01*
X77070Y100160D01*
X77060Y100168D01*
X76560Y100068D01*
X76554Y100061D01*
X76548Y100064D01*
X76148Y99864D01*
X76137Y99842D01*
X76124Y99838D01*
X75924Y99338D01*
X75925Y99337D01*
X75924Y99336D01*
X75923Y99336D01*
X74949Y96511D01*
X74813Y96646D01*
X73917Y99535D01*
X73915Y99536D01*
X73916Y99538D01*
X73716Y100038D01*
X73692Y100053D01*
X73688Y100066D01*
X73188Y100266D01*
X73163Y100259D01*
X73152Y100266D01*
X72652Y100066D01*
X72649Y100061D01*
X72645Y100062D01*
X72145Y99762D01*
X72136Y99741D01*
X72134Y99739D01*
X72123Y99736D01*
X72023Y99436D01*
X72024Y99435D01*
X72023Y99434D01*
X72024Y99432D01*
X72030Y99415D01*
X72023Y99404D01*
X72223Y98804D01*
X74023Y93504D01*
X74033Y93498D01*
X74031Y93490D01*
X74331Y93090D01*
X74349Y93085D01*
X74352Y93074D01*
X74852Y92874D01*
X74877Y92881D01*
X74888Y92874D01*
X75388Y93074D01*
G37*
%LPC*%
G36*
X63305Y27169D02*
X63305Y27169D01*
X62311Y27368D01*
X61915Y27467D01*
X61430Y27661D01*
X61446Y27702D01*
X61445Y27705D01*
X61447Y27706D01*
X61443Y27712D01*
X61430Y27759D01*
X61423Y27757D01*
X61422Y27764D01*
X61029Y27961D01*
X60637Y28352D01*
X60342Y28746D01*
X60145Y29140D01*
X59947Y29634D01*
X59848Y30130D01*
X59751Y30617D01*
X59847Y30904D01*
X59846Y30906D01*
X59847Y30907D01*
X59844Y30912D01*
X59843Y30915D01*
X59849Y30920D01*
X59849Y31411D01*
X60045Y31900D01*
X60243Y32297D01*
X60541Y32792D01*
X60835Y33185D01*
X61230Y33481D01*
X61624Y33777D01*
X62114Y33973D01*
X62610Y34072D01*
X63105Y34171D01*
X63595Y34171D01*
X64090Y34072D01*
X64586Y33973D01*
X65076Y33777D01*
X65470Y33481D01*
X65868Y33183D01*
X66263Y32788D01*
X66558Y32394D01*
X66755Y32000D01*
X66951Y31511D01*
X66951Y31020D01*
X66955Y31014D01*
X66952Y31010D01*
X67050Y30520D01*
X66952Y30030D01*
X66853Y29536D01*
X66657Y29143D01*
X66359Y28648D01*
X66065Y28255D01*
X65670Y27959D01*
X65276Y27663D01*
X64782Y27466D01*
X64780Y27463D01*
X64778Y27464D01*
X64384Y27267D01*
X63895Y27169D01*
X63305Y27169D01*
G37*
%LPD*%
%LPC*%
G36*
X111405Y38639D02*
X111405Y38639D01*
X110933Y38734D01*
X110749Y39102D01*
X110749Y41485D01*
X110848Y41980D01*
X110947Y42476D01*
X111143Y42966D01*
X111439Y43360D01*
X111735Y43755D01*
X112130Y44051D01*
X112524Y44347D01*
X113018Y44544D01*
X113509Y44741D01*
X114991Y44741D01*
X115480Y44545D01*
X115878Y44346D01*
X115881Y44347D01*
X115882Y44344D01*
X116372Y44148D01*
X116763Y43758D01*
X117061Y43360D01*
X117358Y42964D01*
X117555Y42570D01*
X117751Y42081D01*
X117751Y41590D01*
X117752Y41588D01*
X117751Y41588D01*
X117851Y39593D01*
X117754Y39014D01*
X117476Y38735D01*
X116995Y38639D01*
X111405Y38639D01*
G37*
%LPD*%
G36*
X161509Y114470D02*
X161509Y114470D01*
X161518Y114464D01*
X162018Y114664D01*
X162031Y114686D01*
X162044Y114688D01*
X162244Y115088D01*
X162241Y115104D01*
X162249Y115110D01*
X162249Y118491D01*
X162262Y118478D01*
X163560Y116681D01*
X163570Y116678D01*
X163570Y116671D01*
X163970Y116371D01*
X163992Y116371D01*
X164000Y116361D01*
X164500Y116361D01*
X164515Y116372D01*
X164525Y116368D01*
X165025Y116668D01*
X165031Y116681D01*
X165040Y116682D01*
X166351Y118554D01*
X166351Y115610D01*
X166355Y115604D01*
X166352Y115600D01*
X166452Y115100D01*
X166459Y115094D01*
X166456Y115088D01*
X166656Y114688D01*
X166683Y114675D01*
X166688Y114662D01*
X167088Y114562D01*
X167096Y114566D01*
X167100Y114561D01*
X167700Y114561D01*
X167716Y114573D01*
X167727Y114569D01*
X168027Y114769D01*
X168033Y114787D01*
X168037Y114789D01*
X168046Y114792D01*
X168246Y115292D01*
X168242Y115305D01*
X168249Y115310D01*
X168249Y121010D01*
X168244Y121017D01*
X168248Y121022D01*
X168148Y121422D01*
X168133Y121434D01*
X168135Y121445D01*
X167835Y121745D01*
X167811Y121748D01*
X167810Y121750D01*
X167807Y121750D01*
X167800Y121759D01*
X167100Y121759D01*
X167089Y121751D01*
X167082Y121756D01*
X166582Y121556D01*
X166573Y121541D01*
X166562Y121541D01*
X165662Y120441D01*
X165662Y120439D01*
X165660Y120439D01*
X164567Y118949D01*
X164215Y118772D01*
X162139Y121540D01*
X162121Y121545D01*
X162118Y121556D01*
X161618Y121756D01*
X161605Y121752D01*
X161600Y121759D01*
X161000Y121759D01*
X160987Y121750D01*
X160978Y121754D01*
X160578Y121554D01*
X160565Y121527D01*
X160561Y121524D01*
X160552Y121520D01*
X160452Y121020D01*
X160455Y121013D01*
X160451Y121010D01*
X160451Y114910D01*
X160467Y114889D01*
X160465Y114875D01*
X160765Y114575D01*
X160787Y114572D01*
X160793Y114561D01*
X161493Y114461D01*
X161509Y114470D01*
G37*
%LPC*%
G36*
X167523Y29934D02*
X167523Y29934D01*
X167509Y29927D01*
X167500Y29939D01*
X162012Y29939D01*
X161644Y30123D01*
X161549Y30595D01*
X161549Y32985D01*
X161647Y33474D01*
X161844Y33868D01*
X161843Y33871D01*
X161846Y33872D01*
X162043Y34366D01*
X162337Y34758D01*
X162732Y35153D01*
X163126Y35448D01*
X163520Y35645D01*
X164014Y35843D01*
X164510Y35942D01*
X165000Y36040D01*
X165490Y35942D01*
X165990Y35842D01*
X166475Y35745D01*
X166458Y35715D01*
X166465Y35656D01*
X166476Y35657D01*
X166478Y35646D01*
X166877Y35447D01*
X167370Y35151D01*
X168058Y34462D01*
X168254Y33972D01*
X168257Y33970D01*
X168256Y33968D01*
X168453Y33574D01*
X168552Y33080D01*
X168651Y32586D01*
X168551Y30496D01*
X168458Y30030D01*
X168094Y29939D01*
X167600Y29939D01*
X167553Y29903D01*
X167552Y29903D01*
X167547Y29882D01*
X167523Y29934D01*
G37*
%LPD*%
%LPC*%
G36*
X189905Y29569D02*
X189905Y29569D01*
X189414Y29667D01*
X188918Y29866D01*
X188424Y30063D01*
X188032Y30357D01*
X187739Y30651D01*
X187442Y31145D01*
X187439Y31147D01*
X187439Y31150D01*
X187143Y31544D01*
X186947Y32034D01*
X186848Y32530D01*
X186750Y33020D01*
X186848Y33510D01*
X186845Y33517D01*
X186849Y33520D01*
X186849Y34011D01*
X187045Y34500D01*
X187242Y34894D01*
X187535Y35285D01*
X187912Y35567D01*
X188376Y35475D01*
X188759Y35091D01*
X188948Y34714D01*
X188855Y34342D01*
X188561Y33950D01*
X188561Y33934D01*
X188552Y33930D01*
X188452Y33430D01*
X188455Y33423D01*
X188451Y33420D01*
X188451Y32820D01*
X188456Y32813D01*
X188452Y32808D01*
X188552Y32408D01*
X188561Y32401D01*
X188558Y32395D01*
X188858Y31895D01*
X188861Y31893D01*
X188861Y31890D01*
X189161Y31490D01*
X189179Y31485D01*
X189182Y31474D01*
X189682Y31274D01*
X189688Y31276D01*
X189690Y31272D01*
X190190Y31172D01*
X190197Y31175D01*
X190200Y31171D01*
X190700Y31171D01*
X190706Y31175D01*
X190710Y31172D01*
X191210Y31272D01*
X191220Y31283D01*
X191230Y31281D01*
X191630Y31581D01*
X191631Y31586D01*
X191635Y31585D01*
X192035Y31985D01*
X192036Y31997D01*
X192044Y31998D01*
X192244Y32398D01*
X192242Y32407D01*
X192248Y32410D01*
X192348Y32910D01*
X192345Y32917D01*
X192349Y32920D01*
X192349Y33420D01*
X192345Y33426D01*
X192348Y33430D01*
X192248Y33930D01*
X192238Y33939D01*
X192241Y33947D01*
X192044Y34243D01*
X191852Y34722D01*
X191942Y34991D01*
X192427Y35378D01*
X192822Y35576D01*
X192838Y35608D01*
X192849Y35614D01*
X193049Y37314D01*
X193019Y37366D01*
X193008Y37359D01*
X193000Y37369D01*
X187415Y37369D01*
X187138Y37554D01*
X186949Y37932D01*
X186949Y38600D01*
X187224Y38875D01*
X187705Y38971D01*
X192600Y38971D01*
X192647Y39007D01*
X192642Y39013D01*
X192647Y39017D01*
X192647Y39018D01*
X192649Y39020D01*
X192649Y41615D01*
X192744Y42090D01*
X193018Y42273D01*
X193587Y42368D01*
X193955Y42092D01*
X194051Y41615D01*
X194051Y38029D01*
X193860Y37553D01*
X193585Y37369D01*
X193100Y37369D01*
X193053Y37333D01*
X193056Y37329D01*
X193051Y37326D01*
X192851Y35626D01*
X192870Y35593D01*
X192870Y35581D01*
X193265Y35285D01*
X193558Y34894D01*
X193755Y34500D01*
X193951Y34011D01*
X193951Y32525D01*
X193853Y32034D01*
X193657Y31544D01*
X193361Y31150D01*
X193063Y30752D01*
X192668Y30357D01*
X192274Y30062D01*
X191880Y29865D01*
X191386Y29667D01*
X190895Y29569D01*
X189905Y29569D01*
G37*
%LPD*%
G36*
X199803Y114467D02*
X199803Y114467D01*
X199810Y114462D01*
X200810Y114662D01*
X200816Y114669D01*
X200822Y114666D01*
X201222Y114866D01*
X201227Y114876D01*
X201235Y114875D01*
X201935Y115575D01*
X201936Y115587D01*
X201944Y115588D01*
X202144Y115988D01*
X202143Y115991D01*
X202146Y115992D01*
X202346Y116492D01*
X202344Y116497D01*
X202348Y116498D01*
X202448Y116898D01*
X202447Y116901D01*
X202449Y116902D01*
X202649Y118102D01*
X202646Y118107D01*
X202649Y118110D01*
X202649Y118610D01*
X202645Y118616D01*
X202648Y118620D01*
X202348Y120120D01*
X202343Y120124D01*
X202346Y120128D01*
X202146Y120628D01*
X202138Y120633D01*
X202139Y120640D01*
X201539Y121440D01*
X201526Y121443D01*
X201525Y121452D01*
X201025Y121752D01*
X201022Y121752D01*
X201022Y121754D01*
X200622Y121954D01*
X200613Y121952D01*
X200610Y121958D01*
X200110Y122058D01*
X200098Y122053D01*
X200092Y122059D01*
X199492Y121959D01*
X199491Y121958D01*
X199490Y121958D01*
X198990Y121858D01*
X198984Y121851D01*
X198978Y121854D01*
X198580Y121655D01*
X198082Y121456D01*
X198071Y121438D01*
X198059Y121437D01*
X197859Y121137D01*
X197859Y121133D01*
X197856Y121132D01*
X197456Y120332D01*
X197457Y120329D01*
X197454Y120328D01*
X197254Y119828D01*
X197256Y119822D01*
X197252Y119820D01*
X197052Y118820D01*
X197055Y118813D01*
X197051Y118810D01*
X197051Y117710D01*
X197055Y117704D01*
X197052Y117700D01*
X197352Y116200D01*
X197361Y116192D01*
X197358Y116185D01*
X197657Y115687D01*
X197856Y115288D01*
X197870Y115281D01*
X197870Y115271D01*
X198270Y114971D01*
X198280Y114971D01*
X198282Y114964D01*
X198780Y114765D01*
X199178Y114566D01*
X199189Y114568D01*
X199192Y114561D01*
X199792Y114461D01*
X199803Y114467D01*
G37*
G36*
X88182Y92972D02*
X88182Y92972D01*
X88190Y92982D01*
X88197Y92979D01*
X88797Y93379D01*
X88802Y93392D01*
X88811Y93393D01*
X89011Y93693D01*
X89009Y93727D01*
X89016Y93738D01*
X88816Y94237D01*
X88717Y94536D01*
X88715Y94537D01*
X88716Y94538D01*
X88316Y95537D01*
X88225Y95811D01*
X88509Y96190D01*
X88509Y96194D01*
X88512Y96195D01*
X88812Y96695D01*
X88812Y96698D01*
X88813Y96699D01*
X88812Y96700D01*
X88811Y96705D01*
X88818Y96708D01*
X88918Y97108D01*
X88914Y97116D01*
X88919Y97120D01*
X88919Y97720D01*
X88915Y97726D01*
X88918Y97730D01*
X88718Y98730D01*
X88707Y98740D01*
X88709Y98750D01*
X88409Y99150D01*
X88404Y99151D01*
X88405Y99155D01*
X88005Y99555D01*
X88000Y99556D01*
X88000Y99559D01*
X87600Y99859D01*
X87590Y99859D01*
X87588Y99866D01*
X87088Y100066D01*
X87083Y100064D01*
X87082Y100068D01*
X86682Y100168D01*
X86680Y100167D01*
X86680Y100168D01*
X86180Y100268D01*
X86173Y100265D01*
X86170Y100269D01*
X84070Y100269D01*
X84059Y100261D01*
X84052Y100266D01*
X83552Y100066D01*
X83539Y100044D01*
X83526Y100042D01*
X83326Y99642D01*
X83327Y99635D01*
X83323Y99631D01*
X83327Y99625D01*
X83321Y99620D01*
X83321Y93520D01*
X83330Y93507D01*
X83326Y93498D01*
X83526Y93098D01*
X83554Y93084D01*
X83560Y93072D01*
X84060Y92972D01*
X84072Y92977D01*
X84078Y92971D01*
X84678Y93071D01*
X84688Y93082D01*
X84697Y93079D01*
X84997Y93279D01*
X85004Y93297D01*
X85008Y93301D01*
X85006Y93304D01*
X85018Y93310D01*
X85118Y93810D01*
X85115Y93817D01*
X85119Y93820D01*
X85119Y94790D01*
X85482Y94971D01*
X86444Y94971D01*
X86826Y94397D01*
X87325Y93201D01*
X87340Y93192D01*
X87340Y93181D01*
X87740Y92881D01*
X87771Y92881D01*
X87782Y92872D01*
X88182Y92972D01*
G37*
G36*
X186810Y114662D02*
X186810Y114662D01*
X186814Y114667D01*
X186818Y114664D01*
X187318Y114864D01*
X187323Y114872D01*
X187330Y114871D01*
X187730Y115171D01*
X187731Y115176D01*
X187735Y115175D01*
X188135Y115575D01*
X188136Y115587D01*
X188144Y115588D01*
X188344Y115988D01*
X188343Y115991D01*
X188346Y115992D01*
X188546Y116492D01*
X188542Y116505D01*
X188549Y116510D01*
X188549Y117310D01*
X188540Y117323D01*
X188544Y117332D01*
X188344Y117732D01*
X188341Y117733D01*
X188342Y117735D01*
X188042Y118235D01*
X188041Y118236D01*
X188041Y118237D01*
X187857Y118514D01*
X188043Y118887D01*
X188342Y119385D01*
X188340Y119403D01*
X188349Y119410D01*
X188349Y119910D01*
X188345Y119916D01*
X188348Y119920D01*
X188148Y120920D01*
X188133Y120933D01*
X188135Y120945D01*
X187435Y121645D01*
X187421Y121647D01*
X187418Y121656D01*
X186418Y122056D01*
X186405Y122052D01*
X186400Y122059D01*
X185400Y122059D01*
X185389Y122051D01*
X185382Y122056D01*
X184882Y121856D01*
X184877Y121848D01*
X184870Y121849D01*
X184070Y121249D01*
X184068Y121240D01*
X184061Y121240D01*
X183761Y120840D01*
X183761Y120831D01*
X183758Y120829D01*
X183754Y120828D01*
X183554Y120328D01*
X183558Y120315D01*
X183551Y120310D01*
X183551Y119310D01*
X183562Y119295D01*
X183558Y119285D01*
X183858Y118785D01*
X183859Y118784D01*
X183859Y118783D01*
X184037Y118516D01*
X183765Y118245D01*
X183764Y118236D01*
X183758Y118235D01*
X183458Y117735D01*
X183459Y117729D01*
X183453Y117725D01*
X183456Y117722D01*
X183452Y117720D01*
X183352Y117220D01*
X183355Y117213D01*
X183351Y117210D01*
X183351Y116710D01*
X183355Y116704D01*
X183352Y116700D01*
X183452Y116200D01*
X183457Y116196D01*
X183454Y116192D01*
X183654Y115692D01*
X183662Y115687D01*
X183661Y115680D01*
X183961Y115280D01*
X183970Y115278D01*
X183970Y115271D01*
X184370Y114971D01*
X184380Y114971D01*
X184382Y114964D01*
X184880Y114765D01*
X185278Y114566D01*
X185287Y114568D01*
X185290Y114562D01*
X185790Y114462D01*
X185803Y114468D01*
X185810Y114462D01*
X186810Y114662D01*
G37*
G36*
X180110Y114662D02*
X180110Y114662D01*
X180114Y114667D01*
X180118Y114664D01*
X180618Y114864D01*
X180623Y114872D01*
X180630Y114871D01*
X181030Y115171D01*
X181031Y115176D01*
X181035Y115175D01*
X181435Y115575D01*
X181436Y115587D01*
X181444Y115588D01*
X181644Y115988D01*
X181643Y115991D01*
X181646Y115992D01*
X181846Y116492D01*
X181842Y116505D01*
X181849Y116510D01*
X181849Y117310D01*
X181840Y117323D01*
X181844Y117332D01*
X181644Y117732D01*
X181641Y117733D01*
X181642Y117735D01*
X181342Y118235D01*
X181334Y118239D01*
X181335Y118245D01*
X181065Y118515D01*
X181339Y118880D01*
X181339Y118884D01*
X181342Y118885D01*
X181642Y119385D01*
X181640Y119403D01*
X181649Y119410D01*
X181649Y119910D01*
X181645Y119916D01*
X181648Y119920D01*
X181548Y120420D01*
X181543Y120424D01*
X181546Y120428D01*
X181346Y120928D01*
X181338Y120933D01*
X181339Y120940D01*
X181039Y121340D01*
X181030Y121342D01*
X181030Y121349D01*
X180630Y121649D01*
X180623Y121649D01*
X180622Y121654D01*
X180222Y121854D01*
X180219Y121853D01*
X180218Y121856D01*
X179718Y122056D01*
X179705Y122052D01*
X179700Y122059D01*
X178700Y122059D01*
X178689Y122051D01*
X178682Y122056D01*
X178182Y121856D01*
X178177Y121848D01*
X178170Y121849D01*
X177370Y121249D01*
X177368Y121240D01*
X177361Y121240D01*
X177061Y120840D01*
X177061Y120831D01*
X177058Y120829D01*
X177054Y120828D01*
X176854Y120328D01*
X176858Y120315D01*
X176851Y120310D01*
X176851Y119310D01*
X176862Y119295D01*
X176858Y119285D01*
X177158Y118785D01*
X177159Y118784D01*
X177159Y118783D01*
X177337Y118516D01*
X177065Y118245D01*
X177064Y118236D01*
X177058Y118235D01*
X176758Y117735D01*
X176759Y117729D01*
X176753Y117725D01*
X176756Y117722D01*
X176752Y117720D01*
X176652Y117220D01*
X176655Y117213D01*
X176651Y117210D01*
X176651Y116710D01*
X176655Y116704D01*
X176652Y116700D01*
X176752Y116200D01*
X176757Y116196D01*
X176754Y116192D01*
X176954Y115692D01*
X176962Y115687D01*
X176961Y115680D01*
X177261Y115280D01*
X177270Y115278D01*
X177270Y115271D01*
X177670Y114971D01*
X177677Y114971D01*
X177678Y114966D01*
X178078Y114766D01*
X178081Y114767D01*
X178082Y114764D01*
X178582Y114564D01*
X178588Y114566D01*
X178590Y114562D01*
X179090Y114462D01*
X179103Y114468D01*
X179110Y114462D01*
X180110Y114662D01*
G37*
%LPC*%
G36*
X62905Y35769D02*
X62905Y35769D01*
X62410Y35868D01*
X62403Y35865D01*
X62400Y35869D01*
X61912Y35869D01*
X61522Y36064D01*
X61519Y36063D01*
X61518Y36066D01*
X61020Y36265D01*
X60626Y36462D01*
X60241Y36751D01*
X60046Y37238D01*
X60043Y37240D01*
X60044Y37242D01*
X59847Y37636D01*
X59748Y38130D01*
X59650Y38620D01*
X59747Y39106D01*
X59943Y39596D01*
X60237Y39988D01*
X60629Y40379D01*
X61020Y40575D01*
X61518Y40774D01*
X62014Y40973D01*
X62505Y41071D01*
X64095Y41071D01*
X65084Y40873D01*
X65478Y40676D01*
X65874Y40478D01*
X66268Y40183D01*
X66561Y39890D01*
X66853Y39402D01*
X66952Y38910D01*
X67050Y38420D01*
X66952Y37930D01*
X66853Y37438D01*
X66561Y36951D01*
X66268Y36657D01*
X65874Y36362D01*
X65480Y36165D01*
X64985Y35967D01*
X64590Y35868D01*
X63996Y35769D01*
X62905Y35769D01*
G37*
%LPD*%
G36*
X66677Y92971D02*
X66677Y92971D01*
X66692Y92987D01*
X66705Y92985D01*
X67005Y93285D01*
X67006Y93297D01*
X67011Y93301D01*
X67009Y93304D01*
X67018Y93308D01*
X67118Y93708D01*
X67114Y93716D01*
X67119Y93720D01*
X67119Y94785D01*
X67378Y94871D01*
X68370Y94871D01*
X68376Y94875D01*
X68380Y94872D01*
X68880Y94972D01*
X68886Y94979D01*
X68892Y94976D01*
X69292Y95176D01*
X69314Y95220D01*
X69327Y95197D01*
X69381Y95172D01*
X69384Y95180D01*
X69392Y95176D01*
X69792Y95376D01*
X69797Y95386D01*
X69805Y95385D01*
X70205Y95785D01*
X70206Y95790D01*
X70209Y95790D01*
X70509Y96190D01*
X70509Y96197D01*
X70514Y96198D01*
X70714Y96598D01*
X70714Y96600D01*
X70713Y96602D01*
X70712Y96607D01*
X70718Y96610D01*
X70918Y97610D01*
X70915Y97617D01*
X70919Y97620D01*
X70919Y98120D01*
X70910Y98133D01*
X70914Y98142D01*
X70614Y98742D01*
X70608Y98745D01*
X70609Y98750D01*
X70309Y99150D01*
X70304Y99151D01*
X70305Y99155D01*
X69905Y99555D01*
X69900Y99556D01*
X69900Y99559D01*
X69500Y99859D01*
X69490Y99859D01*
X69488Y99866D01*
X68988Y100066D01*
X68982Y100064D01*
X68980Y100068D01*
X68480Y100168D01*
X68473Y100165D01*
X68470Y100169D01*
X65870Y100169D01*
X65857Y100160D01*
X65848Y100164D01*
X65448Y99964D01*
X65438Y99944D01*
X65426Y99942D01*
X65226Y99542D01*
X65227Y99536D01*
X65223Y99533D01*
X65228Y99526D01*
X65221Y99520D01*
X65221Y94020D01*
X65224Y94015D01*
X65221Y94012D01*
X65321Y93412D01*
X65326Y93408D01*
X65323Y93404D01*
X65423Y93104D01*
X65448Y93087D01*
X65452Y93074D01*
X65952Y92874D01*
X65969Y92879D01*
X65977Y92871D01*
X66677Y92971D01*
G37*
%LPC*%
G36*
X86812Y27069D02*
X86812Y27069D01*
X86444Y27253D01*
X86350Y27720D01*
X86447Y28204D01*
X86639Y28587D01*
X90429Y31380D01*
X90431Y31386D01*
X90436Y31387D01*
X90434Y31398D01*
X90446Y31437D01*
X90426Y31443D01*
X90422Y31464D01*
X90222Y31564D01*
X90206Y31561D01*
X90200Y31569D01*
X87105Y31569D01*
X86624Y31665D01*
X86445Y31844D01*
X86350Y32320D01*
X86445Y32796D01*
X86724Y33075D01*
X87205Y33171D01*
X92795Y33171D01*
X93260Y33078D01*
X93352Y32710D01*
X93449Y32028D01*
X93261Y31653D01*
X89471Y28860D01*
X89454Y28803D01*
X89467Y28799D01*
X89465Y28785D01*
X89565Y28685D01*
X89592Y28682D01*
X89600Y28671D01*
X92694Y28671D01*
X93075Y28576D01*
X93354Y28296D01*
X93449Y27725D01*
X93261Y27256D01*
X92888Y27069D01*
X86812Y27069D01*
G37*
%LPD*%
G36*
X194605Y114464D02*
X194605Y114464D01*
X194608Y114461D01*
X195208Y114561D01*
X195218Y114572D01*
X195227Y114569D01*
X195527Y114769D01*
X195533Y114787D01*
X195541Y114792D01*
X195538Y114795D01*
X195548Y114800D01*
X195648Y115300D01*
X195645Y115307D01*
X195649Y115310D01*
X195649Y115910D01*
X195633Y115931D01*
X195635Y115945D01*
X195335Y116245D01*
X195314Y116248D01*
X195308Y116259D01*
X194708Y116359D01*
X194703Y116356D01*
X194700Y116359D01*
X193220Y116359D01*
X193183Y116397D01*
X193522Y116566D01*
X193922Y116766D01*
X193925Y116773D01*
X193931Y116772D01*
X194431Y117172D01*
X194433Y117180D01*
X194439Y117180D01*
X195039Y117980D01*
X195039Y117989D01*
X195041Y117990D01*
X195046Y117992D01*
X195246Y118492D01*
X195244Y118498D01*
X195248Y118500D01*
X195348Y119000D01*
X195345Y119007D01*
X195349Y119010D01*
X195349Y119510D01*
X195345Y119516D01*
X195348Y119520D01*
X195248Y120020D01*
X195241Y120026D01*
X195244Y120032D01*
X195044Y120432D01*
X195038Y120435D01*
X195039Y120440D01*
X194439Y121240D01*
X194430Y121242D01*
X194430Y121249D01*
X194030Y121549D01*
X194020Y121549D01*
X194018Y121556D01*
X193518Y121756D01*
X193512Y121754D01*
X193510Y121758D01*
X193010Y121858D01*
X193003Y121855D01*
X193000Y121859D01*
X192500Y121859D01*
X192494Y121855D01*
X192490Y121858D01*
X191490Y121658D01*
X191480Y121647D01*
X191470Y121649D01*
X191070Y121349D01*
X191069Y121344D01*
X191065Y121345D01*
X190665Y120945D01*
X190664Y120940D01*
X190661Y120940D01*
X190361Y120540D01*
X190361Y120533D01*
X190360Y120533D01*
X190356Y120532D01*
X190156Y120132D01*
X190158Y120123D01*
X190152Y120120D01*
X190052Y119620D01*
X190055Y119613D01*
X190051Y119610D01*
X190051Y118610D01*
X190076Y118577D01*
X190078Y118566D01*
X190478Y118366D01*
X190489Y118368D01*
X190492Y118361D01*
X191092Y118261D01*
X191103Y118267D01*
X191110Y118262D01*
X191610Y118362D01*
X191631Y118385D01*
X191644Y118388D01*
X191844Y118788D01*
X191841Y118804D01*
X191849Y118810D01*
X191849Y119301D01*
X192041Y119779D01*
X192413Y120058D01*
X192985Y119963D01*
X193361Y119774D01*
X193548Y119307D01*
X193454Y118929D01*
X193163Y118444D01*
X192770Y118149D01*
X192372Y117851D01*
X191074Y117052D01*
X191073Y117049D01*
X191070Y117049D01*
X190670Y116749D01*
X190668Y116740D01*
X190661Y116740D01*
X190061Y115940D01*
X190061Y115918D01*
X190051Y115910D01*
X190051Y115410D01*
X190055Y115404D01*
X190052Y115400D01*
X190152Y114900D01*
X190170Y114884D01*
X190170Y114871D01*
X190570Y114571D01*
X190586Y114571D01*
X190590Y114562D01*
X191090Y114462D01*
X191097Y114465D01*
X191100Y114461D01*
X194600Y114461D01*
X194605Y114464D01*
G37*
%LPC*%
G36*
X14825Y45497D02*
X14825Y45497D01*
X14553Y45796D01*
X12767Y50774D01*
X12761Y50779D01*
X12761Y50787D01*
X12735Y50804D01*
X12749Y50801D01*
X12769Y50822D01*
X12780Y50828D01*
X12780Y50833D01*
X12785Y50839D01*
X12832Y50978D01*
X14336Y50978D01*
X14521Y50583D01*
X15420Y47540D01*
X15429Y47532D01*
X15429Y47531D01*
X15430Y47524D01*
X15434Y47522D01*
X15442Y47507D01*
X15591Y47396D01*
X15623Y47394D01*
X15655Y47389D01*
X15657Y47391D01*
X15659Y47391D01*
X15662Y47398D01*
X15689Y47429D01*
X16708Y50948D01*
X17167Y50978D01*
X18198Y50978D01*
X18466Y50698D01*
X19354Y47663D01*
X19356Y47660D01*
X19356Y47656D01*
X19505Y47299D01*
X19517Y47291D01*
X19522Y47276D01*
X19543Y47273D01*
X19561Y47261D01*
X19574Y47269D01*
X19589Y47266D01*
X19609Y47290D01*
X19619Y47296D01*
X19619Y47301D01*
X19623Y47306D01*
X20664Y50833D01*
X21034Y50978D01*
X22069Y50978D01*
X22273Y50892D01*
X22282Y50894D01*
X22289Y50891D01*
X22297Y50891D01*
X22306Y50888D01*
X22314Y50889D01*
X22310Y50886D01*
X20535Y45955D01*
X20254Y45497D01*
X18736Y45497D01*
X18522Y45858D01*
X17588Y48888D01*
X17575Y48899D01*
X17571Y48915D01*
X17551Y48919D01*
X17536Y48932D01*
X17520Y48924D01*
X17504Y48928D01*
X17485Y48908D01*
X17474Y48902D01*
X17473Y48895D01*
X17468Y48890D01*
X17311Y48436D01*
X17311Y48435D01*
X17310Y48434D01*
X16524Y45909D01*
X16345Y45497D01*
X14825Y45497D01*
G37*
%LPD*%
%LPC*%
G36*
X111406Y30939D02*
X111406Y30939D01*
X111029Y31034D01*
X110749Y31406D01*
X110749Y31881D01*
X110941Y32359D01*
X114129Y34750D01*
X114727Y35149D01*
X114733Y35166D01*
X114744Y35168D01*
X114844Y35368D01*
X114843Y35373D01*
X114847Y35377D01*
X114841Y35385D01*
X114833Y35426D01*
X114813Y35423D01*
X114800Y35439D01*
X111223Y35439D01*
X110749Y36008D01*
X110749Y36478D01*
X110937Y36853D01*
X111312Y37041D01*
X116900Y37041D01*
X116947Y37077D01*
X116943Y37083D01*
X116949Y37087D01*
X116951Y37111D01*
X116951Y37090D01*
X116987Y37043D01*
X116994Y37048D01*
X117000Y37041D01*
X117384Y37041D01*
X117755Y36762D01*
X117850Y36191D01*
X117755Y35714D01*
X117368Y35327D01*
X113770Y32629D01*
X113767Y32618D01*
X113756Y32612D01*
X113762Y32600D01*
X113754Y32572D01*
X113779Y32565D01*
X113790Y32542D01*
X114290Y32442D01*
X114297Y32445D01*
X114300Y32441D01*
X117294Y32441D01*
X117658Y32350D01*
X117751Y31885D01*
X117751Y31210D01*
X117480Y30939D01*
X111406Y30939D01*
G37*
%LPD*%
%LPC*%
G36*
X113505Y22939D02*
X113505Y22939D01*
X113016Y23037D01*
X112623Y23233D01*
X112128Y23531D01*
X111732Y23827D01*
X111435Y24125D01*
X111411Y24128D01*
X111411Y24129D01*
X111408Y24129D01*
X111399Y24130D01*
X111428Y24149D01*
X111447Y24206D01*
X111436Y24209D01*
X111439Y24220D01*
X111139Y24620D01*
X110843Y25014D01*
X110647Y25504D01*
X110549Y25995D01*
X110549Y26984D01*
X110647Y27375D01*
X110846Y27872D01*
X111043Y28366D01*
X111332Y28751D01*
X111702Y28936D01*
X112172Y28748D01*
X112556Y28365D01*
X112648Y27995D01*
X112255Y27110D01*
X112257Y27101D01*
X112251Y27098D01*
X112151Y26498D01*
X112157Y26487D01*
X112152Y26480D01*
X112252Y25980D01*
X112259Y25974D01*
X112256Y25968D01*
X112456Y25568D01*
X112462Y25565D01*
X112461Y25560D01*
X112761Y25160D01*
X112766Y25159D01*
X112765Y25155D01*
X113065Y24855D01*
X113079Y24853D01*
X113082Y24844D01*
X113582Y24644D01*
X113588Y24646D01*
X113590Y24642D01*
X114090Y24542D01*
X114103Y24548D01*
X114110Y24542D01*
X114610Y24642D01*
X114614Y24647D01*
X114618Y24644D01*
X115118Y24844D01*
X115123Y24852D01*
X115130Y24851D01*
X115530Y25151D01*
X115531Y25156D01*
X115535Y25155D01*
X115935Y25555D01*
X115936Y25567D01*
X115944Y25568D01*
X116144Y25968D01*
X116141Y25982D01*
X116147Y25987D01*
X116146Y25988D01*
X116149Y25990D01*
X116149Y26990D01*
X116141Y27001D01*
X116146Y27008D01*
X115946Y27508D01*
X115905Y27533D01*
X115900Y27539D01*
X114900Y27539D01*
X114853Y27503D01*
X114857Y27498D01*
X114851Y27494D01*
X114753Y26412D01*
X114480Y26139D01*
X114012Y26139D01*
X113637Y26327D01*
X113449Y26702D01*
X113449Y28286D01*
X113544Y28857D01*
X113916Y29043D01*
X114405Y29141D01*
X116391Y29141D01*
X116872Y28948D01*
X117163Y28658D01*
X117458Y28264D01*
X117653Y27874D01*
X117751Y27385D01*
X117751Y25702D01*
X117556Y25312D01*
X117557Y25309D01*
X117554Y25308D01*
X117355Y24810D01*
X117159Y24419D01*
X116768Y24027D01*
X116370Y23729D01*
X115974Y23432D01*
X115580Y23235D01*
X115086Y23037D01*
X114595Y22939D01*
X113505Y22939D01*
G37*
%LPD*%
%LPC*%
G36*
X167517Y37437D02*
X167517Y37437D01*
X162026Y40132D01*
X161641Y40421D01*
X161452Y40894D01*
X161544Y41265D01*
X161929Y41649D01*
X167416Y44343D01*
X167890Y44438D01*
X168166Y44253D01*
X168554Y43769D01*
X168647Y43302D01*
X168368Y42929D01*
X166978Y42234D01*
X166960Y42197D01*
X166951Y42190D01*
X166951Y39690D01*
X166970Y39664D01*
X166970Y39651D01*
X167370Y39351D01*
X167376Y39351D01*
X167376Y39347D01*
X168270Y38850D01*
X168551Y38570D01*
X168551Y38202D01*
X168261Y37622D01*
X167889Y37343D01*
X167517Y37437D01*
G37*
%LPD*%
G36*
X170607Y114469D02*
X170607Y114469D01*
X170616Y114463D01*
X171216Y114663D01*
X171228Y114682D01*
X171241Y114683D01*
X171441Y114983D01*
X171441Y114988D01*
X171442Y114989D01*
X171440Y114992D01*
X171440Y115003D01*
X171449Y115010D01*
X171449Y116984D01*
X171715Y117161D01*
X173300Y117161D01*
X173306Y117165D01*
X173310Y117162D01*
X173810Y117262D01*
X173823Y117277D01*
X173835Y117275D01*
X174135Y117575D01*
X174137Y117591D01*
X174148Y117599D01*
X174147Y117601D01*
X174149Y117602D01*
X174249Y118202D01*
X174243Y118213D01*
X174248Y118220D01*
X174148Y118720D01*
X174130Y118736D01*
X174130Y118749D01*
X173730Y119049D01*
X173708Y119049D01*
X173700Y119059D01*
X171715Y119059D01*
X171449Y119236D01*
X171449Y119690D01*
X171720Y119961D01*
X174800Y119961D01*
X174813Y119970D01*
X174822Y119966D01*
X175222Y120166D01*
X175236Y120194D01*
X175248Y120200D01*
X175348Y120700D01*
X175343Y120712D01*
X175349Y120718D01*
X175249Y121318D01*
X175233Y121333D01*
X175235Y121345D01*
X174935Y121645D01*
X174915Y121648D01*
X174910Y121658D01*
X174410Y121758D01*
X174403Y121755D01*
X174400Y121759D01*
X170300Y121759D01*
X170287Y121750D01*
X170278Y121754D01*
X169878Y121554D01*
X169868Y121534D01*
X169856Y121532D01*
X169656Y121132D01*
X169657Y121126D01*
X169653Y121123D01*
X169658Y121116D01*
X169651Y121110D01*
X169651Y114910D01*
X169667Y114889D01*
X169665Y114875D01*
X169965Y114575D01*
X169986Y114572D01*
X169992Y114561D01*
X170592Y114461D01*
X170607Y114469D01*
G37*
%LPC*%
G36*
X140734Y23332D02*
X140734Y23332D01*
X140549Y23702D01*
X140549Y24382D01*
X140641Y24657D01*
X141125Y24948D01*
X141127Y24951D01*
X141130Y24951D01*
X141530Y25251D01*
X141536Y25275D01*
X141548Y25280D01*
X141648Y25780D01*
X141643Y25792D01*
X141649Y25798D01*
X141549Y26398D01*
X141537Y26410D01*
X141539Y26420D01*
X141239Y26820D01*
X141217Y26826D01*
X141212Y26838D01*
X140812Y26938D01*
X140784Y26926D01*
X140770Y26929D01*
X140370Y26629D01*
X140366Y26613D01*
X140360Y26609D01*
X140363Y26605D01*
X140352Y26600D01*
X140153Y25606D01*
X139967Y25234D01*
X139400Y25140D01*
X138829Y25235D01*
X138646Y25509D01*
X138549Y25998D01*
X138449Y26598D01*
X138419Y26626D01*
X138416Y26637D01*
X138116Y26737D01*
X138083Y26726D01*
X138070Y26729D01*
X137670Y26429D01*
X137666Y26413D01*
X137664Y26412D01*
X137665Y26410D01*
X137664Y26405D01*
X137652Y26400D01*
X137552Y25900D01*
X137558Y25887D01*
X137552Y25880D01*
X137652Y25380D01*
X137670Y25364D01*
X137670Y25351D01*
X138070Y25051D01*
X138451Y24765D01*
X138451Y24299D01*
X138259Y23821D01*
X137884Y23539D01*
X137509Y23539D01*
X137028Y23732D01*
X136635Y24125D01*
X136610Y24128D01*
X136606Y24133D01*
X136590Y24133D01*
X136587Y24131D01*
X136576Y24133D01*
X136576Y24132D01*
X136575Y24132D01*
X136543Y24113D01*
X136344Y24512D01*
X136338Y24515D01*
X136339Y24520D01*
X136046Y24911D01*
X135949Y25395D01*
X135949Y26975D01*
X136138Y27259D01*
X136831Y27951D01*
X137319Y28244D01*
X137711Y28342D01*
X138195Y28439D01*
X138680Y28245D01*
X139068Y28051D01*
X139361Y27660D01*
X139418Y27644D01*
X139422Y27657D01*
X139435Y27655D01*
X140128Y28348D01*
X140609Y28541D01*
X141095Y28541D01*
X141586Y28443D01*
X142076Y28247D01*
X142465Y27955D01*
X142757Y27566D01*
X142954Y27072D01*
X142957Y27070D01*
X142956Y27068D01*
X143151Y26678D01*
X143151Y25099D01*
X142955Y24610D01*
X142758Y24216D01*
X142465Y23825D01*
X142076Y23533D01*
X141586Y23337D01*
X141101Y23240D01*
X140734Y23332D01*
G37*
%LPD*%
%LPC*%
G36*
X140915Y39039D02*
X140915Y39039D01*
X140645Y39219D01*
X140549Y39794D01*
X140549Y40364D01*
X140826Y40548D01*
X141325Y40848D01*
X141333Y40866D01*
X141344Y40868D01*
X141544Y41268D01*
X141542Y41279D01*
X141549Y41282D01*
X141649Y41882D01*
X141640Y41899D01*
X141646Y41908D01*
X141446Y42408D01*
X141430Y42418D01*
X141430Y42429D01*
X141030Y42729D01*
X140999Y42729D01*
X140988Y42738D01*
X140588Y42638D01*
X140573Y42620D01*
X140561Y42620D01*
X140261Y42220D01*
X140261Y42198D01*
X140251Y42190D01*
X140251Y41602D01*
X140059Y41219D01*
X139780Y40939D01*
X139112Y40939D01*
X138737Y41127D01*
X138549Y41502D01*
X138549Y42090D01*
X138540Y42103D01*
X138544Y42112D01*
X138344Y42512D01*
X138291Y42538D01*
X138290Y42536D01*
X138288Y42538D01*
X137888Y42438D01*
X137873Y42420D01*
X137861Y42420D01*
X137561Y42020D01*
X137561Y41998D01*
X137551Y41990D01*
X137551Y41490D01*
X137562Y41475D01*
X137558Y41465D01*
X137858Y40965D01*
X137870Y40960D01*
X137870Y40951D01*
X138264Y40656D01*
X138448Y40380D01*
X138353Y39908D01*
X138068Y39433D01*
X137699Y39340D01*
X137221Y39436D01*
X136832Y39727D01*
X136441Y40119D01*
X136245Y40510D01*
X136047Y41004D01*
X135949Y41495D01*
X135949Y42870D01*
X136632Y43553D01*
X137028Y43849D01*
X137514Y44141D01*
X138488Y44141D01*
X138874Y43948D01*
X139270Y43651D01*
X139292Y43651D01*
X139300Y43641D01*
X139500Y43641D01*
X139521Y43657D01*
X139535Y43655D01*
X139928Y44048D01*
X140414Y44243D01*
X140905Y44341D01*
X141391Y44341D01*
X141876Y44147D01*
X142268Y43853D01*
X142563Y43558D01*
X142857Y43166D01*
X143053Y42676D01*
X143152Y42180D01*
X143250Y41689D01*
X143151Y41098D01*
X143053Y40606D01*
X142858Y40216D01*
X142563Y39822D01*
X142268Y39527D01*
X141877Y39234D01*
X141292Y39039D01*
X140915Y39039D01*
G37*
%LPD*%
%LPC*%
G36*
X166535Y23228D02*
X166535Y23228D01*
X166246Y23709D01*
X166153Y24079D01*
X166437Y24458D01*
X166835Y24855D01*
X166837Y24869D01*
X166846Y24872D01*
X167046Y25372D01*
X167042Y25385D01*
X167049Y25390D01*
X167049Y25990D01*
X167033Y26011D01*
X167035Y26025D01*
X166735Y26325D01*
X166716Y26327D01*
X166712Y26338D01*
X166312Y26438D01*
X166284Y26426D01*
X166270Y26429D01*
X165870Y26129D01*
X165866Y26114D01*
X165856Y26112D01*
X165656Y25712D01*
X165658Y25703D01*
X165652Y25700D01*
X165552Y25200D01*
X165453Y24704D01*
X165257Y24214D01*
X164963Y23822D01*
X164571Y23431D01*
X164184Y23237D01*
X163695Y23139D01*
X163205Y23139D01*
X162721Y23236D01*
X162330Y23529D01*
X161935Y23825D01*
X161642Y24216D01*
X161447Y24606D01*
X161349Y25095D01*
X161349Y25685D01*
X161448Y26180D01*
X161547Y26676D01*
X161743Y27166D01*
X162032Y27551D01*
X162402Y27736D01*
X162872Y27548D01*
X163256Y27165D01*
X163348Y26794D01*
X163157Y26314D01*
X162861Y25920D01*
X162861Y25898D01*
X162851Y25890D01*
X162851Y25390D01*
X162859Y25379D01*
X162854Y25372D01*
X163054Y24872D01*
X163085Y24853D01*
X163090Y24842D01*
X163590Y24742D01*
X163629Y24760D01*
X163639Y24760D01*
X163939Y25160D01*
X163939Y25167D01*
X163944Y25168D01*
X164144Y25568D01*
X164143Y25574D01*
X164147Y25576D01*
X164447Y26576D01*
X164446Y26578D01*
X164448Y26579D01*
X164447Y26580D01*
X164448Y26580D01*
X164546Y27069D01*
X164839Y27460D01*
X165131Y27849D01*
X165614Y28043D01*
X166105Y28141D01*
X166591Y28141D01*
X167082Y27944D01*
X167576Y27747D01*
X167965Y27455D01*
X168257Y27066D01*
X168453Y26575D01*
X168552Y26180D01*
X168650Y25591D01*
X168453Y24606D01*
X168257Y24213D01*
X167961Y23721D01*
X167376Y23135D01*
X166907Y23042D01*
X166535Y23228D01*
G37*
%LPD*%
%LPC*%
G36*
X192314Y22869D02*
X192314Y22869D01*
X191834Y23157D01*
X191553Y23531D01*
X191646Y23900D01*
X192241Y24793D01*
X192241Y24800D01*
X192246Y24802D01*
X192446Y25302D01*
X192440Y25321D01*
X192448Y25330D01*
X192348Y25830D01*
X192337Y25840D01*
X192339Y25850D01*
X192039Y26250D01*
X192008Y26259D01*
X192000Y26269D01*
X191600Y26269D01*
X191579Y26253D01*
X191565Y26255D01*
X191165Y25855D01*
X191162Y25835D01*
X191152Y25830D01*
X190953Y24834D01*
X190755Y24340D01*
X190558Y23946D01*
X190263Y23552D01*
X189875Y23164D01*
X189489Y23068D01*
X188995Y22969D01*
X188505Y22969D01*
X188021Y23066D01*
X187630Y23359D01*
X187230Y23659D01*
X187210Y23659D01*
X187206Y23665D01*
X187227Y23679D01*
X187234Y23697D01*
X187238Y23700D01*
X187236Y23703D01*
X187247Y23735D01*
X187236Y23739D01*
X187239Y23750D01*
X186945Y24142D01*
X186848Y24530D01*
X186749Y25124D01*
X186749Y25615D01*
X186848Y26110D01*
X186946Y26599D01*
X187239Y26990D01*
X187529Y27376D01*
X187892Y27467D01*
X188372Y27179D01*
X188751Y26895D01*
X188751Y26433D01*
X188257Y25544D01*
X188259Y25527D01*
X188251Y25520D01*
X188251Y25020D01*
X188264Y25002D01*
X188261Y24990D01*
X188561Y24590D01*
X188602Y24579D01*
X188610Y24572D01*
X189110Y24672D01*
X189126Y24690D01*
X189139Y24690D01*
X189439Y25090D01*
X189439Y25104D01*
X189448Y25107D01*
X189846Y26602D01*
X190042Y26994D01*
X190335Y27385D01*
X190726Y27678D01*
X191112Y27871D01*
X192195Y27871D01*
X192679Y27774D01*
X193070Y27481D01*
X193459Y27189D01*
X193654Y26702D01*
X193657Y26700D01*
X193656Y26698D01*
X193853Y26304D01*
X193951Y25812D01*
X194050Y25221D01*
X193952Y24730D01*
X193854Y24241D01*
X193561Y23850D01*
X193263Y23452D01*
X192680Y22869D01*
X192314Y22869D01*
G37*
%LPD*%
%LPC*%
G36*
X136620Y30139D02*
X136620Y30139D01*
X136343Y30417D01*
X136149Y30998D01*
X136149Y31365D01*
X136526Y31648D01*
X136921Y31846D01*
X140320Y33345D01*
X140322Y33349D01*
X140325Y33348D01*
X140825Y33648D01*
X140828Y33655D01*
X140836Y33657D01*
X140834Y33668D01*
X140843Y33674D01*
X140838Y33680D01*
X140848Y33703D01*
X140826Y33712D01*
X140822Y33734D01*
X140622Y33834D01*
X140621Y33834D01*
X140621Y33835D01*
X136921Y35535D01*
X136919Y35534D01*
X136918Y35536D01*
X136431Y35731D01*
X136149Y36106D01*
X136149Y36575D01*
X136340Y36861D01*
X136625Y37241D01*
X136991Y37241D01*
X137480Y37045D01*
X142477Y34647D01*
X142962Y34355D01*
X143151Y33978D01*
X143151Y33499D01*
X142962Y33028D01*
X142482Y32836D01*
X142480Y32833D01*
X142478Y32834D01*
X137480Y30335D01*
X136991Y30139D01*
X136620Y30139D01*
G37*
%LPD*%
G36*
X155509Y114470D02*
X155509Y114470D01*
X155518Y114464D01*
X156018Y114664D01*
X156031Y114686D01*
X156044Y114688D01*
X156244Y115088D01*
X156241Y115104D01*
X156249Y115110D01*
X156249Y120172D01*
X156606Y120261D01*
X158200Y120261D01*
X158213Y120270D01*
X158222Y120266D01*
X158622Y120466D01*
X158636Y120494D01*
X158648Y120500D01*
X158748Y121000D01*
X158745Y121007D01*
X158749Y121010D01*
X158749Y121510D01*
X158724Y121543D01*
X158722Y121554D01*
X158322Y121754D01*
X158306Y121751D01*
X158300Y121759D01*
X152600Y121759D01*
X152594Y121755D01*
X152590Y121758D01*
X152090Y121658D01*
X152069Y121635D01*
X152056Y121632D01*
X151856Y121232D01*
X151857Y121225D01*
X151853Y121221D01*
X151860Y121213D01*
X151860Y121211D01*
X151851Y121202D01*
X151951Y120602D01*
X151967Y120587D01*
X151965Y120575D01*
X152265Y120275D01*
X152292Y120272D01*
X152300Y120261D01*
X154274Y120261D01*
X154451Y119995D01*
X154451Y115310D01*
X154456Y115303D01*
X154452Y115298D01*
X154552Y114898D01*
X154567Y114886D01*
X154565Y114875D01*
X154865Y114575D01*
X154886Y114572D01*
X154892Y114561D01*
X155492Y114461D01*
X155509Y114470D01*
G37*
%LPC*%
G36*
X86625Y34569D02*
X86625Y34569D01*
X86349Y34936D01*
X86349Y40715D01*
X86442Y41180D01*
X86806Y41271D01*
X87380Y41271D01*
X87651Y41000D01*
X87651Y38920D01*
X87687Y38873D01*
X87688Y38873D01*
X87688Y38872D01*
X88088Y38772D01*
X88096Y38776D01*
X88100Y38771D01*
X92694Y38771D01*
X93071Y38676D01*
X93354Y38299D01*
X93450Y37820D01*
X93357Y37356D01*
X92891Y37169D01*
X87800Y37169D01*
X87753Y37133D01*
X87753Y37132D01*
X87752Y37132D01*
X87652Y36732D01*
X87656Y36724D01*
X87651Y36720D01*
X87651Y35225D01*
X87556Y34753D01*
X87188Y34569D01*
X86625Y34569D01*
G37*
%LPD*%
%LPC*%
G36*
X84349Y42580D02*
X84349Y42580D01*
X84805Y42671D01*
X85251Y42671D01*
X85251Y23693D01*
X84349Y23493D01*
X84349Y42580D01*
G37*
%LPD*%
%LPC*%
G36*
X86912Y23769D02*
X86912Y23769D01*
X86539Y23956D01*
X86351Y24425D01*
X86447Y25005D01*
X86633Y25376D01*
X87105Y25471D01*
X92695Y25471D01*
X93167Y25376D01*
X93353Y25005D01*
X93449Y24425D01*
X93260Y23953D01*
X92985Y23769D01*
X86912Y23769D01*
G37*
%LPD*%
G36*
X64118Y28785D02*
X64118Y28785D01*
X64131Y28782D01*
X64631Y29182D01*
X64632Y29186D01*
X64635Y29185D01*
X65035Y29585D01*
X65036Y29597D01*
X65044Y29598D01*
X65244Y29998D01*
X65242Y30007D01*
X65248Y30010D01*
X65348Y30510D01*
X65345Y30517D01*
X65349Y30520D01*
X65349Y31020D01*
X65340Y31033D01*
X65344Y31042D01*
X65144Y31442D01*
X65141Y31443D01*
X65142Y31445D01*
X64842Y31945D01*
X64834Y31949D01*
X64835Y31955D01*
X64535Y32255D01*
X64521Y32257D01*
X64518Y32266D01*
X64018Y32466D01*
X64012Y32464D01*
X64004Y32464D01*
X64000Y32469D01*
X62900Y32469D01*
X62894Y32464D01*
X62890Y32464D01*
X62885Y32461D01*
X62878Y32464D01*
X62478Y32264D01*
X62475Y32258D01*
X62470Y32259D01*
X62070Y31959D01*
X62069Y31954D01*
X62065Y31955D01*
X61665Y31555D01*
X61664Y31544D01*
X61663Y31543D01*
X61656Y31542D01*
X61456Y31142D01*
X61459Y31126D01*
X61451Y31120D01*
X61451Y30620D01*
X61455Y30614D01*
X61452Y30610D01*
X61552Y30110D01*
X61559Y30104D01*
X61556Y30098D01*
X61756Y29698D01*
X61762Y29695D01*
X61761Y29690D01*
X62061Y29290D01*
X62070Y29288D01*
X62070Y29281D01*
X62470Y28981D01*
X62486Y28981D01*
X62490Y28972D01*
X63490Y28772D01*
X63497Y28775D01*
X63500Y28771D01*
X64100Y28771D01*
X64118Y28785D01*
G37*
%LPC*%
G36*
X60415Y24069D02*
X60415Y24069D01*
X60127Y24261D01*
X60095Y24259D01*
X60084Y24266D01*
X60043Y24252D01*
X59949Y24626D01*
X59949Y25304D01*
X60225Y25671D01*
X60600Y25671D01*
X60638Y25700D01*
X60646Y25702D01*
X60656Y25728D01*
X60671Y25680D01*
X60689Y25686D01*
X60700Y25671D01*
X66675Y25671D01*
X66953Y25300D01*
X67049Y24725D01*
X66860Y24253D01*
X66585Y24069D01*
X60415Y24069D01*
G37*
%LPD*%
%LPC*%
G36*
X29528Y45504D02*
X29528Y45504D01*
X29014Y45592D01*
X28542Y45777D01*
X28105Y46054D01*
X27743Y46405D01*
X27461Y46838D01*
X27268Y47306D01*
X27177Y47818D01*
X27128Y48329D01*
X27308Y49352D01*
X27578Y49787D01*
X27916Y50214D01*
X27918Y50244D01*
X27926Y50272D01*
X27922Y50277D01*
X27922Y50280D01*
X27953Y50286D01*
X28717Y50796D01*
X29215Y50912D01*
X29731Y51002D01*
X30195Y51023D01*
X30241Y50605D01*
X30241Y49612D01*
X29875Y49611D01*
X29866Y49606D01*
X29851Y49606D01*
X29373Y49409D01*
X29367Y49399D01*
X29348Y49390D01*
X29023Y48986D01*
X29022Y48976D01*
X29015Y48971D01*
X29015Y48968D01*
X29012Y48964D01*
X28871Y48461D01*
X28873Y48453D01*
X28868Y48442D01*
X28880Y47918D01*
X28884Y47912D01*
X28883Y47900D01*
X29048Y47405D01*
X29056Y47399D01*
X29056Y47398D01*
X29057Y47398D01*
X29062Y47382D01*
X29162Y47273D01*
X29220Y47210D01*
X29392Y47022D01*
X29412Y47000D01*
X29423Y46997D01*
X29438Y46983D01*
X29928Y46820D01*
X30241Y46678D01*
X30241Y45683D01*
X30019Y45441D01*
X29528Y45504D01*
G37*
%LPD*%
%LPC*%
G36*
X22940Y45497D02*
X22940Y45497D01*
X22908Y45535D01*
X22856Y45598D01*
X22733Y45746D01*
X22733Y50915D01*
X22718Y50938D01*
X22714Y50950D01*
X22801Y50963D01*
X23180Y50978D01*
X24213Y50978D01*
X24372Y50820D01*
X24376Y50819D01*
X24378Y50815D01*
X24429Y50803D01*
X24454Y50809D01*
X24451Y50802D01*
X24443Y50793D01*
X24445Y50788D01*
X24442Y50782D01*
X24442Y45497D01*
X22940Y45497D01*
G37*
%LPD*%
%LPC*%
G36*
X25190Y45497D02*
X25190Y45497D01*
X24940Y45703D01*
X24950Y50875D01*
X24934Y50900D01*
X24930Y50910D01*
X25012Y50927D01*
X25341Y50978D01*
X26377Y50978D01*
X26573Y50845D01*
X26578Y50845D01*
X26584Y50839D01*
X26659Y50807D01*
X26659Y50806D01*
X26639Y50762D01*
X26649Y45581D01*
X26221Y45497D01*
X25190Y45497D01*
G37*
%LPD*%
G36*
X166728Y31562D02*
X166728Y31562D01*
X166741Y31563D01*
X166941Y31863D01*
X166941Y31869D01*
X166944Y31872D01*
X166940Y31878D01*
X166940Y31883D01*
X166949Y31890D01*
X166949Y32890D01*
X166940Y32903D01*
X166944Y32912D01*
X166644Y33512D01*
X166638Y33515D01*
X166639Y33520D01*
X166339Y33920D01*
X166330Y33922D01*
X166330Y33929D01*
X165930Y34229D01*
X165914Y34229D01*
X165910Y34238D01*
X165410Y34338D01*
X165403Y34335D01*
X165400Y34339D01*
X164900Y34339D01*
X164894Y34335D01*
X164890Y34338D01*
X164390Y34238D01*
X164386Y34233D01*
X164382Y34236D01*
X163882Y34036D01*
X163872Y34020D01*
X163861Y34020D01*
X163561Y33620D01*
X163561Y33616D01*
X163558Y33615D01*
X163258Y33115D01*
X163259Y33105D01*
X163252Y33102D01*
X163152Y32702D01*
X163156Y32694D01*
X163151Y32690D01*
X163151Y31590D01*
X163187Y31543D01*
X163194Y31548D01*
X163200Y31541D01*
X166700Y31541D01*
X166728Y31562D01*
G37*
G36*
X116147Y40377D02*
X116147Y40377D01*
X116142Y40384D01*
X116149Y40390D01*
X116149Y41890D01*
X116140Y41903D01*
X116144Y41912D01*
X116044Y42112D01*
X116034Y42117D01*
X116035Y42125D01*
X115335Y42825D01*
X115321Y42827D01*
X115318Y42836D01*
X114818Y43036D01*
X114812Y43034D01*
X114810Y43038D01*
X114310Y43138D01*
X114303Y43135D01*
X114300Y43139D01*
X113800Y43139D01*
X113789Y43131D01*
X113782Y43136D01*
X113282Y42936D01*
X113277Y42928D01*
X113270Y42929D01*
X112870Y42629D01*
X112868Y42620D01*
X112861Y42620D01*
X112561Y42220D01*
X112561Y42204D01*
X112552Y42200D01*
X112352Y41200D01*
X112355Y41193D01*
X112351Y41190D01*
X112351Y40690D01*
X112363Y40674D01*
X112359Y40663D01*
X112559Y40363D01*
X112592Y40351D01*
X112600Y40341D01*
X116100Y40341D01*
X116147Y40377D01*
G37*
G36*
X63705Y37374D02*
X63705Y37374D01*
X63708Y37371D01*
X64308Y37471D01*
X64314Y37477D01*
X64318Y37474D01*
X64818Y37674D01*
X64820Y37677D01*
X64822Y37676D01*
X65222Y37876D01*
X65234Y37900D01*
X65247Y37904D01*
X65347Y38204D01*
X65343Y38215D01*
X65349Y38220D01*
X65349Y38420D01*
X65344Y38427D01*
X65348Y38432D01*
X65248Y38832D01*
X65238Y38840D01*
X65241Y38847D01*
X65041Y39147D01*
X65021Y39154D01*
X65018Y39166D01*
X64518Y39366D01*
X64512Y39364D01*
X64510Y39368D01*
X64010Y39468D01*
X64003Y39465D01*
X64000Y39469D01*
X63200Y39469D01*
X63196Y39466D01*
X63193Y39469D01*
X62493Y39369D01*
X62492Y39367D01*
X62490Y39368D01*
X61990Y39268D01*
X61984Y39261D01*
X61978Y39264D01*
X61578Y39064D01*
X61570Y39048D01*
X61559Y39047D01*
X61359Y38747D01*
X61360Y38727D01*
X61351Y38720D01*
X61351Y38320D01*
X61358Y38311D01*
X61353Y38304D01*
X61453Y38004D01*
X61467Y37995D01*
X61465Y37985D01*
X61765Y37685D01*
X61779Y37683D01*
X61782Y37674D01*
X62282Y37474D01*
X62289Y37476D01*
X62292Y37471D01*
X62892Y37371D01*
X62897Y37374D01*
X62900Y37371D01*
X63700Y37371D01*
X63705Y37374D01*
G37*
%LPC*%
G36*
X199808Y116359D02*
X199808Y116359D01*
X199522Y116455D01*
X199238Y116644D01*
X199048Y117025D01*
X198949Y117713D01*
X198949Y119101D01*
X199145Y119590D01*
X199338Y119976D01*
X199615Y120161D01*
X199992Y120161D01*
X200273Y120067D01*
X200555Y119786D01*
X200651Y119302D01*
X200751Y118607D01*
X200751Y117913D01*
X200651Y117218D01*
X200555Y116734D01*
X200273Y116453D01*
X199992Y116359D01*
X199808Y116359D01*
G37*
%LPD*%
G36*
X9691Y46843D02*
X9691Y46843D01*
X9699Y46850D01*
X9717Y46853D01*
X10137Y47144D01*
X10142Y47154D01*
X10156Y47165D01*
X10409Y47613D01*
X10409Y47614D01*
X10410Y47615D01*
X10408Y47623D01*
X10416Y47635D01*
X10495Y48144D01*
X10492Y48151D01*
X10495Y48161D01*
X10435Y48670D01*
X10430Y48677D01*
X10430Y48689D01*
X10220Y49153D01*
X10212Y49159D01*
X10205Y49174D01*
X9828Y49514D01*
X9817Y49516D01*
X9802Y49528D01*
X9310Y49660D01*
X9300Y49657D01*
X9284Y49661D01*
X8779Y49580D01*
X8771Y49573D01*
X8753Y49569D01*
X8332Y49279D01*
X8328Y49269D01*
X8314Y49258D01*
X8060Y48811D01*
X8060Y48802D01*
X8057Y48798D01*
X8056Y48796D01*
X8056Y48795D01*
X8052Y48789D01*
X7974Y48280D01*
X7977Y48273D01*
X7973Y48263D01*
X8034Y47754D01*
X8039Y47747D01*
X8039Y47735D01*
X8250Y47271D01*
X8259Y47266D01*
X8265Y47250D01*
X8643Y46911D01*
X8654Y46910D01*
X8669Y46898D01*
X9161Y46765D01*
X9170Y46768D01*
X9187Y46763D01*
X9691Y46843D01*
G37*
%LPC*%
G36*
X85119Y96769D02*
X85119Y96769D01*
X85119Y98194D01*
X85385Y98371D01*
X86361Y98371D01*
X86834Y98181D01*
X87021Y97808D01*
X87021Y97332D01*
X86834Y96959D01*
X86361Y96769D01*
X85119Y96769D01*
G37*
%LPD*%
%LPC*%
G36*
X67119Y96769D02*
X67119Y96769D01*
X67119Y98200D01*
X67290Y98371D01*
X68358Y98371D01*
X68738Y98181D01*
X69021Y97804D01*
X69021Y97332D01*
X68832Y96954D01*
X68555Y96769D01*
X67119Y96769D01*
G37*
%LPD*%
%LPC*%
G36*
X185525Y116259D02*
X185525Y116259D01*
X185246Y116631D01*
X185153Y117098D01*
X185432Y117471D01*
X185808Y117659D01*
X186376Y117564D01*
X186655Y117286D01*
X186748Y116817D01*
X186564Y116449D01*
X186091Y116259D01*
X185525Y116259D01*
G37*
%LPD*%
%LPC*%
G36*
X178825Y116259D02*
X178825Y116259D01*
X178546Y116631D01*
X178452Y117103D01*
X178644Y117488D01*
X178643Y117491D01*
X178670Y117471D01*
X178690Y117471D01*
X178694Y117465D01*
X178709Y117465D01*
X178715Y117470D01*
X178722Y117466D01*
X179107Y117658D01*
X179579Y117564D01*
X179955Y117282D01*
X180048Y116817D01*
X179864Y116449D01*
X179391Y116259D01*
X178825Y116259D01*
G37*
%LPD*%
G36*
X165594Y40248D02*
X165594Y40248D01*
X165638Y40259D01*
X165633Y40278D01*
X165649Y40290D01*
X165649Y41290D01*
X165624Y41323D01*
X165622Y41334D01*
X165422Y41434D01*
X165392Y41428D01*
X165380Y41435D01*
X164480Y41035D01*
X164451Y40983D01*
X164464Y40976D01*
X164459Y40963D01*
X164659Y40663D01*
X164677Y40656D01*
X164680Y40645D01*
X165580Y40245D01*
X165584Y40246D01*
X165587Y40243D01*
X165594Y40248D01*
G37*
%LPC*%
G36*
X185628Y119455D02*
X185628Y119455D01*
X185358Y119815D01*
X185533Y120166D01*
X185995Y120259D01*
X186451Y120077D01*
X186451Y119540D01*
X186093Y119362D01*
X185628Y119455D01*
G37*
%LPD*%
%LPC*%
G36*
X178928Y119455D02*
X178928Y119455D01*
X178658Y119815D01*
X178833Y120166D01*
X179293Y120258D01*
X179656Y120077D01*
X179745Y119538D01*
X179393Y119362D01*
X178928Y119455D01*
G37*
%LPD*%
%LPC*%
G36*
X84349Y23369D02*
X84349Y23369D01*
X84349Y23392D01*
X85251Y23592D01*
X85251Y23546D01*
X84985Y23369D01*
X84349Y23369D01*
G37*
%LPD*%
D10*
X249200Y73900D02*
X249200Y103900D01*
X223200Y58900D02*
X206700Y58900D01*
X206700Y111400D02*
X206700Y118900D01*
X223200Y118900D01*
X206700Y66400D02*
X206700Y58900D01*
X199184Y63900D02*
X199186Y63963D01*
X199192Y64026D01*
X199202Y64089D01*
X199215Y64150D01*
X199233Y64211D01*
X199254Y64270D01*
X199279Y64329D01*
X199307Y64385D01*
X199339Y64440D01*
X199374Y64492D01*
X199413Y64542D01*
X199454Y64590D01*
X199499Y64635D01*
X199546Y64677D01*
X199595Y64716D01*
X199647Y64752D01*
X199701Y64785D01*
X199757Y64814D01*
X199815Y64840D01*
X199874Y64862D01*
X199934Y64881D01*
X199996Y64895D01*
X200058Y64906D01*
X200121Y64913D01*
X200184Y64916D01*
X200247Y64915D01*
X200310Y64910D01*
X200373Y64901D01*
X200435Y64888D01*
X200496Y64872D01*
X200556Y64852D01*
X200614Y64828D01*
X200671Y64800D01*
X200726Y64769D01*
X200779Y64735D01*
X200830Y64697D01*
X200878Y64656D01*
X200924Y64613D01*
X200967Y64566D01*
X201007Y64517D01*
X201044Y64466D01*
X201077Y64413D01*
X201107Y64357D01*
X201134Y64300D01*
X201157Y64241D01*
X201176Y64181D01*
X201192Y64119D01*
X201204Y64057D01*
X201212Y63995D01*
X201216Y63932D01*
X201216Y63868D01*
X201212Y63805D01*
X201204Y63743D01*
X201192Y63681D01*
X201176Y63619D01*
X201157Y63559D01*
X201134Y63500D01*
X201107Y63443D01*
X201077Y63387D01*
X201044Y63334D01*
X201007Y63283D01*
X200967Y63234D01*
X200924Y63187D01*
X200878Y63144D01*
X200830Y63103D01*
X200779Y63065D01*
X200726Y63031D01*
X200671Y63000D01*
X200614Y62972D01*
X200556Y62948D01*
X200496Y62928D01*
X200435Y62912D01*
X200373Y62899D01*
X200310Y62890D01*
X200247Y62885D01*
X200184Y62884D01*
X200121Y62887D01*
X200058Y62894D01*
X199996Y62905D01*
X199934Y62919D01*
X199874Y62938D01*
X199815Y62960D01*
X199757Y62986D01*
X199701Y63015D01*
X199647Y63048D01*
X199595Y63084D01*
X199546Y63123D01*
X199499Y63165D01*
X199454Y63210D01*
X199413Y63258D01*
X199374Y63308D01*
X199339Y63360D01*
X199307Y63415D01*
X199279Y63471D01*
X199254Y63530D01*
X199233Y63589D01*
X199215Y63650D01*
X199202Y63711D01*
X199192Y63774D01*
X199186Y63837D01*
X199184Y63900D01*
X4800Y73900D02*
X4800Y103900D01*
X30800Y118900D02*
X47300Y118900D01*
X47300Y66400D02*
X47300Y58900D01*
X30800Y58900D01*
X47300Y111400D02*
X47300Y118900D01*
X52784Y113900D02*
X52786Y113963D01*
X52792Y114026D01*
X52802Y114089D01*
X52815Y114150D01*
X52833Y114211D01*
X52854Y114270D01*
X52879Y114329D01*
X52907Y114385D01*
X52939Y114440D01*
X52974Y114492D01*
X53013Y114542D01*
X53054Y114590D01*
X53099Y114635D01*
X53146Y114677D01*
X53195Y114716D01*
X53247Y114752D01*
X53301Y114785D01*
X53357Y114814D01*
X53415Y114840D01*
X53474Y114862D01*
X53534Y114881D01*
X53596Y114895D01*
X53658Y114906D01*
X53721Y114913D01*
X53784Y114916D01*
X53847Y114915D01*
X53910Y114910D01*
X53973Y114901D01*
X54035Y114888D01*
X54096Y114872D01*
X54156Y114852D01*
X54214Y114828D01*
X54271Y114800D01*
X54326Y114769D01*
X54379Y114735D01*
X54430Y114697D01*
X54478Y114656D01*
X54524Y114613D01*
X54567Y114566D01*
X54607Y114517D01*
X54644Y114466D01*
X54677Y114413D01*
X54707Y114357D01*
X54734Y114300D01*
X54757Y114241D01*
X54776Y114181D01*
X54792Y114119D01*
X54804Y114057D01*
X54812Y113995D01*
X54816Y113932D01*
X54816Y113868D01*
X54812Y113805D01*
X54804Y113743D01*
X54792Y113681D01*
X54776Y113619D01*
X54757Y113559D01*
X54734Y113500D01*
X54707Y113443D01*
X54677Y113387D01*
X54644Y113334D01*
X54607Y113283D01*
X54567Y113234D01*
X54524Y113187D01*
X54478Y113144D01*
X54430Y113103D01*
X54379Y113065D01*
X54326Y113031D01*
X54271Y113000D01*
X54214Y112972D01*
X54156Y112948D01*
X54096Y112928D01*
X54035Y112912D01*
X53973Y112899D01*
X53910Y112890D01*
X53847Y112885D01*
X53784Y112884D01*
X53721Y112887D01*
X53658Y112894D01*
X53596Y112905D01*
X53534Y112919D01*
X53474Y112938D01*
X53415Y112960D01*
X53357Y112986D01*
X53301Y113015D01*
X53247Y113048D01*
X53195Y113084D01*
X53146Y113123D01*
X53099Y113165D01*
X53054Y113210D01*
X53013Y113258D01*
X52974Y113308D01*
X52939Y113360D01*
X52907Y113415D01*
X52879Y113471D01*
X52854Y113530D01*
X52833Y113589D01*
X52815Y113650D01*
X52802Y113711D01*
X52792Y113774D01*
X52786Y113837D01*
X52784Y113900D01*
X92583Y112332D02*
X92583Y121857D01*
D11*
X99822Y62738D03*
M02*
