G04 EAGLE Gerber RS-274X export*
G75*
%MOMM*%
%FSLAX34Y34*%
%LPD*%
%INSolderpaste Top*%
%IPPOS*%
%AMOC8*
5,1,8,0,0,1.08239X$1,22.5*%
G01*
%ADD10C,0.096000*%
%ADD11C,0.102000*%
%ADD12C,0.300000*%
%ADD13C,0.101500*%


D10*
X249470Y66420D02*
X249470Y55380D01*
X230430Y55380D01*
X230430Y66420D01*
X249470Y66420D01*
X249470Y56292D02*
X230430Y56292D01*
X230430Y57204D02*
X249470Y57204D01*
X249470Y58116D02*
X230430Y58116D01*
X230430Y59028D02*
X249470Y59028D01*
X249470Y59940D02*
X230430Y59940D01*
X230430Y60852D02*
X249470Y60852D01*
X249470Y61764D02*
X230430Y61764D01*
X230430Y62676D02*
X249470Y62676D01*
X249470Y63588D02*
X230430Y63588D01*
X230430Y64500D02*
X249470Y64500D01*
X249470Y65412D02*
X230430Y65412D01*
X230430Y66324D02*
X249470Y66324D01*
X249470Y111380D02*
X249470Y122420D01*
X249470Y111380D02*
X230430Y111380D01*
X230430Y122420D01*
X249470Y122420D01*
X249470Y112292D02*
X230430Y112292D01*
X230430Y113204D02*
X249470Y113204D01*
X249470Y114116D02*
X230430Y114116D01*
X230430Y115028D02*
X249470Y115028D01*
X249470Y115940D02*
X230430Y115940D01*
X230430Y116852D02*
X249470Y116852D01*
X249470Y117764D02*
X230430Y117764D01*
X230430Y118676D02*
X249470Y118676D01*
X249470Y119588D02*
X230430Y119588D01*
X230430Y120500D02*
X249470Y120500D01*
X249470Y121412D02*
X230430Y121412D01*
X230430Y122324D02*
X249470Y122324D01*
D11*
X209440Y76390D02*
X209440Y71410D01*
X196960Y71410D01*
X196960Y76390D01*
X209440Y76390D01*
X209440Y72379D02*
X196960Y72379D01*
X196960Y73348D02*
X209440Y73348D01*
X209440Y74317D02*
X196960Y74317D01*
X196960Y75286D02*
X209440Y75286D01*
X209440Y76255D02*
X196960Y76255D01*
X209440Y81410D02*
X209440Y86390D01*
X209440Y81410D02*
X196960Y81410D01*
X196960Y86390D01*
X209440Y86390D01*
X209440Y82379D02*
X196960Y82379D01*
X196960Y83348D02*
X209440Y83348D01*
X209440Y84317D02*
X196960Y84317D01*
X196960Y85286D02*
X209440Y85286D01*
X209440Y86255D02*
X196960Y86255D01*
X209440Y91410D02*
X209440Y96390D01*
X209440Y91410D02*
X196960Y91410D01*
X196960Y96390D01*
X209440Y96390D01*
X209440Y92379D02*
X196960Y92379D01*
X196960Y93348D02*
X209440Y93348D01*
X209440Y94317D02*
X196960Y94317D01*
X196960Y95286D02*
X209440Y95286D01*
X209440Y96255D02*
X196960Y96255D01*
X209440Y101410D02*
X209440Y106390D01*
X209440Y101410D02*
X196960Y101410D01*
X196960Y106390D01*
X209440Y106390D01*
X209440Y102379D02*
X196960Y102379D01*
X196960Y103348D02*
X209440Y103348D01*
X209440Y104317D02*
X196960Y104317D01*
X196960Y105286D02*
X209440Y105286D01*
X209440Y106255D02*
X196960Y106255D01*
D10*
X4530Y111380D02*
X4530Y122420D01*
X23570Y122420D01*
X23570Y111380D01*
X4530Y111380D01*
X4530Y112292D02*
X23570Y112292D01*
X23570Y113204D02*
X4530Y113204D01*
X4530Y114116D02*
X23570Y114116D01*
X23570Y115028D02*
X4530Y115028D01*
X4530Y115940D02*
X23570Y115940D01*
X23570Y116852D02*
X4530Y116852D01*
X4530Y117764D02*
X23570Y117764D01*
X23570Y118676D02*
X4530Y118676D01*
X4530Y119588D02*
X23570Y119588D01*
X23570Y120500D02*
X4530Y120500D01*
X4530Y121412D02*
X23570Y121412D01*
X23570Y122324D02*
X4530Y122324D01*
X4530Y66420D02*
X4530Y55380D01*
X4530Y66420D02*
X23570Y66420D01*
X23570Y55380D01*
X4530Y55380D01*
X4530Y56292D02*
X23570Y56292D01*
X23570Y57204D02*
X4530Y57204D01*
X4530Y58116D02*
X23570Y58116D01*
X23570Y59028D02*
X4530Y59028D01*
X4530Y59940D02*
X23570Y59940D01*
X23570Y60852D02*
X4530Y60852D01*
X4530Y61764D02*
X23570Y61764D01*
X23570Y62676D02*
X4530Y62676D01*
X4530Y63588D02*
X23570Y63588D01*
X23570Y64500D02*
X4530Y64500D01*
X4530Y65412D02*
X23570Y65412D01*
X23570Y66324D02*
X4530Y66324D01*
D11*
X44560Y101410D02*
X44560Y106390D01*
X57040Y106390D01*
X57040Y101410D01*
X44560Y101410D01*
X44560Y102379D02*
X57040Y102379D01*
X57040Y103348D02*
X44560Y103348D01*
X44560Y104317D02*
X57040Y104317D01*
X57040Y105286D02*
X44560Y105286D01*
X44560Y106255D02*
X57040Y106255D01*
X44560Y96390D02*
X44560Y91410D01*
X44560Y96390D02*
X57040Y96390D01*
X57040Y91410D01*
X44560Y91410D01*
X44560Y92379D02*
X57040Y92379D01*
X57040Y93348D02*
X44560Y93348D01*
X44560Y94317D02*
X57040Y94317D01*
X57040Y95286D02*
X44560Y95286D01*
X44560Y96255D02*
X57040Y96255D01*
X44560Y86390D02*
X44560Y81410D01*
X44560Y86390D02*
X57040Y86390D01*
X57040Y81410D01*
X44560Y81410D01*
X44560Y82379D02*
X57040Y82379D01*
X57040Y83348D02*
X44560Y83348D01*
X44560Y84317D02*
X57040Y84317D01*
X57040Y85286D02*
X44560Y85286D01*
X44560Y86255D02*
X57040Y86255D01*
X44560Y76390D02*
X44560Y71410D01*
X44560Y76390D02*
X57040Y76390D01*
X57040Y71410D01*
X44560Y71410D01*
X44560Y72379D02*
X57040Y72379D01*
X57040Y73348D02*
X44560Y73348D01*
X44560Y74317D02*
X57040Y74317D01*
X57040Y75286D02*
X44560Y75286D01*
X44560Y76255D02*
X57040Y76255D01*
X167770Y67360D02*
X172750Y67360D01*
X167770Y67360D02*
X167770Y72340D01*
X172750Y72340D01*
X172750Y67360D01*
X172750Y68329D02*
X167770Y68329D01*
X167770Y69298D02*
X172750Y69298D01*
X172750Y70267D02*
X167770Y70267D01*
X167770Y71236D02*
X172750Y71236D01*
X172750Y72205D02*
X167770Y72205D01*
X177770Y67360D02*
X182750Y67360D01*
X177770Y67360D02*
X177770Y72340D01*
X182750Y72340D01*
X182750Y67360D01*
X182750Y68329D02*
X177770Y68329D01*
X177770Y69298D02*
X182750Y69298D01*
X182750Y70267D02*
X177770Y70267D01*
X177770Y71236D02*
X182750Y71236D01*
X182750Y72205D02*
X177770Y72205D01*
X172750Y78028D02*
X167770Y78028D01*
X167770Y83008D01*
X172750Y83008D01*
X172750Y78028D01*
X172750Y78997D02*
X167770Y78997D01*
X167770Y79966D02*
X172750Y79966D01*
X172750Y80935D02*
X167770Y80935D01*
X167770Y81904D02*
X172750Y81904D01*
X172750Y82873D02*
X167770Y82873D01*
X177770Y78028D02*
X182750Y78028D01*
X177770Y78028D02*
X177770Y83008D01*
X182750Y83008D01*
X182750Y78028D01*
X182750Y78997D02*
X177770Y78997D01*
X177770Y79966D02*
X182750Y79966D01*
X182750Y80935D02*
X177770Y80935D01*
X177770Y81904D02*
X182750Y81904D01*
X182750Y82873D02*
X177770Y82873D01*
X74198Y102920D02*
X69218Y102920D01*
X69218Y107900D01*
X74198Y107900D01*
X74198Y102920D01*
X74198Y103889D02*
X69218Y103889D01*
X69218Y104858D02*
X74198Y104858D01*
X74198Y105827D02*
X69218Y105827D01*
X69218Y106796D02*
X74198Y106796D01*
X74198Y107765D02*
X69218Y107765D01*
X79218Y102920D02*
X84198Y102920D01*
X79218Y102920D02*
X79218Y107900D01*
X84198Y107900D01*
X84198Y102920D01*
X84198Y103889D02*
X79218Y103889D01*
X79218Y104858D02*
X84198Y104858D01*
X84198Y105827D02*
X79218Y105827D01*
X79218Y106796D02*
X84198Y106796D01*
X84198Y107765D02*
X79218Y107765D01*
D12*
X81978Y113594D02*
X81978Y120594D01*
X88978Y120594D01*
X88978Y113594D01*
X81978Y113594D01*
X81978Y116444D02*
X88978Y116444D01*
X88978Y119294D02*
X81978Y119294D01*
X64438Y120594D02*
X64438Y113594D01*
X64438Y120594D02*
X71438Y120594D01*
X71438Y113594D01*
X64438Y113594D01*
X64438Y116444D02*
X71438Y116444D01*
X71438Y119294D02*
X64438Y119294D01*
D13*
X107923Y71335D02*
X107923Y67349D01*
X105437Y67349D01*
X105437Y71335D01*
X107923Y71335D01*
X107923Y68313D02*
X105437Y68313D01*
X105437Y69277D02*
X107923Y69277D01*
X107923Y70241D02*
X105437Y70241D01*
X105437Y71205D02*
X107923Y71205D01*
X116123Y71335D02*
X116123Y67349D01*
X113637Y67349D01*
X113637Y71335D01*
X116123Y71335D01*
X116123Y68313D02*
X113637Y68313D01*
X113637Y69277D02*
X116123Y69277D01*
X116123Y70241D02*
X113637Y70241D01*
X113637Y71205D02*
X116123Y71205D01*
X124323Y71335D02*
X124323Y67349D01*
X121837Y67349D01*
X121837Y71335D01*
X124323Y71335D01*
X124323Y68313D02*
X121837Y68313D01*
X121837Y69277D02*
X124323Y69277D01*
X124323Y70241D02*
X121837Y70241D01*
X121837Y71205D02*
X124323Y71205D01*
X132523Y71335D02*
X132523Y67349D01*
X130037Y67349D01*
X130037Y71335D01*
X132523Y71335D01*
X132523Y68313D02*
X130037Y68313D01*
X130037Y69277D02*
X132523Y69277D01*
X132523Y70241D02*
X130037Y70241D01*
X130037Y71205D02*
X132523Y71205D01*
X140723Y71335D02*
X140723Y67349D01*
X138237Y67349D01*
X138237Y71335D01*
X140723Y71335D01*
X140723Y68313D02*
X138237Y68313D01*
X138237Y69277D02*
X140723Y69277D01*
X140723Y70241D02*
X138237Y70241D01*
X138237Y71205D02*
X140723Y71205D01*
X148923Y71335D02*
X148923Y67349D01*
X146437Y67349D01*
X146437Y71335D01*
X148923Y71335D01*
X148923Y68313D02*
X146437Y68313D01*
X146437Y69277D02*
X148923Y69277D01*
X148923Y70241D02*
X146437Y70241D01*
X146437Y71205D02*
X148923Y71205D01*
X148923Y80849D02*
X148923Y84835D01*
X148923Y80849D02*
X146437Y80849D01*
X146437Y84835D01*
X148923Y84835D01*
X148923Y81813D02*
X146437Y81813D01*
X146437Y82777D02*
X148923Y82777D01*
X148923Y83741D02*
X146437Y83741D01*
X146437Y84705D02*
X148923Y84705D01*
X140723Y84835D02*
X140723Y80849D01*
X138237Y80849D01*
X138237Y84835D01*
X140723Y84835D01*
X140723Y81813D02*
X138237Y81813D01*
X138237Y82777D02*
X140723Y82777D01*
X140723Y83741D02*
X138237Y83741D01*
X138237Y84705D02*
X140723Y84705D01*
X132523Y84835D02*
X132523Y80849D01*
X130037Y80849D01*
X130037Y84835D01*
X132523Y84835D01*
X132523Y81813D02*
X130037Y81813D01*
X130037Y82777D02*
X132523Y82777D01*
X132523Y83741D02*
X130037Y83741D01*
X130037Y84705D02*
X132523Y84705D01*
X124323Y84835D02*
X124323Y80849D01*
X121837Y80849D01*
X121837Y84835D01*
X124323Y84835D01*
X124323Y81813D02*
X121837Y81813D01*
X121837Y82777D02*
X124323Y82777D01*
X124323Y83741D02*
X121837Y83741D01*
X121837Y84705D02*
X124323Y84705D01*
X116123Y84835D02*
X116123Y80849D01*
X113637Y80849D01*
X113637Y84835D01*
X116123Y84835D01*
X116123Y81813D02*
X113637Y81813D01*
X113637Y82777D02*
X116123Y82777D01*
X116123Y83741D02*
X113637Y83741D01*
X113637Y84705D02*
X116123Y84705D01*
X107923Y84835D02*
X107923Y80849D01*
X105437Y80849D01*
X105437Y84835D01*
X107923Y84835D01*
X107923Y81813D02*
X105437Y81813D01*
X105437Y82777D02*
X107923Y82777D01*
X107923Y83741D02*
X105437Y83741D01*
X105437Y84705D02*
X107923Y84705D01*
D11*
X102900Y95300D02*
X97920Y95300D01*
X97920Y100280D01*
X102900Y100280D01*
X102900Y95300D01*
X102900Y96269D02*
X97920Y96269D01*
X97920Y97238D02*
X102900Y97238D01*
X102900Y98207D02*
X97920Y98207D01*
X97920Y99176D02*
X102900Y99176D01*
X102900Y100145D02*
X97920Y100145D01*
X107920Y95300D02*
X112900Y95300D01*
X107920Y95300D02*
X107920Y100280D01*
X112900Y100280D01*
X112900Y95300D01*
X112900Y96269D02*
X107920Y96269D01*
X107920Y97238D02*
X112900Y97238D01*
X112900Y98207D02*
X107920Y98207D01*
X107920Y99176D02*
X112900Y99176D01*
X112900Y100145D02*
X107920Y100145D01*
X107980Y52120D02*
X103000Y52120D01*
X103000Y57100D01*
X107980Y57100D01*
X107980Y52120D01*
X107980Y53089D02*
X103000Y53089D01*
X103000Y54058D02*
X107980Y54058D01*
X107980Y55027D02*
X103000Y55027D01*
X103000Y55996D02*
X107980Y55996D01*
X107980Y56965D02*
X103000Y56965D01*
X113000Y52120D02*
X117980Y52120D01*
X113000Y52120D02*
X113000Y57100D01*
X117980Y57100D01*
X117980Y52120D01*
X117980Y53089D02*
X113000Y53089D01*
X113000Y54058D02*
X117980Y54058D01*
X117980Y55027D02*
X113000Y55027D01*
X113000Y55996D02*
X117980Y55996D01*
X117980Y56965D02*
X113000Y56965D01*
X152370Y100280D02*
X157350Y100280D01*
X157350Y95300D01*
X152370Y95300D01*
X152370Y100280D01*
X152370Y96269D02*
X157350Y96269D01*
X157350Y97238D02*
X152370Y97238D01*
X152370Y98207D02*
X157350Y98207D01*
X157350Y99176D02*
X152370Y99176D01*
X152370Y100145D02*
X157350Y100145D01*
X147350Y100280D02*
X142370Y100280D01*
X147350Y100280D02*
X147350Y95300D01*
X142370Y95300D01*
X142370Y100280D01*
X142370Y96269D02*
X147350Y96269D01*
X147350Y97238D02*
X142370Y97238D01*
X142370Y98207D02*
X147350Y98207D01*
X147350Y99176D02*
X142370Y99176D01*
X142370Y100145D02*
X147350Y100145D01*
X132110Y52120D02*
X127130Y52120D01*
X127130Y57100D01*
X132110Y57100D01*
X132110Y52120D01*
X132110Y53089D02*
X127130Y53089D01*
X127130Y54058D02*
X132110Y54058D01*
X132110Y55027D02*
X127130Y55027D01*
X127130Y55996D02*
X132110Y55996D01*
X132110Y56965D02*
X127130Y56965D01*
X137130Y52120D02*
X142110Y52120D01*
X137130Y52120D02*
X137130Y57100D01*
X142110Y57100D01*
X142110Y52120D01*
X142110Y53089D02*
X137130Y53089D01*
X137130Y54058D02*
X142110Y54058D01*
X142110Y55027D02*
X137130Y55027D01*
X137130Y55996D02*
X142110Y55996D01*
X142110Y56965D02*
X137130Y56965D01*
X138300Y100280D02*
X133320Y100280D01*
X138300Y100280D02*
X138300Y95300D01*
X133320Y95300D01*
X133320Y100280D01*
X133320Y96269D02*
X138300Y96269D01*
X138300Y97238D02*
X133320Y97238D01*
X133320Y98207D02*
X138300Y98207D01*
X138300Y99176D02*
X133320Y99176D01*
X133320Y100145D02*
X138300Y100145D01*
X128300Y100280D02*
X123320Y100280D01*
X128300Y100280D02*
X128300Y95300D01*
X123320Y95300D01*
X123320Y100280D01*
X123320Y96269D02*
X128300Y96269D01*
X128300Y97238D02*
X123320Y97238D01*
X123320Y98207D02*
X128300Y98207D01*
X128300Y99176D02*
X123320Y99176D01*
X123320Y100145D02*
X128300Y100145D01*
M02*
