G04 EAGLE Gerber RS-274X export*
G75*
%MOMM*%
%FSLAX34Y34*%
%LPD*%
%INSoldermask Top*%
%IPPOS*%
%AMOC8*
5,1,8,0,0,1.08239X$1,22.5*%
G01*
%ADD10C,0.762000*%
%ADD11C,3.175000*%
%ADD12C,0.225588*%
%ADD13C,0.225369*%
%ADD14C,2.006600*%
%ADD15C,0.428259*%
%ADD16C,0.228959*%


D10*
X6350Y7620D03*
X190500Y110490D03*
D11*
X228600Y25400D03*
X25400Y25400D03*
D12*
X249457Y55393D02*
X249457Y66407D01*
X249457Y55393D02*
X230443Y55393D01*
X230443Y66407D01*
X249457Y66407D01*
X249457Y57536D02*
X230443Y57536D01*
X230443Y59679D02*
X249457Y59679D01*
X249457Y61822D02*
X230443Y61822D01*
X230443Y63965D02*
X249457Y63965D01*
X249457Y66108D02*
X230443Y66108D01*
X249457Y111393D02*
X249457Y122407D01*
X249457Y111393D02*
X230443Y111393D01*
X230443Y122407D01*
X249457Y122407D01*
X249457Y113536D02*
X230443Y113536D01*
X230443Y115679D02*
X249457Y115679D01*
X249457Y117822D02*
X230443Y117822D01*
X230443Y119965D02*
X249457Y119965D01*
X249457Y122108D02*
X230443Y122108D01*
D13*
X209458Y76408D02*
X209458Y71392D01*
X196942Y71392D01*
X196942Y76408D01*
X209458Y76408D01*
X209458Y73533D02*
X196942Y73533D01*
X196942Y75674D02*
X209458Y75674D01*
X209458Y81392D02*
X209458Y86408D01*
X209458Y81392D02*
X196942Y81392D01*
X196942Y86408D01*
X209458Y86408D01*
X209458Y83533D02*
X196942Y83533D01*
X196942Y85674D02*
X209458Y85674D01*
X209458Y91392D02*
X209458Y96408D01*
X209458Y91392D02*
X196942Y91392D01*
X196942Y96408D01*
X209458Y96408D01*
X209458Y93533D02*
X196942Y93533D01*
X196942Y95674D02*
X209458Y95674D01*
X209458Y101392D02*
X209458Y106408D01*
X209458Y101392D02*
X196942Y101392D01*
X196942Y106408D01*
X209458Y106408D01*
X209458Y103533D02*
X196942Y103533D01*
X196942Y105674D02*
X209458Y105674D01*
D12*
X4543Y111393D02*
X4543Y122407D01*
X23557Y122407D01*
X23557Y111393D01*
X4543Y111393D01*
X4543Y113536D02*
X23557Y113536D01*
X23557Y115679D02*
X4543Y115679D01*
X4543Y117822D02*
X23557Y117822D01*
X23557Y119965D02*
X4543Y119965D01*
X4543Y122108D02*
X23557Y122108D01*
X4543Y66407D02*
X4543Y55393D01*
X4543Y66407D02*
X23557Y66407D01*
X23557Y55393D01*
X4543Y55393D01*
X4543Y57536D02*
X23557Y57536D01*
X23557Y59679D02*
X4543Y59679D01*
X4543Y61822D02*
X23557Y61822D01*
X23557Y63965D02*
X4543Y63965D01*
X4543Y66108D02*
X23557Y66108D01*
D13*
X44542Y101392D02*
X44542Y106408D01*
X57058Y106408D01*
X57058Y101392D01*
X44542Y101392D01*
X44542Y103533D02*
X57058Y103533D01*
X57058Y105674D02*
X44542Y105674D01*
X44542Y96408D02*
X44542Y91392D01*
X44542Y96408D02*
X57058Y96408D01*
X57058Y91392D01*
X44542Y91392D01*
X44542Y93533D02*
X57058Y93533D01*
X57058Y95674D02*
X44542Y95674D01*
X44542Y86408D02*
X44542Y81392D01*
X44542Y86408D02*
X57058Y86408D01*
X57058Y81392D01*
X44542Y81392D01*
X44542Y83533D02*
X57058Y83533D01*
X57058Y85674D02*
X44542Y85674D01*
X44542Y76408D02*
X44542Y71392D01*
X44542Y76408D02*
X57058Y76408D01*
X57058Y71392D01*
X44542Y71392D01*
X44542Y73533D02*
X57058Y73533D01*
X57058Y75674D02*
X44542Y75674D01*
D14*
X114300Y12700D03*
X139700Y12700D03*
X165100Y12700D03*
X190500Y12700D03*
D13*
X172768Y67342D02*
X167752Y67342D01*
X167752Y72358D01*
X172768Y72358D01*
X172768Y67342D01*
X172768Y69483D02*
X167752Y69483D01*
X167752Y71624D02*
X172768Y71624D01*
X177752Y67342D02*
X182768Y67342D01*
X177752Y67342D02*
X177752Y72358D01*
X182768Y72358D01*
X182768Y67342D01*
X182768Y69483D02*
X177752Y69483D01*
X177752Y71624D02*
X182768Y71624D01*
X172768Y78010D02*
X167752Y78010D01*
X167752Y83026D01*
X172768Y83026D01*
X172768Y78010D01*
X172768Y80151D02*
X167752Y80151D01*
X167752Y82292D02*
X172768Y82292D01*
X177752Y78010D02*
X182768Y78010D01*
X177752Y78010D02*
X177752Y83026D01*
X182768Y83026D01*
X182768Y78010D01*
X182768Y80151D02*
X177752Y80151D01*
X177752Y82292D02*
X182768Y82292D01*
X74216Y102902D02*
X69200Y102902D01*
X69200Y107918D01*
X74216Y107918D01*
X74216Y102902D01*
X74216Y105043D02*
X69200Y105043D01*
X69200Y107184D02*
X74216Y107184D01*
X79200Y102902D02*
X84216Y102902D01*
X79200Y102902D02*
X79200Y107918D01*
X84216Y107918D01*
X84216Y102902D01*
X84216Y105043D02*
X79200Y105043D01*
X79200Y107184D02*
X84216Y107184D01*
D15*
X81984Y113600D02*
X81984Y120588D01*
X88972Y120588D01*
X88972Y113600D01*
X81984Y113600D01*
X81984Y117669D02*
X88972Y117669D01*
X64444Y120588D02*
X64444Y113600D01*
X64444Y120588D02*
X71432Y120588D01*
X71432Y113600D01*
X64444Y113600D01*
X64444Y117669D02*
X71432Y117669D01*
D16*
X107920Y71332D02*
X107920Y67352D01*
X105440Y67352D01*
X105440Y71332D01*
X107920Y71332D01*
X107920Y69527D02*
X105440Y69527D01*
X116120Y71332D02*
X116120Y67352D01*
X113640Y67352D01*
X113640Y71332D01*
X116120Y71332D01*
X116120Y69527D02*
X113640Y69527D01*
X124320Y71332D02*
X124320Y67352D01*
X121840Y67352D01*
X121840Y71332D01*
X124320Y71332D01*
X124320Y69527D02*
X121840Y69527D01*
X132520Y71332D02*
X132520Y67352D01*
X130040Y67352D01*
X130040Y71332D01*
X132520Y71332D01*
X132520Y69527D02*
X130040Y69527D01*
X140720Y71332D02*
X140720Y67352D01*
X138240Y67352D01*
X138240Y71332D01*
X140720Y71332D01*
X140720Y69527D02*
X138240Y69527D01*
X148920Y71332D02*
X148920Y67352D01*
X146440Y67352D01*
X146440Y71332D01*
X148920Y71332D01*
X148920Y69527D02*
X146440Y69527D01*
X148920Y80852D02*
X148920Y84832D01*
X148920Y80852D02*
X146440Y80852D01*
X146440Y84832D01*
X148920Y84832D01*
X148920Y83027D02*
X146440Y83027D01*
X140720Y84832D02*
X140720Y80852D01*
X138240Y80852D01*
X138240Y84832D01*
X140720Y84832D01*
X140720Y83027D02*
X138240Y83027D01*
X132520Y84832D02*
X132520Y80852D01*
X130040Y80852D01*
X130040Y84832D01*
X132520Y84832D01*
X132520Y83027D02*
X130040Y83027D01*
X124320Y84832D02*
X124320Y80852D01*
X121840Y80852D01*
X121840Y84832D01*
X124320Y84832D01*
X124320Y83027D02*
X121840Y83027D01*
X116120Y84832D02*
X116120Y80852D01*
X113640Y80852D01*
X113640Y84832D01*
X116120Y84832D01*
X116120Y83027D02*
X113640Y83027D01*
X107920Y84832D02*
X107920Y80852D01*
X105440Y80852D01*
X105440Y84832D01*
X107920Y84832D01*
X107920Y83027D02*
X105440Y83027D01*
D13*
X102918Y95282D02*
X97902Y95282D01*
X97902Y100298D01*
X102918Y100298D01*
X102918Y95282D01*
X102918Y97423D02*
X97902Y97423D01*
X97902Y99564D02*
X102918Y99564D01*
X107902Y95282D02*
X112918Y95282D01*
X107902Y95282D02*
X107902Y100298D01*
X112918Y100298D01*
X112918Y95282D01*
X112918Y97423D02*
X107902Y97423D01*
X107902Y99564D02*
X112918Y99564D01*
X107998Y52102D02*
X102982Y52102D01*
X102982Y57118D01*
X107998Y57118D01*
X107998Y52102D01*
X107998Y54243D02*
X102982Y54243D01*
X102982Y56384D02*
X107998Y56384D01*
X112982Y52102D02*
X117998Y52102D01*
X112982Y52102D02*
X112982Y57118D01*
X117998Y57118D01*
X117998Y52102D01*
X117998Y54243D02*
X112982Y54243D01*
X112982Y56384D02*
X117998Y56384D01*
X152352Y100298D02*
X157368Y100298D01*
X157368Y95282D01*
X152352Y95282D01*
X152352Y100298D01*
X152352Y97423D02*
X157368Y97423D01*
X157368Y99564D02*
X152352Y99564D01*
X147368Y100298D02*
X142352Y100298D01*
X147368Y100298D02*
X147368Y95282D01*
X142352Y95282D01*
X142352Y100298D01*
X142352Y97423D02*
X147368Y97423D01*
X147368Y99564D02*
X142352Y99564D01*
X132128Y52102D02*
X127112Y52102D01*
X127112Y57118D01*
X132128Y57118D01*
X132128Y52102D01*
X132128Y54243D02*
X127112Y54243D01*
X127112Y56384D02*
X132128Y56384D01*
X137112Y52102D02*
X142128Y52102D01*
X137112Y52102D02*
X137112Y57118D01*
X142128Y57118D01*
X142128Y52102D01*
X142128Y54243D02*
X137112Y54243D01*
X137112Y56384D02*
X142128Y56384D01*
X138318Y100298D02*
X133302Y100298D01*
X138318Y100298D02*
X138318Y95282D01*
X133302Y95282D01*
X133302Y100298D01*
X133302Y97423D02*
X138318Y97423D01*
X138318Y99564D02*
X133302Y99564D01*
X128318Y100298D02*
X123302Y100298D01*
X128318Y100298D02*
X128318Y95282D01*
X123302Y95282D01*
X123302Y100298D01*
X123302Y97423D02*
X128318Y97423D01*
X128318Y99564D02*
X123302Y99564D01*
D14*
X63500Y12700D03*
X88900Y12700D03*
X139700Y114300D03*
X114300Y114300D03*
M02*
