G04 EAGLE Gerber RS-274X export*
G75*
%MOMM*%
%FSLAX34Y34*%
%LPD*%
%IN*%
%IPPOS*%
%AMOC8*
5,1,8,0,0,1.08239X$1,22.5*%
G01*
%ADD10C,0.203200*%
%ADD11C,0.000000*%
%ADD12C,0.254000*%


D10*
X0Y0D02*
X0Y127000D01*
X254000Y127000D01*
X254000Y0D01*
X0Y0D01*
D11*
X213360Y25400D02*
X213365Y25774D01*
X213378Y26148D01*
X213401Y26521D01*
X213433Y26894D01*
X213475Y27266D01*
X213525Y27636D01*
X213584Y28005D01*
X213653Y28373D01*
X213730Y28739D01*
X213817Y29103D01*
X213912Y29465D01*
X214016Y29824D01*
X214129Y30181D01*
X214251Y30534D01*
X214381Y30885D01*
X214520Y31232D01*
X214667Y31576D01*
X214823Y31916D01*
X214987Y32252D01*
X215160Y32584D01*
X215340Y32912D01*
X215528Y33235D01*
X215724Y33553D01*
X215928Y33867D01*
X216140Y34175D01*
X216359Y34478D01*
X216586Y34776D01*
X216819Y35068D01*
X217060Y35354D01*
X217308Y35635D01*
X217562Y35909D01*
X217824Y36176D01*
X218091Y36438D01*
X218365Y36692D01*
X218646Y36940D01*
X218932Y37181D01*
X219224Y37414D01*
X219522Y37641D01*
X219825Y37860D01*
X220133Y38072D01*
X220447Y38276D01*
X220765Y38472D01*
X221088Y38660D01*
X221416Y38840D01*
X221748Y39013D01*
X222084Y39177D01*
X222424Y39333D01*
X222768Y39480D01*
X223115Y39619D01*
X223466Y39749D01*
X223819Y39871D01*
X224176Y39984D01*
X224535Y40088D01*
X224897Y40183D01*
X225261Y40270D01*
X225627Y40347D01*
X225995Y40416D01*
X226364Y40475D01*
X226734Y40525D01*
X227106Y40567D01*
X227479Y40599D01*
X227852Y40622D01*
X228226Y40635D01*
X228600Y40640D01*
X228974Y40635D01*
X229348Y40622D01*
X229721Y40599D01*
X230094Y40567D01*
X230466Y40525D01*
X230836Y40475D01*
X231205Y40416D01*
X231573Y40347D01*
X231939Y40270D01*
X232303Y40183D01*
X232665Y40088D01*
X233024Y39984D01*
X233381Y39871D01*
X233734Y39749D01*
X234085Y39619D01*
X234432Y39480D01*
X234776Y39333D01*
X235116Y39177D01*
X235452Y39013D01*
X235784Y38840D01*
X236112Y38660D01*
X236435Y38472D01*
X236753Y38276D01*
X237067Y38072D01*
X237375Y37860D01*
X237678Y37641D01*
X237976Y37414D01*
X238268Y37181D01*
X238554Y36940D01*
X238835Y36692D01*
X239109Y36438D01*
X239376Y36176D01*
X239638Y35909D01*
X239892Y35635D01*
X240140Y35354D01*
X240381Y35068D01*
X240614Y34776D01*
X240841Y34478D01*
X241060Y34175D01*
X241272Y33867D01*
X241476Y33553D01*
X241672Y33235D01*
X241860Y32912D01*
X242040Y32584D01*
X242213Y32252D01*
X242377Y31916D01*
X242533Y31576D01*
X242680Y31232D01*
X242819Y30885D01*
X242949Y30534D01*
X243071Y30181D01*
X243184Y29824D01*
X243288Y29465D01*
X243383Y29103D01*
X243470Y28739D01*
X243547Y28373D01*
X243616Y28005D01*
X243675Y27636D01*
X243725Y27266D01*
X243767Y26894D01*
X243799Y26521D01*
X243822Y26148D01*
X243835Y25774D01*
X243840Y25400D01*
X243835Y25026D01*
X243822Y24652D01*
X243799Y24279D01*
X243767Y23906D01*
X243725Y23534D01*
X243675Y23164D01*
X243616Y22795D01*
X243547Y22427D01*
X243470Y22061D01*
X243383Y21697D01*
X243288Y21335D01*
X243184Y20976D01*
X243071Y20619D01*
X242949Y20266D01*
X242819Y19915D01*
X242680Y19568D01*
X242533Y19224D01*
X242377Y18884D01*
X242213Y18548D01*
X242040Y18216D01*
X241860Y17888D01*
X241672Y17565D01*
X241476Y17247D01*
X241272Y16933D01*
X241060Y16625D01*
X240841Y16322D01*
X240614Y16024D01*
X240381Y15732D01*
X240140Y15446D01*
X239892Y15165D01*
X239638Y14891D01*
X239376Y14624D01*
X239109Y14362D01*
X238835Y14108D01*
X238554Y13860D01*
X238268Y13619D01*
X237976Y13386D01*
X237678Y13159D01*
X237375Y12940D01*
X237067Y12728D01*
X236753Y12524D01*
X236435Y12328D01*
X236112Y12140D01*
X235784Y11960D01*
X235452Y11787D01*
X235116Y11623D01*
X234776Y11467D01*
X234432Y11320D01*
X234085Y11181D01*
X233734Y11051D01*
X233381Y10929D01*
X233024Y10816D01*
X232665Y10712D01*
X232303Y10617D01*
X231939Y10530D01*
X231573Y10453D01*
X231205Y10384D01*
X230836Y10325D01*
X230466Y10275D01*
X230094Y10233D01*
X229721Y10201D01*
X229348Y10178D01*
X228974Y10165D01*
X228600Y10160D01*
X228226Y10165D01*
X227852Y10178D01*
X227479Y10201D01*
X227106Y10233D01*
X226734Y10275D01*
X226364Y10325D01*
X225995Y10384D01*
X225627Y10453D01*
X225261Y10530D01*
X224897Y10617D01*
X224535Y10712D01*
X224176Y10816D01*
X223819Y10929D01*
X223466Y11051D01*
X223115Y11181D01*
X222768Y11320D01*
X222424Y11467D01*
X222084Y11623D01*
X221748Y11787D01*
X221416Y11960D01*
X221088Y12140D01*
X220765Y12328D01*
X220447Y12524D01*
X220133Y12728D01*
X219825Y12940D01*
X219522Y13159D01*
X219224Y13386D01*
X218932Y13619D01*
X218646Y13860D01*
X218365Y14108D01*
X218091Y14362D01*
X217824Y14624D01*
X217562Y14891D01*
X217308Y15165D01*
X217060Y15446D01*
X216819Y15732D01*
X216586Y16024D01*
X216359Y16322D01*
X216140Y16625D01*
X215928Y16933D01*
X215724Y17247D01*
X215528Y17565D01*
X215340Y17888D01*
X215160Y18216D01*
X214987Y18548D01*
X214823Y18884D01*
X214667Y19224D01*
X214520Y19568D01*
X214381Y19915D01*
X214251Y20266D01*
X214129Y20619D01*
X214016Y20976D01*
X213912Y21335D01*
X213817Y21697D01*
X213730Y22061D01*
X213653Y22427D01*
X213584Y22795D01*
X213525Y23164D01*
X213475Y23534D01*
X213433Y23906D01*
X213401Y24279D01*
X213378Y24652D01*
X213365Y25026D01*
X213360Y25400D01*
X10160Y25400D02*
X10165Y25774D01*
X10178Y26148D01*
X10201Y26521D01*
X10233Y26894D01*
X10275Y27266D01*
X10325Y27636D01*
X10384Y28005D01*
X10453Y28373D01*
X10530Y28739D01*
X10617Y29103D01*
X10712Y29465D01*
X10816Y29824D01*
X10929Y30181D01*
X11051Y30534D01*
X11181Y30885D01*
X11320Y31232D01*
X11467Y31576D01*
X11623Y31916D01*
X11787Y32252D01*
X11960Y32584D01*
X12140Y32912D01*
X12328Y33235D01*
X12524Y33553D01*
X12728Y33867D01*
X12940Y34175D01*
X13159Y34478D01*
X13386Y34776D01*
X13619Y35068D01*
X13860Y35354D01*
X14108Y35635D01*
X14362Y35909D01*
X14624Y36176D01*
X14891Y36438D01*
X15165Y36692D01*
X15446Y36940D01*
X15732Y37181D01*
X16024Y37414D01*
X16322Y37641D01*
X16625Y37860D01*
X16933Y38072D01*
X17247Y38276D01*
X17565Y38472D01*
X17888Y38660D01*
X18216Y38840D01*
X18548Y39013D01*
X18884Y39177D01*
X19224Y39333D01*
X19568Y39480D01*
X19915Y39619D01*
X20266Y39749D01*
X20619Y39871D01*
X20976Y39984D01*
X21335Y40088D01*
X21697Y40183D01*
X22061Y40270D01*
X22427Y40347D01*
X22795Y40416D01*
X23164Y40475D01*
X23534Y40525D01*
X23906Y40567D01*
X24279Y40599D01*
X24652Y40622D01*
X25026Y40635D01*
X25400Y40640D01*
X25774Y40635D01*
X26148Y40622D01*
X26521Y40599D01*
X26894Y40567D01*
X27266Y40525D01*
X27636Y40475D01*
X28005Y40416D01*
X28373Y40347D01*
X28739Y40270D01*
X29103Y40183D01*
X29465Y40088D01*
X29824Y39984D01*
X30181Y39871D01*
X30534Y39749D01*
X30885Y39619D01*
X31232Y39480D01*
X31576Y39333D01*
X31916Y39177D01*
X32252Y39013D01*
X32584Y38840D01*
X32912Y38660D01*
X33235Y38472D01*
X33553Y38276D01*
X33867Y38072D01*
X34175Y37860D01*
X34478Y37641D01*
X34776Y37414D01*
X35068Y37181D01*
X35354Y36940D01*
X35635Y36692D01*
X35909Y36438D01*
X36176Y36176D01*
X36438Y35909D01*
X36692Y35635D01*
X36940Y35354D01*
X37181Y35068D01*
X37414Y34776D01*
X37641Y34478D01*
X37860Y34175D01*
X38072Y33867D01*
X38276Y33553D01*
X38472Y33235D01*
X38660Y32912D01*
X38840Y32584D01*
X39013Y32252D01*
X39177Y31916D01*
X39333Y31576D01*
X39480Y31232D01*
X39619Y30885D01*
X39749Y30534D01*
X39871Y30181D01*
X39984Y29824D01*
X40088Y29465D01*
X40183Y29103D01*
X40270Y28739D01*
X40347Y28373D01*
X40416Y28005D01*
X40475Y27636D01*
X40525Y27266D01*
X40567Y26894D01*
X40599Y26521D01*
X40622Y26148D01*
X40635Y25774D01*
X40640Y25400D01*
X40635Y25026D01*
X40622Y24652D01*
X40599Y24279D01*
X40567Y23906D01*
X40525Y23534D01*
X40475Y23164D01*
X40416Y22795D01*
X40347Y22427D01*
X40270Y22061D01*
X40183Y21697D01*
X40088Y21335D01*
X39984Y20976D01*
X39871Y20619D01*
X39749Y20266D01*
X39619Y19915D01*
X39480Y19568D01*
X39333Y19224D01*
X39177Y18884D01*
X39013Y18548D01*
X38840Y18216D01*
X38660Y17888D01*
X38472Y17565D01*
X38276Y17247D01*
X38072Y16933D01*
X37860Y16625D01*
X37641Y16322D01*
X37414Y16024D01*
X37181Y15732D01*
X36940Y15446D01*
X36692Y15165D01*
X36438Y14891D01*
X36176Y14624D01*
X35909Y14362D01*
X35635Y14108D01*
X35354Y13860D01*
X35068Y13619D01*
X34776Y13386D01*
X34478Y13159D01*
X34175Y12940D01*
X33867Y12728D01*
X33553Y12524D01*
X33235Y12328D01*
X32912Y12140D01*
X32584Y11960D01*
X32252Y11787D01*
X31916Y11623D01*
X31576Y11467D01*
X31232Y11320D01*
X30885Y11181D01*
X30534Y11051D01*
X30181Y10929D01*
X29824Y10816D01*
X29465Y10712D01*
X29103Y10617D01*
X28739Y10530D01*
X28373Y10453D01*
X28005Y10384D01*
X27636Y10325D01*
X27266Y10275D01*
X26894Y10233D01*
X26521Y10201D01*
X26148Y10178D01*
X25774Y10165D01*
X25400Y10160D01*
X25026Y10165D01*
X24652Y10178D01*
X24279Y10201D01*
X23906Y10233D01*
X23534Y10275D01*
X23164Y10325D01*
X22795Y10384D01*
X22427Y10453D01*
X22061Y10530D01*
X21697Y10617D01*
X21335Y10712D01*
X20976Y10816D01*
X20619Y10929D01*
X20266Y11051D01*
X19915Y11181D01*
X19568Y11320D01*
X19224Y11467D01*
X18884Y11623D01*
X18548Y11787D01*
X18216Y11960D01*
X17888Y12140D01*
X17565Y12328D01*
X17247Y12524D01*
X16933Y12728D01*
X16625Y12940D01*
X16322Y13159D01*
X16024Y13386D01*
X15732Y13619D01*
X15446Y13860D01*
X15165Y14108D01*
X14891Y14362D01*
X14624Y14624D01*
X14362Y14891D01*
X14108Y15165D01*
X13860Y15446D01*
X13619Y15732D01*
X13386Y16024D01*
X13159Y16322D01*
X12940Y16625D01*
X12728Y16933D01*
X12524Y17247D01*
X12328Y17565D01*
X12140Y17888D01*
X11960Y18216D01*
X11787Y18548D01*
X11623Y18884D01*
X11467Y19224D01*
X11320Y19568D01*
X11181Y19915D01*
X11051Y20266D01*
X10929Y20619D01*
X10816Y20976D01*
X10712Y21335D01*
X10617Y21697D01*
X10530Y22061D01*
X10453Y22427D01*
X10384Y22795D01*
X10325Y23164D01*
X10275Y23534D01*
X10233Y23906D01*
X10201Y24279D01*
X10178Y24652D01*
X10165Y25026D01*
X10160Y25400D01*
D12*
X0Y0D02*
X254000Y0D01*
X254000Y127000D01*
X0Y127000D01*
X0Y0D01*
X243840Y24856D02*
X243762Y23770D01*
X243607Y22692D01*
X243376Y21629D01*
X243069Y20584D01*
X242689Y19564D01*
X242237Y18574D01*
X241715Y17619D01*
X241126Y16703D01*
X240474Y15831D01*
X239761Y15009D01*
X238991Y14239D01*
X238169Y13526D01*
X237297Y12874D01*
X236381Y12285D01*
X235426Y11763D01*
X234436Y11311D01*
X233416Y10931D01*
X232371Y10624D01*
X231308Y10393D01*
X230230Y10238D01*
X229144Y10160D01*
X228056Y10160D01*
X226970Y10238D01*
X225892Y10393D01*
X224829Y10624D01*
X223784Y10931D01*
X222764Y11311D01*
X221774Y11763D01*
X220819Y12285D01*
X219903Y12874D01*
X219031Y13526D01*
X218209Y14239D01*
X217439Y15009D01*
X216726Y15831D01*
X216074Y16703D01*
X215485Y17619D01*
X214963Y18574D01*
X214511Y19564D01*
X214131Y20584D01*
X213824Y21629D01*
X213593Y22692D01*
X213438Y23770D01*
X213360Y24856D01*
X213360Y25944D01*
X213438Y27030D01*
X213593Y28108D01*
X213824Y29171D01*
X214131Y30216D01*
X214511Y31236D01*
X214963Y32226D01*
X215485Y33181D01*
X216074Y34097D01*
X216726Y34969D01*
X217439Y35791D01*
X218209Y36561D01*
X219031Y37274D01*
X219903Y37926D01*
X220819Y38515D01*
X221774Y39037D01*
X222764Y39489D01*
X223784Y39869D01*
X224829Y40176D01*
X225892Y40407D01*
X226970Y40562D01*
X228056Y40640D01*
X229144Y40640D01*
X230230Y40562D01*
X231308Y40407D01*
X232371Y40176D01*
X233416Y39869D01*
X234436Y39489D01*
X235426Y39037D01*
X236381Y38515D01*
X237297Y37926D01*
X238169Y37274D01*
X238991Y36561D01*
X239761Y35791D01*
X240474Y34969D01*
X241126Y34097D01*
X241715Y33181D01*
X242237Y32226D01*
X242689Y31236D01*
X243069Y30216D01*
X243376Y29171D01*
X243607Y28108D01*
X243762Y27030D01*
X243840Y25944D01*
X243840Y24856D01*
X40640Y24856D02*
X40562Y23770D01*
X40407Y22692D01*
X40176Y21629D01*
X39869Y20584D01*
X39489Y19564D01*
X39037Y18574D01*
X38515Y17619D01*
X37926Y16703D01*
X37274Y15831D01*
X36561Y15009D01*
X35791Y14239D01*
X34969Y13526D01*
X34097Y12874D01*
X33181Y12285D01*
X32226Y11763D01*
X31236Y11311D01*
X30216Y10931D01*
X29171Y10624D01*
X28108Y10393D01*
X27030Y10238D01*
X25944Y10160D01*
X24856Y10160D01*
X23770Y10238D01*
X22692Y10393D01*
X21629Y10624D01*
X20584Y10931D01*
X19564Y11311D01*
X18574Y11763D01*
X17619Y12285D01*
X16703Y12874D01*
X15831Y13526D01*
X15009Y14239D01*
X14239Y15009D01*
X13526Y15831D01*
X12874Y16703D01*
X12285Y17619D01*
X11763Y18574D01*
X11311Y19564D01*
X10931Y20584D01*
X10624Y21629D01*
X10393Y22692D01*
X10238Y23770D01*
X10160Y24856D01*
X10160Y25944D01*
X10238Y27030D01*
X10393Y28108D01*
X10624Y29171D01*
X10931Y30216D01*
X11311Y31236D01*
X11763Y32226D01*
X12285Y33181D01*
X12874Y34097D01*
X13526Y34969D01*
X14239Y35791D01*
X15009Y36561D01*
X15831Y37274D01*
X16703Y37926D01*
X17619Y38515D01*
X18574Y39037D01*
X19564Y39489D01*
X20584Y39869D01*
X21629Y40176D01*
X22692Y40407D01*
X23770Y40562D01*
X24856Y40640D01*
X25944Y40640D01*
X27030Y40562D01*
X28108Y40407D01*
X29171Y40176D01*
X30216Y39869D01*
X31236Y39489D01*
X32226Y39037D01*
X33181Y38515D01*
X34097Y37926D01*
X34969Y37274D01*
X35791Y36561D01*
X36561Y35791D01*
X37274Y34969D01*
X37926Y34097D01*
X38515Y33181D01*
X39037Y32226D01*
X39489Y31236D01*
X39869Y30216D01*
X40176Y29171D01*
X40407Y28108D01*
X40562Y27030D01*
X40640Y25944D01*
X40640Y24856D01*
M02*
