G04 EAGLE Gerber RS-274X export*
G75*
%MOMM*%
%FSLAX34Y34*%
%LPD*%
%INSolderpaste Bottom*%
%IPPOS*%
%AMOC8*
5,1,8,0,0,1.08239X$1,22.5*%
G01*
%ADD10C,0.101500*%
%ADD11R,1.879600X1.473200*%


D10*
X148563Y58635D02*
X148563Y54649D01*
X146077Y54649D01*
X146077Y58635D01*
X148563Y58635D01*
X148563Y55613D02*
X146077Y55613D01*
X146077Y56577D02*
X148563Y56577D01*
X148563Y57541D02*
X146077Y57541D01*
X146077Y58505D02*
X148563Y58505D01*
X140363Y58635D02*
X140363Y54649D01*
X137877Y54649D01*
X137877Y58635D01*
X140363Y58635D01*
X140363Y55613D02*
X137877Y55613D01*
X137877Y56577D02*
X140363Y56577D01*
X140363Y57541D02*
X137877Y57541D01*
X137877Y58505D02*
X140363Y58505D01*
X132163Y58635D02*
X132163Y54649D01*
X129677Y54649D01*
X129677Y58635D01*
X132163Y58635D01*
X132163Y55613D02*
X129677Y55613D01*
X129677Y56577D02*
X132163Y56577D01*
X132163Y57541D02*
X129677Y57541D01*
X129677Y58505D02*
X132163Y58505D01*
X123963Y58635D02*
X123963Y54649D01*
X121477Y54649D01*
X121477Y58635D01*
X123963Y58635D01*
X123963Y55613D02*
X121477Y55613D01*
X121477Y56577D02*
X123963Y56577D01*
X123963Y57541D02*
X121477Y57541D01*
X121477Y58505D02*
X123963Y58505D01*
X115763Y58635D02*
X115763Y54649D01*
X113277Y54649D01*
X113277Y58635D01*
X115763Y58635D01*
X115763Y55613D02*
X113277Y55613D01*
X113277Y56577D02*
X115763Y56577D01*
X115763Y57541D02*
X113277Y57541D01*
X113277Y58505D02*
X115763Y58505D01*
X107563Y58635D02*
X107563Y54649D01*
X105077Y54649D01*
X105077Y58635D01*
X107563Y58635D01*
X107563Y55613D02*
X105077Y55613D01*
X105077Y56577D02*
X107563Y56577D01*
X107563Y57541D02*
X105077Y57541D01*
X105077Y58505D02*
X107563Y58505D01*
X107563Y68149D02*
X107563Y72135D01*
X107563Y68149D02*
X105077Y68149D01*
X105077Y72135D01*
X107563Y72135D01*
X107563Y69113D02*
X105077Y69113D01*
X105077Y70077D02*
X107563Y70077D01*
X107563Y71041D02*
X105077Y71041D01*
X105077Y72005D02*
X107563Y72005D01*
X115763Y72135D02*
X115763Y68149D01*
X113277Y68149D01*
X113277Y72135D01*
X115763Y72135D01*
X115763Y69113D02*
X113277Y69113D01*
X113277Y70077D02*
X115763Y70077D01*
X115763Y71041D02*
X113277Y71041D01*
X113277Y72005D02*
X115763Y72005D01*
X123963Y72135D02*
X123963Y68149D01*
X121477Y68149D01*
X121477Y72135D01*
X123963Y72135D01*
X123963Y69113D02*
X121477Y69113D01*
X121477Y70077D02*
X123963Y70077D01*
X123963Y71041D02*
X121477Y71041D01*
X121477Y72005D02*
X123963Y72005D01*
X132163Y72135D02*
X132163Y68149D01*
X129677Y68149D01*
X129677Y72135D01*
X132163Y72135D01*
X132163Y69113D02*
X129677Y69113D01*
X129677Y70077D02*
X132163Y70077D01*
X132163Y71041D02*
X129677Y71041D01*
X129677Y72005D02*
X132163Y72005D01*
X140363Y72135D02*
X140363Y68149D01*
X137877Y68149D01*
X137877Y72135D01*
X140363Y72135D01*
X140363Y69113D02*
X137877Y69113D01*
X137877Y70077D02*
X140363Y70077D01*
X140363Y71041D02*
X137877Y71041D01*
X137877Y72005D02*
X140363Y72005D01*
X148563Y72135D02*
X148563Y68149D01*
X146077Y68149D01*
X146077Y72135D01*
X148563Y72135D01*
X148563Y69113D02*
X146077Y69113D01*
X146077Y70077D02*
X148563Y70077D01*
X148563Y71041D02*
X146077Y71041D01*
X146077Y72005D02*
X148563Y72005D01*
D11*
X236474Y76200D03*
D10*
X407643Y58635D02*
X407643Y54649D01*
X405157Y54649D01*
X405157Y58635D01*
X407643Y58635D01*
X407643Y55613D02*
X405157Y55613D01*
X405157Y56577D02*
X407643Y56577D01*
X407643Y57541D02*
X405157Y57541D01*
X405157Y58505D02*
X407643Y58505D01*
X399443Y58635D02*
X399443Y54649D01*
X396957Y54649D01*
X396957Y58635D01*
X399443Y58635D01*
X399443Y55613D02*
X396957Y55613D01*
X396957Y56577D02*
X399443Y56577D01*
X399443Y57541D02*
X396957Y57541D01*
X396957Y58505D02*
X399443Y58505D01*
X391243Y58635D02*
X391243Y54649D01*
X388757Y54649D01*
X388757Y58635D01*
X391243Y58635D01*
X391243Y55613D02*
X388757Y55613D01*
X388757Y56577D02*
X391243Y56577D01*
X391243Y57541D02*
X388757Y57541D01*
X388757Y58505D02*
X391243Y58505D01*
X383043Y58635D02*
X383043Y54649D01*
X380557Y54649D01*
X380557Y58635D01*
X383043Y58635D01*
X383043Y55613D02*
X380557Y55613D01*
X380557Y56577D02*
X383043Y56577D01*
X383043Y57541D02*
X380557Y57541D01*
X380557Y58505D02*
X383043Y58505D01*
X374843Y58635D02*
X374843Y54649D01*
X372357Y54649D01*
X372357Y58635D01*
X374843Y58635D01*
X374843Y55613D02*
X372357Y55613D01*
X372357Y56577D02*
X374843Y56577D01*
X374843Y57541D02*
X372357Y57541D01*
X372357Y58505D02*
X374843Y58505D01*
X366643Y58635D02*
X366643Y54649D01*
X364157Y54649D01*
X364157Y58635D01*
X366643Y58635D01*
X366643Y55613D02*
X364157Y55613D01*
X364157Y56577D02*
X366643Y56577D01*
X366643Y57541D02*
X364157Y57541D01*
X364157Y58505D02*
X366643Y58505D01*
X366643Y68149D02*
X366643Y72135D01*
X366643Y68149D02*
X364157Y68149D01*
X364157Y72135D01*
X366643Y72135D01*
X366643Y69113D02*
X364157Y69113D01*
X364157Y70077D02*
X366643Y70077D01*
X366643Y71041D02*
X364157Y71041D01*
X364157Y72005D02*
X366643Y72005D01*
X374843Y72135D02*
X374843Y68149D01*
X372357Y68149D01*
X372357Y72135D01*
X374843Y72135D01*
X374843Y69113D02*
X372357Y69113D01*
X372357Y70077D02*
X374843Y70077D01*
X374843Y71041D02*
X372357Y71041D01*
X372357Y72005D02*
X374843Y72005D01*
X383043Y72135D02*
X383043Y68149D01*
X380557Y68149D01*
X380557Y72135D01*
X383043Y72135D01*
X383043Y69113D02*
X380557Y69113D01*
X380557Y70077D02*
X383043Y70077D01*
X383043Y71041D02*
X380557Y71041D01*
X380557Y72005D02*
X383043Y72005D01*
X391243Y72135D02*
X391243Y68149D01*
X388757Y68149D01*
X388757Y72135D01*
X391243Y72135D01*
X391243Y69113D02*
X388757Y69113D01*
X388757Y70077D02*
X391243Y70077D01*
X391243Y71041D02*
X388757Y71041D01*
X388757Y72005D02*
X391243Y72005D01*
X399443Y72135D02*
X399443Y68149D01*
X396957Y68149D01*
X396957Y72135D01*
X399443Y72135D01*
X399443Y69113D02*
X396957Y69113D01*
X396957Y70077D02*
X399443Y70077D01*
X399443Y71041D02*
X396957Y71041D01*
X396957Y72005D02*
X399443Y72005D01*
X407643Y72135D02*
X407643Y68149D01*
X405157Y68149D01*
X405157Y72135D01*
X407643Y72135D01*
X407643Y69113D02*
X405157Y69113D01*
X405157Y70077D02*
X407643Y70077D01*
X407643Y71041D02*
X405157Y71041D01*
X405157Y72005D02*
X407643Y72005D01*
D11*
X495554Y76200D03*
D10*
X666723Y58635D02*
X666723Y54649D01*
X664237Y54649D01*
X664237Y58635D01*
X666723Y58635D01*
X666723Y55613D02*
X664237Y55613D01*
X664237Y56577D02*
X666723Y56577D01*
X666723Y57541D02*
X664237Y57541D01*
X664237Y58505D02*
X666723Y58505D01*
X658523Y58635D02*
X658523Y54649D01*
X656037Y54649D01*
X656037Y58635D01*
X658523Y58635D01*
X658523Y55613D02*
X656037Y55613D01*
X656037Y56577D02*
X658523Y56577D01*
X658523Y57541D02*
X656037Y57541D01*
X656037Y58505D02*
X658523Y58505D01*
X650323Y58635D02*
X650323Y54649D01*
X647837Y54649D01*
X647837Y58635D01*
X650323Y58635D01*
X650323Y55613D02*
X647837Y55613D01*
X647837Y56577D02*
X650323Y56577D01*
X650323Y57541D02*
X647837Y57541D01*
X647837Y58505D02*
X650323Y58505D01*
X642123Y58635D02*
X642123Y54649D01*
X639637Y54649D01*
X639637Y58635D01*
X642123Y58635D01*
X642123Y55613D02*
X639637Y55613D01*
X639637Y56577D02*
X642123Y56577D01*
X642123Y57541D02*
X639637Y57541D01*
X639637Y58505D02*
X642123Y58505D01*
X633923Y58635D02*
X633923Y54649D01*
X631437Y54649D01*
X631437Y58635D01*
X633923Y58635D01*
X633923Y55613D02*
X631437Y55613D01*
X631437Y56577D02*
X633923Y56577D01*
X633923Y57541D02*
X631437Y57541D01*
X631437Y58505D02*
X633923Y58505D01*
X625723Y58635D02*
X625723Y54649D01*
X623237Y54649D01*
X623237Y58635D01*
X625723Y58635D01*
X625723Y55613D02*
X623237Y55613D01*
X623237Y56577D02*
X625723Y56577D01*
X625723Y57541D02*
X623237Y57541D01*
X623237Y58505D02*
X625723Y58505D01*
X625723Y68149D02*
X625723Y72135D01*
X625723Y68149D02*
X623237Y68149D01*
X623237Y72135D01*
X625723Y72135D01*
X625723Y69113D02*
X623237Y69113D01*
X623237Y70077D02*
X625723Y70077D01*
X625723Y71041D02*
X623237Y71041D01*
X623237Y72005D02*
X625723Y72005D01*
X633923Y72135D02*
X633923Y68149D01*
X631437Y68149D01*
X631437Y72135D01*
X633923Y72135D01*
X633923Y69113D02*
X631437Y69113D01*
X631437Y70077D02*
X633923Y70077D01*
X633923Y71041D02*
X631437Y71041D01*
X631437Y72005D02*
X633923Y72005D01*
X642123Y72135D02*
X642123Y68149D01*
X639637Y68149D01*
X639637Y72135D01*
X642123Y72135D01*
X642123Y69113D02*
X639637Y69113D01*
X639637Y70077D02*
X642123Y70077D01*
X642123Y71041D02*
X639637Y71041D01*
X639637Y72005D02*
X642123Y72005D01*
X650323Y72135D02*
X650323Y68149D01*
X647837Y68149D01*
X647837Y72135D01*
X650323Y72135D01*
X650323Y69113D02*
X647837Y69113D01*
X647837Y70077D02*
X650323Y70077D01*
X650323Y71041D02*
X647837Y71041D01*
X647837Y72005D02*
X650323Y72005D01*
X658523Y72135D02*
X658523Y68149D01*
X656037Y68149D01*
X656037Y72135D01*
X658523Y72135D01*
X658523Y69113D02*
X656037Y69113D01*
X656037Y70077D02*
X658523Y70077D01*
X658523Y71041D02*
X656037Y71041D01*
X656037Y72005D02*
X658523Y72005D01*
X666723Y72135D02*
X666723Y68149D01*
X664237Y68149D01*
X664237Y72135D01*
X666723Y72135D01*
X666723Y69113D02*
X664237Y69113D01*
X664237Y70077D02*
X666723Y70077D01*
X666723Y71041D02*
X664237Y71041D01*
X664237Y72005D02*
X666723Y72005D01*
D11*
X754634Y76200D03*
D10*
X925803Y58635D02*
X925803Y54649D01*
X923317Y54649D01*
X923317Y58635D01*
X925803Y58635D01*
X925803Y55613D02*
X923317Y55613D01*
X923317Y56577D02*
X925803Y56577D01*
X925803Y57541D02*
X923317Y57541D01*
X923317Y58505D02*
X925803Y58505D01*
X917603Y58635D02*
X917603Y54649D01*
X915117Y54649D01*
X915117Y58635D01*
X917603Y58635D01*
X917603Y55613D02*
X915117Y55613D01*
X915117Y56577D02*
X917603Y56577D01*
X917603Y57541D02*
X915117Y57541D01*
X915117Y58505D02*
X917603Y58505D01*
X909403Y58635D02*
X909403Y54649D01*
X906917Y54649D01*
X906917Y58635D01*
X909403Y58635D01*
X909403Y55613D02*
X906917Y55613D01*
X906917Y56577D02*
X909403Y56577D01*
X909403Y57541D02*
X906917Y57541D01*
X906917Y58505D02*
X909403Y58505D01*
X901203Y58635D02*
X901203Y54649D01*
X898717Y54649D01*
X898717Y58635D01*
X901203Y58635D01*
X901203Y55613D02*
X898717Y55613D01*
X898717Y56577D02*
X901203Y56577D01*
X901203Y57541D02*
X898717Y57541D01*
X898717Y58505D02*
X901203Y58505D01*
X893003Y58635D02*
X893003Y54649D01*
X890517Y54649D01*
X890517Y58635D01*
X893003Y58635D01*
X893003Y55613D02*
X890517Y55613D01*
X890517Y56577D02*
X893003Y56577D01*
X893003Y57541D02*
X890517Y57541D01*
X890517Y58505D02*
X893003Y58505D01*
X884803Y58635D02*
X884803Y54649D01*
X882317Y54649D01*
X882317Y58635D01*
X884803Y58635D01*
X884803Y55613D02*
X882317Y55613D01*
X882317Y56577D02*
X884803Y56577D01*
X884803Y57541D02*
X882317Y57541D01*
X882317Y58505D02*
X884803Y58505D01*
X884803Y68149D02*
X884803Y72135D01*
X884803Y68149D02*
X882317Y68149D01*
X882317Y72135D01*
X884803Y72135D01*
X884803Y69113D02*
X882317Y69113D01*
X882317Y70077D02*
X884803Y70077D01*
X884803Y71041D02*
X882317Y71041D01*
X882317Y72005D02*
X884803Y72005D01*
X893003Y72135D02*
X893003Y68149D01*
X890517Y68149D01*
X890517Y72135D01*
X893003Y72135D01*
X893003Y69113D02*
X890517Y69113D01*
X890517Y70077D02*
X893003Y70077D01*
X893003Y71041D02*
X890517Y71041D01*
X890517Y72005D02*
X893003Y72005D01*
X901203Y72135D02*
X901203Y68149D01*
X898717Y68149D01*
X898717Y72135D01*
X901203Y72135D01*
X901203Y69113D02*
X898717Y69113D01*
X898717Y70077D02*
X901203Y70077D01*
X901203Y71041D02*
X898717Y71041D01*
X898717Y72005D02*
X901203Y72005D01*
X909403Y72135D02*
X909403Y68149D01*
X906917Y68149D01*
X906917Y72135D01*
X909403Y72135D01*
X909403Y69113D02*
X906917Y69113D01*
X906917Y70077D02*
X909403Y70077D01*
X909403Y71041D02*
X906917Y71041D01*
X906917Y72005D02*
X909403Y72005D01*
X917603Y72135D02*
X917603Y68149D01*
X915117Y68149D01*
X915117Y72135D01*
X917603Y72135D01*
X917603Y69113D02*
X915117Y69113D01*
X915117Y70077D02*
X917603Y70077D01*
X917603Y71041D02*
X915117Y71041D01*
X915117Y72005D02*
X917603Y72005D01*
X925803Y72135D02*
X925803Y68149D01*
X923317Y68149D01*
X923317Y72135D01*
X925803Y72135D01*
X925803Y69113D02*
X923317Y69113D01*
X923317Y70077D02*
X925803Y70077D01*
X925803Y71041D02*
X923317Y71041D01*
X923317Y72005D02*
X925803Y72005D01*
D11*
X1013714Y76200D03*
D10*
X1184883Y58635D02*
X1184883Y54649D01*
X1182397Y54649D01*
X1182397Y58635D01*
X1184883Y58635D01*
X1184883Y55613D02*
X1182397Y55613D01*
X1182397Y56577D02*
X1184883Y56577D01*
X1184883Y57541D02*
X1182397Y57541D01*
X1182397Y58505D02*
X1184883Y58505D01*
X1176683Y58635D02*
X1176683Y54649D01*
X1174197Y54649D01*
X1174197Y58635D01*
X1176683Y58635D01*
X1176683Y55613D02*
X1174197Y55613D01*
X1174197Y56577D02*
X1176683Y56577D01*
X1176683Y57541D02*
X1174197Y57541D01*
X1174197Y58505D02*
X1176683Y58505D01*
X1168483Y58635D02*
X1168483Y54649D01*
X1165997Y54649D01*
X1165997Y58635D01*
X1168483Y58635D01*
X1168483Y55613D02*
X1165997Y55613D01*
X1165997Y56577D02*
X1168483Y56577D01*
X1168483Y57541D02*
X1165997Y57541D01*
X1165997Y58505D02*
X1168483Y58505D01*
X1160283Y58635D02*
X1160283Y54649D01*
X1157797Y54649D01*
X1157797Y58635D01*
X1160283Y58635D01*
X1160283Y55613D02*
X1157797Y55613D01*
X1157797Y56577D02*
X1160283Y56577D01*
X1160283Y57541D02*
X1157797Y57541D01*
X1157797Y58505D02*
X1160283Y58505D01*
X1152083Y58635D02*
X1152083Y54649D01*
X1149597Y54649D01*
X1149597Y58635D01*
X1152083Y58635D01*
X1152083Y55613D02*
X1149597Y55613D01*
X1149597Y56577D02*
X1152083Y56577D01*
X1152083Y57541D02*
X1149597Y57541D01*
X1149597Y58505D02*
X1152083Y58505D01*
X1143883Y58635D02*
X1143883Y54649D01*
X1141397Y54649D01*
X1141397Y58635D01*
X1143883Y58635D01*
X1143883Y55613D02*
X1141397Y55613D01*
X1141397Y56577D02*
X1143883Y56577D01*
X1143883Y57541D02*
X1141397Y57541D01*
X1141397Y58505D02*
X1143883Y58505D01*
X1143883Y68149D02*
X1143883Y72135D01*
X1143883Y68149D02*
X1141397Y68149D01*
X1141397Y72135D01*
X1143883Y72135D01*
X1143883Y69113D02*
X1141397Y69113D01*
X1141397Y70077D02*
X1143883Y70077D01*
X1143883Y71041D02*
X1141397Y71041D01*
X1141397Y72005D02*
X1143883Y72005D01*
X1152083Y72135D02*
X1152083Y68149D01*
X1149597Y68149D01*
X1149597Y72135D01*
X1152083Y72135D01*
X1152083Y69113D02*
X1149597Y69113D01*
X1149597Y70077D02*
X1152083Y70077D01*
X1152083Y71041D02*
X1149597Y71041D01*
X1149597Y72005D02*
X1152083Y72005D01*
X1160283Y72135D02*
X1160283Y68149D01*
X1157797Y68149D01*
X1157797Y72135D01*
X1160283Y72135D01*
X1160283Y69113D02*
X1157797Y69113D01*
X1157797Y70077D02*
X1160283Y70077D01*
X1160283Y71041D02*
X1157797Y71041D01*
X1157797Y72005D02*
X1160283Y72005D01*
X1168483Y72135D02*
X1168483Y68149D01*
X1165997Y68149D01*
X1165997Y72135D01*
X1168483Y72135D01*
X1168483Y69113D02*
X1165997Y69113D01*
X1165997Y70077D02*
X1168483Y70077D01*
X1168483Y71041D02*
X1165997Y71041D01*
X1165997Y72005D02*
X1168483Y72005D01*
X1176683Y72135D02*
X1176683Y68149D01*
X1174197Y68149D01*
X1174197Y72135D01*
X1176683Y72135D01*
X1176683Y69113D02*
X1174197Y69113D01*
X1174197Y70077D02*
X1176683Y70077D01*
X1176683Y71041D02*
X1174197Y71041D01*
X1174197Y72005D02*
X1176683Y72005D01*
X1184883Y72135D02*
X1184883Y68149D01*
X1182397Y68149D01*
X1182397Y72135D01*
X1184883Y72135D01*
X1184883Y69113D02*
X1182397Y69113D01*
X1182397Y70077D02*
X1184883Y70077D01*
X1184883Y71041D02*
X1182397Y71041D01*
X1182397Y72005D02*
X1184883Y72005D01*
D11*
X1272794Y76200D03*
D10*
X1443963Y58635D02*
X1443963Y54649D01*
X1441477Y54649D01*
X1441477Y58635D01*
X1443963Y58635D01*
X1443963Y55613D02*
X1441477Y55613D01*
X1441477Y56577D02*
X1443963Y56577D01*
X1443963Y57541D02*
X1441477Y57541D01*
X1441477Y58505D02*
X1443963Y58505D01*
X1435763Y58635D02*
X1435763Y54649D01*
X1433277Y54649D01*
X1433277Y58635D01*
X1435763Y58635D01*
X1435763Y55613D02*
X1433277Y55613D01*
X1433277Y56577D02*
X1435763Y56577D01*
X1435763Y57541D02*
X1433277Y57541D01*
X1433277Y58505D02*
X1435763Y58505D01*
X1427563Y58635D02*
X1427563Y54649D01*
X1425077Y54649D01*
X1425077Y58635D01*
X1427563Y58635D01*
X1427563Y55613D02*
X1425077Y55613D01*
X1425077Y56577D02*
X1427563Y56577D01*
X1427563Y57541D02*
X1425077Y57541D01*
X1425077Y58505D02*
X1427563Y58505D01*
X1419363Y58635D02*
X1419363Y54649D01*
X1416877Y54649D01*
X1416877Y58635D01*
X1419363Y58635D01*
X1419363Y55613D02*
X1416877Y55613D01*
X1416877Y56577D02*
X1419363Y56577D01*
X1419363Y57541D02*
X1416877Y57541D01*
X1416877Y58505D02*
X1419363Y58505D01*
X1411163Y58635D02*
X1411163Y54649D01*
X1408677Y54649D01*
X1408677Y58635D01*
X1411163Y58635D01*
X1411163Y55613D02*
X1408677Y55613D01*
X1408677Y56577D02*
X1411163Y56577D01*
X1411163Y57541D02*
X1408677Y57541D01*
X1408677Y58505D02*
X1411163Y58505D01*
X1402963Y58635D02*
X1402963Y54649D01*
X1400477Y54649D01*
X1400477Y58635D01*
X1402963Y58635D01*
X1402963Y55613D02*
X1400477Y55613D01*
X1400477Y56577D02*
X1402963Y56577D01*
X1402963Y57541D02*
X1400477Y57541D01*
X1400477Y58505D02*
X1402963Y58505D01*
X1402963Y68149D02*
X1402963Y72135D01*
X1402963Y68149D02*
X1400477Y68149D01*
X1400477Y72135D01*
X1402963Y72135D01*
X1402963Y69113D02*
X1400477Y69113D01*
X1400477Y70077D02*
X1402963Y70077D01*
X1402963Y71041D02*
X1400477Y71041D01*
X1400477Y72005D02*
X1402963Y72005D01*
X1411163Y72135D02*
X1411163Y68149D01*
X1408677Y68149D01*
X1408677Y72135D01*
X1411163Y72135D01*
X1411163Y69113D02*
X1408677Y69113D01*
X1408677Y70077D02*
X1411163Y70077D01*
X1411163Y71041D02*
X1408677Y71041D01*
X1408677Y72005D02*
X1411163Y72005D01*
X1419363Y72135D02*
X1419363Y68149D01*
X1416877Y68149D01*
X1416877Y72135D01*
X1419363Y72135D01*
X1419363Y69113D02*
X1416877Y69113D01*
X1416877Y70077D02*
X1419363Y70077D01*
X1419363Y71041D02*
X1416877Y71041D01*
X1416877Y72005D02*
X1419363Y72005D01*
X1427563Y72135D02*
X1427563Y68149D01*
X1425077Y68149D01*
X1425077Y72135D01*
X1427563Y72135D01*
X1427563Y69113D02*
X1425077Y69113D01*
X1425077Y70077D02*
X1427563Y70077D01*
X1427563Y71041D02*
X1425077Y71041D01*
X1425077Y72005D02*
X1427563Y72005D01*
X1435763Y72135D02*
X1435763Y68149D01*
X1433277Y68149D01*
X1433277Y72135D01*
X1435763Y72135D01*
X1435763Y69113D02*
X1433277Y69113D01*
X1433277Y70077D02*
X1435763Y70077D01*
X1435763Y71041D02*
X1433277Y71041D01*
X1433277Y72005D02*
X1435763Y72005D01*
X1443963Y72135D02*
X1443963Y68149D01*
X1441477Y68149D01*
X1441477Y72135D01*
X1443963Y72135D01*
X1443963Y69113D02*
X1441477Y69113D01*
X1441477Y70077D02*
X1443963Y70077D01*
X1443963Y71041D02*
X1441477Y71041D01*
X1441477Y72005D02*
X1443963Y72005D01*
D11*
X1531874Y76200D03*
D10*
X148563Y186729D02*
X148563Y190715D01*
X148563Y186729D02*
X146077Y186729D01*
X146077Y190715D01*
X148563Y190715D01*
X148563Y187693D02*
X146077Y187693D01*
X146077Y188657D02*
X148563Y188657D01*
X148563Y189621D02*
X146077Y189621D01*
X146077Y190585D02*
X148563Y190585D01*
X140363Y190715D02*
X140363Y186729D01*
X137877Y186729D01*
X137877Y190715D01*
X140363Y190715D01*
X140363Y187693D02*
X137877Y187693D01*
X137877Y188657D02*
X140363Y188657D01*
X140363Y189621D02*
X137877Y189621D01*
X137877Y190585D02*
X140363Y190585D01*
X132163Y190715D02*
X132163Y186729D01*
X129677Y186729D01*
X129677Y190715D01*
X132163Y190715D01*
X132163Y187693D02*
X129677Y187693D01*
X129677Y188657D02*
X132163Y188657D01*
X132163Y189621D02*
X129677Y189621D01*
X129677Y190585D02*
X132163Y190585D01*
X123963Y190715D02*
X123963Y186729D01*
X121477Y186729D01*
X121477Y190715D01*
X123963Y190715D01*
X123963Y187693D02*
X121477Y187693D01*
X121477Y188657D02*
X123963Y188657D01*
X123963Y189621D02*
X121477Y189621D01*
X121477Y190585D02*
X123963Y190585D01*
X115763Y190715D02*
X115763Y186729D01*
X113277Y186729D01*
X113277Y190715D01*
X115763Y190715D01*
X115763Y187693D02*
X113277Y187693D01*
X113277Y188657D02*
X115763Y188657D01*
X115763Y189621D02*
X113277Y189621D01*
X113277Y190585D02*
X115763Y190585D01*
X107563Y190715D02*
X107563Y186729D01*
X105077Y186729D01*
X105077Y190715D01*
X107563Y190715D01*
X107563Y187693D02*
X105077Y187693D01*
X105077Y188657D02*
X107563Y188657D01*
X107563Y189621D02*
X105077Y189621D01*
X105077Y190585D02*
X107563Y190585D01*
X107563Y200229D02*
X107563Y204215D01*
X107563Y200229D02*
X105077Y200229D01*
X105077Y204215D01*
X107563Y204215D01*
X107563Y201193D02*
X105077Y201193D01*
X105077Y202157D02*
X107563Y202157D01*
X107563Y203121D02*
X105077Y203121D01*
X105077Y204085D02*
X107563Y204085D01*
X115763Y204215D02*
X115763Y200229D01*
X113277Y200229D01*
X113277Y204215D01*
X115763Y204215D01*
X115763Y201193D02*
X113277Y201193D01*
X113277Y202157D02*
X115763Y202157D01*
X115763Y203121D02*
X113277Y203121D01*
X113277Y204085D02*
X115763Y204085D01*
X123963Y204215D02*
X123963Y200229D01*
X121477Y200229D01*
X121477Y204215D01*
X123963Y204215D01*
X123963Y201193D02*
X121477Y201193D01*
X121477Y202157D02*
X123963Y202157D01*
X123963Y203121D02*
X121477Y203121D01*
X121477Y204085D02*
X123963Y204085D01*
X132163Y204215D02*
X132163Y200229D01*
X129677Y200229D01*
X129677Y204215D01*
X132163Y204215D01*
X132163Y201193D02*
X129677Y201193D01*
X129677Y202157D02*
X132163Y202157D01*
X132163Y203121D02*
X129677Y203121D01*
X129677Y204085D02*
X132163Y204085D01*
X140363Y204215D02*
X140363Y200229D01*
X137877Y200229D01*
X137877Y204215D01*
X140363Y204215D01*
X140363Y201193D02*
X137877Y201193D01*
X137877Y202157D02*
X140363Y202157D01*
X140363Y203121D02*
X137877Y203121D01*
X137877Y204085D02*
X140363Y204085D01*
X148563Y204215D02*
X148563Y200229D01*
X146077Y200229D01*
X146077Y204215D01*
X148563Y204215D01*
X148563Y201193D02*
X146077Y201193D01*
X146077Y202157D02*
X148563Y202157D01*
X148563Y203121D02*
X146077Y203121D01*
X146077Y204085D02*
X148563Y204085D01*
D11*
X236474Y208280D03*
D10*
X407643Y190715D02*
X407643Y186729D01*
X405157Y186729D01*
X405157Y190715D01*
X407643Y190715D01*
X407643Y187693D02*
X405157Y187693D01*
X405157Y188657D02*
X407643Y188657D01*
X407643Y189621D02*
X405157Y189621D01*
X405157Y190585D02*
X407643Y190585D01*
X399443Y190715D02*
X399443Y186729D01*
X396957Y186729D01*
X396957Y190715D01*
X399443Y190715D01*
X399443Y187693D02*
X396957Y187693D01*
X396957Y188657D02*
X399443Y188657D01*
X399443Y189621D02*
X396957Y189621D01*
X396957Y190585D02*
X399443Y190585D01*
X391243Y190715D02*
X391243Y186729D01*
X388757Y186729D01*
X388757Y190715D01*
X391243Y190715D01*
X391243Y187693D02*
X388757Y187693D01*
X388757Y188657D02*
X391243Y188657D01*
X391243Y189621D02*
X388757Y189621D01*
X388757Y190585D02*
X391243Y190585D01*
X383043Y190715D02*
X383043Y186729D01*
X380557Y186729D01*
X380557Y190715D01*
X383043Y190715D01*
X383043Y187693D02*
X380557Y187693D01*
X380557Y188657D02*
X383043Y188657D01*
X383043Y189621D02*
X380557Y189621D01*
X380557Y190585D02*
X383043Y190585D01*
X374843Y190715D02*
X374843Y186729D01*
X372357Y186729D01*
X372357Y190715D01*
X374843Y190715D01*
X374843Y187693D02*
X372357Y187693D01*
X372357Y188657D02*
X374843Y188657D01*
X374843Y189621D02*
X372357Y189621D01*
X372357Y190585D02*
X374843Y190585D01*
X366643Y190715D02*
X366643Y186729D01*
X364157Y186729D01*
X364157Y190715D01*
X366643Y190715D01*
X366643Y187693D02*
X364157Y187693D01*
X364157Y188657D02*
X366643Y188657D01*
X366643Y189621D02*
X364157Y189621D01*
X364157Y190585D02*
X366643Y190585D01*
X366643Y200229D02*
X366643Y204215D01*
X366643Y200229D02*
X364157Y200229D01*
X364157Y204215D01*
X366643Y204215D01*
X366643Y201193D02*
X364157Y201193D01*
X364157Y202157D02*
X366643Y202157D01*
X366643Y203121D02*
X364157Y203121D01*
X364157Y204085D02*
X366643Y204085D01*
X374843Y204215D02*
X374843Y200229D01*
X372357Y200229D01*
X372357Y204215D01*
X374843Y204215D01*
X374843Y201193D02*
X372357Y201193D01*
X372357Y202157D02*
X374843Y202157D01*
X374843Y203121D02*
X372357Y203121D01*
X372357Y204085D02*
X374843Y204085D01*
X383043Y204215D02*
X383043Y200229D01*
X380557Y200229D01*
X380557Y204215D01*
X383043Y204215D01*
X383043Y201193D02*
X380557Y201193D01*
X380557Y202157D02*
X383043Y202157D01*
X383043Y203121D02*
X380557Y203121D01*
X380557Y204085D02*
X383043Y204085D01*
X391243Y204215D02*
X391243Y200229D01*
X388757Y200229D01*
X388757Y204215D01*
X391243Y204215D01*
X391243Y201193D02*
X388757Y201193D01*
X388757Y202157D02*
X391243Y202157D01*
X391243Y203121D02*
X388757Y203121D01*
X388757Y204085D02*
X391243Y204085D01*
X399443Y204215D02*
X399443Y200229D01*
X396957Y200229D01*
X396957Y204215D01*
X399443Y204215D01*
X399443Y201193D02*
X396957Y201193D01*
X396957Y202157D02*
X399443Y202157D01*
X399443Y203121D02*
X396957Y203121D01*
X396957Y204085D02*
X399443Y204085D01*
X407643Y204215D02*
X407643Y200229D01*
X405157Y200229D01*
X405157Y204215D01*
X407643Y204215D01*
X407643Y201193D02*
X405157Y201193D01*
X405157Y202157D02*
X407643Y202157D01*
X407643Y203121D02*
X405157Y203121D01*
X405157Y204085D02*
X407643Y204085D01*
D11*
X495554Y208280D03*
D10*
X666723Y190715D02*
X666723Y186729D01*
X664237Y186729D01*
X664237Y190715D01*
X666723Y190715D01*
X666723Y187693D02*
X664237Y187693D01*
X664237Y188657D02*
X666723Y188657D01*
X666723Y189621D02*
X664237Y189621D01*
X664237Y190585D02*
X666723Y190585D01*
X658523Y190715D02*
X658523Y186729D01*
X656037Y186729D01*
X656037Y190715D01*
X658523Y190715D01*
X658523Y187693D02*
X656037Y187693D01*
X656037Y188657D02*
X658523Y188657D01*
X658523Y189621D02*
X656037Y189621D01*
X656037Y190585D02*
X658523Y190585D01*
X650323Y190715D02*
X650323Y186729D01*
X647837Y186729D01*
X647837Y190715D01*
X650323Y190715D01*
X650323Y187693D02*
X647837Y187693D01*
X647837Y188657D02*
X650323Y188657D01*
X650323Y189621D02*
X647837Y189621D01*
X647837Y190585D02*
X650323Y190585D01*
X642123Y190715D02*
X642123Y186729D01*
X639637Y186729D01*
X639637Y190715D01*
X642123Y190715D01*
X642123Y187693D02*
X639637Y187693D01*
X639637Y188657D02*
X642123Y188657D01*
X642123Y189621D02*
X639637Y189621D01*
X639637Y190585D02*
X642123Y190585D01*
X633923Y190715D02*
X633923Y186729D01*
X631437Y186729D01*
X631437Y190715D01*
X633923Y190715D01*
X633923Y187693D02*
X631437Y187693D01*
X631437Y188657D02*
X633923Y188657D01*
X633923Y189621D02*
X631437Y189621D01*
X631437Y190585D02*
X633923Y190585D01*
X625723Y190715D02*
X625723Y186729D01*
X623237Y186729D01*
X623237Y190715D01*
X625723Y190715D01*
X625723Y187693D02*
X623237Y187693D01*
X623237Y188657D02*
X625723Y188657D01*
X625723Y189621D02*
X623237Y189621D01*
X623237Y190585D02*
X625723Y190585D01*
X625723Y200229D02*
X625723Y204215D01*
X625723Y200229D02*
X623237Y200229D01*
X623237Y204215D01*
X625723Y204215D01*
X625723Y201193D02*
X623237Y201193D01*
X623237Y202157D02*
X625723Y202157D01*
X625723Y203121D02*
X623237Y203121D01*
X623237Y204085D02*
X625723Y204085D01*
X633923Y204215D02*
X633923Y200229D01*
X631437Y200229D01*
X631437Y204215D01*
X633923Y204215D01*
X633923Y201193D02*
X631437Y201193D01*
X631437Y202157D02*
X633923Y202157D01*
X633923Y203121D02*
X631437Y203121D01*
X631437Y204085D02*
X633923Y204085D01*
X642123Y204215D02*
X642123Y200229D01*
X639637Y200229D01*
X639637Y204215D01*
X642123Y204215D01*
X642123Y201193D02*
X639637Y201193D01*
X639637Y202157D02*
X642123Y202157D01*
X642123Y203121D02*
X639637Y203121D01*
X639637Y204085D02*
X642123Y204085D01*
X650323Y204215D02*
X650323Y200229D01*
X647837Y200229D01*
X647837Y204215D01*
X650323Y204215D01*
X650323Y201193D02*
X647837Y201193D01*
X647837Y202157D02*
X650323Y202157D01*
X650323Y203121D02*
X647837Y203121D01*
X647837Y204085D02*
X650323Y204085D01*
X658523Y204215D02*
X658523Y200229D01*
X656037Y200229D01*
X656037Y204215D01*
X658523Y204215D01*
X658523Y201193D02*
X656037Y201193D01*
X656037Y202157D02*
X658523Y202157D01*
X658523Y203121D02*
X656037Y203121D01*
X656037Y204085D02*
X658523Y204085D01*
X666723Y204215D02*
X666723Y200229D01*
X664237Y200229D01*
X664237Y204215D01*
X666723Y204215D01*
X666723Y201193D02*
X664237Y201193D01*
X664237Y202157D02*
X666723Y202157D01*
X666723Y203121D02*
X664237Y203121D01*
X664237Y204085D02*
X666723Y204085D01*
D11*
X754634Y208280D03*
D10*
X925803Y190715D02*
X925803Y186729D01*
X923317Y186729D01*
X923317Y190715D01*
X925803Y190715D01*
X925803Y187693D02*
X923317Y187693D01*
X923317Y188657D02*
X925803Y188657D01*
X925803Y189621D02*
X923317Y189621D01*
X923317Y190585D02*
X925803Y190585D01*
X917603Y190715D02*
X917603Y186729D01*
X915117Y186729D01*
X915117Y190715D01*
X917603Y190715D01*
X917603Y187693D02*
X915117Y187693D01*
X915117Y188657D02*
X917603Y188657D01*
X917603Y189621D02*
X915117Y189621D01*
X915117Y190585D02*
X917603Y190585D01*
X909403Y190715D02*
X909403Y186729D01*
X906917Y186729D01*
X906917Y190715D01*
X909403Y190715D01*
X909403Y187693D02*
X906917Y187693D01*
X906917Y188657D02*
X909403Y188657D01*
X909403Y189621D02*
X906917Y189621D01*
X906917Y190585D02*
X909403Y190585D01*
X901203Y190715D02*
X901203Y186729D01*
X898717Y186729D01*
X898717Y190715D01*
X901203Y190715D01*
X901203Y187693D02*
X898717Y187693D01*
X898717Y188657D02*
X901203Y188657D01*
X901203Y189621D02*
X898717Y189621D01*
X898717Y190585D02*
X901203Y190585D01*
X893003Y190715D02*
X893003Y186729D01*
X890517Y186729D01*
X890517Y190715D01*
X893003Y190715D01*
X893003Y187693D02*
X890517Y187693D01*
X890517Y188657D02*
X893003Y188657D01*
X893003Y189621D02*
X890517Y189621D01*
X890517Y190585D02*
X893003Y190585D01*
X884803Y190715D02*
X884803Y186729D01*
X882317Y186729D01*
X882317Y190715D01*
X884803Y190715D01*
X884803Y187693D02*
X882317Y187693D01*
X882317Y188657D02*
X884803Y188657D01*
X884803Y189621D02*
X882317Y189621D01*
X882317Y190585D02*
X884803Y190585D01*
X884803Y200229D02*
X884803Y204215D01*
X884803Y200229D02*
X882317Y200229D01*
X882317Y204215D01*
X884803Y204215D01*
X884803Y201193D02*
X882317Y201193D01*
X882317Y202157D02*
X884803Y202157D01*
X884803Y203121D02*
X882317Y203121D01*
X882317Y204085D02*
X884803Y204085D01*
X893003Y204215D02*
X893003Y200229D01*
X890517Y200229D01*
X890517Y204215D01*
X893003Y204215D01*
X893003Y201193D02*
X890517Y201193D01*
X890517Y202157D02*
X893003Y202157D01*
X893003Y203121D02*
X890517Y203121D01*
X890517Y204085D02*
X893003Y204085D01*
X901203Y204215D02*
X901203Y200229D01*
X898717Y200229D01*
X898717Y204215D01*
X901203Y204215D01*
X901203Y201193D02*
X898717Y201193D01*
X898717Y202157D02*
X901203Y202157D01*
X901203Y203121D02*
X898717Y203121D01*
X898717Y204085D02*
X901203Y204085D01*
X909403Y204215D02*
X909403Y200229D01*
X906917Y200229D01*
X906917Y204215D01*
X909403Y204215D01*
X909403Y201193D02*
X906917Y201193D01*
X906917Y202157D02*
X909403Y202157D01*
X909403Y203121D02*
X906917Y203121D01*
X906917Y204085D02*
X909403Y204085D01*
X917603Y204215D02*
X917603Y200229D01*
X915117Y200229D01*
X915117Y204215D01*
X917603Y204215D01*
X917603Y201193D02*
X915117Y201193D01*
X915117Y202157D02*
X917603Y202157D01*
X917603Y203121D02*
X915117Y203121D01*
X915117Y204085D02*
X917603Y204085D01*
X925803Y204215D02*
X925803Y200229D01*
X923317Y200229D01*
X923317Y204215D01*
X925803Y204215D01*
X925803Y201193D02*
X923317Y201193D01*
X923317Y202157D02*
X925803Y202157D01*
X925803Y203121D02*
X923317Y203121D01*
X923317Y204085D02*
X925803Y204085D01*
D11*
X1013714Y208280D03*
D10*
X1184883Y190715D02*
X1184883Y186729D01*
X1182397Y186729D01*
X1182397Y190715D01*
X1184883Y190715D01*
X1184883Y187693D02*
X1182397Y187693D01*
X1182397Y188657D02*
X1184883Y188657D01*
X1184883Y189621D02*
X1182397Y189621D01*
X1182397Y190585D02*
X1184883Y190585D01*
X1176683Y190715D02*
X1176683Y186729D01*
X1174197Y186729D01*
X1174197Y190715D01*
X1176683Y190715D01*
X1176683Y187693D02*
X1174197Y187693D01*
X1174197Y188657D02*
X1176683Y188657D01*
X1176683Y189621D02*
X1174197Y189621D01*
X1174197Y190585D02*
X1176683Y190585D01*
X1168483Y190715D02*
X1168483Y186729D01*
X1165997Y186729D01*
X1165997Y190715D01*
X1168483Y190715D01*
X1168483Y187693D02*
X1165997Y187693D01*
X1165997Y188657D02*
X1168483Y188657D01*
X1168483Y189621D02*
X1165997Y189621D01*
X1165997Y190585D02*
X1168483Y190585D01*
X1160283Y190715D02*
X1160283Y186729D01*
X1157797Y186729D01*
X1157797Y190715D01*
X1160283Y190715D01*
X1160283Y187693D02*
X1157797Y187693D01*
X1157797Y188657D02*
X1160283Y188657D01*
X1160283Y189621D02*
X1157797Y189621D01*
X1157797Y190585D02*
X1160283Y190585D01*
X1152083Y190715D02*
X1152083Y186729D01*
X1149597Y186729D01*
X1149597Y190715D01*
X1152083Y190715D01*
X1152083Y187693D02*
X1149597Y187693D01*
X1149597Y188657D02*
X1152083Y188657D01*
X1152083Y189621D02*
X1149597Y189621D01*
X1149597Y190585D02*
X1152083Y190585D01*
X1143883Y190715D02*
X1143883Y186729D01*
X1141397Y186729D01*
X1141397Y190715D01*
X1143883Y190715D01*
X1143883Y187693D02*
X1141397Y187693D01*
X1141397Y188657D02*
X1143883Y188657D01*
X1143883Y189621D02*
X1141397Y189621D01*
X1141397Y190585D02*
X1143883Y190585D01*
X1143883Y200229D02*
X1143883Y204215D01*
X1143883Y200229D02*
X1141397Y200229D01*
X1141397Y204215D01*
X1143883Y204215D01*
X1143883Y201193D02*
X1141397Y201193D01*
X1141397Y202157D02*
X1143883Y202157D01*
X1143883Y203121D02*
X1141397Y203121D01*
X1141397Y204085D02*
X1143883Y204085D01*
X1152083Y204215D02*
X1152083Y200229D01*
X1149597Y200229D01*
X1149597Y204215D01*
X1152083Y204215D01*
X1152083Y201193D02*
X1149597Y201193D01*
X1149597Y202157D02*
X1152083Y202157D01*
X1152083Y203121D02*
X1149597Y203121D01*
X1149597Y204085D02*
X1152083Y204085D01*
X1160283Y204215D02*
X1160283Y200229D01*
X1157797Y200229D01*
X1157797Y204215D01*
X1160283Y204215D01*
X1160283Y201193D02*
X1157797Y201193D01*
X1157797Y202157D02*
X1160283Y202157D01*
X1160283Y203121D02*
X1157797Y203121D01*
X1157797Y204085D02*
X1160283Y204085D01*
X1168483Y204215D02*
X1168483Y200229D01*
X1165997Y200229D01*
X1165997Y204215D01*
X1168483Y204215D01*
X1168483Y201193D02*
X1165997Y201193D01*
X1165997Y202157D02*
X1168483Y202157D01*
X1168483Y203121D02*
X1165997Y203121D01*
X1165997Y204085D02*
X1168483Y204085D01*
X1176683Y204215D02*
X1176683Y200229D01*
X1174197Y200229D01*
X1174197Y204215D01*
X1176683Y204215D01*
X1176683Y201193D02*
X1174197Y201193D01*
X1174197Y202157D02*
X1176683Y202157D01*
X1176683Y203121D02*
X1174197Y203121D01*
X1174197Y204085D02*
X1176683Y204085D01*
X1184883Y204215D02*
X1184883Y200229D01*
X1182397Y200229D01*
X1182397Y204215D01*
X1184883Y204215D01*
X1184883Y201193D02*
X1182397Y201193D01*
X1182397Y202157D02*
X1184883Y202157D01*
X1184883Y203121D02*
X1182397Y203121D01*
X1182397Y204085D02*
X1184883Y204085D01*
D11*
X1272794Y208280D03*
D10*
X1443963Y190715D02*
X1443963Y186729D01*
X1441477Y186729D01*
X1441477Y190715D01*
X1443963Y190715D01*
X1443963Y187693D02*
X1441477Y187693D01*
X1441477Y188657D02*
X1443963Y188657D01*
X1443963Y189621D02*
X1441477Y189621D01*
X1441477Y190585D02*
X1443963Y190585D01*
X1435763Y190715D02*
X1435763Y186729D01*
X1433277Y186729D01*
X1433277Y190715D01*
X1435763Y190715D01*
X1435763Y187693D02*
X1433277Y187693D01*
X1433277Y188657D02*
X1435763Y188657D01*
X1435763Y189621D02*
X1433277Y189621D01*
X1433277Y190585D02*
X1435763Y190585D01*
X1427563Y190715D02*
X1427563Y186729D01*
X1425077Y186729D01*
X1425077Y190715D01*
X1427563Y190715D01*
X1427563Y187693D02*
X1425077Y187693D01*
X1425077Y188657D02*
X1427563Y188657D01*
X1427563Y189621D02*
X1425077Y189621D01*
X1425077Y190585D02*
X1427563Y190585D01*
X1419363Y190715D02*
X1419363Y186729D01*
X1416877Y186729D01*
X1416877Y190715D01*
X1419363Y190715D01*
X1419363Y187693D02*
X1416877Y187693D01*
X1416877Y188657D02*
X1419363Y188657D01*
X1419363Y189621D02*
X1416877Y189621D01*
X1416877Y190585D02*
X1419363Y190585D01*
X1411163Y190715D02*
X1411163Y186729D01*
X1408677Y186729D01*
X1408677Y190715D01*
X1411163Y190715D01*
X1411163Y187693D02*
X1408677Y187693D01*
X1408677Y188657D02*
X1411163Y188657D01*
X1411163Y189621D02*
X1408677Y189621D01*
X1408677Y190585D02*
X1411163Y190585D01*
X1402963Y190715D02*
X1402963Y186729D01*
X1400477Y186729D01*
X1400477Y190715D01*
X1402963Y190715D01*
X1402963Y187693D02*
X1400477Y187693D01*
X1400477Y188657D02*
X1402963Y188657D01*
X1402963Y189621D02*
X1400477Y189621D01*
X1400477Y190585D02*
X1402963Y190585D01*
X1402963Y200229D02*
X1402963Y204215D01*
X1402963Y200229D02*
X1400477Y200229D01*
X1400477Y204215D01*
X1402963Y204215D01*
X1402963Y201193D02*
X1400477Y201193D01*
X1400477Y202157D02*
X1402963Y202157D01*
X1402963Y203121D02*
X1400477Y203121D01*
X1400477Y204085D02*
X1402963Y204085D01*
X1411163Y204215D02*
X1411163Y200229D01*
X1408677Y200229D01*
X1408677Y204215D01*
X1411163Y204215D01*
X1411163Y201193D02*
X1408677Y201193D01*
X1408677Y202157D02*
X1411163Y202157D01*
X1411163Y203121D02*
X1408677Y203121D01*
X1408677Y204085D02*
X1411163Y204085D01*
X1419363Y204215D02*
X1419363Y200229D01*
X1416877Y200229D01*
X1416877Y204215D01*
X1419363Y204215D01*
X1419363Y201193D02*
X1416877Y201193D01*
X1416877Y202157D02*
X1419363Y202157D01*
X1419363Y203121D02*
X1416877Y203121D01*
X1416877Y204085D02*
X1419363Y204085D01*
X1427563Y204215D02*
X1427563Y200229D01*
X1425077Y200229D01*
X1425077Y204215D01*
X1427563Y204215D01*
X1427563Y201193D02*
X1425077Y201193D01*
X1425077Y202157D02*
X1427563Y202157D01*
X1427563Y203121D02*
X1425077Y203121D01*
X1425077Y204085D02*
X1427563Y204085D01*
X1435763Y204215D02*
X1435763Y200229D01*
X1433277Y200229D01*
X1433277Y204215D01*
X1435763Y204215D01*
X1435763Y201193D02*
X1433277Y201193D01*
X1433277Y202157D02*
X1435763Y202157D01*
X1435763Y203121D02*
X1433277Y203121D01*
X1433277Y204085D02*
X1435763Y204085D01*
X1443963Y204215D02*
X1443963Y200229D01*
X1441477Y200229D01*
X1441477Y204215D01*
X1443963Y204215D01*
X1443963Y201193D02*
X1441477Y201193D01*
X1441477Y202157D02*
X1443963Y202157D01*
X1443963Y203121D02*
X1441477Y203121D01*
X1441477Y204085D02*
X1443963Y204085D01*
D11*
X1531874Y208280D03*
D10*
X148563Y318809D02*
X148563Y322795D01*
X148563Y318809D02*
X146077Y318809D01*
X146077Y322795D01*
X148563Y322795D01*
X148563Y319773D02*
X146077Y319773D01*
X146077Y320737D02*
X148563Y320737D01*
X148563Y321701D02*
X146077Y321701D01*
X146077Y322665D02*
X148563Y322665D01*
X140363Y322795D02*
X140363Y318809D01*
X137877Y318809D01*
X137877Y322795D01*
X140363Y322795D01*
X140363Y319773D02*
X137877Y319773D01*
X137877Y320737D02*
X140363Y320737D01*
X140363Y321701D02*
X137877Y321701D01*
X137877Y322665D02*
X140363Y322665D01*
X132163Y322795D02*
X132163Y318809D01*
X129677Y318809D01*
X129677Y322795D01*
X132163Y322795D01*
X132163Y319773D02*
X129677Y319773D01*
X129677Y320737D02*
X132163Y320737D01*
X132163Y321701D02*
X129677Y321701D01*
X129677Y322665D02*
X132163Y322665D01*
X123963Y322795D02*
X123963Y318809D01*
X121477Y318809D01*
X121477Y322795D01*
X123963Y322795D01*
X123963Y319773D02*
X121477Y319773D01*
X121477Y320737D02*
X123963Y320737D01*
X123963Y321701D02*
X121477Y321701D01*
X121477Y322665D02*
X123963Y322665D01*
X115763Y322795D02*
X115763Y318809D01*
X113277Y318809D01*
X113277Y322795D01*
X115763Y322795D01*
X115763Y319773D02*
X113277Y319773D01*
X113277Y320737D02*
X115763Y320737D01*
X115763Y321701D02*
X113277Y321701D01*
X113277Y322665D02*
X115763Y322665D01*
X107563Y322795D02*
X107563Y318809D01*
X105077Y318809D01*
X105077Y322795D01*
X107563Y322795D01*
X107563Y319773D02*
X105077Y319773D01*
X105077Y320737D02*
X107563Y320737D01*
X107563Y321701D02*
X105077Y321701D01*
X105077Y322665D02*
X107563Y322665D01*
X107563Y332309D02*
X107563Y336295D01*
X107563Y332309D02*
X105077Y332309D01*
X105077Y336295D01*
X107563Y336295D01*
X107563Y333273D02*
X105077Y333273D01*
X105077Y334237D02*
X107563Y334237D01*
X107563Y335201D02*
X105077Y335201D01*
X105077Y336165D02*
X107563Y336165D01*
X115763Y336295D02*
X115763Y332309D01*
X113277Y332309D01*
X113277Y336295D01*
X115763Y336295D01*
X115763Y333273D02*
X113277Y333273D01*
X113277Y334237D02*
X115763Y334237D01*
X115763Y335201D02*
X113277Y335201D01*
X113277Y336165D02*
X115763Y336165D01*
X123963Y336295D02*
X123963Y332309D01*
X121477Y332309D01*
X121477Y336295D01*
X123963Y336295D01*
X123963Y333273D02*
X121477Y333273D01*
X121477Y334237D02*
X123963Y334237D01*
X123963Y335201D02*
X121477Y335201D01*
X121477Y336165D02*
X123963Y336165D01*
X132163Y336295D02*
X132163Y332309D01*
X129677Y332309D01*
X129677Y336295D01*
X132163Y336295D01*
X132163Y333273D02*
X129677Y333273D01*
X129677Y334237D02*
X132163Y334237D01*
X132163Y335201D02*
X129677Y335201D01*
X129677Y336165D02*
X132163Y336165D01*
X140363Y336295D02*
X140363Y332309D01*
X137877Y332309D01*
X137877Y336295D01*
X140363Y336295D01*
X140363Y333273D02*
X137877Y333273D01*
X137877Y334237D02*
X140363Y334237D01*
X140363Y335201D02*
X137877Y335201D01*
X137877Y336165D02*
X140363Y336165D01*
X148563Y336295D02*
X148563Y332309D01*
X146077Y332309D01*
X146077Y336295D01*
X148563Y336295D01*
X148563Y333273D02*
X146077Y333273D01*
X146077Y334237D02*
X148563Y334237D01*
X148563Y335201D02*
X146077Y335201D01*
X146077Y336165D02*
X148563Y336165D01*
D11*
X236474Y340360D03*
D10*
X407643Y322795D02*
X407643Y318809D01*
X405157Y318809D01*
X405157Y322795D01*
X407643Y322795D01*
X407643Y319773D02*
X405157Y319773D01*
X405157Y320737D02*
X407643Y320737D01*
X407643Y321701D02*
X405157Y321701D01*
X405157Y322665D02*
X407643Y322665D01*
X399443Y322795D02*
X399443Y318809D01*
X396957Y318809D01*
X396957Y322795D01*
X399443Y322795D01*
X399443Y319773D02*
X396957Y319773D01*
X396957Y320737D02*
X399443Y320737D01*
X399443Y321701D02*
X396957Y321701D01*
X396957Y322665D02*
X399443Y322665D01*
X391243Y322795D02*
X391243Y318809D01*
X388757Y318809D01*
X388757Y322795D01*
X391243Y322795D01*
X391243Y319773D02*
X388757Y319773D01*
X388757Y320737D02*
X391243Y320737D01*
X391243Y321701D02*
X388757Y321701D01*
X388757Y322665D02*
X391243Y322665D01*
X383043Y322795D02*
X383043Y318809D01*
X380557Y318809D01*
X380557Y322795D01*
X383043Y322795D01*
X383043Y319773D02*
X380557Y319773D01*
X380557Y320737D02*
X383043Y320737D01*
X383043Y321701D02*
X380557Y321701D01*
X380557Y322665D02*
X383043Y322665D01*
X374843Y322795D02*
X374843Y318809D01*
X372357Y318809D01*
X372357Y322795D01*
X374843Y322795D01*
X374843Y319773D02*
X372357Y319773D01*
X372357Y320737D02*
X374843Y320737D01*
X374843Y321701D02*
X372357Y321701D01*
X372357Y322665D02*
X374843Y322665D01*
X366643Y322795D02*
X366643Y318809D01*
X364157Y318809D01*
X364157Y322795D01*
X366643Y322795D01*
X366643Y319773D02*
X364157Y319773D01*
X364157Y320737D02*
X366643Y320737D01*
X366643Y321701D02*
X364157Y321701D01*
X364157Y322665D02*
X366643Y322665D01*
X366643Y332309D02*
X366643Y336295D01*
X366643Y332309D02*
X364157Y332309D01*
X364157Y336295D01*
X366643Y336295D01*
X366643Y333273D02*
X364157Y333273D01*
X364157Y334237D02*
X366643Y334237D01*
X366643Y335201D02*
X364157Y335201D01*
X364157Y336165D02*
X366643Y336165D01*
X374843Y336295D02*
X374843Y332309D01*
X372357Y332309D01*
X372357Y336295D01*
X374843Y336295D01*
X374843Y333273D02*
X372357Y333273D01*
X372357Y334237D02*
X374843Y334237D01*
X374843Y335201D02*
X372357Y335201D01*
X372357Y336165D02*
X374843Y336165D01*
X383043Y336295D02*
X383043Y332309D01*
X380557Y332309D01*
X380557Y336295D01*
X383043Y336295D01*
X383043Y333273D02*
X380557Y333273D01*
X380557Y334237D02*
X383043Y334237D01*
X383043Y335201D02*
X380557Y335201D01*
X380557Y336165D02*
X383043Y336165D01*
X391243Y336295D02*
X391243Y332309D01*
X388757Y332309D01*
X388757Y336295D01*
X391243Y336295D01*
X391243Y333273D02*
X388757Y333273D01*
X388757Y334237D02*
X391243Y334237D01*
X391243Y335201D02*
X388757Y335201D01*
X388757Y336165D02*
X391243Y336165D01*
X399443Y336295D02*
X399443Y332309D01*
X396957Y332309D01*
X396957Y336295D01*
X399443Y336295D01*
X399443Y333273D02*
X396957Y333273D01*
X396957Y334237D02*
X399443Y334237D01*
X399443Y335201D02*
X396957Y335201D01*
X396957Y336165D02*
X399443Y336165D01*
X407643Y336295D02*
X407643Y332309D01*
X405157Y332309D01*
X405157Y336295D01*
X407643Y336295D01*
X407643Y333273D02*
X405157Y333273D01*
X405157Y334237D02*
X407643Y334237D01*
X407643Y335201D02*
X405157Y335201D01*
X405157Y336165D02*
X407643Y336165D01*
D11*
X495554Y340360D03*
D10*
X666723Y322795D02*
X666723Y318809D01*
X664237Y318809D01*
X664237Y322795D01*
X666723Y322795D01*
X666723Y319773D02*
X664237Y319773D01*
X664237Y320737D02*
X666723Y320737D01*
X666723Y321701D02*
X664237Y321701D01*
X664237Y322665D02*
X666723Y322665D01*
X658523Y322795D02*
X658523Y318809D01*
X656037Y318809D01*
X656037Y322795D01*
X658523Y322795D01*
X658523Y319773D02*
X656037Y319773D01*
X656037Y320737D02*
X658523Y320737D01*
X658523Y321701D02*
X656037Y321701D01*
X656037Y322665D02*
X658523Y322665D01*
X650323Y322795D02*
X650323Y318809D01*
X647837Y318809D01*
X647837Y322795D01*
X650323Y322795D01*
X650323Y319773D02*
X647837Y319773D01*
X647837Y320737D02*
X650323Y320737D01*
X650323Y321701D02*
X647837Y321701D01*
X647837Y322665D02*
X650323Y322665D01*
X642123Y322795D02*
X642123Y318809D01*
X639637Y318809D01*
X639637Y322795D01*
X642123Y322795D01*
X642123Y319773D02*
X639637Y319773D01*
X639637Y320737D02*
X642123Y320737D01*
X642123Y321701D02*
X639637Y321701D01*
X639637Y322665D02*
X642123Y322665D01*
X633923Y322795D02*
X633923Y318809D01*
X631437Y318809D01*
X631437Y322795D01*
X633923Y322795D01*
X633923Y319773D02*
X631437Y319773D01*
X631437Y320737D02*
X633923Y320737D01*
X633923Y321701D02*
X631437Y321701D01*
X631437Y322665D02*
X633923Y322665D01*
X625723Y322795D02*
X625723Y318809D01*
X623237Y318809D01*
X623237Y322795D01*
X625723Y322795D01*
X625723Y319773D02*
X623237Y319773D01*
X623237Y320737D02*
X625723Y320737D01*
X625723Y321701D02*
X623237Y321701D01*
X623237Y322665D02*
X625723Y322665D01*
X625723Y332309D02*
X625723Y336295D01*
X625723Y332309D02*
X623237Y332309D01*
X623237Y336295D01*
X625723Y336295D01*
X625723Y333273D02*
X623237Y333273D01*
X623237Y334237D02*
X625723Y334237D01*
X625723Y335201D02*
X623237Y335201D01*
X623237Y336165D02*
X625723Y336165D01*
X633923Y336295D02*
X633923Y332309D01*
X631437Y332309D01*
X631437Y336295D01*
X633923Y336295D01*
X633923Y333273D02*
X631437Y333273D01*
X631437Y334237D02*
X633923Y334237D01*
X633923Y335201D02*
X631437Y335201D01*
X631437Y336165D02*
X633923Y336165D01*
X642123Y336295D02*
X642123Y332309D01*
X639637Y332309D01*
X639637Y336295D01*
X642123Y336295D01*
X642123Y333273D02*
X639637Y333273D01*
X639637Y334237D02*
X642123Y334237D01*
X642123Y335201D02*
X639637Y335201D01*
X639637Y336165D02*
X642123Y336165D01*
X650323Y336295D02*
X650323Y332309D01*
X647837Y332309D01*
X647837Y336295D01*
X650323Y336295D01*
X650323Y333273D02*
X647837Y333273D01*
X647837Y334237D02*
X650323Y334237D01*
X650323Y335201D02*
X647837Y335201D01*
X647837Y336165D02*
X650323Y336165D01*
X658523Y336295D02*
X658523Y332309D01*
X656037Y332309D01*
X656037Y336295D01*
X658523Y336295D01*
X658523Y333273D02*
X656037Y333273D01*
X656037Y334237D02*
X658523Y334237D01*
X658523Y335201D02*
X656037Y335201D01*
X656037Y336165D02*
X658523Y336165D01*
X666723Y336295D02*
X666723Y332309D01*
X664237Y332309D01*
X664237Y336295D01*
X666723Y336295D01*
X666723Y333273D02*
X664237Y333273D01*
X664237Y334237D02*
X666723Y334237D01*
X666723Y335201D02*
X664237Y335201D01*
X664237Y336165D02*
X666723Y336165D01*
D11*
X754634Y340360D03*
D10*
X925803Y322795D02*
X925803Y318809D01*
X923317Y318809D01*
X923317Y322795D01*
X925803Y322795D01*
X925803Y319773D02*
X923317Y319773D01*
X923317Y320737D02*
X925803Y320737D01*
X925803Y321701D02*
X923317Y321701D01*
X923317Y322665D02*
X925803Y322665D01*
X917603Y322795D02*
X917603Y318809D01*
X915117Y318809D01*
X915117Y322795D01*
X917603Y322795D01*
X917603Y319773D02*
X915117Y319773D01*
X915117Y320737D02*
X917603Y320737D01*
X917603Y321701D02*
X915117Y321701D01*
X915117Y322665D02*
X917603Y322665D01*
X909403Y322795D02*
X909403Y318809D01*
X906917Y318809D01*
X906917Y322795D01*
X909403Y322795D01*
X909403Y319773D02*
X906917Y319773D01*
X906917Y320737D02*
X909403Y320737D01*
X909403Y321701D02*
X906917Y321701D01*
X906917Y322665D02*
X909403Y322665D01*
X901203Y322795D02*
X901203Y318809D01*
X898717Y318809D01*
X898717Y322795D01*
X901203Y322795D01*
X901203Y319773D02*
X898717Y319773D01*
X898717Y320737D02*
X901203Y320737D01*
X901203Y321701D02*
X898717Y321701D01*
X898717Y322665D02*
X901203Y322665D01*
X893003Y322795D02*
X893003Y318809D01*
X890517Y318809D01*
X890517Y322795D01*
X893003Y322795D01*
X893003Y319773D02*
X890517Y319773D01*
X890517Y320737D02*
X893003Y320737D01*
X893003Y321701D02*
X890517Y321701D01*
X890517Y322665D02*
X893003Y322665D01*
X884803Y322795D02*
X884803Y318809D01*
X882317Y318809D01*
X882317Y322795D01*
X884803Y322795D01*
X884803Y319773D02*
X882317Y319773D01*
X882317Y320737D02*
X884803Y320737D01*
X884803Y321701D02*
X882317Y321701D01*
X882317Y322665D02*
X884803Y322665D01*
X884803Y332309D02*
X884803Y336295D01*
X884803Y332309D02*
X882317Y332309D01*
X882317Y336295D01*
X884803Y336295D01*
X884803Y333273D02*
X882317Y333273D01*
X882317Y334237D02*
X884803Y334237D01*
X884803Y335201D02*
X882317Y335201D01*
X882317Y336165D02*
X884803Y336165D01*
X893003Y336295D02*
X893003Y332309D01*
X890517Y332309D01*
X890517Y336295D01*
X893003Y336295D01*
X893003Y333273D02*
X890517Y333273D01*
X890517Y334237D02*
X893003Y334237D01*
X893003Y335201D02*
X890517Y335201D01*
X890517Y336165D02*
X893003Y336165D01*
X901203Y336295D02*
X901203Y332309D01*
X898717Y332309D01*
X898717Y336295D01*
X901203Y336295D01*
X901203Y333273D02*
X898717Y333273D01*
X898717Y334237D02*
X901203Y334237D01*
X901203Y335201D02*
X898717Y335201D01*
X898717Y336165D02*
X901203Y336165D01*
X909403Y336295D02*
X909403Y332309D01*
X906917Y332309D01*
X906917Y336295D01*
X909403Y336295D01*
X909403Y333273D02*
X906917Y333273D01*
X906917Y334237D02*
X909403Y334237D01*
X909403Y335201D02*
X906917Y335201D01*
X906917Y336165D02*
X909403Y336165D01*
X917603Y336295D02*
X917603Y332309D01*
X915117Y332309D01*
X915117Y336295D01*
X917603Y336295D01*
X917603Y333273D02*
X915117Y333273D01*
X915117Y334237D02*
X917603Y334237D01*
X917603Y335201D02*
X915117Y335201D01*
X915117Y336165D02*
X917603Y336165D01*
X925803Y336295D02*
X925803Y332309D01*
X923317Y332309D01*
X923317Y336295D01*
X925803Y336295D01*
X925803Y333273D02*
X923317Y333273D01*
X923317Y334237D02*
X925803Y334237D01*
X925803Y335201D02*
X923317Y335201D01*
X923317Y336165D02*
X925803Y336165D01*
D11*
X1013714Y340360D03*
D10*
X1184883Y322795D02*
X1184883Y318809D01*
X1182397Y318809D01*
X1182397Y322795D01*
X1184883Y322795D01*
X1184883Y319773D02*
X1182397Y319773D01*
X1182397Y320737D02*
X1184883Y320737D01*
X1184883Y321701D02*
X1182397Y321701D01*
X1182397Y322665D02*
X1184883Y322665D01*
X1176683Y322795D02*
X1176683Y318809D01*
X1174197Y318809D01*
X1174197Y322795D01*
X1176683Y322795D01*
X1176683Y319773D02*
X1174197Y319773D01*
X1174197Y320737D02*
X1176683Y320737D01*
X1176683Y321701D02*
X1174197Y321701D01*
X1174197Y322665D02*
X1176683Y322665D01*
X1168483Y322795D02*
X1168483Y318809D01*
X1165997Y318809D01*
X1165997Y322795D01*
X1168483Y322795D01*
X1168483Y319773D02*
X1165997Y319773D01*
X1165997Y320737D02*
X1168483Y320737D01*
X1168483Y321701D02*
X1165997Y321701D01*
X1165997Y322665D02*
X1168483Y322665D01*
X1160283Y322795D02*
X1160283Y318809D01*
X1157797Y318809D01*
X1157797Y322795D01*
X1160283Y322795D01*
X1160283Y319773D02*
X1157797Y319773D01*
X1157797Y320737D02*
X1160283Y320737D01*
X1160283Y321701D02*
X1157797Y321701D01*
X1157797Y322665D02*
X1160283Y322665D01*
X1152083Y322795D02*
X1152083Y318809D01*
X1149597Y318809D01*
X1149597Y322795D01*
X1152083Y322795D01*
X1152083Y319773D02*
X1149597Y319773D01*
X1149597Y320737D02*
X1152083Y320737D01*
X1152083Y321701D02*
X1149597Y321701D01*
X1149597Y322665D02*
X1152083Y322665D01*
X1143883Y322795D02*
X1143883Y318809D01*
X1141397Y318809D01*
X1141397Y322795D01*
X1143883Y322795D01*
X1143883Y319773D02*
X1141397Y319773D01*
X1141397Y320737D02*
X1143883Y320737D01*
X1143883Y321701D02*
X1141397Y321701D01*
X1141397Y322665D02*
X1143883Y322665D01*
X1143883Y332309D02*
X1143883Y336295D01*
X1143883Y332309D02*
X1141397Y332309D01*
X1141397Y336295D01*
X1143883Y336295D01*
X1143883Y333273D02*
X1141397Y333273D01*
X1141397Y334237D02*
X1143883Y334237D01*
X1143883Y335201D02*
X1141397Y335201D01*
X1141397Y336165D02*
X1143883Y336165D01*
X1152083Y336295D02*
X1152083Y332309D01*
X1149597Y332309D01*
X1149597Y336295D01*
X1152083Y336295D01*
X1152083Y333273D02*
X1149597Y333273D01*
X1149597Y334237D02*
X1152083Y334237D01*
X1152083Y335201D02*
X1149597Y335201D01*
X1149597Y336165D02*
X1152083Y336165D01*
X1160283Y336295D02*
X1160283Y332309D01*
X1157797Y332309D01*
X1157797Y336295D01*
X1160283Y336295D01*
X1160283Y333273D02*
X1157797Y333273D01*
X1157797Y334237D02*
X1160283Y334237D01*
X1160283Y335201D02*
X1157797Y335201D01*
X1157797Y336165D02*
X1160283Y336165D01*
X1168483Y336295D02*
X1168483Y332309D01*
X1165997Y332309D01*
X1165997Y336295D01*
X1168483Y336295D01*
X1168483Y333273D02*
X1165997Y333273D01*
X1165997Y334237D02*
X1168483Y334237D01*
X1168483Y335201D02*
X1165997Y335201D01*
X1165997Y336165D02*
X1168483Y336165D01*
X1176683Y336295D02*
X1176683Y332309D01*
X1174197Y332309D01*
X1174197Y336295D01*
X1176683Y336295D01*
X1176683Y333273D02*
X1174197Y333273D01*
X1174197Y334237D02*
X1176683Y334237D01*
X1176683Y335201D02*
X1174197Y335201D01*
X1174197Y336165D02*
X1176683Y336165D01*
X1184883Y336295D02*
X1184883Y332309D01*
X1182397Y332309D01*
X1182397Y336295D01*
X1184883Y336295D01*
X1184883Y333273D02*
X1182397Y333273D01*
X1182397Y334237D02*
X1184883Y334237D01*
X1184883Y335201D02*
X1182397Y335201D01*
X1182397Y336165D02*
X1184883Y336165D01*
D11*
X1272794Y340360D03*
D10*
X1443963Y322795D02*
X1443963Y318809D01*
X1441477Y318809D01*
X1441477Y322795D01*
X1443963Y322795D01*
X1443963Y319773D02*
X1441477Y319773D01*
X1441477Y320737D02*
X1443963Y320737D01*
X1443963Y321701D02*
X1441477Y321701D01*
X1441477Y322665D02*
X1443963Y322665D01*
X1435763Y322795D02*
X1435763Y318809D01*
X1433277Y318809D01*
X1433277Y322795D01*
X1435763Y322795D01*
X1435763Y319773D02*
X1433277Y319773D01*
X1433277Y320737D02*
X1435763Y320737D01*
X1435763Y321701D02*
X1433277Y321701D01*
X1433277Y322665D02*
X1435763Y322665D01*
X1427563Y322795D02*
X1427563Y318809D01*
X1425077Y318809D01*
X1425077Y322795D01*
X1427563Y322795D01*
X1427563Y319773D02*
X1425077Y319773D01*
X1425077Y320737D02*
X1427563Y320737D01*
X1427563Y321701D02*
X1425077Y321701D01*
X1425077Y322665D02*
X1427563Y322665D01*
X1419363Y322795D02*
X1419363Y318809D01*
X1416877Y318809D01*
X1416877Y322795D01*
X1419363Y322795D01*
X1419363Y319773D02*
X1416877Y319773D01*
X1416877Y320737D02*
X1419363Y320737D01*
X1419363Y321701D02*
X1416877Y321701D01*
X1416877Y322665D02*
X1419363Y322665D01*
X1411163Y322795D02*
X1411163Y318809D01*
X1408677Y318809D01*
X1408677Y322795D01*
X1411163Y322795D01*
X1411163Y319773D02*
X1408677Y319773D01*
X1408677Y320737D02*
X1411163Y320737D01*
X1411163Y321701D02*
X1408677Y321701D01*
X1408677Y322665D02*
X1411163Y322665D01*
X1402963Y322795D02*
X1402963Y318809D01*
X1400477Y318809D01*
X1400477Y322795D01*
X1402963Y322795D01*
X1402963Y319773D02*
X1400477Y319773D01*
X1400477Y320737D02*
X1402963Y320737D01*
X1402963Y321701D02*
X1400477Y321701D01*
X1400477Y322665D02*
X1402963Y322665D01*
X1402963Y332309D02*
X1402963Y336295D01*
X1402963Y332309D02*
X1400477Y332309D01*
X1400477Y336295D01*
X1402963Y336295D01*
X1402963Y333273D02*
X1400477Y333273D01*
X1400477Y334237D02*
X1402963Y334237D01*
X1402963Y335201D02*
X1400477Y335201D01*
X1400477Y336165D02*
X1402963Y336165D01*
X1411163Y336295D02*
X1411163Y332309D01*
X1408677Y332309D01*
X1408677Y336295D01*
X1411163Y336295D01*
X1411163Y333273D02*
X1408677Y333273D01*
X1408677Y334237D02*
X1411163Y334237D01*
X1411163Y335201D02*
X1408677Y335201D01*
X1408677Y336165D02*
X1411163Y336165D01*
X1419363Y336295D02*
X1419363Y332309D01*
X1416877Y332309D01*
X1416877Y336295D01*
X1419363Y336295D01*
X1419363Y333273D02*
X1416877Y333273D01*
X1416877Y334237D02*
X1419363Y334237D01*
X1419363Y335201D02*
X1416877Y335201D01*
X1416877Y336165D02*
X1419363Y336165D01*
X1427563Y336295D02*
X1427563Y332309D01*
X1425077Y332309D01*
X1425077Y336295D01*
X1427563Y336295D01*
X1427563Y333273D02*
X1425077Y333273D01*
X1425077Y334237D02*
X1427563Y334237D01*
X1427563Y335201D02*
X1425077Y335201D01*
X1425077Y336165D02*
X1427563Y336165D01*
X1435763Y336295D02*
X1435763Y332309D01*
X1433277Y332309D01*
X1433277Y336295D01*
X1435763Y336295D01*
X1435763Y333273D02*
X1433277Y333273D01*
X1433277Y334237D02*
X1435763Y334237D01*
X1435763Y335201D02*
X1433277Y335201D01*
X1433277Y336165D02*
X1435763Y336165D01*
X1443963Y336295D02*
X1443963Y332309D01*
X1441477Y332309D01*
X1441477Y336295D01*
X1443963Y336295D01*
X1443963Y333273D02*
X1441477Y333273D01*
X1441477Y334237D02*
X1443963Y334237D01*
X1443963Y335201D02*
X1441477Y335201D01*
X1441477Y336165D02*
X1443963Y336165D01*
D11*
X1531874Y340360D03*
D10*
X148563Y450889D02*
X148563Y454875D01*
X148563Y450889D02*
X146077Y450889D01*
X146077Y454875D01*
X148563Y454875D01*
X148563Y451853D02*
X146077Y451853D01*
X146077Y452817D02*
X148563Y452817D01*
X148563Y453781D02*
X146077Y453781D01*
X146077Y454745D02*
X148563Y454745D01*
X140363Y454875D02*
X140363Y450889D01*
X137877Y450889D01*
X137877Y454875D01*
X140363Y454875D01*
X140363Y451853D02*
X137877Y451853D01*
X137877Y452817D02*
X140363Y452817D01*
X140363Y453781D02*
X137877Y453781D01*
X137877Y454745D02*
X140363Y454745D01*
X132163Y454875D02*
X132163Y450889D01*
X129677Y450889D01*
X129677Y454875D01*
X132163Y454875D01*
X132163Y451853D02*
X129677Y451853D01*
X129677Y452817D02*
X132163Y452817D01*
X132163Y453781D02*
X129677Y453781D01*
X129677Y454745D02*
X132163Y454745D01*
X123963Y454875D02*
X123963Y450889D01*
X121477Y450889D01*
X121477Y454875D01*
X123963Y454875D01*
X123963Y451853D02*
X121477Y451853D01*
X121477Y452817D02*
X123963Y452817D01*
X123963Y453781D02*
X121477Y453781D01*
X121477Y454745D02*
X123963Y454745D01*
X115763Y454875D02*
X115763Y450889D01*
X113277Y450889D01*
X113277Y454875D01*
X115763Y454875D01*
X115763Y451853D02*
X113277Y451853D01*
X113277Y452817D02*
X115763Y452817D01*
X115763Y453781D02*
X113277Y453781D01*
X113277Y454745D02*
X115763Y454745D01*
X107563Y454875D02*
X107563Y450889D01*
X105077Y450889D01*
X105077Y454875D01*
X107563Y454875D01*
X107563Y451853D02*
X105077Y451853D01*
X105077Y452817D02*
X107563Y452817D01*
X107563Y453781D02*
X105077Y453781D01*
X105077Y454745D02*
X107563Y454745D01*
X107563Y464389D02*
X107563Y468375D01*
X107563Y464389D02*
X105077Y464389D01*
X105077Y468375D01*
X107563Y468375D01*
X107563Y465353D02*
X105077Y465353D01*
X105077Y466317D02*
X107563Y466317D01*
X107563Y467281D02*
X105077Y467281D01*
X105077Y468245D02*
X107563Y468245D01*
X115763Y468375D02*
X115763Y464389D01*
X113277Y464389D01*
X113277Y468375D01*
X115763Y468375D01*
X115763Y465353D02*
X113277Y465353D01*
X113277Y466317D02*
X115763Y466317D01*
X115763Y467281D02*
X113277Y467281D01*
X113277Y468245D02*
X115763Y468245D01*
X123963Y468375D02*
X123963Y464389D01*
X121477Y464389D01*
X121477Y468375D01*
X123963Y468375D01*
X123963Y465353D02*
X121477Y465353D01*
X121477Y466317D02*
X123963Y466317D01*
X123963Y467281D02*
X121477Y467281D01*
X121477Y468245D02*
X123963Y468245D01*
X132163Y468375D02*
X132163Y464389D01*
X129677Y464389D01*
X129677Y468375D01*
X132163Y468375D01*
X132163Y465353D02*
X129677Y465353D01*
X129677Y466317D02*
X132163Y466317D01*
X132163Y467281D02*
X129677Y467281D01*
X129677Y468245D02*
X132163Y468245D01*
X140363Y468375D02*
X140363Y464389D01*
X137877Y464389D01*
X137877Y468375D01*
X140363Y468375D01*
X140363Y465353D02*
X137877Y465353D01*
X137877Y466317D02*
X140363Y466317D01*
X140363Y467281D02*
X137877Y467281D01*
X137877Y468245D02*
X140363Y468245D01*
X148563Y468375D02*
X148563Y464389D01*
X146077Y464389D01*
X146077Y468375D01*
X148563Y468375D01*
X148563Y465353D02*
X146077Y465353D01*
X146077Y466317D02*
X148563Y466317D01*
X148563Y467281D02*
X146077Y467281D01*
X146077Y468245D02*
X148563Y468245D01*
D11*
X236474Y472440D03*
D10*
X407643Y454875D02*
X407643Y450889D01*
X405157Y450889D01*
X405157Y454875D01*
X407643Y454875D01*
X407643Y451853D02*
X405157Y451853D01*
X405157Y452817D02*
X407643Y452817D01*
X407643Y453781D02*
X405157Y453781D01*
X405157Y454745D02*
X407643Y454745D01*
X399443Y454875D02*
X399443Y450889D01*
X396957Y450889D01*
X396957Y454875D01*
X399443Y454875D01*
X399443Y451853D02*
X396957Y451853D01*
X396957Y452817D02*
X399443Y452817D01*
X399443Y453781D02*
X396957Y453781D01*
X396957Y454745D02*
X399443Y454745D01*
X391243Y454875D02*
X391243Y450889D01*
X388757Y450889D01*
X388757Y454875D01*
X391243Y454875D01*
X391243Y451853D02*
X388757Y451853D01*
X388757Y452817D02*
X391243Y452817D01*
X391243Y453781D02*
X388757Y453781D01*
X388757Y454745D02*
X391243Y454745D01*
X383043Y454875D02*
X383043Y450889D01*
X380557Y450889D01*
X380557Y454875D01*
X383043Y454875D01*
X383043Y451853D02*
X380557Y451853D01*
X380557Y452817D02*
X383043Y452817D01*
X383043Y453781D02*
X380557Y453781D01*
X380557Y454745D02*
X383043Y454745D01*
X374843Y454875D02*
X374843Y450889D01*
X372357Y450889D01*
X372357Y454875D01*
X374843Y454875D01*
X374843Y451853D02*
X372357Y451853D01*
X372357Y452817D02*
X374843Y452817D01*
X374843Y453781D02*
X372357Y453781D01*
X372357Y454745D02*
X374843Y454745D01*
X366643Y454875D02*
X366643Y450889D01*
X364157Y450889D01*
X364157Y454875D01*
X366643Y454875D01*
X366643Y451853D02*
X364157Y451853D01*
X364157Y452817D02*
X366643Y452817D01*
X366643Y453781D02*
X364157Y453781D01*
X364157Y454745D02*
X366643Y454745D01*
X366643Y464389D02*
X366643Y468375D01*
X366643Y464389D02*
X364157Y464389D01*
X364157Y468375D01*
X366643Y468375D01*
X366643Y465353D02*
X364157Y465353D01*
X364157Y466317D02*
X366643Y466317D01*
X366643Y467281D02*
X364157Y467281D01*
X364157Y468245D02*
X366643Y468245D01*
X374843Y468375D02*
X374843Y464389D01*
X372357Y464389D01*
X372357Y468375D01*
X374843Y468375D01*
X374843Y465353D02*
X372357Y465353D01*
X372357Y466317D02*
X374843Y466317D01*
X374843Y467281D02*
X372357Y467281D01*
X372357Y468245D02*
X374843Y468245D01*
X383043Y468375D02*
X383043Y464389D01*
X380557Y464389D01*
X380557Y468375D01*
X383043Y468375D01*
X383043Y465353D02*
X380557Y465353D01*
X380557Y466317D02*
X383043Y466317D01*
X383043Y467281D02*
X380557Y467281D01*
X380557Y468245D02*
X383043Y468245D01*
X391243Y468375D02*
X391243Y464389D01*
X388757Y464389D01*
X388757Y468375D01*
X391243Y468375D01*
X391243Y465353D02*
X388757Y465353D01*
X388757Y466317D02*
X391243Y466317D01*
X391243Y467281D02*
X388757Y467281D01*
X388757Y468245D02*
X391243Y468245D01*
X399443Y468375D02*
X399443Y464389D01*
X396957Y464389D01*
X396957Y468375D01*
X399443Y468375D01*
X399443Y465353D02*
X396957Y465353D01*
X396957Y466317D02*
X399443Y466317D01*
X399443Y467281D02*
X396957Y467281D01*
X396957Y468245D02*
X399443Y468245D01*
X407643Y468375D02*
X407643Y464389D01*
X405157Y464389D01*
X405157Y468375D01*
X407643Y468375D01*
X407643Y465353D02*
X405157Y465353D01*
X405157Y466317D02*
X407643Y466317D01*
X407643Y467281D02*
X405157Y467281D01*
X405157Y468245D02*
X407643Y468245D01*
D11*
X495554Y472440D03*
D10*
X666723Y454875D02*
X666723Y450889D01*
X664237Y450889D01*
X664237Y454875D01*
X666723Y454875D01*
X666723Y451853D02*
X664237Y451853D01*
X664237Y452817D02*
X666723Y452817D01*
X666723Y453781D02*
X664237Y453781D01*
X664237Y454745D02*
X666723Y454745D01*
X658523Y454875D02*
X658523Y450889D01*
X656037Y450889D01*
X656037Y454875D01*
X658523Y454875D01*
X658523Y451853D02*
X656037Y451853D01*
X656037Y452817D02*
X658523Y452817D01*
X658523Y453781D02*
X656037Y453781D01*
X656037Y454745D02*
X658523Y454745D01*
X650323Y454875D02*
X650323Y450889D01*
X647837Y450889D01*
X647837Y454875D01*
X650323Y454875D01*
X650323Y451853D02*
X647837Y451853D01*
X647837Y452817D02*
X650323Y452817D01*
X650323Y453781D02*
X647837Y453781D01*
X647837Y454745D02*
X650323Y454745D01*
X642123Y454875D02*
X642123Y450889D01*
X639637Y450889D01*
X639637Y454875D01*
X642123Y454875D01*
X642123Y451853D02*
X639637Y451853D01*
X639637Y452817D02*
X642123Y452817D01*
X642123Y453781D02*
X639637Y453781D01*
X639637Y454745D02*
X642123Y454745D01*
X633923Y454875D02*
X633923Y450889D01*
X631437Y450889D01*
X631437Y454875D01*
X633923Y454875D01*
X633923Y451853D02*
X631437Y451853D01*
X631437Y452817D02*
X633923Y452817D01*
X633923Y453781D02*
X631437Y453781D01*
X631437Y454745D02*
X633923Y454745D01*
X625723Y454875D02*
X625723Y450889D01*
X623237Y450889D01*
X623237Y454875D01*
X625723Y454875D01*
X625723Y451853D02*
X623237Y451853D01*
X623237Y452817D02*
X625723Y452817D01*
X625723Y453781D02*
X623237Y453781D01*
X623237Y454745D02*
X625723Y454745D01*
X625723Y464389D02*
X625723Y468375D01*
X625723Y464389D02*
X623237Y464389D01*
X623237Y468375D01*
X625723Y468375D01*
X625723Y465353D02*
X623237Y465353D01*
X623237Y466317D02*
X625723Y466317D01*
X625723Y467281D02*
X623237Y467281D01*
X623237Y468245D02*
X625723Y468245D01*
X633923Y468375D02*
X633923Y464389D01*
X631437Y464389D01*
X631437Y468375D01*
X633923Y468375D01*
X633923Y465353D02*
X631437Y465353D01*
X631437Y466317D02*
X633923Y466317D01*
X633923Y467281D02*
X631437Y467281D01*
X631437Y468245D02*
X633923Y468245D01*
X642123Y468375D02*
X642123Y464389D01*
X639637Y464389D01*
X639637Y468375D01*
X642123Y468375D01*
X642123Y465353D02*
X639637Y465353D01*
X639637Y466317D02*
X642123Y466317D01*
X642123Y467281D02*
X639637Y467281D01*
X639637Y468245D02*
X642123Y468245D01*
X650323Y468375D02*
X650323Y464389D01*
X647837Y464389D01*
X647837Y468375D01*
X650323Y468375D01*
X650323Y465353D02*
X647837Y465353D01*
X647837Y466317D02*
X650323Y466317D01*
X650323Y467281D02*
X647837Y467281D01*
X647837Y468245D02*
X650323Y468245D01*
X658523Y468375D02*
X658523Y464389D01*
X656037Y464389D01*
X656037Y468375D01*
X658523Y468375D01*
X658523Y465353D02*
X656037Y465353D01*
X656037Y466317D02*
X658523Y466317D01*
X658523Y467281D02*
X656037Y467281D01*
X656037Y468245D02*
X658523Y468245D01*
X666723Y468375D02*
X666723Y464389D01*
X664237Y464389D01*
X664237Y468375D01*
X666723Y468375D01*
X666723Y465353D02*
X664237Y465353D01*
X664237Y466317D02*
X666723Y466317D01*
X666723Y467281D02*
X664237Y467281D01*
X664237Y468245D02*
X666723Y468245D01*
D11*
X754634Y472440D03*
D10*
X925803Y454875D02*
X925803Y450889D01*
X923317Y450889D01*
X923317Y454875D01*
X925803Y454875D01*
X925803Y451853D02*
X923317Y451853D01*
X923317Y452817D02*
X925803Y452817D01*
X925803Y453781D02*
X923317Y453781D01*
X923317Y454745D02*
X925803Y454745D01*
X917603Y454875D02*
X917603Y450889D01*
X915117Y450889D01*
X915117Y454875D01*
X917603Y454875D01*
X917603Y451853D02*
X915117Y451853D01*
X915117Y452817D02*
X917603Y452817D01*
X917603Y453781D02*
X915117Y453781D01*
X915117Y454745D02*
X917603Y454745D01*
X909403Y454875D02*
X909403Y450889D01*
X906917Y450889D01*
X906917Y454875D01*
X909403Y454875D01*
X909403Y451853D02*
X906917Y451853D01*
X906917Y452817D02*
X909403Y452817D01*
X909403Y453781D02*
X906917Y453781D01*
X906917Y454745D02*
X909403Y454745D01*
X901203Y454875D02*
X901203Y450889D01*
X898717Y450889D01*
X898717Y454875D01*
X901203Y454875D01*
X901203Y451853D02*
X898717Y451853D01*
X898717Y452817D02*
X901203Y452817D01*
X901203Y453781D02*
X898717Y453781D01*
X898717Y454745D02*
X901203Y454745D01*
X893003Y454875D02*
X893003Y450889D01*
X890517Y450889D01*
X890517Y454875D01*
X893003Y454875D01*
X893003Y451853D02*
X890517Y451853D01*
X890517Y452817D02*
X893003Y452817D01*
X893003Y453781D02*
X890517Y453781D01*
X890517Y454745D02*
X893003Y454745D01*
X884803Y454875D02*
X884803Y450889D01*
X882317Y450889D01*
X882317Y454875D01*
X884803Y454875D01*
X884803Y451853D02*
X882317Y451853D01*
X882317Y452817D02*
X884803Y452817D01*
X884803Y453781D02*
X882317Y453781D01*
X882317Y454745D02*
X884803Y454745D01*
X884803Y464389D02*
X884803Y468375D01*
X884803Y464389D02*
X882317Y464389D01*
X882317Y468375D01*
X884803Y468375D01*
X884803Y465353D02*
X882317Y465353D01*
X882317Y466317D02*
X884803Y466317D01*
X884803Y467281D02*
X882317Y467281D01*
X882317Y468245D02*
X884803Y468245D01*
X893003Y468375D02*
X893003Y464389D01*
X890517Y464389D01*
X890517Y468375D01*
X893003Y468375D01*
X893003Y465353D02*
X890517Y465353D01*
X890517Y466317D02*
X893003Y466317D01*
X893003Y467281D02*
X890517Y467281D01*
X890517Y468245D02*
X893003Y468245D01*
X901203Y468375D02*
X901203Y464389D01*
X898717Y464389D01*
X898717Y468375D01*
X901203Y468375D01*
X901203Y465353D02*
X898717Y465353D01*
X898717Y466317D02*
X901203Y466317D01*
X901203Y467281D02*
X898717Y467281D01*
X898717Y468245D02*
X901203Y468245D01*
X909403Y468375D02*
X909403Y464389D01*
X906917Y464389D01*
X906917Y468375D01*
X909403Y468375D01*
X909403Y465353D02*
X906917Y465353D01*
X906917Y466317D02*
X909403Y466317D01*
X909403Y467281D02*
X906917Y467281D01*
X906917Y468245D02*
X909403Y468245D01*
X917603Y468375D02*
X917603Y464389D01*
X915117Y464389D01*
X915117Y468375D01*
X917603Y468375D01*
X917603Y465353D02*
X915117Y465353D01*
X915117Y466317D02*
X917603Y466317D01*
X917603Y467281D02*
X915117Y467281D01*
X915117Y468245D02*
X917603Y468245D01*
X925803Y468375D02*
X925803Y464389D01*
X923317Y464389D01*
X923317Y468375D01*
X925803Y468375D01*
X925803Y465353D02*
X923317Y465353D01*
X923317Y466317D02*
X925803Y466317D01*
X925803Y467281D02*
X923317Y467281D01*
X923317Y468245D02*
X925803Y468245D01*
D11*
X1013714Y472440D03*
D10*
X1184883Y454875D02*
X1184883Y450889D01*
X1182397Y450889D01*
X1182397Y454875D01*
X1184883Y454875D01*
X1184883Y451853D02*
X1182397Y451853D01*
X1182397Y452817D02*
X1184883Y452817D01*
X1184883Y453781D02*
X1182397Y453781D01*
X1182397Y454745D02*
X1184883Y454745D01*
X1176683Y454875D02*
X1176683Y450889D01*
X1174197Y450889D01*
X1174197Y454875D01*
X1176683Y454875D01*
X1176683Y451853D02*
X1174197Y451853D01*
X1174197Y452817D02*
X1176683Y452817D01*
X1176683Y453781D02*
X1174197Y453781D01*
X1174197Y454745D02*
X1176683Y454745D01*
X1168483Y454875D02*
X1168483Y450889D01*
X1165997Y450889D01*
X1165997Y454875D01*
X1168483Y454875D01*
X1168483Y451853D02*
X1165997Y451853D01*
X1165997Y452817D02*
X1168483Y452817D01*
X1168483Y453781D02*
X1165997Y453781D01*
X1165997Y454745D02*
X1168483Y454745D01*
X1160283Y454875D02*
X1160283Y450889D01*
X1157797Y450889D01*
X1157797Y454875D01*
X1160283Y454875D01*
X1160283Y451853D02*
X1157797Y451853D01*
X1157797Y452817D02*
X1160283Y452817D01*
X1160283Y453781D02*
X1157797Y453781D01*
X1157797Y454745D02*
X1160283Y454745D01*
X1152083Y454875D02*
X1152083Y450889D01*
X1149597Y450889D01*
X1149597Y454875D01*
X1152083Y454875D01*
X1152083Y451853D02*
X1149597Y451853D01*
X1149597Y452817D02*
X1152083Y452817D01*
X1152083Y453781D02*
X1149597Y453781D01*
X1149597Y454745D02*
X1152083Y454745D01*
X1143883Y454875D02*
X1143883Y450889D01*
X1141397Y450889D01*
X1141397Y454875D01*
X1143883Y454875D01*
X1143883Y451853D02*
X1141397Y451853D01*
X1141397Y452817D02*
X1143883Y452817D01*
X1143883Y453781D02*
X1141397Y453781D01*
X1141397Y454745D02*
X1143883Y454745D01*
X1143883Y464389D02*
X1143883Y468375D01*
X1143883Y464389D02*
X1141397Y464389D01*
X1141397Y468375D01*
X1143883Y468375D01*
X1143883Y465353D02*
X1141397Y465353D01*
X1141397Y466317D02*
X1143883Y466317D01*
X1143883Y467281D02*
X1141397Y467281D01*
X1141397Y468245D02*
X1143883Y468245D01*
X1152083Y468375D02*
X1152083Y464389D01*
X1149597Y464389D01*
X1149597Y468375D01*
X1152083Y468375D01*
X1152083Y465353D02*
X1149597Y465353D01*
X1149597Y466317D02*
X1152083Y466317D01*
X1152083Y467281D02*
X1149597Y467281D01*
X1149597Y468245D02*
X1152083Y468245D01*
X1160283Y468375D02*
X1160283Y464389D01*
X1157797Y464389D01*
X1157797Y468375D01*
X1160283Y468375D01*
X1160283Y465353D02*
X1157797Y465353D01*
X1157797Y466317D02*
X1160283Y466317D01*
X1160283Y467281D02*
X1157797Y467281D01*
X1157797Y468245D02*
X1160283Y468245D01*
X1168483Y468375D02*
X1168483Y464389D01*
X1165997Y464389D01*
X1165997Y468375D01*
X1168483Y468375D01*
X1168483Y465353D02*
X1165997Y465353D01*
X1165997Y466317D02*
X1168483Y466317D01*
X1168483Y467281D02*
X1165997Y467281D01*
X1165997Y468245D02*
X1168483Y468245D01*
X1176683Y468375D02*
X1176683Y464389D01*
X1174197Y464389D01*
X1174197Y468375D01*
X1176683Y468375D01*
X1176683Y465353D02*
X1174197Y465353D01*
X1174197Y466317D02*
X1176683Y466317D01*
X1176683Y467281D02*
X1174197Y467281D01*
X1174197Y468245D02*
X1176683Y468245D01*
X1184883Y468375D02*
X1184883Y464389D01*
X1182397Y464389D01*
X1182397Y468375D01*
X1184883Y468375D01*
X1184883Y465353D02*
X1182397Y465353D01*
X1182397Y466317D02*
X1184883Y466317D01*
X1184883Y467281D02*
X1182397Y467281D01*
X1182397Y468245D02*
X1184883Y468245D01*
D11*
X1272794Y472440D03*
D10*
X1443963Y454875D02*
X1443963Y450889D01*
X1441477Y450889D01*
X1441477Y454875D01*
X1443963Y454875D01*
X1443963Y451853D02*
X1441477Y451853D01*
X1441477Y452817D02*
X1443963Y452817D01*
X1443963Y453781D02*
X1441477Y453781D01*
X1441477Y454745D02*
X1443963Y454745D01*
X1435763Y454875D02*
X1435763Y450889D01*
X1433277Y450889D01*
X1433277Y454875D01*
X1435763Y454875D01*
X1435763Y451853D02*
X1433277Y451853D01*
X1433277Y452817D02*
X1435763Y452817D01*
X1435763Y453781D02*
X1433277Y453781D01*
X1433277Y454745D02*
X1435763Y454745D01*
X1427563Y454875D02*
X1427563Y450889D01*
X1425077Y450889D01*
X1425077Y454875D01*
X1427563Y454875D01*
X1427563Y451853D02*
X1425077Y451853D01*
X1425077Y452817D02*
X1427563Y452817D01*
X1427563Y453781D02*
X1425077Y453781D01*
X1425077Y454745D02*
X1427563Y454745D01*
X1419363Y454875D02*
X1419363Y450889D01*
X1416877Y450889D01*
X1416877Y454875D01*
X1419363Y454875D01*
X1419363Y451853D02*
X1416877Y451853D01*
X1416877Y452817D02*
X1419363Y452817D01*
X1419363Y453781D02*
X1416877Y453781D01*
X1416877Y454745D02*
X1419363Y454745D01*
X1411163Y454875D02*
X1411163Y450889D01*
X1408677Y450889D01*
X1408677Y454875D01*
X1411163Y454875D01*
X1411163Y451853D02*
X1408677Y451853D01*
X1408677Y452817D02*
X1411163Y452817D01*
X1411163Y453781D02*
X1408677Y453781D01*
X1408677Y454745D02*
X1411163Y454745D01*
X1402963Y454875D02*
X1402963Y450889D01*
X1400477Y450889D01*
X1400477Y454875D01*
X1402963Y454875D01*
X1402963Y451853D02*
X1400477Y451853D01*
X1400477Y452817D02*
X1402963Y452817D01*
X1402963Y453781D02*
X1400477Y453781D01*
X1400477Y454745D02*
X1402963Y454745D01*
X1402963Y464389D02*
X1402963Y468375D01*
X1402963Y464389D02*
X1400477Y464389D01*
X1400477Y468375D01*
X1402963Y468375D01*
X1402963Y465353D02*
X1400477Y465353D01*
X1400477Y466317D02*
X1402963Y466317D01*
X1402963Y467281D02*
X1400477Y467281D01*
X1400477Y468245D02*
X1402963Y468245D01*
X1411163Y468375D02*
X1411163Y464389D01*
X1408677Y464389D01*
X1408677Y468375D01*
X1411163Y468375D01*
X1411163Y465353D02*
X1408677Y465353D01*
X1408677Y466317D02*
X1411163Y466317D01*
X1411163Y467281D02*
X1408677Y467281D01*
X1408677Y468245D02*
X1411163Y468245D01*
X1419363Y468375D02*
X1419363Y464389D01*
X1416877Y464389D01*
X1416877Y468375D01*
X1419363Y468375D01*
X1419363Y465353D02*
X1416877Y465353D01*
X1416877Y466317D02*
X1419363Y466317D01*
X1419363Y467281D02*
X1416877Y467281D01*
X1416877Y468245D02*
X1419363Y468245D01*
X1427563Y468375D02*
X1427563Y464389D01*
X1425077Y464389D01*
X1425077Y468375D01*
X1427563Y468375D01*
X1427563Y465353D02*
X1425077Y465353D01*
X1425077Y466317D02*
X1427563Y466317D01*
X1427563Y467281D02*
X1425077Y467281D01*
X1425077Y468245D02*
X1427563Y468245D01*
X1435763Y468375D02*
X1435763Y464389D01*
X1433277Y464389D01*
X1433277Y468375D01*
X1435763Y468375D01*
X1435763Y465353D02*
X1433277Y465353D01*
X1433277Y466317D02*
X1435763Y466317D01*
X1435763Y467281D02*
X1433277Y467281D01*
X1433277Y468245D02*
X1435763Y468245D01*
X1443963Y468375D02*
X1443963Y464389D01*
X1441477Y464389D01*
X1441477Y468375D01*
X1443963Y468375D01*
X1443963Y465353D02*
X1441477Y465353D01*
X1441477Y466317D02*
X1443963Y466317D01*
X1443963Y467281D02*
X1441477Y467281D01*
X1441477Y468245D02*
X1443963Y468245D01*
D11*
X1531874Y472440D03*
D10*
X148563Y582969D02*
X148563Y586955D01*
X148563Y582969D02*
X146077Y582969D01*
X146077Y586955D01*
X148563Y586955D01*
X148563Y583933D02*
X146077Y583933D01*
X146077Y584897D02*
X148563Y584897D01*
X148563Y585861D02*
X146077Y585861D01*
X146077Y586825D02*
X148563Y586825D01*
X140363Y586955D02*
X140363Y582969D01*
X137877Y582969D01*
X137877Y586955D01*
X140363Y586955D01*
X140363Y583933D02*
X137877Y583933D01*
X137877Y584897D02*
X140363Y584897D01*
X140363Y585861D02*
X137877Y585861D01*
X137877Y586825D02*
X140363Y586825D01*
X132163Y586955D02*
X132163Y582969D01*
X129677Y582969D01*
X129677Y586955D01*
X132163Y586955D01*
X132163Y583933D02*
X129677Y583933D01*
X129677Y584897D02*
X132163Y584897D01*
X132163Y585861D02*
X129677Y585861D01*
X129677Y586825D02*
X132163Y586825D01*
X123963Y586955D02*
X123963Y582969D01*
X121477Y582969D01*
X121477Y586955D01*
X123963Y586955D01*
X123963Y583933D02*
X121477Y583933D01*
X121477Y584897D02*
X123963Y584897D01*
X123963Y585861D02*
X121477Y585861D01*
X121477Y586825D02*
X123963Y586825D01*
X115763Y586955D02*
X115763Y582969D01*
X113277Y582969D01*
X113277Y586955D01*
X115763Y586955D01*
X115763Y583933D02*
X113277Y583933D01*
X113277Y584897D02*
X115763Y584897D01*
X115763Y585861D02*
X113277Y585861D01*
X113277Y586825D02*
X115763Y586825D01*
X107563Y586955D02*
X107563Y582969D01*
X105077Y582969D01*
X105077Y586955D01*
X107563Y586955D01*
X107563Y583933D02*
X105077Y583933D01*
X105077Y584897D02*
X107563Y584897D01*
X107563Y585861D02*
X105077Y585861D01*
X105077Y586825D02*
X107563Y586825D01*
X107563Y596469D02*
X107563Y600455D01*
X107563Y596469D02*
X105077Y596469D01*
X105077Y600455D01*
X107563Y600455D01*
X107563Y597433D02*
X105077Y597433D01*
X105077Y598397D02*
X107563Y598397D01*
X107563Y599361D02*
X105077Y599361D01*
X105077Y600325D02*
X107563Y600325D01*
X115763Y600455D02*
X115763Y596469D01*
X113277Y596469D01*
X113277Y600455D01*
X115763Y600455D01*
X115763Y597433D02*
X113277Y597433D01*
X113277Y598397D02*
X115763Y598397D01*
X115763Y599361D02*
X113277Y599361D01*
X113277Y600325D02*
X115763Y600325D01*
X123963Y600455D02*
X123963Y596469D01*
X121477Y596469D01*
X121477Y600455D01*
X123963Y600455D01*
X123963Y597433D02*
X121477Y597433D01*
X121477Y598397D02*
X123963Y598397D01*
X123963Y599361D02*
X121477Y599361D01*
X121477Y600325D02*
X123963Y600325D01*
X132163Y600455D02*
X132163Y596469D01*
X129677Y596469D01*
X129677Y600455D01*
X132163Y600455D01*
X132163Y597433D02*
X129677Y597433D01*
X129677Y598397D02*
X132163Y598397D01*
X132163Y599361D02*
X129677Y599361D01*
X129677Y600325D02*
X132163Y600325D01*
X140363Y600455D02*
X140363Y596469D01*
X137877Y596469D01*
X137877Y600455D01*
X140363Y600455D01*
X140363Y597433D02*
X137877Y597433D01*
X137877Y598397D02*
X140363Y598397D01*
X140363Y599361D02*
X137877Y599361D01*
X137877Y600325D02*
X140363Y600325D01*
X148563Y600455D02*
X148563Y596469D01*
X146077Y596469D01*
X146077Y600455D01*
X148563Y600455D01*
X148563Y597433D02*
X146077Y597433D01*
X146077Y598397D02*
X148563Y598397D01*
X148563Y599361D02*
X146077Y599361D01*
X146077Y600325D02*
X148563Y600325D01*
D11*
X236474Y604520D03*
D10*
X407643Y586955D02*
X407643Y582969D01*
X405157Y582969D01*
X405157Y586955D01*
X407643Y586955D01*
X407643Y583933D02*
X405157Y583933D01*
X405157Y584897D02*
X407643Y584897D01*
X407643Y585861D02*
X405157Y585861D01*
X405157Y586825D02*
X407643Y586825D01*
X399443Y586955D02*
X399443Y582969D01*
X396957Y582969D01*
X396957Y586955D01*
X399443Y586955D01*
X399443Y583933D02*
X396957Y583933D01*
X396957Y584897D02*
X399443Y584897D01*
X399443Y585861D02*
X396957Y585861D01*
X396957Y586825D02*
X399443Y586825D01*
X391243Y586955D02*
X391243Y582969D01*
X388757Y582969D01*
X388757Y586955D01*
X391243Y586955D01*
X391243Y583933D02*
X388757Y583933D01*
X388757Y584897D02*
X391243Y584897D01*
X391243Y585861D02*
X388757Y585861D01*
X388757Y586825D02*
X391243Y586825D01*
X383043Y586955D02*
X383043Y582969D01*
X380557Y582969D01*
X380557Y586955D01*
X383043Y586955D01*
X383043Y583933D02*
X380557Y583933D01*
X380557Y584897D02*
X383043Y584897D01*
X383043Y585861D02*
X380557Y585861D01*
X380557Y586825D02*
X383043Y586825D01*
X374843Y586955D02*
X374843Y582969D01*
X372357Y582969D01*
X372357Y586955D01*
X374843Y586955D01*
X374843Y583933D02*
X372357Y583933D01*
X372357Y584897D02*
X374843Y584897D01*
X374843Y585861D02*
X372357Y585861D01*
X372357Y586825D02*
X374843Y586825D01*
X366643Y586955D02*
X366643Y582969D01*
X364157Y582969D01*
X364157Y586955D01*
X366643Y586955D01*
X366643Y583933D02*
X364157Y583933D01*
X364157Y584897D02*
X366643Y584897D01*
X366643Y585861D02*
X364157Y585861D01*
X364157Y586825D02*
X366643Y586825D01*
X366643Y596469D02*
X366643Y600455D01*
X366643Y596469D02*
X364157Y596469D01*
X364157Y600455D01*
X366643Y600455D01*
X366643Y597433D02*
X364157Y597433D01*
X364157Y598397D02*
X366643Y598397D01*
X366643Y599361D02*
X364157Y599361D01*
X364157Y600325D02*
X366643Y600325D01*
X374843Y600455D02*
X374843Y596469D01*
X372357Y596469D01*
X372357Y600455D01*
X374843Y600455D01*
X374843Y597433D02*
X372357Y597433D01*
X372357Y598397D02*
X374843Y598397D01*
X374843Y599361D02*
X372357Y599361D01*
X372357Y600325D02*
X374843Y600325D01*
X383043Y600455D02*
X383043Y596469D01*
X380557Y596469D01*
X380557Y600455D01*
X383043Y600455D01*
X383043Y597433D02*
X380557Y597433D01*
X380557Y598397D02*
X383043Y598397D01*
X383043Y599361D02*
X380557Y599361D01*
X380557Y600325D02*
X383043Y600325D01*
X391243Y600455D02*
X391243Y596469D01*
X388757Y596469D01*
X388757Y600455D01*
X391243Y600455D01*
X391243Y597433D02*
X388757Y597433D01*
X388757Y598397D02*
X391243Y598397D01*
X391243Y599361D02*
X388757Y599361D01*
X388757Y600325D02*
X391243Y600325D01*
X399443Y600455D02*
X399443Y596469D01*
X396957Y596469D01*
X396957Y600455D01*
X399443Y600455D01*
X399443Y597433D02*
X396957Y597433D01*
X396957Y598397D02*
X399443Y598397D01*
X399443Y599361D02*
X396957Y599361D01*
X396957Y600325D02*
X399443Y600325D01*
X407643Y600455D02*
X407643Y596469D01*
X405157Y596469D01*
X405157Y600455D01*
X407643Y600455D01*
X407643Y597433D02*
X405157Y597433D01*
X405157Y598397D02*
X407643Y598397D01*
X407643Y599361D02*
X405157Y599361D01*
X405157Y600325D02*
X407643Y600325D01*
D11*
X495554Y604520D03*
D10*
X666723Y586955D02*
X666723Y582969D01*
X664237Y582969D01*
X664237Y586955D01*
X666723Y586955D01*
X666723Y583933D02*
X664237Y583933D01*
X664237Y584897D02*
X666723Y584897D01*
X666723Y585861D02*
X664237Y585861D01*
X664237Y586825D02*
X666723Y586825D01*
X658523Y586955D02*
X658523Y582969D01*
X656037Y582969D01*
X656037Y586955D01*
X658523Y586955D01*
X658523Y583933D02*
X656037Y583933D01*
X656037Y584897D02*
X658523Y584897D01*
X658523Y585861D02*
X656037Y585861D01*
X656037Y586825D02*
X658523Y586825D01*
X650323Y586955D02*
X650323Y582969D01*
X647837Y582969D01*
X647837Y586955D01*
X650323Y586955D01*
X650323Y583933D02*
X647837Y583933D01*
X647837Y584897D02*
X650323Y584897D01*
X650323Y585861D02*
X647837Y585861D01*
X647837Y586825D02*
X650323Y586825D01*
X642123Y586955D02*
X642123Y582969D01*
X639637Y582969D01*
X639637Y586955D01*
X642123Y586955D01*
X642123Y583933D02*
X639637Y583933D01*
X639637Y584897D02*
X642123Y584897D01*
X642123Y585861D02*
X639637Y585861D01*
X639637Y586825D02*
X642123Y586825D01*
X633923Y586955D02*
X633923Y582969D01*
X631437Y582969D01*
X631437Y586955D01*
X633923Y586955D01*
X633923Y583933D02*
X631437Y583933D01*
X631437Y584897D02*
X633923Y584897D01*
X633923Y585861D02*
X631437Y585861D01*
X631437Y586825D02*
X633923Y586825D01*
X625723Y586955D02*
X625723Y582969D01*
X623237Y582969D01*
X623237Y586955D01*
X625723Y586955D01*
X625723Y583933D02*
X623237Y583933D01*
X623237Y584897D02*
X625723Y584897D01*
X625723Y585861D02*
X623237Y585861D01*
X623237Y586825D02*
X625723Y586825D01*
X625723Y596469D02*
X625723Y600455D01*
X625723Y596469D02*
X623237Y596469D01*
X623237Y600455D01*
X625723Y600455D01*
X625723Y597433D02*
X623237Y597433D01*
X623237Y598397D02*
X625723Y598397D01*
X625723Y599361D02*
X623237Y599361D01*
X623237Y600325D02*
X625723Y600325D01*
X633923Y600455D02*
X633923Y596469D01*
X631437Y596469D01*
X631437Y600455D01*
X633923Y600455D01*
X633923Y597433D02*
X631437Y597433D01*
X631437Y598397D02*
X633923Y598397D01*
X633923Y599361D02*
X631437Y599361D01*
X631437Y600325D02*
X633923Y600325D01*
X642123Y600455D02*
X642123Y596469D01*
X639637Y596469D01*
X639637Y600455D01*
X642123Y600455D01*
X642123Y597433D02*
X639637Y597433D01*
X639637Y598397D02*
X642123Y598397D01*
X642123Y599361D02*
X639637Y599361D01*
X639637Y600325D02*
X642123Y600325D01*
X650323Y600455D02*
X650323Y596469D01*
X647837Y596469D01*
X647837Y600455D01*
X650323Y600455D01*
X650323Y597433D02*
X647837Y597433D01*
X647837Y598397D02*
X650323Y598397D01*
X650323Y599361D02*
X647837Y599361D01*
X647837Y600325D02*
X650323Y600325D01*
X658523Y600455D02*
X658523Y596469D01*
X656037Y596469D01*
X656037Y600455D01*
X658523Y600455D01*
X658523Y597433D02*
X656037Y597433D01*
X656037Y598397D02*
X658523Y598397D01*
X658523Y599361D02*
X656037Y599361D01*
X656037Y600325D02*
X658523Y600325D01*
X666723Y600455D02*
X666723Y596469D01*
X664237Y596469D01*
X664237Y600455D01*
X666723Y600455D01*
X666723Y597433D02*
X664237Y597433D01*
X664237Y598397D02*
X666723Y598397D01*
X666723Y599361D02*
X664237Y599361D01*
X664237Y600325D02*
X666723Y600325D01*
D11*
X754634Y604520D03*
D10*
X925803Y586955D02*
X925803Y582969D01*
X923317Y582969D01*
X923317Y586955D01*
X925803Y586955D01*
X925803Y583933D02*
X923317Y583933D01*
X923317Y584897D02*
X925803Y584897D01*
X925803Y585861D02*
X923317Y585861D01*
X923317Y586825D02*
X925803Y586825D01*
X917603Y586955D02*
X917603Y582969D01*
X915117Y582969D01*
X915117Y586955D01*
X917603Y586955D01*
X917603Y583933D02*
X915117Y583933D01*
X915117Y584897D02*
X917603Y584897D01*
X917603Y585861D02*
X915117Y585861D01*
X915117Y586825D02*
X917603Y586825D01*
X909403Y586955D02*
X909403Y582969D01*
X906917Y582969D01*
X906917Y586955D01*
X909403Y586955D01*
X909403Y583933D02*
X906917Y583933D01*
X906917Y584897D02*
X909403Y584897D01*
X909403Y585861D02*
X906917Y585861D01*
X906917Y586825D02*
X909403Y586825D01*
X901203Y586955D02*
X901203Y582969D01*
X898717Y582969D01*
X898717Y586955D01*
X901203Y586955D01*
X901203Y583933D02*
X898717Y583933D01*
X898717Y584897D02*
X901203Y584897D01*
X901203Y585861D02*
X898717Y585861D01*
X898717Y586825D02*
X901203Y586825D01*
X893003Y586955D02*
X893003Y582969D01*
X890517Y582969D01*
X890517Y586955D01*
X893003Y586955D01*
X893003Y583933D02*
X890517Y583933D01*
X890517Y584897D02*
X893003Y584897D01*
X893003Y585861D02*
X890517Y585861D01*
X890517Y586825D02*
X893003Y586825D01*
X884803Y586955D02*
X884803Y582969D01*
X882317Y582969D01*
X882317Y586955D01*
X884803Y586955D01*
X884803Y583933D02*
X882317Y583933D01*
X882317Y584897D02*
X884803Y584897D01*
X884803Y585861D02*
X882317Y585861D01*
X882317Y586825D02*
X884803Y586825D01*
X884803Y596469D02*
X884803Y600455D01*
X884803Y596469D02*
X882317Y596469D01*
X882317Y600455D01*
X884803Y600455D01*
X884803Y597433D02*
X882317Y597433D01*
X882317Y598397D02*
X884803Y598397D01*
X884803Y599361D02*
X882317Y599361D01*
X882317Y600325D02*
X884803Y600325D01*
X893003Y600455D02*
X893003Y596469D01*
X890517Y596469D01*
X890517Y600455D01*
X893003Y600455D01*
X893003Y597433D02*
X890517Y597433D01*
X890517Y598397D02*
X893003Y598397D01*
X893003Y599361D02*
X890517Y599361D01*
X890517Y600325D02*
X893003Y600325D01*
X901203Y600455D02*
X901203Y596469D01*
X898717Y596469D01*
X898717Y600455D01*
X901203Y600455D01*
X901203Y597433D02*
X898717Y597433D01*
X898717Y598397D02*
X901203Y598397D01*
X901203Y599361D02*
X898717Y599361D01*
X898717Y600325D02*
X901203Y600325D01*
X909403Y600455D02*
X909403Y596469D01*
X906917Y596469D01*
X906917Y600455D01*
X909403Y600455D01*
X909403Y597433D02*
X906917Y597433D01*
X906917Y598397D02*
X909403Y598397D01*
X909403Y599361D02*
X906917Y599361D01*
X906917Y600325D02*
X909403Y600325D01*
X917603Y600455D02*
X917603Y596469D01*
X915117Y596469D01*
X915117Y600455D01*
X917603Y600455D01*
X917603Y597433D02*
X915117Y597433D01*
X915117Y598397D02*
X917603Y598397D01*
X917603Y599361D02*
X915117Y599361D01*
X915117Y600325D02*
X917603Y600325D01*
X925803Y600455D02*
X925803Y596469D01*
X923317Y596469D01*
X923317Y600455D01*
X925803Y600455D01*
X925803Y597433D02*
X923317Y597433D01*
X923317Y598397D02*
X925803Y598397D01*
X925803Y599361D02*
X923317Y599361D01*
X923317Y600325D02*
X925803Y600325D01*
D11*
X1013714Y604520D03*
D10*
X1184883Y586955D02*
X1184883Y582969D01*
X1182397Y582969D01*
X1182397Y586955D01*
X1184883Y586955D01*
X1184883Y583933D02*
X1182397Y583933D01*
X1182397Y584897D02*
X1184883Y584897D01*
X1184883Y585861D02*
X1182397Y585861D01*
X1182397Y586825D02*
X1184883Y586825D01*
X1176683Y586955D02*
X1176683Y582969D01*
X1174197Y582969D01*
X1174197Y586955D01*
X1176683Y586955D01*
X1176683Y583933D02*
X1174197Y583933D01*
X1174197Y584897D02*
X1176683Y584897D01*
X1176683Y585861D02*
X1174197Y585861D01*
X1174197Y586825D02*
X1176683Y586825D01*
X1168483Y586955D02*
X1168483Y582969D01*
X1165997Y582969D01*
X1165997Y586955D01*
X1168483Y586955D01*
X1168483Y583933D02*
X1165997Y583933D01*
X1165997Y584897D02*
X1168483Y584897D01*
X1168483Y585861D02*
X1165997Y585861D01*
X1165997Y586825D02*
X1168483Y586825D01*
X1160283Y586955D02*
X1160283Y582969D01*
X1157797Y582969D01*
X1157797Y586955D01*
X1160283Y586955D01*
X1160283Y583933D02*
X1157797Y583933D01*
X1157797Y584897D02*
X1160283Y584897D01*
X1160283Y585861D02*
X1157797Y585861D01*
X1157797Y586825D02*
X1160283Y586825D01*
X1152083Y586955D02*
X1152083Y582969D01*
X1149597Y582969D01*
X1149597Y586955D01*
X1152083Y586955D01*
X1152083Y583933D02*
X1149597Y583933D01*
X1149597Y584897D02*
X1152083Y584897D01*
X1152083Y585861D02*
X1149597Y585861D01*
X1149597Y586825D02*
X1152083Y586825D01*
X1143883Y586955D02*
X1143883Y582969D01*
X1141397Y582969D01*
X1141397Y586955D01*
X1143883Y586955D01*
X1143883Y583933D02*
X1141397Y583933D01*
X1141397Y584897D02*
X1143883Y584897D01*
X1143883Y585861D02*
X1141397Y585861D01*
X1141397Y586825D02*
X1143883Y586825D01*
X1143883Y596469D02*
X1143883Y600455D01*
X1143883Y596469D02*
X1141397Y596469D01*
X1141397Y600455D01*
X1143883Y600455D01*
X1143883Y597433D02*
X1141397Y597433D01*
X1141397Y598397D02*
X1143883Y598397D01*
X1143883Y599361D02*
X1141397Y599361D01*
X1141397Y600325D02*
X1143883Y600325D01*
X1152083Y600455D02*
X1152083Y596469D01*
X1149597Y596469D01*
X1149597Y600455D01*
X1152083Y600455D01*
X1152083Y597433D02*
X1149597Y597433D01*
X1149597Y598397D02*
X1152083Y598397D01*
X1152083Y599361D02*
X1149597Y599361D01*
X1149597Y600325D02*
X1152083Y600325D01*
X1160283Y600455D02*
X1160283Y596469D01*
X1157797Y596469D01*
X1157797Y600455D01*
X1160283Y600455D01*
X1160283Y597433D02*
X1157797Y597433D01*
X1157797Y598397D02*
X1160283Y598397D01*
X1160283Y599361D02*
X1157797Y599361D01*
X1157797Y600325D02*
X1160283Y600325D01*
X1168483Y600455D02*
X1168483Y596469D01*
X1165997Y596469D01*
X1165997Y600455D01*
X1168483Y600455D01*
X1168483Y597433D02*
X1165997Y597433D01*
X1165997Y598397D02*
X1168483Y598397D01*
X1168483Y599361D02*
X1165997Y599361D01*
X1165997Y600325D02*
X1168483Y600325D01*
X1176683Y600455D02*
X1176683Y596469D01*
X1174197Y596469D01*
X1174197Y600455D01*
X1176683Y600455D01*
X1176683Y597433D02*
X1174197Y597433D01*
X1174197Y598397D02*
X1176683Y598397D01*
X1176683Y599361D02*
X1174197Y599361D01*
X1174197Y600325D02*
X1176683Y600325D01*
X1184883Y600455D02*
X1184883Y596469D01*
X1182397Y596469D01*
X1182397Y600455D01*
X1184883Y600455D01*
X1184883Y597433D02*
X1182397Y597433D01*
X1182397Y598397D02*
X1184883Y598397D01*
X1184883Y599361D02*
X1182397Y599361D01*
X1182397Y600325D02*
X1184883Y600325D01*
D11*
X1272794Y604520D03*
D10*
X1443963Y586955D02*
X1443963Y582969D01*
X1441477Y582969D01*
X1441477Y586955D01*
X1443963Y586955D01*
X1443963Y583933D02*
X1441477Y583933D01*
X1441477Y584897D02*
X1443963Y584897D01*
X1443963Y585861D02*
X1441477Y585861D01*
X1441477Y586825D02*
X1443963Y586825D01*
X1435763Y586955D02*
X1435763Y582969D01*
X1433277Y582969D01*
X1433277Y586955D01*
X1435763Y586955D01*
X1435763Y583933D02*
X1433277Y583933D01*
X1433277Y584897D02*
X1435763Y584897D01*
X1435763Y585861D02*
X1433277Y585861D01*
X1433277Y586825D02*
X1435763Y586825D01*
X1427563Y586955D02*
X1427563Y582969D01*
X1425077Y582969D01*
X1425077Y586955D01*
X1427563Y586955D01*
X1427563Y583933D02*
X1425077Y583933D01*
X1425077Y584897D02*
X1427563Y584897D01*
X1427563Y585861D02*
X1425077Y585861D01*
X1425077Y586825D02*
X1427563Y586825D01*
X1419363Y586955D02*
X1419363Y582969D01*
X1416877Y582969D01*
X1416877Y586955D01*
X1419363Y586955D01*
X1419363Y583933D02*
X1416877Y583933D01*
X1416877Y584897D02*
X1419363Y584897D01*
X1419363Y585861D02*
X1416877Y585861D01*
X1416877Y586825D02*
X1419363Y586825D01*
X1411163Y586955D02*
X1411163Y582969D01*
X1408677Y582969D01*
X1408677Y586955D01*
X1411163Y586955D01*
X1411163Y583933D02*
X1408677Y583933D01*
X1408677Y584897D02*
X1411163Y584897D01*
X1411163Y585861D02*
X1408677Y585861D01*
X1408677Y586825D02*
X1411163Y586825D01*
X1402963Y586955D02*
X1402963Y582969D01*
X1400477Y582969D01*
X1400477Y586955D01*
X1402963Y586955D01*
X1402963Y583933D02*
X1400477Y583933D01*
X1400477Y584897D02*
X1402963Y584897D01*
X1402963Y585861D02*
X1400477Y585861D01*
X1400477Y586825D02*
X1402963Y586825D01*
X1402963Y596469D02*
X1402963Y600455D01*
X1402963Y596469D02*
X1400477Y596469D01*
X1400477Y600455D01*
X1402963Y600455D01*
X1402963Y597433D02*
X1400477Y597433D01*
X1400477Y598397D02*
X1402963Y598397D01*
X1402963Y599361D02*
X1400477Y599361D01*
X1400477Y600325D02*
X1402963Y600325D01*
X1411163Y600455D02*
X1411163Y596469D01*
X1408677Y596469D01*
X1408677Y600455D01*
X1411163Y600455D01*
X1411163Y597433D02*
X1408677Y597433D01*
X1408677Y598397D02*
X1411163Y598397D01*
X1411163Y599361D02*
X1408677Y599361D01*
X1408677Y600325D02*
X1411163Y600325D01*
X1419363Y600455D02*
X1419363Y596469D01*
X1416877Y596469D01*
X1416877Y600455D01*
X1419363Y600455D01*
X1419363Y597433D02*
X1416877Y597433D01*
X1416877Y598397D02*
X1419363Y598397D01*
X1419363Y599361D02*
X1416877Y599361D01*
X1416877Y600325D02*
X1419363Y600325D01*
X1427563Y600455D02*
X1427563Y596469D01*
X1425077Y596469D01*
X1425077Y600455D01*
X1427563Y600455D01*
X1427563Y597433D02*
X1425077Y597433D01*
X1425077Y598397D02*
X1427563Y598397D01*
X1427563Y599361D02*
X1425077Y599361D01*
X1425077Y600325D02*
X1427563Y600325D01*
X1435763Y600455D02*
X1435763Y596469D01*
X1433277Y596469D01*
X1433277Y600455D01*
X1435763Y600455D01*
X1435763Y597433D02*
X1433277Y597433D01*
X1433277Y598397D02*
X1435763Y598397D01*
X1435763Y599361D02*
X1433277Y599361D01*
X1433277Y600325D02*
X1435763Y600325D01*
X1443963Y600455D02*
X1443963Y596469D01*
X1441477Y596469D01*
X1441477Y600455D01*
X1443963Y600455D01*
X1443963Y597433D02*
X1441477Y597433D01*
X1441477Y598397D02*
X1443963Y598397D01*
X1443963Y599361D02*
X1441477Y599361D01*
X1441477Y600325D02*
X1443963Y600325D01*
D11*
X1531874Y604520D03*
D10*
X148563Y715049D02*
X148563Y719035D01*
X148563Y715049D02*
X146077Y715049D01*
X146077Y719035D01*
X148563Y719035D01*
X148563Y716013D02*
X146077Y716013D01*
X146077Y716977D02*
X148563Y716977D01*
X148563Y717941D02*
X146077Y717941D01*
X146077Y718905D02*
X148563Y718905D01*
X140363Y719035D02*
X140363Y715049D01*
X137877Y715049D01*
X137877Y719035D01*
X140363Y719035D01*
X140363Y716013D02*
X137877Y716013D01*
X137877Y716977D02*
X140363Y716977D01*
X140363Y717941D02*
X137877Y717941D01*
X137877Y718905D02*
X140363Y718905D01*
X132163Y719035D02*
X132163Y715049D01*
X129677Y715049D01*
X129677Y719035D01*
X132163Y719035D01*
X132163Y716013D02*
X129677Y716013D01*
X129677Y716977D02*
X132163Y716977D01*
X132163Y717941D02*
X129677Y717941D01*
X129677Y718905D02*
X132163Y718905D01*
X123963Y719035D02*
X123963Y715049D01*
X121477Y715049D01*
X121477Y719035D01*
X123963Y719035D01*
X123963Y716013D02*
X121477Y716013D01*
X121477Y716977D02*
X123963Y716977D01*
X123963Y717941D02*
X121477Y717941D01*
X121477Y718905D02*
X123963Y718905D01*
X115763Y719035D02*
X115763Y715049D01*
X113277Y715049D01*
X113277Y719035D01*
X115763Y719035D01*
X115763Y716013D02*
X113277Y716013D01*
X113277Y716977D02*
X115763Y716977D01*
X115763Y717941D02*
X113277Y717941D01*
X113277Y718905D02*
X115763Y718905D01*
X107563Y719035D02*
X107563Y715049D01*
X105077Y715049D01*
X105077Y719035D01*
X107563Y719035D01*
X107563Y716013D02*
X105077Y716013D01*
X105077Y716977D02*
X107563Y716977D01*
X107563Y717941D02*
X105077Y717941D01*
X105077Y718905D02*
X107563Y718905D01*
X107563Y728549D02*
X107563Y732535D01*
X107563Y728549D02*
X105077Y728549D01*
X105077Y732535D01*
X107563Y732535D01*
X107563Y729513D02*
X105077Y729513D01*
X105077Y730477D02*
X107563Y730477D01*
X107563Y731441D02*
X105077Y731441D01*
X105077Y732405D02*
X107563Y732405D01*
X115763Y732535D02*
X115763Y728549D01*
X113277Y728549D01*
X113277Y732535D01*
X115763Y732535D01*
X115763Y729513D02*
X113277Y729513D01*
X113277Y730477D02*
X115763Y730477D01*
X115763Y731441D02*
X113277Y731441D01*
X113277Y732405D02*
X115763Y732405D01*
X123963Y732535D02*
X123963Y728549D01*
X121477Y728549D01*
X121477Y732535D01*
X123963Y732535D01*
X123963Y729513D02*
X121477Y729513D01*
X121477Y730477D02*
X123963Y730477D01*
X123963Y731441D02*
X121477Y731441D01*
X121477Y732405D02*
X123963Y732405D01*
X132163Y732535D02*
X132163Y728549D01*
X129677Y728549D01*
X129677Y732535D01*
X132163Y732535D01*
X132163Y729513D02*
X129677Y729513D01*
X129677Y730477D02*
X132163Y730477D01*
X132163Y731441D02*
X129677Y731441D01*
X129677Y732405D02*
X132163Y732405D01*
X140363Y732535D02*
X140363Y728549D01*
X137877Y728549D01*
X137877Y732535D01*
X140363Y732535D01*
X140363Y729513D02*
X137877Y729513D01*
X137877Y730477D02*
X140363Y730477D01*
X140363Y731441D02*
X137877Y731441D01*
X137877Y732405D02*
X140363Y732405D01*
X148563Y732535D02*
X148563Y728549D01*
X146077Y728549D01*
X146077Y732535D01*
X148563Y732535D01*
X148563Y729513D02*
X146077Y729513D01*
X146077Y730477D02*
X148563Y730477D01*
X148563Y731441D02*
X146077Y731441D01*
X146077Y732405D02*
X148563Y732405D01*
D11*
X236474Y736600D03*
D10*
X407643Y719035D02*
X407643Y715049D01*
X405157Y715049D01*
X405157Y719035D01*
X407643Y719035D01*
X407643Y716013D02*
X405157Y716013D01*
X405157Y716977D02*
X407643Y716977D01*
X407643Y717941D02*
X405157Y717941D01*
X405157Y718905D02*
X407643Y718905D01*
X399443Y719035D02*
X399443Y715049D01*
X396957Y715049D01*
X396957Y719035D01*
X399443Y719035D01*
X399443Y716013D02*
X396957Y716013D01*
X396957Y716977D02*
X399443Y716977D01*
X399443Y717941D02*
X396957Y717941D01*
X396957Y718905D02*
X399443Y718905D01*
X391243Y719035D02*
X391243Y715049D01*
X388757Y715049D01*
X388757Y719035D01*
X391243Y719035D01*
X391243Y716013D02*
X388757Y716013D01*
X388757Y716977D02*
X391243Y716977D01*
X391243Y717941D02*
X388757Y717941D01*
X388757Y718905D02*
X391243Y718905D01*
X383043Y719035D02*
X383043Y715049D01*
X380557Y715049D01*
X380557Y719035D01*
X383043Y719035D01*
X383043Y716013D02*
X380557Y716013D01*
X380557Y716977D02*
X383043Y716977D01*
X383043Y717941D02*
X380557Y717941D01*
X380557Y718905D02*
X383043Y718905D01*
X374843Y719035D02*
X374843Y715049D01*
X372357Y715049D01*
X372357Y719035D01*
X374843Y719035D01*
X374843Y716013D02*
X372357Y716013D01*
X372357Y716977D02*
X374843Y716977D01*
X374843Y717941D02*
X372357Y717941D01*
X372357Y718905D02*
X374843Y718905D01*
X366643Y719035D02*
X366643Y715049D01*
X364157Y715049D01*
X364157Y719035D01*
X366643Y719035D01*
X366643Y716013D02*
X364157Y716013D01*
X364157Y716977D02*
X366643Y716977D01*
X366643Y717941D02*
X364157Y717941D01*
X364157Y718905D02*
X366643Y718905D01*
X366643Y728549D02*
X366643Y732535D01*
X366643Y728549D02*
X364157Y728549D01*
X364157Y732535D01*
X366643Y732535D01*
X366643Y729513D02*
X364157Y729513D01*
X364157Y730477D02*
X366643Y730477D01*
X366643Y731441D02*
X364157Y731441D01*
X364157Y732405D02*
X366643Y732405D01*
X374843Y732535D02*
X374843Y728549D01*
X372357Y728549D01*
X372357Y732535D01*
X374843Y732535D01*
X374843Y729513D02*
X372357Y729513D01*
X372357Y730477D02*
X374843Y730477D01*
X374843Y731441D02*
X372357Y731441D01*
X372357Y732405D02*
X374843Y732405D01*
X383043Y732535D02*
X383043Y728549D01*
X380557Y728549D01*
X380557Y732535D01*
X383043Y732535D01*
X383043Y729513D02*
X380557Y729513D01*
X380557Y730477D02*
X383043Y730477D01*
X383043Y731441D02*
X380557Y731441D01*
X380557Y732405D02*
X383043Y732405D01*
X391243Y732535D02*
X391243Y728549D01*
X388757Y728549D01*
X388757Y732535D01*
X391243Y732535D01*
X391243Y729513D02*
X388757Y729513D01*
X388757Y730477D02*
X391243Y730477D01*
X391243Y731441D02*
X388757Y731441D01*
X388757Y732405D02*
X391243Y732405D01*
X399443Y732535D02*
X399443Y728549D01*
X396957Y728549D01*
X396957Y732535D01*
X399443Y732535D01*
X399443Y729513D02*
X396957Y729513D01*
X396957Y730477D02*
X399443Y730477D01*
X399443Y731441D02*
X396957Y731441D01*
X396957Y732405D02*
X399443Y732405D01*
X407643Y732535D02*
X407643Y728549D01*
X405157Y728549D01*
X405157Y732535D01*
X407643Y732535D01*
X407643Y729513D02*
X405157Y729513D01*
X405157Y730477D02*
X407643Y730477D01*
X407643Y731441D02*
X405157Y731441D01*
X405157Y732405D02*
X407643Y732405D01*
D11*
X495554Y736600D03*
D10*
X666723Y719035D02*
X666723Y715049D01*
X664237Y715049D01*
X664237Y719035D01*
X666723Y719035D01*
X666723Y716013D02*
X664237Y716013D01*
X664237Y716977D02*
X666723Y716977D01*
X666723Y717941D02*
X664237Y717941D01*
X664237Y718905D02*
X666723Y718905D01*
X658523Y719035D02*
X658523Y715049D01*
X656037Y715049D01*
X656037Y719035D01*
X658523Y719035D01*
X658523Y716013D02*
X656037Y716013D01*
X656037Y716977D02*
X658523Y716977D01*
X658523Y717941D02*
X656037Y717941D01*
X656037Y718905D02*
X658523Y718905D01*
X650323Y719035D02*
X650323Y715049D01*
X647837Y715049D01*
X647837Y719035D01*
X650323Y719035D01*
X650323Y716013D02*
X647837Y716013D01*
X647837Y716977D02*
X650323Y716977D01*
X650323Y717941D02*
X647837Y717941D01*
X647837Y718905D02*
X650323Y718905D01*
X642123Y719035D02*
X642123Y715049D01*
X639637Y715049D01*
X639637Y719035D01*
X642123Y719035D01*
X642123Y716013D02*
X639637Y716013D01*
X639637Y716977D02*
X642123Y716977D01*
X642123Y717941D02*
X639637Y717941D01*
X639637Y718905D02*
X642123Y718905D01*
X633923Y719035D02*
X633923Y715049D01*
X631437Y715049D01*
X631437Y719035D01*
X633923Y719035D01*
X633923Y716013D02*
X631437Y716013D01*
X631437Y716977D02*
X633923Y716977D01*
X633923Y717941D02*
X631437Y717941D01*
X631437Y718905D02*
X633923Y718905D01*
X625723Y719035D02*
X625723Y715049D01*
X623237Y715049D01*
X623237Y719035D01*
X625723Y719035D01*
X625723Y716013D02*
X623237Y716013D01*
X623237Y716977D02*
X625723Y716977D01*
X625723Y717941D02*
X623237Y717941D01*
X623237Y718905D02*
X625723Y718905D01*
X625723Y728549D02*
X625723Y732535D01*
X625723Y728549D02*
X623237Y728549D01*
X623237Y732535D01*
X625723Y732535D01*
X625723Y729513D02*
X623237Y729513D01*
X623237Y730477D02*
X625723Y730477D01*
X625723Y731441D02*
X623237Y731441D01*
X623237Y732405D02*
X625723Y732405D01*
X633923Y732535D02*
X633923Y728549D01*
X631437Y728549D01*
X631437Y732535D01*
X633923Y732535D01*
X633923Y729513D02*
X631437Y729513D01*
X631437Y730477D02*
X633923Y730477D01*
X633923Y731441D02*
X631437Y731441D01*
X631437Y732405D02*
X633923Y732405D01*
X642123Y732535D02*
X642123Y728549D01*
X639637Y728549D01*
X639637Y732535D01*
X642123Y732535D01*
X642123Y729513D02*
X639637Y729513D01*
X639637Y730477D02*
X642123Y730477D01*
X642123Y731441D02*
X639637Y731441D01*
X639637Y732405D02*
X642123Y732405D01*
X650323Y732535D02*
X650323Y728549D01*
X647837Y728549D01*
X647837Y732535D01*
X650323Y732535D01*
X650323Y729513D02*
X647837Y729513D01*
X647837Y730477D02*
X650323Y730477D01*
X650323Y731441D02*
X647837Y731441D01*
X647837Y732405D02*
X650323Y732405D01*
X658523Y732535D02*
X658523Y728549D01*
X656037Y728549D01*
X656037Y732535D01*
X658523Y732535D01*
X658523Y729513D02*
X656037Y729513D01*
X656037Y730477D02*
X658523Y730477D01*
X658523Y731441D02*
X656037Y731441D01*
X656037Y732405D02*
X658523Y732405D01*
X666723Y732535D02*
X666723Y728549D01*
X664237Y728549D01*
X664237Y732535D01*
X666723Y732535D01*
X666723Y729513D02*
X664237Y729513D01*
X664237Y730477D02*
X666723Y730477D01*
X666723Y731441D02*
X664237Y731441D01*
X664237Y732405D02*
X666723Y732405D01*
D11*
X754634Y736600D03*
D10*
X925803Y719035D02*
X925803Y715049D01*
X923317Y715049D01*
X923317Y719035D01*
X925803Y719035D01*
X925803Y716013D02*
X923317Y716013D01*
X923317Y716977D02*
X925803Y716977D01*
X925803Y717941D02*
X923317Y717941D01*
X923317Y718905D02*
X925803Y718905D01*
X917603Y719035D02*
X917603Y715049D01*
X915117Y715049D01*
X915117Y719035D01*
X917603Y719035D01*
X917603Y716013D02*
X915117Y716013D01*
X915117Y716977D02*
X917603Y716977D01*
X917603Y717941D02*
X915117Y717941D01*
X915117Y718905D02*
X917603Y718905D01*
X909403Y719035D02*
X909403Y715049D01*
X906917Y715049D01*
X906917Y719035D01*
X909403Y719035D01*
X909403Y716013D02*
X906917Y716013D01*
X906917Y716977D02*
X909403Y716977D01*
X909403Y717941D02*
X906917Y717941D01*
X906917Y718905D02*
X909403Y718905D01*
X901203Y719035D02*
X901203Y715049D01*
X898717Y715049D01*
X898717Y719035D01*
X901203Y719035D01*
X901203Y716013D02*
X898717Y716013D01*
X898717Y716977D02*
X901203Y716977D01*
X901203Y717941D02*
X898717Y717941D01*
X898717Y718905D02*
X901203Y718905D01*
X893003Y719035D02*
X893003Y715049D01*
X890517Y715049D01*
X890517Y719035D01*
X893003Y719035D01*
X893003Y716013D02*
X890517Y716013D01*
X890517Y716977D02*
X893003Y716977D01*
X893003Y717941D02*
X890517Y717941D01*
X890517Y718905D02*
X893003Y718905D01*
X884803Y719035D02*
X884803Y715049D01*
X882317Y715049D01*
X882317Y719035D01*
X884803Y719035D01*
X884803Y716013D02*
X882317Y716013D01*
X882317Y716977D02*
X884803Y716977D01*
X884803Y717941D02*
X882317Y717941D01*
X882317Y718905D02*
X884803Y718905D01*
X884803Y728549D02*
X884803Y732535D01*
X884803Y728549D02*
X882317Y728549D01*
X882317Y732535D01*
X884803Y732535D01*
X884803Y729513D02*
X882317Y729513D01*
X882317Y730477D02*
X884803Y730477D01*
X884803Y731441D02*
X882317Y731441D01*
X882317Y732405D02*
X884803Y732405D01*
X893003Y732535D02*
X893003Y728549D01*
X890517Y728549D01*
X890517Y732535D01*
X893003Y732535D01*
X893003Y729513D02*
X890517Y729513D01*
X890517Y730477D02*
X893003Y730477D01*
X893003Y731441D02*
X890517Y731441D01*
X890517Y732405D02*
X893003Y732405D01*
X901203Y732535D02*
X901203Y728549D01*
X898717Y728549D01*
X898717Y732535D01*
X901203Y732535D01*
X901203Y729513D02*
X898717Y729513D01*
X898717Y730477D02*
X901203Y730477D01*
X901203Y731441D02*
X898717Y731441D01*
X898717Y732405D02*
X901203Y732405D01*
X909403Y732535D02*
X909403Y728549D01*
X906917Y728549D01*
X906917Y732535D01*
X909403Y732535D01*
X909403Y729513D02*
X906917Y729513D01*
X906917Y730477D02*
X909403Y730477D01*
X909403Y731441D02*
X906917Y731441D01*
X906917Y732405D02*
X909403Y732405D01*
X917603Y732535D02*
X917603Y728549D01*
X915117Y728549D01*
X915117Y732535D01*
X917603Y732535D01*
X917603Y729513D02*
X915117Y729513D01*
X915117Y730477D02*
X917603Y730477D01*
X917603Y731441D02*
X915117Y731441D01*
X915117Y732405D02*
X917603Y732405D01*
X925803Y732535D02*
X925803Y728549D01*
X923317Y728549D01*
X923317Y732535D01*
X925803Y732535D01*
X925803Y729513D02*
X923317Y729513D01*
X923317Y730477D02*
X925803Y730477D01*
X925803Y731441D02*
X923317Y731441D01*
X923317Y732405D02*
X925803Y732405D01*
D11*
X1013714Y736600D03*
D10*
X1184883Y719035D02*
X1184883Y715049D01*
X1182397Y715049D01*
X1182397Y719035D01*
X1184883Y719035D01*
X1184883Y716013D02*
X1182397Y716013D01*
X1182397Y716977D02*
X1184883Y716977D01*
X1184883Y717941D02*
X1182397Y717941D01*
X1182397Y718905D02*
X1184883Y718905D01*
X1176683Y719035D02*
X1176683Y715049D01*
X1174197Y715049D01*
X1174197Y719035D01*
X1176683Y719035D01*
X1176683Y716013D02*
X1174197Y716013D01*
X1174197Y716977D02*
X1176683Y716977D01*
X1176683Y717941D02*
X1174197Y717941D01*
X1174197Y718905D02*
X1176683Y718905D01*
X1168483Y719035D02*
X1168483Y715049D01*
X1165997Y715049D01*
X1165997Y719035D01*
X1168483Y719035D01*
X1168483Y716013D02*
X1165997Y716013D01*
X1165997Y716977D02*
X1168483Y716977D01*
X1168483Y717941D02*
X1165997Y717941D01*
X1165997Y718905D02*
X1168483Y718905D01*
X1160283Y719035D02*
X1160283Y715049D01*
X1157797Y715049D01*
X1157797Y719035D01*
X1160283Y719035D01*
X1160283Y716013D02*
X1157797Y716013D01*
X1157797Y716977D02*
X1160283Y716977D01*
X1160283Y717941D02*
X1157797Y717941D01*
X1157797Y718905D02*
X1160283Y718905D01*
X1152083Y719035D02*
X1152083Y715049D01*
X1149597Y715049D01*
X1149597Y719035D01*
X1152083Y719035D01*
X1152083Y716013D02*
X1149597Y716013D01*
X1149597Y716977D02*
X1152083Y716977D01*
X1152083Y717941D02*
X1149597Y717941D01*
X1149597Y718905D02*
X1152083Y718905D01*
X1143883Y719035D02*
X1143883Y715049D01*
X1141397Y715049D01*
X1141397Y719035D01*
X1143883Y719035D01*
X1143883Y716013D02*
X1141397Y716013D01*
X1141397Y716977D02*
X1143883Y716977D01*
X1143883Y717941D02*
X1141397Y717941D01*
X1141397Y718905D02*
X1143883Y718905D01*
X1143883Y728549D02*
X1143883Y732535D01*
X1143883Y728549D02*
X1141397Y728549D01*
X1141397Y732535D01*
X1143883Y732535D01*
X1143883Y729513D02*
X1141397Y729513D01*
X1141397Y730477D02*
X1143883Y730477D01*
X1143883Y731441D02*
X1141397Y731441D01*
X1141397Y732405D02*
X1143883Y732405D01*
X1152083Y732535D02*
X1152083Y728549D01*
X1149597Y728549D01*
X1149597Y732535D01*
X1152083Y732535D01*
X1152083Y729513D02*
X1149597Y729513D01*
X1149597Y730477D02*
X1152083Y730477D01*
X1152083Y731441D02*
X1149597Y731441D01*
X1149597Y732405D02*
X1152083Y732405D01*
X1160283Y732535D02*
X1160283Y728549D01*
X1157797Y728549D01*
X1157797Y732535D01*
X1160283Y732535D01*
X1160283Y729513D02*
X1157797Y729513D01*
X1157797Y730477D02*
X1160283Y730477D01*
X1160283Y731441D02*
X1157797Y731441D01*
X1157797Y732405D02*
X1160283Y732405D01*
X1168483Y732535D02*
X1168483Y728549D01*
X1165997Y728549D01*
X1165997Y732535D01*
X1168483Y732535D01*
X1168483Y729513D02*
X1165997Y729513D01*
X1165997Y730477D02*
X1168483Y730477D01*
X1168483Y731441D02*
X1165997Y731441D01*
X1165997Y732405D02*
X1168483Y732405D01*
X1176683Y732535D02*
X1176683Y728549D01*
X1174197Y728549D01*
X1174197Y732535D01*
X1176683Y732535D01*
X1176683Y729513D02*
X1174197Y729513D01*
X1174197Y730477D02*
X1176683Y730477D01*
X1176683Y731441D02*
X1174197Y731441D01*
X1174197Y732405D02*
X1176683Y732405D01*
X1184883Y732535D02*
X1184883Y728549D01*
X1182397Y728549D01*
X1182397Y732535D01*
X1184883Y732535D01*
X1184883Y729513D02*
X1182397Y729513D01*
X1182397Y730477D02*
X1184883Y730477D01*
X1184883Y731441D02*
X1182397Y731441D01*
X1182397Y732405D02*
X1184883Y732405D01*
D11*
X1272794Y736600D03*
D10*
X1443963Y719035D02*
X1443963Y715049D01*
X1441477Y715049D01*
X1441477Y719035D01*
X1443963Y719035D01*
X1443963Y716013D02*
X1441477Y716013D01*
X1441477Y716977D02*
X1443963Y716977D01*
X1443963Y717941D02*
X1441477Y717941D01*
X1441477Y718905D02*
X1443963Y718905D01*
X1435763Y719035D02*
X1435763Y715049D01*
X1433277Y715049D01*
X1433277Y719035D01*
X1435763Y719035D01*
X1435763Y716013D02*
X1433277Y716013D01*
X1433277Y716977D02*
X1435763Y716977D01*
X1435763Y717941D02*
X1433277Y717941D01*
X1433277Y718905D02*
X1435763Y718905D01*
X1427563Y719035D02*
X1427563Y715049D01*
X1425077Y715049D01*
X1425077Y719035D01*
X1427563Y719035D01*
X1427563Y716013D02*
X1425077Y716013D01*
X1425077Y716977D02*
X1427563Y716977D01*
X1427563Y717941D02*
X1425077Y717941D01*
X1425077Y718905D02*
X1427563Y718905D01*
X1419363Y719035D02*
X1419363Y715049D01*
X1416877Y715049D01*
X1416877Y719035D01*
X1419363Y719035D01*
X1419363Y716013D02*
X1416877Y716013D01*
X1416877Y716977D02*
X1419363Y716977D01*
X1419363Y717941D02*
X1416877Y717941D01*
X1416877Y718905D02*
X1419363Y718905D01*
X1411163Y719035D02*
X1411163Y715049D01*
X1408677Y715049D01*
X1408677Y719035D01*
X1411163Y719035D01*
X1411163Y716013D02*
X1408677Y716013D01*
X1408677Y716977D02*
X1411163Y716977D01*
X1411163Y717941D02*
X1408677Y717941D01*
X1408677Y718905D02*
X1411163Y718905D01*
X1402963Y719035D02*
X1402963Y715049D01*
X1400477Y715049D01*
X1400477Y719035D01*
X1402963Y719035D01*
X1402963Y716013D02*
X1400477Y716013D01*
X1400477Y716977D02*
X1402963Y716977D01*
X1402963Y717941D02*
X1400477Y717941D01*
X1400477Y718905D02*
X1402963Y718905D01*
X1402963Y728549D02*
X1402963Y732535D01*
X1402963Y728549D02*
X1400477Y728549D01*
X1400477Y732535D01*
X1402963Y732535D01*
X1402963Y729513D02*
X1400477Y729513D01*
X1400477Y730477D02*
X1402963Y730477D01*
X1402963Y731441D02*
X1400477Y731441D01*
X1400477Y732405D02*
X1402963Y732405D01*
X1411163Y732535D02*
X1411163Y728549D01*
X1408677Y728549D01*
X1408677Y732535D01*
X1411163Y732535D01*
X1411163Y729513D02*
X1408677Y729513D01*
X1408677Y730477D02*
X1411163Y730477D01*
X1411163Y731441D02*
X1408677Y731441D01*
X1408677Y732405D02*
X1411163Y732405D01*
X1419363Y732535D02*
X1419363Y728549D01*
X1416877Y728549D01*
X1416877Y732535D01*
X1419363Y732535D01*
X1419363Y729513D02*
X1416877Y729513D01*
X1416877Y730477D02*
X1419363Y730477D01*
X1419363Y731441D02*
X1416877Y731441D01*
X1416877Y732405D02*
X1419363Y732405D01*
X1427563Y732535D02*
X1427563Y728549D01*
X1425077Y728549D01*
X1425077Y732535D01*
X1427563Y732535D01*
X1427563Y729513D02*
X1425077Y729513D01*
X1425077Y730477D02*
X1427563Y730477D01*
X1427563Y731441D02*
X1425077Y731441D01*
X1425077Y732405D02*
X1427563Y732405D01*
X1435763Y732535D02*
X1435763Y728549D01*
X1433277Y728549D01*
X1433277Y732535D01*
X1435763Y732535D01*
X1435763Y729513D02*
X1433277Y729513D01*
X1433277Y730477D02*
X1435763Y730477D01*
X1435763Y731441D02*
X1433277Y731441D01*
X1433277Y732405D02*
X1435763Y732405D01*
X1443963Y732535D02*
X1443963Y728549D01*
X1441477Y728549D01*
X1441477Y732535D01*
X1443963Y732535D01*
X1443963Y729513D02*
X1441477Y729513D01*
X1441477Y730477D02*
X1443963Y730477D01*
X1443963Y731441D02*
X1441477Y731441D01*
X1441477Y732405D02*
X1443963Y732405D01*
D11*
X1531874Y736600D03*
D10*
X148563Y847129D02*
X148563Y851115D01*
X148563Y847129D02*
X146077Y847129D01*
X146077Y851115D01*
X148563Y851115D01*
X148563Y848093D02*
X146077Y848093D01*
X146077Y849057D02*
X148563Y849057D01*
X148563Y850021D02*
X146077Y850021D01*
X146077Y850985D02*
X148563Y850985D01*
X140363Y851115D02*
X140363Y847129D01*
X137877Y847129D01*
X137877Y851115D01*
X140363Y851115D01*
X140363Y848093D02*
X137877Y848093D01*
X137877Y849057D02*
X140363Y849057D01*
X140363Y850021D02*
X137877Y850021D01*
X137877Y850985D02*
X140363Y850985D01*
X132163Y851115D02*
X132163Y847129D01*
X129677Y847129D01*
X129677Y851115D01*
X132163Y851115D01*
X132163Y848093D02*
X129677Y848093D01*
X129677Y849057D02*
X132163Y849057D01*
X132163Y850021D02*
X129677Y850021D01*
X129677Y850985D02*
X132163Y850985D01*
X123963Y851115D02*
X123963Y847129D01*
X121477Y847129D01*
X121477Y851115D01*
X123963Y851115D01*
X123963Y848093D02*
X121477Y848093D01*
X121477Y849057D02*
X123963Y849057D01*
X123963Y850021D02*
X121477Y850021D01*
X121477Y850985D02*
X123963Y850985D01*
X115763Y851115D02*
X115763Y847129D01*
X113277Y847129D01*
X113277Y851115D01*
X115763Y851115D01*
X115763Y848093D02*
X113277Y848093D01*
X113277Y849057D02*
X115763Y849057D01*
X115763Y850021D02*
X113277Y850021D01*
X113277Y850985D02*
X115763Y850985D01*
X107563Y851115D02*
X107563Y847129D01*
X105077Y847129D01*
X105077Y851115D01*
X107563Y851115D01*
X107563Y848093D02*
X105077Y848093D01*
X105077Y849057D02*
X107563Y849057D01*
X107563Y850021D02*
X105077Y850021D01*
X105077Y850985D02*
X107563Y850985D01*
X107563Y860629D02*
X107563Y864615D01*
X107563Y860629D02*
X105077Y860629D01*
X105077Y864615D01*
X107563Y864615D01*
X107563Y861593D02*
X105077Y861593D01*
X105077Y862557D02*
X107563Y862557D01*
X107563Y863521D02*
X105077Y863521D01*
X105077Y864485D02*
X107563Y864485D01*
X115763Y864615D02*
X115763Y860629D01*
X113277Y860629D01*
X113277Y864615D01*
X115763Y864615D01*
X115763Y861593D02*
X113277Y861593D01*
X113277Y862557D02*
X115763Y862557D01*
X115763Y863521D02*
X113277Y863521D01*
X113277Y864485D02*
X115763Y864485D01*
X123963Y864615D02*
X123963Y860629D01*
X121477Y860629D01*
X121477Y864615D01*
X123963Y864615D01*
X123963Y861593D02*
X121477Y861593D01*
X121477Y862557D02*
X123963Y862557D01*
X123963Y863521D02*
X121477Y863521D01*
X121477Y864485D02*
X123963Y864485D01*
X132163Y864615D02*
X132163Y860629D01*
X129677Y860629D01*
X129677Y864615D01*
X132163Y864615D01*
X132163Y861593D02*
X129677Y861593D01*
X129677Y862557D02*
X132163Y862557D01*
X132163Y863521D02*
X129677Y863521D01*
X129677Y864485D02*
X132163Y864485D01*
X140363Y864615D02*
X140363Y860629D01*
X137877Y860629D01*
X137877Y864615D01*
X140363Y864615D01*
X140363Y861593D02*
X137877Y861593D01*
X137877Y862557D02*
X140363Y862557D01*
X140363Y863521D02*
X137877Y863521D01*
X137877Y864485D02*
X140363Y864485D01*
X148563Y864615D02*
X148563Y860629D01*
X146077Y860629D01*
X146077Y864615D01*
X148563Y864615D01*
X148563Y861593D02*
X146077Y861593D01*
X146077Y862557D02*
X148563Y862557D01*
X148563Y863521D02*
X146077Y863521D01*
X146077Y864485D02*
X148563Y864485D01*
D11*
X236474Y868680D03*
D10*
X407643Y851115D02*
X407643Y847129D01*
X405157Y847129D01*
X405157Y851115D01*
X407643Y851115D01*
X407643Y848093D02*
X405157Y848093D01*
X405157Y849057D02*
X407643Y849057D01*
X407643Y850021D02*
X405157Y850021D01*
X405157Y850985D02*
X407643Y850985D01*
X399443Y851115D02*
X399443Y847129D01*
X396957Y847129D01*
X396957Y851115D01*
X399443Y851115D01*
X399443Y848093D02*
X396957Y848093D01*
X396957Y849057D02*
X399443Y849057D01*
X399443Y850021D02*
X396957Y850021D01*
X396957Y850985D02*
X399443Y850985D01*
X391243Y851115D02*
X391243Y847129D01*
X388757Y847129D01*
X388757Y851115D01*
X391243Y851115D01*
X391243Y848093D02*
X388757Y848093D01*
X388757Y849057D02*
X391243Y849057D01*
X391243Y850021D02*
X388757Y850021D01*
X388757Y850985D02*
X391243Y850985D01*
X383043Y851115D02*
X383043Y847129D01*
X380557Y847129D01*
X380557Y851115D01*
X383043Y851115D01*
X383043Y848093D02*
X380557Y848093D01*
X380557Y849057D02*
X383043Y849057D01*
X383043Y850021D02*
X380557Y850021D01*
X380557Y850985D02*
X383043Y850985D01*
X374843Y851115D02*
X374843Y847129D01*
X372357Y847129D01*
X372357Y851115D01*
X374843Y851115D01*
X374843Y848093D02*
X372357Y848093D01*
X372357Y849057D02*
X374843Y849057D01*
X374843Y850021D02*
X372357Y850021D01*
X372357Y850985D02*
X374843Y850985D01*
X366643Y851115D02*
X366643Y847129D01*
X364157Y847129D01*
X364157Y851115D01*
X366643Y851115D01*
X366643Y848093D02*
X364157Y848093D01*
X364157Y849057D02*
X366643Y849057D01*
X366643Y850021D02*
X364157Y850021D01*
X364157Y850985D02*
X366643Y850985D01*
X366643Y860629D02*
X366643Y864615D01*
X366643Y860629D02*
X364157Y860629D01*
X364157Y864615D01*
X366643Y864615D01*
X366643Y861593D02*
X364157Y861593D01*
X364157Y862557D02*
X366643Y862557D01*
X366643Y863521D02*
X364157Y863521D01*
X364157Y864485D02*
X366643Y864485D01*
X374843Y864615D02*
X374843Y860629D01*
X372357Y860629D01*
X372357Y864615D01*
X374843Y864615D01*
X374843Y861593D02*
X372357Y861593D01*
X372357Y862557D02*
X374843Y862557D01*
X374843Y863521D02*
X372357Y863521D01*
X372357Y864485D02*
X374843Y864485D01*
X383043Y864615D02*
X383043Y860629D01*
X380557Y860629D01*
X380557Y864615D01*
X383043Y864615D01*
X383043Y861593D02*
X380557Y861593D01*
X380557Y862557D02*
X383043Y862557D01*
X383043Y863521D02*
X380557Y863521D01*
X380557Y864485D02*
X383043Y864485D01*
X391243Y864615D02*
X391243Y860629D01*
X388757Y860629D01*
X388757Y864615D01*
X391243Y864615D01*
X391243Y861593D02*
X388757Y861593D01*
X388757Y862557D02*
X391243Y862557D01*
X391243Y863521D02*
X388757Y863521D01*
X388757Y864485D02*
X391243Y864485D01*
X399443Y864615D02*
X399443Y860629D01*
X396957Y860629D01*
X396957Y864615D01*
X399443Y864615D01*
X399443Y861593D02*
X396957Y861593D01*
X396957Y862557D02*
X399443Y862557D01*
X399443Y863521D02*
X396957Y863521D01*
X396957Y864485D02*
X399443Y864485D01*
X407643Y864615D02*
X407643Y860629D01*
X405157Y860629D01*
X405157Y864615D01*
X407643Y864615D01*
X407643Y861593D02*
X405157Y861593D01*
X405157Y862557D02*
X407643Y862557D01*
X407643Y863521D02*
X405157Y863521D01*
X405157Y864485D02*
X407643Y864485D01*
D11*
X495554Y868680D03*
D10*
X666723Y851115D02*
X666723Y847129D01*
X664237Y847129D01*
X664237Y851115D01*
X666723Y851115D01*
X666723Y848093D02*
X664237Y848093D01*
X664237Y849057D02*
X666723Y849057D01*
X666723Y850021D02*
X664237Y850021D01*
X664237Y850985D02*
X666723Y850985D01*
X658523Y851115D02*
X658523Y847129D01*
X656037Y847129D01*
X656037Y851115D01*
X658523Y851115D01*
X658523Y848093D02*
X656037Y848093D01*
X656037Y849057D02*
X658523Y849057D01*
X658523Y850021D02*
X656037Y850021D01*
X656037Y850985D02*
X658523Y850985D01*
X650323Y851115D02*
X650323Y847129D01*
X647837Y847129D01*
X647837Y851115D01*
X650323Y851115D01*
X650323Y848093D02*
X647837Y848093D01*
X647837Y849057D02*
X650323Y849057D01*
X650323Y850021D02*
X647837Y850021D01*
X647837Y850985D02*
X650323Y850985D01*
X642123Y851115D02*
X642123Y847129D01*
X639637Y847129D01*
X639637Y851115D01*
X642123Y851115D01*
X642123Y848093D02*
X639637Y848093D01*
X639637Y849057D02*
X642123Y849057D01*
X642123Y850021D02*
X639637Y850021D01*
X639637Y850985D02*
X642123Y850985D01*
X633923Y851115D02*
X633923Y847129D01*
X631437Y847129D01*
X631437Y851115D01*
X633923Y851115D01*
X633923Y848093D02*
X631437Y848093D01*
X631437Y849057D02*
X633923Y849057D01*
X633923Y850021D02*
X631437Y850021D01*
X631437Y850985D02*
X633923Y850985D01*
X625723Y851115D02*
X625723Y847129D01*
X623237Y847129D01*
X623237Y851115D01*
X625723Y851115D01*
X625723Y848093D02*
X623237Y848093D01*
X623237Y849057D02*
X625723Y849057D01*
X625723Y850021D02*
X623237Y850021D01*
X623237Y850985D02*
X625723Y850985D01*
X625723Y860629D02*
X625723Y864615D01*
X625723Y860629D02*
X623237Y860629D01*
X623237Y864615D01*
X625723Y864615D01*
X625723Y861593D02*
X623237Y861593D01*
X623237Y862557D02*
X625723Y862557D01*
X625723Y863521D02*
X623237Y863521D01*
X623237Y864485D02*
X625723Y864485D01*
X633923Y864615D02*
X633923Y860629D01*
X631437Y860629D01*
X631437Y864615D01*
X633923Y864615D01*
X633923Y861593D02*
X631437Y861593D01*
X631437Y862557D02*
X633923Y862557D01*
X633923Y863521D02*
X631437Y863521D01*
X631437Y864485D02*
X633923Y864485D01*
X642123Y864615D02*
X642123Y860629D01*
X639637Y860629D01*
X639637Y864615D01*
X642123Y864615D01*
X642123Y861593D02*
X639637Y861593D01*
X639637Y862557D02*
X642123Y862557D01*
X642123Y863521D02*
X639637Y863521D01*
X639637Y864485D02*
X642123Y864485D01*
X650323Y864615D02*
X650323Y860629D01*
X647837Y860629D01*
X647837Y864615D01*
X650323Y864615D01*
X650323Y861593D02*
X647837Y861593D01*
X647837Y862557D02*
X650323Y862557D01*
X650323Y863521D02*
X647837Y863521D01*
X647837Y864485D02*
X650323Y864485D01*
X658523Y864615D02*
X658523Y860629D01*
X656037Y860629D01*
X656037Y864615D01*
X658523Y864615D01*
X658523Y861593D02*
X656037Y861593D01*
X656037Y862557D02*
X658523Y862557D01*
X658523Y863521D02*
X656037Y863521D01*
X656037Y864485D02*
X658523Y864485D01*
X666723Y864615D02*
X666723Y860629D01*
X664237Y860629D01*
X664237Y864615D01*
X666723Y864615D01*
X666723Y861593D02*
X664237Y861593D01*
X664237Y862557D02*
X666723Y862557D01*
X666723Y863521D02*
X664237Y863521D01*
X664237Y864485D02*
X666723Y864485D01*
D11*
X754634Y868680D03*
D10*
X925803Y851115D02*
X925803Y847129D01*
X923317Y847129D01*
X923317Y851115D01*
X925803Y851115D01*
X925803Y848093D02*
X923317Y848093D01*
X923317Y849057D02*
X925803Y849057D01*
X925803Y850021D02*
X923317Y850021D01*
X923317Y850985D02*
X925803Y850985D01*
X917603Y851115D02*
X917603Y847129D01*
X915117Y847129D01*
X915117Y851115D01*
X917603Y851115D01*
X917603Y848093D02*
X915117Y848093D01*
X915117Y849057D02*
X917603Y849057D01*
X917603Y850021D02*
X915117Y850021D01*
X915117Y850985D02*
X917603Y850985D01*
X909403Y851115D02*
X909403Y847129D01*
X906917Y847129D01*
X906917Y851115D01*
X909403Y851115D01*
X909403Y848093D02*
X906917Y848093D01*
X906917Y849057D02*
X909403Y849057D01*
X909403Y850021D02*
X906917Y850021D01*
X906917Y850985D02*
X909403Y850985D01*
X901203Y851115D02*
X901203Y847129D01*
X898717Y847129D01*
X898717Y851115D01*
X901203Y851115D01*
X901203Y848093D02*
X898717Y848093D01*
X898717Y849057D02*
X901203Y849057D01*
X901203Y850021D02*
X898717Y850021D01*
X898717Y850985D02*
X901203Y850985D01*
X893003Y851115D02*
X893003Y847129D01*
X890517Y847129D01*
X890517Y851115D01*
X893003Y851115D01*
X893003Y848093D02*
X890517Y848093D01*
X890517Y849057D02*
X893003Y849057D01*
X893003Y850021D02*
X890517Y850021D01*
X890517Y850985D02*
X893003Y850985D01*
X884803Y851115D02*
X884803Y847129D01*
X882317Y847129D01*
X882317Y851115D01*
X884803Y851115D01*
X884803Y848093D02*
X882317Y848093D01*
X882317Y849057D02*
X884803Y849057D01*
X884803Y850021D02*
X882317Y850021D01*
X882317Y850985D02*
X884803Y850985D01*
X884803Y860629D02*
X884803Y864615D01*
X884803Y860629D02*
X882317Y860629D01*
X882317Y864615D01*
X884803Y864615D01*
X884803Y861593D02*
X882317Y861593D01*
X882317Y862557D02*
X884803Y862557D01*
X884803Y863521D02*
X882317Y863521D01*
X882317Y864485D02*
X884803Y864485D01*
X893003Y864615D02*
X893003Y860629D01*
X890517Y860629D01*
X890517Y864615D01*
X893003Y864615D01*
X893003Y861593D02*
X890517Y861593D01*
X890517Y862557D02*
X893003Y862557D01*
X893003Y863521D02*
X890517Y863521D01*
X890517Y864485D02*
X893003Y864485D01*
X901203Y864615D02*
X901203Y860629D01*
X898717Y860629D01*
X898717Y864615D01*
X901203Y864615D01*
X901203Y861593D02*
X898717Y861593D01*
X898717Y862557D02*
X901203Y862557D01*
X901203Y863521D02*
X898717Y863521D01*
X898717Y864485D02*
X901203Y864485D01*
X909403Y864615D02*
X909403Y860629D01*
X906917Y860629D01*
X906917Y864615D01*
X909403Y864615D01*
X909403Y861593D02*
X906917Y861593D01*
X906917Y862557D02*
X909403Y862557D01*
X909403Y863521D02*
X906917Y863521D01*
X906917Y864485D02*
X909403Y864485D01*
X917603Y864615D02*
X917603Y860629D01*
X915117Y860629D01*
X915117Y864615D01*
X917603Y864615D01*
X917603Y861593D02*
X915117Y861593D01*
X915117Y862557D02*
X917603Y862557D01*
X917603Y863521D02*
X915117Y863521D01*
X915117Y864485D02*
X917603Y864485D01*
X925803Y864615D02*
X925803Y860629D01*
X923317Y860629D01*
X923317Y864615D01*
X925803Y864615D01*
X925803Y861593D02*
X923317Y861593D01*
X923317Y862557D02*
X925803Y862557D01*
X925803Y863521D02*
X923317Y863521D01*
X923317Y864485D02*
X925803Y864485D01*
D11*
X1013714Y868680D03*
D10*
X1184883Y851115D02*
X1184883Y847129D01*
X1182397Y847129D01*
X1182397Y851115D01*
X1184883Y851115D01*
X1184883Y848093D02*
X1182397Y848093D01*
X1182397Y849057D02*
X1184883Y849057D01*
X1184883Y850021D02*
X1182397Y850021D01*
X1182397Y850985D02*
X1184883Y850985D01*
X1176683Y851115D02*
X1176683Y847129D01*
X1174197Y847129D01*
X1174197Y851115D01*
X1176683Y851115D01*
X1176683Y848093D02*
X1174197Y848093D01*
X1174197Y849057D02*
X1176683Y849057D01*
X1176683Y850021D02*
X1174197Y850021D01*
X1174197Y850985D02*
X1176683Y850985D01*
X1168483Y851115D02*
X1168483Y847129D01*
X1165997Y847129D01*
X1165997Y851115D01*
X1168483Y851115D01*
X1168483Y848093D02*
X1165997Y848093D01*
X1165997Y849057D02*
X1168483Y849057D01*
X1168483Y850021D02*
X1165997Y850021D01*
X1165997Y850985D02*
X1168483Y850985D01*
X1160283Y851115D02*
X1160283Y847129D01*
X1157797Y847129D01*
X1157797Y851115D01*
X1160283Y851115D01*
X1160283Y848093D02*
X1157797Y848093D01*
X1157797Y849057D02*
X1160283Y849057D01*
X1160283Y850021D02*
X1157797Y850021D01*
X1157797Y850985D02*
X1160283Y850985D01*
X1152083Y851115D02*
X1152083Y847129D01*
X1149597Y847129D01*
X1149597Y851115D01*
X1152083Y851115D01*
X1152083Y848093D02*
X1149597Y848093D01*
X1149597Y849057D02*
X1152083Y849057D01*
X1152083Y850021D02*
X1149597Y850021D01*
X1149597Y850985D02*
X1152083Y850985D01*
X1143883Y851115D02*
X1143883Y847129D01*
X1141397Y847129D01*
X1141397Y851115D01*
X1143883Y851115D01*
X1143883Y848093D02*
X1141397Y848093D01*
X1141397Y849057D02*
X1143883Y849057D01*
X1143883Y850021D02*
X1141397Y850021D01*
X1141397Y850985D02*
X1143883Y850985D01*
X1143883Y860629D02*
X1143883Y864615D01*
X1143883Y860629D02*
X1141397Y860629D01*
X1141397Y864615D01*
X1143883Y864615D01*
X1143883Y861593D02*
X1141397Y861593D01*
X1141397Y862557D02*
X1143883Y862557D01*
X1143883Y863521D02*
X1141397Y863521D01*
X1141397Y864485D02*
X1143883Y864485D01*
X1152083Y864615D02*
X1152083Y860629D01*
X1149597Y860629D01*
X1149597Y864615D01*
X1152083Y864615D01*
X1152083Y861593D02*
X1149597Y861593D01*
X1149597Y862557D02*
X1152083Y862557D01*
X1152083Y863521D02*
X1149597Y863521D01*
X1149597Y864485D02*
X1152083Y864485D01*
X1160283Y864615D02*
X1160283Y860629D01*
X1157797Y860629D01*
X1157797Y864615D01*
X1160283Y864615D01*
X1160283Y861593D02*
X1157797Y861593D01*
X1157797Y862557D02*
X1160283Y862557D01*
X1160283Y863521D02*
X1157797Y863521D01*
X1157797Y864485D02*
X1160283Y864485D01*
X1168483Y864615D02*
X1168483Y860629D01*
X1165997Y860629D01*
X1165997Y864615D01*
X1168483Y864615D01*
X1168483Y861593D02*
X1165997Y861593D01*
X1165997Y862557D02*
X1168483Y862557D01*
X1168483Y863521D02*
X1165997Y863521D01*
X1165997Y864485D02*
X1168483Y864485D01*
X1176683Y864615D02*
X1176683Y860629D01*
X1174197Y860629D01*
X1174197Y864615D01*
X1176683Y864615D01*
X1176683Y861593D02*
X1174197Y861593D01*
X1174197Y862557D02*
X1176683Y862557D01*
X1176683Y863521D02*
X1174197Y863521D01*
X1174197Y864485D02*
X1176683Y864485D01*
X1184883Y864615D02*
X1184883Y860629D01*
X1182397Y860629D01*
X1182397Y864615D01*
X1184883Y864615D01*
X1184883Y861593D02*
X1182397Y861593D01*
X1182397Y862557D02*
X1184883Y862557D01*
X1184883Y863521D02*
X1182397Y863521D01*
X1182397Y864485D02*
X1184883Y864485D01*
D11*
X1272794Y868680D03*
D10*
X1443963Y851115D02*
X1443963Y847129D01*
X1441477Y847129D01*
X1441477Y851115D01*
X1443963Y851115D01*
X1443963Y848093D02*
X1441477Y848093D01*
X1441477Y849057D02*
X1443963Y849057D01*
X1443963Y850021D02*
X1441477Y850021D01*
X1441477Y850985D02*
X1443963Y850985D01*
X1435763Y851115D02*
X1435763Y847129D01*
X1433277Y847129D01*
X1433277Y851115D01*
X1435763Y851115D01*
X1435763Y848093D02*
X1433277Y848093D01*
X1433277Y849057D02*
X1435763Y849057D01*
X1435763Y850021D02*
X1433277Y850021D01*
X1433277Y850985D02*
X1435763Y850985D01*
X1427563Y851115D02*
X1427563Y847129D01*
X1425077Y847129D01*
X1425077Y851115D01*
X1427563Y851115D01*
X1427563Y848093D02*
X1425077Y848093D01*
X1425077Y849057D02*
X1427563Y849057D01*
X1427563Y850021D02*
X1425077Y850021D01*
X1425077Y850985D02*
X1427563Y850985D01*
X1419363Y851115D02*
X1419363Y847129D01*
X1416877Y847129D01*
X1416877Y851115D01*
X1419363Y851115D01*
X1419363Y848093D02*
X1416877Y848093D01*
X1416877Y849057D02*
X1419363Y849057D01*
X1419363Y850021D02*
X1416877Y850021D01*
X1416877Y850985D02*
X1419363Y850985D01*
X1411163Y851115D02*
X1411163Y847129D01*
X1408677Y847129D01*
X1408677Y851115D01*
X1411163Y851115D01*
X1411163Y848093D02*
X1408677Y848093D01*
X1408677Y849057D02*
X1411163Y849057D01*
X1411163Y850021D02*
X1408677Y850021D01*
X1408677Y850985D02*
X1411163Y850985D01*
X1402963Y851115D02*
X1402963Y847129D01*
X1400477Y847129D01*
X1400477Y851115D01*
X1402963Y851115D01*
X1402963Y848093D02*
X1400477Y848093D01*
X1400477Y849057D02*
X1402963Y849057D01*
X1402963Y850021D02*
X1400477Y850021D01*
X1400477Y850985D02*
X1402963Y850985D01*
X1402963Y860629D02*
X1402963Y864615D01*
X1402963Y860629D02*
X1400477Y860629D01*
X1400477Y864615D01*
X1402963Y864615D01*
X1402963Y861593D02*
X1400477Y861593D01*
X1400477Y862557D02*
X1402963Y862557D01*
X1402963Y863521D02*
X1400477Y863521D01*
X1400477Y864485D02*
X1402963Y864485D01*
X1411163Y864615D02*
X1411163Y860629D01*
X1408677Y860629D01*
X1408677Y864615D01*
X1411163Y864615D01*
X1411163Y861593D02*
X1408677Y861593D01*
X1408677Y862557D02*
X1411163Y862557D01*
X1411163Y863521D02*
X1408677Y863521D01*
X1408677Y864485D02*
X1411163Y864485D01*
X1419363Y864615D02*
X1419363Y860629D01*
X1416877Y860629D01*
X1416877Y864615D01*
X1419363Y864615D01*
X1419363Y861593D02*
X1416877Y861593D01*
X1416877Y862557D02*
X1419363Y862557D01*
X1419363Y863521D02*
X1416877Y863521D01*
X1416877Y864485D02*
X1419363Y864485D01*
X1427563Y864615D02*
X1427563Y860629D01*
X1425077Y860629D01*
X1425077Y864615D01*
X1427563Y864615D01*
X1427563Y861593D02*
X1425077Y861593D01*
X1425077Y862557D02*
X1427563Y862557D01*
X1427563Y863521D02*
X1425077Y863521D01*
X1425077Y864485D02*
X1427563Y864485D01*
X1435763Y864615D02*
X1435763Y860629D01*
X1433277Y860629D01*
X1433277Y864615D01*
X1435763Y864615D01*
X1435763Y861593D02*
X1433277Y861593D01*
X1433277Y862557D02*
X1435763Y862557D01*
X1435763Y863521D02*
X1433277Y863521D01*
X1433277Y864485D02*
X1435763Y864485D01*
X1443963Y864615D02*
X1443963Y860629D01*
X1441477Y860629D01*
X1441477Y864615D01*
X1443963Y864615D01*
X1443963Y861593D02*
X1441477Y861593D01*
X1441477Y862557D02*
X1443963Y862557D01*
X1443963Y863521D02*
X1441477Y863521D01*
X1441477Y864485D02*
X1443963Y864485D01*
D11*
X1531874Y868680D03*
D10*
X148563Y979209D02*
X148563Y983195D01*
X148563Y979209D02*
X146077Y979209D01*
X146077Y983195D01*
X148563Y983195D01*
X148563Y980173D02*
X146077Y980173D01*
X146077Y981137D02*
X148563Y981137D01*
X148563Y982101D02*
X146077Y982101D01*
X146077Y983065D02*
X148563Y983065D01*
X140363Y983195D02*
X140363Y979209D01*
X137877Y979209D01*
X137877Y983195D01*
X140363Y983195D01*
X140363Y980173D02*
X137877Y980173D01*
X137877Y981137D02*
X140363Y981137D01*
X140363Y982101D02*
X137877Y982101D01*
X137877Y983065D02*
X140363Y983065D01*
X132163Y983195D02*
X132163Y979209D01*
X129677Y979209D01*
X129677Y983195D01*
X132163Y983195D01*
X132163Y980173D02*
X129677Y980173D01*
X129677Y981137D02*
X132163Y981137D01*
X132163Y982101D02*
X129677Y982101D01*
X129677Y983065D02*
X132163Y983065D01*
X123963Y983195D02*
X123963Y979209D01*
X121477Y979209D01*
X121477Y983195D01*
X123963Y983195D01*
X123963Y980173D02*
X121477Y980173D01*
X121477Y981137D02*
X123963Y981137D01*
X123963Y982101D02*
X121477Y982101D01*
X121477Y983065D02*
X123963Y983065D01*
X115763Y983195D02*
X115763Y979209D01*
X113277Y979209D01*
X113277Y983195D01*
X115763Y983195D01*
X115763Y980173D02*
X113277Y980173D01*
X113277Y981137D02*
X115763Y981137D01*
X115763Y982101D02*
X113277Y982101D01*
X113277Y983065D02*
X115763Y983065D01*
X107563Y983195D02*
X107563Y979209D01*
X105077Y979209D01*
X105077Y983195D01*
X107563Y983195D01*
X107563Y980173D02*
X105077Y980173D01*
X105077Y981137D02*
X107563Y981137D01*
X107563Y982101D02*
X105077Y982101D01*
X105077Y983065D02*
X107563Y983065D01*
X107563Y992709D02*
X107563Y996695D01*
X107563Y992709D02*
X105077Y992709D01*
X105077Y996695D01*
X107563Y996695D01*
X107563Y993673D02*
X105077Y993673D01*
X105077Y994637D02*
X107563Y994637D01*
X107563Y995601D02*
X105077Y995601D01*
X105077Y996565D02*
X107563Y996565D01*
X115763Y996695D02*
X115763Y992709D01*
X113277Y992709D01*
X113277Y996695D01*
X115763Y996695D01*
X115763Y993673D02*
X113277Y993673D01*
X113277Y994637D02*
X115763Y994637D01*
X115763Y995601D02*
X113277Y995601D01*
X113277Y996565D02*
X115763Y996565D01*
X123963Y996695D02*
X123963Y992709D01*
X121477Y992709D01*
X121477Y996695D01*
X123963Y996695D01*
X123963Y993673D02*
X121477Y993673D01*
X121477Y994637D02*
X123963Y994637D01*
X123963Y995601D02*
X121477Y995601D01*
X121477Y996565D02*
X123963Y996565D01*
X132163Y996695D02*
X132163Y992709D01*
X129677Y992709D01*
X129677Y996695D01*
X132163Y996695D01*
X132163Y993673D02*
X129677Y993673D01*
X129677Y994637D02*
X132163Y994637D01*
X132163Y995601D02*
X129677Y995601D01*
X129677Y996565D02*
X132163Y996565D01*
X140363Y996695D02*
X140363Y992709D01*
X137877Y992709D01*
X137877Y996695D01*
X140363Y996695D01*
X140363Y993673D02*
X137877Y993673D01*
X137877Y994637D02*
X140363Y994637D01*
X140363Y995601D02*
X137877Y995601D01*
X137877Y996565D02*
X140363Y996565D01*
X148563Y996695D02*
X148563Y992709D01*
X146077Y992709D01*
X146077Y996695D01*
X148563Y996695D01*
X148563Y993673D02*
X146077Y993673D01*
X146077Y994637D02*
X148563Y994637D01*
X148563Y995601D02*
X146077Y995601D01*
X146077Y996565D02*
X148563Y996565D01*
D11*
X236474Y1000760D03*
D10*
X407643Y983195D02*
X407643Y979209D01*
X405157Y979209D01*
X405157Y983195D01*
X407643Y983195D01*
X407643Y980173D02*
X405157Y980173D01*
X405157Y981137D02*
X407643Y981137D01*
X407643Y982101D02*
X405157Y982101D01*
X405157Y983065D02*
X407643Y983065D01*
X399443Y983195D02*
X399443Y979209D01*
X396957Y979209D01*
X396957Y983195D01*
X399443Y983195D01*
X399443Y980173D02*
X396957Y980173D01*
X396957Y981137D02*
X399443Y981137D01*
X399443Y982101D02*
X396957Y982101D01*
X396957Y983065D02*
X399443Y983065D01*
X391243Y983195D02*
X391243Y979209D01*
X388757Y979209D01*
X388757Y983195D01*
X391243Y983195D01*
X391243Y980173D02*
X388757Y980173D01*
X388757Y981137D02*
X391243Y981137D01*
X391243Y982101D02*
X388757Y982101D01*
X388757Y983065D02*
X391243Y983065D01*
X383043Y983195D02*
X383043Y979209D01*
X380557Y979209D01*
X380557Y983195D01*
X383043Y983195D01*
X383043Y980173D02*
X380557Y980173D01*
X380557Y981137D02*
X383043Y981137D01*
X383043Y982101D02*
X380557Y982101D01*
X380557Y983065D02*
X383043Y983065D01*
X374843Y983195D02*
X374843Y979209D01*
X372357Y979209D01*
X372357Y983195D01*
X374843Y983195D01*
X374843Y980173D02*
X372357Y980173D01*
X372357Y981137D02*
X374843Y981137D01*
X374843Y982101D02*
X372357Y982101D01*
X372357Y983065D02*
X374843Y983065D01*
X366643Y983195D02*
X366643Y979209D01*
X364157Y979209D01*
X364157Y983195D01*
X366643Y983195D01*
X366643Y980173D02*
X364157Y980173D01*
X364157Y981137D02*
X366643Y981137D01*
X366643Y982101D02*
X364157Y982101D01*
X364157Y983065D02*
X366643Y983065D01*
X366643Y992709D02*
X366643Y996695D01*
X366643Y992709D02*
X364157Y992709D01*
X364157Y996695D01*
X366643Y996695D01*
X366643Y993673D02*
X364157Y993673D01*
X364157Y994637D02*
X366643Y994637D01*
X366643Y995601D02*
X364157Y995601D01*
X364157Y996565D02*
X366643Y996565D01*
X374843Y996695D02*
X374843Y992709D01*
X372357Y992709D01*
X372357Y996695D01*
X374843Y996695D01*
X374843Y993673D02*
X372357Y993673D01*
X372357Y994637D02*
X374843Y994637D01*
X374843Y995601D02*
X372357Y995601D01*
X372357Y996565D02*
X374843Y996565D01*
X383043Y996695D02*
X383043Y992709D01*
X380557Y992709D01*
X380557Y996695D01*
X383043Y996695D01*
X383043Y993673D02*
X380557Y993673D01*
X380557Y994637D02*
X383043Y994637D01*
X383043Y995601D02*
X380557Y995601D01*
X380557Y996565D02*
X383043Y996565D01*
X391243Y996695D02*
X391243Y992709D01*
X388757Y992709D01*
X388757Y996695D01*
X391243Y996695D01*
X391243Y993673D02*
X388757Y993673D01*
X388757Y994637D02*
X391243Y994637D01*
X391243Y995601D02*
X388757Y995601D01*
X388757Y996565D02*
X391243Y996565D01*
X399443Y996695D02*
X399443Y992709D01*
X396957Y992709D01*
X396957Y996695D01*
X399443Y996695D01*
X399443Y993673D02*
X396957Y993673D01*
X396957Y994637D02*
X399443Y994637D01*
X399443Y995601D02*
X396957Y995601D01*
X396957Y996565D02*
X399443Y996565D01*
X407643Y996695D02*
X407643Y992709D01*
X405157Y992709D01*
X405157Y996695D01*
X407643Y996695D01*
X407643Y993673D02*
X405157Y993673D01*
X405157Y994637D02*
X407643Y994637D01*
X407643Y995601D02*
X405157Y995601D01*
X405157Y996565D02*
X407643Y996565D01*
D11*
X495554Y1000760D03*
D10*
X666723Y983195D02*
X666723Y979209D01*
X664237Y979209D01*
X664237Y983195D01*
X666723Y983195D01*
X666723Y980173D02*
X664237Y980173D01*
X664237Y981137D02*
X666723Y981137D01*
X666723Y982101D02*
X664237Y982101D01*
X664237Y983065D02*
X666723Y983065D01*
X658523Y983195D02*
X658523Y979209D01*
X656037Y979209D01*
X656037Y983195D01*
X658523Y983195D01*
X658523Y980173D02*
X656037Y980173D01*
X656037Y981137D02*
X658523Y981137D01*
X658523Y982101D02*
X656037Y982101D01*
X656037Y983065D02*
X658523Y983065D01*
X650323Y983195D02*
X650323Y979209D01*
X647837Y979209D01*
X647837Y983195D01*
X650323Y983195D01*
X650323Y980173D02*
X647837Y980173D01*
X647837Y981137D02*
X650323Y981137D01*
X650323Y982101D02*
X647837Y982101D01*
X647837Y983065D02*
X650323Y983065D01*
X642123Y983195D02*
X642123Y979209D01*
X639637Y979209D01*
X639637Y983195D01*
X642123Y983195D01*
X642123Y980173D02*
X639637Y980173D01*
X639637Y981137D02*
X642123Y981137D01*
X642123Y982101D02*
X639637Y982101D01*
X639637Y983065D02*
X642123Y983065D01*
X633923Y983195D02*
X633923Y979209D01*
X631437Y979209D01*
X631437Y983195D01*
X633923Y983195D01*
X633923Y980173D02*
X631437Y980173D01*
X631437Y981137D02*
X633923Y981137D01*
X633923Y982101D02*
X631437Y982101D01*
X631437Y983065D02*
X633923Y983065D01*
X625723Y983195D02*
X625723Y979209D01*
X623237Y979209D01*
X623237Y983195D01*
X625723Y983195D01*
X625723Y980173D02*
X623237Y980173D01*
X623237Y981137D02*
X625723Y981137D01*
X625723Y982101D02*
X623237Y982101D01*
X623237Y983065D02*
X625723Y983065D01*
X625723Y992709D02*
X625723Y996695D01*
X625723Y992709D02*
X623237Y992709D01*
X623237Y996695D01*
X625723Y996695D01*
X625723Y993673D02*
X623237Y993673D01*
X623237Y994637D02*
X625723Y994637D01*
X625723Y995601D02*
X623237Y995601D01*
X623237Y996565D02*
X625723Y996565D01*
X633923Y996695D02*
X633923Y992709D01*
X631437Y992709D01*
X631437Y996695D01*
X633923Y996695D01*
X633923Y993673D02*
X631437Y993673D01*
X631437Y994637D02*
X633923Y994637D01*
X633923Y995601D02*
X631437Y995601D01*
X631437Y996565D02*
X633923Y996565D01*
X642123Y996695D02*
X642123Y992709D01*
X639637Y992709D01*
X639637Y996695D01*
X642123Y996695D01*
X642123Y993673D02*
X639637Y993673D01*
X639637Y994637D02*
X642123Y994637D01*
X642123Y995601D02*
X639637Y995601D01*
X639637Y996565D02*
X642123Y996565D01*
X650323Y996695D02*
X650323Y992709D01*
X647837Y992709D01*
X647837Y996695D01*
X650323Y996695D01*
X650323Y993673D02*
X647837Y993673D01*
X647837Y994637D02*
X650323Y994637D01*
X650323Y995601D02*
X647837Y995601D01*
X647837Y996565D02*
X650323Y996565D01*
X658523Y996695D02*
X658523Y992709D01*
X656037Y992709D01*
X656037Y996695D01*
X658523Y996695D01*
X658523Y993673D02*
X656037Y993673D01*
X656037Y994637D02*
X658523Y994637D01*
X658523Y995601D02*
X656037Y995601D01*
X656037Y996565D02*
X658523Y996565D01*
X666723Y996695D02*
X666723Y992709D01*
X664237Y992709D01*
X664237Y996695D01*
X666723Y996695D01*
X666723Y993673D02*
X664237Y993673D01*
X664237Y994637D02*
X666723Y994637D01*
X666723Y995601D02*
X664237Y995601D01*
X664237Y996565D02*
X666723Y996565D01*
D11*
X754634Y1000760D03*
D10*
X925803Y983195D02*
X925803Y979209D01*
X923317Y979209D01*
X923317Y983195D01*
X925803Y983195D01*
X925803Y980173D02*
X923317Y980173D01*
X923317Y981137D02*
X925803Y981137D01*
X925803Y982101D02*
X923317Y982101D01*
X923317Y983065D02*
X925803Y983065D01*
X917603Y983195D02*
X917603Y979209D01*
X915117Y979209D01*
X915117Y983195D01*
X917603Y983195D01*
X917603Y980173D02*
X915117Y980173D01*
X915117Y981137D02*
X917603Y981137D01*
X917603Y982101D02*
X915117Y982101D01*
X915117Y983065D02*
X917603Y983065D01*
X909403Y983195D02*
X909403Y979209D01*
X906917Y979209D01*
X906917Y983195D01*
X909403Y983195D01*
X909403Y980173D02*
X906917Y980173D01*
X906917Y981137D02*
X909403Y981137D01*
X909403Y982101D02*
X906917Y982101D01*
X906917Y983065D02*
X909403Y983065D01*
X901203Y983195D02*
X901203Y979209D01*
X898717Y979209D01*
X898717Y983195D01*
X901203Y983195D01*
X901203Y980173D02*
X898717Y980173D01*
X898717Y981137D02*
X901203Y981137D01*
X901203Y982101D02*
X898717Y982101D01*
X898717Y983065D02*
X901203Y983065D01*
X893003Y983195D02*
X893003Y979209D01*
X890517Y979209D01*
X890517Y983195D01*
X893003Y983195D01*
X893003Y980173D02*
X890517Y980173D01*
X890517Y981137D02*
X893003Y981137D01*
X893003Y982101D02*
X890517Y982101D01*
X890517Y983065D02*
X893003Y983065D01*
X884803Y983195D02*
X884803Y979209D01*
X882317Y979209D01*
X882317Y983195D01*
X884803Y983195D01*
X884803Y980173D02*
X882317Y980173D01*
X882317Y981137D02*
X884803Y981137D01*
X884803Y982101D02*
X882317Y982101D01*
X882317Y983065D02*
X884803Y983065D01*
X884803Y992709D02*
X884803Y996695D01*
X884803Y992709D02*
X882317Y992709D01*
X882317Y996695D01*
X884803Y996695D01*
X884803Y993673D02*
X882317Y993673D01*
X882317Y994637D02*
X884803Y994637D01*
X884803Y995601D02*
X882317Y995601D01*
X882317Y996565D02*
X884803Y996565D01*
X893003Y996695D02*
X893003Y992709D01*
X890517Y992709D01*
X890517Y996695D01*
X893003Y996695D01*
X893003Y993673D02*
X890517Y993673D01*
X890517Y994637D02*
X893003Y994637D01*
X893003Y995601D02*
X890517Y995601D01*
X890517Y996565D02*
X893003Y996565D01*
X901203Y996695D02*
X901203Y992709D01*
X898717Y992709D01*
X898717Y996695D01*
X901203Y996695D01*
X901203Y993673D02*
X898717Y993673D01*
X898717Y994637D02*
X901203Y994637D01*
X901203Y995601D02*
X898717Y995601D01*
X898717Y996565D02*
X901203Y996565D01*
X909403Y996695D02*
X909403Y992709D01*
X906917Y992709D01*
X906917Y996695D01*
X909403Y996695D01*
X909403Y993673D02*
X906917Y993673D01*
X906917Y994637D02*
X909403Y994637D01*
X909403Y995601D02*
X906917Y995601D01*
X906917Y996565D02*
X909403Y996565D01*
X917603Y996695D02*
X917603Y992709D01*
X915117Y992709D01*
X915117Y996695D01*
X917603Y996695D01*
X917603Y993673D02*
X915117Y993673D01*
X915117Y994637D02*
X917603Y994637D01*
X917603Y995601D02*
X915117Y995601D01*
X915117Y996565D02*
X917603Y996565D01*
X925803Y996695D02*
X925803Y992709D01*
X923317Y992709D01*
X923317Y996695D01*
X925803Y996695D01*
X925803Y993673D02*
X923317Y993673D01*
X923317Y994637D02*
X925803Y994637D01*
X925803Y995601D02*
X923317Y995601D01*
X923317Y996565D02*
X925803Y996565D01*
D11*
X1013714Y1000760D03*
D10*
X1184883Y983195D02*
X1184883Y979209D01*
X1182397Y979209D01*
X1182397Y983195D01*
X1184883Y983195D01*
X1184883Y980173D02*
X1182397Y980173D01*
X1182397Y981137D02*
X1184883Y981137D01*
X1184883Y982101D02*
X1182397Y982101D01*
X1182397Y983065D02*
X1184883Y983065D01*
X1176683Y983195D02*
X1176683Y979209D01*
X1174197Y979209D01*
X1174197Y983195D01*
X1176683Y983195D01*
X1176683Y980173D02*
X1174197Y980173D01*
X1174197Y981137D02*
X1176683Y981137D01*
X1176683Y982101D02*
X1174197Y982101D01*
X1174197Y983065D02*
X1176683Y983065D01*
X1168483Y983195D02*
X1168483Y979209D01*
X1165997Y979209D01*
X1165997Y983195D01*
X1168483Y983195D01*
X1168483Y980173D02*
X1165997Y980173D01*
X1165997Y981137D02*
X1168483Y981137D01*
X1168483Y982101D02*
X1165997Y982101D01*
X1165997Y983065D02*
X1168483Y983065D01*
X1160283Y983195D02*
X1160283Y979209D01*
X1157797Y979209D01*
X1157797Y983195D01*
X1160283Y983195D01*
X1160283Y980173D02*
X1157797Y980173D01*
X1157797Y981137D02*
X1160283Y981137D01*
X1160283Y982101D02*
X1157797Y982101D01*
X1157797Y983065D02*
X1160283Y983065D01*
X1152083Y983195D02*
X1152083Y979209D01*
X1149597Y979209D01*
X1149597Y983195D01*
X1152083Y983195D01*
X1152083Y980173D02*
X1149597Y980173D01*
X1149597Y981137D02*
X1152083Y981137D01*
X1152083Y982101D02*
X1149597Y982101D01*
X1149597Y983065D02*
X1152083Y983065D01*
X1143883Y983195D02*
X1143883Y979209D01*
X1141397Y979209D01*
X1141397Y983195D01*
X1143883Y983195D01*
X1143883Y980173D02*
X1141397Y980173D01*
X1141397Y981137D02*
X1143883Y981137D01*
X1143883Y982101D02*
X1141397Y982101D01*
X1141397Y983065D02*
X1143883Y983065D01*
X1143883Y992709D02*
X1143883Y996695D01*
X1143883Y992709D02*
X1141397Y992709D01*
X1141397Y996695D01*
X1143883Y996695D01*
X1143883Y993673D02*
X1141397Y993673D01*
X1141397Y994637D02*
X1143883Y994637D01*
X1143883Y995601D02*
X1141397Y995601D01*
X1141397Y996565D02*
X1143883Y996565D01*
X1152083Y996695D02*
X1152083Y992709D01*
X1149597Y992709D01*
X1149597Y996695D01*
X1152083Y996695D01*
X1152083Y993673D02*
X1149597Y993673D01*
X1149597Y994637D02*
X1152083Y994637D01*
X1152083Y995601D02*
X1149597Y995601D01*
X1149597Y996565D02*
X1152083Y996565D01*
X1160283Y996695D02*
X1160283Y992709D01*
X1157797Y992709D01*
X1157797Y996695D01*
X1160283Y996695D01*
X1160283Y993673D02*
X1157797Y993673D01*
X1157797Y994637D02*
X1160283Y994637D01*
X1160283Y995601D02*
X1157797Y995601D01*
X1157797Y996565D02*
X1160283Y996565D01*
X1168483Y996695D02*
X1168483Y992709D01*
X1165997Y992709D01*
X1165997Y996695D01*
X1168483Y996695D01*
X1168483Y993673D02*
X1165997Y993673D01*
X1165997Y994637D02*
X1168483Y994637D01*
X1168483Y995601D02*
X1165997Y995601D01*
X1165997Y996565D02*
X1168483Y996565D01*
X1176683Y996695D02*
X1176683Y992709D01*
X1174197Y992709D01*
X1174197Y996695D01*
X1176683Y996695D01*
X1176683Y993673D02*
X1174197Y993673D01*
X1174197Y994637D02*
X1176683Y994637D01*
X1176683Y995601D02*
X1174197Y995601D01*
X1174197Y996565D02*
X1176683Y996565D01*
X1184883Y996695D02*
X1184883Y992709D01*
X1182397Y992709D01*
X1182397Y996695D01*
X1184883Y996695D01*
X1184883Y993673D02*
X1182397Y993673D01*
X1182397Y994637D02*
X1184883Y994637D01*
X1184883Y995601D02*
X1182397Y995601D01*
X1182397Y996565D02*
X1184883Y996565D01*
D11*
X1272794Y1000760D03*
D10*
X1443963Y983195D02*
X1443963Y979209D01*
X1441477Y979209D01*
X1441477Y983195D01*
X1443963Y983195D01*
X1443963Y980173D02*
X1441477Y980173D01*
X1441477Y981137D02*
X1443963Y981137D01*
X1443963Y982101D02*
X1441477Y982101D01*
X1441477Y983065D02*
X1443963Y983065D01*
X1435763Y983195D02*
X1435763Y979209D01*
X1433277Y979209D01*
X1433277Y983195D01*
X1435763Y983195D01*
X1435763Y980173D02*
X1433277Y980173D01*
X1433277Y981137D02*
X1435763Y981137D01*
X1435763Y982101D02*
X1433277Y982101D01*
X1433277Y983065D02*
X1435763Y983065D01*
X1427563Y983195D02*
X1427563Y979209D01*
X1425077Y979209D01*
X1425077Y983195D01*
X1427563Y983195D01*
X1427563Y980173D02*
X1425077Y980173D01*
X1425077Y981137D02*
X1427563Y981137D01*
X1427563Y982101D02*
X1425077Y982101D01*
X1425077Y983065D02*
X1427563Y983065D01*
X1419363Y983195D02*
X1419363Y979209D01*
X1416877Y979209D01*
X1416877Y983195D01*
X1419363Y983195D01*
X1419363Y980173D02*
X1416877Y980173D01*
X1416877Y981137D02*
X1419363Y981137D01*
X1419363Y982101D02*
X1416877Y982101D01*
X1416877Y983065D02*
X1419363Y983065D01*
X1411163Y983195D02*
X1411163Y979209D01*
X1408677Y979209D01*
X1408677Y983195D01*
X1411163Y983195D01*
X1411163Y980173D02*
X1408677Y980173D01*
X1408677Y981137D02*
X1411163Y981137D01*
X1411163Y982101D02*
X1408677Y982101D01*
X1408677Y983065D02*
X1411163Y983065D01*
X1402963Y983195D02*
X1402963Y979209D01*
X1400477Y979209D01*
X1400477Y983195D01*
X1402963Y983195D01*
X1402963Y980173D02*
X1400477Y980173D01*
X1400477Y981137D02*
X1402963Y981137D01*
X1402963Y982101D02*
X1400477Y982101D01*
X1400477Y983065D02*
X1402963Y983065D01*
X1402963Y992709D02*
X1402963Y996695D01*
X1402963Y992709D02*
X1400477Y992709D01*
X1400477Y996695D01*
X1402963Y996695D01*
X1402963Y993673D02*
X1400477Y993673D01*
X1400477Y994637D02*
X1402963Y994637D01*
X1402963Y995601D02*
X1400477Y995601D01*
X1400477Y996565D02*
X1402963Y996565D01*
X1411163Y996695D02*
X1411163Y992709D01*
X1408677Y992709D01*
X1408677Y996695D01*
X1411163Y996695D01*
X1411163Y993673D02*
X1408677Y993673D01*
X1408677Y994637D02*
X1411163Y994637D01*
X1411163Y995601D02*
X1408677Y995601D01*
X1408677Y996565D02*
X1411163Y996565D01*
X1419363Y996695D02*
X1419363Y992709D01*
X1416877Y992709D01*
X1416877Y996695D01*
X1419363Y996695D01*
X1419363Y993673D02*
X1416877Y993673D01*
X1416877Y994637D02*
X1419363Y994637D01*
X1419363Y995601D02*
X1416877Y995601D01*
X1416877Y996565D02*
X1419363Y996565D01*
X1427563Y996695D02*
X1427563Y992709D01*
X1425077Y992709D01*
X1425077Y996695D01*
X1427563Y996695D01*
X1427563Y993673D02*
X1425077Y993673D01*
X1425077Y994637D02*
X1427563Y994637D01*
X1427563Y995601D02*
X1425077Y995601D01*
X1425077Y996565D02*
X1427563Y996565D01*
X1435763Y996695D02*
X1435763Y992709D01*
X1433277Y992709D01*
X1433277Y996695D01*
X1435763Y996695D01*
X1435763Y993673D02*
X1433277Y993673D01*
X1433277Y994637D02*
X1435763Y994637D01*
X1435763Y995601D02*
X1433277Y995601D01*
X1433277Y996565D02*
X1435763Y996565D01*
X1443963Y996695D02*
X1443963Y992709D01*
X1441477Y992709D01*
X1441477Y996695D01*
X1443963Y996695D01*
X1443963Y993673D02*
X1441477Y993673D01*
X1441477Y994637D02*
X1443963Y994637D01*
X1443963Y995601D02*
X1441477Y995601D01*
X1441477Y996565D02*
X1443963Y996565D01*
D11*
X1531874Y1000760D03*
D10*
X148563Y1111289D02*
X148563Y1115275D01*
X148563Y1111289D02*
X146077Y1111289D01*
X146077Y1115275D01*
X148563Y1115275D01*
X148563Y1112253D02*
X146077Y1112253D01*
X146077Y1113217D02*
X148563Y1113217D01*
X148563Y1114181D02*
X146077Y1114181D01*
X146077Y1115145D02*
X148563Y1115145D01*
X140363Y1115275D02*
X140363Y1111289D01*
X137877Y1111289D01*
X137877Y1115275D01*
X140363Y1115275D01*
X140363Y1112253D02*
X137877Y1112253D01*
X137877Y1113217D02*
X140363Y1113217D01*
X140363Y1114181D02*
X137877Y1114181D01*
X137877Y1115145D02*
X140363Y1115145D01*
X132163Y1115275D02*
X132163Y1111289D01*
X129677Y1111289D01*
X129677Y1115275D01*
X132163Y1115275D01*
X132163Y1112253D02*
X129677Y1112253D01*
X129677Y1113217D02*
X132163Y1113217D01*
X132163Y1114181D02*
X129677Y1114181D01*
X129677Y1115145D02*
X132163Y1115145D01*
X123963Y1115275D02*
X123963Y1111289D01*
X121477Y1111289D01*
X121477Y1115275D01*
X123963Y1115275D01*
X123963Y1112253D02*
X121477Y1112253D01*
X121477Y1113217D02*
X123963Y1113217D01*
X123963Y1114181D02*
X121477Y1114181D01*
X121477Y1115145D02*
X123963Y1115145D01*
X115763Y1115275D02*
X115763Y1111289D01*
X113277Y1111289D01*
X113277Y1115275D01*
X115763Y1115275D01*
X115763Y1112253D02*
X113277Y1112253D01*
X113277Y1113217D02*
X115763Y1113217D01*
X115763Y1114181D02*
X113277Y1114181D01*
X113277Y1115145D02*
X115763Y1115145D01*
X107563Y1115275D02*
X107563Y1111289D01*
X105077Y1111289D01*
X105077Y1115275D01*
X107563Y1115275D01*
X107563Y1112253D02*
X105077Y1112253D01*
X105077Y1113217D02*
X107563Y1113217D01*
X107563Y1114181D02*
X105077Y1114181D01*
X105077Y1115145D02*
X107563Y1115145D01*
X107563Y1124789D02*
X107563Y1128775D01*
X107563Y1124789D02*
X105077Y1124789D01*
X105077Y1128775D01*
X107563Y1128775D01*
X107563Y1125753D02*
X105077Y1125753D01*
X105077Y1126717D02*
X107563Y1126717D01*
X107563Y1127681D02*
X105077Y1127681D01*
X105077Y1128645D02*
X107563Y1128645D01*
X115763Y1128775D02*
X115763Y1124789D01*
X113277Y1124789D01*
X113277Y1128775D01*
X115763Y1128775D01*
X115763Y1125753D02*
X113277Y1125753D01*
X113277Y1126717D02*
X115763Y1126717D01*
X115763Y1127681D02*
X113277Y1127681D01*
X113277Y1128645D02*
X115763Y1128645D01*
X123963Y1128775D02*
X123963Y1124789D01*
X121477Y1124789D01*
X121477Y1128775D01*
X123963Y1128775D01*
X123963Y1125753D02*
X121477Y1125753D01*
X121477Y1126717D02*
X123963Y1126717D01*
X123963Y1127681D02*
X121477Y1127681D01*
X121477Y1128645D02*
X123963Y1128645D01*
X132163Y1128775D02*
X132163Y1124789D01*
X129677Y1124789D01*
X129677Y1128775D01*
X132163Y1128775D01*
X132163Y1125753D02*
X129677Y1125753D01*
X129677Y1126717D02*
X132163Y1126717D01*
X132163Y1127681D02*
X129677Y1127681D01*
X129677Y1128645D02*
X132163Y1128645D01*
X140363Y1128775D02*
X140363Y1124789D01*
X137877Y1124789D01*
X137877Y1128775D01*
X140363Y1128775D01*
X140363Y1125753D02*
X137877Y1125753D01*
X137877Y1126717D02*
X140363Y1126717D01*
X140363Y1127681D02*
X137877Y1127681D01*
X137877Y1128645D02*
X140363Y1128645D01*
X148563Y1128775D02*
X148563Y1124789D01*
X146077Y1124789D01*
X146077Y1128775D01*
X148563Y1128775D01*
X148563Y1125753D02*
X146077Y1125753D01*
X146077Y1126717D02*
X148563Y1126717D01*
X148563Y1127681D02*
X146077Y1127681D01*
X146077Y1128645D02*
X148563Y1128645D01*
D11*
X236474Y1132840D03*
D10*
X407643Y1115275D02*
X407643Y1111289D01*
X405157Y1111289D01*
X405157Y1115275D01*
X407643Y1115275D01*
X407643Y1112253D02*
X405157Y1112253D01*
X405157Y1113217D02*
X407643Y1113217D01*
X407643Y1114181D02*
X405157Y1114181D01*
X405157Y1115145D02*
X407643Y1115145D01*
X399443Y1115275D02*
X399443Y1111289D01*
X396957Y1111289D01*
X396957Y1115275D01*
X399443Y1115275D01*
X399443Y1112253D02*
X396957Y1112253D01*
X396957Y1113217D02*
X399443Y1113217D01*
X399443Y1114181D02*
X396957Y1114181D01*
X396957Y1115145D02*
X399443Y1115145D01*
X391243Y1115275D02*
X391243Y1111289D01*
X388757Y1111289D01*
X388757Y1115275D01*
X391243Y1115275D01*
X391243Y1112253D02*
X388757Y1112253D01*
X388757Y1113217D02*
X391243Y1113217D01*
X391243Y1114181D02*
X388757Y1114181D01*
X388757Y1115145D02*
X391243Y1115145D01*
X383043Y1115275D02*
X383043Y1111289D01*
X380557Y1111289D01*
X380557Y1115275D01*
X383043Y1115275D01*
X383043Y1112253D02*
X380557Y1112253D01*
X380557Y1113217D02*
X383043Y1113217D01*
X383043Y1114181D02*
X380557Y1114181D01*
X380557Y1115145D02*
X383043Y1115145D01*
X374843Y1115275D02*
X374843Y1111289D01*
X372357Y1111289D01*
X372357Y1115275D01*
X374843Y1115275D01*
X374843Y1112253D02*
X372357Y1112253D01*
X372357Y1113217D02*
X374843Y1113217D01*
X374843Y1114181D02*
X372357Y1114181D01*
X372357Y1115145D02*
X374843Y1115145D01*
X366643Y1115275D02*
X366643Y1111289D01*
X364157Y1111289D01*
X364157Y1115275D01*
X366643Y1115275D01*
X366643Y1112253D02*
X364157Y1112253D01*
X364157Y1113217D02*
X366643Y1113217D01*
X366643Y1114181D02*
X364157Y1114181D01*
X364157Y1115145D02*
X366643Y1115145D01*
X366643Y1124789D02*
X366643Y1128775D01*
X366643Y1124789D02*
X364157Y1124789D01*
X364157Y1128775D01*
X366643Y1128775D01*
X366643Y1125753D02*
X364157Y1125753D01*
X364157Y1126717D02*
X366643Y1126717D01*
X366643Y1127681D02*
X364157Y1127681D01*
X364157Y1128645D02*
X366643Y1128645D01*
X374843Y1128775D02*
X374843Y1124789D01*
X372357Y1124789D01*
X372357Y1128775D01*
X374843Y1128775D01*
X374843Y1125753D02*
X372357Y1125753D01*
X372357Y1126717D02*
X374843Y1126717D01*
X374843Y1127681D02*
X372357Y1127681D01*
X372357Y1128645D02*
X374843Y1128645D01*
X383043Y1128775D02*
X383043Y1124789D01*
X380557Y1124789D01*
X380557Y1128775D01*
X383043Y1128775D01*
X383043Y1125753D02*
X380557Y1125753D01*
X380557Y1126717D02*
X383043Y1126717D01*
X383043Y1127681D02*
X380557Y1127681D01*
X380557Y1128645D02*
X383043Y1128645D01*
X391243Y1128775D02*
X391243Y1124789D01*
X388757Y1124789D01*
X388757Y1128775D01*
X391243Y1128775D01*
X391243Y1125753D02*
X388757Y1125753D01*
X388757Y1126717D02*
X391243Y1126717D01*
X391243Y1127681D02*
X388757Y1127681D01*
X388757Y1128645D02*
X391243Y1128645D01*
X399443Y1128775D02*
X399443Y1124789D01*
X396957Y1124789D01*
X396957Y1128775D01*
X399443Y1128775D01*
X399443Y1125753D02*
X396957Y1125753D01*
X396957Y1126717D02*
X399443Y1126717D01*
X399443Y1127681D02*
X396957Y1127681D01*
X396957Y1128645D02*
X399443Y1128645D01*
X407643Y1128775D02*
X407643Y1124789D01*
X405157Y1124789D01*
X405157Y1128775D01*
X407643Y1128775D01*
X407643Y1125753D02*
X405157Y1125753D01*
X405157Y1126717D02*
X407643Y1126717D01*
X407643Y1127681D02*
X405157Y1127681D01*
X405157Y1128645D02*
X407643Y1128645D01*
D11*
X495554Y1132840D03*
D10*
X666723Y1115275D02*
X666723Y1111289D01*
X664237Y1111289D01*
X664237Y1115275D01*
X666723Y1115275D01*
X666723Y1112253D02*
X664237Y1112253D01*
X664237Y1113217D02*
X666723Y1113217D01*
X666723Y1114181D02*
X664237Y1114181D01*
X664237Y1115145D02*
X666723Y1115145D01*
X658523Y1115275D02*
X658523Y1111289D01*
X656037Y1111289D01*
X656037Y1115275D01*
X658523Y1115275D01*
X658523Y1112253D02*
X656037Y1112253D01*
X656037Y1113217D02*
X658523Y1113217D01*
X658523Y1114181D02*
X656037Y1114181D01*
X656037Y1115145D02*
X658523Y1115145D01*
X650323Y1115275D02*
X650323Y1111289D01*
X647837Y1111289D01*
X647837Y1115275D01*
X650323Y1115275D01*
X650323Y1112253D02*
X647837Y1112253D01*
X647837Y1113217D02*
X650323Y1113217D01*
X650323Y1114181D02*
X647837Y1114181D01*
X647837Y1115145D02*
X650323Y1115145D01*
X642123Y1115275D02*
X642123Y1111289D01*
X639637Y1111289D01*
X639637Y1115275D01*
X642123Y1115275D01*
X642123Y1112253D02*
X639637Y1112253D01*
X639637Y1113217D02*
X642123Y1113217D01*
X642123Y1114181D02*
X639637Y1114181D01*
X639637Y1115145D02*
X642123Y1115145D01*
X633923Y1115275D02*
X633923Y1111289D01*
X631437Y1111289D01*
X631437Y1115275D01*
X633923Y1115275D01*
X633923Y1112253D02*
X631437Y1112253D01*
X631437Y1113217D02*
X633923Y1113217D01*
X633923Y1114181D02*
X631437Y1114181D01*
X631437Y1115145D02*
X633923Y1115145D01*
X625723Y1115275D02*
X625723Y1111289D01*
X623237Y1111289D01*
X623237Y1115275D01*
X625723Y1115275D01*
X625723Y1112253D02*
X623237Y1112253D01*
X623237Y1113217D02*
X625723Y1113217D01*
X625723Y1114181D02*
X623237Y1114181D01*
X623237Y1115145D02*
X625723Y1115145D01*
X625723Y1124789D02*
X625723Y1128775D01*
X625723Y1124789D02*
X623237Y1124789D01*
X623237Y1128775D01*
X625723Y1128775D01*
X625723Y1125753D02*
X623237Y1125753D01*
X623237Y1126717D02*
X625723Y1126717D01*
X625723Y1127681D02*
X623237Y1127681D01*
X623237Y1128645D02*
X625723Y1128645D01*
X633923Y1128775D02*
X633923Y1124789D01*
X631437Y1124789D01*
X631437Y1128775D01*
X633923Y1128775D01*
X633923Y1125753D02*
X631437Y1125753D01*
X631437Y1126717D02*
X633923Y1126717D01*
X633923Y1127681D02*
X631437Y1127681D01*
X631437Y1128645D02*
X633923Y1128645D01*
X642123Y1128775D02*
X642123Y1124789D01*
X639637Y1124789D01*
X639637Y1128775D01*
X642123Y1128775D01*
X642123Y1125753D02*
X639637Y1125753D01*
X639637Y1126717D02*
X642123Y1126717D01*
X642123Y1127681D02*
X639637Y1127681D01*
X639637Y1128645D02*
X642123Y1128645D01*
X650323Y1128775D02*
X650323Y1124789D01*
X647837Y1124789D01*
X647837Y1128775D01*
X650323Y1128775D01*
X650323Y1125753D02*
X647837Y1125753D01*
X647837Y1126717D02*
X650323Y1126717D01*
X650323Y1127681D02*
X647837Y1127681D01*
X647837Y1128645D02*
X650323Y1128645D01*
X658523Y1128775D02*
X658523Y1124789D01*
X656037Y1124789D01*
X656037Y1128775D01*
X658523Y1128775D01*
X658523Y1125753D02*
X656037Y1125753D01*
X656037Y1126717D02*
X658523Y1126717D01*
X658523Y1127681D02*
X656037Y1127681D01*
X656037Y1128645D02*
X658523Y1128645D01*
X666723Y1128775D02*
X666723Y1124789D01*
X664237Y1124789D01*
X664237Y1128775D01*
X666723Y1128775D01*
X666723Y1125753D02*
X664237Y1125753D01*
X664237Y1126717D02*
X666723Y1126717D01*
X666723Y1127681D02*
X664237Y1127681D01*
X664237Y1128645D02*
X666723Y1128645D01*
D11*
X754634Y1132840D03*
D10*
X925803Y1115275D02*
X925803Y1111289D01*
X923317Y1111289D01*
X923317Y1115275D01*
X925803Y1115275D01*
X925803Y1112253D02*
X923317Y1112253D01*
X923317Y1113217D02*
X925803Y1113217D01*
X925803Y1114181D02*
X923317Y1114181D01*
X923317Y1115145D02*
X925803Y1115145D01*
X917603Y1115275D02*
X917603Y1111289D01*
X915117Y1111289D01*
X915117Y1115275D01*
X917603Y1115275D01*
X917603Y1112253D02*
X915117Y1112253D01*
X915117Y1113217D02*
X917603Y1113217D01*
X917603Y1114181D02*
X915117Y1114181D01*
X915117Y1115145D02*
X917603Y1115145D01*
X909403Y1115275D02*
X909403Y1111289D01*
X906917Y1111289D01*
X906917Y1115275D01*
X909403Y1115275D01*
X909403Y1112253D02*
X906917Y1112253D01*
X906917Y1113217D02*
X909403Y1113217D01*
X909403Y1114181D02*
X906917Y1114181D01*
X906917Y1115145D02*
X909403Y1115145D01*
X901203Y1115275D02*
X901203Y1111289D01*
X898717Y1111289D01*
X898717Y1115275D01*
X901203Y1115275D01*
X901203Y1112253D02*
X898717Y1112253D01*
X898717Y1113217D02*
X901203Y1113217D01*
X901203Y1114181D02*
X898717Y1114181D01*
X898717Y1115145D02*
X901203Y1115145D01*
X893003Y1115275D02*
X893003Y1111289D01*
X890517Y1111289D01*
X890517Y1115275D01*
X893003Y1115275D01*
X893003Y1112253D02*
X890517Y1112253D01*
X890517Y1113217D02*
X893003Y1113217D01*
X893003Y1114181D02*
X890517Y1114181D01*
X890517Y1115145D02*
X893003Y1115145D01*
X884803Y1115275D02*
X884803Y1111289D01*
X882317Y1111289D01*
X882317Y1115275D01*
X884803Y1115275D01*
X884803Y1112253D02*
X882317Y1112253D01*
X882317Y1113217D02*
X884803Y1113217D01*
X884803Y1114181D02*
X882317Y1114181D01*
X882317Y1115145D02*
X884803Y1115145D01*
X884803Y1124789D02*
X884803Y1128775D01*
X884803Y1124789D02*
X882317Y1124789D01*
X882317Y1128775D01*
X884803Y1128775D01*
X884803Y1125753D02*
X882317Y1125753D01*
X882317Y1126717D02*
X884803Y1126717D01*
X884803Y1127681D02*
X882317Y1127681D01*
X882317Y1128645D02*
X884803Y1128645D01*
X893003Y1128775D02*
X893003Y1124789D01*
X890517Y1124789D01*
X890517Y1128775D01*
X893003Y1128775D01*
X893003Y1125753D02*
X890517Y1125753D01*
X890517Y1126717D02*
X893003Y1126717D01*
X893003Y1127681D02*
X890517Y1127681D01*
X890517Y1128645D02*
X893003Y1128645D01*
X901203Y1128775D02*
X901203Y1124789D01*
X898717Y1124789D01*
X898717Y1128775D01*
X901203Y1128775D01*
X901203Y1125753D02*
X898717Y1125753D01*
X898717Y1126717D02*
X901203Y1126717D01*
X901203Y1127681D02*
X898717Y1127681D01*
X898717Y1128645D02*
X901203Y1128645D01*
X909403Y1128775D02*
X909403Y1124789D01*
X906917Y1124789D01*
X906917Y1128775D01*
X909403Y1128775D01*
X909403Y1125753D02*
X906917Y1125753D01*
X906917Y1126717D02*
X909403Y1126717D01*
X909403Y1127681D02*
X906917Y1127681D01*
X906917Y1128645D02*
X909403Y1128645D01*
X917603Y1128775D02*
X917603Y1124789D01*
X915117Y1124789D01*
X915117Y1128775D01*
X917603Y1128775D01*
X917603Y1125753D02*
X915117Y1125753D01*
X915117Y1126717D02*
X917603Y1126717D01*
X917603Y1127681D02*
X915117Y1127681D01*
X915117Y1128645D02*
X917603Y1128645D01*
X925803Y1128775D02*
X925803Y1124789D01*
X923317Y1124789D01*
X923317Y1128775D01*
X925803Y1128775D01*
X925803Y1125753D02*
X923317Y1125753D01*
X923317Y1126717D02*
X925803Y1126717D01*
X925803Y1127681D02*
X923317Y1127681D01*
X923317Y1128645D02*
X925803Y1128645D01*
D11*
X1013714Y1132840D03*
D10*
X1184883Y1115275D02*
X1184883Y1111289D01*
X1182397Y1111289D01*
X1182397Y1115275D01*
X1184883Y1115275D01*
X1184883Y1112253D02*
X1182397Y1112253D01*
X1182397Y1113217D02*
X1184883Y1113217D01*
X1184883Y1114181D02*
X1182397Y1114181D01*
X1182397Y1115145D02*
X1184883Y1115145D01*
X1176683Y1115275D02*
X1176683Y1111289D01*
X1174197Y1111289D01*
X1174197Y1115275D01*
X1176683Y1115275D01*
X1176683Y1112253D02*
X1174197Y1112253D01*
X1174197Y1113217D02*
X1176683Y1113217D01*
X1176683Y1114181D02*
X1174197Y1114181D01*
X1174197Y1115145D02*
X1176683Y1115145D01*
X1168483Y1115275D02*
X1168483Y1111289D01*
X1165997Y1111289D01*
X1165997Y1115275D01*
X1168483Y1115275D01*
X1168483Y1112253D02*
X1165997Y1112253D01*
X1165997Y1113217D02*
X1168483Y1113217D01*
X1168483Y1114181D02*
X1165997Y1114181D01*
X1165997Y1115145D02*
X1168483Y1115145D01*
X1160283Y1115275D02*
X1160283Y1111289D01*
X1157797Y1111289D01*
X1157797Y1115275D01*
X1160283Y1115275D01*
X1160283Y1112253D02*
X1157797Y1112253D01*
X1157797Y1113217D02*
X1160283Y1113217D01*
X1160283Y1114181D02*
X1157797Y1114181D01*
X1157797Y1115145D02*
X1160283Y1115145D01*
X1152083Y1115275D02*
X1152083Y1111289D01*
X1149597Y1111289D01*
X1149597Y1115275D01*
X1152083Y1115275D01*
X1152083Y1112253D02*
X1149597Y1112253D01*
X1149597Y1113217D02*
X1152083Y1113217D01*
X1152083Y1114181D02*
X1149597Y1114181D01*
X1149597Y1115145D02*
X1152083Y1115145D01*
X1143883Y1115275D02*
X1143883Y1111289D01*
X1141397Y1111289D01*
X1141397Y1115275D01*
X1143883Y1115275D01*
X1143883Y1112253D02*
X1141397Y1112253D01*
X1141397Y1113217D02*
X1143883Y1113217D01*
X1143883Y1114181D02*
X1141397Y1114181D01*
X1141397Y1115145D02*
X1143883Y1115145D01*
X1143883Y1124789D02*
X1143883Y1128775D01*
X1143883Y1124789D02*
X1141397Y1124789D01*
X1141397Y1128775D01*
X1143883Y1128775D01*
X1143883Y1125753D02*
X1141397Y1125753D01*
X1141397Y1126717D02*
X1143883Y1126717D01*
X1143883Y1127681D02*
X1141397Y1127681D01*
X1141397Y1128645D02*
X1143883Y1128645D01*
X1152083Y1128775D02*
X1152083Y1124789D01*
X1149597Y1124789D01*
X1149597Y1128775D01*
X1152083Y1128775D01*
X1152083Y1125753D02*
X1149597Y1125753D01*
X1149597Y1126717D02*
X1152083Y1126717D01*
X1152083Y1127681D02*
X1149597Y1127681D01*
X1149597Y1128645D02*
X1152083Y1128645D01*
X1160283Y1128775D02*
X1160283Y1124789D01*
X1157797Y1124789D01*
X1157797Y1128775D01*
X1160283Y1128775D01*
X1160283Y1125753D02*
X1157797Y1125753D01*
X1157797Y1126717D02*
X1160283Y1126717D01*
X1160283Y1127681D02*
X1157797Y1127681D01*
X1157797Y1128645D02*
X1160283Y1128645D01*
X1168483Y1128775D02*
X1168483Y1124789D01*
X1165997Y1124789D01*
X1165997Y1128775D01*
X1168483Y1128775D01*
X1168483Y1125753D02*
X1165997Y1125753D01*
X1165997Y1126717D02*
X1168483Y1126717D01*
X1168483Y1127681D02*
X1165997Y1127681D01*
X1165997Y1128645D02*
X1168483Y1128645D01*
X1176683Y1128775D02*
X1176683Y1124789D01*
X1174197Y1124789D01*
X1174197Y1128775D01*
X1176683Y1128775D01*
X1176683Y1125753D02*
X1174197Y1125753D01*
X1174197Y1126717D02*
X1176683Y1126717D01*
X1176683Y1127681D02*
X1174197Y1127681D01*
X1174197Y1128645D02*
X1176683Y1128645D01*
X1184883Y1128775D02*
X1184883Y1124789D01*
X1182397Y1124789D01*
X1182397Y1128775D01*
X1184883Y1128775D01*
X1184883Y1125753D02*
X1182397Y1125753D01*
X1182397Y1126717D02*
X1184883Y1126717D01*
X1184883Y1127681D02*
X1182397Y1127681D01*
X1182397Y1128645D02*
X1184883Y1128645D01*
D11*
X1272794Y1132840D03*
D10*
X1443963Y1115275D02*
X1443963Y1111289D01*
X1441477Y1111289D01*
X1441477Y1115275D01*
X1443963Y1115275D01*
X1443963Y1112253D02*
X1441477Y1112253D01*
X1441477Y1113217D02*
X1443963Y1113217D01*
X1443963Y1114181D02*
X1441477Y1114181D01*
X1441477Y1115145D02*
X1443963Y1115145D01*
X1435763Y1115275D02*
X1435763Y1111289D01*
X1433277Y1111289D01*
X1433277Y1115275D01*
X1435763Y1115275D01*
X1435763Y1112253D02*
X1433277Y1112253D01*
X1433277Y1113217D02*
X1435763Y1113217D01*
X1435763Y1114181D02*
X1433277Y1114181D01*
X1433277Y1115145D02*
X1435763Y1115145D01*
X1427563Y1115275D02*
X1427563Y1111289D01*
X1425077Y1111289D01*
X1425077Y1115275D01*
X1427563Y1115275D01*
X1427563Y1112253D02*
X1425077Y1112253D01*
X1425077Y1113217D02*
X1427563Y1113217D01*
X1427563Y1114181D02*
X1425077Y1114181D01*
X1425077Y1115145D02*
X1427563Y1115145D01*
X1419363Y1115275D02*
X1419363Y1111289D01*
X1416877Y1111289D01*
X1416877Y1115275D01*
X1419363Y1115275D01*
X1419363Y1112253D02*
X1416877Y1112253D01*
X1416877Y1113217D02*
X1419363Y1113217D01*
X1419363Y1114181D02*
X1416877Y1114181D01*
X1416877Y1115145D02*
X1419363Y1115145D01*
X1411163Y1115275D02*
X1411163Y1111289D01*
X1408677Y1111289D01*
X1408677Y1115275D01*
X1411163Y1115275D01*
X1411163Y1112253D02*
X1408677Y1112253D01*
X1408677Y1113217D02*
X1411163Y1113217D01*
X1411163Y1114181D02*
X1408677Y1114181D01*
X1408677Y1115145D02*
X1411163Y1115145D01*
X1402963Y1115275D02*
X1402963Y1111289D01*
X1400477Y1111289D01*
X1400477Y1115275D01*
X1402963Y1115275D01*
X1402963Y1112253D02*
X1400477Y1112253D01*
X1400477Y1113217D02*
X1402963Y1113217D01*
X1402963Y1114181D02*
X1400477Y1114181D01*
X1400477Y1115145D02*
X1402963Y1115145D01*
X1402963Y1124789D02*
X1402963Y1128775D01*
X1402963Y1124789D02*
X1400477Y1124789D01*
X1400477Y1128775D01*
X1402963Y1128775D01*
X1402963Y1125753D02*
X1400477Y1125753D01*
X1400477Y1126717D02*
X1402963Y1126717D01*
X1402963Y1127681D02*
X1400477Y1127681D01*
X1400477Y1128645D02*
X1402963Y1128645D01*
X1411163Y1128775D02*
X1411163Y1124789D01*
X1408677Y1124789D01*
X1408677Y1128775D01*
X1411163Y1128775D01*
X1411163Y1125753D02*
X1408677Y1125753D01*
X1408677Y1126717D02*
X1411163Y1126717D01*
X1411163Y1127681D02*
X1408677Y1127681D01*
X1408677Y1128645D02*
X1411163Y1128645D01*
X1419363Y1128775D02*
X1419363Y1124789D01*
X1416877Y1124789D01*
X1416877Y1128775D01*
X1419363Y1128775D01*
X1419363Y1125753D02*
X1416877Y1125753D01*
X1416877Y1126717D02*
X1419363Y1126717D01*
X1419363Y1127681D02*
X1416877Y1127681D01*
X1416877Y1128645D02*
X1419363Y1128645D01*
X1427563Y1128775D02*
X1427563Y1124789D01*
X1425077Y1124789D01*
X1425077Y1128775D01*
X1427563Y1128775D01*
X1427563Y1125753D02*
X1425077Y1125753D01*
X1425077Y1126717D02*
X1427563Y1126717D01*
X1427563Y1127681D02*
X1425077Y1127681D01*
X1425077Y1128645D02*
X1427563Y1128645D01*
X1435763Y1128775D02*
X1435763Y1124789D01*
X1433277Y1124789D01*
X1433277Y1128775D01*
X1435763Y1128775D01*
X1435763Y1125753D02*
X1433277Y1125753D01*
X1433277Y1126717D02*
X1435763Y1126717D01*
X1435763Y1127681D02*
X1433277Y1127681D01*
X1433277Y1128645D02*
X1435763Y1128645D01*
X1443963Y1128775D02*
X1443963Y1124789D01*
X1441477Y1124789D01*
X1441477Y1128775D01*
X1443963Y1128775D01*
X1443963Y1125753D02*
X1441477Y1125753D01*
X1441477Y1126717D02*
X1443963Y1126717D01*
X1443963Y1127681D02*
X1441477Y1127681D01*
X1441477Y1128645D02*
X1443963Y1128645D01*
D11*
X1531874Y1132840D03*
M02*
