M48
;GenerationSoftware,Autodesk,EAGLE,9.6.2*%
;CreationDate,2022-02-23T21:40:22Z*%
FMAT,2
ICI,OFF
METRIC,TZ,000.000
T3C0.305
T2C1.016
T1C3.048
%
G90
M71
T1
X100584Y68580
X22860Y2540
X2540Y2540
X48768Y2540
X28448Y2540
X74676Y2540
X54356Y2540
X100584Y2540
X80264Y2540
X126492Y2540
X106172Y2540
X152400Y2540
X132080Y2540
X22860Y15748
X2540Y15748
X48768Y15748
X28448Y15748
X74676Y15748
X54356Y15748
X100584Y15748
X80264Y15748
X126492Y15748
X106172Y15748
X152400Y15748
X132080Y15748
X22860Y28956
X2540Y28956
X48768Y28956
X28448Y28956
X74676Y28956
X54356Y28956
X100584Y28956
X80264Y28956
X126492Y28956
X106172Y28956
X152400Y28956
X132080Y28956
X22860Y42164
X2540Y42164
X48768Y42164
X28448Y42164
X74676Y42164
X54356Y42164
X100584Y42164
X80264Y42164
X126492Y42164
X106172Y42164
X152400Y42164
X132080Y42164
X22860Y55372
X2540Y55372
X48768Y55372
X28448Y55372
X74676Y55372
X54356Y55372
X100584Y55372
X80264Y55372
X126492Y55372
X106172Y55372
X152400Y55372
X132080Y55372
X22860Y68580
X2540Y68580
X48768Y68580
X28448Y68580
X74676Y68580
X54356Y68580
X132080Y108204
X80264Y68580
X126492Y68580
X106172Y68580
X152400Y68580
X132080Y68580
X22860Y81788
X2540Y81788
X48768Y81788
X28448Y81788
X74676Y81788
X54356Y81788
X100584Y81788
X80264Y81788
X126492Y81788
X106172Y81788
X152400Y81788
X132080Y81788
X22860Y94996
X2540Y94996
X48768Y94996
X28448Y94996
X74676Y94996
X54356Y94996
X100584Y94996
X80264Y94996
X126492Y94996
X106172Y94996
X152400Y94996
X132080Y94996
X22860Y108204
X2540Y108204
X48768Y108204
X28448Y108204
X74676Y108204
X54356Y108204
X100584Y108204
X80264Y108204
X126492Y108204
X106172Y108204
X152400Y108204
T2
X37338Y54102
X6350Y1270
X8890Y1270
X11430Y1270
X13970Y1270
X19050Y1270
X16510Y1270
X11430Y11430
X13970Y11430
X32258Y1270
X34798Y1270
X37338Y1270
X39878Y1270
X44958Y1270
X42418Y1270
X37338Y11430
X39878Y11430
X58166Y1270
X60706Y1270
X63246Y1270
X65786Y1270
X70866Y1270
X68326Y1270
X63246Y11430
X65786Y11430
X84074Y1270
X86614Y1270
X89154Y1270
X91694Y1270
X96774Y1270
X94234Y1270
X89154Y11430
X91694Y11430
X109982Y1270
X112522Y1270
X115062Y1270
X117602Y1270
X122682Y1270
X120142Y1270
X115062Y11430
X117602Y11430
X135890Y1270
X138430Y1270
X140970Y1270
X143510Y1270
X148590Y1270
X146050Y1270
X140970Y11430
X143510Y11430
X6350Y14478
X8890Y14478
X11430Y14478
X13970Y14478
X19050Y14478
X16510Y14478
X11430Y24638
X13970Y24638
X32258Y14478
X34798Y14478
X37338Y14478
X39878Y14478
X44958Y14478
X42418Y14478
X37338Y24638
X39878Y24638
X58166Y14478
X60706Y14478
X63246Y14478
X65786Y14478
X70866Y14478
X68326Y14478
X63246Y24638
X65786Y24638
X84074Y14478
X86614Y14478
X89154Y14478
X91694Y14478
X96774Y14478
X94234Y14478
X89154Y24638
X91694Y24638
X109982Y14478
X112522Y14478
X115062Y14478
X117602Y14478
X122682Y14478
X120142Y14478
X115062Y24638
X117602Y24638
X135890Y14478
X138430Y14478
X140970Y14478
X143510Y14478
X148590Y14478
X146050Y14478
X140970Y24638
X143510Y24638
X6350Y27686
X8890Y27686
X11430Y27686
X13970Y27686
X19050Y27686
X16510Y27686
X11430Y37846
X13970Y37846
X32258Y27686
X34798Y27686
X37338Y27686
X39878Y27686
X44958Y27686
X42418Y27686
X37338Y37846
X39878Y37846
X58166Y27686
X60706Y27686
X63246Y27686
X65786Y27686
X70866Y27686
X68326Y27686
X63246Y37846
X65786Y37846
X84074Y27686
X86614Y27686
X89154Y27686
X91694Y27686
X96774Y27686
X94234Y27686
X89154Y37846
X91694Y37846
X109982Y27686
X112522Y27686
X115062Y27686
X117602Y27686
X122682Y27686
X120142Y27686
X115062Y37846
X117602Y37846
X135890Y27686
X138430Y27686
X140970Y27686
X143510Y27686
X148590Y27686
X146050Y27686
X140970Y37846
X143510Y37846
X6350Y40894
X8890Y40894
X11430Y40894
X13970Y40894
X19050Y40894
X16510Y40894
X11430Y51054
X13970Y51054
X32258Y40894
X34798Y40894
X37338Y40894
X39878Y40894
X44958Y40894
X42418Y40894
X37338Y51054
X39878Y51054
X58166Y40894
X60706Y40894
X63246Y40894
X65786Y40894
X70866Y40894
X68326Y40894
X63246Y51054
X65786Y51054
X84074Y40894
X86614Y40894
X89154Y40894
X91694Y40894
X96774Y40894
X94234Y40894
X89154Y51054
X91694Y51054
X109982Y40894
X112522Y40894
X115062Y40894
X117602Y40894
X122682Y40894
X120142Y40894
X115062Y51054
X117602Y51054
X135890Y40894
X138430Y40894
X140970Y40894
X143510Y40894
X148590Y40894
X146050Y40894
X140970Y51054
X143510Y51054
X6350Y54102
X8890Y54102
X11430Y54102
X13970Y54102
X19050Y54102
X16510Y54102
X11430Y64262
X13970Y64262
X32258Y54102
X34798Y54102
X39878Y54102
X44958Y54102
X42418Y54102
X37338Y64262
X39878Y64262
X58166Y54102
X60706Y54102
X63246Y54102
X65786Y54102
X70866Y54102
X68326Y54102
X63246Y64262
X65786Y64262
X84074Y54102
X86614Y54102
X89154Y54102
X91694Y54102
X96774Y54102
X94234Y54102
X89154Y64262
X91694Y64262
X109982Y54102
X112522Y54102
X115062Y54102
X117602Y54102
X122682Y54102
X120142Y54102
X115062Y64262
X117602Y64262
X135890Y54102
X138430Y54102
X140970Y54102
X143510Y54102
X148590Y54102
X146050Y54102
X140970Y64262
X143510Y64262
X6350Y67310
X8890Y67310
X11430Y67310
X13970Y67310
X19050Y67310
X16510Y67310
X11430Y77470
X13970Y77470
X32258Y67310
X34798Y67310
X37338Y67310
X39878Y67310
X44958Y67310
X42418Y67310
X37338Y77470
X39878Y77470
X58166Y67310
X60706Y67310
X63246Y67310
X65786Y67310
X70866Y67310
X68326Y67310
X63246Y77470
X65786Y77470
X84074Y67310
X86614Y67310
X89154Y67310
X91694Y67310
X96774Y67310
X94234Y67310
X89154Y77470
X91694Y77470
X109982Y67310
X112522Y67310
X115062Y67310
X117602Y67310
X122682Y67310
X120142Y67310
X115062Y77470
X117602Y77470
X135890Y67310
X138430Y67310
X140970Y67310
X143510Y67310
X148590Y67310
X146050Y67310
X140970Y77470
X143510Y77470
X6350Y80518
X8890Y80518
X11430Y80518
X13970Y80518
X19050Y80518
X16510Y80518
X11430Y90678
X13970Y90678
X32258Y80518
X34798Y80518
X37338Y80518
X39878Y80518
X44958Y80518
X42418Y80518
X37338Y90678
X39878Y90678
X58166Y80518
X60706Y80518
X63246Y80518
X65786Y80518
X70866Y80518
X68326Y80518
X63246Y90678
X65786Y90678
X84074Y80518
X86614Y80518
X89154Y80518
X91694Y80518
X96774Y80518
X94234Y80518
X89154Y90678
X91694Y90678
X109982Y80518
X112522Y80518
X115062Y80518
X117602Y80518
X122682Y80518
X120142Y80518
X115062Y90678
X117602Y90678
X135890Y80518
X138430Y80518
X140970Y80518
X143510Y80518
X148590Y80518
X146050Y80518
X140970Y90678
X143510Y90678
X6350Y93726
X8890Y93726
X11430Y93726
X13970Y93726
X19050Y93726
X16510Y93726
X11430Y103886
X13970Y103886
X32258Y93726
X34798Y93726
X37338Y93726
X39878Y93726
X44958Y93726
X42418Y93726
X37338Y103886
X39878Y103886
X58166Y93726
X60706Y93726
X63246Y93726
X65786Y93726
X70866Y93726
X68326Y93726
X63246Y103886
X65786Y103886
X84074Y93726
X86614Y93726
X89154Y93726
X91694Y93726
X96774Y93726
X94234Y93726
X89154Y103886
X91694Y103886
X109982Y93726
X112522Y93726
X115062Y93726
X117602Y93726
X122682Y93726
X120142Y93726
X115062Y103886
X117602Y103886
X135890Y93726
X138430Y93726
X140970Y93726
X143510Y93726
X148590Y93726
X146050Y93726
X140970Y103886
X143510Y103886
X6350Y106934
X8890Y106934
X11430Y106934
X13970Y106934
X19050Y106934
X16510Y106934
X11430Y117094
X13970Y117094
X32258Y106934
X34798Y106934
X37338Y106934
X39878Y106934
X44958Y106934
X42418Y106934
X37338Y117094
X39878Y117094
X58166Y106934
X60706Y106934
X63246Y106934
X65786Y106934
X70866Y106934
X68326Y106934
X63246Y117094
X65786Y117094
X84074Y106934
X86614Y106934
X89154Y106934
X91694Y106934
X96774Y106934
X94234Y106934
X89154Y117094
X91694Y117094
X109982Y106934
X112522Y106934
X115062Y106934
X117602Y106934
X122682Y106934
X120142Y106934
X115062Y117094
X117602Y117094
X135890Y106934
X138430Y106934
X140970Y106934
X143510Y106934
X148590Y106934
X146050Y106934
X140970Y117094
X143510Y117094
T3
X108966Y44577
X110744Y44577
X112014Y46533
X112776Y48260
X109880Y50038
X112522Y50038
X118356Y45974
X113665Y47015
X110363Y46990
X107442Y47879
X115904Y48514
X115951Y44577
X139446Y49149
X144145Y49022
X148971Y46101
X143383Y45974
X139446Y44069
X139446Y42672
X148082Y42418
X134620Y51054
X133223Y50038
X145161Y45974
X146050Y48133
X135509Y45974
X134874Y44577
X136652Y44577
X137922Y46533
X138684Y48260
X135788Y50038
X138430Y50038
X144264Y45974
X139573Y47015
X136271Y46990
X133350Y47879
X141812Y48514
X141859Y44577
X9906Y62357
X14605Y62230
X19431Y59309
X13843Y59182
X9906Y57277
X9906Y55880
X18542Y55626
X5080Y64262
X3683Y63246
X15621Y59182
X16510Y61341
X5969Y59182
X5334Y57785
X7112Y57785
X8382Y59741
X9144Y61468
X6248Y63246
X8890Y63246
X14724Y59182
X10033Y60223
X6731Y60198
X3810Y61087
X12272Y61722
X12319Y57785
X35814Y62357
X40513Y62230
X45339Y59309
X39751Y59182
X35814Y57277
X35814Y55880
X44450Y55626
X30988Y64262
X29591Y63246
X41529Y59182
X42418Y61341
X31877Y59182
X31242Y57785
X33020Y57785
X34290Y59741
X35052Y61468
X32156Y63246
X34798Y63246
X40632Y59182
X35941Y60223
X32639Y60198
X29718Y61087
X38180Y61722
X38227Y57785
X61722Y62357
X66421Y62230
X71247Y59309
X65659Y59182
X61722Y57277
X61722Y55880
X70358Y55626
X56896Y64262
X55499Y63246
X67437Y59182
X68326Y61341
X57785Y59182
X57150Y57785
X58928Y57785
X60198Y59741
X60960Y61468
X58064Y63246
X60706Y63246
X66540Y59182
X61849Y60223
X58547Y60198
X55626Y61087
X64088Y61722
X64135Y57785
X87630Y62357
X92329Y62230
X97155Y59309
X91567Y59182
X87630Y57277
X87630Y55880
X96266Y55626
X82804Y64262
X81407Y63246
X93345Y59182
X94234Y61341
X83693Y59182
X83058Y57785
X84836Y57785
X86106Y59741
X86868Y61468
X83972Y63246
X86614Y63246
X92448Y59182
X87757Y60223
X84455Y60198
X81534Y61087
X89996Y61722
X90043Y57785
X113538Y62357
X118237Y62230
X123063Y59309
X117475Y59182
X113538Y57277
X113538Y55880
X122174Y55626
X108712Y64262
X107315Y63246
X119253Y59182
X120142Y61341
X109601Y59182
X108966Y57785
X110744Y57785
X112014Y59741
X112776Y61468
X109880Y63246
X112522Y63246
X118356Y59182
X113665Y60223
X110363Y60198
X107442Y61087
X115904Y61722
X115951Y57785
X139446Y62357
X144145Y62230
X148971Y59309
X143383Y59182
X139446Y57277
X139446Y55880
X148082Y55626
X134620Y64262
X133223Y63246
X145161Y59182
X146050Y61341
X135509Y59182
X134874Y57785
X136652Y57785
X137922Y59741
X138684Y61468
X135788Y63246
X138430Y63246
X144264Y59182
X139573Y60223
X136271Y60198
X133350Y61087
X141812Y61722
X141859Y57785
X9906Y75565
X14605Y75438
X19431Y72517
X13843Y72390
X9906Y70485
X9906Y69088
X18542Y68834
X5080Y77470
X3683Y76454
X15621Y72390
X16510Y74549
X5969Y72390
X5334Y70993
X7112Y70993
X8382Y72949
X9144Y74676
X6248Y76454
X8890Y76454
X14724Y72390
X10033Y73431
X6731Y73406
X3810Y74295
X12272Y74930
X12319Y70993
X35814Y75565
X40513Y75438
X45339Y72517
X39751Y72390
X35814Y70485
X35814Y69088
X44450Y68834
X30988Y77470
X29591Y76454
X41529Y72390
X42418Y74549
X31877Y72390
X31242Y70993
X33020Y70993
X34290Y72949
X35052Y74676
X32156Y76454
X34798Y76454
X40632Y72390
X35941Y73431
X32639Y73406
X29718Y74295
X38180Y74930
X38227Y70993
X61722Y75565
X66421Y75438
X71247Y72517
X65659Y72390
X61722Y70485
X61722Y69088
X70358Y68834
X56896Y77470
X55499Y76454
X67437Y72390
X68326Y74549
X57785Y72390
X57150Y70993
X58928Y70993
X60198Y72949
X60960Y74676
X58064Y76454
X60706Y76454
X66540Y72390
X61849Y73431
X58547Y73406
X55626Y74295
X64088Y74930
X64135Y70993
X87630Y75565
X92329Y75438
X97155Y72517
X91567Y72390
X87630Y70485
X87630Y69088
X96266Y68834
X82804Y77470
X81407Y76454
X93345Y72390
X94234Y74549
X83693Y72390
X83058Y70993
X84836Y70993
X86106Y72949
X86868Y74676
X83972Y76454
X86614Y76454
X92448Y72390
X87757Y73431
X84455Y73406
X81534Y74295
X89996Y74930
X90043Y70993
X113538Y75565
X118237Y75438
X123063Y72517
X117475Y72390
X113538Y70485
X113538Y69088
X122174Y68834
X108712Y77470
X107315Y76454
X119253Y72390
X120142Y74549
X109601Y72390
X108966Y70993
X110744Y70993
X112014Y72949
X112776Y74676
X109880Y76454
X112522Y76454
X118356Y72390
X113665Y73431
X110363Y73406
X107442Y74295
X115904Y74930
X115951Y70993
X139446Y75565
X144145Y75438
X148971Y72517
X143383Y72390
X139446Y70485
X139446Y69088
X148082Y68834
X134620Y77470
X133223Y76454
X145161Y72390
X146050Y74549
X135509Y72390
X134874Y70993
X136652Y70993
X137922Y72949
X138684Y74676
X135788Y76454
X138430Y76454
X144264Y72390
X139573Y73431
X136271Y73406
X133350Y74295
X141812Y74930
X141859Y70993
X9906Y88773
X14605Y88646
X19431Y85725
X13843Y85598
X9906Y83693
X9906Y82296
X18542Y82042
X5080Y90678
X3683Y89662
X15621Y85598
X16510Y87757
X5969Y85598
X5334Y84201
X7112Y84201
X8382Y86157
X9144Y87884
X6248Y89662
X8890Y89662
X14724Y85598
X10033Y86639
X6731Y86614
X3810Y87503
X12272Y88138
X12319Y84201
X35814Y88773
X40513Y88646
X45339Y85725
X39751Y85598
X35814Y83693
X35814Y82296
X44450Y82042
X30988Y90678
X29591Y89662
X41529Y85598
X42418Y87757
X31877Y85598
X31242Y84201
X33020Y84201
X34290Y86157
X35052Y87884
X32156Y89662
X34798Y89662
X40632Y85598
X35941Y86639
X32639Y86614
X29718Y87503
X38180Y88138
X38227Y84201
X61722Y88773
X66421Y88646
X71247Y85725
X65659Y85598
X61722Y83693
X61722Y82296
X84836Y18161
X56896Y90678
X55499Y89662
X67437Y85598
X68326Y87757
X57785Y85598
X57150Y84201
X58928Y84201
X60198Y86157
X60960Y87884
X58064Y89662
X60706Y89662
X66540Y85598
X61849Y86639
X58547Y86614
X55626Y87503
X64088Y88138
X64135Y84201
X87630Y88773
X92329Y88646
X97155Y85725
X91567Y85598
X87630Y83693
X87630Y82296
X96266Y82042
X82804Y90678
X81407Y89662
X93345Y85598
X94234Y87757
X83693Y85598
X83058Y84201
X84836Y84201
X86106Y86157
X86868Y87884
X83972Y89662
X86614Y89662
X92448Y85598
X87757Y86639
X84455Y86614
X81534Y87503
X89996Y88138
X90043Y84201
X113538Y88773
X118237Y88646
X123063Y85725
X117475Y85598
X113538Y83693
X113538Y82296
X122174Y82042
X108712Y90678
X107315Y89662
X119253Y85598
X120142Y87757
X109601Y85598
X108966Y84201
X110744Y84201
X112014Y86157
X112776Y87884
X109880Y89662
X112522Y89662
X118356Y85598
X113665Y86639
X110363Y86614
X107442Y87503
X115904Y88138
X115951Y84201
X139446Y88773
X144145Y88646
X148971Y85725
X143383Y85598
X139446Y83693
X139446Y82296
X148082Y82042
X134620Y90678
X133223Y89662
X145161Y85598
X146050Y87757
X135509Y85598
X134874Y84201
X136652Y84201
X137922Y86157
X138684Y87884
X135788Y89662
X138430Y89662
X144264Y85598
X139573Y86639
X136271Y86614
X133350Y87503
X141812Y88138
X141859Y84201
X9906Y101981
X14605Y101854
X19431Y98933
X13843Y98806
X9906Y96901
X9906Y95504
X18542Y95250
X5080Y103886
X3683Y102870
X15621Y98806
X16510Y100965
X5969Y98806
X5334Y97409
X7112Y97409
X8382Y99365
X9144Y101092
X6248Y102870
X8890Y102870
X14724Y98806
X10033Y99847
X6731Y99822
X3810Y100711
X12272Y101346
X12319Y97409
X35814Y101981
X40513Y101854
X45339Y98933
X39751Y98806
X35814Y96901
X35814Y95504
X44450Y95250
X30988Y103886
X29591Y102870
X41529Y98806
X42418Y100965
X31877Y98806
X31242Y97409
X33020Y97409
X34290Y99365
X35052Y101092
X32156Y102870
X34798Y102870
X40632Y98806
X35941Y99847
X32639Y99822
X29718Y100711
X38180Y101346
X38227Y97409
X61722Y101981
X66421Y101854
X71247Y98933
X65659Y98806
X61722Y96901
X61722Y95504
X70358Y95250
X56896Y103886
X55499Y102870
X67437Y98806
X68326Y100965
X57785Y98806
X57150Y97409
X58928Y97409
X60198Y99365
X60960Y101092
X58064Y102870
X60706Y102870
X66540Y98806
X61849Y99847
X58547Y99822
X55626Y100711
X64088Y101346
X64135Y97409
X87630Y101981
X92329Y101854
X97155Y98933
X91567Y98806
X87630Y96901
X87630Y95504
X96266Y95250
X82804Y103886
X81407Y102870
X93345Y98806
X94234Y100965
X83693Y98806
X83058Y97409
X84836Y97409
X86106Y99365
X86868Y101092
X83972Y102870
X86614Y102870
X92448Y98806
X87757Y99847
X84455Y99822
X81534Y100711
X89996Y101346
X90043Y97409
X113538Y101981
X118237Y101854
X123063Y98933
X117475Y98806
X113538Y96901
X113538Y95504
X122174Y95250
X108712Y103886
X107315Y102870
X119253Y98806
X120142Y100965
X109601Y98806
X108966Y97409
X110744Y97409
X112014Y99365
X112776Y101092
X109880Y102870
X112522Y102870
X118356Y98806
X113665Y99847
X110363Y99822
X107442Y100711
X115904Y101346
X115951Y97409
X139446Y101981
X144145Y101854
X148971Y98933
X143383Y98806
X139446Y96901
X139446Y95504
X148082Y95250
X134620Y103886
X133223Y102870
X145161Y98806
X146050Y100965
X135509Y98806
X134874Y97409
X136652Y97409
X137922Y99365
X138684Y101092
X135788Y102870
X138430Y102870
X144264Y98806
X139573Y99847
X136271Y99822
X133350Y100711
X141812Y101346
X141859Y97409
X9906Y115189
X14605Y115062
X19431Y112141
X13843Y112014
X9906Y110109
X9906Y108712
X18542Y108458
X5080Y117094
X3683Y116078
X15621Y112014
X16510Y114173
X5969Y112014
X5334Y110617
X7112Y110617
X8382Y112573
X9144Y114300
X6248Y116078
X8890Y116078
X14724Y112014
X10033Y113055
X6731Y113030
X3810Y113919
X12272Y114554
X12319Y110617
X35814Y115189
X40513Y115062
X45339Y112141
X39751Y112014
X35814Y110109
X35814Y108712
X44450Y108458
X30988Y117094
X29591Y116078
X41529Y112014
X42418Y114173
X31877Y112014
X31242Y110617
X33020Y110617
X34290Y112573
X35052Y114300
X32156Y116078
X34798Y116078
X40632Y112014
X35941Y113055
X32639Y113030
X29718Y113919
X38180Y114554
X38227Y110617
X61722Y115189
X66421Y115062
X71247Y112141
X65659Y112014
X61722Y110109
X61722Y108712
X70358Y108458
X56896Y117094
X55499Y116078
X67437Y112014
X68326Y114173
X57785Y112014
X57150Y110617
X58928Y110617
X60198Y112573
X60960Y114300
X58064Y116078
X60706Y116078
X66540Y112014
X61849Y113055
X58547Y113030
X55626Y113919
X64088Y114554
X64135Y110617
X87630Y115189
X92329Y115062
X97155Y112141
X91567Y112014
X87630Y110109
X87630Y108712
X96266Y108458
X82804Y117094
X81407Y116078
X93345Y112014
X94234Y114173
X83693Y112014
X83058Y110617
X84836Y110617
X86106Y112573
X86868Y114300
X83972Y116078
X86614Y116078
X92448Y112014
X87757Y113055
X84455Y113030
X81534Y113919
X89996Y114554
X90043Y110617
X113538Y115189
X118237Y115062
X123063Y112141
X117475Y112014
X113538Y110109
X113538Y108712
X122174Y108458
X108712Y117094
X107315Y116078
X119253Y112014
X120142Y114173
X109601Y112014
X108966Y110617
X110744Y110617
X112014Y112573
X112776Y114300
X109880Y116078
X112522Y116078
X118356Y112014
X113665Y113055
X110363Y113030
X107442Y113919
X115904Y114554
X115951Y110617
X139446Y115189
X144145Y115062
X148971Y112141
X143383Y112014
X139446Y110109
X139446Y108712
X148082Y108458
X134620Y117094
X133223Y116078
X145161Y112014
X146050Y114173
X135509Y112014
X134874Y110617
X136652Y110617
X137922Y112573
X138684Y114300
X135788Y116078
X138430Y116078
X144264Y112014
X139573Y113055
X136271Y113030
X133350Y113919
X141812Y114554
X141859Y110617
X9906Y9525
X14605Y9398
X19431Y6477
X13843Y6350
X9906Y4445
X9906Y3048
X18542Y2794
X5080Y11430
X3683Y10414
X15621Y6350
X16510Y8509
X5969Y6350
X5334Y4953
X7112Y4953
X8382Y6909
X9144Y8636
X6248Y10414
X8890Y10414
X14724Y6350
X10033Y7391
X6731Y7366
X3810Y8255
X12272Y8890
X12319Y4953
X35814Y9525
X40513Y9398
X45339Y6477
X39751Y6350
X35814Y4445
X35814Y3048
X44450Y2794
X30988Y11430
X29591Y10414
X41529Y6350
X42418Y8509
X31877Y6350
X31242Y4953
X33020Y4953
X34290Y6909
X35052Y8636
X32156Y10414
X34798Y10414
X40632Y6350
X35941Y7391
X32639Y7366
X29718Y8255
X38180Y8890
X38227Y4953
X61722Y9525
X66421Y9398
X71247Y6477
X65659Y6350
X61722Y4445
X61722Y3048
X70358Y2794
X56896Y11430
X55499Y10414
X67437Y6350
X68326Y8509
X57785Y6350
X57150Y4953
X58928Y4953
X60198Y6909
X60960Y8636
X58064Y10414
X60706Y10414
X66540Y6350
X61849Y7391
X58547Y7366
X55626Y8255
X64088Y8890
X64135Y4953
X87630Y9525
X92329Y9398
X97155Y6477
X91567Y6350
X87630Y4445
X87630Y3048
X96266Y2794
X82804Y11430
X81407Y10414
X93345Y6350
X94234Y8509
X83693Y6350
X83058Y4953
X84836Y4953
X86106Y6909
X86868Y8636
X83972Y10414
X86614Y10414
X92448Y6350
X87757Y7391
X84455Y7366
X81534Y8255
X89996Y8890
X90043Y4953
X113538Y9525
X118237Y9398
X123063Y6477
X117475Y6350
X113538Y4445
X113538Y3048
X122174Y2794
X108712Y11430
X107315Y10414
X119253Y6350
X120142Y8509
X109601Y6350
X108966Y4953
X110744Y4953
X112014Y6909
X112776Y8636
X109880Y10414
X112522Y10414
X118356Y6350
X113665Y7391
X110363Y7366
X107442Y8255
X115904Y8890
X115951Y4953
X139446Y9525
X144145Y9398
X148971Y6477
X143383Y6350
X139446Y4445
X139446Y3048
X148082Y2794
X134620Y11430
X133223Y10414
X145161Y6350
X146050Y8509
X135509Y6350
X134874Y4953
X136652Y4953
X137922Y6909
X138684Y8636
X135788Y10414
X138430Y10414
X144264Y6350
X139573Y7391
X136271Y7366
X133350Y8255
X141812Y8890
X141859Y4953
X9906Y22733
X14605Y22606
X19431Y19685
X13843Y19558
X9906Y17653
X9906Y16256
X18542Y16002
X5080Y24638
X3683Y23622
X15621Y19558
X16510Y21717
X5969Y19558
X5334Y18161
X7112Y18161
X8382Y20117
X9144Y21844
X6248Y23622
X8890Y23622
X14724Y19558
X10033Y20599
X6731Y20574
X3810Y21463
X12272Y22098
X12319Y18161
X35814Y22733
X40513Y22606
X45339Y19685
X39751Y19558
X35814Y17653
X35814Y16256
X44450Y16002
X30988Y24638
X29591Y23622
X41529Y19558
X42418Y21717
X31877Y19558
X31242Y18161
X33020Y18161
X34290Y20117
X35052Y21844
X32156Y23622
X34798Y23622
X40632Y19558
X35941Y20599
X32639Y20574
X29718Y21463
X38180Y22098
X38227Y18161
X61722Y22733
X66421Y22606
X71247Y19685
X65659Y19558
X61722Y17653
X61722Y16256
X70358Y16002
X56896Y24638
X55499Y23622
X67437Y19558
X68326Y21717
X57785Y19558
X57150Y18161
X58928Y18161
X60198Y20117
X60960Y21844
X58064Y23622
X60706Y23622
X66540Y19558
X61849Y20599
X58547Y20574
X55626Y21463
X64088Y22098
X64135Y18161
X87630Y22733
X92329Y22606
X97155Y19685
X91567Y19558
X87630Y17653
X87630Y16256
X96266Y16002
X82804Y24638
X81407Y23622
X93345Y19558
X94234Y21717
X83693Y19558
X83058Y18161
X86106Y20117
X86868Y21844
X83972Y23622
X86614Y23622
X92448Y19558
X87757Y20599
X84455Y20574
X81534Y21463
X89996Y22098
X90043Y18161
X113538Y22733
X118237Y22606
X123063Y19685
X117475Y19558
X113538Y17653
X113538Y16256
X122174Y16002
X108712Y24638
X107315Y23622
X119253Y19558
X120142Y21717
X109601Y19558
X108966Y18161
X110744Y18161
X112014Y20117
X112776Y21844
X109880Y23622
X112522Y23622
X118356Y19558
X113665Y20599
X110363Y20574
X107442Y21463
X115904Y22098
X115951Y18161
X139446Y22733
X144145Y22606
X148971Y19685
X143383Y19558
X139446Y17653
X139446Y16256
X148082Y16002
X134620Y24638
X133223Y23622
X145161Y19558
X146050Y21717
X135509Y19558
X134874Y18161
X136652Y18161
X137922Y20117
X138684Y21844
X135788Y23622
X138430Y23622
X144264Y19558
X139573Y20599
X136271Y20574
X133350Y21463
X141812Y22098
X141859Y18161
X9906Y35941
X14605Y35814
X19431Y32893
X13843Y32766
X9906Y30861
X9906Y29464
X18542Y29210
X5080Y37846
X3683Y36830
X15621Y32766
X16510Y34925
X5969Y32766
X5334Y31369
X7112Y31369
X8382Y33325
X9144Y35052
X6248Y36830
X8890Y36830
X14724Y32766
X10033Y33807
X6731Y33782
X3810Y34671
X12272Y35306
X70358Y82042
X12319Y31369
X35814Y35941
X40513Y35814
X45339Y32893
X39751Y32766
X35814Y30861
X35814Y29464
X44450Y29210
X30988Y37846
X29591Y36830
X41529Y32766
X42418Y34925
X31877Y32766
X31242Y31369
X33020Y31369
X34290Y33325
X35052Y35052
X32156Y36830
X34798Y36830
X40632Y32766
X35941Y33807
X32639Y33782
X29718Y34671
X38180Y35306
X38227Y31369
X61722Y35941
X66421Y35814
X71247Y32893
X65659Y32766
X61722Y30861
X61722Y29464
X70358Y29210
X56896Y37846
X55499Y36830
X67437Y32766
X68326Y34925
X57785Y32766
X57150Y31369
X58928Y31369
X60198Y33325
X60960Y35052
X58064Y36830
X60706Y36830
X66540Y32766
X61849Y33807
X58547Y33782
X55626Y34671
X64088Y35306
X64135Y31369
X87630Y35941
X92329Y35814
X97155Y32893
X91567Y32766
X87630Y30861
X87630Y29464
X96266Y29210
X82804Y37846
X81407Y36830
X93345Y32766
X94234Y34925
X83693Y32766
X83058Y31369
X84836Y31369
X86106Y33325
X86868Y35052
X83972Y36830
X86614Y36830
X92448Y32766
X87757Y33807
X84455Y33782
X81534Y34671
X89996Y35306
X90043Y31369
X113538Y35941
X118237Y35814
X123063Y32893
X117475Y32766
X113538Y30861
X113538Y29464
X122174Y29210
X108712Y37846
X107315Y36830
X119253Y32766
X120142Y34925
X109601Y32766
X108966Y31369
X110744Y31369
X112014Y33325
X112776Y35052
X109880Y36830
X112522Y36830
X118356Y32766
X113665Y33807
X110363Y33782
X107442Y34671
X115904Y35306
X115951Y31369
X139446Y35941
X144145Y35814
X148971Y32893
X143383Y32766
X139446Y30861
X139446Y29464
X148082Y29210
X134620Y37846
X133223Y36830
X145161Y32766
X146050Y34925
X135509Y32766
X134874Y31369
X136652Y31369
X137922Y33325
X138684Y35052
X135788Y36830
X138430Y36830
X144264Y32766
X139573Y33807
X136271Y33782
X133350Y34671
X141812Y35306
X141859Y31369
X9906Y49149
X14605Y49022
X19431Y46101
X13843Y45974
X9906Y44069
X9906Y42672
X18542Y42418
X5080Y51054
X3683Y50038
X15621Y45974
X16510Y48133
X5969Y45974
X5334Y44577
X7112Y44577
X8382Y46533
X9144Y48260
X6248Y50038
X8890Y50038
X14724Y45974
X10033Y47015
X6731Y46990
X3810Y47879
X12272Y48514
X12319Y44577
X35814Y49149
X40513Y49022
X45339Y46101
X39751Y45974
X35814Y44069
X35814Y42672
X44450Y42418
X30988Y51054
X29591Y50038
X41529Y45974
X42418Y48133
X31877Y45974
X31242Y44577
X33020Y44577
X34290Y46533
X35052Y48260
X32156Y50038
X34798Y50038
X40632Y45974
X35941Y47015
X32639Y46990
X29718Y47879
X38180Y48514
X38227Y44577
X61722Y49149
X66421Y49022
X71247Y46101
X65659Y45974
X61722Y44069
X61722Y42672
X70358Y42418
X56896Y51054
X55499Y50038
X67437Y45974
X68326Y48133
X57785Y45974
X57150Y44577
X58928Y44577
X60198Y46533
X60960Y48260
X58064Y50038
X60706Y50038
X66540Y45974
X61849Y47015
X58547Y46990
X55626Y47879
X64088Y48514
X64135Y44577
X87630Y49149
X92329Y49022
X97155Y46101
X91567Y45974
X87630Y44069
X87630Y42672
X96266Y42418
X82804Y51054
X81407Y50038
X93345Y45974
X94234Y48133
X83693Y45974
X83058Y44577
X84836Y44577
X86106Y46533
X86868Y48260
X83972Y50038
X86614Y50038
X92448Y45974
X87757Y47015
X84455Y46990
X81534Y47879
X89996Y48514
X90043Y44577
X113538Y49149
X118237Y49022
X123063Y46101
X117475Y45974
X113538Y44069
X113538Y42672
X122174Y42418
X108712Y51054
X107315Y50038
X119253Y45974
X120142Y48133
X109601Y45974
M30