M48
;GenerationSoftware,Autodesk,EAGLE,9.6.2*%
;CreationDate,2021-12-09T19:34:47Z*%
FMAT,2
ICI,OFF
METRIC,TZ,000.000
T3C0.305
T2C1.016
T1C3.048
%
G90
M71
T1
X22860Y2540
X2540Y2540
T2
X11430Y11430
X11430Y1270
X13970Y1270
X16510Y1270
X19050Y1270
X6350Y1270
X8890Y1270
X13970Y11430
T3
X14732Y2540
X9271Y5207
X9906Y7620
X6604Y9398
X10668Y6223
X9144Y9525
X12700Y9017
X19177Y8382
X16256Y9525
X8001Y8763
X15621Y4318
X14605Y4318
X9017Y10668
X18034Y5461
X18034Y9398
X12319Y4953
X12319Y3175
X13031Y4736
X13081Y2667
X15494Y3556
X11557Y4699
X20320Y6477
X6223Y10414
X15113Y10541
X10414Y10541
X9779Y11684
X18669Y9906
X18669Y4953
X13589Y6223
M30