G04 EAGLE Gerber RS-274X export*
G75*
%MOMM*%
%FSLAX34Y34*%
%LPD*%
%INSoldermask Bottom*%
%IPPOS*%
%AMOC8*
5,1,8,0,0,1.08239X$1,22.5*%
G01*
%ADD10C,0.762000*%
%ADD11C,3.175000*%
%ADD12C,2.006600*%
%ADD13C,0.228344*%

G36*
X179135Y77482D02*
X179135Y77482D01*
X179201Y77484D01*
X179244Y77502D01*
X179291Y77510D01*
X179348Y77544D01*
X179408Y77569D01*
X179443Y77600D01*
X179484Y77625D01*
X179526Y77676D01*
X179574Y77720D01*
X179596Y77762D01*
X179625Y77799D01*
X179646Y77861D01*
X179677Y77920D01*
X179685Y77974D01*
X179697Y78011D01*
X179696Y78051D01*
X179704Y78105D01*
X179704Y81915D01*
X179693Y81980D01*
X179691Y82046D01*
X179673Y82089D01*
X179665Y82136D01*
X179631Y82193D01*
X179606Y82253D01*
X179575Y82288D01*
X179550Y82329D01*
X179499Y82371D01*
X179455Y82419D01*
X179413Y82441D01*
X179376Y82470D01*
X179314Y82491D01*
X179255Y82522D01*
X179201Y82530D01*
X179164Y82542D01*
X179124Y82541D01*
X179070Y82549D01*
X176530Y82549D01*
X176465Y82538D01*
X176399Y82536D01*
X176356Y82518D01*
X176309Y82510D01*
X176252Y82476D01*
X176192Y82451D01*
X176157Y82420D01*
X176116Y82395D01*
X176075Y82344D01*
X176026Y82300D01*
X176004Y82258D01*
X175975Y82221D01*
X175954Y82159D01*
X175923Y82100D01*
X175915Y82046D01*
X175903Y82009D01*
X175903Y82005D01*
X175903Y82004D01*
X175904Y81969D01*
X175896Y81915D01*
X175896Y78105D01*
X175907Y78040D01*
X175909Y77974D01*
X175927Y77931D01*
X175935Y77884D01*
X175969Y77827D01*
X175994Y77767D01*
X176025Y77732D01*
X176050Y77691D01*
X176101Y77650D01*
X176145Y77601D01*
X176187Y77579D01*
X176224Y77550D01*
X176286Y77529D01*
X176345Y77498D01*
X176399Y77490D01*
X176436Y77478D01*
X176476Y77479D01*
X176530Y77471D01*
X179070Y77471D01*
X179135Y77482D01*
G37*
G36*
X179135Y67322D02*
X179135Y67322D01*
X179201Y67324D01*
X179244Y67342D01*
X179291Y67350D01*
X179348Y67384D01*
X179408Y67409D01*
X179443Y67440D01*
X179484Y67465D01*
X179526Y67516D01*
X179574Y67560D01*
X179596Y67602D01*
X179625Y67639D01*
X179646Y67701D01*
X179677Y67760D01*
X179685Y67814D01*
X179697Y67851D01*
X179696Y67891D01*
X179704Y67945D01*
X179704Y71755D01*
X179693Y71820D01*
X179691Y71886D01*
X179673Y71929D01*
X179665Y71976D01*
X179631Y72033D01*
X179606Y72093D01*
X179575Y72128D01*
X179550Y72169D01*
X179499Y72211D01*
X179455Y72259D01*
X179413Y72281D01*
X179376Y72310D01*
X179314Y72331D01*
X179255Y72362D01*
X179201Y72370D01*
X179164Y72382D01*
X179124Y72381D01*
X179070Y72389D01*
X176530Y72389D01*
X176465Y72378D01*
X176399Y72376D01*
X176356Y72358D01*
X176309Y72350D01*
X176252Y72316D01*
X176192Y72291D01*
X176157Y72260D01*
X176116Y72235D01*
X176075Y72184D01*
X176026Y72140D01*
X176004Y72098D01*
X175975Y72061D01*
X175954Y71999D01*
X175923Y71940D01*
X175915Y71886D01*
X175903Y71849D01*
X175903Y71845D01*
X175903Y71844D01*
X175904Y71809D01*
X175896Y71755D01*
X175896Y67945D01*
X175907Y67880D01*
X175909Y67814D01*
X175927Y67771D01*
X175935Y67724D01*
X175969Y67667D01*
X175994Y67607D01*
X176025Y67572D01*
X176050Y67531D01*
X176101Y67490D01*
X176145Y67441D01*
X176187Y67419D01*
X176224Y67390D01*
X176286Y67369D01*
X176345Y67338D01*
X176399Y67330D01*
X176436Y67318D01*
X176476Y67319D01*
X176530Y67311D01*
X179070Y67311D01*
X179135Y67322D01*
G37*
G36*
X79440Y108597D02*
X79440Y108597D01*
X79506Y108599D01*
X79549Y108617D01*
X79596Y108625D01*
X79653Y108659D01*
X79713Y108684D01*
X79748Y108715D01*
X79789Y108740D01*
X79831Y108791D01*
X79879Y108835D01*
X79901Y108877D01*
X79930Y108914D01*
X79951Y108976D01*
X79982Y109035D01*
X79990Y109089D01*
X80002Y109126D01*
X80001Y109166D01*
X80009Y109220D01*
X80009Y111760D01*
X79998Y111825D01*
X79996Y111891D01*
X79978Y111934D01*
X79970Y111981D01*
X79936Y112038D01*
X79911Y112098D01*
X79880Y112133D01*
X79855Y112174D01*
X79804Y112216D01*
X79760Y112264D01*
X79718Y112286D01*
X79681Y112315D01*
X79619Y112336D01*
X79560Y112367D01*
X79506Y112375D01*
X79469Y112387D01*
X79429Y112386D01*
X79375Y112394D01*
X75565Y112394D01*
X75500Y112383D01*
X75434Y112381D01*
X75391Y112363D01*
X75344Y112355D01*
X75287Y112321D01*
X75227Y112296D01*
X75192Y112265D01*
X75151Y112240D01*
X75110Y112189D01*
X75061Y112145D01*
X75039Y112103D01*
X75010Y112066D01*
X74989Y112004D01*
X74958Y111945D01*
X74950Y111891D01*
X74938Y111854D01*
X74938Y111851D01*
X74939Y111814D01*
X74931Y111760D01*
X74931Y109220D01*
X74942Y109155D01*
X74944Y109089D01*
X74962Y109046D01*
X74970Y108999D01*
X75004Y108942D01*
X75029Y108882D01*
X75060Y108847D01*
X75085Y108806D01*
X75136Y108765D01*
X75180Y108716D01*
X75222Y108694D01*
X75259Y108665D01*
X75321Y108644D01*
X75380Y108613D01*
X75434Y108605D01*
X75471Y108593D01*
X75511Y108594D01*
X75565Y108586D01*
X79375Y108586D01*
X79440Y108597D01*
G37*
D10*
X190500Y110490D03*
X6350Y7620D03*
D11*
X228600Y25400D03*
X25400Y25400D03*
D12*
X114300Y12700D03*
X139700Y12700D03*
X165100Y12700D03*
X190500Y12700D03*
D13*
X85473Y116334D02*
X79881Y116334D01*
X85473Y116334D02*
X85473Y104646D01*
X79881Y104646D01*
X79881Y116334D01*
X79881Y106815D02*
X85473Y106815D01*
X85473Y108984D02*
X79881Y108984D01*
X79881Y111153D02*
X85473Y111153D01*
X85473Y113322D02*
X79881Y113322D01*
X79881Y115491D02*
X85473Y115491D01*
X75059Y116334D02*
X69467Y116334D01*
X75059Y116334D02*
X75059Y104646D01*
X69467Y104646D01*
X69467Y116334D01*
X69467Y106815D02*
X75059Y106815D01*
X75059Y108984D02*
X69467Y108984D01*
X69467Y111153D02*
X75059Y111153D01*
X75059Y113322D02*
X69467Y113322D01*
X69467Y115491D02*
X75059Y115491D01*
X171956Y88140D02*
X171956Y82548D01*
X171956Y88140D02*
X183644Y88140D01*
X183644Y82548D01*
X171956Y82548D01*
X171956Y84717D02*
X183644Y84717D01*
X183644Y86886D02*
X171956Y86886D01*
X171956Y77726D02*
X171956Y72134D01*
X171956Y77726D02*
X183644Y77726D01*
X183644Y72134D01*
X171956Y72134D01*
X171956Y74303D02*
X183644Y74303D01*
X183644Y76472D02*
X171956Y76472D01*
X171956Y67312D02*
X171956Y61720D01*
X171956Y67312D02*
X183644Y67312D01*
X183644Y61720D01*
X171956Y61720D01*
X171956Y63889D02*
X183644Y63889D01*
X183644Y66058D02*
X171956Y66058D01*
D12*
X63500Y12700D03*
X88900Y12700D03*
X139700Y114300D03*
X114300Y114300D03*
M02*
